<?xml version="1.0" encoding="UTF-8" standalone="no"?>
<!DOCTYPE svg PUBLIC "-//W3C//DTD SVG 1.1//EN"
 "http://www.w3.org/Graphics/SVG/1.1/DTD/svg11.dtd">
<!-- Generated by graphviz version 2.38.0 (20140413.2041)
 -->
<!-- Title: Framework/include/QualityControl/Activity.h Pages: 1 -->
<!--zoomable 240 -->
<svg id="main" version="1.1" xmlns="http://www.w3.org/2000/svg" xmlns:xlink="http://www.w3.org/1999/xlink" xml:space="preserve" onload="init(evt)">
<style type="text/css"><![CDATA[
.edge:hover path { stroke: red; }
.edge:hover polygon { stroke: red; fill: red; }
]]></style>
<script type="text/javascript"><![CDATA[
var edges = document.getElementsByTagName('g');
if (edges && edges.length) {
  for (var i=0;i<edges.length;i++) {
    if (edges[i].id.substr(0,4)=='edge') {
      edges[i].setAttribute('class','edge');
    }
  }
}
]]></script>
        <defs>
                <circle id="rim" cx="0" cy="0" r="7"/>
                <circle id="rim2" cx="0" cy="0" r="3.5"/>
                <g id="zoomPlus">
                        <use xlink:href="#rim" fill="#404040">
                                <set attributeName="fill" to="#808080" begin="zoomplus.mouseover" end="zoomplus.mouseout"/>
                        </use>
                        <path d="M-4,0h8M0,-4v8" fill="none" stroke="white" stroke-width="1.5" pointer-events="none"/>
                </g>
                <g id="zoomMin">
                        <use xlink:href="#rim" fill="#404040">
                                <set attributeName="fill" to="#808080" begin="zoomminus.mouseover" end="zoomminus.mouseout"/>
                        </use>
                        <path d="M-4,0h8" fill="none" stroke="white" stroke-width="1.5" pointer-events="none"/>
                </g>
                <g id="dirArrow">
                        <path fill="none" stroke="white" stroke-width="1.5" d="M0,-3.0v7 M-2.5,-0.5L0,-3.0L2.5,-0.5"/>
                </g>
               <g id="resetDef">
                       <use xlink:href="#rim2" fill="#404040">
                               <set attributeName="fill" to="#808080" begin="reset.mouseover" end="reset.mouseout"/>
                       </use>
               </g>
        </defs>

<script type="text/javascript">
var viewWidth = 4448;
var viewHeight = 240;
var sectionId = 'dynsection-0';
</script>
<script xlink:href="svgpan.js"/>
<svg id="graph" class="graph">
<g id="viewport">
<title>Framework/include/QualityControl/Activity.h</title>
<!-- Node1 -->
<g id="node1" class="node"><title>Node1</title>
<polygon fill="#bfbfbf" stroke="black" points="3267.5,-201.5 3267.5,-231.5 3400.5,-231.5 3400.5,-201.5 3267.5,-201.5"/>
<text text-anchor="start" x="3275.5" y="-219.5" font-family="Helvetica,sans-Serif" font-size="10.00">Framework/include/Quality</text>
<text text-anchor="middle" x="3334" y="-208.5" font-family="Helvetica,sans-Serif" font-size="10.00">Control/Activity.h</text>
</g>
<!-- Node2 -->
<g id="node2" class="node"><title>Node2</title>
<g id="a_node2"><a xlink:href="TaskInterface_8h.html" target="_top" xlink:title="Framework/include/Quality\lControl/TaskInterface.h">
<polygon fill="none" stroke="black" points="3267.5,-134.5 3267.5,-164.5 3400.5,-164.5 3400.5,-134.5 3267.5,-134.5"/>
<text text-anchor="start" x="3275.5" y="-152.5" font-family="Helvetica,sans-Serif" font-size="10.00">Framework/include/Quality</text>
<text text-anchor="middle" x="3334" y="-141.5" font-family="Helvetica,sans-Serif" font-size="10.00">Control/TaskInterface.h</text>
</a>
</g>
</g>
<!-- Node1&#45;&gt;Node2 -->
<g id="edge1" class="edge"><title>Node1&#45;&gt;Node2</title>
<path fill="none" stroke="midnightblue" d="M3334,-191.108C3334,-182.154 3334,-172.323 3334,-164.577"/>
<polygon fill="midnightblue" stroke="midnightblue" points="3330.5,-191.396 3334,-201.396 3337.5,-191.396 3330.5,-191.396"/>
</g>
<!-- Node3 -->
<g id="node3" class="node"><title>Node3</title>
<g id="a_node3"><a xlink:href="TaskFactory_8h.html" target="_top" xlink:title="Framework/include/Quality\lControl/TaskFactory.h">
<polygon fill="none" stroke="black" points="2015.5,-67.5 2015.5,-97.5 2148.5,-97.5 2148.5,-67.5 2015.5,-67.5"/>
<text text-anchor="start" x="2023.5" y="-85.5" font-family="Helvetica,sans-Serif" font-size="10.00">Framework/include/Quality</text>
<text text-anchor="middle" x="2082" y="-74.5" font-family="Helvetica,sans-Serif" font-size="10.00">Control/TaskFactory.h</text>
</a>
</g>
</g>
<!-- Node2&#45;&gt;Node3 -->
<g id="edge2" class="edge"><title>Node2&#45;&gt;Node3</title>
<path fill="none" stroke="midnightblue" d="M3256.95,-144.5C3029.26,-132.679 2362.13,-98.0436 2148.58,-86.9564"/>
<polygon fill="midnightblue" stroke="midnightblue" points="3256.96,-148.005 3267.13,-145.028 3257.32,-141.014 3256.96,-148.005"/>
</g>
<!-- Node6 -->
<g id="node6" class="node"><title>Node6</title>
<g id="a_node6"><a xlink:href="testTaskInterface_8cxx.html" target="_top" xlink:title="Framework/test/testTaskInterface.cxx">
<polygon fill="none" stroke="black" points="1307.5,-6 1307.5,-25 1490.5,-25 1490.5,-6 1307.5,-6"/>
<text text-anchor="middle" x="1399" y="-13" font-family="Helvetica,sans-Serif" font-size="10.00">Framework/test/testTaskInterface.cxx</text>
</a>
</g>
</g>
<!-- Node2&#45;&gt;Node6 -->
<g id="edge23" class="edge"><title>Node2&#45;&gt;Node6</title>
<path fill="none" stroke="midnightblue" d="M3257.39,-148.139C2940.11,-146.395 1738.08,-137.236 1573,-98 1509.07,-82.8038 1440.49,-42.733 1412.28,-25.07"/>
<polygon fill="midnightblue" stroke="midnightblue" points="3257.39,-151.639 3267.41,-148.193 3257.43,-144.639 3257.39,-151.639"/>
</g>
<!-- Node15 -->
<g id="node15" class="node"><title>Node15</title>
<g id="a_node15"><a xlink:href="TaskRunner_8h.html" target="_top" xlink:title="Framework/include/Quality\lControl/TaskRunner.h">
<polygon fill="none" stroke="black" points="577.5,-67.5 577.5,-97.5 710.5,-97.5 710.5,-67.5 577.5,-67.5"/>
<text text-anchor="start" x="585.5" y="-85.5" font-family="Helvetica,sans-Serif" font-size="10.00">Framework/include/Quality</text>
<text text-anchor="middle" x="644" y="-74.5" font-family="Helvetica,sans-Serif" font-size="10.00">Control/TaskRunner.h</text>
</a>
</g>
</g>
<!-- Node2&#45;&gt;Node15 -->
<g id="edge14" class="edge"><title>Node2&#45;&gt;Node15</title>
<path fill="none" stroke="midnightblue" d="M3257.03,-146.64C2863.29,-137.126 1078.66,-94.003 710.544,-85.1079"/>
<polygon fill="midnightblue" stroke="midnightblue" points="3257.09,-150.142 3267.17,-146.885 3257.26,-143.145 3257.09,-150.142"/>
</g>
<!-- Node22 -->
<g id="node22" class="node"><title>Node22</title>
<g id="a_node22"><a xlink:href="TaskInterface_8cxx.html" target="_top" xlink:title="Framework/src/TaskInterface.cxx">
<polygon fill="none" stroke="black" points="3030,-73 3030,-92 3194,-92 3194,-73 3030,-73"/>
<text text-anchor="middle" x="3112" y="-80" font-family="Helvetica,sans-Serif" font-size="10.00">Framework/src/TaskInterface.cxx</text>
</a>
</g>
</g>
<!-- Node2&#45;&gt;Node22 -->
<g id="edge22" class="edge"><title>Node2&#45;&gt;Node22</title>
<path fill="none" stroke="midnightblue" d="M3276.25,-131.59C3232.89,-118.896 3175.33,-102.043 3141.13,-92.0287"/>
<polygon fill="midnightblue" stroke="midnightblue" points="3275.52,-135.025 3286.1,-134.476 3277.49,-128.307 3275.52,-135.025"/>
</g>
<!-- Node23 -->
<g id="node23" class="node"><title>Node23</title>
<g id="a_node23"><a xlink:href="DaqTask_8h.html" target="_top" xlink:title="Modules/Daq/include\l/Daq/DaqTask.h">
<polygon fill="none" stroke="black" points="3212,-67.5 3212,-97.5 3320,-97.5 3320,-67.5 3212,-67.5"/>
<text text-anchor="start" x="3220" y="-85.5" font-family="Helvetica,sans-Serif" font-size="10.00">Modules/Daq/include</text>
<text text-anchor="middle" x="3266" y="-74.5" font-family="Helvetica,sans-Serif" font-size="10.00">/Daq/DaqTask.h</text>
</a>
</g>
</g>
<!-- Node2&#45;&gt;Node23 -->
<g id="edge24" class="edge"><title>Node2&#45;&gt;Node23</title>
<path fill="none" stroke="midnightblue" d="M3311.83,-127.311C3301.63,-117.561 3289.81,-106.259 3280.73,-97.5765"/>
<polygon fill="midnightblue" stroke="midnightblue" points="3309.6,-130.016 3319.25,-134.396 3314.43,-124.956 3309.6,-130.016"/>
</g>
<!-- Node26 -->
<g id="node26" class="node"><title>Node26</title>
<g id="a_node26"><a xlink:href="DigitsQcTask_8h.html" target="_top" xlink:title="Modules/EMCAL/include\l/EMCAL/DigitsQcTask.h">
<polygon fill="none" stroke="black" points="3339.5,-67.5 3339.5,-97.5 3464.5,-97.5 3464.5,-67.5 3339.5,-67.5"/>
<text text-anchor="start" x="3347.5" y="-85.5" font-family="Helvetica,sans-Serif" font-size="10.00">Modules/EMCAL/include</text>
<text text-anchor="middle" x="3402" y="-74.5" font-family="Helvetica,sans-Serif" font-size="10.00">/EMCAL/DigitsQcTask.h</text>
</a>
</g>
</g>
<!-- Node2&#45;&gt;Node26 -->
<g id="edge27" class="edge"><title>Node2&#45;&gt;Node26</title>
<path fill="none" stroke="midnightblue" d="M3356.17,-127.311C3366.37,-117.561 3378.19,-106.259 3387.27,-97.5765"/>
<polygon fill="midnightblue" stroke="midnightblue" points="3353.57,-124.956 3348.75,-134.396 3358.4,-130.016 3353.57,-124.956"/>
</g>
<!-- Node28 -->
<g id="node28" class="node"><title>Node28</title>
<g id="a_node28"><a xlink:href="RawTask_8h.html" target="_top" xlink:title="Modules/EMCAL/include\l/EMCAL/RawTask.h">
<polygon fill="none" stroke="black" points="3483.5,-67.5 3483.5,-97.5 3608.5,-97.5 3608.5,-67.5 3483.5,-67.5"/>
<text text-anchor="start" x="3491.5" y="-85.5" font-family="Helvetica,sans-Serif" font-size="10.00">Modules/EMCAL/include</text>
<text text-anchor="middle" x="3546" y="-74.5" font-family="Helvetica,sans-Serif" font-size="10.00">/EMCAL/RawTask.h</text>
</a>
</g>
</g>
<!-- Node2&#45;&gt;Node28 -->
<g id="edge29" class="edge"><title>Node2&#45;&gt;Node28</title>
<path fill="none" stroke="midnightblue" d="M3389.63,-131.444C3423.99,-120.908 3467.56,-107.549 3499.98,-97.6109"/>
<polygon fill="midnightblue" stroke="midnightblue" points="3388.27,-128.198 3379.74,-134.476 3390.33,-134.891 3388.27,-128.198"/>
</g>
<!-- Node30 -->
<g id="node30" class="node"><title>Node30</title>
<g id="a_node30"><a xlink:href="BenchmarkTask_8h.html" target="_top" xlink:title="Modules/Example/include\l/Example/BenchmarkTask.h">
<polygon fill="none" stroke="black" points="3630,-67.5 3630,-97.5 3770,-97.5 3770,-67.5 3630,-67.5"/>
<text text-anchor="start" x="3638" y="-85.5" font-family="Helvetica,sans-Serif" font-size="10.00">Modules/Example/include</text>
<text text-anchor="middle" x="3700" y="-74.5" font-family="Helvetica,sans-Serif" font-size="10.00">/Example/BenchmarkTask.h</text>
</a>
</g>
</g>
<!-- Node2&#45;&gt;Node30 -->
<g id="edge31" class="edge"><title>Node2&#45;&gt;Node30</title>
<path fill="none" stroke="midnightblue" d="M3410.83,-134.855C3475.43,-123.382 3567.01,-107.118 3629.7,-95.9848"/>
<polygon fill="midnightblue" stroke="midnightblue" points="3409.94,-131.459 3400.7,-136.654 3411.16,-138.351 3409.94,-131.459"/>
</g>
<!-- Node32 -->
<g id="node32" class="node"><title>Node32</title>
<g id="a_node32"><a xlink:href="ExampleCondition_8h.html" target="_top" xlink:title="Modules/Example/include\l/Example/ExampleCondition.h">
<polygon fill="none" stroke="black" points="3794.5,-67.5 3794.5,-97.5 3943.5,-97.5 3943.5,-67.5 3794.5,-67.5"/>
<text text-anchor="start" x="3802.5" y="-85.5" font-family="Helvetica,sans-Serif" font-size="10.00">Modules/Example/include</text>
<text text-anchor="middle" x="3869" y="-74.5" font-family="Helvetica,sans-Serif" font-size="10.00">/Example/ExampleCondition.h</text>
</a>
</g>
</g>
<!-- Node2&#45;&gt;Node32 -->
<g id="edge33" class="edge"><title>Node2&#45;&gt;Node32</title>
<path fill="none" stroke="midnightblue" d="M3410.83,-140.883C3499.64,-131.823 3650.13,-115.684 3779,-98 3784.02,-97.3115 3789.19,-96.5686 3794.39,-95.7956"/>
<polygon fill="midnightblue" stroke="midnightblue" points="3410.44,-137.405 3400.84,-141.898 3411.15,-144.369 3410.44,-137.405"/>
</g>
<!-- Node34 -->
<g id="node34" class="node"><title>Node34</title>
<g id="a_node34"><a xlink:href="ExampleTask_8h.html" target="_top" xlink:title="Modules/Example/include\l/Example/ExampleTask.h">
<polygon fill="none" stroke="black" points="1582.5,-67.5 1582.5,-97.5 1711.5,-97.5 1711.5,-67.5 1582.5,-67.5"/>
<text text-anchor="start" x="1590.5" y="-85.5" font-family="Helvetica,sans-Serif" font-size="10.00">Modules/Example/include</text>
<text text-anchor="middle" x="1647" y="-74.5" font-family="Helvetica,sans-Serif" font-size="10.00">/Example/ExampleTask.h</text>
</a>
</g>
</g>
<!-- Node2&#45;&gt;Node34 -->
<g id="edge35" class="edge"><title>Node2&#45;&gt;Node34</title>
<path fill="none" stroke="midnightblue" d="M3257.32,-145.648C3053.59,-138.055 2481.82,-116.656 2006,-98 1903,-93.9616 1783.39,-89.0949 1711.53,-86.1521"/>
<polygon fill="midnightblue" stroke="midnightblue" points="3257.2,-149.145 3267.32,-146.02 3257.46,-142.15 3257.2,-149.145"/>
</g>
<!-- Node36 -->
<g id="node36" class="node"><title>Node36</title>
<g id="a_node36"><a xlink:href="BasicDigitQcTask_8h.html" target="_top" xlink:title="Modules/MFT/include\l/MFT/BasicDigitQcTask.h">
<polygon fill="none" stroke="black" points="3972.5,-67.5 3972.5,-97.5 4103.5,-97.5 4103.5,-67.5 3972.5,-67.5"/>
<text text-anchor="start" x="3980.5" y="-85.5" font-family="Helvetica,sans-Serif" font-size="10.00">Modules/MFT/include</text>
<text text-anchor="middle" x="4038" y="-74.5" font-family="Helvetica,sans-Serif" font-size="10.00">/MFT/BasicDigitQcTask.h</text>
</a>
</g>
</g>
<!-- Node2&#45;&gt;Node36 -->
<g id="edge39" class="edge"><title>Node2&#45;&gt;Node36</title>
<path fill="none" stroke="midnightblue" d="M3411.25,-144.315C3528.46,-137.485 3758.1,-122.223 3952,-98 3958.61,-97.1741 3965.49,-96.2038 3972.35,-95.1631"/>
<polygon fill="midnightblue" stroke="midnightblue" points="3410.73,-140.839 3400.95,-144.91 3411.14,-147.827 3410.73,-140.839"/>
</g>
<!-- Node38 -->
<g id="node38" class="node"><title>Node38</title>
<g id="a_node38"><a xlink:href="SkeletonTask_8h.html" target="_top" xlink:title="Modules/Skeleton/include\l/Skeleton/SkeletonTask.h">
<polygon fill="none" stroke="black" points="2875.5,-67.5 2875.5,-97.5 3004.5,-97.5 3004.5,-67.5 2875.5,-67.5"/>
<text text-anchor="start" x="2883.5" y="-85.5" font-family="Helvetica,sans-Serif" font-size="10.00">Modules/Skeleton/include</text>
<text text-anchor="middle" x="2940" y="-74.5" font-family="Helvetica,sans-Serif" font-size="10.00">/Skeleton/SkeletonTask.h</text>
</a>
</g>
</g>
<!-- Node2&#45;&gt;Node38 -->
<g id="edge41" class="edge"><title>Node2&#45;&gt;Node38</title>
<path fill="none" stroke="midnightblue" d="M3257.47,-136.528C3194.06,-126.519 3101.61,-111.717 3021,-98 3015.65,-97.0893 3010.1,-96.1295 3004.53,-95.1552"/>
<polygon fill="midnightblue" stroke="midnightblue" points="3256.97,-139.992 3267.39,-138.093 3258.06,-133.078 3256.97,-139.992"/>
</g>
<!-- Node40 -->
<g id="node40" class="node"><title>Node40</title>
<g id="a_node40"><a xlink:href="TOFTask_8h.html" target="_top" xlink:title="Modules/TOF/include\l/TOF/TOFTask.h">
<polygon fill="none" stroke="black" points="4145,-67.5 4145,-97.5 4255,-97.5 4255,-67.5 4145,-67.5"/>
<text text-anchor="start" x="4153" y="-85.5" font-family="Helvetica,sans-Serif" font-size="10.00">Modules/TOF/include</text>
<text text-anchor="middle" x="4200" y="-74.5" font-family="Helvetica,sans-Serif" font-size="10.00">/TOF/TOFTask.h</text>
</a>
</g>
</g>
<!-- Node2&#45;&gt;Node40 -->
<g id="edge44" class="edge"><title>Node2&#45;&gt;Node40</title>
<path fill="none" stroke="midnightblue" d="M3410.73,-146.026C3550.54,-140.962 3856.01,-127.326 4112,-98 4122.61,-96.784 4133.9,-95.1701 4144.72,-93.4612"/>
<polygon fill="midnightblue" stroke="midnightblue" points="3410.41,-142.535 3400.54,-146.391 3410.66,-149.531 3410.41,-142.535"/>
</g>
<!-- Node42 -->
<g id="node42" class="node"><title>Node42</title>
<g id="a_node42"><a xlink:href="PID_8h.html" target="_top" xlink:title="Modules/TPC/include\l/TPC/PID.h">
<polygon fill="none" stroke="black" points="4318,-67.5 4318,-97.5 4428,-97.5 4428,-67.5 4318,-67.5"/>
<text text-anchor="start" x="4326" y="-85.5" font-family="Helvetica,sans-Serif" font-size="10.00">Modules/TPC/include</text>
<text text-anchor="middle" x="4373" y="-74.5" font-family="Helvetica,sans-Serif" font-size="10.00">/TPC/PID.h</text>
</a>
</g>
</g>
<!-- Node2&#45;&gt;Node42 -->
<g id="edge46" class="edge"><title>Node2&#45;&gt;Node42</title>
<path fill="none" stroke="midnightblue" d="M3410.84,-146.356C3570.2,-141.462 3948.14,-127.539 4264,-98 4281.58,-96.3557 4300.69,-94.0066 4317.92,-91.6767"/>
<polygon fill="midnightblue" stroke="midnightblue" points="3410.55,-142.863 3400.67,-146.665 3410.77,-149.86 3410.55,-142.863"/>
</g>
<!-- Node4 -->
<g id="node4" class="node"><title>Node4</title>
<g id="a_node4"><a xlink:href="TaskFactory_8cxx.html" target="_top" xlink:title="Framework/src/TaskFactory.cxx">
<polygon fill="none" stroke="black" points="1773,-6 1773,-25 1931,-25 1931,-6 1773,-6"/>
<text text-anchor="middle" x="1852" y="-13" font-family="Helvetica,sans-Serif" font-size="10.00">Framework/src/TaskFactory.cxx</text>
</a>
</g>
</g>
<!-- Node3&#45;&gt;Node4 -->
<g id="edge3" class="edge"><title>Node3&#45;&gt;Node4</title>
<path fill="none" stroke="midnightblue" d="M2022.73,-64.7505C1977.75,-52.038 1917.76,-35.0851 1882.18,-25.0287"/>
<polygon fill="midnightblue" stroke="midnightblue" points="2021.8,-68.1244 2032.38,-67.476 2023.71,-61.3883 2021.8,-68.1244"/>
</g>
<!-- Node5 -->
<g id="node5" class="node"><title>Node5</title>
<g id="a_node5"><a xlink:href="TaskRunner_8cxx.html" target="_top" xlink:title="Framework/src/TaskRunner.cxx">
<polygon fill="none" stroke="black" points="1132.5,-6 1132.5,-25 1289.5,-25 1289.5,-6 1132.5,-6"/>
<text text-anchor="middle" x="1211" y="-13" font-family="Helvetica,sans-Serif" font-size="10.00">Framework/src/TaskRunner.cxx</text>
</a>
</g>
</g>
<!-- Node3&#45;&gt;Node5 -->
<g id="edge4" class="edge"><title>Node3&#45;&gt;Node5</title>
<path fill="none" stroke="midnightblue" d="M2005.22,-79.124C1864.56,-74.2008 1556.26,-60.7629 1298,-31 1284.61,-29.4573 1270.15,-27.2618 1256.93,-25.0447"/>
<polygon fill="midnightblue" stroke="midnightblue" points="2005.34,-82.6304 2015.46,-79.4778 2005.59,-75.6346 2005.34,-82.6304"/>
</g>
<!-- Node3&#45;&gt;Node6 -->
<g id="edge5" class="edge"><title>Node3&#45;&gt;Node6</title>
<path fill="none" stroke="midnightblue" d="M2004.96,-76.1962C1893.41,-68.2036 1680.51,-51.7725 1500,-31 1485.22,-29.2989 1469.26,-27.153 1454.49,-25.0373"/>
<polygon fill="midnightblue" stroke="midnightblue" points="2004.88,-79.6995 2015.1,-76.9199 2005.38,-72.7172 2004.88,-79.6995"/>
</g>
<!-- Node7 -->
<g id="node7" class="node"><title>Node7</title>
<g id="a_node7"><a xlink:href="testEMCAL_8cxx.html" target="_top" xlink:title="Modules/EMCAL/test\l/testEMCAL.cxx">
<polygon fill="none" stroke="black" points="1949,-0.5 1949,-30.5 2059,-30.5 2059,-0.5 1949,-0.5"/>
<text text-anchor="start" x="1957" y="-18.5" font-family="Helvetica,sans-Serif" font-size="10.00">Modules/EMCAL/test</text>
<text text-anchor="middle" x="2004" y="-7.5" font-family="Helvetica,sans-Serif" font-size="10.00">/testEMCAL.cxx</text>
</a>
</g>
</g>
<!-- Node3&#45;&gt;Node7 -->
<g id="edge6" class="edge"><title>Node3&#45;&gt;Node7</title>
<path fill="none" stroke="midnightblue" d="M2057.26,-60.8832C2045.41,-51.0054 2031.52,-39.4293 2020.89,-30.5765"/>
<polygon fill="midnightblue" stroke="midnightblue" points="2055.15,-63.6829 2065.08,-67.396 2059.63,-58.3053 2055.15,-63.6829"/>
</g>
<!-- Node8 -->
<g id="node8" class="node"><title>Node8</title>
<polygon fill="none" stroke="#bfbfbf" points="1509,-0.5 1509,-30.5 1623,-30.5 1623,-0.5 1509,-0.5"/>
<text text-anchor="start" x="1517" y="-18.5" font-family="Helvetica,sans-Serif" font-size="10.00">Modules/Example/test</text>
<text text-anchor="middle" x="1566" y="-7.5" font-family="Helvetica,sans-Serif" font-size="10.00">/testFactory.cxx</text>
</g>
<!-- Node3&#45;&gt;Node8 -->
<g id="edge7" class="edge"><title>Node3&#45;&gt;Node8</title>
<path fill="none" stroke="midnightblue" d="M2005.27,-75.3484C1915.43,-67.5783 1762.32,-52.5673 1632,-31 1629.11,-30.5211 1626.15,-29.9975 1623.17,-29.4424"/>
<polygon fill="midnightblue" stroke="midnightblue" points="2005.1,-78.8472 2015.37,-76.2144 2005.7,-71.8728 2005.1,-78.8472"/>
</g>
<!-- Node9 -->
<g id="node9" class="node"><title>Node9</title>
<g id="a_node9"><a xlink:href="testQcExample_8cxx.html" target="_top" xlink:title="Modules/Example/test\l/testQcExample.cxx">
<polygon fill="none" stroke="black" points="1641,-0.5 1641,-30.5 1755,-30.5 1755,-0.5 1641,-0.5"/>
<text text-anchor="start" x="1649" y="-18.5" font-family="Helvetica,sans-Serif" font-size="10.00">Modules/Example/test</text>
<text text-anchor="middle" x="1698" y="-7.5" font-family="Helvetica,sans-Serif" font-size="10.00">/testQcExample.cxx</text>
</a>
</g>
</g>
<!-- Node3&#45;&gt;Node9 -->
<g id="edge8" class="edge"><title>Node3&#45;&gt;Node9</title>
<path fill="none" stroke="midnightblue" d="M2005.32,-70.6139C1940.78,-61.1414 1846.12,-46.5268 1764,-31 1761.12,-30.4551 1758.17,-29.8783 1755.2,-29.2811"/>
<polygon fill="midnightblue" stroke="midnightblue" points="2005.01,-74.1061 2015.42,-72.0893 2006.03,-67.1797 2005.01,-74.1061"/>
</g>
<!-- Node10 -->
<g id="node10" class="node"><title>Node10</title>
<polygon fill="none" stroke="#bfbfbf" points="2077.5,-6 2077.5,-25 2244.5,-25 2244.5,-6 2077.5,-6"/>
<text text-anchor="middle" x="2161" y="-13" font-family="Helvetica,sans-Serif" font-size="10.00">Modules/MFT/test/testQcMFT.cxx</text>
</g>
<!-- Node3&#45;&gt;Node10 -->
<g id="edge9" class="edge"><title>Node3&#45;&gt;Node10</title>
<path fill="none" stroke="midnightblue" d="M2106.91,-61.008C2121.57,-48.9412 2139.36,-34.3046 2150.43,-25.1945"/>
<polygon fill="midnightblue" stroke="midnightblue" points="2104.64,-58.3395 2099.14,-67.396 2109.09,-63.745 2104.64,-58.3395"/>
</g>
<!-- Node11 -->
<g id="node11" class="node"><title>Node11</title>
<polygon fill="none" stroke="#bfbfbf" points="2263,-0.5 2263,-30.5 2377,-30.5 2377,-0.5 2263,-0.5"/>
<text text-anchor="start" x="2271" y="-18.5" font-family="Helvetica,sans-Serif" font-size="10.00">Modules/Skeleton/test</text>
<text text-anchor="middle" x="2320" y="-7.5" font-family="Helvetica,sans-Serif" font-size="10.00">/.testEmpty.cxx</text>
</g>
<!-- Node3&#45;&gt;Node11 -->
<g id="edge10" class="edge"><title>Node3&#45;&gt;Node11</title>
<path fill="none" stroke="midnightblue" d="M2143.46,-64.7149C2182.19,-54.1373 2231.63,-40.6348 2268.33,-30.6109"/>
<polygon fill="midnightblue" stroke="midnightblue" points="2142.07,-61.465 2133.35,-67.476 2143.92,-68.2177 2142.07,-61.465"/>
</g>
<!-- Node12 -->
<g id="node12" class="node"><title>Node12</title>
<g id="a_node12"><a xlink:href="testQcSkeleton_8cxx.html" target="_top" xlink:title="Modules/Skeleton/test\l/testQcSkeleton.cxx">
<polygon fill="none" stroke="black" points="2752,-0.5 2752,-30.5 2866,-30.5 2866,-0.5 2752,-0.5"/>
<text text-anchor="start" x="2760" y="-18.5" font-family="Helvetica,sans-Serif" font-size="10.00">Modules/Skeleton/test</text>
<text text-anchor="middle" x="2809" y="-7.5" font-family="Helvetica,sans-Serif" font-size="10.00">/testQcSkeleton.cxx</text>
</a>
</g>
</g>
<!-- Node3&#45;&gt;Node12 -->
<g id="edge11" class="edge"><title>Node3&#45;&gt;Node12</title>
<path fill="none" stroke="midnightblue" d="M2158.96,-79.0256C2282.48,-74.2888 2532.4,-61.5531 2742,-31 2745.18,-30.5365 2748.43,-30.0095 2751.71,-29.4375"/>
<polygon fill="midnightblue" stroke="midnightblue" points="2158.71,-75.5325 2148.85,-79.4063 2158.97,-82.5276 2158.71,-75.5325"/>
</g>
<!-- Node13 -->
<g id="node13" class="node"><title>Node13</title>
<g id="a_node13"><a xlink:href="testTOF_8cxx.html" target="_top" xlink:title="Modules/TOF/test/testTOF.cxx">
<polygon fill="none" stroke="black" points="2395.5,-6 2395.5,-25 2548.5,-25 2548.5,-6 2395.5,-6"/>
<text text-anchor="middle" x="2472" y="-13" font-family="Helvetica,sans-Serif" font-size="10.00">Modules/TOF/test/testTOF.cxx</text>
</a>
</g>
</g>
<!-- Node3&#45;&gt;Node13 -->
<g id="edge12" class="edge"><title>Node3&#45;&gt;Node13</title>
<path fill="none" stroke="midnightblue" d="M2158.73,-68.8057C2220.2,-58.6238 2308.65,-43.9456 2386,-31 2397.5,-29.0755 2409.86,-26.997 2421.53,-25.0311"/>
<polygon fill="midnightblue" stroke="midnightblue" points="2158.02,-65.3764 2148.73,-70.4633 2159.16,-72.2823 2158.02,-65.3764"/>
</g>
<!-- Node14 -->
<g id="node14" class="node"><title>Node14</title>
<polygon fill="none" stroke="#bfbfbf" points="2566.5,-6 2566.5,-25 2733.5,-25 2733.5,-6 2566.5,-6"/>
<text text-anchor="middle" x="2650" y="-13" font-family="Helvetica,sans-Serif" font-size="10.00">Modules/TPC/test/testQcTPC.cxx</text>
</g>
<!-- Node3&#45;&gt;Node14 -->
<g id="edge13" class="edge"><title>Node3&#45;&gt;Node14</title>
<path fill="none" stroke="midnightblue" d="M2158.59,-74.5167C2252.58,-65.6787 2416.77,-49.3747 2557,-31 2570.45,-29.2378 2584.95,-27.0941 2598.41,-25.0015"/>
<polygon fill="midnightblue" stroke="midnightblue" points="2158.22,-71.0351 2148.59,-75.4528 2158.88,-78.0046 2158.22,-71.0351"/>
</g>
<!-- Node15&#45;&gt;Node5 -->
<g id="edge19" class="edge"><title>Node15&#45;&gt;Node5</title>
<path fill="none" stroke="midnightblue" d="M720.858,-74.7877C815.61,-66.1924 981.478,-50.1031 1123,-31 1135.74,-29.2808 1149.46,-27.1522 1162.2,-25.0604"/>
<polygon fill="midnightblue" stroke="midnightblue" points="720.433,-71.3117 710.788,-75.6972 721.062,-78.2834 720.433,-71.3117"/>
</g>
<!-- Node16 -->
<g id="node16" class="node"><title>Node16</title>
<polygon fill="none" stroke="#bfbfbf" points="0,-6 0,-25 132,-25 132,-6 0,-6"/>
<text text-anchor="middle" x="66" y="-13" font-family="Helvetica,sans-Serif" font-size="10.00">Framework/src/Check.cxx</text>
</g>
<!-- Node15&#45;&gt;Node16 -->
<g id="edge15" class="edge"><title>Node15&#45;&gt;Node16</title>
<path fill="none" stroke="midnightblue" d="M567.25,-75.9763C468.377,-68.3608 291.336,-53.0327 141,-31 129.715,-29.3462 117.548,-27.1671 106.366,-25.0024"/>
<polygon fill="midnightblue" stroke="midnightblue" points="567.211,-79.4834 577.448,-76.7557 567.744,-72.5038 567.211,-79.4834"/>
</g>
<!-- Node17 -->
<g id="node17" class="node"><title>Node17</title>
<g id="a_node17"><a xlink:href="CheckRunner_8cxx.html" target="_top" xlink:title="Framework/src/CheckRunner.cxx">
<polygon fill="none" stroke="black" points="150,-6 150,-25 314,-25 314,-6 150,-6"/>
<text text-anchor="middle" x="232" y="-13" font-family="Helvetica,sans-Serif" font-size="10.00">Framework/src/CheckRunner.cxx</text>
</a>
</g>
</g>
<!-- Node15&#45;&gt;Node17 -->
<g id="edge16" class="edge"><title>Node15&#45;&gt;Node17</title>
<path fill="none" stroke="midnightblue" d="M567.121,-69.4489C502.089,-59.2443 406.435,-44.2104 323,-31 310.833,-29.0736 297.753,-26.9943 285.409,-25.0283"/>
<polygon fill="midnightblue" stroke="midnightblue" points="566.867,-72.9518 577.289,-71.0442 567.952,-66.0364 566.867,-72.9518"/>
</g>
<!-- Node18 -->
<g id="node18" class="node"><title>Node18</title>
<g id="a_node18"><a xlink:href="InfrastructureGenerator_8cxx.html" target="_top" xlink:title="Framework/src/Infrastructure\lGenerator.cxx">
<polygon fill="none" stroke="black" points="332.5,-0.5 332.5,-30.5 475.5,-30.5 475.5,-0.5 332.5,-0.5"/>
<text text-anchor="start" x="340.5" y="-18.5" font-family="Helvetica,sans-Serif" font-size="10.00">Framework/src/Infrastructure</text>
<text text-anchor="middle" x="404" y="-7.5" font-family="Helvetica,sans-Serif" font-size="10.00">Generator.cxx</text>
</a>
</g>
</g>
<!-- Node15&#45;&gt;Node18 -->
<g id="edge17" class="edge"><title>Node15&#45;&gt;Node18</title>
<path fill="none" stroke="midnightblue" d="M582.522,-64.8498C543.393,-54.2523 493.271,-40.6775 456.102,-30.6109"/>
<polygon fill="midnightblue" stroke="midnightblue" points="581.652,-68.2401 592.219,-67.476 583.482,-61.4835 581.652,-68.2401"/>
</g>
<!-- Node19 -->
<g id="node19" class="node"><title>Node19</title>
<g id="a_node19"><a xlink:href="runBasic_8cxx.html" target="_top" xlink:title="This is an executable showing QC Task&#39;s usage in Data Processing Layer. ">
<polygon fill="none" stroke="black" points="494,-6 494,-25 636,-25 636,-6 494,-6"/>
<text text-anchor="middle" x="565" y="-13" font-family="Helvetica,sans-Serif" font-size="10.00">Framework/src/runBasic.cxx</text>
</a>
</g>
</g>
<!-- Node15&#45;&gt;Node19 -->
<g id="edge18" class="edge"><title>Node15&#45;&gt;Node19</title>
<path fill="none" stroke="midnightblue" d="M619.094,-61.008C604.429,-48.9412 586.639,-34.3046 575.567,-25.1945"/>
<polygon fill="midnightblue" stroke="midnightblue" points="616.912,-63.745 626.858,-67.396 621.36,-58.3395 616.912,-63.745"/>
</g>
<!-- Node20 -->
<g id="node20" class="node"><title>Node20</title>
<g id="a_node20"><a xlink:href="TaskRunnerFactory_8cxx.html" target="_top" xlink:title="Framework/src/TaskRunner\lFactory.cxx">
<polygon fill="none" stroke="black" points="654,-0.5 654,-30.5 792,-30.5 792,-0.5 654,-0.5"/>
<text text-anchor="start" x="662" y="-18.5" font-family="Helvetica,sans-Serif" font-size="10.00">Framework/src/TaskRunner</text>
<text text-anchor="middle" x="723" y="-7.5" font-family="Helvetica,sans-Serif" font-size="10.00">Factory.cxx</text>
</a>
</g>
</g>
<!-- Node15&#45;&gt;Node20 -->
<g id="edge20" class="edge"><title>Node15&#45;&gt;Node20</title>
<path fill="none" stroke="midnightblue" d="M669.057,-60.8832C681.063,-51.0054 695.132,-39.4293 705.892,-30.5765"/>
<polygon fill="midnightblue" stroke="midnightblue" points="666.64,-58.3395 661.142,-67.396 671.088,-63.745 666.64,-58.3395"/>
</g>
<!-- Node21 -->
<g id="node21" class="node"><title>Node21</title>
<g id="a_node21"><a xlink:href="testTaskRunner_8cxx.html" target="_top" xlink:title="Framework/test/testTaskRunner.cxx">
<polygon fill="none" stroke="black" points="810,-6 810,-25 986,-25 986,-6 810,-6"/>
<text text-anchor="middle" x="898" y="-13" font-family="Helvetica,sans-Serif" font-size="10.00">Framework/test/testTaskRunner.cxx</text>
</a>
</g>
</g>
<!-- Node15&#45;&gt;Node21 -->
<g id="edge21" class="edge"><title>Node15&#45;&gt;Node21</title>
<path fill="none" stroke="midnightblue" d="M708.516,-64.9899C758.294,-52.2516 825.128,-35.1484 864.673,-25.0287"/>
<polygon fill="midnightblue" stroke="midnightblue" points="707.622,-61.606 698.802,-67.476 709.357,-68.3875 707.622,-61.606"/>
</g>
<!-- Node24 -->
<g id="node24" class="node"><title>Node24</title>
<g id="a_node24"><a xlink:href="DaqTask_8cxx.html" target="_top" xlink:title="Modules/Daq/src/DaqTask.cxx">
<polygon fill="none" stroke="black" points="3014,-6 3014,-25 3166,-25 3166,-6 3014,-6"/>
<text text-anchor="middle" x="3090" y="-13" font-family="Helvetica,sans-Serif" font-size="10.00">Modules/Daq/src/DaqTask.cxx</text>
</a>
</g>
</g>
<!-- Node23&#45;&gt;Node24 -->
<g id="edge25" class="edge"><title>Node23&#45;&gt;Node24</title>
<path fill="none" stroke="midnightblue" d="M3218.03,-63.7838C3183.9,-51.1807 3139.57,-34.8082 3113.03,-25.007"/>
<polygon fill="midnightblue" stroke="midnightblue" points="3217.22,-67.2147 3227.81,-67.396 3219.64,-60.6482 3217.22,-67.2147"/>
</g>
<!-- Node25 -->
<g id="node25" class="node"><title>Node25</title>
<g id="a_node25"><a xlink:href="testQcDaq_8cxx.html" target="_top" xlink:title="Modules/Daq/test/testQcDaq.cxx">
<polygon fill="none" stroke="black" points="3184.5,-6 3184.5,-25 3347.5,-25 3347.5,-6 3184.5,-6"/>
<text text-anchor="middle" x="3266" y="-13" font-family="Helvetica,sans-Serif" font-size="10.00">Modules/Daq/test/testQcDaq.cxx</text>
</a>
</g>
</g>
<!-- Node23&#45;&gt;Node25 -->
<g id="edge26" class="edge"><title>Node23&#45;&gt;Node25</title>
<path fill="none" stroke="midnightblue" d="M3266,-57.2495C3266,-46.017 3266,-33.3767 3266,-25.1945"/>
<polygon fill="midnightblue" stroke="midnightblue" points="3262.5,-57.3959 3266,-67.396 3269.5,-57.396 3262.5,-57.3959"/>
</g>
<!-- Node27 -->
<g id="node27" class="node"><title>Node27</title>
<g id="a_node27"><a xlink:href="DigitsQcTask_8cxx.html" target="_top" xlink:title="Modules/EMCAL/src/Digits\lQcTask.cxx">
<polygon fill="none" stroke="black" points="3366,-0.5 3366,-30.5 3502,-30.5 3502,-0.5 3366,-0.5"/>
<text text-anchor="start" x="3374" y="-18.5" font-family="Helvetica,sans-Serif" font-size="10.00">Modules/EMCAL/src/Digits</text>
<text text-anchor="middle" x="3434" y="-7.5" font-family="Helvetica,sans-Serif" font-size="10.00">QcTask.cxx</text>
</a>
</g>
</g>
<!-- Node26&#45;&gt;Node27 -->
<g id="edge28" class="edge"><title>Node26&#45;&gt;Node27</title>
<path fill="none" stroke="midnightblue" d="M3413.43,-58.2835C3417.99,-49.0223 3423.09,-38.6632 3427.07,-30.5765"/>
<polygon fill="midnightblue" stroke="midnightblue" points="3410.22,-56.8783 3408.94,-67.396 3416.5,-59.9702 3410.22,-56.8783"/>
</g>
<!-- Node29 -->
<g id="node29" class="node"><title>Node29</title>
<g id="a_node29"><a xlink:href="RawTask_8cxx.html" target="_top" xlink:title="Modules/EMCAL/src/RawTask.cxx">
<polygon fill="none" stroke="black" points="3520.5,-6 3520.5,-25 3691.5,-25 3691.5,-6 3520.5,-6"/>
<text text-anchor="middle" x="3606" y="-13" font-family="Helvetica,sans-Serif" font-size="10.00">Modules/EMCAL/src/RawTask.cxx</text>
</a>
</g>
</g>
<!-- Node28&#45;&gt;Node29 -->
<g id="edge30" class="edge"><title>Node28&#45;&gt;Node29</title>
<path fill="none" stroke="midnightblue" d="M3565.85,-59.9967C3576.8,-48.1323 3589.8,-34.0516 3597.97,-25.1945"/>
<polygon fill="midnightblue" stroke="midnightblue" points="3563.23,-57.6739 3559.02,-67.396 3568.37,-62.4219 3563.23,-57.6739"/>
</g>
<!-- Node31 -->
<g id="node31" class="node"><title>Node31</title>
<g id="a_node31"><a xlink:href="BenchmarkTask_8cxx.html" target="_top" xlink:title="Modules/Example/src\l/BenchmarkTask.cxx">
<polygon fill="none" stroke="black" points="3709.5,-0.5 3709.5,-30.5 3820.5,-30.5 3820.5,-0.5 3709.5,-0.5"/>
<text text-anchor="start" x="3717.5" y="-18.5" font-family="Helvetica,sans-Serif" font-size="10.00">Modules/Example/src</text>
<text text-anchor="middle" x="3765" y="-7.5" font-family="Helvetica,sans-Serif" font-size="10.00">/BenchmarkTask.cxx</text>
</a>
</g>
</g>
<!-- Node30&#45;&gt;Node31 -->
<g id="edge32" class="edge"><title>Node30&#45;&gt;Node31</title>
<path fill="none" stroke="midnightblue" d="M3721.19,-60.3115C3730.94,-50.5612 3742.24,-39.259 3750.92,-30.5765"/>
<polygon fill="midnightblue" stroke="midnightblue" points="3718.7,-57.85 3714.1,-67.396 3723.65,-62.7998 3718.7,-57.85"/>
</g>
<!-- Node33 -->
<g id="node33" class="node"><title>Node33</title>
<g id="a_node33"><a xlink:href="ExampleCondition_8cxx.html" target="_top" xlink:title="Modules/Example/src\l/ExampleCondition.cxx">
<polygon fill="none" stroke="black" points="3839,-0.5 3839,-30.5 3957,-30.5 3957,-0.5 3839,-0.5"/>
<text text-anchor="start" x="3847" y="-18.5" font-family="Helvetica,sans-Serif" font-size="10.00">Modules/Example/src</text>
<text text-anchor="middle" x="3898" y="-7.5" font-family="Helvetica,sans-Serif" font-size="10.00">/ExampleCondition.cxx</text>
</a>
</g>
</g>
<!-- Node32&#45;&gt;Node33 -->
<g id="edge34" class="edge"><title>Node32&#45;&gt;Node33</title>
<path fill="none" stroke="midnightblue" d="M3879.49,-57.9907C3883.59,-48.8044 3888.15,-38.5781 3891.72,-30.5765"/>
<polygon fill="midnightblue" stroke="midnightblue" points="3876.17,-56.8376 3875.29,-67.396 3882.56,-59.6897 3876.17,-56.8376"/>
</g>
<!-- Node34&#45;&gt;Node8 -->
<g id="edge37" class="edge"><title>Node34&#45;&gt;Node8</title>
<path fill="none" stroke="midnightblue" d="M1621.31,-60.8832C1609,-51.0054 1594.57,-39.4293 1583.54,-30.5765"/>
<polygon fill="midnightblue" stroke="midnightblue" points="1619.43,-63.867 1629.42,-67.396 1623.82,-58.4075 1619.43,-63.867"/>
</g>
<!-- Node34&#45;&gt;Node9 -->
<g id="edge38" class="edge"><title>Node34&#45;&gt;Node9</title>
<path fill="none" stroke="midnightblue" d="M1664.3,-59.4472C1671.79,-49.8986 1680.34,-39.0037 1686.96,-30.5765"/>
<polygon fill="midnightblue" stroke="midnightblue" points="1661.49,-57.368 1658.07,-67.396 1666.99,-61.6891 1661.49,-57.368"/>
</g>
<!-- Node35 -->
<g id="node35" class="node"><title>Node35</title>
<g id="a_node35"><a xlink:href="ExampleTask_8cxx.html" target="_top" xlink:title="Modules/Example/src\l/ExampleTask.cxx">
<polygon fill="none" stroke="black" points="1003.5,-0.5 1003.5,-30.5 1114.5,-30.5 1114.5,-0.5 1003.5,-0.5"/>
<text text-anchor="start" x="1011.5" y="-18.5" font-family="Helvetica,sans-Serif" font-size="10.00">Modules/Example/src</text>
<text text-anchor="middle" x="1059" y="-7.5" font-family="Helvetica,sans-Serif" font-size="10.00">/ExampleTask.cxx</text>
</a>
</g>
</g>
<!-- Node34&#45;&gt;Node35 -->
<g id="edge36" class="edge"><title>Node34&#45;&gt;Node35</title>
<path fill="none" stroke="midnightblue" d="M1571.92,-77.2644C1469.84,-70.8233 1281.77,-56.5315 1123,-31 1120.3,-30.5659 1117.54,-30.0857 1114.77,-29.572"/>
<polygon fill="midnightblue" stroke="midnightblue" points="1571.93,-80.7717 1582.13,-77.9004 1572.36,-73.7853 1571.93,-80.7717"/>
</g>
<!-- Node37 -->
<g id="node37" class="node"><title>Node37</title>
<g id="a_node37"><a xlink:href="BasicDigitQcTask_8cxx.html" target="_top" xlink:title="Modules/MFT/src/BasicDigit\lQcTask.cxx">
<polygon fill="none" stroke="black" points="3975.5,-0.5 3975.5,-30.5 4116.5,-30.5 4116.5,-0.5 3975.5,-0.5"/>
<text text-anchor="start" x="3983.5" y="-18.5" font-family="Helvetica,sans-Serif" font-size="10.00">Modules/MFT/src/BasicDigit</text>
<text text-anchor="middle" x="4046" y="-7.5" font-family="Helvetica,sans-Serif" font-size="10.00">QcTask.cxx</text>
</a>
</g>
</g>
<!-- Node36&#45;&gt;Node37 -->
<g id="edge40" class="edge"><title>Node36&#45;&gt;Node37</title>
<path fill="none" stroke="midnightblue" d="M4040.97,-57.4029C4042.08,-48.3703 4043.3,-38.4078 4044.27,-30.5765"/>
<polygon fill="midnightblue" stroke="midnightblue" points="4037.48,-57.0433 4039.74,-67.396 4044.43,-57.8984 4037.48,-57.0433"/>
</g>
<!-- Node38&#45;&gt;Node12 -->
<g id="edge43" class="edge"><title>Node38&#45;&gt;Node12</title>
<path fill="none" stroke="midnightblue" d="M2902.42,-62.8533C2881.71,-52.5761 2856.41,-40.0252 2837.37,-30.5765"/>
<polygon fill="midnightblue" stroke="midnightblue" points="2901.06,-66.0864 2911.57,-67.396 2904.17,-59.8159 2901.06,-66.0864"/>
</g>
<!-- Node39 -->
<g id="node39" class="node"><title>Node39</title>
<g id="a_node39"><a xlink:href="SkeletonTask_8cxx.html" target="_top" xlink:title="Modules/Skeleton/src\l/SkeletonTask.cxx">
<polygon fill="none" stroke="black" points="2884.5,-0.5 2884.5,-30.5 2995.5,-30.5 2995.5,-0.5 2884.5,-0.5"/>
<text text-anchor="start" x="2892.5" y="-18.5" font-family="Helvetica,sans-Serif" font-size="10.00">Modules/Skeleton/src</text>
<text text-anchor="middle" x="2940" y="-7.5" font-family="Helvetica,sans-Serif" font-size="10.00">/SkeletonTask.cxx</text>
</a>
</g>
</g>
<!-- Node38&#45;&gt;Node39 -->
<g id="edge42" class="edge"><title>Node38&#45;&gt;Node39</title>
<path fill="none" stroke="midnightblue" d="M2940,-57.1081C2940,-48.1539 2940,-38.3227 2940,-30.5765"/>
<polygon fill="midnightblue" stroke="midnightblue" points="2936.5,-57.3959 2940,-67.396 2943.5,-57.396 2936.5,-57.3959"/>
</g>
<!-- Node41 -->
<g id="node41" class="node"><title>Node41</title>
<g id="a_node41"><a xlink:href="TOFTask_8cxx.html" target="_top" xlink:title="Modules/TOF/src/TOFTask.cxx">
<polygon fill="none" stroke="black" points="4134.5,-6 4134.5,-25 4289.5,-25 4289.5,-6 4134.5,-6"/>
<text text-anchor="middle" x="4212" y="-13" font-family="Helvetica,sans-Serif" font-size="10.00">Modules/TOF/src/TOFTask.cxx</text>
</a>
</g>
</g>
<!-- Node40&#45;&gt;Node41 -->
<g id="edge45" class="edge"><title>Node40&#45;&gt;Node41</title>
<path fill="none" stroke="midnightblue" d="M4204.48,-57.2495C4206.55,-46.017 4208.88,-33.3767 4210.39,-25.1945"/>
<polygon fill="midnightblue" stroke="midnightblue" points="4200.98,-56.9267 4202.6,-67.396 4207.86,-58.1976 4200.98,-56.9267"/>
</g>
<!-- Node43 -->
<g id="node43" class="node"><title>Node43</title>
<g id="a_node43"><a xlink:href="PID_8cxx.html" target="_top" xlink:title="Modules/TPC/src/PID.cxx">
<polygon fill="none" stroke="black" points="4308,-6 4308,-25 4440,-25 4440,-6 4308,-6"/>
<text text-anchor="middle" x="4374" y="-13" font-family="Helvetica,sans-Serif" font-size="10.00">Modules/TPC/src/PID.cxx</text>
</a>
</g>
</g>
<!-- Node42&#45;&gt;Node43 -->
<g id="edge47" class="edge"><title>Node42&#45;&gt;Node43</title>
<path fill="none" stroke="midnightblue" d="M4373.37,-57.2495C4373.55,-46.017 4373.74,-33.3767 4373.87,-25.1945"/>
<polygon fill="midnightblue" stroke="midnightblue" points="4369.87,-57.3433 4373.22,-67.396 4376.87,-57.451 4369.87,-57.3433"/>
</g>
</g>
</svg>
        <g id="navigator" transform="translate(0 0)" fill="#404254">
                <rect fill="#f2f5e9" fill-opacity="0.5" stroke="#606060" stroke-width=".5" x="0" y="0" width="60" height="60"/>
                <use id="zoomplus" xlink:href="#zoomPlus" x="17" y="9" onmousedown="handleZoom(evt,'in')"/>
                <use id="zoomminus" xlink:href="#zoomMin" x="42" y="9" onmousedown="handleZoom(evt,'out')"/>
                <use id="reset" xlink:href="#resetDef" x="30" y="36" onmousedown="handleReset()"/>
                <g id="arrowUp" xlink:href="#dirArrow" transform="translate(30 24)" onmousedown="handlePan(0,-1)">
                  <use xlink:href="#rim" fill="#404040">
                        <set attributeName="fill" to="#808080" begin="arrowUp.mouseover" end="arrowUp.mouseout"/>
                  </use>
                  <path fill="none" stroke="white" stroke-width="1.5" d="M0,-3.0v7 M-2.5,-0.5L0,-3.0L2.5,-0.5"/>
                </g>
                <g id="arrowRight" xlink:href="#dirArrow" transform="rotate(90) translate(36 -43)" onmousedown="handlePan(1,0)">
                  <use xlink:href="#rim" fill="#404040">
                        <set attributeName="fill" to="#808080" begin="arrowRight.mouseover" end="arrowRight.mouseout"/>
                  </use>
                  <path fill="none" stroke="white" stroke-width="1.5" d="M0,-3.0v7 M-2.5,-0.5L0,-3.0L2.5,-0.5"/>
                </g>
                <g id="arrowDown" xlink:href="#dirArrow" transform="rotate(180) translate(-30 -48)" onmousedown="handlePan(0,1)">
                  <use xlink:href="#rim" fill="#404040">
                        <set attributeName="fill" to="#808080" begin="arrowDown.mouseover" end="arrowDown.mouseout"/>
                  </use>
                  <path fill="none" stroke="white" stroke-width="1.5" d="M0,-3.0v7 M-2.5,-0.5L0,-3.0L2.5,-0.5"/>
                </g>
                <g id="arrowLeft" xlink:href="#dirArrow" transform="rotate(270) translate(-36 17)" onmousedown="handlePan(-1,0)">
                  <use xlink:href="#rim" fill="#404040">
                        <set attributeName="fill" to="#808080" begin="arrowLeft.mouseover" end="arrowLeft.mouseout"/>
                  </use>
                  <path fill="none" stroke="white" stroke-width="1.5" d="M0,-3.0v7 M-2.5,-0.5L0,-3.0L2.5,-0.5"/>
                </g>
        </g>
        <svg viewBox="0 0 15 15" width="100%" height="30px" preserveAspectRatio="xMaxYMin meet">
         <g id="arrow_out" transform="scale(0.3 0.3)">
          <a xlink:href="Activity_8h__dep__incl_org.svg" target="_base">
           <rect id="button" ry="5" rx="5" y="6" x="6" height="38" width="38"
                fill="#f2f5e9" fill-opacity="0.5" stroke="#606060" stroke-width="1.0"/>
           <path id="arrow"
             d="M 11.500037,31.436501 C 11.940474,20.09759 22.043105,11.32322 32.158766,21.979434 L 37.068811,17.246167 C 37.068811,17.246167 37.088388,32 37.088388,32 L 22.160133,31.978069 C 22.160133,31.978069 26.997745,27.140456 26.997745,27.140456 C 18.528582,18.264221 13.291696,25.230495 11.500037,31.436501 z"
             style="fill:#404040;"/>
          </a>
         </g>
        </svg>
</svg>
