<?xml version="1.0" encoding="UTF-8" standalone="no"?>
<!DOCTYPE svg PUBLIC "-//W3C//DTD SVG 1.1//EN"
 "http://www.w3.org/Graphics/SVG/1.1/DTD/svg11.dtd">
<!-- Generated by graphviz version 2.38.0 (20140413.2041)
 -->
<!-- Title: Modules/MFT/src/BasicDigitQcCheck.cxx Pages: 1 -->
<svg width="489pt" height="263pt"
 viewBox="0.00 0.00 489.00 263.00" xmlns="http://www.w3.org/2000/svg" xmlns:xlink="http://www.w3.org/1999/xlink">
<g id="graph0" class="graph" transform="scale(1 1) rotate(0) translate(4 259)">
<title>Modules/MFT/src/BasicDigitQcCheck.cxx</title>
<!-- Node1 -->
<g id="node1" class="node"><title>Node1</title>
<polygon fill="#bfbfbf" stroke="black" points="116,-224.5 116,-254.5 257,-254.5 257,-224.5 116,-224.5"/>
<text text-anchor="start" x="124" y="-242.5" font-family="Helvetica,sans-Serif" font-size="10.00">Modules/MFT/src/BasicDigit</text>
<text text-anchor="middle" x="186.5" y="-231.5" font-family="Helvetica,sans-Serif" font-size="10.00">QcCheck.cxx</text>
</g>
<!-- Node2 -->
<g id="node2" class="node"><title>Node2</title>
<polygon fill="none" stroke="#bfbfbf" points="0,-168.5 0,-187.5 97,-187.5 97,-168.5 0,-168.5"/>
<text text-anchor="middle" x="48.5" y="-175.5" font-family="Helvetica,sans-Serif" font-size="10.00">fairlogger/Logger.h</text>
</g>
<!-- Node1&#45;&gt;Node2 -->
<g id="edge1" class="edge"><title>Node1&#45;&gt;Node2</title>
<path fill="none" stroke="midnightblue" d="M153.796,-224.399C130.745,-214.461 100.14,-201.265 77.8684,-191.662"/>
<polygon fill="midnightblue" stroke="midnightblue" points="79.1488,-188.403 68.5802,-187.658 76.3773,-194.831 79.1488,-188.403"/>
</g>
<!-- Node3 -->
<g id="node3" class="node"><title>Node3</title>
<polygon fill="none" stroke="#bfbfbf" points="114.5,-168.5 114.5,-187.5 158.5,-187.5 158.5,-168.5 114.5,-168.5"/>
<text text-anchor="middle" x="136.5" y="-175.5" font-family="Helvetica,sans-Serif" font-size="10.00">TH1.h</text>
</g>
<!-- Node1&#45;&gt;Node3 -->
<g id="edge2" class="edge"><title>Node1&#45;&gt;Node3</title>
<path fill="none" stroke="midnightblue" d="M174.651,-224.399C167.385,-215.753 158.048,-204.642 150.429,-195.576"/>
<polygon fill="midnightblue" stroke="midnightblue" points="152.888,-193.062 143.775,-187.658 147.529,-197.565 152.888,-193.062"/>
</g>
<!-- Node4 -->
<g id="node4" class="node"><title>Node4</title>
<g id="a_node4"><a xlink:href="BasicDigitQcCheck_8h.html" target="_top" xlink:title="MFT/BasicDigitQcCheck.h">
<polygon fill="none" stroke="black" points="220.5,-168.5 220.5,-187.5 354.5,-187.5 354.5,-168.5 220.5,-168.5"/>
<text text-anchor="middle" x="287.5" y="-175.5" font-family="Helvetica,sans-Serif" font-size="10.00">MFT/BasicDigitQcCheck.h</text>
</a>
</g>
</g>
<!-- Node1&#45;&gt;Node4 -->
<g id="edge3" class="edge"><title>Node1&#45;&gt;Node4</title>
<path fill="none" stroke="midnightblue" d="M210.436,-224.399C226.625,-214.862 247.907,-202.325 264.003,-192.842"/>
<polygon fill="midnightblue" stroke="midnightblue" points="265.964,-195.749 272.804,-187.658 262.411,-189.718 265.964,-195.749"/>
</g>
<!-- Node9 -->
<g id="node9" class="node"><title>Node9</title>
<g id="a_node9"><a xlink:href="MonitorObject_8h.html" target="_top" xlink:title="QualityControl/MonitorObject.h">
<polygon fill="none" stroke="black" points="76,-56.5 76,-75.5 227,-75.5 227,-56.5 76,-56.5"/>
<text text-anchor="middle" x="151.5" y="-63.5" font-family="Helvetica,sans-Serif" font-size="10.00">QualityControl/MonitorObject.h</text>
</a>
</g>
</g>
<!-- Node1&#45;&gt;Node9 -->
<g id="edge17" class="edge"><title>Node1&#45;&gt;Node9</title>
<path fill="none" stroke="midnightblue" d="M183.636,-224.465C177.358,-193.704 162.383,-120.329 155.316,-85.7003"/>
<polygon fill="midnightblue" stroke="midnightblue" points="158.676,-84.6579 153.247,-75.5597 151.817,-86.0576 158.676,-84.6579"/>
</g>
<!-- Node12 -->
<g id="node12" class="node"><title>Node12</title>
<g id="a_node12"><a xlink:href="Quality_8h.html" target="_top" xlink:title="QualityControl/Quality.h">
<polygon fill="none" stroke="black" points="360,-56.5 360,-75.5 481,-75.5 481,-56.5 360,-56.5"/>
<text text-anchor="middle" x="420.5" y="-63.5" font-family="Helvetica,sans-Serif" font-size="10.00">QualityControl/Quality.h</text>
</a>
</g>
</g>
<!-- Node1&#45;&gt;Node12 -->
<g id="edge18" class="edge"><title>Node1&#45;&gt;Node12</title>
<path fill="none" stroke="midnightblue" d="M257.232,-232.145C292.538,-225.79 333.911,-213.138 363.5,-188 395.244,-161.032 410.487,-112.45 416.769,-85.7835"/>
<polygon fill="midnightblue" stroke="midnightblue" points="420.23,-86.339 418.934,-75.8237 413.39,-84.8519 420.23,-86.339"/>
</g>
<!-- Node5 -->
<g id="node5" class="node"><title>Node5</title>
<g id="a_node5"><a xlink:href="CheckInterface_8h.html" target="_top" xlink:title="QualityControl/CheckInterface.h">
<polygon fill="none" stroke="black" points="215,-112.5 215,-131.5 372,-131.5 372,-112.5 215,-112.5"/>
<text text-anchor="middle" x="293.5" y="-119.5" font-family="Helvetica,sans-Serif" font-size="10.00">QualityControl/CheckInterface.h</text>
</a>
</g>
</g>
<!-- Node4&#45;&gt;Node5 -->
<g id="edge4" class="edge"><title>Node4&#45;&gt;Node5</title>
<path fill="none" stroke="midnightblue" d="M288.491,-168.083C289.286,-160.927 290.429,-150.635 291.423,-141.691"/>
<polygon fill="midnightblue" stroke="midnightblue" points="294.902,-142.076 292.528,-131.751 287.945,-141.303 294.902,-142.076"/>
</g>
<!-- Node6 -->
<g id="node6" class="node"><title>Node6</title>
<polygon fill="none" stroke="#bfbfbf" points="348,-0.5 348,-19.5 389,-19.5 389,-0.5 348,-0.5"/>
<text text-anchor="middle" x="368.5" y="-7.5" font-family="Helvetica,sans-Serif" font-size="10.00">string</text>
</g>
<!-- Node5&#45;&gt;Node6 -->
<g id="edge5" class="edge"><title>Node5&#45;&gt;Node6</title>
<path fill="none" stroke="midnightblue" d="M299.385,-112.368C311.762,-94.2153 340.681,-51.8015 356.916,-27.9902"/>
<polygon fill="midnightblue" stroke="midnightblue" points="359.901,-29.8254 362.642,-19.5914 354.117,-25.882 359.901,-29.8254"/>
</g>
<!-- Node7 -->
<g id="node7" class="node"><title>Node7</title>
<polygon fill="none" stroke="#bfbfbf" points="220,-0.5 220,-19.5 255,-19.5 255,-0.5 220,-0.5"/>
<text text-anchor="middle" x="237.5" y="-7.5" font-family="Helvetica,sans-Serif" font-size="10.00">map</text>
</g>
<!-- Node5&#45;&gt;Node7 -->
<g id="edge6" class="edge"><title>Node5&#45;&gt;Node7</title>
<path fill="none" stroke="midnightblue" d="M289.106,-112.368C279.946,-94.376 258.653,-52.5503 246.474,-28.6267"/>
<polygon fill="midnightblue" stroke="midnightblue" points="249.53,-26.9152 241.874,-19.5914 243.292,-30.091 249.53,-26.9152"/>
</g>
<!-- Node8 -->
<g id="node8" class="node"><title>Node8</title>
<polygon fill="none" stroke="#bfbfbf" points="273.5,-0.5 273.5,-19.5 329.5,-19.5 329.5,-0.5 273.5,-0.5"/>
<text text-anchor="middle" x="301.5" y="-7.5" font-family="Helvetica,sans-Serif" font-size="10.00">Rtypes.h</text>
</g>
<!-- Node5&#45;&gt;Node8 -->
<g id="edge7" class="edge"><title>Node5&#45;&gt;Node8</title>
<path fill="none" stroke="midnightblue" d="M294.128,-112.368C295.419,-94.617 298.397,-53.6664 300.147,-29.5974"/>
<polygon fill="midnightblue" stroke="midnightblue" points="303.641,-29.819 300.875,-19.5914 296.659,-29.3112 303.641,-29.819"/>
</g>
<!-- Node5&#45;&gt;Node9 -->
<g id="edge8" class="edge"><title>Node5&#45;&gt;Node9</title>
<path fill="none" stroke="midnightblue" d="M271,-112.444C247.423,-103.478 210.178,-89.314 183.536,-79.1827"/>
<polygon fill="midnightblue" stroke="midnightblue" points="184.486,-75.7995 173.895,-75.5164 181.998,-82.3424 184.486,-75.7995"/>
</g>
<!-- Node5&#45;&gt;Node12 -->
<g id="edge14" class="edge"><title>Node5&#45;&gt;Node12</title>
<path fill="none" stroke="midnightblue" d="M313.624,-112.444C334.524,-103.557 367.435,-89.5632 391.216,-79.4514"/>
<polygon fill="midnightblue" stroke="midnightblue" points="392.638,-82.6504 400.471,-75.5164 389.898,-76.2085 392.638,-82.6504"/>
</g>
<!-- Node9&#45;&gt;Node6 -->
<g id="edge9" class="edge"><title>Node9&#45;&gt;Node6</title>
<path fill="none" stroke="midnightblue" d="M189.621,-56.4769C225.448,-48.3223 280.776,-35.3602 337.949,-20.0312"/>
<polygon fill="midnightblue" stroke="midnightblue" points="339.144,-23.3337 347.886,-17.3475 337.319,-16.5758 339.144,-23.3337"/>
</g>
<!-- Node9&#45;&gt;Node7 -->
<g id="edge10" class="edge"><title>Node9&#45;&gt;Node7</title>
<path fill="none" stroke="midnightblue" d="M165.317,-56.324C178.733,-47.9002 199.324,-34.9709 215.086,-25.0741"/>
<polygon fill="midnightblue" stroke="midnightblue" points="217.109,-27.9364 223.717,-19.6545 213.387,-22.0081 217.109,-27.9364"/>
</g>
<!-- Node9&#45;&gt;Node8 -->
<g id="edge11" class="edge"><title>Node9&#45;&gt;Node8</title>
<path fill="none" stroke="midnightblue" d="M175.268,-56.4435C200.393,-47.3986 240.211,-33.064 268.4,-22.9158"/>
<polygon fill="midnightblue" stroke="midnightblue" points="269.62,-26.1968 277.843,-19.5164 267.249,-19.6106 269.62,-26.1968"/>
</g>
<!-- Node10 -->
<g id="node10" class="node"><title>Node10</title>
<polygon fill="none" stroke="#bfbfbf" points="8,-0.5 8,-19.5 67,-19.5 67,-0.5 8,-0.5"/>
<text text-anchor="middle" x="37.5" y="-7.5" font-family="Helvetica,sans-Serif" font-size="10.00">TObject.h</text>
</g>
<!-- Node9&#45;&gt;Node10 -->
<g id="edge12" class="edge"><title>Node9&#45;&gt;Node10</title>
<path fill="none" stroke="midnightblue" d="M133.436,-56.4435C114.925,-47.6751 85.9193,-33.9355 64.6445,-23.8579"/>
<polygon fill="midnightblue" stroke="midnightblue" points="66.0148,-20.6343 55.4791,-19.5164 63.0182,-26.9604 66.0148,-20.6343"/>
</g>
<!-- Node11 -->
<g id="node11" class="node"><title>Node11</title>
<polygon fill="none" stroke="#bfbfbf" points="85.5,-0.5 85.5,-19.5 201.5,-19.5 201.5,-0.5 85.5,-0.5"/>
<text text-anchor="middle" x="143.5" y="-7.5" font-family="Helvetica,sans-Serif" font-size="10.00">Common/Exceptions.h</text>
</g>
<!-- Node9&#45;&gt;Node11 -->
<g id="edge13" class="edge"><title>Node9&#45;&gt;Node11</title>
<path fill="none" stroke="midnightblue" d="M150.179,-56.083C149.119,-48.9272 147.594,-38.6353 146.269,-29.6911"/>
<polygon fill="midnightblue" stroke="midnightblue" points="149.724,-29.1302 144.796,-19.7511 142.8,-30.1561 149.724,-29.1302"/>
</g>
<!-- Node12&#45;&gt;Node6 -->
<g id="edge16" class="edge"><title>Node12&#45;&gt;Node6</title>
<path fill="none" stroke="midnightblue" d="M411.913,-56.083C404.341,-48.2195 393.122,-36.5688 383.986,-27.0813"/>
<polygon fill="midnightblue" stroke="midnightblue" points="386.385,-24.5266 376.927,-19.7511 381.342,-29.3821 386.385,-24.5266"/>
</g>
<!-- Node12&#45;&gt;Node8 -->
<g id="edge15" class="edge"><title>Node12&#45;&gt;Node8</title>
<path fill="none" stroke="midnightblue" d="M401.644,-56.4435C382.234,-47.6356 351.77,-33.8116 329.535,-23.722"/>
<polygon fill="midnightblue" stroke="midnightblue" points="330.82,-20.4615 320.268,-19.5164 327.928,-26.836 330.82,-20.4615"/>
</g>
</g>
</svg>
