<?xml version="1.0" encoding="UTF-8" standalone="no"?>
<!DOCTYPE svg PUBLIC "-//W3C//DTD SVG 1.1//EN"
 "http://www.w3.org/Graphics/SVG/1.1/DTD/svg11.dtd">
<!-- Generated by graphviz version 2.38.0 (20140413.2041)
 -->
<!-- Title: Framework/src/CcdbDatabase.cxx Pages: 1 -->
<!--zoomable 308 -->
<svg id="main" version="1.1" xmlns="http://www.w3.org/2000/svg" xmlns:xlink="http://www.w3.org/1999/xlink" xml:space="preserve" onload="init(evt)">
<style type="text/css"><![CDATA[
.edge:hover path { stroke: red; }
.edge:hover polygon { stroke: red; fill: red; }
]]></style>
<script type="text/javascript"><![CDATA[
var edges = document.getElementsByTagName('g');
if (edges && edges.length) {
  for (var i=0;i<edges.length;i++) {
    if (edges[i].id.substr(0,4)=='edge') {
      edges[i].setAttribute('class','edge');
    }
  }
}
]]></script>
        <defs>
                <circle id="rim" cx="0" cy="0" r="7"/>
                <circle id="rim2" cx="0" cy="0" r="3.5"/>
                <g id="zoomPlus">
                        <use xlink:href="#rim" fill="#404040">
                                <set attributeName="fill" to="#808080" begin="zoomplus.mouseover" end="zoomplus.mouseout"/>
                        </use>
                        <path d="M-4,0h8M0,-4v8" fill="none" stroke="white" stroke-width="1.5" pointer-events="none"/>
                </g>
                <g id="zoomMin">
                        <use xlink:href="#rim" fill="#404040">
                                <set attributeName="fill" to="#808080" begin="zoomminus.mouseover" end="zoomminus.mouseout"/>
                        </use>
                        <path d="M-4,0h8" fill="none" stroke="white" stroke-width="1.5" pointer-events="none"/>
                </g>
                <g id="dirArrow">
                        <path fill="none" stroke="white" stroke-width="1.5" d="M0,-3.0v7 M-2.5,-0.5L0,-3.0L2.5,-0.5"/>
                </g>
               <g id="resetDef">
                       <use xlink:href="#rim2" fill="#404040">
                               <set attributeName="fill" to="#808080" begin="reset.mouseover" end="reset.mouseout"/>
                       </use>
               </g>
        </defs>

<script type="text/javascript">
var viewWidth = 1953;
var viewHeight = 308;
var sectionId = 'dynsection-0';
</script>
<script xlink:href="svgpan.js"/>
<svg id="graph" class="graph">
<g id="viewport">
<title>Framework/src/CcdbDatabase.cxx</title>
<!-- Node1 -->
<g id="node1" class="node"><title>Node1</title>
<polygon fill="#bfbfbf" stroke="black" points="1108.15,-280.5 1108.15,-299.5 1277.15,-299.5 1277.15,-280.5 1108.15,-280.5"/>
<text text-anchor="middle" x="1192.65" y="-287.5" font-family="Helvetica,sans-Serif" font-size="10.00">Framework/src/CcdbDatabase.cxx</text>
</g>
<!-- Node2 -->
<g id="node2" class="node"><title>Node2</title>
<g id="a_node2"><a xlink:href="CcdbDatabase_8h.html" target="_top" xlink:title="QualityControl/CcdbDatabase.h">
<polygon fill="none" stroke="black" points="199.15,-224.5 199.15,-243.5 354.15,-243.5 354.15,-224.5 199.15,-224.5"/>
<text text-anchor="middle" x="276.65" y="-231.5" font-family="Helvetica,sans-Serif" font-size="10.00">QualityControl/CcdbDatabase.h</text>
</a>
</g>
</g>
<!-- Node1&#45;&gt;Node2 -->
<g id="edge1" class="edge"><title>Node1&#45;&gt;Node2</title>
<path fill="none" stroke="midnightblue" d="M1108.12,-284.017C934.766,-273.797 540.549,-250.557 364.457,-240.176"/>
<polygon fill="midnightblue" stroke="midnightblue" points="364.64,-236.681 354.451,-239.587 364.228,-243.669 364.64,-236.681"/>
</g>
<!-- Node13 -->
<g id="node13" class="node"><title>Node13</title>
<polygon fill="none" stroke="#bfbfbf" points="365.65,-56.5 365.65,-75.5 481.65,-75.5 481.65,-56.5 365.65,-56.5"/>
<text text-anchor="middle" x="423.65" y="-63.5" font-family="Helvetica,sans-Serif" font-size="10.00">Common/Exceptions.h</text>
</g>
<!-- Node1&#45;&gt;Node13 -->
<g id="edge26" class="edge"><title>Node1&#45;&gt;Node13</title>
<path fill="none" stroke="midnightblue" d="M1107.9,-287.613C956.976,-284.384 653.919,-274.183 616.65,-244 569.111,-205.499 620.971,-155.192 577.65,-112 554.966,-89.3836 521.585,-78.0058 491.696,-72.3332"/>
<polygon fill="midnightblue" stroke="midnightblue" points="492.162,-68.8621 481.714,-70.6202 490.978,-75.7612 492.162,-68.8621"/>
</g>
<!-- Node16 -->
<g id="node16" class="node"><title>Node16</title>
<g id="a_node16"><a xlink:href="MonitorObject_8h.html" target="_top" xlink:title="QualityControl/MonitorObject.h">
<polygon fill="none" stroke="black" points="418.15,-112.5 418.15,-131.5 569.15,-131.5 569.15,-112.5 418.15,-112.5"/>
<text text-anchor="middle" x="493.65" y="-119.5" font-family="Helvetica,sans-Serif" font-size="10.00">QualityControl/MonitorObject.h</text>
</a>
</g>
</g>
<!-- Node1&#45;&gt;Node16 -->
<g id="edge22" class="edge"><title>Node1&#45;&gt;Node16</title>
<path fill="none" stroke="midnightblue" d="M1108,-286.632C951.436,-281.686 628.45,-268.621 583.65,-244 541.536,-220.855 513.546,-168.696 501.076,-141.027"/>
<polygon fill="midnightblue" stroke="midnightblue" points="504.239,-139.524 497.059,-131.733 497.814,-142.301 504.239,-139.524"/>
</g>
<!-- Node17 -->
<g id="node17" class="node"><title>Node17</title>
<polygon fill="none" stroke="#bfbfbf" points="626.15,-224.5 626.15,-243.5 749.15,-243.5 749.15,-224.5 626.15,-224.5"/>
<text text-anchor="middle" x="687.65" y="-231.5" font-family="Helvetica,sans-Serif" font-size="10.00">QualityControl/Version.h</text>
</g>
<!-- Node1&#45;&gt;Node17 -->
<g id="edge23" class="edge"><title>Node1&#45;&gt;Node17</title>
<path fill="none" stroke="midnightblue" d="M1107.76,-280.775C1022.45,-272.377 886.905,-258.676 759.179,-244.037"/>
<polygon fill="midnightblue" stroke="midnightblue" points="759.548,-240.556 749.213,-242.891 758.748,-247.51 759.548,-240.556"/>
</g>
<!-- Node18 -->
<g id="node18" class="node"><title>Node18</title>
<g id="a_node18"><a xlink:href="QcInfoLogger_8h.html" target="_top" xlink:title="QualityControl/QcInfoLogger.h">
<polygon fill="none" stroke="black" points="767.15,-224.5 767.15,-243.5 916.15,-243.5 916.15,-224.5 767.15,-224.5"/>
<text text-anchor="middle" x="841.65" y="-231.5" font-family="Helvetica,sans-Serif" font-size="10.00">QualityControl/QcInfoLogger.h</text>
</a>
</g>
</g>
<!-- Node1&#45;&gt;Node18 -->
<g id="edge24" class="edge"><title>Node1&#45;&gt;Node18</title>
<path fill="none" stroke="midnightblue" d="M1137.03,-280.444C1074.52,-270.826 973.129,-255.228 906.916,-245.041"/>
<polygon fill="midnightblue" stroke="midnightblue" points="907.423,-241.578 897.007,-243.516 906.358,-248.496 907.423,-241.578"/>
</g>
<!-- Node20 -->
<g id="node20" class="node"><title>Node20</title>
<polygon fill="none" stroke="#bfbfbf" points="933.65,-224.5 933.65,-243.5 1017.65,-243.5 1017.65,-224.5 933.65,-224.5"/>
<text text-anchor="middle" x="975.65" y="-231.5" font-family="Helvetica,sans-Serif" font-size="10.00">TBufferJSON.h</text>
</g>
<!-- Node1&#45;&gt;Node20 -->
<g id="edge27" class="edge"><title>Node1&#45;&gt;Node20</title>
<path fill="none" stroke="midnightblue" d="M1158.27,-280.444C1120.73,-271.102 1060.52,-256.119 1019.58,-245.933"/>
<polygon fill="midnightblue" stroke="midnightblue" points="1020.42,-242.535 1009.87,-243.516 1018.73,-249.328 1020.42,-242.535"/>
</g>
<!-- Node21 -->
<g id="node21" class="node"><title>Node21</title>
<polygon fill="none" stroke="#bfbfbf" points="1035.65,-224.5 1035.65,-243.5 1085.65,-243.5 1085.65,-224.5 1035.65,-224.5"/>
<text text-anchor="middle" x="1060.65" y="-231.5" font-family="Helvetica,sans-Serif" font-size="10.00">TH1F.h</text>
</g>
<!-- Node1&#45;&gt;Node21 -->
<g id="edge28" class="edge"><title>Node1&#45;&gt;Node21</title>
<path fill="none" stroke="midnightblue" d="M1171.73,-280.444C1149.91,-271.517 1115.5,-257.439 1090.76,-247.317"/>
<polygon fill="midnightblue" stroke="midnightblue" points="1092.05,-244.063 1081.47,-243.516 1089.4,-250.542 1092.05,-244.063"/>
</g>
<!-- Node22 -->
<g id="node22" class="node"><title>Node22</title>
<polygon fill="none" stroke="#bfbfbf" points="1104.15,-224.5 1104.15,-243.5 1151.15,-243.5 1151.15,-224.5 1104.15,-224.5"/>
<text text-anchor="middle" x="1127.65" y="-231.5" font-family="Helvetica,sans-Serif" font-size="10.00">TFile.h</text>
</g>
<!-- Node1&#45;&gt;Node22 -->
<g id="edge29" class="edge"><title>Node1&#45;&gt;Node22</title>
<path fill="none" stroke="midnightblue" d="M1182.21,-280.324C1172.5,-272.263 1157.83,-260.077 1146.15,-250.369"/>
<polygon fill="midnightblue" stroke="midnightblue" points="1148.21,-247.532 1138.28,-243.834 1143.74,-252.916 1148.21,-247.532"/>
</g>
<!-- Node23 -->
<g id="node23" class="node"><title>Node23</title>
<polygon fill="none" stroke="#bfbfbf" points="1169.15,-224.5 1169.15,-243.5 1216.15,-243.5 1216.15,-224.5 1169.15,-224.5"/>
<text text-anchor="middle" x="1192.65" y="-231.5" font-family="Helvetica,sans-Serif" font-size="10.00">TList.h</text>
</g>
<!-- Node1&#45;&gt;Node23 -->
<g id="edge30" class="edge"><title>Node1&#45;&gt;Node23</title>
<path fill="none" stroke="midnightblue" d="M1192.65,-280.083C1192.65,-273.006 1192.65,-262.861 1192.65,-253.986"/>
<polygon fill="midnightblue" stroke="midnightblue" points="1196.15,-253.751 1192.65,-243.751 1189.15,-253.751 1196.15,-253.751"/>
</g>
<!-- Node24 -->
<g id="node24" class="node"><title>Node24</title>
<polygon fill="none" stroke="#bfbfbf" points="1234.15,-224.5 1234.15,-243.5 1293.15,-243.5 1293.15,-224.5 1234.15,-224.5"/>
<text text-anchor="middle" x="1263.65" y="-231.5" font-family="Helvetica,sans-Serif" font-size="10.00">TROOT.h</text>
</g>
<!-- Node1&#45;&gt;Node24 -->
<g id="edge31" class="edge"><title>Node1&#45;&gt;Node24</title>
<path fill="none" stroke="midnightblue" d="M1204.06,-280.324C1214.76,-272.185 1230.99,-259.839 1243.81,-250.087"/>
<polygon fill="midnightblue" stroke="midnightblue" points="1246.19,-252.673 1252.03,-243.834 1241.96,-247.102 1246.19,-252.673"/>
</g>
<!-- Node25 -->
<g id="node25" class="node"><title>Node25</title>
<polygon fill="none" stroke="#bfbfbf" points="1311.65,-224.5 1311.65,-243.5 1359.65,-243.5 1359.65,-224.5 1311.65,-224.5"/>
<text text-anchor="middle" x="1335.65" y="-231.5" font-family="Helvetica,sans-Serif" font-size="10.00">TKey.h</text>
</g>
<!-- Node1&#45;&gt;Node25 -->
<g id="edge32" class="edge"><title>Node1&#45;&gt;Node25</title>
<path fill="none" stroke="midnightblue" d="M1215.31,-280.444C1239.05,-271.478 1276.56,-257.314 1303.39,-247.183"/>
<polygon fill="midnightblue" stroke="midnightblue" points="1304.98,-250.324 1313.1,-243.516 1302.51,-243.775 1304.98,-250.324"/>
</g>
<!-- Node26 -->
<g id="node26" class="node"><title>Node26</title>
<polygon fill="none" stroke="#bfbfbf" points="1378.15,-224.5 1378.15,-243.5 1465.15,-243.5 1465.15,-224.5 1378.15,-224.5"/>
<text text-anchor="middle" x="1421.65" y="-231.5" font-family="Helvetica,sans-Serif" font-size="10.00">TStreamerInfo.h</text>
</g>
<!-- Node1&#45;&gt;Node26 -->
<g id="edge33" class="edge"><title>Node1&#45;&gt;Node26</title>
<path fill="none" stroke="midnightblue" d="M1228.94,-280.444C1268.63,-271.083 1332.36,-256.056 1375.56,-245.868"/>
<polygon fill="midnightblue" stroke="midnightblue" points="1376.6,-249.218 1385.53,-243.516 1375,-242.405 1376.6,-249.218"/>
</g>
<!-- Node27 -->
<g id="node27" class="node"><title>Node27</title>
<polygon fill="none" stroke="#bfbfbf" points="1483.15,-224.5 1483.15,-243.5 1548.15,-243.5 1548.15,-224.5 1483.15,-224.5"/>
<text text-anchor="middle" x="1515.65" y="-231.5" font-family="Helvetica,sans-Serif" font-size="10.00">TSystem.h</text>
</g>
<!-- Node1&#45;&gt;Node27 -->
<g id="edge34" class="edge"><title>Node1&#45;&gt;Node27</title>
<path fill="none" stroke="midnightblue" d="M1252.51,-280.474C1307.48,-272.411 1391.42,-259.517 1473.07,-244.22"/>
<polygon fill="midnightblue" stroke="midnightblue" points="1473.83,-247.637 1483.01,-242.343 1472.54,-240.759 1473.83,-247.637"/>
</g>
<!-- Node28 -->
<g id="node28" class="node"><title>Node28</title>
<polygon fill="none" stroke="#bfbfbf" points="1566.65,-224.5 1566.65,-243.5 1612.65,-243.5 1612.65,-224.5 1566.65,-224.5"/>
<text text-anchor="middle" x="1589.65" y="-231.5" font-family="Helvetica,sans-Serif" font-size="10.00">chrono</text>
</g>
<!-- Node1&#45;&gt;Node28 -->
<g id="edge35" class="edge"><title>Node1&#45;&gt;Node28</title>
<path fill="none" stroke="midnightblue" d="M1277.32,-282.226C1349.27,-275.627 1455.4,-263.916 1556.27,-244.015"/>
<polygon fill="midnightblue" stroke="midnightblue" points="1557.21,-247.396 1566.33,-241.999 1555.84,-240.532 1557.21,-247.396"/>
</g>
<!-- Node29 -->
<g id="node29" class="node"><title>Node29</title>
<polygon fill="none" stroke="#bfbfbf" points="1630.65,-224.5 1630.65,-243.5 1682.65,-243.5 1682.65,-224.5 1630.65,-224.5"/>
<text text-anchor="middle" x="1656.65" y="-231.5" font-family="Helvetica,sans-Serif" font-size="10.00">sstream</text>
</g>
<!-- Node1&#45;&gt;Node29 -->
<g id="edge36" class="edge"><title>Node1&#45;&gt;Node29</title>
<path fill="none" stroke="midnightblue" d="M1277.42,-283.804C1362.04,-277.777 1495.89,-265.971 1620.28,-244.007"/>
<polygon fill="midnightblue" stroke="midnightblue" points="1621.14,-247.409 1630.37,-242.2 1619.91,-240.519 1621.14,-247.409"/>
</g>
<!-- Node30 -->
<g id="node30" class="node"><title>Node30</title>
<polygon fill="none" stroke="#bfbfbf" points="1701.15,-224.5 1701.15,-243.5 1798.15,-243.5 1798.15,-224.5 1701.15,-224.5"/>
<text text-anchor="middle" x="1749.65" y="-231.5" font-family="Helvetica,sans-Serif" font-size="10.00">fairlogger/Logger.h</text>
</g>
<!-- Node1&#45;&gt;Node30 -->
<g id="edge37" class="edge"><title>Node1&#45;&gt;Node30</title>
<path fill="none" stroke="midnightblue" d="M1277.59,-283.005C1374.89,-275.76 1539.35,-262.366 1690.98,-244.005"/>
<polygon fill="midnightblue" stroke="midnightblue" points="1691.44,-247.475 1700.95,-242.789 1690.6,-240.526 1691.44,-247.475"/>
</g>
<!-- Node31 -->
<g id="node31" class="node"><title>Node31</title>
<polygon fill="none" stroke="#bfbfbf" points="1816.15,-224.5 1816.15,-243.5 1945.15,-243.5 1945.15,-224.5 1816.15,-224.5"/>
<text text-anchor="middle" x="1880.65" y="-231.5" font-family="Helvetica,sans-Serif" font-size="10.00">boost/algorithm/string.hpp</text>
</g>
<!-- Node1&#45;&gt;Node31 -->
<g id="edge38" class="edge"><title>Node1&#45;&gt;Node31</title>
<path fill="none" stroke="midnightblue" d="M1277.32,-284.138C1393.98,-277.141 1610.96,-263.057 1805.65,-244.156"/>
<polygon fill="midnightblue" stroke="midnightblue" points="1806.18,-247.622 1815.79,-243.166 1805.5,-240.655 1806.18,-247.622"/>
</g>
<!-- Node3 -->
<g id="node3" class="node"><title>Node3</title>
<polygon fill="none" stroke="#bfbfbf" points="78.1499,-168.5 78.1499,-187.5 173.15,-187.5 173.15,-168.5 78.1499,-168.5"/>
<text text-anchor="middle" x="125.65" y="-175.5" font-family="Helvetica,sans-Serif" font-size="10.00">CCDB/CcdbApi.h</text>
</g>
<!-- Node2&#45;&gt;Node3 -->
<g id="edge2" class="edge"><title>Node2&#45;&gt;Node3</title>
<path fill="none" stroke="midnightblue" d="M252.724,-224.444C227.431,-215.399 187.348,-201.064 158.97,-190.916"/>
<polygon fill="midnightblue" stroke="midnightblue" points="160.059,-187.588 149.464,-187.516 157.702,-194.179 160.059,-187.588"/>
</g>
<!-- Node4 -->
<g id="node4" class="node"><title>Node4</title>
<g id="a_node4"><a xlink:href="DatabaseInterface_8h.html" target="_top" xlink:title="QualityControl/DatabaseInterface.h">
<polygon fill="none" stroke="black" points="191.65,-168.5 191.65,-187.5 361.65,-187.5 361.65,-168.5 191.65,-168.5"/>
<text text-anchor="middle" x="276.65" y="-175.5" font-family="Helvetica,sans-Serif" font-size="10.00">QualityControl/DatabaseInterface.h</text>
</a>
</g>
</g>
<!-- Node2&#45;&gt;Node4 -->
<g id="edge3" class="edge"><title>Node2&#45;&gt;Node4</title>
<path fill="none" stroke="midnightblue" d="M276.65,-224.083C276.65,-217.006 276.65,-206.861 276.65,-197.986"/>
<polygon fill="midnightblue" stroke="midnightblue" points="280.15,-197.751 276.65,-187.751 273.15,-197.751 280.15,-197.751"/>
</g>
<!-- Node5 -->
<g id="node5" class="node"><title>Node5</title>
<polygon fill="none" stroke="#bfbfbf" points="136.15,-0.5 136.15,-19.5 177.15,-19.5 177.15,-0.5 136.15,-0.5"/>
<text text-anchor="middle" x="156.65" y="-7.5" font-family="Helvetica,sans-Serif" font-size="10.00">string</text>
</g>
<!-- Node4&#45;&gt;Node5 -->
<g id="edge4" class="edge"><title>Node4&#45;&gt;Node5</title>
<path fill="none" stroke="midnightblue" d="M194.495,-168.499C120.535,-159.997 21.639,-146.179 9.64993,-132 -0.747972,-119.703 -7.12283,-83.1192 14.6499,-56 41.4579,-22.6091 92.9924,-13.5869 126.052,-11.3791"/>
<polygon fill="midnightblue" stroke="midnightblue" points="126.269,-14.8728 136.082,-10.8795 125.92,-7.88146 126.269,-14.8728"/>
</g>
<!-- Node6 -->
<g id="node6" class="node"><title>Node6</title>
<polygon fill="none" stroke="#bfbfbf" points="18.6499,-112.5 18.6499,-131.5 70.6499,-131.5 70.6499,-112.5 18.6499,-112.5"/>
<text text-anchor="middle" x="44.6499" y="-119.5" font-family="Helvetica,sans-Serif" font-size="10.00">memory</text>
</g>
<!-- Node4&#45;&gt;Node6 -->
<g id="edge5" class="edge"><title>Node4&#45;&gt;Node6</title>
<path fill="none" stroke="midnightblue" d="M237.108,-168.444C199.183,-160.142 140.068,-146.952 80.8682,-132.495"/>
<polygon fill="midnightblue" stroke="midnightblue" points="81.53,-129.053 70.984,-130.069 79.8616,-135.852 81.53,-129.053"/>
</g>
<!-- Node7 -->
<g id="node7" class="node"><title>Node7</title>
<polygon fill="none" stroke="#bfbfbf" points="254.65,-112.5 254.65,-131.5 298.65,-131.5 298.65,-112.5 254.65,-112.5"/>
<text text-anchor="middle" x="276.65" y="-119.5" font-family="Helvetica,sans-Serif" font-size="10.00">vector</text>
</g>
<!-- Node4&#45;&gt;Node7 -->
<g id="edge6" class="edge"><title>Node4&#45;&gt;Node7</title>
<path fill="none" stroke="midnightblue" d="M276.65,-168.083C276.65,-161.006 276.65,-150.861 276.65,-141.986"/>
<polygon fill="midnightblue" stroke="midnightblue" points="280.15,-141.751 276.65,-131.751 273.15,-141.751 280.15,-141.751"/>
</g>
<!-- Node8 -->
<g id="node8" class="node"><title>Node8</title>
<polygon fill="none" stroke="#bfbfbf" points="317.15,-112.5 317.15,-131.5 400.15,-131.5 400.15,-112.5 317.15,-112.5"/>
<text text-anchor="middle" x="358.65" y="-119.5" font-family="Helvetica,sans-Serif" font-size="10.00">unordered_map</text>
</g>
<!-- Node4&#45;&gt;Node8 -->
<g id="edge7" class="edge"><title>Node4&#45;&gt;Node8</title>
<path fill="none" stroke="midnightblue" d="M289.825,-168.324C302.497,-159.979 321.883,-147.212 336.856,-137.352"/>
<polygon fill="midnightblue" stroke="midnightblue" points="339.081,-140.078 345.508,-131.655 335.231,-134.231 339.081,-140.078"/>
</g>
<!-- Node9 -->
<g id="node9" class="node"><title>Node9</title>
<g id="a_node9"><a xlink:href="QualityObject_8h_source.html" target="_top" xlink:title="QualityControl/QualityObject.h">
<polygon fill="none" stroke="black" points="88.1499,-112.5 88.1499,-131.5 237.15,-131.5 237.15,-112.5 88.1499,-112.5"/>
<text text-anchor="middle" x="162.65" y="-119.5" font-family="Helvetica,sans-Serif" font-size="10.00">QualityControl/QualityObject.h</text>
</a>
</g>
</g>
<!-- Node4&#45;&gt;Node9 -->
<g id="edge8" class="edge"><title>Node4&#45;&gt;Node9</title>
<path fill="none" stroke="midnightblue" d="M258.586,-168.444C240.075,-159.675 211.069,-145.935 189.794,-135.858"/>
<polygon fill="midnightblue" stroke="midnightblue" points="191.165,-132.634 180.629,-131.516 188.168,-138.96 191.165,-132.634"/>
</g>
<!-- Node4&#45;&gt;Node16 -->
<g id="edge16" class="edge"><title>Node4&#45;&gt;Node16</title>
<path fill="none" stroke="midnightblue" d="M311.034,-168.444C348.572,-159.102 408.781,-144.119 449.717,-133.933"/>
<polygon fill="midnightblue" stroke="midnightblue" points="450.568,-137.328 459.427,-131.516 448.877,-130.535 450.568,-137.328"/>
</g>
<!-- Node10 -->
<g id="node10" class="node"><title>Node10</title>
<polygon fill="none" stroke="#bfbfbf" points="23.6499,-56.5 23.6499,-75.5 77.6499,-75.5 77.6499,-56.5 23.6499,-56.5"/>
<text text-anchor="middle" x="50.6499" y="-63.5" font-family="Helvetica,sans-Serif" font-size="10.00">iostream</text>
</g>
<!-- Node9&#45;&gt;Node10 -->
<g id="edge9" class="edge"><title>Node9&#45;&gt;Node10</title>
<path fill="none" stroke="midnightblue" d="M144.655,-112.324C126.612,-103.625 98.603,-90.1202 77.8472,-80.113"/>
<polygon fill="midnightblue" stroke="midnightblue" points="79.1278,-76.8449 68.6,-75.6545 76.0876,-83.1502 79.1278,-76.8449"/>
</g>
<!-- Node11 -->
<g id="node11" class="node"><title>Node11</title>
<polygon fill="none" stroke="#bfbfbf" points="312.15,-56.5 312.15,-75.5 347.15,-75.5 347.15,-56.5 312.15,-56.5"/>
<text text-anchor="middle" x="329.65" y="-63.5" font-family="Helvetica,sans-Serif" font-size="10.00">map</text>
</g>
<!-- Node9&#45;&gt;Node11 -->
<g id="edge10" class="edge"><title>Node9&#45;&gt;Node11</title>
<path fill="none" stroke="midnightblue" d="M189.517,-112.459C215.848,-104.067 257.361,-90.7824 302.302,-76.089"/>
<polygon fill="midnightblue" stroke="midnightblue" points="303.526,-79.3714 311.94,-72.9335 301.348,-72.7189 303.526,-79.3714"/>
</g>
<!-- Node12 -->
<g id="node12" class="node"><title>Node12</title>
<polygon fill="none" stroke="#bfbfbf" points="235.15,-56.5 235.15,-75.5 294.15,-75.5 294.15,-56.5 235.15,-56.5"/>
<text text-anchor="middle" x="264.65" y="-63.5" font-family="Helvetica,sans-Serif" font-size="10.00">TObject.h</text>
</g>
<!-- Node9&#45;&gt;Node12 -->
<g id="edge11" class="edge"><title>Node9&#45;&gt;Node12</title>
<path fill="none" stroke="midnightblue" d="M179.038,-112.324C195.321,-103.703 220.517,-90.3643 239.366,-80.3855"/>
<polygon fill="midnightblue" stroke="midnightblue" points="241.102,-83.4267 248.303,-75.6545 237.827,-77.2402 241.102,-83.4267"/>
</g>
<!-- Node9&#45;&gt;Node13 -->
<g id="edge12" class="edge"><title>Node9&#45;&gt;Node13</title>
<path fill="none" stroke="midnightblue" d="M204.006,-112.444C249.728,-102.984 323.414,-87.7384 372.672,-77.5472"/>
<polygon fill="midnightblue" stroke="midnightblue" points="373.404,-80.97 382.487,-75.5164 371.985,-74.1152 373.404,-80.97"/>
</g>
<!-- Node14 -->
<g id="node14" class="node"><title>Node14</title>
<g id="a_node14"><a xlink:href="Quality_8h.html" target="_top" xlink:title="QualityControl/Quality.h">
<polygon fill="none" stroke="black" points="96.1499,-56.5 96.1499,-75.5 217.15,-75.5 217.15,-56.5 96.1499,-56.5"/>
<text text-anchor="middle" x="156.65" y="-63.5" font-family="Helvetica,sans-Serif" font-size="10.00">QualityControl/Quality.h</text>
</a>
</g>
</g>
<!-- Node9&#45;&gt;Node14 -->
<g id="edge13" class="edge"><title>Node9&#45;&gt;Node14</title>
<path fill="none" stroke="midnightblue" d="M161.659,-112.083C160.864,-104.927 159.721,-94.6353 158.727,-85.6911"/>
<polygon fill="midnightblue" stroke="midnightblue" points="162.205,-85.3034 157.622,-75.7511 155.248,-86.0765 162.205,-85.3034"/>
</g>
<!-- Node14&#45;&gt;Node5 -->
<g id="edge15" class="edge"><title>Node14&#45;&gt;Node5</title>
<path fill="none" stroke="midnightblue" d="M156.65,-56.083C156.65,-49.0059 156.65,-38.8611 156.65,-29.9865"/>
<polygon fill="midnightblue" stroke="midnightblue" points="160.15,-29.751 156.65,-19.7511 153.15,-29.7511 160.15,-29.751"/>
</g>
<!-- Node15 -->
<g id="node15" class="node"><title>Node15</title>
<polygon fill="none" stroke="#bfbfbf" points="357.65,-0.5 357.65,-19.5 413.65,-19.5 413.65,-0.5 357.65,-0.5"/>
<text text-anchor="middle" x="385.65" y="-7.5" font-family="Helvetica,sans-Serif" font-size="10.00">Rtypes.h</text>
</g>
<!-- Node14&#45;&gt;Node15 -->
<g id="edge14" class="edge"><title>Node14&#45;&gt;Node15</title>
<path fill="none" stroke="midnightblue" d="M192.936,-56.4435C235.202,-46.4769 304.704,-30.0877 347.679,-19.954"/>
<polygon fill="midnightblue" stroke="midnightblue" points="348.545,-23.3456 357.475,-17.6439 346.939,-16.5325 348.545,-23.3456"/>
</g>
<!-- Node16&#45;&gt;Node5 -->
<g id="edge17" class="edge"><title>Node16&#45;&gt;Node5</title>
<path fill="none" stroke="midnightblue" d="M496.403,-112.105C500.097,-98.2016 504.689,-71.3288 490.65,-56 470.316,-33.7979 266.785,-18.2086 187.775,-12.9501"/>
<polygon fill="midnightblue" stroke="midnightblue" points="187.692,-9.43723 177.485,-12.277 187.235,-16.4223 187.692,-9.43723"/>
</g>
<!-- Node16&#45;&gt;Node11 -->
<g id="edge18" class="edge"><title>Node16&#45;&gt;Node11</title>
<path fill="none" stroke="midnightblue" d="M467.63,-112.491C441.894,-104.066 401.145,-90.7057 356.864,-76.0606"/>
<polygon fill="midnightblue" stroke="midnightblue" points="357.958,-72.7363 347.365,-72.9174 355.759,-79.3819 357.958,-72.7363"/>
</g>
<!-- Node16&#45;&gt;Node12 -->
<g id="edge20" class="edge"><title>Node16&#45;&gt;Node12</title>
<path fill="none" stroke="midnightblue" d="M457.386,-112.47C420.991,-103.905 363.045,-90.2618 304.33,-76.3951"/>
<polygon fill="midnightblue" stroke="midnightblue" points="305.057,-72.9706 294.52,-74.078 303.447,-79.7831 305.057,-72.9706"/>
</g>
<!-- Node16&#45;&gt;Node13 -->
<g id="edge21" class="edge"><title>Node16&#45;&gt;Node13</title>
<path fill="none" stroke="midnightblue" d="M482.403,-112.324C471.853,-104.185 455.849,-91.8395 443.208,-82.0874"/>
<polygon fill="midnightblue" stroke="midnightblue" points="445.157,-79.1707 435.101,-75.8339 440.881,-84.7132 445.157,-79.1707"/>
</g>
<!-- Node16&#45;&gt;Node15 -->
<g id="edge19" class="edge"><title>Node16&#45;&gt;Node15</title>
<path fill="none" stroke="midnightblue" d="M503.051,-112.435C516.168,-99.4369 536.936,-74.3071 523.65,-56 501.012,-24.8064 456.165,-14.8235 423.728,-11.841"/>
<polygon fill="midnightblue" stroke="midnightblue" points="423.906,-8.34473 413.676,-11.1006 423.392,-15.3258 423.906,-8.34473"/>
</g>
<!-- Node19 -->
<g id="node19" class="node"><title>Node19</title>
<polygon fill="none" stroke="#bfbfbf" points="776.65,-168.5 776.65,-187.5 906.65,-187.5 906.65,-168.5 776.65,-168.5"/>
<text text-anchor="middle" x="841.65" y="-175.5" font-family="Helvetica,sans-Serif" font-size="10.00">InfoLogger/InfoLogger.hxx</text>
</g>
<!-- Node18&#45;&gt;Node19 -->
<g id="edge25" class="edge"><title>Node18&#45;&gt;Node19</title>
<path fill="none" stroke="midnightblue" d="M841.65,-224.083C841.65,-217.006 841.65,-206.861 841.65,-197.986"/>
<polygon fill="midnightblue" stroke="midnightblue" points="845.15,-197.751 841.65,-187.751 838.15,-197.751 845.15,-197.751"/>
</g>
</g>
</svg>
        <g id="navigator" transform="translate(0 0)" fill="#404254">
                <rect fill="#f2f5e9" fill-opacity="0.5" stroke="#606060" stroke-width=".5" x="0" y="0" width="60" height="60"/>
                <use id="zoomplus" xlink:href="#zoomPlus" x="17" y="9" onmousedown="handleZoom(evt,'in')"/>
                <use id="zoomminus" xlink:href="#zoomMin" x="42" y="9" onmousedown="handleZoom(evt,'out')"/>
                <use id="reset" xlink:href="#resetDef" x="30" y="36" onmousedown="handleReset()"/>
                <g id="arrowUp" xlink:href="#dirArrow" transform="translate(30 24)" onmousedown="handlePan(0,-1)">
                  <use xlink:href="#rim" fill="#404040">
                        <set attributeName="fill" to="#808080" begin="arrowUp.mouseover" end="arrowUp.mouseout"/>
                  </use>
                  <path fill="none" stroke="white" stroke-width="1.5" d="M0,-3.0v7 M-2.5,-0.5L0,-3.0L2.5,-0.5"/>
                </g>
                <g id="arrowRight" xlink:href="#dirArrow" transform="rotate(90) translate(36 -43)" onmousedown="handlePan(1,0)">
                  <use xlink:href="#rim" fill="#404040">
                        <set attributeName="fill" to="#808080" begin="arrowRight.mouseover" end="arrowRight.mouseout"/>
                  </use>
                  <path fill="none" stroke="white" stroke-width="1.5" d="M0,-3.0v7 M-2.5,-0.5L0,-3.0L2.5,-0.5"/>
                </g>
                <g id="arrowDown" xlink:href="#dirArrow" transform="rotate(180) translate(-30 -48)" onmousedown="handlePan(0,1)">
                  <use xlink:href="#rim" fill="#404040">
                        <set attributeName="fill" to="#808080" begin="arrowDown.mouseover" end="arrowDown.mouseout"/>
                  </use>
                  <path fill="none" stroke="white" stroke-width="1.5" d="M0,-3.0v7 M-2.5,-0.5L0,-3.0L2.5,-0.5"/>
                </g>
                <g id="arrowLeft" xlink:href="#dirArrow" transform="rotate(270) translate(-36 17)" onmousedown="handlePan(-1,0)">
                  <use xlink:href="#rim" fill="#404040">
                        <set attributeName="fill" to="#808080" begin="arrowLeft.mouseover" end="arrowLeft.mouseout"/>
                  </use>
                  <path fill="none" stroke="white" stroke-width="1.5" d="M0,-3.0v7 M-2.5,-0.5L0,-3.0L2.5,-0.5"/>
                </g>
        </g>
        <svg viewBox="0 0 15 15" width="100%" height="30px" preserveAspectRatio="xMaxYMin meet">
         <g id="arrow_out" transform="scale(0.3 0.3)">
          <a xlink:href="CcdbDatabase_8cxx__incl_org.svg" target="_base">
           <rect id="button" ry="5" rx="5" y="6" x="6" height="38" width="38"
                fill="#f2f5e9" fill-opacity="0.5" stroke="#606060" stroke-width="1.0"/>
           <path id="arrow"
             d="M 11.500037,31.436501 C 11.940474,20.09759 22.043105,11.32322 32.158766,21.979434 L 37.068811,17.246167 C 37.068811,17.246167 37.088388,32 37.088388,32 L 22.160133,31.978069 C 22.160133,31.978069 26.997745,27.140456 26.997745,27.140456 C 18.528582,18.264221 13.291696,25.230495 11.500037,31.436501 z"
             style="fill:#404040;"/>
          </a>
         </g>
        </svg>
</svg>
