<?xml version="1.0" encoding="UTF-8" standalone="no"?>
<!DOCTYPE svg PUBLIC "-//W3C//DTD SVG 1.1//EN"
 "http://www.w3.org/Graphics/SVG/1.1/DTD/svg11.dtd">
<!-- Generated by graphviz version 2.38.0 (20140413.2041)
 -->
<!-- Title: Framework/src/CheckRunnerFactory.cxx Pages: 1 -->
<svg width="1816pt" height="330pt"
 viewBox="0.00 0.00 1816.43 330.00" xmlns="http://www.w3.org/2000/svg" xmlns:xlink="http://www.w3.org/1999/xlink">
<g id="graph0" class="graph" transform="scale(1 1) rotate(0) translate(4 326)">
<title>Framework/src/CheckRunnerFactory.cxx</title>
<!-- Node1 -->
<g id="node1" class="node"><title>Node1</title>
<polygon fill="#bfbfbf" stroke="black" points="889.927,-291.5 889.927,-321.5 1034.93,-321.5 1034.93,-291.5 889.927,-291.5"/>
<text text-anchor="start" x="897.927" y="-309.5" font-family="Helvetica,sans-Serif" font-size="10.00">Framework/src/CheckRunner</text>
<text text-anchor="middle" x="962.427" y="-298.5" font-family="Helvetica,sans-Serif" font-size="10.00">Factory.cxx</text>
</g>
<!-- Node2 -->
<g id="node2" class="node"><title>Node2</title>
<polygon fill="none" stroke="#bfbfbf" points="520.427,-112.5 520.427,-131.5 564.427,-131.5 564.427,-112.5 520.427,-112.5"/>
<text text-anchor="middle" x="542.427" y="-119.5" font-family="Helvetica,sans-Serif" font-size="10.00">vector</text>
</g>
<!-- Node1&#45;&gt;Node2 -->
<g id="edge1" class="edge"><title>Node1&#45;&gt;Node2</title>
<path fill="none" stroke="midnightblue" d="M889.641,-302.21C675.797,-291.784 60.8875,-256.077 4.42748,-188 -1.24696,-181.158 -1.59026,-174.542 4.42748,-168 38.7399,-130.698 399.135,-124.305 510.097,-123.22"/>
<polygon fill="midnightblue" stroke="midnightblue" points="510.362,-126.718 520.33,-123.128 510.299,-119.718 510.362,-126.718"/>
</g>
<!-- Node3 -->
<g id="node3" class="node"><title>Node3</title>
<polygon fill="none" stroke="#bfbfbf" points="13.4275,-168.5 13.4275,-187.5 91.4275,-187.5 91.4275,-168.5 13.4275,-168.5"/>
<text text-anchor="middle" x="52.4275" y="-175.5" font-family="Helvetica,sans-Serif" font-size="10.00">unordered_set</text>
</g>
<!-- Node1&#45;&gt;Node3 -->
<g id="edge2" class="edge"><title>Node1&#45;&gt;Node3</title>
<path fill="none" stroke="midnightblue" d="M889.798,-296.338C741.947,-277.511 395.442,-232.494 105.427,-188 104.156,-187.805 102.868,-187.605 101.569,-187.401"/>
<polygon fill="midnightblue" stroke="midnightblue" points="101.908,-183.91 91.4791,-185.777 100.796,-190.821 101.908,-183.91"/>
</g>
<!-- Node4 -->
<g id="node4" class="node"><title>Node4</title>
<polygon fill="none" stroke="#bfbfbf" points="1644.43,-112.5 1644.43,-131.5 1808.43,-131.5 1808.43,-112.5 1644.43,-112.5"/>
<text text-anchor="middle" x="1726.43" y="-119.5" font-family="Helvetica,sans-Serif" font-size="10.00">Framework/DataProcessorSpec.h</text>
</g>
<!-- Node1&#45;&gt;Node4 -->
<g id="edge3" class="edge"><title>Node1&#45;&gt;Node4</title>
<path fill="none" stroke="midnightblue" d="M1035.04,-300.601C1227.86,-286.854 1741.38,-245.159 1790.43,-188 1806.54,-169.22 1779.14,-149.149 1755.34,-136.36"/>
<polygon fill="midnightblue" stroke="midnightblue" points="1756.66,-133.105 1746.16,-131.672 1753.48,-139.338 1756.66,-133.105"/>
</g>
<!-- Node5 -->
<g id="node5" class="node"><title>Node5</title>
<polygon fill="none" stroke="#bfbfbf" points="897.427,-230 897.427,-249 1027.43,-249 1027.43,-230 897.427,-230"/>
<text text-anchor="middle" x="962.427" y="-237" font-family="Helvetica,sans-Serif" font-size="10.00">Framework/DeviceSpec.h</text>
</g>
<!-- Node1&#45;&gt;Node5 -->
<g id="edge4" class="edge"><title>Node1&#45;&gt;Node5</title>
<path fill="none" stroke="midnightblue" d="M962.427,-291.396C962.427,-282.064 962.427,-269.714 962.427,-259.517"/>
<polygon fill="midnightblue" stroke="midnightblue" points="965.928,-259.195 962.427,-249.195 958.928,-259.195 965.928,-259.195"/>
</g>
<!-- Node6 -->
<g id="node6" class="node"><title>Node6</title>
<polygon fill="none" stroke="#bfbfbf" points="1045.43,-230 1045.43,-249 1185.43,-249 1185.43,-230 1045.43,-230"/>
<text text-anchor="middle" x="1115.43" y="-237" font-family="Helvetica,sans-Serif" font-size="10.00">Framework/DataSpecUtils.h</text>
</g>
<!-- Node1&#45;&gt;Node6 -->
<g id="edge5" class="edge"><title>Node1&#45;&gt;Node6</title>
<path fill="none" stroke="midnightblue" d="M995.626,-291.396C1022.59,-279.941 1060.26,-263.938 1086.12,-252.952"/>
<polygon fill="midnightblue" stroke="midnightblue" points="1087.57,-256.139 1095.4,-249.007 1084.83,-249.696 1087.57,-256.139"/>
</g>
<!-- Node7 -->
<g id="node7" class="node"><title>Node7</title>
<g id="a_node7"><a xlink:href="CheckRunner_8h.html" target="_top" xlink:title="QualityControl/CheckRunner.h">
<polygon fill="none" stroke="black" points="729.427,-230 729.427,-249 879.427,-249 879.427,-230 729.427,-230"/>
<text text-anchor="middle" x="804.427" y="-237" font-family="Helvetica,sans-Serif" font-size="10.00">QualityControl/CheckRunner.h</text>
</a>
</g>
</g>
<!-- Node1&#45;&gt;Node7 -->
<g id="edge6" class="edge"><title>Node1&#45;&gt;Node7</title>
<path fill="none" stroke="midnightblue" d="M928.144,-291.396C900.298,-279.941 861.401,-263.938 834.696,-252.952"/>
<polygon fill="midnightblue" stroke="midnightblue" points="835.686,-249.575 825.106,-249.007 833.022,-256.048 835.686,-249.575"/>
</g>
<!-- Node30 -->
<g id="node30" class="node"><title>Node30</title>
<g id="a_node30"><a xlink:href="CheckRunnerFactory_8h.html" target="_top" xlink:title="QualityControl/CheckRunner\lFactory.h">
<polygon fill="none" stroke="black" points="1203.43,-224.5 1203.43,-254.5 1345.43,-254.5 1345.43,-224.5 1203.43,-224.5"/>
<text text-anchor="start" x="1211.43" y="-242.5" font-family="Helvetica,sans-Serif" font-size="10.00">QualityControl/CheckRunner</text>
<text text-anchor="middle" x="1274.43" y="-231.5" font-family="Helvetica,sans-Serif" font-size="10.00">Factory.h</text>
</a>
</g>
</g>
<!-- Node1&#45;&gt;Node30 -->
<g id="edge57" class="edge"><title>Node1&#45;&gt;Node30</title>
<path fill="none" stroke="midnightblue" d="M1029.74,-291.476C1078.87,-281.242 1145.56,-267.348 1196.91,-256.65"/>
<polygon fill="midnightblue" stroke="midnightblue" points="1197.89,-260.021 1206.96,-254.555 1196.46,-253.168 1197.89,-260.021"/>
</g>
<!-- Node7&#45;&gt;Node2 -->
<g id="edge11" class="edge"><title>Node7&#45;&gt;Node2</title>
<path fill="none" stroke="midnightblue" d="M729.168,-231.625C687.832,-225.134 637.067,-212.517 597.427,-188 578.245,-176.136 562.391,-155.324 552.712,-140.445"/>
<polygon fill="midnightblue" stroke="midnightblue" points="555.518,-138.328 547.27,-131.678 549.57,-142.02 555.518,-138.328"/>
</g>
<!-- Node7&#45;&gt;Node3 -->
<g id="edge12" class="edge"><title>Node7&#45;&gt;Node3</title>
<path fill="none" stroke="midnightblue" d="M729.204,-235.439C600.887,-229.687 331.613,-215.311 105.427,-188 104.151,-187.846 102.857,-187.682 101.554,-187.51"/>
<polygon fill="midnightblue" stroke="midnightblue" points="101.835,-184.015 91.4401,-186.062 100.843,-190.944 101.835,-184.015"/>
</g>
<!-- Node7&#45;&gt;Node4 -->
<g id="edge17" class="edge"><title>Node7&#45;&gt;Node4</title>
<path fill="none" stroke="midnightblue" d="M848.321,-229.938C861.201,-227.693 875.341,-225.487 888.427,-224 1031.95,-207.688 1398.21,-226.52 1537.43,-188 1555.82,-182.91 1557.75,-175.204 1575.43,-168 1609.91,-153.946 1650.41,-142.115 1680.78,-134.117"/>
<polygon fill="midnightblue" stroke="midnightblue" points="1681.87,-137.451 1690.67,-131.554 1680.11,-130.675 1681.87,-137.451"/>
</g>
<!-- Node8 -->
<g id="node8" class="node"><title>Node8</title>
<polygon fill="none" stroke="#bfbfbf" points="832.427,-168.5 832.427,-187.5 878.427,-187.5 878.427,-168.5 832.427,-168.5"/>
<text text-anchor="middle" x="855.427" y="-175.5" font-family="Helvetica,sans-Serif" font-size="10.00">chrono</text>
</g>
<!-- Node7&#45;&gt;Node8 -->
<g id="edge7" class="edge"><title>Node7&#45;&gt;Node8</title>
<path fill="none" stroke="midnightblue" d="M811.735,-229.975C819.46,-220.962 831.835,-206.525 841.446,-195.312"/>
<polygon fill="midnightblue" stroke="midnightblue" points="844.283,-197.379 848.134,-187.509 838.969,-192.824 844.283,-197.379"/>
</g>
<!-- Node9 -->
<g id="node9" class="node"><title>Node9</title>
<polygon fill="none" stroke="#bfbfbf" points="760.427,-112.5 760.427,-131.5 812.427,-131.5 812.427,-112.5 760.427,-112.5"/>
<text text-anchor="middle" x="786.427" y="-119.5" font-family="Helvetica,sans-Serif" font-size="10.00">memory</text>
</g>
<!-- Node7&#45;&gt;Node9 -->
<g id="edge8" class="edge"><title>Node7&#45;&gt;Node9</title>
<path fill="none" stroke="midnightblue" d="M830.033,-229.927C860.559,-218.245 905.341,-195.592 887.427,-168 879.827,-156.293 848.27,-143.366 822.427,-134.382"/>
<polygon fill="midnightblue" stroke="midnightblue" points="823.458,-131.036 812.864,-131.143 821.212,-137.666 823.458,-131.036"/>
</g>
<!-- Node10 -->
<g id="node10" class="node"><title>Node10</title>
<polygon fill="none" stroke="#bfbfbf" points="762.927,-0.5 762.927,-19.5 803.927,-19.5 803.927,-0.5 762.927,-0.5"/>
<text text-anchor="middle" x="783.427" y="-7.5" font-family="Helvetica,sans-Serif" font-size="10.00">string</text>
</g>
<!-- Node7&#45;&gt;Node10 -->
<g id="edge9" class="edge"><title>Node7&#45;&gt;Node10</title>
<path fill="none" stroke="midnightblue" d="M729.425,-235.52C559.496,-228.407 158.284,-209.419 138.427,-188 49.7553,-92.3496 613.395,-28.2711 752.784,-14.0102"/>
<polygon fill="midnightblue" stroke="midnightblue" points="753.198,-17.4863 762.795,-12.9974 752.494,-10.5218 753.198,-17.4863"/>
</g>
<!-- Node11 -->
<g id="node11" class="node"><title>Node11</title>
<polygon fill="none" stroke="#bfbfbf" points="1356.93,-0.5 1356.93,-19.5 1391.93,-19.5 1391.93,-0.5 1356.93,-0.5"/>
<text text-anchor="middle" x="1374.43" y="-7.5" font-family="Helvetica,sans-Serif" font-size="10.00">map</text>
</g>
<!-- Node7&#45;&gt;Node11 -->
<g id="edge10" class="edge"><title>Node7&#45;&gt;Node11</title>
<path fill="none" stroke="midnightblue" d="M849.217,-230C861.861,-227.81 875.654,-225.617 888.427,-224 967.237,-214.024 1547.4,-193.706 1597.43,-132 1609.44,-117.187 1609.08,-77.6622 1588.43,-56 1563.12,-29.4461 1454.07,-17.339 1402.13,-12.9992"/>
<polygon fill="midnightblue" stroke="midnightblue" points="1402.21,-9.49474 1391.97,-12.1887 1401.66,-16.4726 1402.21,-9.49474"/>
</g>
<!-- Node12 -->
<g id="node12" class="node"><title>Node12</title>
<polygon fill="none" stroke="#bfbfbf" points="934.427,-168.5 934.427,-187.5 1026.43,-187.5 1026.43,-168.5 934.427,-168.5"/>
<text text-anchor="middle" x="980.427" y="-175.5" font-family="Helvetica,sans-Serif" font-size="10.00">Common/Timer.h</text>
</g>
<!-- Node7&#45;&gt;Node12 -->
<g id="edge13" class="edge"><title>Node7&#45;&gt;Node12</title>
<path fill="none" stroke="midnightblue" d="M829.644,-229.975C860.096,-219.68 911.476,-202.31 945.671,-190.75"/>
<polygon fill="midnightblue" stroke="midnightblue" points="946.905,-194.027 955.258,-187.509 944.664,-187.396 946.905,-194.027"/>
</g>
<!-- Node13 -->
<g id="node13" class="node"><title>Node13</title>
<polygon fill="none" stroke="#bfbfbf" points="147.427,-168.5 147.427,-187.5 245.427,-187.5 245.427,-168.5 147.427,-168.5"/>
<text text-anchor="middle" x="196.427" y="-175.5" font-family="Helvetica,sans-Serif" font-size="10.00">Framework/Task.h</text>
</g>
<!-- Node7&#45;&gt;Node13 -->
<g id="edge14" class="edge"><title>Node7&#45;&gt;Node13</title>
<path fill="none" stroke="midnightblue" d="M729.095,-233.079C624.963,-225.252 430.953,-209.469 255.382,-188.047"/>
<polygon fill="midnightblue" stroke="midnightblue" points="255.797,-184.572 245.445,-186.826 254.944,-191.52 255.797,-184.572"/>
</g>
<!-- Node14 -->
<g id="node14" class="node"><title>Node14</title>
<polygon fill="none" stroke="#bfbfbf" points="263.927,-168.5 263.927,-187.5 380.927,-187.5 380.927,-168.5 263.927,-168.5"/>
<text text-anchor="middle" x="322.427" y="-175.5" font-family="Helvetica,sans-Serif" font-size="10.00">Headers/DataHeader.h</text>
</g>
<!-- Node7&#45;&gt;Node14 -->
<g id="edge15" class="edge"><title>Node7&#45;&gt;Node14</title>
<path fill="none" stroke="midnightblue" d="M732.049,-229.969C651.393,-220.4 516.804,-204.246 391.414,-188.243"/>
<polygon fill="midnightblue" stroke="midnightblue" points="391.611,-184.74 381.248,-186.943 390.724,-191.683 391.611,-184.74"/>
</g>
<!-- Node15 -->
<g id="node15" class="node"><title>Node15</title>
<polygon fill="none" stroke="#bfbfbf" points="398.927,-168.5 398.927,-187.5 549.927,-187.5 549.927,-168.5 398.927,-168.5"/>
<text text-anchor="middle" x="474.427" y="-175.5" font-family="Helvetica,sans-Serif" font-size="10.00">Monitoring/MonitoringFactory.h</text>
</g>
<!-- Node7&#45;&gt;Node15 -->
<g id="edge16" class="edge"><title>Node7&#45;&gt;Node15</title>
<path fill="none" stroke="midnightblue" d="M757.147,-229.975C697.599,-219.239 595.37,-200.806 531.525,-189.295"/>
<polygon fill="midnightblue" stroke="midnightblue" points="532.083,-185.839 521.621,-187.509 530.841,-192.728 532.083,-185.839"/>
</g>
<!-- Node16 -->
<g id="node16" class="node"><title>Node16</title>
<g id="a_node16"><a xlink:href="CheckInterface_8h.html" target="_top" xlink:title="QualityControl/CheckInterface.h">
<polygon fill="none" stroke="black" points="906.927,-112.5 906.927,-131.5 1063.93,-131.5 1063.93,-112.5 906.927,-112.5"/>
<text text-anchor="middle" x="985.427" y="-119.5" font-family="Helvetica,sans-Serif" font-size="10.00">QualityControl/CheckInterface.h</text>
</a>
</g>
</g>
<!-- Node7&#45;&gt;Node16 -->
<g id="edge18" class="edge"><title>Node7&#45;&gt;Node16</title>
<path fill="none" stroke="midnightblue" d="M804.184,-229.8C804.263,-215.008 806.641,-184.916 823.427,-168 842.844,-148.433 869.98,-137.179 896.499,-130.767"/>
<polygon fill="midnightblue" stroke="midnightblue" points="897.601,-134.108 906.615,-128.539 896.096,-127.272 897.601,-134.108"/>
</g>
<!-- Node18 -->
<g id="node18" class="node"><title>Node18</title>
<g id="a_node18"><a xlink:href="MonitorObject_8h.html" target="_top" xlink:title="QualityControl/MonitorObject.h">
<polygon fill="none" stroke="black" points="1008.93,-56.5 1008.93,-75.5 1159.93,-75.5 1159.93,-56.5 1008.93,-56.5"/>
<text text-anchor="middle" x="1084.43" y="-63.5" font-family="Helvetica,sans-Serif" font-size="10.00">QualityControl/MonitorObject.h</text>
</a>
</g>
</g>
<!-- Node7&#45;&gt;Node18 -->
<g id="edge43" class="edge"><title>Node7&#45;&gt;Node18</title>
<path fill="none" stroke="midnightblue" d="M852.565,-229.976C915.753,-218.482 1020.45,-198.273 1035.43,-188 1069.43,-164.681 1079.85,-113.394 1083.04,-85.669"/>
<polygon fill="midnightblue" stroke="midnightblue" points="1086.52,-85.9715 1083.98,-75.6859 1079.55,-85.3111 1086.52,-85.9715"/>
</g>
<!-- Node22 -->
<g id="node22" class="node"><title>Node22</title>
<g id="a_node22"><a xlink:href="DatabaseInterface_8h.html" target="_top" xlink:title="QualityControl/DatabaseInterface.h">
<polygon fill="none" stroke="black" points="606.427,-168.5 606.427,-187.5 776.427,-187.5 776.427,-168.5 606.427,-168.5"/>
<text text-anchor="middle" x="691.427" y="-175.5" font-family="Helvetica,sans-Serif" font-size="10.00">QualityControl/DatabaseInterface.h</text>
</a>
</g>
</g>
<!-- Node7&#45;&gt;Node22 -->
<g id="edge31" class="edge"><title>Node7&#45;&gt;Node22</title>
<path fill="none" stroke="midnightblue" d="M788.237,-229.975C769.525,-220.122 738.504,-203.788 716.629,-192.27"/>
<polygon fill="midnightblue" stroke="midnightblue" points="718.067,-189.071 707.588,-187.509 714.805,-195.265 718.067,-189.071"/>
</g>
<!-- Node26 -->
<g id="node26" class="node"><title>Node26</title>
<g id="a_node26"><a xlink:href="QcInfoLogger_8h.html" target="_top" xlink:title="QualityControl/QcInfoLogger.h">
<polygon fill="none" stroke="black" points="1439.93,-112.5 1439.93,-131.5 1588.93,-131.5 1588.93,-112.5 1439.93,-112.5"/>
<text text-anchor="middle" x="1514.43" y="-119.5" font-family="Helvetica,sans-Serif" font-size="10.00">QualityControl/QcInfoLogger.h</text>
</a>
</g>
</g>
<!-- Node7&#45;&gt;Node26 -->
<g id="edge44" class="edge"><title>Node7&#45;&gt;Node26</title>
<path fill="none" stroke="midnightblue" d="M850.104,-229.95C862.508,-227.81 875.958,-225.655 888.427,-224 1059.23,-201.328 1104.87,-218.633 1274.43,-188 1348.24,-174.665 1432.41,-149.489 1478.88,-134.688"/>
<polygon fill="midnightblue" stroke="midnightblue" points="1480.03,-137.995 1488.48,-131.606 1477.89,-131.33 1480.03,-137.995"/>
</g>
<!-- Node28 -->
<g id="node28" class="node"><title>Node28</title>
<g id="a_node28"><a xlink:href="Check_8h_source.html" target="_top" xlink:title="QualityControl/Check.h">
<polygon fill="none" stroke="black" points="1146.93,-168.5 1146.93,-187.5 1265.93,-187.5 1265.93,-168.5 1146.93,-168.5"/>
<text text-anchor="middle" x="1206.43" y="-175.5" font-family="Helvetica,sans-Serif" font-size="10.00">QualityControl/Check.h</text>
</a>
</g>
</g>
<!-- Node7&#45;&gt;Node28 -->
<g id="edge46" class="edge"><title>Node7&#45;&gt;Node28</title>
<path fill="none" stroke="midnightblue" d="M852.361,-229.967C864.143,-227.941 876.732,-225.837 888.427,-224 973.785,-210.597 1072.32,-196.932 1136.81,-188.233"/>
<polygon fill="midnightblue" stroke="midnightblue" points="1137.42,-191.683 1146.86,-186.88 1136.48,-184.745 1137.42,-191.683"/>
</g>
<!-- Node16&#45;&gt;Node10 -->
<g id="edge19" class="edge"><title>Node16&#45;&gt;Node10</title>
<path fill="none" stroke="midnightblue" d="M908.479,-112.476C878.941,-106.153 846.368,-95.1488 821.427,-76 805.909,-64.0854 795.547,-43.8842 789.617,-29.1587"/>
<polygon fill="midnightblue" stroke="midnightblue" points="792.831,-27.7593 786.072,-19.6008 786.268,-30.1939 792.831,-27.7593"/>
</g>
<!-- Node16&#45;&gt;Node11 -->
<g id="edge20" class="edge"><title>Node16&#45;&gt;Node11</title>
<path fill="none" stroke="midnightblue" d="M1023.11,-112.482C1060.24,-103.915 1118.5,-90.0008 1168.43,-76 1233.06,-57.8756 1308.03,-33.3173 1347.27,-20.1842"/>
<polygon fill="midnightblue" stroke="midnightblue" points="1348.54,-23.4509 1356.91,-16.9498 1346.31,-16.815 1348.54,-23.4509"/>
</g>
<!-- Node17 -->
<g id="node17" class="node"><title>Node17</title>
<polygon fill="none" stroke="#bfbfbf" points="952.427,-0.5 952.427,-19.5 1008.43,-19.5 1008.43,-0.5 952.427,-0.5"/>
<text text-anchor="middle" x="980.427" y="-7.5" font-family="Helvetica,sans-Serif" font-size="10.00">Rtypes.h</text>
</g>
<!-- Node16&#45;&gt;Node17 -->
<g id="edge21" class="edge"><title>Node16&#45;&gt;Node17</title>
<path fill="none" stroke="midnightblue" d="M985.035,-112.368C984.228,-94.617 982.367,-53.6664 981.273,-29.5974"/>
<polygon fill="midnightblue" stroke="midnightblue" points="984.769,-29.4221 980.818,-19.5914 977.776,-29.7401 984.769,-29.4221"/>
</g>
<!-- Node16&#45;&gt;Node18 -->
<g id="edge22" class="edge"><title>Node16&#45;&gt;Node18</title>
<path fill="none" stroke="midnightblue" d="M1001.33,-112.324C1017.07,-103.743 1041.37,-90.486 1059.64,-80.5224"/>
<polygon fill="midnightblue" stroke="midnightblue" points="1061.46,-83.5157 1068.56,-75.6545 1058.11,-77.3704 1061.46,-83.5157"/>
</g>
<!-- Node21 -->
<g id="node21" class="node"><title>Node21</title>
<g id="a_node21"><a xlink:href="Quality_8h.html" target="_top" xlink:title="QualityControl/Quality.h">
<polygon fill="none" stroke="black" points="830.927,-56.5 830.927,-75.5 951.927,-75.5 951.927,-56.5 830.927,-56.5"/>
<text text-anchor="middle" x="891.427" y="-63.5" font-family="Helvetica,sans-Serif" font-size="10.00">QualityControl/Quality.h</text>
</a>
</g>
</g>
<!-- Node16&#45;&gt;Node21 -->
<g id="edge28" class="edge"><title>Node16&#45;&gt;Node21</title>
<path fill="none" stroke="midnightblue" d="M970.325,-112.324C955.524,-103.822 932.733,-90.7288 915.445,-80.7975"/>
<polygon fill="midnightblue" stroke="midnightblue" points="916.907,-77.6009 906.493,-75.6545 913.42,-83.6707 916.907,-77.6009"/>
</g>
<!-- Node18&#45;&gt;Node10 -->
<g id="edge23" class="edge"><title>Node18&#45;&gt;Node10</title>
<path fill="none" stroke="midnightblue" d="M1036.73,-56.4435C974.389,-45.2589 866.96,-25.9859 814.319,-16.542"/>
<polygon fill="midnightblue" stroke="midnightblue" points="814.713,-13.0569 804.252,-14.7359 813.477,-19.9469 814.713,-13.0569"/>
</g>
<!-- Node18&#45;&gt;Node11 -->
<g id="edge24" class="edge"><title>Node18&#45;&gt;Node11</title>
<path fill="none" stroke="midnightblue" d="M1130.38,-56.4435C1191.24,-45.1116 1296.68,-25.477 1346.64,-16.1742"/>
<polygon fill="midnightblue" stroke="midnightblue" points="1347.51,-19.5721 1356.7,-14.3006 1346.23,-12.6904 1347.51,-19.5721"/>
</g>
<!-- Node18&#45;&gt;Node17 -->
<g id="edge25" class="edge"><title>Node18&#45;&gt;Node17</title>
<path fill="none" stroke="midnightblue" d="M1067.72,-56.324C1051.12,-47.7034 1025.43,-34.3643 1006.21,-24.3855"/>
<polygon fill="midnightblue" stroke="midnightblue" points="1007.58,-21.1565 997.095,-19.6545 1004.36,-27.3689 1007.58,-21.1565"/>
</g>
<!-- Node19 -->
<g id="node19" class="node"><title>Node19</title>
<polygon fill="none" stroke="#bfbfbf" points="1197.93,-0.5 1197.93,-19.5 1256.93,-19.5 1256.93,-0.5 1197.93,-0.5"/>
<text text-anchor="middle" x="1227.43" y="-7.5" font-family="Helvetica,sans-Serif" font-size="10.00">TObject.h</text>
</g>
<!-- Node18&#45;&gt;Node19 -->
<g id="edge26" class="edge"><title>Node18&#45;&gt;Node19</title>
<path fill="none" stroke="midnightblue" d="M1107.09,-56.4435C1130.83,-47.4776 1168.34,-33.314 1195.17,-23.1827"/>
<polygon fill="midnightblue" stroke="midnightblue" points="1196.76,-26.3235 1204.87,-19.5164 1194.28,-19.7749 1196.76,-26.3235"/>
</g>
<!-- Node20 -->
<g id="node20" class="node"><title>Node20</title>
<polygon fill="none" stroke="#bfbfbf" points="1044.43,-0.5 1044.43,-19.5 1160.43,-19.5 1160.43,-0.5 1044.43,-0.5"/>
<text text-anchor="middle" x="1102.43" y="-7.5" font-family="Helvetica,sans-Serif" font-size="10.00">Common/Exceptions.h</text>
</g>
<!-- Node18&#45;&gt;Node20 -->
<g id="edge27" class="edge"><title>Node18&#45;&gt;Node20</title>
<path fill="none" stroke="midnightblue" d="M1087.4,-56.083C1089.81,-48.8486 1093.29,-38.4087 1096.3,-29.3968"/>
<polygon fill="midnightblue" stroke="midnightblue" points="1099.67,-30.3447 1099.51,-19.7511 1093.03,-28.1311 1099.67,-30.3447"/>
</g>
<!-- Node21&#45;&gt;Node10 -->
<g id="edge30" class="edge"><title>Node21&#45;&gt;Node10</title>
<path fill="none" stroke="midnightblue" d="M874.075,-56.324C856.756,-47.6641 829.912,-34.2424 809.926,-24.249"/>
<polygon fill="midnightblue" stroke="midnightblue" points="811.246,-20.9962 800.736,-19.6545 808.116,-27.2572 811.246,-20.9962"/>
</g>
<!-- Node21&#45;&gt;Node17 -->
<g id="edge29" class="edge"><title>Node21&#45;&gt;Node17</title>
<path fill="none" stroke="midnightblue" d="M905.727,-56.324C919.61,-47.9002 940.92,-34.9709 957.231,-25.0741"/>
<polygon fill="midnightblue" stroke="midnightblue" points="959.43,-27.8341 966.164,-19.6545 955.799,-21.8495 959.43,-27.8341"/>
</g>
<!-- Node22&#45;&gt;Node2 -->
<g id="edge34" class="edge"><title>Node22&#45;&gt;Node2</title>
<path fill="none" stroke="midnightblue" d="M667.818,-168.444C642.531,-159.279 602.261,-144.685 574.203,-134.516"/>
<polygon fill="midnightblue" stroke="midnightblue" points="575.064,-131.105 564.469,-130.988 572.678,-137.686 575.064,-131.105"/>
</g>
<!-- Node22&#45;&gt;Node9 -->
<g id="edge33" class="edge"><title>Node22&#45;&gt;Node9</title>
<path fill="none" stroke="midnightblue" d="M706.691,-168.324C721.649,-159.822 744.682,-146.729 762.154,-136.797"/>
<polygon fill="midnightblue" stroke="midnightblue" points="764.238,-139.639 771.202,-131.655 760.779,-133.553 764.238,-139.639"/>
</g>
<!-- Node22&#45;&gt;Node10 -->
<g id="edge32" class="edge"><title>Node22&#45;&gt;Node10</title>
<path fill="none" stroke="midnightblue" d="M664.272,-168.488C635.612,-157.931 596.491,-138.092 611.427,-112 641.878,-58.8063 712.445,-30.8872 753.098,-18.7215"/>
<polygon fill="midnightblue" stroke="midnightblue" points="754.094,-22.077 762.746,-15.9622 752.169,-15.3469 754.094,-22.077"/>
</g>
<!-- Node22&#45;&gt;Node18 -->
<g id="edge42" class="edge"><title>Node22&#45;&gt;Node18</title>
<path fill="none" stroke="midnightblue" d="M696.458,-168.499C705.463,-154.136 725.816,-125.329 751.427,-112 772.969,-100.789 907.364,-85.1247 998.694,-75.5428"/>
<polygon fill="midnightblue" stroke="midnightblue" points="999.193,-79.0099 1008.78,-74.4914 998.466,-72.0477 999.193,-79.0099"/>
</g>
<!-- Node23 -->
<g id="node23" class="node"><title>Node23</title>
<polygon fill="none" stroke="#bfbfbf" points="620.927,-112.5 620.927,-131.5 703.927,-131.5 703.927,-112.5 620.927,-112.5"/>
<text text-anchor="middle" x="662.427" y="-119.5" font-family="Helvetica,sans-Serif" font-size="10.00">unordered_map</text>
</g>
<!-- Node22&#45;&gt;Node23 -->
<g id="edge35" class="edge"><title>Node22&#45;&gt;Node23</title>
<path fill="none" stroke="midnightblue" d="M686.639,-168.083C682.669,-160.691 676.902,-149.953 671.993,-140.811"/>
<polygon fill="midnightblue" stroke="midnightblue" points="674.942,-138.905 667.127,-131.751 668.775,-142.217 674.942,-138.905"/>
</g>
<!-- Node24 -->
<g id="node24" class="node"><title>Node24</title>
<g id="a_node24"><a xlink:href="QualityObject_8h_source.html" target="_top" xlink:title="QualityControl/QualityObject.h">
<polygon fill="none" stroke="black" points="1157.93,-112.5 1157.93,-131.5 1306.93,-131.5 1306.93,-112.5 1157.93,-112.5"/>
<text text-anchor="middle" x="1232.43" y="-119.5" font-family="Helvetica,sans-Serif" font-size="10.00">QualityControl/QualityObject.h</text>
</a>
</g>
</g>
<!-- Node22&#45;&gt;Node24 -->
<g id="edge36" class="edge"><title>Node22&#45;&gt;Node24</title>
<path fill="none" stroke="midnightblue" d="M776.554,-168.503C877.963,-158.381 1046.35,-141.574 1147.62,-131.466"/>
<polygon fill="midnightblue" stroke="midnightblue" points="1148.2,-134.924 1157.81,-130.448 1147.51,-127.959 1148.2,-134.924"/>
</g>
<!-- Node24&#45;&gt;Node11 -->
<g id="edge38" class="edge"><title>Node24&#45;&gt;Node11</title>
<path fill="none" stroke="midnightblue" d="M1287,-112.461C1310.92,-106.113 1337.56,-95.0933 1355.43,-76 1367.09,-63.5363 1371.64,-44.3029 1373.39,-29.9874"/>
<polygon fill="midnightblue" stroke="midnightblue" points="1376.89,-30.0497 1374.27,-19.7843 1369.92,-29.4438 1376.89,-30.0497"/>
</g>
<!-- Node24&#45;&gt;Node19 -->
<g id="edge39" class="edge"><title>Node24&#45;&gt;Node19</title>
<path fill="none" stroke="midnightblue" d="M1234.99,-112.155C1238.29,-99.6359 1243.26,-76.0386 1240.43,-56 1239.16,-47.0425 1236.54,-37.372 1233.98,-29.2998"/>
<polygon fill="midnightblue" stroke="midnightblue" points="1237.29,-28.1569 1230.77,-19.8034 1230.66,-30.3976 1237.29,-28.1569"/>
</g>
<!-- Node24&#45;&gt;Node20 -->
<g id="edge40" class="edge"><title>Node24&#45;&gt;Node20</title>
<path fill="none" stroke="midnightblue" d="M1225.02,-112.477C1213.56,-99.534 1190.55,-74.4751 1168.43,-56 1154.89,-44.698 1138.52,-33.5227 1125.47,-25.1359"/>
<polygon fill="midnightblue" stroke="midnightblue" points="1126.97,-21.9407 1116.64,-19.5599 1123.23,-27.8591 1126.97,-21.9407"/>
</g>
<!-- Node24&#45;&gt;Node21 -->
<g id="edge41" class="edge"><title>Node24&#45;&gt;Node21</title>
<path fill="none" stroke="midnightblue" d="M1178.4,-112.444C1117.79,-102.846 1019.57,-87.2916 955.231,-77.1037"/>
<polygon fill="midnightblue" stroke="midnightblue" points="955.632,-73.6237 945.207,-75.5164 954.537,-80.5375 955.632,-73.6237"/>
</g>
<!-- Node25 -->
<g id="node25" class="node"><title>Node25</title>
<polygon fill="none" stroke="#bfbfbf" points="1292.43,-56.5 1292.43,-75.5 1346.43,-75.5 1346.43,-56.5 1292.43,-56.5"/>
<text text-anchor="middle" x="1319.43" y="-63.5" font-family="Helvetica,sans-Serif" font-size="10.00">iostream</text>
</g>
<!-- Node24&#45;&gt;Node25 -->
<g id="edge37" class="edge"><title>Node24&#45;&gt;Node25</title>
<path fill="none" stroke="midnightblue" d="M1246.41,-112.324C1259.98,-103.9 1280.81,-90.9709 1296.75,-81.0741"/>
<polygon fill="midnightblue" stroke="midnightblue" points="1298.83,-83.9019 1305.48,-75.6545 1295.14,-77.9544 1298.83,-83.9019"/>
</g>
<!-- Node27 -->
<g id="node27" class="node"><title>Node27</title>
<polygon fill="none" stroke="#bfbfbf" points="1449.43,-56.5 1449.43,-75.5 1579.43,-75.5 1579.43,-56.5 1449.43,-56.5"/>
<text text-anchor="middle" x="1514.43" y="-63.5" font-family="Helvetica,sans-Serif" font-size="10.00">InfoLogger/InfoLogger.hxx</text>
</g>
<!-- Node26&#45;&gt;Node27 -->
<g id="edge45" class="edge"><title>Node26&#45;&gt;Node27</title>
<path fill="none" stroke="midnightblue" d="M1514.43,-112.083C1514.43,-105.006 1514.43,-94.8611 1514.43,-85.9865"/>
<polygon fill="midnightblue" stroke="midnightblue" points="1517.93,-85.751 1514.43,-75.7511 1510.93,-85.7511 1517.93,-85.751"/>
</g>
<!-- Node28&#45;&gt;Node2 -->
<g id="edge49" class="edge"><title>Node28&#45;&gt;Node2</title>
<path fill="none" stroke="midnightblue" d="M1146.79,-173.563C1039.52,-167.142 806.963,-152.132 611.427,-132 599.375,-130.759 586.175,-129.109 574.577,-127.561"/>
<polygon fill="midnightblue" stroke="midnightblue" points="574.836,-124.064 564.455,-126.183 573.891,-131 574.836,-124.064"/>
</g>
<!-- Node28&#45;&gt;Node4 -->
<g id="edge51" class="edge"><title>Node28&#45;&gt;Node4</title>
<path fill="none" stroke="midnightblue" d="M1266.08,-170.806C1356.27,-161.439 1528.08,-143.597 1634.39,-132.557"/>
<polygon fill="midnightblue" stroke="midnightblue" points="1634.89,-136.025 1644.47,-131.511 1634.16,-129.063 1634.89,-136.025"/>
</g>
<!-- Node28&#45;&gt;Node9 -->
<g id="edge50" class="edge"><title>Node28&#45;&gt;Node9</title>
<path fill="none" stroke="midnightblue" d="M1146.7,-169.32C1058.2,-157.942 894.919,-136.949 822.566,-127.646"/>
<polygon fill="midnightblue" stroke="midnightblue" points="822.935,-124.165 812.57,-126.361 822.042,-131.108 822.935,-124.165"/>
</g>
<!-- Node28&#45;&gt;Node11 -->
<g id="edge48" class="edge"><title>Node28&#45;&gt;Node11</title>
<path fill="none" stroke="midnightblue" d="M1255.13,-168.417C1307.31,-158.729 1383.85,-142.9 1392.43,-132 1416.08,-101.942 1397.55,-54.2922 1384.48,-28.6776"/>
<polygon fill="midnightblue" stroke="midnightblue" points="1387.49,-26.8872 1379.67,-19.7347 1381.32,-30.2003 1387.49,-26.8872"/>
</g>
<!-- Node28&#45;&gt;Node16 -->
<g id="edge55" class="edge"><title>Node28&#45;&gt;Node16</title>
<path fill="none" stroke="midnightblue" d="M1171.41,-168.444C1133.18,-159.102 1071.86,-144.119 1030.17,-133.933"/>
<polygon fill="midnightblue" stroke="midnightblue" points="1030.83,-130.49 1020.28,-131.516 1029.17,-137.29 1030.83,-130.49"/>
</g>
<!-- Node28&#45;&gt;Node18 -->
<g id="edge54" class="edge"><title>Node28&#45;&gt;Node18</title>
<path fill="none" stroke="midnightblue" d="M1194.51,-168.476C1182.52,-159.737 1163.67,-145.545 1148.43,-132 1130.78,-116.319 1111.99,-96.8615 1099.36,-83.3419"/>
<polygon fill="midnightblue" stroke="midnightblue" points="1101.73,-80.7424 1092.37,-75.7782 1096.59,-85.4958 1101.73,-80.7424"/>
</g>
<!-- Node28&#45;&gt;Node21 -->
<g id="edge52" class="edge"><title>Node28&#45;&gt;Node21</title>
<path fill="none" stroke="midnightblue" d="M1146.75,-172.258C1061.79,-164.922 914.312,-149.796 897.427,-132 885.991,-119.946 885.687,-100.377 887.514,-85.8553"/>
<polygon fill="midnightblue" stroke="midnightblue" points="890.974,-86.3844 889.179,-75.9429 884.071,-85.2254 890.974,-86.3844"/>
</g>
<!-- Node28&#45;&gt;Node24 -->
<g id="edge53" class="edge"><title>Node28&#45;&gt;Node24</title>
<path fill="none" stroke="midnightblue" d="M1210.72,-168.083C1214.28,-160.691 1219.45,-149.953 1223.85,-140.811"/>
<polygon fill="midnightblue" stroke="midnightblue" points="1227.03,-142.279 1228.21,-131.751 1220.72,-139.243 1227.03,-142.279"/>
</g>
<!-- Node28&#45;&gt;Node26 -->
<g id="edge56" class="edge"><title>Node28&#45;&gt;Node26</title>
<path fill="none" stroke="midnightblue" d="M1255.23,-168.444C1309.64,-158.905 1397.6,-143.483 1455.72,-133.293"/>
<polygon fill="midnightblue" stroke="midnightblue" points="1456.61,-136.691 1465.85,-131.516 1455.4,-129.796 1456.61,-136.691"/>
</g>
<!-- Node29 -->
<g id="node29" class="node"><title>Node29</title>
<polygon fill="none" stroke="#bfbfbf" points="1324.93,-112.5 1324.93,-131.5 1383.93,-131.5 1383.93,-112.5 1324.93,-112.5"/>
<text text-anchor="middle" x="1354.43" y="-119.5" font-family="Helvetica,sans-Serif" font-size="10.00">functional</text>
</g>
<!-- Node28&#45;&gt;Node29 -->
<g id="edge47" class="edge"><title>Node28&#45;&gt;Node29</title>
<path fill="none" stroke="midnightblue" d="M1229.88,-168.444C1254.56,-159.438 1293.61,-145.189 1321.4,-135.049"/>
<polygon fill="midnightblue" stroke="midnightblue" points="1322.89,-138.232 1331.09,-131.516 1320.49,-131.656 1322.89,-138.232"/>
</g>
<!-- Node30&#45;&gt;Node4 -->
<g id="edge59" class="edge"><title>Node30&#45;&gt;Node4</title>
<path fill="none" stroke="midnightblue" d="M1345.62,-232.015C1407.42,-225.103 1498.76,-211.784 1575.43,-188 1595.56,-181.755 1599.14,-176.499 1618.43,-168 1644.38,-156.564 1674.15,-144.217 1695.85,-135.354"/>
<polygon fill="midnightblue" stroke="midnightblue" points="1697.27,-138.556 1705.21,-131.543 1694.63,-132.072 1697.27,-138.556"/>
</g>
<!-- Node30&#45;&gt;Node10 -->
<g id="edge58" class="edge"><title>Node30&#45;&gt;Node10</title>
<path fill="none" stroke="midnightblue" d="M1229.25,-224.401C1181.35,-209.63 1103.36,-186.102 1035.43,-168 968.762,-150.234 947.673,-159.566 884.427,-132 843.295,-114.073 826.472,-112.536 800.427,-76 790.8,-62.495 786.623,-43.9399 784.812,-30.1108"/>
<polygon fill="midnightblue" stroke="midnightblue" points="788.26,-29.4209 783.779,-19.8205 781.295,-30.1201 788.26,-29.4209"/>
</g>
<!-- Node30&#45;&gt;Node28 -->
<g id="edge61" class="edge"><title>Node30&#45;&gt;Node28</title>
<path fill="none" stroke="midnightblue" d="M1258.31,-224.399C1248.02,-215.397 1234.68,-203.721 1224.1,-194.465"/>
<polygon fill="midnightblue" stroke="midnightblue" points="1226.15,-191.609 1216.32,-187.658 1221.54,-196.877 1226.15,-191.609"/>
</g>
<!-- Node31 -->
<g id="node31" class="node"><title>Node31</title>
<polygon fill="none" stroke="#bfbfbf" points="1627.93,-168.5 1627.93,-187.5 1780.93,-187.5 1780.93,-168.5 1627.93,-168.5"/>
<text text-anchor="middle" x="1704.43" y="-175.5" font-family="Helvetica,sans-Serif" font-size="10.00">Framework/CompletionPolicy.h</text>
</g>
<!-- Node30&#45;&gt;Node31 -->
<g id="edge60" class="edge"><title>Node30&#45;&gt;Node31</title>
<path fill="none" stroke="midnightblue" d="M1345.43,-228.675C1424.93,-217.675 1553.02,-199.95 1632.78,-188.915"/>
<polygon fill="midnightblue" stroke="midnightblue" points="1633.31,-192.374 1642.74,-187.536 1632.35,-185.44 1633.31,-192.374"/>
</g>
</g>
</svg>
