<?xml version="1.0" encoding="UTF-8" standalone="no"?>
<!DOCTYPE svg PUBLIC "-//W3C//DTD SVG 1.1//EN"
 "http://www.w3.org/Graphics/SVG/1.1/DTD/svg11.dtd">
<!-- Generated by graphviz version 2.38.0 (20140413.2041)
 -->
<!-- Title: Framework/include/QualityControl/CheckRunner.h Pages: 1 -->
<svg width="1683pt" height="263pt"
 viewBox="0.00 0.00 1682.50 263.00" xmlns="http://www.w3.org/2000/svg" xmlns:xlink="http://www.w3.org/1999/xlink">
<g id="graph0" class="graph" transform="scale(1 1) rotate(0) translate(4 259)">
<title>Framework/include/QualityControl/CheckRunner.h</title>
<!-- Node1 -->
<g id="node1" class="node"><title>Node1</title>
<polygon fill="#bfbfbf" stroke="black" points="876.5,-224.5 876.5,-254.5 1009.5,-254.5 1009.5,-224.5 876.5,-224.5"/>
<text text-anchor="start" x="884.5" y="-242.5" font-family="Helvetica,sans-Serif" font-size="10.00">Framework/include/Quality</text>
<text text-anchor="middle" x="943" y="-231.5" font-family="Helvetica,sans-Serif" font-size="10.00">Control/CheckRunner.h</text>
</g>
<!-- Node2 -->
<g id="node2" class="node"><title>Node2</title>
<polygon fill="none" stroke="#bfbfbf" points="0,-168.5 0,-187.5 46,-187.5 46,-168.5 0,-168.5"/>
<text text-anchor="middle" x="23" y="-175.5" font-family="Helvetica,sans-Serif" font-size="10.00">chrono</text>
</g>
<!-- Node1&#45;&gt;Node2 -->
<g id="edge1" class="edge"><title>Node1&#45;&gt;Node2</title>
<path fill="none" stroke="midnightblue" d="M876.396,-238.8C728.61,-238.57 362.418,-233.047 60,-188 58.7495,-187.814 57.4793,-187.605 56.1993,-187.378"/>
<polygon fill="midnightblue" stroke="midnightblue" points="56.8605,-183.941 46.3612,-185.361 55.4542,-190.798 56.8605,-183.941"/>
</g>
<!-- Node3 -->
<g id="node3" class="node"><title>Node3</title>
<polygon fill="none" stroke="#bfbfbf" points="318,-112.5 318,-131.5 370,-131.5 370,-112.5 318,-112.5"/>
<text text-anchor="middle" x="344" y="-119.5" font-family="Helvetica,sans-Serif" font-size="10.00">memory</text>
</g>
<!-- Node1&#45;&gt;Node3 -->
<g id="edge2" class="edge"><title>Node1&#45;&gt;Node3</title>
<path fill="none" stroke="midnightblue" d="M876.241,-227.582C772.191,-210.192 564.954,-174.068 380.229,-132.189"/>
<polygon fill="midnightblue" stroke="midnightblue" points="380.864,-128.744 370.336,-129.935 379.309,-135.569 380.864,-128.744"/>
</g>
<!-- Node4 -->
<g id="node4" class="node"><title>Node4</title>
<polygon fill="none" stroke="#bfbfbf" points="186.5,-0.5 186.5,-19.5 227.5,-19.5 227.5,-0.5 186.5,-0.5"/>
<text text-anchor="middle" x="207" y="-7.5" font-family="Helvetica,sans-Serif" font-size="10.00">string</text>
</g>
<!-- Node1&#45;&gt;Node4 -->
<g id="edge3" class="edge"><title>Node1&#45;&gt;Node4</title>
<path fill="none" stroke="midnightblue" d="M876.272,-237.383C704.168,-234.024 254.666,-222.061 197,-188 144.741,-157.133 138.274,-111.864 162,-56 167.026,-44.1654 176.782,-33.7912 185.929,-25.9954"/>
<polygon fill="midnightblue" stroke="midnightblue" points="188.343,-28.5481 194.004,-19.5928 183.994,-23.0628 188.343,-28.5481"/>
</g>
<!-- Node5 -->
<g id="node5" class="node"><title>Node5</title>
<polygon fill="none" stroke="#bfbfbf" points="760.5,-0.5 760.5,-19.5 795.5,-19.5 795.5,-0.5 760.5,-0.5"/>
<text text-anchor="middle" x="778" y="-7.5" font-family="Helvetica,sans-Serif" font-size="10.00">map</text>
</g>
<!-- Node1&#45;&gt;Node5 -->
<g id="edge4" class="edge"><title>Node1&#45;&gt;Node5</title>
<path fill="none" stroke="midnightblue" d="M953.394,-224.324C965.954,-208.231 988.591,-182.354 1014,-168 1073.43,-134.427 1198.59,-166.122 1157,-112 1113.41,-55.2735 886.056,-23.6258 805.959,-14.1036"/>
<polygon fill="midnightblue" stroke="midnightblue" points="806.007,-10.5856 795.669,-12.9065 805.198,-17.5387 806.007,-10.5856"/>
</g>
<!-- Node6 -->
<g id="node6" class="node"><title>Node6</title>
<polygon fill="none" stroke="#bfbfbf" points="922,-112.5 922,-131.5 966,-131.5 966,-112.5 922,-112.5"/>
<text text-anchor="middle" x="944" y="-119.5" font-family="Helvetica,sans-Serif" font-size="10.00">vector</text>
</g>
<!-- Node1&#45;&gt;Node6 -->
<g id="edge5" class="edge"><title>Node1&#45;&gt;Node6</title>
<path fill="none" stroke="midnightblue" d="M943.123,-224.337C943.302,-203.622 943.636,-165.016 943.836,-141.899"/>
<polygon fill="midnightblue" stroke="midnightblue" points="947.338,-141.699 943.925,-131.669 940.338,-141.639 947.338,-141.699"/>
</g>
<!-- Node7 -->
<g id="node7" class="node"><title>Node7</title>
<polygon fill="none" stroke="#bfbfbf" points="1066,-168.5 1066,-187.5 1144,-187.5 1144,-168.5 1066,-168.5"/>
<text text-anchor="middle" x="1105" y="-175.5" font-family="Helvetica,sans-Serif" font-size="10.00">unordered_set</text>
</g>
<!-- Node1&#45;&gt;Node7 -->
<g id="edge6" class="edge"><title>Node1&#45;&gt;Node7</title>
<path fill="none" stroke="midnightblue" d="M981.392,-224.399C1008.94,-214.283 1045.67,-200.791 1071.92,-191.149"/>
<polygon fill="midnightblue" stroke="midnightblue" points="1073.25,-194.391 1081.43,-187.658 1070.83,-187.82 1073.25,-194.391"/>
</g>
<!-- Node8 -->
<g id="node8" class="node"><title>Node8</title>
<polygon fill="none" stroke="#bfbfbf" points="1162,-168.5 1162,-187.5 1254,-187.5 1254,-168.5 1162,-168.5"/>
<text text-anchor="middle" x="1208" y="-175.5" font-family="Helvetica,sans-Serif" font-size="10.00">Common/Timer.h</text>
</g>
<!-- Node1&#45;&gt;Node8 -->
<g id="edge7" class="edge"><title>Node1&#45;&gt;Node8</title>
<path fill="none" stroke="midnightblue" d="M1005.47,-224.475C1052.78,-213.851 1116.82,-199.473 1160.12,-189.751"/>
<polygon fill="midnightblue" stroke="midnightblue" points="1161.12,-193.112 1170.11,-187.506 1159.59,-186.282 1161.12,-193.112"/>
</g>
<!-- Node9 -->
<g id="node9" class="node"><title>Node9</title>
<polygon fill="none" stroke="#bfbfbf" points="1272,-168.5 1272,-187.5 1370,-187.5 1370,-168.5 1272,-168.5"/>
<text text-anchor="middle" x="1321" y="-175.5" font-family="Helvetica,sans-Serif" font-size="10.00">Framework/Task.h</text>
</g>
<!-- Node1&#45;&gt;Node9 -->
<g id="edge8" class="edge"><title>Node1&#45;&gt;Node9</title>
<path fill="none" stroke="midnightblue" d="M1009.71,-228C1081.07,-216.766 1193.21,-199.116 1261.62,-188.347"/>
<polygon fill="midnightblue" stroke="midnightblue" points="1262.46,-191.757 1271.8,-186.745 1261.38,-184.842 1262.46,-191.757"/>
</g>
<!-- Node10 -->
<g id="node10" class="node"><title>Node10</title>
<polygon fill="none" stroke="#bfbfbf" points="1388.5,-168.5 1388.5,-187.5 1505.5,-187.5 1505.5,-168.5 1388.5,-168.5"/>
<text text-anchor="middle" x="1447" y="-175.5" font-family="Helvetica,sans-Serif" font-size="10.00">Headers/DataHeader.h</text>
</g>
<!-- Node1&#45;&gt;Node10 -->
<g id="edge9" class="edge"><title>Node1&#45;&gt;Node10</title>
<path fill="none" stroke="midnightblue" d="M1009.52,-231.136C1092.97,-221.821 1240.74,-205.076 1378.11,-188.092"/>
<polygon fill="midnightblue" stroke="midnightblue" points="1378.91,-191.52 1388.4,-186.817 1378.05,-184.573 1378.91,-191.52"/>
</g>
<!-- Node11 -->
<g id="node11" class="node"><title>Node11</title>
<polygon fill="none" stroke="#bfbfbf" points="1523.5,-168.5 1523.5,-187.5 1674.5,-187.5 1674.5,-168.5 1523.5,-168.5"/>
<text text-anchor="middle" x="1599" y="-175.5" font-family="Helvetica,sans-Serif" font-size="10.00">Monitoring/MonitoringFactory.h</text>
</g>
<!-- Node1&#45;&gt;Node11 -->
<g id="edge10" class="edge"><title>Node1&#45;&gt;Node11</title>
<path fill="none" stroke="midnightblue" d="M1009.53,-233.032C1114.35,-224.327 1324.63,-206.503 1513.34,-188.148"/>
<polygon fill="midnightblue" stroke="midnightblue" points="1513.84,-191.616 1523.45,-187.162 1513.16,-184.649 1513.84,-191.616"/>
</g>
<!-- Node12 -->
<g id="node12" class="node"><title>Node12</title>
<polygon fill="none" stroke="#bfbfbf" points="984,-112.5 984,-131.5 1148,-131.5 1148,-112.5 984,-112.5"/>
<text text-anchor="middle" x="1066" y="-119.5" font-family="Helvetica,sans-Serif" font-size="10.00">Framework/DataProcessorSpec.h</text>
</g>
<!-- Node1&#45;&gt;Node12 -->
<g id="edge11" class="edge"><title>Node1&#45;&gt;Node12</title>
<path fill="none" stroke="midnightblue" d="M948.986,-224.336C956.037,-208.967 968.981,-184.429 986,-168 1000.05,-154.436 1018.99,-143.545 1034.91,-135.877"/>
<polygon fill="midnightblue" stroke="midnightblue" points="1036.74,-138.886 1044.36,-131.524 1033.81,-132.528 1036.74,-138.886"/>
</g>
<!-- Node13 -->
<g id="node13" class="node"><title>Node13</title>
<g id="a_node13"><a xlink:href="CheckInterface_8h.html" target="_top" xlink:title="QualityControl/CheckInterface.h">
<polygon fill="none" stroke="black" points="388.5,-112.5 388.5,-131.5 545.5,-131.5 545.5,-112.5 388.5,-112.5"/>
<text text-anchor="middle" x="467" y="-119.5" font-family="Helvetica,sans-Serif" font-size="10.00">QualityControl/CheckInterface.h</text>
</a>
</g>
</g>
<!-- Node1&#45;&gt;Node13 -->
<g id="edge12" class="edge"><title>Node1&#45;&gt;Node13</title>
<path fill="none" stroke="midnightblue" d="M885.109,-224.453C789.063,-201.148 598.776,-154.975 512.011,-133.922"/>
<polygon fill="midnightblue" stroke="midnightblue" points="512.748,-130.499 502.205,-131.542 511.097,-137.302 512.748,-130.499"/>
</g>
<!-- Node15 -->
<g id="node15" class="node"><title>Node15</title>
<g id="a_node15"><a xlink:href="MonitorObject_8h.html" target="_top" xlink:title="QualityControl/MonitorObject.h">
<polygon fill="none" stroke="black" points="273.5,-56.5 273.5,-75.5 424.5,-75.5 424.5,-56.5 273.5,-56.5"/>
<text text-anchor="middle" x="349" y="-63.5" font-family="Helvetica,sans-Serif" font-size="10.00">QualityControl/MonitorObject.h</text>
</a>
</g>
</g>
<!-- Node1&#45;&gt;Node15 -->
<g id="edge37" class="edge"><title>Node1&#45;&gt;Node15</title>
<path fill="none" stroke="midnightblue" d="M876.335,-238.085C725.895,-236.436 364.271,-228.271 250,-188 208.722,-173.453 189.325,-170.76 169,-132 146.766,-89.5989 206.593,-74.3371 263.144,-69.0963"/>
<polygon fill="midnightblue" stroke="midnightblue" points="263.6,-72.5707 273.277,-68.257 263.022,-65.5946 263.6,-72.5707"/>
</g>
<!-- Node19 -->
<g id="node19" class="node"><title>Node19</title>
<g id="a_node19"><a xlink:href="DatabaseInterface_8h.html" target="_top" xlink:title="QualityControl/DatabaseInterface.h">
<polygon fill="none" stroke="black" points="259,-168.5 259,-187.5 429,-187.5 429,-168.5 259,-168.5"/>
<text text-anchor="middle" x="344" y="-175.5" font-family="Helvetica,sans-Serif" font-size="10.00">QualityControl/DatabaseInterface.h</text>
</a>
</g>
</g>
<!-- Node1&#45;&gt;Node19 -->
<g id="edge25" class="edge"><title>Node1&#45;&gt;Node19</title>
<path fill="none" stroke="midnightblue" d="M876.32,-231.876C769.912,-221.307 561.293,-200.584 439.207,-188.457"/>
<polygon fill="midnightblue" stroke="midnightblue" points="439.416,-184.961 429.119,-187.455 438.724,-191.927 439.416,-184.961"/>
</g>
<!-- Node23 -->
<g id="node23" class="node"><title>Node23</title>
<g id="a_node23"><a xlink:href="QcInfoLogger_8h.html" target="_top" xlink:title="QualityControl/QcInfoLogger.h">
<polygon fill="none" stroke="black" points="1203.5,-112.5 1203.5,-131.5 1352.5,-131.5 1352.5,-112.5 1203.5,-112.5"/>
<text text-anchor="middle" x="1278" y="-119.5" font-family="Helvetica,sans-Serif" font-size="10.00">QualityControl/QcInfoLogger.h</text>
</a>
</g>
</g>
<!-- Node1&#45;&gt;Node23 -->
<g id="edge38" class="edge"><title>Node1&#45;&gt;Node23</title>
<path fill="none" stroke="midnightblue" d="M961.267,-224.342C982.918,-208.265 1020.66,-182.405 1057,-168 1100.47,-150.77 1151.48,-139.822 1193.53,-133.045"/>
<polygon fill="midnightblue" stroke="midnightblue" points="1194.12,-136.495 1203.46,-131.495 1193.04,-129.579 1194.12,-136.495"/>
</g>
<!-- Node25 -->
<g id="node25" class="node"><title>Node25</title>
<g id="a_node25"><a xlink:href="Check_8h_source.html" target="_top" xlink:title="QualityControl/Check.h">
<polygon fill="none" stroke="black" points="756.5,-168.5 756.5,-187.5 875.5,-187.5 875.5,-168.5 756.5,-168.5"/>
<text text-anchor="middle" x="816" y="-175.5" font-family="Helvetica,sans-Serif" font-size="10.00">QualityControl/Check.h</text>
</a>
</g>
</g>
<!-- Node1&#45;&gt;Node25 -->
<g id="edge40" class="edge"><title>Node1&#45;&gt;Node25</title>
<path fill="none" stroke="midnightblue" d="M912.903,-224.399C891.88,-214.55 864.028,-201.501 843.581,-191.922"/>
<polygon fill="midnightblue" stroke="midnightblue" points="845.02,-188.731 834.48,-187.658 842.05,-195.07 845.02,-188.731"/>
</g>
<!-- Node13&#45;&gt;Node4 -->
<g id="edge13" class="edge"><title>Node13&#45;&gt;Node4</title>
<path fill="none" stroke="midnightblue" d="M403.749,-112.488C350.811,-104.467 280.162,-91.4016 256,-76 237.991,-64.5204 224.168,-43.9424 215.865,-29.0087"/>
<polygon fill="midnightblue" stroke="midnightblue" points="218.757,-26.9861 211.016,-19.7529 212.557,-30.235 218.757,-26.9861"/>
</g>
<!-- Node13&#45;&gt;Node5 -->
<g id="edge14" class="edge"><title>Node13&#45;&gt;Node5</title>
<path fill="none" stroke="midnightblue" d="M491.145,-112.46C548.212,-92.2753 691.108,-41.7336 750.961,-20.5635"/>
<polygon fill="midnightblue" stroke="midnightblue" points="752.222,-23.8301 760.483,-17.1958 749.888,-17.2307 752.222,-23.8301"/>
</g>
<!-- Node14 -->
<g id="node14" class="node"><title>Node14</title>
<polygon fill="none" stroke="#bfbfbf" points="321,-0.5 321,-19.5 377,-19.5 377,-0.5 321,-0.5"/>
<text text-anchor="middle" x="349" y="-7.5" font-family="Helvetica,sans-Serif" font-size="10.00">Rtypes.h</text>
</g>
<!-- Node13&#45;&gt;Node14 -->
<g id="edge15" class="edge"><title>Node13&#45;&gt;Node14</title>
<path fill="none" stroke="midnightblue" d="M412.333,-112.472C355.452,-103.043 273.349,-87.6481 264,-76 246.005,-53.5796 280.827,-34.5132 311.186,-22.9386"/>
<polygon fill="midnightblue" stroke="midnightblue" points="312.604,-26.1473 320.813,-19.4491 310.219,-19.5663 312.604,-26.1473"/>
</g>
<!-- Node13&#45;&gt;Node15 -->
<g id="edge16" class="edge"><title>Node13&#45;&gt;Node15</title>
<path fill="none" stroke="midnightblue" d="M448.303,-112.444C429.056,-103.636 398.848,-89.8116 376.8,-79.722"/>
<polygon fill="midnightblue" stroke="midnightblue" points="378.16,-76.4951 367.61,-75.5164 375.247,-82.8603 378.16,-76.4951"/>
</g>
<!-- Node18 -->
<g id="node18" class="node"><title>Node18</title>
<g id="a_node18"><a xlink:href="Quality_8h.html" target="_top" xlink:title="QualityControl/Quality.h">
<polygon fill="none" stroke="black" points="442.5,-56.5 442.5,-75.5 563.5,-75.5 563.5,-56.5 442.5,-56.5"/>
<text text-anchor="middle" x="503" y="-63.5" font-family="Helvetica,sans-Serif" font-size="10.00">QualityControl/Quality.h</text>
</a>
</g>
</g>
<!-- Node13&#45;&gt;Node18 -->
<g id="edge22" class="edge"><title>Node13&#45;&gt;Node18</title>
<path fill="none" stroke="midnightblue" d="M472.945,-112.083C477.977,-104.534 485.337,-93.4948 491.513,-84.2298"/>
<polygon fill="midnightblue" stroke="midnightblue" points="494.531,-86.0131 497.166,-75.7511 488.707,-82.1301 494.531,-86.0131"/>
</g>
<!-- Node15&#45;&gt;Node4 -->
<g id="edge17" class="edge"><title>Node15&#45;&gt;Node4</title>
<path fill="none" stroke="midnightblue" d="M326.5,-56.4435C302.368,-47.2666 263.917,-32.6446 237.173,-22.4744"/>
<polygon fill="midnightblue" stroke="midnightblue" points="238.142,-19.0982 227.551,-18.8151 235.654,-25.6411 238.142,-19.0982"/>
</g>
<!-- Node15&#45;&gt;Node5 -->
<g id="edge18" class="edge"><title>Node15&#45;&gt;Node5</title>
<path fill="none" stroke="midnightblue" d="M416.976,-56.4435C512.764,-44.3863 683.226,-22.9296 750.038,-14.5197"/>
<polygon fill="midnightblue" stroke="midnightblue" points="750.717,-17.9619 760.201,-13.2404 749.843,-11.0167 750.717,-17.9619"/>
</g>
<!-- Node15&#45;&gt;Node14 -->
<g id="edge19" class="edge"><title>Node15&#45;&gt;Node14</title>
<path fill="none" stroke="midnightblue" d="M349,-56.083C349,-49.0059 349,-38.8611 349,-29.9865"/>
<polygon fill="midnightblue" stroke="midnightblue" points="352.5,-29.751 349,-19.7511 345.5,-29.7511 352.5,-29.751"/>
</g>
<!-- Node16 -->
<g id="node16" class="node"><title>Node16</title>
<polygon fill="none" stroke="#bfbfbf" points="582.5,-0.5 582.5,-19.5 641.5,-19.5 641.5,-0.5 582.5,-0.5"/>
<text text-anchor="middle" x="612" y="-7.5" font-family="Helvetica,sans-Serif" font-size="10.00">TObject.h</text>
</g>
<!-- Node15&#45;&gt;Node16 -->
<g id="edge20" class="edge"><title>Node15&#45;&gt;Node16</title>
<path fill="none" stroke="midnightblue" d="M390.673,-56.4435C440.57,-46.1985 523.52,-29.1669 572.455,-19.1195"/>
<polygon fill="midnightblue" stroke="midnightblue" points="573.265,-22.5263 582.357,-17.0865 571.857,-15.6693 573.265,-22.5263"/>
</g>
<!-- Node17 -->
<g id="node17" class="node"><title>Node17</title>
<polygon fill="none" stroke="#bfbfbf" points="413,-0.5 413,-19.5 529,-19.5 529,-0.5 413,-0.5"/>
<text text-anchor="middle" x="471" y="-7.5" font-family="Helvetica,sans-Serif" font-size="10.00">Common/Exceptions.h</text>
</g>
<!-- Node15&#45;&gt;Node17 -->
<g id="edge21" class="edge"><title>Node15&#45;&gt;Node17</title>
<path fill="none" stroke="midnightblue" d="M368.331,-56.4435C388.32,-47.5961 419.743,-33.6875 442.564,-23.5865"/>
<polygon fill="midnightblue" stroke="midnightblue" points="444.032,-26.7645 451.759,-19.5164 441.198,-20.3635 444.032,-26.7645"/>
</g>
<!-- Node18&#45;&gt;Node4 -->
<g id="edge24" class="edge"><title>Node18&#45;&gt;Node4</title>
<path fill="none" stroke="midnightblue" d="M456.098,-56.4435C394.942,-45.2867 289.67,-26.0817 237.766,-16.6127"/>
<polygon fill="midnightblue" stroke="midnightblue" points="238.296,-13.1516 227.83,-14.8 237.039,-20.038 238.296,-13.1516"/>
</g>
<!-- Node18&#45;&gt;Node14 -->
<g id="edge23" class="edge"><title>Node18&#45;&gt;Node14</title>
<path fill="none" stroke="midnightblue" d="M478.598,-56.4435C452.803,-47.3986 411.923,-33.064 382.982,-22.9158"/>
<polygon fill="midnightblue" stroke="midnightblue" points="383.882,-19.5226 373.288,-19.5164 381.566,-26.1283 383.882,-19.5226"/>
</g>
<!-- Node19&#45;&gt;Node3 -->
<g id="edge27" class="edge"><title>Node19&#45;&gt;Node3</title>
<path fill="none" stroke="midnightblue" d="M344,-168.083C344,-161.006 344,-150.861 344,-141.986"/>
<polygon fill="midnightblue" stroke="midnightblue" points="347.5,-141.751 344,-131.751 340.5,-141.751 347.5,-141.751"/>
</g>
<!-- Node19&#45;&gt;Node4 -->
<g id="edge26" class="edge"><title>Node19&#45;&gt;Node4</title>
<path fill="none" stroke="midnightblue" d="M277.988,-168.497C234.264,-161.354 182.552,-149.478 169,-132 144.486,-100.385 173.909,-52.6982 193.056,-27.6766"/>
<polygon fill="midnightblue" stroke="midnightblue" points="196.032,-29.5575 199.526,-19.5553 190.558,-25.1955 196.032,-29.5575"/>
</g>
<!-- Node19&#45;&gt;Node6 -->
<g id="edge28" class="edge"><title>Node19&#45;&gt;Node6</title>
<path fill="none" stroke="midnightblue" d="M429.05,-175.66C538.822,-172.727 735.669,-163.394 911.811,-131.852"/>
<polygon fill="midnightblue" stroke="midnightblue" points="912.566,-135.272 921.779,-130.039 911.314,-128.385 912.566,-135.272"/>
</g>
<!-- Node19&#45;&gt;Node15 -->
<g id="edge36" class="edge"><title>Node19&#45;&gt;Node15</title>
<path fill="none" stroke="midnightblue" d="M333.534,-168.102C320.533,-155.901 300.984,-133.085 309,-112 313.335,-100.598 322.031,-90.2394 330.21,-82.343"/>
<polygon fill="midnightblue" stroke="midnightblue" points="332.642,-84.8633 337.734,-75.5728 327.959,-79.6595 332.642,-84.8633"/>
</g>
<!-- Node20 -->
<g id="node20" class="node"><title>Node20</title>
<polygon fill="none" stroke="#bfbfbf" points="178.5,-112.5 178.5,-131.5 261.5,-131.5 261.5,-112.5 178.5,-112.5"/>
<text text-anchor="middle" x="220" y="-119.5" font-family="Helvetica,sans-Serif" font-size="10.00">unordered_map</text>
</g>
<!-- Node19&#45;&gt;Node20 -->
<g id="edge29" class="edge"><title>Node19&#45;&gt;Node20</title>
<path fill="none" stroke="midnightblue" d="M324.352,-168.444C304.035,-159.596 272.097,-145.687 248.902,-135.586"/>
<polygon fill="midnightblue" stroke="midnightblue" points="250.122,-132.3 239.556,-131.516 247.327,-138.718 250.122,-132.3"/>
</g>
<!-- Node21 -->
<g id="node21" class="node"><title>Node21</title>
<g id="a_node21"><a xlink:href="QualityObject_8h_source.html" target="_top" xlink:title="QualityControl/QualityObject.h">
<polygon fill="none" stroke="black" points="639.5,-112.5 639.5,-131.5 788.5,-131.5 788.5,-112.5 639.5,-112.5"/>
<text text-anchor="middle" x="714" y="-119.5" font-family="Helvetica,sans-Serif" font-size="10.00">QualityControl/QualityObject.h</text>
</a>
</g>
</g>
<!-- Node19&#45;&gt;Node21 -->
<g id="edge30" class="edge"><title>Node19&#45;&gt;Node21</title>
<path fill="none" stroke="midnightblue" d="M402.628,-168.444C468.662,-158.806 575.843,-143.163 645.631,-132.978"/>
<polygon fill="midnightblue" stroke="midnightblue" points="646.257,-136.424 655.647,-131.516 645.246,-129.497 646.257,-136.424"/>
</g>
<!-- Node21&#45;&gt;Node5 -->
<g id="edge32" class="edge"><title>Node21&#45;&gt;Node5</title>
<path fill="none" stroke="midnightblue" d="M725.608,-112.233C735.804,-103.949 750.327,-90.6382 759,-76 767.521,-61.618 772.438,-43.1602 775.126,-29.5908"/>
<polygon fill="midnightblue" stroke="midnightblue" points="778.609,-29.9935 776.889,-19.5391 771.714,-28.7839 778.609,-29.9935"/>
</g>
<!-- Node21&#45;&gt;Node16 -->
<g id="edge33" class="edge"><title>Node21&#45;&gt;Node16</title>
<path fill="none" stroke="midnightblue" d="M705.996,-112.368C688.94,-93.9744 648.786,-50.6712 626.884,-27.0519"/>
<polygon fill="midnightblue" stroke="midnightblue" points="629.332,-24.5443 619.967,-19.5914 624.2,-29.3039 629.332,-24.5443"/>
</g>
<!-- Node21&#45;&gt;Node17 -->
<g id="edge34" class="edge"><title>Node21&#45;&gt;Node17</title>
<path fill="none" stroke="midnightblue" d="M695.193,-112.318C668.032,-99.7956 616.23,-75.9758 572,-56 547.644,-45 519.908,-32.6556 499.672,-23.6823"/>
<polygon fill="midnightblue" stroke="midnightblue" points="500.949,-20.4198 490.388,-19.5686 498.113,-26.8197 500.949,-20.4198"/>
</g>
<!-- Node21&#45;&gt;Node18 -->
<g id="edge35" class="edge"><title>Node21&#45;&gt;Node18</title>
<path fill="none" stroke="midnightblue" d="M680.566,-112.444C644.144,-103.122 585.77,-88.1828 545.971,-77.9972"/>
<polygon fill="midnightblue" stroke="midnightblue" points="546.833,-74.6051 536.277,-75.5164 545.097,-81.3866 546.833,-74.6051"/>
</g>
<!-- Node22 -->
<g id="node22" class="node"><title>Node22</title>
<polygon fill="none" stroke="#bfbfbf" points="696,-56.5 696,-75.5 750,-75.5 750,-56.5 696,-56.5"/>
<text text-anchor="middle" x="723" y="-63.5" font-family="Helvetica,sans-Serif" font-size="10.00">iostream</text>
</g>
<!-- Node21&#45;&gt;Node22 -->
<g id="edge31" class="edge"><title>Node21&#45;&gt;Node22</title>
<path fill="none" stroke="midnightblue" d="M715.486,-112.083C716.679,-104.927 718.394,-94.6353 719.885,-85.6911"/>
<polygon fill="midnightblue" stroke="midnightblue" points="723.35,-86.1904 721.541,-75.7511 716.445,-85.0396 723.35,-86.1904"/>
</g>
<!-- Node24 -->
<g id="node24" class="node"><title>Node24</title>
<polygon fill="none" stroke="#bfbfbf" points="1213,-56.5 1213,-75.5 1343,-75.5 1343,-56.5 1213,-56.5"/>
<text text-anchor="middle" x="1278" y="-63.5" font-family="Helvetica,sans-Serif" font-size="10.00">InfoLogger/InfoLogger.hxx</text>
</g>
<!-- Node23&#45;&gt;Node24 -->
<g id="edge39" class="edge"><title>Node23&#45;&gt;Node24</title>
<path fill="none" stroke="midnightblue" d="M1278,-112.083C1278,-105.006 1278,-94.8611 1278,-85.9865"/>
<polygon fill="midnightblue" stroke="midnightblue" points="1281.5,-85.751 1278,-75.7511 1274.5,-85.7511 1281.5,-85.751"/>
</g>
<!-- Node25&#45;&gt;Node3 -->
<g id="edge44" class="edge"><title>Node25&#45;&gt;Node3</title>
<path fill="none" stroke="midnightblue" d="M756.233,-173.676C673.686,-168.46 520.05,-156.502 380.316,-131.992"/>
<polygon fill="midnightblue" stroke="midnightblue" points="380.74,-128.513 370.281,-130.206 379.513,-135.404 380.74,-128.513"/>
</g>
<!-- Node25&#45;&gt;Node5 -->
<g id="edge42" class="edge"><title>Node25&#45;&gt;Node5</title>
<path fill="none" stroke="midnightblue" d="M813.957,-168.075C807.975,-141.945 790.41,-65.2106 782.253,-29.577"/>
<polygon fill="midnightblue" stroke="midnightblue" points="785.605,-28.5349 779.961,-19.5681 778.781,-30.097 785.605,-28.5349"/>
</g>
<!-- Node25&#45;&gt;Node6 -->
<g id="edge43" class="edge"><title>Node25&#45;&gt;Node6</title>
<path fill="none" stroke="midnightblue" d="M836.282,-168.444C857.347,-159.557 890.517,-145.563 914.486,-135.451"/>
<polygon fill="midnightblue" stroke="midnightblue" points="915.96,-138.628 923.813,-131.516 913.239,-132.179 915.96,-138.628"/>
</g>
<!-- Node25&#45;&gt;Node12 -->
<g id="edge45" class="edge"><title>Node25&#45;&gt;Node12</title>
<path fill="none" stroke="midnightblue" d="M855.613,-168.444C899.225,-159.023 969.4,-143.866 1016.58,-133.675"/>
<polygon fill="midnightblue" stroke="midnightblue" points="1017.54,-137.049 1026.57,-131.516 1016.06,-130.207 1017.54,-137.049"/>
</g>
<!-- Node25&#45;&gt;Node13 -->
<g id="edge49" class="edge"><title>Node25&#45;&gt;Node13</title>
<path fill="none" stroke="midnightblue" d="M760.7,-168.444C698.669,-158.846 598.144,-143.292 532.3,-133.104"/>
<polygon fill="midnightblue" stroke="midnightblue" points="532.459,-129.587 522.041,-131.516 531.389,-136.504 532.459,-129.587"/>
</g>
<!-- Node25&#45;&gt;Node15 -->
<g id="edge48" class="edge"><title>Node25&#45;&gt;Node15</title>
<path fill="none" stroke="midnightblue" d="M756.387,-170.809C709.477,-164.626 643.062,-152.933 588,-132 571.613,-125.77 570.32,-118.403 554,-112 511.629,-95.3752 461.799,-84.2603 421.877,-77.2365"/>
<polygon fill="midnightblue" stroke="midnightblue" points="422.399,-73.7749 411.951,-75.538 421.218,-80.6746 422.399,-73.7749"/>
</g>
<!-- Node25&#45;&gt;Node18 -->
<g id="edge46" class="edge"><title>Node25&#45;&gt;Node18</title>
<path fill="none" stroke="midnightblue" d="M767.286,-168.482C729.21,-161.05 675.322,-148.812 630,-132 619.652,-128.161 562.147,-98.1577 528.169,-80.2851"/>
<polygon fill="midnightblue" stroke="midnightblue" points="529.747,-77.1604 519.268,-75.5976 526.485,-83.3541 529.747,-77.1604"/>
</g>
<!-- Node25&#45;&gt;Node21 -->
<g id="edge47" class="edge"><title>Node25&#45;&gt;Node21</title>
<path fill="none" stroke="midnightblue" d="M799.612,-168.324C783.329,-159.703 758.133,-146.364 739.284,-136.386"/>
<polygon fill="midnightblue" stroke="midnightblue" points="740.823,-133.24 730.347,-131.655 737.548,-139.427 740.823,-133.24"/>
</g>
<!-- Node25&#45;&gt;Node23 -->
<g id="edge50" class="edge"><title>Node25&#45;&gt;Node23</title>
<path fill="none" stroke="midnightblue" d="M875.925,-169.996C957.349,-160.479 1103.29,-143.421 1195.15,-132.683"/>
<polygon fill="midnightblue" stroke="midnightblue" points="1195.72,-136.141 1205.25,-131.503 1194.91,-129.188 1195.72,-136.141"/>
</g>
<!-- Node26 -->
<g id="node26" class="node"><title>Node26</title>
<polygon fill="none" stroke="#bfbfbf" points="844.5,-112.5 844.5,-131.5 903.5,-131.5 903.5,-112.5 844.5,-112.5"/>
<text text-anchor="middle" x="874" y="-119.5" font-family="Helvetica,sans-Serif" font-size="10.00">functional</text>
</g>
<!-- Node25&#45;&gt;Node26 -->
<g id="edge41" class="edge"><title>Node25&#45;&gt;Node26</title>
<path fill="none" stroke="midnightblue" d="M825.319,-168.324C833.893,-160.341 846.812,-148.313 857.188,-138.653"/>
<polygon fill="midnightblue" stroke="midnightblue" points="859.578,-141.21 864.512,-131.834 854.808,-136.086 859.578,-141.21"/>
</g>
</g>
</svg>
