<?xml version="1.0" encoding="UTF-8" standalone="no"?>
<!DOCTYPE svg PUBLIC "-//W3C//DTD SVG 1.1//EN"
 "http://www.w3.org/Graphics/SVG/1.1/DTD/svg11.dtd">
<!-- Generated by graphviz version 2.38.0 (20140413.2041)
 -->
<!-- Title: Framework/include/QualityControl/CheckInterface.h Pages: 1 -->
<svg width="474pt" height="151pt"
 viewBox="0.00 0.00 474.35 151.00" xmlns="http://www.w3.org/2000/svg" xmlns:xlink="http://www.w3.org/1999/xlink">
<g id="graph0" class="graph" transform="scale(1 1) rotate(0) translate(4 147)">
<title>Framework/include/QualityControl/CheckInterface.h</title>
<!-- Node1 -->
<g id="node1" class="node"><title>Node1</title>
<polygon fill="#bfbfbf" stroke="black" points="96.8504,-112.5 96.8504,-142.5 229.85,-142.5 229.85,-112.5 96.8504,-112.5"/>
<text text-anchor="start" x="104.85" y="-130.5" font-family="Helvetica,sans-Serif" font-size="10.00">Framework/include/Quality</text>
<text text-anchor="middle" x="163.35" y="-119.5" font-family="Helvetica,sans-Serif" font-size="10.00">Control/CheckInterface.h</text>
</g>
<!-- Node2 -->
<g id="node2" class="node"><title>Node2</title>
<polygon fill="none" stroke="#bfbfbf" points="53.8504,-0.5 53.8504,-19.5 94.8504,-19.5 94.8504,-0.5 53.8504,-0.5"/>
<text text-anchor="middle" x="74.3504" y="-7.5" font-family="Helvetica,sans-Serif" font-size="10.00">string</text>
</g>
<!-- Node1&#45;&gt;Node2 -->
<g id="edge1" class="edge"><title>Node1&#45;&gt;Node2</title>
<path fill="none" stroke="midnightblue" d="M96.6334,-123.119C63.2176,-117.636 25.4708,-104.868 4.35041,-76 -11.0186,-54.9931 18.7683,-35.3126 44.1192,-23.2279"/>
<polygon fill="midnightblue" stroke="midnightblue" points="45.8437,-26.2894 53.5146,-18.9813 42.9606,-19.9107 45.8437,-26.2894"/>
</g>
<!-- Node3 -->
<g id="node3" class="node"><title>Node3</title>
<polygon fill="none" stroke="#bfbfbf" points="145.85,-0.5 145.85,-19.5 180.85,-19.5 180.85,-0.5 145.85,-0.5"/>
<text text-anchor="middle" x="163.35" y="-7.5" font-family="Helvetica,sans-Serif" font-size="10.00">map</text>
</g>
<!-- Node1&#45;&gt;Node3 -->
<g id="edge2" class="edge"><title>Node1&#45;&gt;Node3</title>
<path fill="none" stroke="midnightblue" d="M163.35,-112.337C163.35,-91.6217 163.35,-53.0162 163.35,-29.8991"/>
<polygon fill="midnightblue" stroke="midnightblue" points="166.851,-29.6694 163.35,-19.6695 159.851,-29.6695 166.851,-29.6694"/>
</g>
<!-- Node4 -->
<g id="node4" class="node"><title>Node4</title>
<polygon fill="none" stroke="#bfbfbf" points="276.35,-0.5 276.35,-19.5 332.35,-19.5 332.35,-0.5 276.35,-0.5"/>
<text text-anchor="middle" x="304.35" y="-7.5" font-family="Helvetica,sans-Serif" font-size="10.00">Rtypes.h</text>
</g>
<!-- Node1&#45;&gt;Node4 -->
<g id="edge3" class="edge"><title>Node1&#45;&gt;Node4</title>
<path fill="none" stroke="midnightblue" d="M230.18,-117.35C278.306,-109.231 337.302,-95.5973 352.35,-76 365.493,-58.8846 345.51,-38.8687 327.465,-25.6178"/>
<polygon fill="midnightblue" stroke="midnightblue" points="329.13,-22.5137 318.916,-19.6987 325.146,-28.2688 329.13,-22.5137"/>
</g>
<!-- Node5 -->
<g id="node5" class="node"><title>Node5</title>
<g id="a_node5"><a xlink:href="MonitorObject_8h.html" target="_top" xlink:title="QualityControl/MonitorObject.h">
<polygon fill="none" stroke="black" points="191.85,-56.5 191.85,-75.5 342.85,-75.5 342.85,-56.5 191.85,-56.5"/>
<text text-anchor="middle" x="267.35" y="-63.5" font-family="Helvetica,sans-Serif" font-size="10.00">QualityControl/MonitorObject.h</text>
</a>
</g>
</g>
<!-- Node1&#45;&gt;Node5 -->
<g id="edge4" class="edge"><title>Node1&#45;&gt;Node5</title>
<path fill="none" stroke="midnightblue" d="M187.997,-112.399C204.667,-102.862 226.581,-90.3248 243.156,-80.8422"/>
<polygon fill="midnightblue" stroke="midnightblue" points="245.276,-83.6617 252.217,-75.6578 241.8,-77.5858 245.276,-83.6617"/>
</g>
<!-- Node8 -->
<g id="node8" class="node"><title>Node8</title>
<g id="a_node8"><a xlink:href="Quality_8h.html" target="_top" xlink:title="QualityControl/Quality.h">
<polygon fill="none" stroke="black" points="13.8504,-56.5 13.8504,-75.5 134.85,-75.5 134.85,-56.5 13.8504,-56.5"/>
<text text-anchor="middle" x="74.3504" y="-63.5" font-family="Helvetica,sans-Serif" font-size="10.00">QualityControl/Quality.h</text>
</a>
</g>
</g>
<!-- Node1&#45;&gt;Node8 -->
<g id="edge10" class="edge"><title>Node1&#45;&gt;Node8</title>
<path fill="none" stroke="midnightblue" d="M142.259,-112.399C128.259,-103.04 109.939,-90.7924 95.8557,-81.3771"/>
<polygon fill="midnightblue" stroke="midnightblue" points="97.5593,-78.3059 87.3007,-75.6578 93.6688,-84.1253 97.5593,-78.3059"/>
</g>
<!-- Node5&#45;&gt;Node2 -->
<g id="edge5" class="edge"><title>Node5&#45;&gt;Node2</title>
<path fill="none" stroke="midnightblue" d="M236.769,-56.4435C200.685,-46.3474 141.045,-29.6606 104.952,-19.562"/>
<polygon fill="midnightblue" stroke="midnightblue" points="105.57,-16.1007 94.9969,-16.7767 103.684,-22.8418 105.57,-16.1007"/>
</g>
<!-- Node5&#45;&gt;Node3 -->
<g id="edge6" class="edge"><title>Node5&#45;&gt;Node3</title>
<path fill="none" stroke="midnightblue" d="M250.641,-56.324C234.038,-47.7034 208.348,-34.3643 189.13,-24.3855"/>
<polygon fill="midnightblue" stroke="midnightblue" points="190.506,-21.1565 180.018,-19.6545 187.28,-27.3689 190.506,-21.1565"/>
</g>
<!-- Node5&#45;&gt;Node4 -->
<g id="edge7" class="edge"><title>Node5&#45;&gt;Node4</title>
<path fill="none" stroke="midnightblue" d="M273.46,-56.083C278.633,-48.5341 286.197,-37.4948 292.545,-28.2298"/>
<polygon fill="midnightblue" stroke="midnightblue" points="295.589,-29.9787 298.354,-19.7511 289.815,-26.0221 295.589,-29.9787"/>
</g>
<!-- Node6 -->
<g id="node6" class="node"><title>Node6</title>
<polygon fill="none" stroke="#bfbfbf" points="198.85,-0.5 198.85,-19.5 257.85,-19.5 257.85,-0.5 198.85,-0.5"/>
<text text-anchor="middle" x="228.35" y="-7.5" font-family="Helvetica,sans-Serif" font-size="10.00">TObject.h</text>
</g>
<!-- Node5&#45;&gt;Node6 -->
<g id="edge8" class="edge"><title>Node5&#45;&gt;Node6</title>
<path fill="none" stroke="midnightblue" d="M260.91,-56.083C255.402,-48.4554 247.319,-37.2645 240.585,-27.9408"/>
<polygon fill="midnightblue" stroke="midnightblue" points="243.363,-25.8087 234.671,-19.7511 237.688,-29.9071 243.363,-25.8087"/>
</g>
<!-- Node7 -->
<g id="node7" class="node"><title>Node7</title>
<polygon fill="none" stroke="#bfbfbf" points="350.35,-0.5 350.35,-19.5 466.35,-19.5 466.35,-0.5 350.35,-0.5"/>
<text text-anchor="middle" x="408.35" y="-7.5" font-family="Helvetica,sans-Serif" font-size="10.00">Common/Exceptions.h</text>
</g>
<!-- Node5&#45;&gt;Node7 -->
<g id="edge9" class="edge"><title>Node5&#45;&gt;Node7</title>
<path fill="none" stroke="midnightblue" d="M289.692,-56.4435C313.103,-47.4776 350.086,-33.314 376.54,-23.1827"/>
<polygon fill="midnightblue" stroke="midnightblue" points="378.026,-26.3615 386.113,-19.5164 375.523,-19.8245 378.026,-26.3615"/>
</g>
<!-- Node8&#45;&gt;Node2 -->
<g id="edge12" class="edge"><title>Node8&#45;&gt;Node2</title>
<path fill="none" stroke="midnightblue" d="M74.3504,-56.083C74.3504,-49.0059 74.3504,-38.8611 74.3504,-29.9865"/>
<polygon fill="midnightblue" stroke="midnightblue" points="77.8505,-29.751 74.3504,-19.7511 70.8505,-29.7511 77.8505,-29.751"/>
</g>
<!-- Node8&#45;&gt;Node4 -->
<g id="edge11" class="edge"><title>Node8&#45;&gt;Node4</title>
<path fill="none" stroke="midnightblue" d="M111.374,-56.4779C148.195,-47.978 206.565,-34.4382 266.121,-20.2772"/>
<polygon fill="midnightblue" stroke="midnightblue" points="267.158,-23.6282 276.075,-17.9071 265.537,-16.8186 267.158,-23.6282"/>
</g>
</g>
</svg>
