<?xml version="1.0" encoding="UTF-8" standalone="no"?>
<!DOCTYPE svg PUBLIC "-//W3C//DTD SVG 1.1//EN"
 "http://www.w3.org/Graphics/SVG/1.1/DTD/svg11.dtd">
<!-- Generated by graphviz version 2.38.0 (20140413.2041)
 -->
<!-- Title: Framework/include/QualityControl/CheckRunnerFactory.h Pages: 1 -->
<svg width="1077pt" height="263pt"
 viewBox="0.00 0.00 1076.53 263.00" xmlns="http://www.w3.org/2000/svg" xmlns:xlink="http://www.w3.org/1999/xlink">
<g id="graph0" class="graph" transform="scale(1 1) rotate(0) translate(4 259)">
<title>Framework/include/QualityControl/CheckRunnerFactory.h</title>
<!-- Node1 -->
<g id="node1" class="node"><title>Node1</title>
<polygon fill="#bfbfbf" stroke="black" points="487.528,-224.5 487.528,-254.5 639.528,-254.5 639.528,-224.5 487.528,-224.5"/>
<text text-anchor="start" x="495.528" y="-242.5" font-family="Helvetica,sans-Serif" font-size="10.00">Framework/include/Quality</text>
<text text-anchor="middle" x="563.528" y="-231.5" font-family="Helvetica,sans-Serif" font-size="10.00">Control/CheckRunnerFactory.h</text>
</g>
<!-- Node2 -->
<g id="node2" class="node"><title>Node2</title>
<polygon fill="none" stroke="#bfbfbf" points="16.0282,-0.5 16.0282,-19.5 57.0282,-19.5 57.0282,-0.5 16.0282,-0.5"/>
<text text-anchor="middle" x="36.5282" y="-7.5" font-family="Helvetica,sans-Serif" font-size="10.00">string</text>
</g>
<!-- Node1&#45;&gt;Node2 -->
<g id="edge1" class="edge"><title>Node1&#45;&gt;Node2</title>
<path fill="none" stroke="midnightblue" d="M487.363,-234.714C385.573,-226.964 201.954,-203.412 63.5282,-132 30.8209,-115.127 17.3349,-109.693 2.52818,-76 -5.02449,-58.8137 7.39335,-39.8685 19.2875,-26.888"/>
<polygon fill="midnightblue" stroke="midnightblue" points="21.9043,-29.2194 26.4425,-19.6458 16.9245,-24.2998 21.9043,-29.2194"/>
</g>
<!-- Node3 -->
<g id="node3" class="node"><title>Node3</title>
<polygon fill="none" stroke="#bfbfbf" points="904.528,-112.5 904.528,-131.5 1068.53,-131.5 1068.53,-112.5 904.528,-112.5"/>
<text text-anchor="middle" x="986.528" y="-119.5" font-family="Helvetica,sans-Serif" font-size="10.00">Framework/DataProcessorSpec.h</text>
</g>
<!-- Node1&#45;&gt;Node3 -->
<g id="edge2" class="edge"><title>Node1&#45;&gt;Node3</title>
<path fill="none" stroke="midnightblue" d="M571.714,-224.364C582.142,-207.795 601.815,-180.958 626.528,-168 638.422,-161.764 794.285,-143.86 896.987,-132.606"/>
<polygon fill="midnightblue" stroke="midnightblue" points="897.503,-136.07 907.063,-131.504 896.742,-129.112 897.503,-136.07"/>
</g>
<!-- Node4 -->
<g id="node4" class="node"><title>Node4</title>
<polygon fill="none" stroke="#bfbfbf" points="636.028,-168.5 636.028,-187.5 789.028,-187.5 789.028,-168.5 636.028,-168.5"/>
<text text-anchor="middle" x="712.528" y="-175.5" font-family="Helvetica,sans-Serif" font-size="10.00">Framework/CompletionPolicy.h</text>
</g>
<!-- Node1&#45;&gt;Node4 -->
<g id="edge3" class="edge"><title>Node1&#45;&gt;Node4</title>
<path fill="none" stroke="midnightblue" d="M598.839,-224.399C623.95,-214.372 657.366,-201.028 681.464,-191.405"/>
<polygon fill="midnightblue" stroke="midnightblue" points="682.858,-194.617 690.847,-187.658 680.262,-188.116 682.858,-194.617"/>
</g>
<!-- Node5 -->
<g id="node5" class="node"><title>Node5</title>
<g id="a_node5"><a xlink:href="Check_8h_source.html" target="_top" xlink:title="QualityControl/Check.h">
<polygon fill="none" stroke="black" points="460.028,-168.5 460.028,-187.5 579.028,-187.5 579.028,-168.5 460.028,-168.5"/>
<text text-anchor="middle" x="519.528" y="-175.5" font-family="Helvetica,sans-Serif" font-size="10.00">QualityControl/Check.h</text>
</a>
</g>
</g>
<!-- Node1&#45;&gt;Node5 -->
<g id="edge4" class="edge"><title>Node1&#45;&gt;Node5</title>
<path fill="none" stroke="midnightblue" d="M553.101,-224.399C546.773,-215.842 538.66,-204.871 531.994,-195.857"/>
<polygon fill="midnightblue" stroke="midnightblue" points="534.691,-193.617 525.931,-187.658 529.062,-197.779 534.691,-193.617"/>
</g>
<!-- Node5&#45;&gt;Node3 -->
<g id="edge9" class="edge"><title>Node5&#45;&gt;Node3</title>
<path fill="none" stroke="midnightblue" d="M579.298,-169.694C584.112,-169.117 588.901,-168.546 593.528,-168 699.319,-155.51 821.194,-141.635 900.822,-132.638"/>
<polygon fill="midnightblue" stroke="midnightblue" points="901.258,-136.111 910.803,-131.511 900.473,-129.156 901.258,-136.111"/>
</g>
<!-- Node6 -->
<g id="node6" class="node"><title>Node6</title>
<polygon fill="none" stroke="#bfbfbf" points="765.028,-112.5 765.028,-131.5 824.028,-131.5 824.028,-112.5 765.028,-112.5"/>
<text text-anchor="middle" x="794.528" y="-119.5" font-family="Helvetica,sans-Serif" font-size="10.00">functional</text>
</g>
<!-- Node5&#45;&gt;Node6 -->
<g id="edge5" class="edge"><title>Node5&#45;&gt;Node6</title>
<path fill="none" stroke="midnightblue" d="M567.098,-168.483C612.692,-160.196 683.693,-146.968 754.724,-132.105"/>
<polygon fill="midnightblue" stroke="midnightblue" points="755.678,-135.481 764.744,-129.997 754.237,-128.631 755.678,-135.481"/>
</g>
<!-- Node7 -->
<g id="node7" class="node"><title>Node7</title>
<polygon fill="none" stroke="#bfbfbf" points="524.028,-0.5 524.028,-19.5 559.028,-19.5 559.028,-0.5 524.028,-0.5"/>
<text text-anchor="middle" x="541.528" y="-7.5" font-family="Helvetica,sans-Serif" font-size="10.00">map</text>
</g>
<!-- Node5&#45;&gt;Node7 -->
<g id="edge6" class="edge"><title>Node5&#45;&gt;Node7</title>
<path fill="none" stroke="midnightblue" d="M527.376,-168.383C534.758,-159.795 545.546,-145.915 551.528,-132 561.547,-108.698 560.072,-101.245 562.528,-76 563.389,-67.1529 564.453,-64.6779 562.528,-56 560.404,-46.426 556.022,-36.4756 551.807,-28.3735"/>
<polygon fill="midnightblue" stroke="midnightblue" points="554.826,-26.6012 546.912,-19.557 548.706,-29.9989 554.826,-26.6012"/>
</g>
<!-- Node8 -->
<g id="node8" class="node"><title>Node8</title>
<polygon fill="none" stroke="#bfbfbf" points="842.528,-112.5 842.528,-131.5 886.528,-131.5 886.528,-112.5 842.528,-112.5"/>
<text text-anchor="middle" x="864.528" y="-119.5" font-family="Helvetica,sans-Serif" font-size="10.00">vector</text>
</g>
<!-- Node5&#45;&gt;Node8 -->
<g id="edge7" class="edge"><title>Node5&#45;&gt;Node8</title>
<path fill="none" stroke="midnightblue" d="M579.134,-169.472C652.031,-160.099 772.225,-144.067 832.444,-131.931"/>
<polygon fill="midnightblue" stroke="midnightblue" points="833.206,-135.348 842.272,-129.866 831.766,-128.497 833.206,-135.348"/>
</g>
<!-- Node9 -->
<g id="node9" class="node"><title>Node9</title>
<polygon fill="none" stroke="#bfbfbf" points="72.5282,-112.5 72.5282,-131.5 124.528,-131.5 124.528,-112.5 72.5282,-112.5"/>
<text text-anchor="middle" x="98.5282" y="-119.5" font-family="Helvetica,sans-Serif" font-size="10.00">memory</text>
</g>
<!-- Node5&#45;&gt;Node9 -->
<g id="edge8" class="edge"><title>Node5&#45;&gt;Node9</title>
<path fill="none" stroke="midnightblue" d="M459.859,-171.884C384.622,-164.992 251.449,-151.319 138.528,-132 137.265,-131.784 135.982,-131.554 134.688,-131.313"/>
<polygon fill="midnightblue" stroke="midnightblue" points="135.195,-127.844 124.701,-129.297 133.811,-134.706 135.195,-127.844"/>
</g>
<!-- Node10 -->
<g id="node10" class="node"><title>Node10</title>
<g id="a_node10"><a xlink:href="Quality_8h.html" target="_top" xlink:title="QualityControl/Quality.h">
<polygon fill="none" stroke="black" points="21.0282,-56.5 21.0282,-75.5 142.028,-75.5 142.028,-56.5 21.0282,-56.5"/>
<text text-anchor="middle" x="81.5282" y="-63.5" font-family="Helvetica,sans-Serif" font-size="10.00">QualityControl/Quality.h</text>
</a>
</g>
</g>
<!-- Node5&#45;&gt;Node10 -->
<g id="edge10" class="edge"><title>Node5&#45;&gt;Node10</title>
<path fill="none" stroke="midnightblue" d="M459.915,-172.848C374.683,-166.311 222.646,-152.242 171.528,-132 142.884,-120.657 114.922,-98.1381 97.9584,-82.8214"/>
<polygon fill="midnightblue" stroke="midnightblue" points="100.272,-80.1937 90.5592,-75.9615 95.5128,-85.3269 100.272,-80.1937"/>
</g>
<!-- Node12 -->
<g id="node12" class="node"><title>Node12</title>
<g id="a_node12"><a xlink:href="QualityObject_8h_source.html" target="_top" xlink:title="QualityControl/QualityObject.h">
<polygon fill="none" stroke="black" points="394.028,-112.5 394.028,-131.5 543.028,-131.5 543.028,-112.5 394.028,-112.5"/>
<text text-anchor="middle" x="468.528" y="-119.5" font-family="Helvetica,sans-Serif" font-size="10.00">QualityControl/QualityObject.h</text>
</a>
</g>
</g>
<!-- Node5&#45;&gt;Node12 -->
<g id="edge13" class="edge"><title>Node5&#45;&gt;Node12</title>
<path fill="none" stroke="midnightblue" d="M511.107,-168.083C503.68,-160.22 492.677,-148.569 483.716,-139.081"/>
<polygon fill="midnightblue" stroke="midnightblue" points="486.204,-136.618 476.793,-131.751 481.115,-141.424 486.204,-136.618"/>
</g>
<!-- Node16 -->
<g id="node16" class="node"><title>Node16</title>
<g id="a_node16"><a xlink:href="MonitorObject_8h.html" target="_top" xlink:title="QualityControl/MonitorObject.h">
<polygon fill="none" stroke="black" points="199.028,-56.5 199.028,-75.5 350.028,-75.5 350.028,-56.5 199.028,-56.5"/>
<text text-anchor="middle" x="274.528" y="-63.5" font-family="Helvetica,sans-Serif" font-size="10.00">QualityControl/MonitorObject.h</text>
</a>
</g>
</g>
<!-- Node5&#45;&gt;Node16 -->
<g id="edge19" class="edge"><title>Node5&#45;&gt;Node16</title>
<path fill="none" stroke="midnightblue" d="M487.708,-168.466C459.883,-160.52 418.697,-147.577 384.528,-132 367.195,-124.098 323.608,-97.5423 296.796,-80.9189"/>
<polygon fill="midnightblue" stroke="midnightblue" points="298.423,-77.8089 288.083,-75.5 294.726,-83.7532 298.423,-77.8089"/>
</g>
<!-- Node17 -->
<g id="node17" class="node"><title>Node17</title>
<g id="a_node17"><a xlink:href="CheckInterface_8h.html" target="_top" xlink:title="QualityControl/CheckInterface.h">
<polygon fill="none" stroke="black" points="181.028,-112.5 181.028,-131.5 338.028,-131.5 338.028,-112.5 181.028,-112.5"/>
<text text-anchor="middle" x="259.528" y="-119.5" font-family="Helvetica,sans-Serif" font-size="10.00">QualityControl/CheckInterface.h</text>
</a>
</g>
</g>
<!-- Node5&#45;&gt;Node17 -->
<g id="edge25" class="edge"><title>Node5&#45;&gt;Node17</title>
<path fill="none" stroke="midnightblue" d="M478.33,-168.444C432.879,-159.004 359.686,-143.802 310.619,-133.611"/>
<polygon fill="midnightblue" stroke="midnightblue" points="311.036,-130.123 300.533,-131.516 309.613,-136.977 311.036,-130.123"/>
</g>
<!-- Node18 -->
<g id="node18" class="node"><title>Node18</title>
<g id="a_node18"><a xlink:href="QcInfoLogger_8h.html" target="_top" xlink:title="QualityControl/QcInfoLogger.h">
<polygon fill="none" stroke="black" points="598.028,-112.5 598.028,-131.5 747.028,-131.5 747.028,-112.5 598.028,-112.5"/>
<text text-anchor="middle" x="672.528" y="-119.5" font-family="Helvetica,sans-Serif" font-size="10.00">QualityControl/QcInfoLogger.h</text>
</a>
</g>
</g>
<!-- Node5&#45;&gt;Node18 -->
<g id="edge31" class="edge"><title>Node5&#45;&gt;Node18</title>
<path fill="none" stroke="midnightblue" d="M543.771,-168.444C569.399,-159.399 610.013,-145.064 638.767,-134.916"/>
<polygon fill="midnightblue" stroke="midnightblue" points="640.133,-138.145 648.398,-131.516 637.803,-131.544 640.133,-138.145"/>
</g>
<!-- Node10&#45;&gt;Node2 -->
<g id="edge12" class="edge"><title>Node10&#45;&gt;Node2</title>
<path fill="none" stroke="midnightblue" d="M74.0973,-56.083C67.6755,-48.3768 58.2226,-37.0333 50.4057,-27.6531"/>
<polygon fill="midnightblue" stroke="midnightblue" points="52.9114,-25.1927 43.8207,-19.7511 47.5338,-29.674 52.9114,-25.1927"/>
</g>
<!-- Node11 -->
<g id="node11" class="node"><title>Node11</title>
<polygon fill="none" stroke="#bfbfbf" points="142.528,-0.5 142.528,-19.5 198.528,-19.5 198.528,-0.5 142.528,-0.5"/>
<text text-anchor="middle" x="170.528" y="-7.5" font-family="Helvetica,sans-Serif" font-size="10.00">Rtypes.h</text>
</g>
<!-- Node10&#45;&gt;Node11 -->
<g id="edge11" class="edge"><title>Node10&#45;&gt;Node11</title>
<path fill="none" stroke="midnightblue" d="M95.8276,-56.324C109.711,-47.9002 131.021,-34.9709 147.332,-25.0741"/>
<polygon fill="midnightblue" stroke="midnightblue" points="149.53,-27.8341 156.264,-19.6545 145.899,-21.8495 149.53,-27.8341"/>
</g>
<!-- Node12&#45;&gt;Node7 -->
<g id="edge15" class="edge"><title>Node12&#45;&gt;Node7</title>
<path fill="none" stroke="midnightblue" d="M496.901,-112.495C514.281,-105.653 535.125,-94.1299 545.528,-76 553.609,-61.9173 551.365,-43.1797 547.837,-29.4414"/>
<polygon fill="midnightblue" stroke="midnightblue" points="551.134,-28.2503 544.905,-19.6799 544.43,-30.2641 551.134,-28.2503"/>
</g>
<!-- Node12&#45;&gt;Node10 -->
<g id="edge18" class="edge"><title>Node12&#45;&gt;Node10</title>
<path fill="none" stroke="midnightblue" d="M407.207,-112.444C337.896,-102.772 225.243,-87.0532 152.269,-76.8708"/>
<polygon fill="midnightblue" stroke="midnightblue" points="152.632,-73.3876 142.244,-75.4719 151.664,-80.3204 152.632,-73.3876"/>
</g>
<!-- Node13 -->
<g id="node13" class="node"><title>Node13</title>
<polygon fill="none" stroke="#bfbfbf" points="482.528,-56.5 482.528,-75.5 536.528,-75.5 536.528,-56.5 482.528,-56.5"/>
<text text-anchor="middle" x="509.528" y="-63.5" font-family="Helvetica,sans-Serif" font-size="10.00">iostream</text>
</g>
<!-- Node12&#45;&gt;Node13 -->
<g id="edge14" class="edge"><title>Node12&#45;&gt;Node13</title>
<path fill="none" stroke="midnightblue" d="M475.298,-112.083C481.09,-104.455 489.587,-93.2645 496.666,-83.9408"/>
<polygon fill="midnightblue" stroke="midnightblue" points="499.624,-85.8321 502.884,-75.7511 494.049,-81.5991 499.624,-85.8321"/>
</g>
<!-- Node14 -->
<g id="node14" class="node"><title>Node14</title>
<polygon fill="none" stroke="#bfbfbf" points="406.028,-0.5 406.028,-19.5 465.028,-19.5 465.028,-0.5 406.028,-0.5"/>
<text text-anchor="middle" x="435.528" y="-7.5" font-family="Helvetica,sans-Serif" font-size="10.00">TObject.h</text>
</g>
<!-- Node12&#45;&gt;Node14 -->
<g id="edge16" class="edge"><title>Node12&#45;&gt;Node14</title>
<path fill="none" stroke="midnightblue" d="M465.939,-112.368C460.589,-94.5366 448.217,-53.2953 441.01,-29.2717"/>
<polygon fill="midnightblue" stroke="midnightblue" points="444.332,-28.1639 438.106,-19.5914 437.627,-30.1754 444.332,-28.1639"/>
</g>
<!-- Node15 -->
<g id="node15" class="node"><title>Node15</title>
<polygon fill="none" stroke="#bfbfbf" points="234.528,-0.5 234.528,-19.5 350.528,-19.5 350.528,-0.5 234.528,-0.5"/>
<text text-anchor="middle" x="292.528" y="-7.5" font-family="Helvetica,sans-Serif" font-size="10.00">Common/Exceptions.h</text>
</g>
<!-- Node12&#45;&gt;Node15 -->
<g id="edge17" class="edge"><title>Node12&#45;&gt;Node15</title>
<path fill="none" stroke="midnightblue" d="M454.718,-112.368C424.388,-93.4121 351.729,-48.0006 314.836,-24.9424"/>
<polygon fill="midnightblue" stroke="midnightblue" points="316.609,-21.9235 306.274,-19.5914 312.899,-27.8595 316.609,-21.9235"/>
</g>
<!-- Node16&#45;&gt;Node2 -->
<g id="edge20" class="edge"><title>Node16&#45;&gt;Node2</title>
<path fill="none" stroke="midnightblue" d="M236.816,-56.4435C189.834,-45.7836 110.469,-27.7765 67.0903,-17.9343"/>
<polygon fill="midnightblue" stroke="midnightblue" points="67.6591,-14.4744 57.1325,-15.6749 66.1101,-21.3009 67.6591,-14.4744"/>
</g>
<!-- Node16&#45;&gt;Node7 -->
<g id="edge21" class="edge"><title>Node16&#45;&gt;Node7</title>
<path fill="none" stroke="midnightblue" d="M316.835,-56.4435C372.084,-45.2695 467.25,-26.0225 513.993,-16.569"/>
<polygon fill="midnightblue" stroke="midnightblue" points="514.885,-19.9595 523.993,-14.5465 513.497,-13.0984 514.885,-19.9595"/>
</g>
<!-- Node16&#45;&gt;Node11 -->
<g id="edge22" class="edge"><title>Node16&#45;&gt;Node11</title>
<path fill="none" stroke="midnightblue" d="M257.819,-56.324C241.216,-47.7034 215.526,-34.3643 196.308,-24.3855"/>
<polygon fill="midnightblue" stroke="midnightblue" points="197.684,-21.1565 187.196,-19.6545 194.458,-27.3689 197.684,-21.1565"/>
</g>
<!-- Node16&#45;&gt;Node14 -->
<g id="edge23" class="edge"><title>Node16&#45;&gt;Node14</title>
<path fill="none" stroke="midnightblue" d="M300.039,-56.4435C327.124,-47.3591 370.118,-32.9388 400.397,-22.7831"/>
<polygon fill="midnightblue" stroke="midnightblue" points="401.769,-26.0148 410.137,-19.5164 399.543,-19.3781 401.769,-26.0148"/>
</g>
<!-- Node16&#45;&gt;Node15 -->
<g id="edge24" class="edge"><title>Node16&#45;&gt;Node15</title>
<path fill="none" stroke="midnightblue" d="M277.501,-56.083C279.912,-48.8486 283.392,-38.4087 286.396,-29.3968"/>
<polygon fill="midnightblue" stroke="midnightblue" points="289.769,-30.3447 289.611,-19.7511 283.128,-28.1311 289.769,-30.3447"/>
</g>
<!-- Node17&#45;&gt;Node2 -->
<g id="edge26" class="edge"><title>Node17&#45;&gt;Node2</title>
<path fill="none" stroke="midnightblue" d="M186.115,-112.471C117.111,-103.7 22.7634,-89.4573 11.5282,-76 -0.150532,-62.0115 10.5878,-41.9639 21.3955,-27.8405"/>
<polygon fill="midnightblue" stroke="midnightblue" points="24.2673,-29.8596 27.9339,-19.9194 18.8688,-25.4034 24.2673,-29.8596"/>
</g>
<!-- Node17&#45;&gt;Node7 -->
<g id="edge27" class="edge"><title>Node17&#45;&gt;Node7</title>
<path fill="none" stroke="midnightblue" d="M281.656,-112.368C332.75,-92.4383 458.812,-43.2653 514.424,-21.5725"/>
<polygon fill="midnightblue" stroke="midnightblue" points="515.91,-24.7498 523.954,-17.855 513.366,-18.2284 515.91,-24.7498"/>
</g>
<!-- Node17&#45;&gt;Node10 -->
<g id="edge30" class="edge"><title>Node17&#45;&gt;Node10</title>
<path fill="none" stroke="midnightblue" d="M231.324,-112.444C201.118,-103.28 153.017,-88.6876 119.499,-78.5192"/>
<polygon fill="midnightblue" stroke="midnightblue" points="120.186,-75.0703 109.601,-75.5164 118.154,-81.7688 120.186,-75.0703"/>
</g>
<!-- Node17&#45;&gt;Node11 -->
<g id="edge28" class="edge"><title>Node17&#45;&gt;Node11</title>
<path fill="none" stroke="midnightblue" d="M238.534,-112.419C222.862,-104.987 202.071,-92.7787 189.528,-76 179.519,-62.6106 174.767,-44.0428 172.52,-30.1794"/>
<polygon fill="midnightblue" stroke="midnightblue" points="175.937,-29.3153 171.162,-19.8576 168.997,-30.2289 175.937,-29.3153"/>
</g>
<!-- Node17&#45;&gt;Node16 -->
<g id="edge29" class="edge"><title>Node17&#45;&gt;Node16</title>
<path fill="none" stroke="midnightblue" d="M262.005,-112.083C264.015,-104.849 266.915,-94.4087 269.418,-85.3968"/>
<polygon fill="midnightblue" stroke="midnightblue" points="272.793,-86.323 272.097,-75.7511 266.048,-84.4495 272.793,-86.323"/>
</g>
<!-- Node19 -->
<g id="node19" class="node"><title>Node19</title>
<polygon fill="none" stroke="#bfbfbf" points="630.528,-56.5 630.528,-75.5 760.528,-75.5 760.528,-56.5 630.528,-56.5"/>
<text text-anchor="middle" x="695.528" y="-63.5" font-family="Helvetica,sans-Serif" font-size="10.00">InfoLogger/InfoLogger.hxx</text>
</g>
<!-- Node18&#45;&gt;Node19 -->
<g id="edge32" class="edge"><title>Node18&#45;&gt;Node19</title>
<path fill="none" stroke="midnightblue" d="M676.326,-112.083C679.441,-104.77 683.951,-94.1814 687.817,-85.1034"/>
<polygon fill="midnightblue" stroke="midnightblue" points="691.102,-86.3229 691.801,-75.7511 684.662,-83.5798 691.102,-86.3229"/>
</g>
</g>
</svg>
