<?xml version="1.0" encoding="UTF-8" standalone="no"?>
<!DOCTYPE svg PUBLIC "-//W3C//DTD SVG 1.1//EN"
 "http://www.w3.org/Graphics/SVG/1.1/DTD/svg11.dtd">
<!-- Generated by graphviz version 2.38.0 (20140413.2041)
 -->
<!-- Title: Framework/include/QualityControl/CheckInterface.h Pages: 1 -->
<svg width="2874pt" height="240pt"
 viewBox="0.00 0.00 2873.50 240.00" xmlns="http://www.w3.org/2000/svg" xmlns:xlink="http://www.w3.org/1999/xlink">
<g id="graph0" class="graph" transform="scale(1 1) rotate(0) translate(4 236)">
<title>Framework/include/QualityControl/CheckInterface.h</title>
<!-- Node1 -->
<g id="node1" class="node"><title>Node1</title>
<polygon fill="#bfbfbf" stroke="black" points="1715.5,-201.5 1715.5,-231.5 1848.5,-231.5 1848.5,-201.5 1715.5,-201.5"/>
<text text-anchor="start" x="1723.5" y="-219.5" font-family="Helvetica,sans-Serif" font-size="10.00">Framework/include/Quality</text>
<text text-anchor="middle" x="1782" y="-208.5" font-family="Helvetica,sans-Serif" font-size="10.00">Control/CheckInterface.h</text>
</g>
<!-- Node2 -->
<g id="node2" class="node"><title>Node2</title>
<g id="a_node2"><a xlink:href="Check_8h_source.html" target="_top" xlink:title="Framework/include/Quality\lControl/Check.h">
<polygon fill="none" stroke="black" points="574.5,-134.5 574.5,-164.5 707.5,-164.5 707.5,-134.5 574.5,-134.5"/>
<text text-anchor="start" x="582.5" y="-152.5" font-family="Helvetica,sans-Serif" font-size="10.00">Framework/include/Quality</text>
<text text-anchor="middle" x="641" y="-141.5" font-family="Helvetica,sans-Serif" font-size="10.00">Control/Check.h</text>
</a>
</g>
</g>
<!-- Node1&#45;&gt;Node2 -->
<g id="edge1" class="edge"><title>Node1&#45;&gt;Node2</title>
<path fill="none" stroke="midnightblue" d="M1705.23,-211.127C1493.97,-199.092 906.54,-165.627 707.745,-154.302"/>
<polygon fill="midnightblue" stroke="midnightblue" points="1705.12,-214.626 1715.3,-211.701 1705.52,-207.637 1705.12,-214.626"/>
</g>
<!-- Node3 -->
<g id="node3" class="node"><title>Node3</title>
<g id="a_node3"><a xlink:href="CheckRunner_8h.html" target="_top" xlink:title="Framework/include/Quality\lControl/CheckRunner.h">
<polygon fill="none" stroke="black" points="916.5,-67.5 916.5,-97.5 1049.5,-97.5 1049.5,-67.5 916.5,-67.5"/>
<text text-anchor="start" x="924.5" y="-85.5" font-family="Helvetica,sans-Serif" font-size="10.00">Framework/include/Quality</text>
<text text-anchor="middle" x="983" y="-74.5" font-family="Helvetica,sans-Serif" font-size="10.00">Control/CheckRunner.h</text>
</a>
</g>
</g>
<!-- Node1&#45;&gt;Node3 -->
<g id="edge23" class="edge"><title>Node1&#45;&gt;Node3</title>
<path fill="none" stroke="midnightblue" d="M1705.29,-216.126C1516.62,-216.899 1041.61,-213.917 991,-165 973.11,-147.709 975.94,-115.973 979.523,-97.6213"/>
<polygon fill="midnightblue" stroke="midnightblue" points="1705.43,-219.625 1715.41,-216.079 1705.39,-212.625 1705.43,-219.625"/>
</g>
<!-- Node18 -->
<g id="node18" class="node"><title>Node18</title>
<g id="a_node18"><a xlink:href="CheckInterface_8cxx.html" target="_top" xlink:title="Framework/src/CheckInterface.cxx">
<polygon fill="none" stroke="black" points="1000,-140 1000,-159 1170,-159 1170,-140 1000,-140"/>
<text text-anchor="middle" x="1085" y="-147" font-family="Helvetica,sans-Serif" font-size="10.00">Framework/src/CheckInterface.cxx</text>
</a>
</g>
</g>
<!-- Node1&#45;&gt;Node18 -->
<g id="edge24" class="edge"><title>Node1&#45;&gt;Node18</title>
<path fill="none" stroke="midnightblue" d="M1705.28,-210.79C1590.56,-203.358 1367.6,-187.417 1179,-165 1165.06,-163.343 1150.02,-161.188 1136.14,-159.049"/>
<polygon fill="midnightblue" stroke="midnightblue" points="1705.17,-214.289 1715.37,-211.439 1705.62,-207.304 1705.17,-214.289"/>
</g>
<!-- Node19 -->
<g id="node19" class="node"><title>Node19</title>
<g id="a_node19"><a xlink:href="testCheckInterface_8cxx.html" target="_top" xlink:title="Framework/test/testCheck\lInterface.cxx">
<polygon fill="none" stroke="black" points="1188.5,-134.5 1188.5,-164.5 1321.5,-164.5 1321.5,-134.5 1188.5,-134.5"/>
<text text-anchor="start" x="1196.5" y="-152.5" font-family="Helvetica,sans-Serif" font-size="10.00">Framework/test/testCheck</text>
<text text-anchor="middle" x="1255" y="-141.5" font-family="Helvetica,sans-Serif" font-size="10.00">Interface.cxx</text>
</a>
</g>
</g>
<!-- Node1&#45;&gt;Node19 -->
<g id="edge25" class="edge"><title>Node1&#45;&gt;Node19</title>
<path fill="none" stroke="midnightblue" d="M1705.02,-208.784C1614.86,-200.483 1461.16,-184.973 1330,-165 1327.25,-164.581 1324.44,-164.133 1321.61,-163.663"/>
<polygon fill="midnightblue" stroke="midnightblue" points="1704.87,-212.285 1715.15,-209.711 1705.51,-205.314 1704.87,-212.285"/>
</g>
<!-- Node20 -->
<g id="node20" class="node"><title>Node20</title>
<g id="a_node20"><a xlink:href="MeanIsAbove_8h.html" target="_top" xlink:title="Modules/Common/include\l/Common/MeanIsAbove.h">
<polygon fill="none" stroke="black" points="1339.5,-134.5 1339.5,-164.5 1470.5,-164.5 1470.5,-134.5 1339.5,-134.5"/>
<text text-anchor="start" x="1347.5" y="-152.5" font-family="Helvetica,sans-Serif" font-size="10.00">Modules/Common/include</text>
<text text-anchor="middle" x="1405" y="-141.5" font-family="Helvetica,sans-Serif" font-size="10.00">/Common/MeanIsAbove.h</text>
</a>
</g>
</g>
<!-- Node1&#45;&gt;Node20 -->
<g id="edge26" class="edge"><title>Node1&#45;&gt;Node20</title>
<path fill="none" stroke="midnightblue" d="M1705.39,-203.238C1644.29,-193.327 1556.57,-178.801 1480,-165 1477,-164.459 1473.93,-163.898 1470.83,-163.325"/>
<polygon fill="midnightblue" stroke="midnightblue" points="1704.91,-206.706 1715.34,-204.85 1706.03,-199.796 1704.91,-206.706"/>
</g>
<!-- Node23 -->
<g id="node23" class="node"><title>Node23</title>
<g id="a_node23"><a xlink:href="NonEmpty_8h.html" target="_top" xlink:title="Modules/Common/include\l/Common/NonEmpty.h">
<polygon fill="none" stroke="black" points="1489,-134.5 1489,-164.5 1619,-164.5 1619,-134.5 1489,-134.5"/>
<text text-anchor="start" x="1497" y="-152.5" font-family="Helvetica,sans-Serif" font-size="10.00">Modules/Common/include</text>
<text text-anchor="middle" x="1554" y="-141.5" font-family="Helvetica,sans-Serif" font-size="10.00">/Common/NonEmpty.h</text>
</a>
</g>
</g>
<!-- Node1&#45;&gt;Node23 -->
<g id="edge29" class="edge"><title>Node1&#45;&gt;Node23</title>
<path fill="none" stroke="midnightblue" d="M1723.12,-198.715C1686.02,-188.137 1638.66,-174.635 1603.5,-164.611"/>
<polygon fill="midnightblue" stroke="midnightblue" points="1722.23,-202.1 1732.81,-201.476 1724.15,-195.368 1722.23,-202.1"/>
</g>
<!-- Node26 -->
<g id="node26" class="node"><title>Node26</title>
<g id="a_node26"><a xlink:href="EverIncreasingGraph_8h.html" target="_top" xlink:title="Modules/Daq/include\l/Daq/EverIncreasingGraph.h">
<polygon fill="none" stroke="black" points="1637,-134.5 1637,-164.5 1777,-164.5 1777,-134.5 1637,-134.5"/>
<text text-anchor="start" x="1645" y="-152.5" font-family="Helvetica,sans-Serif" font-size="10.00">Modules/Daq/include</text>
<text text-anchor="middle" x="1707" y="-141.5" font-family="Helvetica,sans-Serif" font-size="10.00">/Daq/EverIncreasingGraph.h</text>
</a>
</g>
</g>
<!-- Node1&#45;&gt;Node26 -->
<g id="edge32" class="edge"><title>Node1&#45;&gt;Node26</title>
<path fill="none" stroke="midnightblue" d="M1757.88,-194.598C1746.56,-184.783 1733.36,-173.344 1723.24,-164.577"/>
<polygon fill="midnightblue" stroke="midnightblue" points="1755.88,-197.492 1765.73,-201.396 1760.46,-192.202 1755.88,-197.492"/>
</g>
<!-- Node28 -->
<g id="node28" class="node"><title>Node28</title>
<g id="a_node28"><a xlink:href="DigitCheck_8h.html" target="_top" xlink:title="Modules/EMCAL/include\l/EMCAL/DigitCheck.h">
<polygon fill="none" stroke="black" points="1795.5,-134.5 1795.5,-164.5 1920.5,-164.5 1920.5,-134.5 1795.5,-134.5"/>
<text text-anchor="start" x="1803.5" y="-152.5" font-family="Helvetica,sans-Serif" font-size="10.00">Modules/EMCAL/include</text>
<text text-anchor="middle" x="1858" y="-141.5" font-family="Helvetica,sans-Serif" font-size="10.00">/EMCAL/DigitCheck.h</text>
</a>
</g>
</g>
<!-- Node1&#45;&gt;Node28 -->
<g id="edge34" class="edge"><title>Node1&#45;&gt;Node28</title>
<path fill="none" stroke="midnightblue" d="M1806.11,-194.883C1817.66,-185.005 1831.19,-173.429 1841.54,-164.577"/>
<polygon fill="midnightblue" stroke="midnightblue" points="1803.82,-192.236 1798.49,-201.396 1808.37,-197.556 1803.82,-192.236"/>
</g>
<!-- Node30 -->
<g id="node30" class="node"><title>Node30</title>
<g id="a_node30"><a xlink:href="FakeCheck_8h.html" target="_top" xlink:title="Modules/Example/include\l/Example/FakeCheck.h">
<polygon fill="none" stroke="black" points="1939,-134.5 1939,-164.5 2067,-164.5 2067,-134.5 1939,-134.5"/>
<text text-anchor="start" x="1947" y="-152.5" font-family="Helvetica,sans-Serif" font-size="10.00">Modules/Example/include</text>
<text text-anchor="middle" x="2003" y="-141.5" font-family="Helvetica,sans-Serif" font-size="10.00">/Example/FakeCheck.h</text>
</a>
</g>
</g>
<!-- Node1&#45;&gt;Node30 -->
<g id="edge36" class="edge"><title>Node1&#45;&gt;Node30</title>
<path fill="none" stroke="midnightblue" d="M1839.53,-198.58C1875.42,-188.022 1921.09,-174.592 1955.02,-164.611"/>
<polygon fill="midnightblue" stroke="midnightblue" points="1838.29,-195.296 1829.68,-201.476 1840.26,-202.012 1838.29,-195.296"/>
</g>
<!-- Node32 -->
<g id="node32" class="node"><title>Node32</title>
<g id="a_node32"><a xlink:href="BasicDigitQcCheck_8h.html" target="_top" xlink:title="Modules/MFT/include\l/MFT/BasicDigitQcCheck.h">
<polygon fill="none" stroke="black" points="2085.5,-134.5 2085.5,-164.5 2222.5,-164.5 2222.5,-134.5 2085.5,-134.5"/>
<text text-anchor="start" x="2093.5" y="-152.5" font-family="Helvetica,sans-Serif" font-size="10.00">Modules/MFT/include</text>
<text text-anchor="middle" x="2154" y="-141.5" font-family="Helvetica,sans-Serif" font-size="10.00">/MFT/BasicDigitQcCheck.h</text>
</a>
</g>
</g>
<!-- Node1&#45;&gt;Node32 -->
<g id="edge38" class="edge"><title>Node1&#45;&gt;Node32</title>
<path fill="none" stroke="midnightblue" d="M1858.65,-202.63C1918,-192.591 2002.27,-178.186 2076,-165 2078.98,-164.467 2082.03,-163.918 2085.11,-163.36"/>
<polygon fill="midnightblue" stroke="midnightblue" points="1857.88,-199.21 1848.6,-204.327 1859.04,-206.112 1857.88,-199.21"/>
</g>
<!-- Node34 -->
<g id="node34" class="node"><title>Node34</title>
<g id="a_node34"><a xlink:href="SkeletonCheck_8h.html" target="_top" xlink:title="Modules/Skeleton/include\l/Skeleton/SkeletonCheck.h">
<polygon fill="none" stroke="black" points="2241,-134.5 2241,-164.5 2377,-164.5 2377,-134.5 2241,-134.5"/>
<text text-anchor="start" x="2249" y="-152.5" font-family="Helvetica,sans-Serif" font-size="10.00">Modules/Skeleton/include</text>
<text text-anchor="middle" x="2309" y="-141.5" font-family="Helvetica,sans-Serif" font-size="10.00">/Skeleton/SkeletonCheck.h</text>
</a>
</g>
</g>
<!-- Node1&#45;&gt;Node34 -->
<g id="edge40" class="edge"><title>Node1&#45;&gt;Node34</title>
<path fill="none" stroke="midnightblue" d="M1858.83,-208.552C1948.41,-200.059 2100.82,-184.395 2231,-165 2234.27,-164.513 2237.61,-163.99 2240.98,-163.441"/>
<polygon fill="midnightblue" stroke="midnightblue" points="1858.39,-205.078 1848.76,-209.502 1859.04,-212.048 1858.39,-205.078"/>
</g>
<!-- Node36 -->
<g id="node36" class="node"><title>Node36</title>
<g id="a_node36"><a xlink:href="TOFCheckRawsMulti_8h.html" target="_top" xlink:title="Modules/TOF/include\l/TOF/TOFCheckRawsMulti.h">
<polygon fill="none" stroke="black" points="2395.5,-134.5 2395.5,-164.5 2540.5,-164.5 2540.5,-134.5 2395.5,-134.5"/>
<text text-anchor="start" x="2403.5" y="-152.5" font-family="Helvetica,sans-Serif" font-size="10.00">Modules/TOF/include</text>
<text text-anchor="middle" x="2468" y="-141.5" font-family="Helvetica,sans-Serif" font-size="10.00">/TOF/TOFCheckRawsMulti.h</text>
</a>
</g>
</g>
<!-- Node1&#45;&gt;Node36 -->
<g id="edge42" class="edge"><title>Node1&#45;&gt;Node36</title>
<path fill="none" stroke="midnightblue" d="M1858.91,-211.333C1973.91,-204.591 2197.34,-189.514 2386,-165 2389.01,-164.609 2392.08,-164.184 2395.18,-163.734"/>
<polygon fill="midnightblue" stroke="midnightblue" points="1858.58,-207.846 1848.8,-211.921 1858.98,-214.834 1858.58,-207.846"/>
</g>
<!-- Node38 -->
<g id="node38" class="node"><title>Node38</title>
<g id="a_node38"><a xlink:href="TOFCheckRawsTime_8h.html" target="_top" xlink:title="Modules/TOF/include\l/TOF/TOFCheckRawsTime.h">
<polygon fill="none" stroke="black" points="2559,-134.5 2559,-164.5 2705,-164.5 2705,-134.5 2559,-134.5"/>
<text text-anchor="start" x="2567" y="-152.5" font-family="Helvetica,sans-Serif" font-size="10.00">Modules/TOF/include</text>
<text text-anchor="middle" x="2632" y="-141.5" font-family="Helvetica,sans-Serif" font-size="10.00">/TOF/TOFCheckRawsTime.h</text>
</a>
</g>
</g>
<!-- Node1&#45;&gt;Node38 -->
<g id="edge44" class="edge"><title>Node1&#45;&gt;Node38</title>
<path fill="none" stroke="midnightblue" d="M1858.73,-213.171C1997.1,-208.366 2297.42,-195.169 2549,-165 2552.2,-164.617 2555.45,-164.192 2558.74,-163.737"/>
<polygon fill="midnightblue" stroke="midnightblue" points="1858.53,-209.676 1848.65,-213.516 1858.77,-216.672 1858.53,-209.676"/>
</g>
<!-- Node40 -->
<g id="node40" class="node"><title>Node40</title>
<g id="a_node40"><a xlink:href="TOFCheckRawsToT_8h.html" target="_top" xlink:title="Modules/TOF/include\l/TOF/TOFCheckRawsToT.h">
<polygon fill="none" stroke="black" points="2723.5,-134.5 2723.5,-164.5 2864.5,-164.5 2864.5,-134.5 2723.5,-134.5"/>
<text text-anchor="start" x="2731.5" y="-152.5" font-family="Helvetica,sans-Serif" font-size="10.00">Modules/TOF/include</text>
<text text-anchor="middle" x="2794" y="-141.5" font-family="Helvetica,sans-Serif" font-size="10.00">/TOF/TOFCheckRawsToT.h</text>
</a>
</g>
</g>
<!-- Node1&#45;&gt;Node40 -->
<g id="edge46" class="edge"><title>Node1&#45;&gt;Node40</title>
<path fill="none" stroke="midnightblue" d="M1858.84,-214.586C2018.6,-211.971 2398.05,-202.045 2714,-165 2717.08,-164.638 2720.23,-164.232 2723.4,-163.791"/>
<polygon fill="midnightblue" stroke="midnightblue" points="1858.58,-211.089 1848.63,-214.748 1858.69,-218.089 1858.58,-211.089"/>
</g>
<!-- Node2&#45;&gt;Node3 -->
<g id="edge2" class="edge"><title>Node2&#45;&gt;Node3</title>
<path fill="none" stroke="midnightblue" d="M717.881,-133.888C777.576,-122.542 859.499,-106.972 916.415,-96.155"/>
<polygon fill="midnightblue" stroke="midnightblue" points="716.924,-130.507 707.753,-135.813 718.231,-137.384 716.924,-130.507"/>
</g>
<!-- Node6 -->
<g id="node6" class="node"><title>Node6</title>
<g id="a_node6"><a xlink:href="InfrastructureGenerator_8cxx.html" target="_top" xlink:title="Framework/src/Infrastructure\lGenerator.cxx">
<polygon fill="none" stroke="black" points="170.5,-0.5 170.5,-30.5 313.5,-30.5 313.5,-0.5 170.5,-0.5"/>
<text text-anchor="start" x="178.5" y="-18.5" font-family="Helvetica,sans-Serif" font-size="10.00">Framework/src/Infrastructure</text>
<text text-anchor="middle" x="242" y="-7.5" font-family="Helvetica,sans-Serif" font-size="10.00">Generator.cxx</text>
</a>
</g>
</g>
<!-- Node2&#45;&gt;Node6 -->
<g id="edge22" class="edge"><title>Node2&#45;&gt;Node6</title>
<path fill="none" stroke="midnightblue" d="M606.228,-129.4C590.545,-120.392 571.993,-109.182 556,-98 538.137,-85.5105 537.788,-76.1382 518,-67 515.651,-65.915 394.711,-44.0016 313.72,-29.4009"/>
<polygon fill="midnightblue" stroke="midnightblue" points="604.666,-132.537 615.09,-134.432 608.123,-126.45 604.666,-132.537"/>
</g>
<!-- Node15 -->
<g id="node15" class="node"><title>Node15</title>
<g id="a_node15"><a xlink:href="CheckRunnerFactory_8h.html" target="_top" xlink:title="Framework/include/Quality\lControl/CheckRunnerFactory.h">
<polygon fill="none" stroke="black" points="565,-67.5 565,-97.5 717,-97.5 717,-67.5 565,-67.5"/>
<text text-anchor="start" x="573" y="-85.5" font-family="Helvetica,sans-Serif" font-size="10.00">Framework/include/Quality</text>
<text text-anchor="middle" x="641" y="-74.5" font-family="Helvetica,sans-Serif" font-size="10.00">Control/CheckRunnerFactory.h</text>
</a>
</g>
</g>
<!-- Node2&#45;&gt;Node15 -->
<g id="edge14" class="edge"><title>Node2&#45;&gt;Node15</title>
<path fill="none" stroke="midnightblue" d="M641,-124.108C641,-115.154 641,-105.323 641,-97.5765"/>
<polygon fill="midnightblue" stroke="midnightblue" points="637.5,-124.396 641,-134.396 644.5,-124.396 637.5,-124.396"/>
</g>
<!-- Node17 -->
<g id="node17" class="node"><title>Node17</title>
<polygon fill="none" stroke="#bfbfbf" points="377,-73 377,-92 509,-92 509,-73 377,-73"/>
<text text-anchor="middle" x="443" y="-80" font-family="Helvetica,sans-Serif" font-size="10.00">Framework/src/Check.cxx</text>
</g>
<!-- Node2&#45;&gt;Node17 -->
<g id="edge21" class="edge"><title>Node2&#45;&gt;Node17</title>
<path fill="none" stroke="midnightblue" d="M588.511,-131.269C549.93,-118.603 499.154,-101.934 468.914,-92.007"/>
<polygon fill="midnightblue" stroke="midnightblue" points="587.444,-134.602 598.037,-134.396 589.628,-127.951 587.444,-134.602"/>
</g>
<!-- Node4 -->
<g id="node4" class="node"><title>Node4</title>
<g id="a_node4"><a xlink:href="CheckRunner_8cxx.html" target="_top" xlink:title="Framework/src/CheckRunner.cxx">
<polygon fill="none" stroke="black" points="1068,-6 1068,-25 1232,-25 1232,-6 1068,-6"/>
<text text-anchor="middle" x="1150" y="-13" font-family="Helvetica,sans-Serif" font-size="10.00">Framework/src/CheckRunner.cxx</text>
</a>
</g>
</g>
<!-- Node3&#45;&gt;Node4 -->
<g id="edge3" class="edge"><title>Node3&#45;&gt;Node4</title>
<path fill="none" stroke="midnightblue" d="M1028.93,-63.6214C1061.26,-51.0403 1103.07,-34.7661 1128.14,-25.007"/>
<polygon fill="midnightblue" stroke="midnightblue" points="1027.29,-60.5071 1019.24,-67.396 1029.83,-67.0304 1027.29,-60.5071"/>
</g>
<!-- Node5 -->
<g id="node5" class="node"><title>Node5</title>
<g id="a_node5"><a xlink:href="CheckRunnerFactory_8cxx.html" target="_top" xlink:title="Framework/src/CheckRunner\lFactory.cxx">
<polygon fill="none" stroke="black" points="568.5,-0.5 568.5,-30.5 713.5,-30.5 713.5,-0.5 568.5,-0.5"/>
<text text-anchor="start" x="576.5" y="-18.5" font-family="Helvetica,sans-Serif" font-size="10.00">Framework/src/CheckRunner</text>
<text text-anchor="middle" x="641" y="-7.5" font-family="Helvetica,sans-Serif" font-size="10.00">Factory.cxx</text>
</a>
</g>
</g>
<!-- Node3&#45;&gt;Node5 -->
<g id="edge4" class="edge"><title>Node3&#45;&gt;Node5</title>
<path fill="none" stroke="midnightblue" d="M906.112,-66.8869C848.556,-55.9479 770.341,-41.0823 713.797,-30.3356"/>
<polygon fill="midnightblue" stroke="midnightblue" points="905.769,-70.3843 916.247,-68.813 907.076,-63.5074 905.769,-70.3843"/>
</g>
<!-- Node3&#45;&gt;Node6 -->
<g id="edge5" class="edge"><title>Node3&#45;&gt;Node6</title>
<path fill="none" stroke="midnightblue" d="M906.294,-76.6074C757.347,-66.9455 433.879,-45.1298 323,-31 320.024,-30.6208 316.991,-30.2062 313.931,-29.7646"/>
<polygon fill="midnightblue" stroke="midnightblue" points="906.075,-80.1004 916.28,-77.2539 906.527,-73.1151 906.075,-80.1004"/>
</g>
<!-- Node7 -->
<g id="node7" class="node"><title>Node7</title>
<g id="a_node7"><a xlink:href="runBasic_8cxx.html" target="_top" xlink:title="This is an executable showing QC Task&#39;s usage in Data Processing Layer. ">
<polygon fill="none" stroke="black" points="1250,-6 1250,-25 1392,-25 1392,-6 1250,-6"/>
<text text-anchor="middle" x="1321" y="-13" font-family="Helvetica,sans-Serif" font-size="10.00">Framework/src/runBasic.cxx</text>
</a>
</g>
</g>
<!-- Node3&#45;&gt;Node7 -->
<g id="edge6" class="edge"><title>Node3&#45;&gt;Node7</title>
<path fill="none" stroke="midnightblue" d="M1059.85,-66.721C1126.74,-53.8573 1221.38,-35.6585 1276.45,-25.0671"/>
<polygon fill="midnightblue" stroke="midnightblue" points="1058.94,-63.3325 1049.78,-68.6581 1060.26,-70.2066 1058.94,-63.3325"/>
</g>
<!-- Node8 -->
<g id="node8" class="node"><title>Node8</title>
<g id="a_node8"><a xlink:href="runMergerTest_8cxx.html" target="_top" xlink:title="This is DPL workflow to see HistoMerger in action. ">
<polygon fill="none" stroke="black" points="731.5,-6 731.5,-25 898.5,-25 898.5,-6 731.5,-6"/>
<text text-anchor="middle" x="815" y="-13" font-family="Helvetica,sans-Serif" font-size="10.00">Framework/src/runMergerTest.cxx</text>
</a>
</g>
</g>
<!-- Node3&#45;&gt;Node8 -->
<g id="edge7" class="edge"><title>Node3&#45;&gt;Node8</title>
<path fill="none" stroke="midnightblue" d="M937.211,-63.7838C904.636,-51.1807 862.32,-34.8082 836.987,-25.007"/>
<polygon fill="midnightblue" stroke="midnightblue" points="935.957,-67.0517 946.547,-67.396 938.483,-60.5233 935.957,-67.0517"/>
</g>
<!-- Node9 -->
<g id="node9" class="node"><title>Node9</title>
<g id="a_node9"><a xlink:href="testCheckRunner_8cxx.html" target="_top" xlink:title="Framework/test/testCheck\lRunner.cxx">
<polygon fill="none" stroke="black" points="916.5,-0.5 916.5,-30.5 1049.5,-30.5 1049.5,-0.5 916.5,-0.5"/>
<text text-anchor="start" x="924.5" y="-18.5" font-family="Helvetica,sans-Serif" font-size="10.00">Framework/test/testCheck</text>
<text text-anchor="middle" x="983" y="-7.5" font-family="Helvetica,sans-Serif" font-size="10.00">Runner.cxx</text>
</a>
</g>
</g>
<!-- Node3&#45;&gt;Node9 -->
<g id="edge8" class="edge"><title>Node3&#45;&gt;Node9</title>
<path fill="none" stroke="midnightblue" d="M983,-57.1081C983,-48.1539 983,-38.3227 983,-30.5765"/>
<polygon fill="midnightblue" stroke="midnightblue" points="979.5,-57.3959 983,-67.396 986.5,-57.396 979.5,-57.3959"/>
</g>
<!-- Node10 -->
<g id="node10" class="node"><title>Node10</title>
<g id="a_node10"><a xlink:href="testCheckWorkflow_8cxx.html" target="_top" xlink:title="Framework/test/testCheck\lWorkflow.cxx">
<polygon fill="none" stroke="black" points="1410.5,-0.5 1410.5,-30.5 1543.5,-30.5 1543.5,-0.5 1410.5,-0.5"/>
<text text-anchor="start" x="1418.5" y="-18.5" font-family="Helvetica,sans-Serif" font-size="10.00">Framework/test/testCheck</text>
<text text-anchor="middle" x="1477" y="-7.5" font-family="Helvetica,sans-Serif" font-size="10.00">Workflow.cxx</text>
</a>
</g>
</g>
<!-- Node3&#45;&gt;Node10 -->
<g id="edge9" class="edge"><title>Node3&#45;&gt;Node10</title>
<path fill="none" stroke="midnightblue" d="M1059.7,-68.3336C1062.84,-67.869 1065.95,-67.4223 1069,-67 1216.02,-46.6531 1254.21,-52.9254 1401,-31 1404.06,-30.5436 1407.18,-30.0522 1410.32,-29.5357"/>
<polygon fill="midnightblue" stroke="midnightblue" points="1058.97,-64.9047 1049.61,-69.8704 1060.02,-71.8249 1058.97,-64.9047"/>
</g>
<!-- Node11 -->
<g id="node11" class="node"><title>Node11</title>
<g id="a_node11"><a xlink:href="testWorkflow_8cxx.html" target="_top" xlink:title="Framework/test/testWorkflow.cxx">
<polygon fill="none" stroke="black" points="1562,-6 1562,-25 1726,-25 1726,-6 1562,-6"/>
<text text-anchor="middle" x="1644" y="-13" font-family="Helvetica,sans-Serif" font-size="10.00">Framework/test/testWorkflow.cxx</text>
</a>
</g>
</g>
<!-- Node3&#45;&gt;Node11 -->
<g id="edge10" class="edge"><title>Node3&#45;&gt;Node11</title>
<path fill="none" stroke="midnightblue" d="M1059.68,-68.2031C1062.83,-67.7745 1065.94,-67.3709 1069,-67 1282.7,-41.0777 1338.17,-55.7775 1552,-31 1565.81,-29.3994 1580.73,-27.2378 1594.45,-25.0728"/>
<polygon fill="midnightblue" stroke="midnightblue" points="1058.98,-64.7674 1049.58,-69.6482 1059.98,-71.6969 1058.98,-64.7674"/>
</g>
<!-- Node12 -->
<g id="node12" class="node"><title>Node12</title>
<polygon fill="none" stroke="#bfbfbf" points="332,-6 332,-25 550,-25 550,-6 332,-6"/>
<text text-anchor="middle" x="441" y="-13" font-family="Helvetica,sans-Serif" font-size="10.00">Modules/EMCAL/src/runQCEMCALDigits.cxx</text>
</g>
<!-- Node3&#45;&gt;Node12 -->
<g id="edge11" class="edge"><title>Node3&#45;&gt;Node12</title>
<path fill="none" stroke="midnightblue" d="M906.085,-72.4264C821.128,-62.3836 680.285,-45.6745 559,-31 543.12,-29.0786 526.04,-26.9917 509.942,-25.0155"/>
<polygon fill="midnightblue" stroke="midnightblue" points="905.822,-75.9195 916.164,-73.6175 906.644,-68.9679 905.822,-75.9195"/>
</g>
<!-- Node13 -->
<g id="node13" class="node"><title>Node13</title>
<g id="a_node13"><a xlink:href="runTOF_8cxx.html" target="_top" xlink:title="This is an executable showing QC Task&#39;s usage in Data Processing Layer. ">
<polygon fill="none" stroke="black" points="1744.5,-6 1744.5,-25 1891.5,-25 1891.5,-6 1744.5,-6"/>
<text text-anchor="middle" x="1818" y="-13" font-family="Helvetica,sans-Serif" font-size="10.00">Modules/TOF/src/runTOF.cxx</text>
</a>
</g>
</g>
<!-- Node3&#45;&gt;Node13 -->
<g id="edge12" class="edge"><title>Node3&#45;&gt;Node13</title>
<path fill="none" stroke="midnightblue" d="M1059.67,-68.1238C1062.82,-67.717 1065.94,-67.3397 1069,-67 1363.62,-34.3057 1440.47,-64.5662 1735,-31 1748.08,-29.5093 1762.22,-27.2745 1775.06,-25.0032"/>
<polygon fill="midnightblue" stroke="midnightblue" points="1059,-64.6841 1049.56,-69.5132 1059.95,-71.619 1059,-64.6841"/>
</g>
<!-- Node14 -->
<g id="node14" class="node"><title>Node14</title>
<polygon fill="none" stroke="#bfbfbf" points="1910,-0.5 1910,-30.5 2080,-30.5 2080,-0.5 1910,-0.5"/>
<text text-anchor="start" x="1918" y="-18.5" font-family="Helvetica,sans-Serif" font-size="10.00">Modules/TPC/run/runTPCQCTrack</text>
<text text-anchor="middle" x="1995" y="-7.5" font-family="Helvetica,sans-Serif" font-size="10.00">Reader.cxx</text>
</g>
<!-- Node3&#45;&gt;Node14 -->
<g id="edge13" class="edge"><title>Node3&#45;&gt;Node14</title>
<path fill="none" stroke="midnightblue" d="M1059.67,-68.0821C1062.82,-67.6869 1065.94,-67.3233 1069,-67 1436.64,-28.1946 1532.07,-66.942 1900,-31 1903.24,-30.6837 1906.53,-30.3314 1909.86,-29.9506"/>
<polygon fill="midnightblue" stroke="midnightblue" points="1059,-64.6404 1049.56,-69.4422 1059.93,-71.5779 1059,-64.6404"/>
</g>
<!-- Node15&#45;&gt;Node5 -->
<g id="edge15" class="edge"><title>Node15&#45;&gt;Node5</title>
<path fill="none" stroke="midnightblue" d="M641,-57.1081C641,-48.1539 641,-38.3227 641,-30.5765"/>
<polygon fill="midnightblue" stroke="midnightblue" points="637.5,-57.3959 641,-67.396 644.5,-57.396 637.5,-57.3959"/>
</g>
<!-- Node15&#45;&gt;Node6 -->
<g id="edge16" class="edge"><title>Node15&#45;&gt;Node6</title>
<path fill="none" stroke="midnightblue" d="M554.853,-67.6149C553.56,-67.4084 552.275,-67.2033 551,-67 449.692,-50.8411 424.164,-48.0395 323,-31 319.901,-30.478 316.736,-29.9386 313.54,-29.3887"/>
<polygon fill="midnightblue" stroke="midnightblue" points="554.467,-71.0976 564.894,-69.2213 555.573,-64.1855 554.467,-71.0976"/>
</g>
<!-- Node15&#45;&gt;Node8 -->
<g id="edge17" class="edge"><title>Node15&#45;&gt;Node8</title>
<path fill="none" stroke="midnightblue" d="M688.425,-63.7838C722.163,-51.1807 765.99,-34.8082 792.227,-25.007"/>
<polygon fill="midnightblue" stroke="midnightblue" points="686.898,-60.6178 678.755,-67.396 689.348,-67.1752 686.898,-60.6178"/>
</g>
<!-- Node15&#45;&gt;Node9 -->
<g id="edge19" class="edge"><title>Node15&#45;&gt;Node9</title>
<path fill="none" stroke="midnightblue" d="M724.874,-65.5968C777.238,-55.6631 846.05,-42.6 907,-31 910.035,-30.4224 913.138,-29.8315 916.273,-29.2344"/>
<polygon fill="midnightblue" stroke="midnightblue" points="724.133,-62.1748 714.961,-67.4772 725.438,-69.0521 724.133,-62.1748"/>
</g>
<!-- Node15&#45;&gt;Node12 -->
<g id="edge20" class="edge"><title>Node15&#45;&gt;Node12</title>
<path fill="none" stroke="midnightblue" d="M587.981,-64.2688C549.01,-51.6034 497.721,-34.9344 467.175,-25.007"/>
<polygon fill="midnightblue" stroke="midnightblue" points="587.011,-67.6337 597.603,-67.396 589.174,-60.9764 587.011,-67.6337"/>
</g>
<!-- Node16 -->
<g id="node16" class="node"><title>Node16</title>
<polygon fill="none" stroke="#bfbfbf" points="0,-6 0,-25 152,-25 152,-6 0,-6"/>
<text text-anchor="middle" x="76" y="-13" font-family="Helvetica,sans-Serif" font-size="10.00">Framework/test/testCheck.cxx</text>
</g>
<!-- Node15&#45;&gt;Node16 -->
<g id="edge18" class="edge"><title>Node15&#45;&gt;Node16</title>
<path fill="none" stroke="midnightblue" d="M554.646,-71.1339C542.349,-69.712 529.856,-68.2965 518,-67 359.474,-49.6643 319.026,-52.4208 161,-31 148.539,-29.3109 135.104,-27.1691 122.676,-25.0536"/>
<polygon fill="midnightblue" stroke="midnightblue" points="554.574,-74.649 564.911,-72.3274 555.383,-67.6959 554.574,-74.649"/>
</g>
<!-- Node21 -->
<g id="node21" class="node"><title>Node21</title>
<g id="a_node21"><a xlink:href="MeanIsAbove_8cxx.html" target="_top" xlink:title="Modules/Common/src\l/MeanIsAbove.cxx">
<polygon fill="none" stroke="black" points="1078.5,-67.5 1078.5,-97.5 1191.5,-97.5 1191.5,-67.5 1078.5,-67.5"/>
<text text-anchor="start" x="1086.5" y="-85.5" font-family="Helvetica,sans-Serif" font-size="10.00">Modules/Common/src</text>
<text text-anchor="middle" x="1135" y="-74.5" font-family="Helvetica,sans-Serif" font-size="10.00">/MeanIsAbove.cxx</text>
</a>
</g>
</g>
<!-- Node20&#45;&gt;Node21 -->
<g id="edge27" class="edge"><title>Node20&#45;&gt;Node21</title>
<path fill="none" stroke="midnightblue" d="M1336.82,-132.086C1292,-121.297 1234.06,-107.347 1191.76,-97.1645"/>
<polygon fill="midnightblue" stroke="midnightblue" points="1336.2,-135.538 1346.75,-134.476 1337.84,-128.733 1336.2,-135.538"/>
</g>
<!-- Node22 -->
<g id="node22" class="node"><title>Node22</title>
<polygon fill="none" stroke="#bfbfbf" points="1210,-67.5 1210,-97.5 1326,-97.5 1326,-67.5 1210,-67.5"/>
<text text-anchor="start" x="1218" y="-85.5" font-family="Helvetica,sans-Serif" font-size="10.00">Modules/Common/test</text>
<text text-anchor="middle" x="1268" y="-74.5" font-family="Helvetica,sans-Serif" font-size="10.00">/testMeanIsAbove.cxx</text>
</g>
<!-- Node20&#45;&gt;Node22 -->
<g id="edge28" class="edge"><title>Node20&#45;&gt;Node22</title>
<path fill="none" stroke="midnightblue" d="M1365.99,-129.992C1344.28,-119.689 1317.67,-107.068 1297.67,-97.5765"/>
<polygon fill="midnightblue" stroke="midnightblue" points="1364.74,-133.272 1375.27,-134.396 1367.74,-126.947 1364.74,-133.272"/>
</g>
<!-- Node24 -->
<g id="node24" class="node"><title>Node24</title>
<g id="a_node24"><a xlink:href="NonEmpty_8cxx.html" target="_top" xlink:title="Modules/Common/src\l/NonEmpty.cxx">
<polygon fill="none" stroke="black" points="1344.5,-67.5 1344.5,-97.5 1457.5,-97.5 1457.5,-67.5 1344.5,-67.5"/>
<text text-anchor="start" x="1352.5" y="-85.5" font-family="Helvetica,sans-Serif" font-size="10.00">Modules/Common/src</text>
<text text-anchor="middle" x="1401" y="-74.5" font-family="Helvetica,sans-Serif" font-size="10.00">/NonEmpty.cxx</text>
</a>
</g>
</g>
<!-- Node23&#45;&gt;Node24 -->
<g id="edge30" class="edge"><title>Node23&#45;&gt;Node24</title>
<path fill="none" stroke="midnightblue" d="M1511.41,-130.407C1486.98,-120.029 1456.78,-107.195 1434.13,-97.5765"/>
<polygon fill="midnightblue" stroke="midnightblue" points="1510.23,-133.707 1520.8,-134.396 1512.97,-127.264 1510.23,-133.707"/>
</g>
<!-- Node25 -->
<g id="node25" class="node"><title>Node25</title>
<g id="a_node25"><a xlink:href="testNonEmpty_8cxx.html" target="_top" xlink:title="Modules/Common/test\l/testNonEmpty.cxx">
<polygon fill="none" stroke="black" points="1476,-67.5 1476,-97.5 1592,-97.5 1592,-67.5 1476,-67.5"/>
<text text-anchor="start" x="1484" y="-85.5" font-family="Helvetica,sans-Serif" font-size="10.00">Modules/Common/test</text>
<text text-anchor="middle" x="1534" y="-74.5" font-family="Helvetica,sans-Serif" font-size="10.00">/testNonEmpty.cxx</text>
</a>
</g>
</g>
<!-- Node23&#45;&gt;Node25 -->
<g id="edge31" class="edge"><title>Node23&#45;&gt;Node25</title>
<path fill="none" stroke="midnightblue" d="M1546.68,-124.697C1543.87,-115.587 1540.77,-105.493 1538.33,-97.5765"/>
<polygon fill="midnightblue" stroke="midnightblue" points="1543.37,-125.867 1549.66,-134.396 1550.06,-123.809 1543.37,-125.867"/>
</g>
<!-- Node27 -->
<g id="node27" class="node"><title>Node27</title>
<g id="a_node27"><a xlink:href="EverIncreasingGraph_8cxx.html" target="_top" xlink:title="Modules/Daq/src/EverIncreasing\lGraph.cxx">
<polygon fill="none" stroke="black" points="1609.5,-67.5 1609.5,-97.5 1768.5,-97.5 1768.5,-67.5 1609.5,-67.5"/>
<text text-anchor="start" x="1617.5" y="-85.5" font-family="Helvetica,sans-Serif" font-size="10.00">Modules/Daq/src/EverIncreasing</text>
<text text-anchor="middle" x="1689" y="-74.5" font-family="Helvetica,sans-Serif" font-size="10.00">Graph.cxx</text>
</a>
</g>
</g>
<!-- Node26&#45;&gt;Node27 -->
<g id="edge33" class="edge"><title>Node26&#45;&gt;Node27</title>
<path fill="none" stroke="midnightblue" d="M1700.41,-124.697C1697.89,-115.587 1695.09,-105.493 1692.9,-97.5765"/>
<polygon fill="midnightblue" stroke="midnightblue" points="1697.05,-125.693 1703.09,-134.396 1703.8,-123.825 1697.05,-125.693"/>
</g>
<!-- Node29 -->
<g id="node29" class="node"><title>Node29</title>
<g id="a_node29"><a xlink:href="DigitCheck_8cxx.html" target="_top" xlink:title="Modules/EMCAL/src/DigitCheck.cxx">
<polygon fill="none" stroke="black" points="1786,-73 1786,-92 1964,-92 1964,-73 1786,-73"/>
<text text-anchor="middle" x="1875" y="-80" font-family="Helvetica,sans-Serif" font-size="10.00">Modules/EMCAL/src/DigitCheck.cxx</text>
</a>
</g>
</g>
<!-- Node28&#45;&gt;Node29 -->
<g id="edge35" class="edge"><title>Node28&#45;&gt;Node29</title>
<path fill="none" stroke="midnightblue" d="M1864.25,-124.596C1867.21,-113.278 1870.56,-100.461 1872.73,-92.1945"/>
<polygon fill="midnightblue" stroke="midnightblue" points="1860.83,-123.836 1861.69,-134.396 1867.61,-125.607 1860.83,-123.836"/>
</g>
<!-- Node31 -->
<g id="node31" class="node"><title>Node31</title>
<g id="a_node31"><a xlink:href="FakeCheck_8cxx.html" target="_top" xlink:title="Modules/Example/src\l/FakeCheck.cxx">
<polygon fill="none" stroke="black" points="1981.5,-67.5 1981.5,-97.5 2092.5,-97.5 2092.5,-67.5 1981.5,-67.5"/>
<text text-anchor="start" x="1989.5" y="-85.5" font-family="Helvetica,sans-Serif" font-size="10.00">Modules/Example/src</text>
<text text-anchor="middle" x="2037" y="-74.5" font-family="Helvetica,sans-Serif" font-size="10.00">/FakeCheck.cxx</text>
</a>
</g>
</g>
<!-- Node30&#45;&gt;Node31 -->
<g id="edge37" class="edge"><title>Node30&#45;&gt;Node31</title>
<path fill="none" stroke="midnightblue" d="M2015.14,-125.283C2019.99,-116.022 2025.41,-105.663 2029.64,-97.5765"/>
<polygon fill="midnightblue" stroke="midnightblue" points="2011.91,-123.913 2010.38,-134.396 2018.11,-127.157 2011.91,-123.913"/>
</g>
<!-- Node33 -->
<g id="node33" class="node"><title>Node33</title>
<g id="a_node33"><a xlink:href="BasicDigitQcCheck_8cxx.html" target="_top" xlink:title="Modules/MFT/src/BasicDigit\lQcCheck.cxx">
<polygon fill="none" stroke="black" points="2110.5,-67.5 2110.5,-97.5 2251.5,-97.5 2251.5,-67.5 2110.5,-67.5"/>
<text text-anchor="start" x="2118.5" y="-85.5" font-family="Helvetica,sans-Serif" font-size="10.00">Modules/MFT/src/BasicDigit</text>
<text text-anchor="middle" x="2181" y="-74.5" font-family="Helvetica,sans-Serif" font-size="10.00">QcCheck.cxx</text>
</a>
</g>
</g>
<!-- Node32&#45;&gt;Node33 -->
<g id="edge39" class="edge"><title>Node32&#45;&gt;Node33</title>
<path fill="none" stroke="midnightblue" d="M2163.77,-124.991C2167.58,-115.804 2171.83,-105.578 2175.15,-97.5765"/>
<polygon fill="midnightblue" stroke="midnightblue" points="2160.46,-123.818 2159.86,-134.396 2166.93,-126.504 2160.46,-123.818"/>
</g>
<!-- Node35 -->
<g id="node35" class="node"><title>Node35</title>
<g id="a_node35"><a xlink:href="SkeletonCheck_8cxx.html" target="_top" xlink:title="Modules/Skeleton/src\l/SkeletonCheck.cxx">
<polygon fill="none" stroke="black" points="2269.5,-67.5 2269.5,-97.5 2380.5,-97.5 2380.5,-67.5 2269.5,-67.5"/>
<text text-anchor="start" x="2277.5" y="-85.5" font-family="Helvetica,sans-Serif" font-size="10.00">Modules/Skeleton/src</text>
<text text-anchor="middle" x="2325" y="-74.5" font-family="Helvetica,sans-Serif" font-size="10.00">/SkeletonCheck.cxx</text>
</a>
</g>
</g>
<!-- Node34&#45;&gt;Node35 -->
<g id="edge41" class="edge"><title>Node34&#45;&gt;Node35</title>
<path fill="none" stroke="midnightblue" d="M2314.93,-124.403C2317.16,-115.37 2319.61,-105.408 2321.54,-97.5765"/>
<polygon fill="midnightblue" stroke="midnightblue" points="2311.46,-123.849 2312.47,-134.396 2318.26,-125.522 2311.46,-123.849"/>
</g>
<!-- Node37 -->
<g id="node37" class="node"><title>Node37</title>
<g id="a_node37"><a xlink:href="TOFCheckRawsMulti_8cxx.html" target="_top" xlink:title="Modules/TOF/src/TOFCheck\lRawsMulti.cxx">
<polygon fill="none" stroke="black" points="2398.5,-67.5 2398.5,-97.5 2541.5,-97.5 2541.5,-67.5 2398.5,-67.5"/>
<text text-anchor="start" x="2406.5" y="-85.5" font-family="Helvetica,sans-Serif" font-size="10.00">Modules/TOF/src/TOFCheck</text>
<text text-anchor="middle" x="2470" y="-74.5" font-family="Helvetica,sans-Serif" font-size="10.00">RawsMulti.cxx</text>
</a>
</g>
</g>
<!-- Node36&#45;&gt;Node37 -->
<g id="edge43" class="edge"><title>Node36&#45;&gt;Node37</title>
<path fill="none" stroke="midnightblue" d="M2468.75,-124.108C2469.03,-115.154 2469.33,-105.323 2469.57,-97.5765"/>
<polygon fill="midnightblue" stroke="midnightblue" points="2465.24,-124.293 2468.43,-134.396 2472.24,-124.508 2465.24,-124.293"/>
</g>
<!-- Node39 -->
<g id="node39" class="node"><title>Node39</title>
<g id="a_node39"><a xlink:href="TOFCheckRawsTime_8cxx.html" target="_top" xlink:title="Modules/TOF/src/TOFCheck\lRawsTime.cxx">
<polygon fill="none" stroke="black" points="2560.5,-67.5 2560.5,-97.5 2703.5,-97.5 2703.5,-67.5 2560.5,-67.5"/>
<text text-anchor="start" x="2568.5" y="-85.5" font-family="Helvetica,sans-Serif" font-size="10.00">Modules/TOF/src/TOFCheck</text>
<text text-anchor="middle" x="2632" y="-74.5" font-family="Helvetica,sans-Serif" font-size="10.00">RawsTime.cxx</text>
</a>
</g>
</g>
<!-- Node38&#45;&gt;Node39 -->
<g id="edge45" class="edge"><title>Node38&#45;&gt;Node39</title>
<path fill="none" stroke="midnightblue" d="M2632,-124.108C2632,-115.154 2632,-105.323 2632,-97.5765"/>
<polygon fill="midnightblue" stroke="midnightblue" points="2628.5,-124.396 2632,-134.396 2635.5,-124.396 2628.5,-124.396"/>
</g>
<!-- Node41 -->
<g id="node41" class="node"><title>Node41</title>
<g id="a_node41"><a xlink:href="TOFCheckRawsToT_8cxx.html" target="_top" xlink:title="Modules/TOF/src/TOFCheck\lRawsToT.cxx">
<polygon fill="none" stroke="black" points="2722.5,-67.5 2722.5,-97.5 2865.5,-97.5 2865.5,-67.5 2722.5,-67.5"/>
<text text-anchor="start" x="2730.5" y="-85.5" font-family="Helvetica,sans-Serif" font-size="10.00">Modules/TOF/src/TOFCheck</text>
<text text-anchor="middle" x="2794" y="-74.5" font-family="Helvetica,sans-Serif" font-size="10.00">RawsToT.cxx</text>
</a>
</g>
</g>
<!-- Node40&#45;&gt;Node41 -->
<g id="edge47" class="edge"><title>Node40&#45;&gt;Node41</title>
<path fill="none" stroke="midnightblue" d="M2794,-124.108C2794,-115.154 2794,-105.323 2794,-97.5765"/>
<polygon fill="midnightblue" stroke="midnightblue" points="2790.5,-124.396 2794,-134.396 2797.5,-124.396 2790.5,-124.396"/>
</g>
</g>
</svg>
