<?xml version="1.0" encoding="UTF-8" standalone="no"?>
<!DOCTYPE svg PUBLIC "-//W3C//DTD SVG 1.1//EN"
 "http://www.w3.org/Graphics/SVG/1.1/DTD/svg11.dtd">
<!-- Generated by graphviz version 2.38.0 (20140413.2041)
 -->
<!-- Title: o2::quality_control::checker::CheckInterface Pages: 1 -->
<svg width="1962pt" height="336pt"
 viewBox="0.00 0.00 1962.00 336.00" xmlns="http://www.w3.org/2000/svg" xmlns:xlink="http://www.w3.org/1999/xlink">
<g id="graph0" class="graph" transform="scale(1 1) rotate(0) translate(4 332)">
<title>o2::quality_control::checker::CheckInterface</title>
<!-- Node1 -->
<g id="node1" class="node"><title>Node1</title>
<polygon fill="#bfbfbf" stroke="black" points="918,-182.5 918,-327.5 1048,-327.5 1048,-182.5 918,-182.5"/>
<text text-anchor="start" x="926" y="-315.5" font-family="Helvetica,sans-Serif" font-size="10.00">o2::quality_control</text>
<text text-anchor="middle" x="983" y="-304.5" font-family="Helvetica,sans-Serif" font-size="10.00">::checker::CheckInterface</text>
<polyline fill="none" stroke="black" points="918,-297.5 1048,-297.5 "/>
<text text-anchor="middle" x="983" y="-285.5" font-family="Helvetica,sans-Serif" font-size="10.00"> </text>
<polyline fill="none" stroke="black" points="918,-278.5 1048,-278.5 "/>
<text text-anchor="start" x="926" y="-266.5" font-family="Helvetica,sans-Serif" font-size="10.00">+ CheckInterface()</text>
<text text-anchor="start" x="926" y="-255.5" font-family="Helvetica,sans-Serif" font-size="10.00">+ ~CheckInterface()</text>
<text text-anchor="start" x="926" y="-244.5" font-family="Helvetica,sans-Serif" font-size="10.00">+ configure()</text>
<text text-anchor="start" x="926" y="-233.5" font-family="Helvetica,sans-Serif" font-size="10.00">+ check()</text>
<text text-anchor="start" x="926" y="-222.5" font-family="Helvetica,sans-Serif" font-size="10.00">+ beautify()</text>
<text text-anchor="start" x="926" y="-211.5" font-family="Helvetica,sans-Serif" font-size="10.00">+ getAcceptedType()</text>
<text text-anchor="start" x="926" y="-200.5" font-family="Helvetica,sans-Serif" font-size="10.00">+ isObjectCheckable()</text>
<text text-anchor="start" x="926" y="-189.5" font-family="Helvetica,sans-Serif" font-size="10.00">+ isObjectCheckable()</text>
</g>
<!-- Node2 -->
<g id="node2" class="node"><title>Node2</title>
<g id="a_node2"><a xlink:href="classo2_1_1quality__control_1_1test_1_1TestCheck.html" target="_top" xlink:title="{o2::quality_control\l::test::TestCheck\n|+ mValidString\l|+ TestCheck()\l+ ~TestCheck()\l+ configure()\l+ check()\l+ beautify()\l+ getAcceptedType()\l}">
<polygon fill="none" stroke="black" points="0,-11.5 0,-134.5 108,-134.5 108,-11.5 0,-11.5"/>
<text text-anchor="start" x="8" y="-122.5" font-family="Helvetica,sans-Serif" font-size="10.00">o2::quality_control</text>
<text text-anchor="middle" x="54" y="-111.5" font-family="Helvetica,sans-Serif" font-size="10.00">::test::TestCheck</text>
<polyline fill="none" stroke="black" points="0,-104.5 108,-104.5 "/>
<text text-anchor="start" x="8" y="-92.5" font-family="Helvetica,sans-Serif" font-size="10.00">+ mValidString</text>
<polyline fill="none" stroke="black" points="0,-85.5 108,-85.5 "/>
<text text-anchor="start" x="8" y="-73.5" font-family="Helvetica,sans-Serif" font-size="10.00">+ TestCheck()</text>
<text text-anchor="start" x="8" y="-62.5" font-family="Helvetica,sans-Serif" font-size="10.00">+ ~TestCheck()</text>
<text text-anchor="start" x="8" y="-51.5" font-family="Helvetica,sans-Serif" font-size="10.00">+ configure()</text>
<text text-anchor="start" x="8" y="-40.5" font-family="Helvetica,sans-Serif" font-size="10.00">+ check()</text>
<text text-anchor="start" x="8" y="-29.5" font-family="Helvetica,sans-Serif" font-size="10.00">+ beautify()</text>
<text text-anchor="start" x="8" y="-18.5" font-family="Helvetica,sans-Serif" font-size="10.00">+ getAcceptedType()</text>
</a>
</g>
</g>
<!-- Node1&#45;&gt;Node2 -->
<g id="edge1" class="edge"><title>Node1&#45;&gt;Node2</title>
<path fill="none" stroke="midnightblue" d="M907.601,-251.427C723.019,-244.054 253.596,-218.511 117,-146 111.132,-142.885 105.559,-138.985 100.333,-134.623"/>
<polygon fill="none" stroke="midnightblue" points="907.63,-254.93 917.76,-251.825 907.905,-247.936 907.63,-254.93"/>
</g>
<!-- Node3 -->
<g id="node3" class="node"><title>Node3</title>
<g id="a_node3"><a xlink:href="classo2_1_1quality__control__modules_1_1common_1_1MeanIsAbove.html" target="_top" xlink:title="Check whether the mean of the plot is above a certain limit. ">
<polygon fill="none" stroke="black" points="126,-11.5 126,-134.5 294,-134.5 294,-11.5 126,-11.5"/>
<text text-anchor="start" x="134" y="-122.5" font-family="Helvetica,sans-Serif" font-size="10.00">o2::quality_control</text>
<text text-anchor="middle" x="210" y="-111.5" font-family="Helvetica,sans-Serif" font-size="10.00">_modules::common::MeanIsAbove</text>
<polyline fill="none" stroke="black" points="126,-104.5 294,-104.5 "/>
<text text-anchor="middle" x="210" y="-92.5" font-family="Helvetica,sans-Serif" font-size="10.00"> </text>
<polyline fill="none" stroke="black" points="126,-85.5 294,-85.5 "/>
<text text-anchor="start" x="134" y="-73.5" font-family="Helvetica,sans-Serif" font-size="10.00">+ MeanIsAbove()</text>
<text text-anchor="start" x="134" y="-62.5" font-family="Helvetica,sans-Serif" font-size="10.00">+ ~MeanIsAbove()</text>
<text text-anchor="start" x="134" y="-51.5" font-family="Helvetica,sans-Serif" font-size="10.00">+ configure()</text>
<text text-anchor="start" x="134" y="-40.5" font-family="Helvetica,sans-Serif" font-size="10.00">+ check()</text>
<text text-anchor="start" x="134" y="-29.5" font-family="Helvetica,sans-Serif" font-size="10.00">+ beautify()</text>
<text text-anchor="start" x="134" y="-18.5" font-family="Helvetica,sans-Serif" font-size="10.00">+ getAcceptedType()</text>
</a>
</g>
</g>
<!-- Node1&#45;&gt;Node3 -->
<g id="edge2" class="edge"><title>Node1&#45;&gt;Node3</title>
<path fill="none" stroke="midnightblue" d="M907.529,-254.055C778.353,-251.573 508.901,-235.04 303,-146 295.597,-142.799 288.264,-138.871 281.157,-134.518"/>
<polygon fill="none" stroke="midnightblue" points="907.653,-257.558 917.711,-254.227 907.771,-250.559 907.653,-257.558"/>
</g>
<!-- Node4 -->
<g id="node4" class="node"><title>Node4</title>
<g id="a_node4"><a xlink:href="classo2_1_1quality__control__modules_1_1common_1_1NonEmpty.html" target="_top" xlink:title="Check whether a plot is empty or not. ">
<polygon fill="none" stroke="black" points="312.5,-6 312.5,-140 467.5,-140 467.5,-6 312.5,-6"/>
<text text-anchor="start" x="320.5" y="-128" font-family="Helvetica,sans-Serif" font-size="10.00">o2::quality_control</text>
<text text-anchor="middle" x="390" y="-117" font-family="Helvetica,sans-Serif" font-size="10.00">_modules::common::NonEmpty</text>
<polyline fill="none" stroke="black" points="312.5,-110 467.5,-110 "/>
<text text-anchor="middle" x="390" y="-98" font-family="Helvetica,sans-Serif" font-size="10.00"> </text>
<polyline fill="none" stroke="black" points="312.5,-91 467.5,-91 "/>
<text text-anchor="start" x="320.5" y="-79" font-family="Helvetica,sans-Serif" font-size="10.00">+ NonEmpty()</text>
<text text-anchor="start" x="320.5" y="-68" font-family="Helvetica,sans-Serif" font-size="10.00">+ ~NonEmpty()</text>
<text text-anchor="start" x="320.5" y="-57" font-family="Helvetica,sans-Serif" font-size="10.00">+ configure()</text>
<text text-anchor="start" x="320.5" y="-46" font-family="Helvetica,sans-Serif" font-size="10.00">+ check()</text>
<text text-anchor="start" x="320.5" y="-35" font-family="Helvetica,sans-Serif" font-size="10.00">+ beautify()</text>
<text text-anchor="start" x="320.5" y="-24" font-family="Helvetica,sans-Serif" font-size="10.00">+ getAcceptedType()</text>
<text text-anchor="start" x="320.5" y="-13" font-family="Helvetica,sans-Serif" font-size="10.00">+ ClassDefOverride()</text>
</a>
</g>
</g>
<!-- Node1&#45;&gt;Node4 -->
<g id="edge3" class="edge"><title>Node1&#45;&gt;Node4</title>
<path fill="none" stroke="midnightblue" d="M907.677,-249.162C805.521,-240.154 619.46,-214.958 477,-146 473.294,-144.206 469.611,-142.222 465.971,-140.091"/>
<polygon fill="none" stroke="midnightblue" points="907.639,-252.671 917.9,-250.033 908.234,-245.696 907.639,-252.671"/>
</g>
<!-- Node5 -->
<g id="node5" class="node"><title>Node5</title>
<g id="a_node5"><a xlink:href="classo2_1_1quality__control__modules_1_1daq_1_1EverIncreasingGraph.html" target="_top" xlink:title="Check whether a plot is empty or not. ">
<polygon fill="none" stroke="black" points="486,-6 486,-140 638,-140 638,-6 486,-6"/>
<text text-anchor="start" x="494" y="-128" font-family="Helvetica,sans-Serif" font-size="10.00">o2::quality_control</text>
<text text-anchor="start" x="494" y="-117" font-family="Helvetica,sans-Serif" font-size="10.00">_modules::daq::EverIncreasing</text>
<text text-anchor="middle" x="562" y="-106" font-family="Helvetica,sans-Serif" font-size="10.00">Graph</text>
<polyline fill="none" stroke="black" points="486,-99 638,-99 "/>
<text text-anchor="middle" x="562" y="-87" font-family="Helvetica,sans-Serif" font-size="10.00"> </text>
<polyline fill="none" stroke="black" points="486,-80 638,-80 "/>
<text text-anchor="start" x="494" y="-68" font-family="Helvetica,sans-Serif" font-size="10.00">+ EverIncreasingGraph()</text>
<text text-anchor="start" x="494" y="-57" font-family="Helvetica,sans-Serif" font-size="10.00">+ ~EverIncreasingGraph()</text>
<text text-anchor="start" x="494" y="-46" font-family="Helvetica,sans-Serif" font-size="10.00">+ configure()</text>
<text text-anchor="start" x="494" y="-35" font-family="Helvetica,sans-Serif" font-size="10.00">+ check()</text>
<text text-anchor="start" x="494" y="-24" font-family="Helvetica,sans-Serif" font-size="10.00">+ beautify()</text>
<text text-anchor="start" x="494" y="-13" font-family="Helvetica,sans-Serif" font-size="10.00">+ getAcceptedType()</text>
</a>
</g>
</g>
<!-- Node1&#45;&gt;Node5 -->
<g id="edge4" class="edge"><title>Node1&#45;&gt;Node5</title>
<path fill="none" stroke="midnightblue" d="M907.6,-238.701C837.157,-222.385 730.606,-192.425 647,-146 643.703,-144.169 640.415,-142.2 637.154,-140.123"/>
<polygon fill="none" stroke="midnightblue" points="907.196,-242.199 917.724,-241.01 908.752,-235.374 907.196,-242.199"/>
</g>
<!-- Node6 -->
<g id="node6" class="node"><title>Node6</title>
<g id="a_node6"><a xlink:href="classo2_1_1quality__control__modules_1_1emcal_1_1DigitCheck.html" target="_top" xlink:title="Check whether a plot is empty or not. ">
<polygon fill="none" stroke="black" points="656,-6 656,-140 802,-140 802,-6 656,-6"/>
<text text-anchor="start" x="664" y="-128" font-family="Helvetica,sans-Serif" font-size="10.00">o2::quality_control</text>
<text text-anchor="middle" x="729" y="-117" font-family="Helvetica,sans-Serif" font-size="10.00">_modules::emcal::DigitCheck</text>
<polyline fill="none" stroke="black" points="656,-110 802,-110 "/>
<text text-anchor="middle" x="729" y="-98" font-family="Helvetica,sans-Serif" font-size="10.00"> </text>
<polyline fill="none" stroke="black" points="656,-91 802,-91 "/>
<text text-anchor="start" x="664" y="-79" font-family="Helvetica,sans-Serif" font-size="10.00">+ DigitCheck()</text>
<text text-anchor="start" x="664" y="-68" font-family="Helvetica,sans-Serif" font-size="10.00">+ ~DigitCheck()</text>
<text text-anchor="start" x="664" y="-57" font-family="Helvetica,sans-Serif" font-size="10.00">+ configure()</text>
<text text-anchor="start" x="664" y="-46" font-family="Helvetica,sans-Serif" font-size="10.00">+ check()</text>
<text text-anchor="start" x="664" y="-35" font-family="Helvetica,sans-Serif" font-size="10.00">+ beautify()</text>
<text text-anchor="start" x="664" y="-24" font-family="Helvetica,sans-Serif" font-size="10.00">+ getAcceptedType()</text>
<text text-anchor="start" x="664" y="-13" font-family="Helvetica,sans-Serif" font-size="10.00">+ ClassDefOverride()</text>
</a>
</g>
</g>
<!-- Node1&#45;&gt;Node6 -->
<g id="edge5" class="edge"><title>Node1&#45;&gt;Node6</title>
<path fill="none" stroke="midnightblue" d="M909.056,-211.143C878.02,-192.25 842.007,-169.116 811,-146 808.114,-143.849 805.205,-141.62 802.292,-139.337"/>
<polygon fill="none" stroke="midnightblue" points="907.302,-214.173 917.669,-216.356 910.926,-208.184 907.302,-214.173"/>
</g>
<!-- Node7 -->
<g id="node7" class="node"><title>Node7</title>
<g id="a_node7"><a xlink:href="classo2_1_1quality__control__modules_1_1example_1_1FakeCheck.html" target="_top" xlink:title="Check whether a plot is empty or not. ">
<polygon fill="none" stroke="black" points="820,-6 820,-140 978,-140 978,-6 820,-6"/>
<text text-anchor="start" x="828" y="-128" font-family="Helvetica,sans-Serif" font-size="10.00">o2::quality_control</text>
<text text-anchor="middle" x="899" y="-117" font-family="Helvetica,sans-Serif" font-size="10.00">_modules::example::FakeCheck</text>
<polyline fill="none" stroke="black" points="820,-110 978,-110 "/>
<text text-anchor="middle" x="899" y="-98" font-family="Helvetica,sans-Serif" font-size="10.00"> </text>
<polyline fill="none" stroke="black" points="820,-91 978,-91 "/>
<text text-anchor="start" x="828" y="-79" font-family="Helvetica,sans-Serif" font-size="10.00">+ FakeCheck()</text>
<text text-anchor="start" x="828" y="-68" font-family="Helvetica,sans-Serif" font-size="10.00">+ ~FakeCheck()</text>
<text text-anchor="start" x="828" y="-57" font-family="Helvetica,sans-Serif" font-size="10.00">+ configure()</text>
<text text-anchor="start" x="828" y="-46" font-family="Helvetica,sans-Serif" font-size="10.00">+ check()</text>
<text text-anchor="start" x="828" y="-35" font-family="Helvetica,sans-Serif" font-size="10.00">+ beautify()</text>
<text text-anchor="start" x="828" y="-24" font-family="Helvetica,sans-Serif" font-size="10.00">+ getAcceptedType()</text>
<text text-anchor="start" x="828" y="-13" font-family="Helvetica,sans-Serif" font-size="10.00">+ ClassDefOverride()</text>
</a>
</g>
</g>
<!-- Node1&#45;&gt;Node7 -->
<g id="edge6" class="edge"><title>Node1&#45;&gt;Node7</title>
<path fill="none" stroke="midnightblue" d="M945.262,-173.133C940.114,-162.1 934.879,-150.883 929.871,-140.153"/>
<polygon fill="none" stroke="midnightblue" points="942.159,-174.76 949.56,-182.342 948.502,-171.8 942.159,-174.76"/>
</g>
<!-- Node8 -->
<g id="node8" class="node"><title>Node8</title>
<g id="a_node8"><a xlink:href="classo2_1_1quality__control__modules_1_1mft_1_1BasicDigitQcCheck.html" target="_top" xlink:title="Check whether a plot is empty or not. ">
<polygon fill="none" stroke="black" points="996.5,-0.5 996.5,-145.5 1139.5,-145.5 1139.5,-0.5 996.5,-0.5"/>
<text text-anchor="start" x="1004.5" y="-133.5" font-family="Helvetica,sans-Serif" font-size="10.00">o2::quality_control</text>
<text text-anchor="start" x="1004.5" y="-122.5" font-family="Helvetica,sans-Serif" font-size="10.00">_modules::mft::BasicDigitQc</text>
<text text-anchor="middle" x="1068" y="-111.5" font-family="Helvetica,sans-Serif" font-size="10.00">Check</text>
<polyline fill="none" stroke="black" points="996.5,-104.5 1139.5,-104.5 "/>
<text text-anchor="middle" x="1068" y="-92.5" font-family="Helvetica,sans-Serif" font-size="10.00"> </text>
<polyline fill="none" stroke="black" points="996.5,-85.5 1139.5,-85.5 "/>
<text text-anchor="start" x="1004.5" y="-73.5" font-family="Helvetica,sans-Serif" font-size="10.00">+ BasicDigitQcCheck()</text>
<text text-anchor="start" x="1004.5" y="-62.5" font-family="Helvetica,sans-Serif" font-size="10.00">+ ~BasicDigitQcCheck()</text>
<text text-anchor="start" x="1004.5" y="-51.5" font-family="Helvetica,sans-Serif" font-size="10.00">+ configure()</text>
<text text-anchor="start" x="1004.5" y="-40.5" font-family="Helvetica,sans-Serif" font-size="10.00">+ check()</text>
<text text-anchor="start" x="1004.5" y="-29.5" font-family="Helvetica,sans-Serif" font-size="10.00">+ beautify()</text>
<text text-anchor="start" x="1004.5" y="-18.5" font-family="Helvetica,sans-Serif" font-size="10.00">+ getAcceptedType()</text>
<text text-anchor="start" x="1004.5" y="-7.5" font-family="Helvetica,sans-Serif" font-size="10.00">+ ClassDefOverride()</text>
</a>
</g>
</g>
<!-- Node1&#45;&gt;Node8 -->
<g id="edge7" class="edge"><title>Node1&#45;&gt;Node8</title>
<path fill="none" stroke="midnightblue" d="M1021.14,-173.226C1025.47,-164.053 1029.87,-154.751 1034.14,-145.705"/>
<polygon fill="none" stroke="midnightblue" points="1017.94,-171.805 1016.84,-182.342 1024.27,-174.794 1017.94,-171.805"/>
</g>
<!-- Node9 -->
<g id="node9" class="node"><title>Node9</title>
<g id="a_node9"><a xlink:href="classo2_1_1quality__control__modules_1_1skeleton_1_1SkeletonCheck.html" target="_top" xlink:title="Check whether a plot is empty or not. ">
<polygon fill="none" stroke="black" points="1158,-0.5 1158,-145.5 1268,-145.5 1268,-0.5 1158,-0.5"/>
<text text-anchor="start" x="1166" y="-133.5" font-family="Helvetica,sans-Serif" font-size="10.00">o2::quality_control</text>
<text text-anchor="start" x="1166" y="-122.5" font-family="Helvetica,sans-Serif" font-size="10.00">_modules::skeleton::</text>
<text text-anchor="middle" x="1213" y="-111.5" font-family="Helvetica,sans-Serif" font-size="10.00">SkeletonCheck</text>
<polyline fill="none" stroke="black" points="1158,-104.5 1268,-104.5 "/>
<text text-anchor="middle" x="1213" y="-92.5" font-family="Helvetica,sans-Serif" font-size="10.00"> </text>
<polyline fill="none" stroke="black" points="1158,-85.5 1268,-85.5 "/>
<text text-anchor="start" x="1166" y="-73.5" font-family="Helvetica,sans-Serif" font-size="10.00">+ SkeletonCheck()</text>
<text text-anchor="start" x="1166" y="-62.5" font-family="Helvetica,sans-Serif" font-size="10.00">+ ~SkeletonCheck()</text>
<text text-anchor="start" x="1166" y="-51.5" font-family="Helvetica,sans-Serif" font-size="10.00">+ configure()</text>
<text text-anchor="start" x="1166" y="-40.5" font-family="Helvetica,sans-Serif" font-size="10.00">+ check()</text>
<text text-anchor="start" x="1166" y="-29.5" font-family="Helvetica,sans-Serif" font-size="10.00">+ beautify()</text>
<text text-anchor="start" x="1166" y="-18.5" font-family="Helvetica,sans-Serif" font-size="10.00">+ getAcceptedType()</text>
<text text-anchor="start" x="1166" y="-7.5" font-family="Helvetica,sans-Serif" font-size="10.00">+ ClassDefOverride()</text>
</a>
</g>
</g>
<!-- Node1&#45;&gt;Node9 -->
<g id="edge8" class="edge"><title>Node1&#45;&gt;Node9</title>
<path fill="none" stroke="midnightblue" d="M1056.82,-211.888C1086.71,-193.355 1120.77,-170.287 1149,-146 1151.92,-143.491 1154.82,-140.852 1157.7,-138.126"/>
<polygon fill="none" stroke="midnightblue" points="1054.78,-209.027 1048.09,-217.241 1058.45,-214.994 1054.78,-209.027"/>
</g>
<!-- Node10 -->
<g id="node10" class="node"><title>Node10</title>
<g id="a_node10"><a xlink:href="classo2_1_1quality__control__modules_1_1tof_1_1TOFCheckRawsMulti.html" target="_top" xlink:title="Check whether a plot is empty or not. ">
<polygon fill="none" stroke="black" points="1286.5,-0.5 1286.5,-145.5 1441.5,-145.5 1441.5,-0.5 1286.5,-0.5"/>
<text text-anchor="start" x="1294.5" y="-133.5" font-family="Helvetica,sans-Serif" font-size="10.00">o2::quality_control</text>
<text text-anchor="start" x="1294.5" y="-122.5" font-family="Helvetica,sans-Serif" font-size="10.00">_modules::tof::TOFCheckRaws</text>
<text text-anchor="middle" x="1364" y="-111.5" font-family="Helvetica,sans-Serif" font-size="10.00">Multi</text>
<polyline fill="none" stroke="black" points="1286.5,-104.5 1441.5,-104.5 "/>
<text text-anchor="start" x="1294.5" y="-92.5" font-family="Helvetica,sans-Serif" font-size="10.00">+ minTOFrawhits</text>
<text text-anchor="start" x="1294.5" y="-81.5" font-family="Helvetica,sans-Serif" font-size="10.00">+ maxTOFrawhits</text>
<polyline fill="none" stroke="black" points="1286.5,-74.5 1441.5,-74.5 "/>
<text text-anchor="start" x="1294.5" y="-62.5" font-family="Helvetica,sans-Serif" font-size="10.00">+ TOFCheckRawsMulti()</text>
<text text-anchor="start" x="1294.5" y="-51.5" font-family="Helvetica,sans-Serif" font-size="10.00">+ ~TOFCheckRawsMulti()</text>
<text text-anchor="start" x="1294.5" y="-40.5" font-family="Helvetica,sans-Serif" font-size="10.00">+ configure()</text>
<text text-anchor="start" x="1294.5" y="-29.5" font-family="Helvetica,sans-Serif" font-size="10.00">+ check()</text>
<text text-anchor="start" x="1294.5" y="-18.5" font-family="Helvetica,sans-Serif" font-size="10.00">+ beautify()</text>
<text text-anchor="start" x="1294.5" y="-7.5" font-family="Helvetica,sans-Serif" font-size="10.00">+ getAcceptedType()</text>
</a>
</g>
</g>
<!-- Node1&#45;&gt;Node10 -->
<g id="edge9" class="edge"><title>Node1&#45;&gt;Node10</title>
<path fill="none" stroke="midnightblue" d="M1057.89,-234.169C1119.21,-216.158 1206.97,-186.255 1277,-146 1280.14,-144.192 1283.29,-142.27 1286.42,-140.259"/>
<polygon fill="none" stroke="midnightblue" points="1056.91,-230.809 1048.28,-236.957 1058.86,-237.531 1056.91,-230.809"/>
</g>
<!-- Node11 -->
<g id="node11" class="node"><title>Node11</title>
<g id="a_node11"><a xlink:href="classo2_1_1quality__control__modules_1_1tof_1_1TOFCheckRawsTime.html" target="_top" xlink:title="Check whether a plot is empty or not. ">
<polygon fill="none" stroke="black" points="1459.5,-6 1459.5,-140 1636.5,-140 1636.5,-6 1459.5,-6"/>
<text text-anchor="start" x="1467.5" y="-128" font-family="Helvetica,sans-Serif" font-size="10.00">o2::quality_control</text>
<text text-anchor="middle" x="1548" y="-117" font-family="Helvetica,sans-Serif" font-size="10.00">_modules::tof::TOFCheckRawsTime</text>
<polyline fill="none" stroke="black" points="1459.5,-110 1636.5,-110 "/>
<text text-anchor="start" x="1467.5" y="-98" font-family="Helvetica,sans-Serif" font-size="10.00">+ minTOFrawTime</text>
<text text-anchor="start" x="1467.5" y="-87" font-family="Helvetica,sans-Serif" font-size="10.00">+ maxTOFrawTime</text>
<polyline fill="none" stroke="black" points="1459.5,-80 1636.5,-80 "/>
<text text-anchor="start" x="1467.5" y="-68" font-family="Helvetica,sans-Serif" font-size="10.00">+ TOFCheckRawsTime()</text>
<text text-anchor="start" x="1467.5" y="-57" font-family="Helvetica,sans-Serif" font-size="10.00">+ ~TOFCheckRawsTime()</text>
<text text-anchor="start" x="1467.5" y="-46" font-family="Helvetica,sans-Serif" font-size="10.00">+ configure()</text>
<text text-anchor="start" x="1467.5" y="-35" font-family="Helvetica,sans-Serif" font-size="10.00">+ check()</text>
<text text-anchor="start" x="1467.5" y="-24" font-family="Helvetica,sans-Serif" font-size="10.00">+ beautify()</text>
<text text-anchor="start" x="1467.5" y="-13" font-family="Helvetica,sans-Serif" font-size="10.00">+ getAcceptedType()</text>
</a>
</g>
</g>
<!-- Node1&#45;&gt;Node11 -->
<g id="edge10" class="edge"><title>Node1&#45;&gt;Node11</title>
<path fill="none" stroke="midnightblue" d="M1058.27,-246.268C1153.39,-234.369 1320.44,-206.299 1451,-146 1454.9,-144.197 1458.8,-142.222 1462.68,-140.112"/>
<polygon fill="none" stroke="midnightblue" points="1057.66,-242.816 1048.16,-247.505 1058.51,-249.764 1057.66,-242.816"/>
</g>
<!-- Node12 -->
<g id="node12" class="node"><title>Node12</title>
<g id="a_node12"><a xlink:href="classo2_1_1quality__control__modules_1_1tof_1_1TOFCheckRawsToT.html" target="_top" xlink:title="Check whether a plot is empty or not. ">
<polygon fill="none" stroke="black" points="1654.5,-0.5 1654.5,-145.5 1827.5,-145.5 1827.5,-0.5 1654.5,-0.5"/>
<text text-anchor="start" x="1662.5" y="-133.5" font-family="Helvetica,sans-Serif" font-size="10.00">o2::quality_control</text>
<text text-anchor="middle" x="1741" y="-122.5" font-family="Helvetica,sans-Serif" font-size="10.00">_modules::tof::TOFCheckRawsToT</text>
<polyline fill="none" stroke="black" points="1654.5,-115.5 1827.5,-115.5 "/>
<text text-anchor="start" x="1662.5" y="-103.5" font-family="Helvetica,sans-Serif" font-size="10.00">+ minTOFrawTot</text>
<text text-anchor="start" x="1662.5" y="-92.5" font-family="Helvetica,sans-Serif" font-size="10.00">+ maxTOFrawTot</text>
<polyline fill="none" stroke="black" points="1654.5,-85.5 1827.5,-85.5 "/>
<text text-anchor="start" x="1662.5" y="-73.5" font-family="Helvetica,sans-Serif" font-size="10.00">+ TOFCheckRawsToT()</text>
<text text-anchor="start" x="1662.5" y="-62.5" font-family="Helvetica,sans-Serif" font-size="10.00">+ ~TOFCheckRawsToT()</text>
<text text-anchor="start" x="1662.5" y="-51.5" font-family="Helvetica,sans-Serif" font-size="10.00">+ configure()</text>
<text text-anchor="start" x="1662.5" y="-40.5" font-family="Helvetica,sans-Serif" font-size="10.00">+ check()</text>
<text text-anchor="start" x="1662.5" y="-29.5" font-family="Helvetica,sans-Serif" font-size="10.00">+ beautify()</text>
<text text-anchor="start" x="1662.5" y="-18.5" font-family="Helvetica,sans-Serif" font-size="10.00">+ getAcceptedType()</text>
<text text-anchor="start" x="1662.5" y="-7.5" font-family="Helvetica,sans-Serif" font-size="10.00">+ ClassDefOverride()</text>
</a>
</g>
</g>
<!-- Node1&#45;&gt;Node12 -->
<g id="edge11" class="edge"><title>Node1&#45;&gt;Node12</title>
<path fill="none" stroke="midnightblue" d="M1058.35,-253.405C1184.88,-249.9 1445.83,-231.815 1646,-146 1648.76,-144.818 1651.51,-143.538 1654.24,-142.177"/>
<polygon fill="none" stroke="midnightblue" points="1057.91,-249.915 1048.01,-253.668 1058.09,-256.913 1057.91,-249.915"/>
</g>
<!-- Node13 -->
<g id="node13" class="node"><title>Node13</title>
<g id="a_node13"><a xlink:href="classTestCheck.html" target="_top" xlink:title="{TestCheck\n|+ mCheck\l+ mBeautify\l|+ TestCheck()\l+ configure()\l+ check()\l+ beautify()\l+ getAcceptedType()\l}">
<polygon fill="none" stroke="black" points="1846,-17 1846,-129 1954,-129 1954,-17 1846,-17"/>
<text text-anchor="middle" x="1900" y="-117" font-family="Helvetica,sans-Serif" font-size="10.00">TestCheck</text>
<polyline fill="none" stroke="black" points="1846,-110 1954,-110 "/>
<text text-anchor="start" x="1854" y="-98" font-family="Helvetica,sans-Serif" font-size="10.00">+ mCheck</text>
<text text-anchor="start" x="1854" y="-87" font-family="Helvetica,sans-Serif" font-size="10.00">+ mBeautify</text>
<polyline fill="none" stroke="black" points="1846,-80 1954,-80 "/>
<text text-anchor="start" x="1854" y="-68" font-family="Helvetica,sans-Serif" font-size="10.00">+ TestCheck()</text>
<text text-anchor="start" x="1854" y="-57" font-family="Helvetica,sans-Serif" font-size="10.00">+ configure()</text>
<text text-anchor="start" x="1854" y="-46" font-family="Helvetica,sans-Serif" font-size="10.00">+ check()</text>
<text text-anchor="start" x="1854" y="-35" font-family="Helvetica,sans-Serif" font-size="10.00">+ beautify()</text>
<text text-anchor="start" x="1854" y="-24" font-family="Helvetica,sans-Serif" font-size="10.00">+ getAcceptedType()</text>
</a>
</g>
</g>
<!-- Node1&#45;&gt;Node13 -->
<g id="edge12" class="edge"><title>Node1&#45;&gt;Node13</title>
<path fill="none" stroke="midnightblue" d="M1058.35,-251.278C1241.06,-243.606 1702.57,-217.509 1837,-146 1845.21,-141.632 1852.85,-135.729 1859.76,-129.173"/>
<polygon fill="none" stroke="midnightblue" points="1058.13,-247.783 1048.29,-251.693 1058.42,-254.777 1058.13,-247.783"/>
</g>
</g>
</svg>
