<?xml version="1.0" encoding="UTF-8" standalone="no"?>
<!DOCTYPE svg PUBLIC "-//W3C//DTD SVG 1.1//EN"
 "http://www.w3.org/Graphics/SVG/1.1/DTD/svg11.dtd">
<!-- Generated by graphviz version 2.38.0 (20140413.2041)
 -->
<!-- Title: Framework/include/QualityControl/DatabaseInterface.h Pages: 1 -->
<!--zoomable 173 -->
<svg id="main" version="1.1" xmlns="http://www.w3.org/2000/svg" xmlns:xlink="http://www.w3.org/1999/xlink" xml:space="preserve" onload="init(evt)">
<style type="text/css"><![CDATA[
.edge:hover path { stroke: red; }
.edge:hover polygon { stroke: red; fill: red; }
]]></style>
<script type="text/javascript"><![CDATA[
var edges = document.getElementsByTagName('g');
if (edges && edges.length) {
  for (var i=0;i<edges.length;i++) {
    if (edges[i].id.substr(0,4)=='edge') {
      edges[i].setAttribute('class','edge');
    }
  }
}
]]></script>
        <defs>
                <circle id="rim" cx="0" cy="0" r="7"/>
                <circle id="rim2" cx="0" cy="0" r="3.5"/>
                <g id="zoomPlus">
                        <use xlink:href="#rim" fill="#404040">
                                <set attributeName="fill" to="#808080" begin="zoomplus.mouseover" end="zoomplus.mouseout"/>
                        </use>
                        <path d="M-4,0h8M0,-4v8" fill="none" stroke="white" stroke-width="1.5" pointer-events="none"/>
                </g>
                <g id="zoomMin">
                        <use xlink:href="#rim" fill="#404040">
                                <set attributeName="fill" to="#808080" begin="zoomminus.mouseover" end="zoomminus.mouseout"/>
                        </use>
                        <path d="M-4,0h8" fill="none" stroke="white" stroke-width="1.5" pointer-events="none"/>
                </g>
                <g id="dirArrow">
                        <path fill="none" stroke="white" stroke-width="1.5" d="M0,-3.0v7 M-2.5,-0.5L0,-3.0L2.5,-0.5"/>
                </g>
               <g id="resetDef">
                       <use xlink:href="#rim2" fill="#404040">
                               <set attributeName="fill" to="#808080" begin="reset.mouseover" end="reset.mouseout"/>
                       </use>
               </g>
        </defs>

<script type="text/javascript">
var viewWidth = 4315;
var viewHeight = 173;
var sectionId = 'dynsection-1';
</script>
<script xlink:href="svgpan.js"/>
<svg id="graph" class="graph">
<g id="viewport">
<title>Framework/include/QualityControl/DatabaseInterface.h</title>
<!-- Node1 -->
<g id="node1" class="node"><title>Node1</title>
<polygon fill="#bfbfbf" stroke="black" points="2773,-134.5 2773,-164.5 2913,-164.5 2913,-134.5 2773,-134.5"/>
<text text-anchor="start" x="2781" y="-152.5" font-family="Helvetica,sans-Serif" font-size="10.00">Framework/include/Quality</text>
<text text-anchor="middle" x="2843" y="-141.5" font-family="Helvetica,sans-Serif" font-size="10.00">Control/DatabaseInterface.h</text>
</g>
<!-- Node2 -->
<g id="node2" class="node"><title>Node2</title>
<g id="a_node2"><a xlink:href="CcdbDatabase_8h.html" target="_top" xlink:title="Framework/include/Quality\lControl/CcdbDatabase.h">
<polygon fill="none" stroke="black" points="775.5,-67.5 775.5,-97.5 908.5,-97.5 908.5,-67.5 775.5,-67.5"/>
<text text-anchor="start" x="783.5" y="-85.5" font-family="Helvetica,sans-Serif" font-size="10.00">Framework/include/Quality</text>
<text text-anchor="middle" x="842" y="-74.5" font-family="Helvetica,sans-Serif" font-size="10.00">Control/CcdbDatabase.h</text>
</a>
</g>
</g>
<!-- Node1&#45;&gt;Node2 -->
<g id="edge1" class="edge"><title>Node1&#45;&gt;Node2</title>
<path fill="none" stroke="midnightblue" d="M2762.68,-146.54C2520.47,-140.533 1775.99,-121.361 1159,-98 1072.57,-94.7274 972.921,-90.0152 908.778,-86.86"/>
<polygon fill="midnightblue" stroke="midnightblue" points="2762.72,-150.042 2772.8,-146.791 2762.89,-143.044 2762.72,-150.042"/>
</g>
<!-- Node8 -->
<g id="node8" class="node"><title>Node8</title>
<g id="a_node8"><a xlink:href="CheckRunner_8h.html" target="_top" xlink:title="Framework/include/Quality\lControl/CheckRunner.h">
<polygon fill="none" stroke="black" points="2363.5,-67.5 2363.5,-97.5 2496.5,-97.5 2496.5,-67.5 2363.5,-67.5"/>
<text text-anchor="start" x="2371.5" y="-85.5" font-family="Helvetica,sans-Serif" font-size="10.00">Framework/include/Quality</text>
<text text-anchor="middle" x="2430" y="-74.5" font-family="Helvetica,sans-Serif" font-size="10.00">Control/CheckRunner.h</text>
</a>
</g>
</g>
<!-- Node1&#45;&gt;Node8 -->
<g id="edge7" class="edge"><title>Node1&#45;&gt;Node8</title>
<path fill="none" stroke="midnightblue" d="M2762.74,-135.868C2685.22,-123.668 2569.2,-105.407 2496.64,-93.9877"/>
<polygon fill="midnightblue" stroke="midnightblue" points="2762.52,-139.376 2772.94,-137.474 2763.61,-132.461 2762.52,-139.376"/>
</g>
<!-- Node20 -->
<g id="node20" class="node"><title>Node20</title>
<g id="a_node20"><a xlink:href="DatabaseFactory_8h.html" target="_top" xlink:title="Framework/include/Quality\lControl/DatabaseFactory.h">
<polygon fill="none" stroke="black" points="1168,-67.5 1168,-97.5 1302,-97.5 1302,-67.5 1168,-67.5"/>
<text text-anchor="start" x="1176" y="-85.5" font-family="Helvetica,sans-Serif" font-size="10.00">Framework/include/Quality</text>
<text text-anchor="middle" x="1235" y="-74.5" font-family="Helvetica,sans-Serif" font-size="10.00">Control/DatabaseFactory.h</text>
</a>
</g>
</g>
<!-- Node1&#45;&gt;Node20 -->
<g id="edge19" class="edge"><title>Node1&#45;&gt;Node20</title>
<path fill="none" stroke="midnightblue" d="M2762.84,-145.26C2484.12,-133.993 1560.2,-96.6454 1302.35,-86.2224"/>
<polygon fill="midnightblue" stroke="midnightblue" points="2762.74,-148.758 2772.87,-145.665 2763.02,-141.764 2762.74,-148.758"/>
</g>
<!-- Node24 -->
<g id="node24" class="node"><title>Node24</title>
<g id="a_node24"><a xlink:href="DummyDatabase_8h.html" target="_top" xlink:title="Framework/include/Quality\lControl/DummyDatabase.h">
<polygon fill="none" stroke="black" points="503,-67.5 503,-97.5 639,-97.5 639,-67.5 503,-67.5"/>
<text text-anchor="start" x="511" y="-85.5" font-family="Helvetica,sans-Serif" font-size="10.00">Framework/include/Quality</text>
<text text-anchor="middle" x="571" y="-74.5" font-family="Helvetica,sans-Serif" font-size="10.00">Control/DummyDatabase.h</text>
</a>
</g>
</g>
<!-- Node1&#45;&gt;Node24 -->
<g id="edge28" class="edge"><title>Node1&#45;&gt;Node24</title>
<path fill="none" stroke="midnightblue" d="M2762.19,-147.985C2484.35,-145.906 1542.73,-136.297 766,-98 723.786,-95.9186 676.512,-92.4323 639.083,-89.3997"/>
<polygon fill="midnightblue" stroke="midnightblue" points="2762.55,-151.488 2772.57,-148.062 2762.6,-144.488 2762.55,-151.488"/>
</g>
<!-- Node26 -->
<g id="node26" class="node"><title>Node26</title>
<g id="a_node26"><a xlink:href="MySqlDatabase_8h.html" target="_top" xlink:title="Framework/include/Quality\lControl/MySqlDatabase.h">
<polygon fill="none" stroke="black" points="3688.5,-67.5 3688.5,-97.5 3821.5,-97.5 3821.5,-67.5 3688.5,-67.5"/>
<text text-anchor="start" x="3696.5" y="-85.5" font-family="Helvetica,sans-Serif" font-size="10.00">Framework/include/Quality</text>
<text text-anchor="middle" x="3755" y="-74.5" font-family="Helvetica,sans-Serif" font-size="10.00">Control/MySqlDatabase.h</text>
</a>
</g>
</g>
<!-- Node1&#45;&gt;Node26 -->
<g id="edge32" class="edge"><title>Node1&#45;&gt;Node26</title>
<path fill="none" stroke="midnightblue" d="M2923.19,-147.071C3072.48,-143.655 3402.92,-132.531 3679,-98 3682.07,-97.6166 3685.19,-97.185 3688.35,-96.717"/>
<polygon fill="midnightblue" stroke="midnightblue" points="2923.11,-143.572 2913.19,-147.295 2923.27,-150.571 2923.11,-143.572"/>
</g>
<!-- Node28 -->
<g id="node28" class="node"><title>Node28</title>
<g id="a_node28"><a xlink:href="PostProcessingRunner_8h.html" target="_top" xlink:title="Framework/include/Quality\lControl/PostProcessingRunner.h">
<polygon fill="none" stroke="black" points="3184,-67.5 3184,-97.5 3344,-97.5 3344,-67.5 3184,-67.5"/>
<text text-anchor="start" x="3192" y="-85.5" font-family="Helvetica,sans-Serif" font-size="10.00">Framework/include/Quality</text>
<text text-anchor="middle" x="3264" y="-74.5" font-family="Helvetica,sans-Serif" font-size="10.00">Control/PostProcessingRunner.h</text>
</a>
</g>
</g>
<!-- Node1&#45;&gt;Node28 -->
<g id="edge34" class="edge"><title>Node1&#45;&gt;Node28</title>
<path fill="none" stroke="midnightblue" d="M2923.78,-136.028C2998.63,-124.471 3109.34,-107.378 3183.96,-95.8583"/>
<polygon fill="midnightblue" stroke="midnightblue" points="2922.81,-132.636 2913.47,-137.62 2923.88,-139.554 2922.81,-132.636"/>
</g>
<!-- Node31 -->
<g id="node31" class="node"><title>Node31</title>
<g id="a_node31"><a xlink:href="RepositoryBenchmark_8h.html" target="_top" xlink:title="Framework/src/Repository\lBenchmark.h">
<polygon fill="none" stroke="black" points="3538,-67.5 3538,-97.5 3670,-97.5 3670,-67.5 3538,-67.5"/>
<text text-anchor="start" x="3546" y="-85.5" font-family="Helvetica,sans-Serif" font-size="10.00">Framework/src/Repository</text>
<text text-anchor="middle" x="3604" y="-74.5" font-family="Helvetica,sans-Serif" font-size="10.00">Benchmark.h</text>
</a>
</g>
</g>
<!-- Node1&#45;&gt;Node31 -->
<g id="edge38" class="edge"><title>Node1&#45;&gt;Node31</title>
<path fill="none" stroke="midnightblue" d="M2923.37,-141.636C3074.47,-128.73 3398.21,-101.077 3537.76,-89.1582"/>
<polygon fill="midnightblue" stroke="midnightblue" points="2922.89,-138.163 2913.23,-142.501 2923.49,-145.138 2922.89,-138.163"/>
</g>
<!-- Node33 -->
<g id="node33" class="node"><title>Node33</title>
<g id="a_node33"><a xlink:href="TrendingTask_8cxx.html" target="_top" xlink:title="Framework/src/TrendingTask.cxx">
<polygon fill="none" stroke="black" points="3839.5,-73 3839.5,-92 4002.5,-92 4002.5,-73 3839.5,-73"/>
<text text-anchor="middle" x="3921" y="-80" font-family="Helvetica,sans-Serif" font-size="10.00">Framework/src/TrendingTask.cxx</text>
</a>
</g>
</g>
<!-- Node1&#45;&gt;Node33 -->
<g id="edge41" class="edge"><title>Node1&#45;&gt;Node33</title>
<path fill="none" stroke="midnightblue" d="M2923.32,-147.349C3091.94,-144.284 3494.99,-133.549 3831,-98 3845.01,-96.5181 3860.15,-94.314 3873.95,-92.069"/>
<polygon fill="midnightblue" stroke="midnightblue" points="2923.22,-143.85 2913.28,-147.528 2923.34,-150.849 2923.22,-143.85"/>
</g>
<!-- Node3 -->
<g id="node3" class="node"><title>Node3</title>
<g id="a_node3"><a xlink:href="CcdbDatabase_8cxx.html" target="_top" xlink:title="Framework/src/CcdbDatabase.cxx">
<polygon fill="none" stroke="black" points="198.5,-6 198.5,-25 367.5,-25 367.5,-6 198.5,-6"/>
<text text-anchor="middle" x="283" y="-13" font-family="Helvetica,sans-Serif" font-size="10.00">Framework/src/CcdbDatabase.cxx</text>
</a>
</g>
</g>
<!-- Node2&#45;&gt;Node3 -->
<g id="edge2" class="edge"><title>Node2&#45;&gt;Node3</title>
<path fill="none" stroke="midnightblue" d="M765.016,-74.2693C672.51,-65.3238 512.665,-49.0491 376,-31 362.716,-29.2456 348.4,-27.1274 335.076,-25.0585"/>
<polygon fill="midnightblue" stroke="midnightblue" points="764.842,-77.7686 775.131,-75.2441 765.513,-70.8008 764.842,-77.7686"/>
</g>
<!-- Node4 -->
<g id="node4" class="node"><title>Node4</title>
<g id="a_node4"><a xlink:href="DatabaseFactory_8cxx.html" target="_top" xlink:title="Framework/src/DatabaseFactory.cxx">
<polygon fill="none" stroke="black" points="385.5,-6 385.5,-25 564.5,-25 564.5,-6 385.5,-6"/>
<text text-anchor="middle" x="475" y="-13" font-family="Helvetica,sans-Serif" font-size="10.00">Framework/src/DatabaseFactory.cxx</text>
</a>
</g>
</g>
<!-- Node2&#45;&gt;Node4 -->
<g id="edge3" class="edge"><title>Node2&#45;&gt;Node4</title>
<path fill="none" stroke="midnightblue" d="M765.046,-67.8706C692.023,-54.9374 584.558,-35.904 523.011,-25.0033"/>
<polygon fill="midnightblue" stroke="midnightblue" points="764.656,-71.3559 775.113,-69.6536 765.877,-64.4632 764.656,-71.3559"/>
</g>
<!-- Node5 -->
<g id="node5" class="node"><title>Node5</title>
<g id="a_node5"><a xlink:href="testCcdbDatabase_8cxx.html" target="_top" xlink:title="Framework/test/testCcdbDatabase.cxx">
<polygon fill="none" stroke="black" points="770,-6 770,-25 958,-25 958,-6 770,-6"/>
<text text-anchor="middle" x="864" y="-13" font-family="Helvetica,sans-Serif" font-size="10.00">Framework/test/testCcdbDatabase.cxx</text>
</a>
</g>
</g>
<!-- Node2&#45;&gt;Node5 -->
<g id="edge4" class="edge"><title>Node2&#45;&gt;Node5</title>
<path fill="none" stroke="midnightblue" d="M850.09,-57.5965C853.921,-46.2781 858.259,-33.4611 861.057,-25.1945"/>
<polygon fill="midnightblue" stroke="midnightblue" points="846.664,-56.8017 846.774,-67.396 853.295,-59.0459 846.664,-56.8017"/>
</g>
<!-- Node6 -->
<g id="node6" class="node"><title>Node6</title>
<polygon fill="none" stroke="#bfbfbf" points="976,-0.5 976,-30.5 1146,-30.5 1146,-0.5 976,-0.5"/>
<text text-anchor="start" x="984" y="-18.5" font-family="Helvetica,sans-Serif" font-size="10.00">Framework/test/testCcdbDatabase</text>
<text text-anchor="middle" x="1061" y="-7.5" font-family="Helvetica,sans-Serif" font-size="10.00">Extra.cxx</text>
</g>
<!-- Node2&#45;&gt;Node6 -->
<g id="edge5" class="edge"><title>Node2&#45;&gt;Node6</title>
<path fill="none" stroke="midnightblue" d="M899.008,-64.5797C934.578,-54.0225 979.828,-40.5921 1013.46,-30.6109"/>
<polygon fill="midnightblue" stroke="midnightblue" points="897.841,-61.2752 889.25,-67.476 899.833,-67.9859 897.841,-61.2752"/>
</g>
<!-- Node7 -->
<g id="node7" class="node"><title>Node7</title>
<g id="a_node7"><a xlink:href="testDbFactory_8cxx.html" target="_top" xlink:title="Framework/test/testDbFactory.cxx">
<polygon fill="none" stroke="black" points="582.5,-6 582.5,-25 751.5,-25 751.5,-6 582.5,-6"/>
<text text-anchor="middle" x="667" y="-13" font-family="Helvetica,sans-Serif" font-size="10.00">Framework/test/testDbFactory.cxx</text>
</a>
</g>
</g>
<!-- Node2&#45;&gt;Node7 -->
<g id="edge6" class="edge"><title>Node2&#45;&gt;Node7</title>
<path fill="none" stroke="midnightblue" d="M794.303,-63.7838C760.371,-51.1807 716.291,-34.8082 689.903,-25.007"/>
<polygon fill="midnightblue" stroke="midnightblue" points="793.435,-67.195 804.028,-67.396 795.872,-60.633 793.435,-67.195"/>
</g>
<!-- Node9 -->
<g id="node9" class="node"><title>Node9</title>
<g id="a_node9"><a xlink:href="CheckRunner_8cxx.html" target="_top" xlink:title="Framework/src/CheckRunner.cxx">
<polygon fill="none" stroke="black" points="1324,-6 1324,-25 1488,-25 1488,-6 1324,-6"/>
<text text-anchor="middle" x="1406" y="-13" font-family="Helvetica,sans-Serif" font-size="10.00">Framework/src/CheckRunner.cxx</text>
</a>
</g>
</g>
<!-- Node8&#45;&gt;Node9 -->
<g id="edge8" class="edge"><title>Node8&#45;&gt;Node9</title>
<path fill="none" stroke="midnightblue" d="M2353.14,-80.0415C2193.32,-76.4144 1813.67,-64.7066 1497,-31 1482.84,-29.493 1467.53,-27.2813 1453.58,-25.037"/>
<polygon fill="midnightblue" stroke="midnightblue" points="2353.27,-83.5452 2363.35,-80.2688 2353.43,-76.5469 2353.27,-83.5452"/>
</g>
<!-- Node10 -->
<g id="node10" class="node"><title>Node10</title>
<g id="a_node10"><a xlink:href="CheckRunnerFactory_8cxx.html" target="_top" xlink:title="Framework/src/CheckRunner\lFactory.cxx">
<polygon fill="none" stroke="black" points="2438.5,-0.5 2438.5,-30.5 2583.5,-30.5 2583.5,-0.5 2438.5,-0.5"/>
<text text-anchor="start" x="2446.5" y="-18.5" font-family="Helvetica,sans-Serif" font-size="10.00">Framework/src/CheckRunner</text>
<text text-anchor="middle" x="2511" y="-7.5" font-family="Helvetica,sans-Serif" font-size="10.00">Factory.cxx</text>
</a>
</g>
</g>
<!-- Node8&#45;&gt;Node10 -->
<g id="edge9" class="edge"><title>Node8&#45;&gt;Node10</title>
<path fill="none" stroke="midnightblue" d="M2455.69,-60.8832C2468,-51.0054 2482.43,-39.4293 2493.46,-30.5765"/>
<polygon fill="midnightblue" stroke="midnightblue" points="2453.18,-58.4075 2447.58,-67.396 2457.57,-63.867 2453.18,-58.4075"/>
</g>
<!-- Node11 -->
<g id="node11" class="node"><title>Node11</title>
<g id="a_node11"><a xlink:href="InfrastructureGenerator_8cxx.html" target="_top" xlink:title="Framework/src/Infrastructure\lGenerator.cxx">
<polygon fill="none" stroke="black" points="2752.5,-0.5 2752.5,-30.5 2895.5,-30.5 2895.5,-0.5 2752.5,-0.5"/>
<text text-anchor="start" x="2760.5" y="-18.5" font-family="Helvetica,sans-Serif" font-size="10.00">Framework/src/Infrastructure</text>
<text text-anchor="middle" x="2824" y="-7.5" font-family="Helvetica,sans-Serif" font-size="10.00">Generator.cxx</text>
</a>
</g>
</g>
<!-- Node8&#45;&gt;Node11 -->
<g id="edge10" class="edge"><title>Node8&#45;&gt;Node11</title>
<path fill="none" stroke="midnightblue" d="M2506.53,-69.5284C2569.94,-59.5192 2662.39,-44.7168 2743,-31 2746.1,-30.4728 2749.26,-29.9291 2752.46,-29.3756"/>
<polygon fill="midnightblue" stroke="midnightblue" points="2505.94,-66.0778 2496.61,-71.0927 2507.03,-72.9923 2505.94,-66.0778"/>
</g>
<!-- Node12 -->
<g id="node12" class="node"><title>Node12</title>
<g id="a_node12"><a xlink:href="runBasic_8cxx.html" target="_top" xlink:title="This is an executable showing QC Task&#39;s usage in Data Processing Layer. ">
<polygon fill="none" stroke="black" points="2278,-6 2278,-25 2420,-25 2420,-6 2278,-6"/>
<text text-anchor="middle" x="2349" y="-13" font-family="Helvetica,sans-Serif" font-size="10.00">Framework/src/runBasic.cxx</text>
</a>
</g>
</g>
<!-- Node8&#45;&gt;Node12 -->
<g id="edge11" class="edge"><title>Node8&#45;&gt;Node12</title>
<path fill="none" stroke="midnightblue" d="M2404.46,-61.008C2389.43,-48.9412 2371.19,-34.3046 2359.83,-25.1945"/>
<polygon fill="midnightblue" stroke="midnightblue" points="2402.43,-63.867 2412.42,-67.396 2406.82,-58.4075 2402.43,-63.867"/>
</g>
<!-- Node13 -->
<g id="node13" class="node"><title>Node13</title>
<g id="a_node13"><a xlink:href="runMergerTest_8cxx.html" target="_top" xlink:title="This is DPL workflow to see HistoMerger in action. ">
<polygon fill="none" stroke="black" points="2913.5,-6 2913.5,-25 3080.5,-25 3080.5,-6 2913.5,-6"/>
<text text-anchor="middle" x="2997" y="-13" font-family="Helvetica,sans-Serif" font-size="10.00">Framework/src/runMergerTest.cxx</text>
</a>
</g>
</g>
<!-- Node8&#45;&gt;Node13 -->
<g id="edge12" class="edge"><title>Node8&#45;&gt;Node13</title>
<path fill="none" stroke="midnightblue" d="M2506.82,-74.4715C2600.69,-65.6174 2764.26,-49.326 2904,-31 2917.29,-29.2576 2931.6,-27.1437 2944.93,-25.0751"/>
<polygon fill="midnightblue" stroke="midnightblue" points="2506.47,-70.9889 2496.84,-75.4095 2507.13,-77.9582 2506.47,-70.9889"/>
</g>
<!-- Node14 -->
<g id="node14" class="node"><title>Node14</title>
<g id="a_node14"><a xlink:href="testCheckRunner_8cxx.html" target="_top" xlink:title="Framework/test/testCheck\lRunner.cxx">
<polygon fill="none" stroke="black" points="2601.5,-0.5 2601.5,-30.5 2734.5,-30.5 2734.5,-0.5 2601.5,-0.5"/>
<text text-anchor="start" x="2609.5" y="-18.5" font-family="Helvetica,sans-Serif" font-size="10.00">Framework/test/testCheck</text>
<text text-anchor="middle" x="2668" y="-7.5" font-family="Helvetica,sans-Serif" font-size="10.00">Runner.cxx</text>
</a>
</g>
</g>
<!-- Node8&#45;&gt;Node14 -->
<g id="edge13" class="edge"><title>Node8&#45;&gt;Node14</title>
<path fill="none" stroke="midnightblue" d="M2491.46,-64.7149C2530.19,-54.1373 2579.63,-40.6348 2616.33,-30.6109"/>
<polygon fill="midnightblue" stroke="midnightblue" points="2490.07,-61.465 2481.35,-67.476 2491.92,-68.2177 2490.07,-61.465"/>
</g>
<!-- Node15 -->
<g id="node15" class="node"><title>Node15</title>
<g id="a_node15"><a xlink:href="testCheckWorkflow_8cxx.html" target="_top" xlink:title="Framework/test/testCheck\lWorkflow.cxx">
<polygon fill="none" stroke="black" points="3271.5,-0.5 3271.5,-30.5 3404.5,-30.5 3404.5,-0.5 3271.5,-0.5"/>
<text text-anchor="start" x="3279.5" y="-18.5" font-family="Helvetica,sans-Serif" font-size="10.00">Framework/test/testCheck</text>
<text text-anchor="middle" x="3338" y="-7.5" font-family="Helvetica,sans-Serif" font-size="10.00">Workflow.cxx</text>
</a>
</g>
</g>
<!-- Node8&#45;&gt;Node15 -->
<g id="edge14" class="edge"><title>Node8&#45;&gt;Node15</title>
<path fill="none" stroke="midnightblue" d="M2506.87,-80.1155C2654,-76.74 2985.41,-65.6352 3262,-31 3265.07,-30.6161 3268.19,-30.1842 3271.35,-29.7159"/>
<polygon fill="midnightblue" stroke="midnightblue" points="2506.51,-76.6225 2496.59,-80.3454 2506.67,-83.6207 2506.51,-76.6225"/>
</g>
<!-- Node16 -->
<g id="node16" class="node"><title>Node16</title>
<g id="a_node16"><a xlink:href="testWorkflow_8cxx.html" target="_top" xlink:title="Framework/test/testWorkflow.cxx">
<polygon fill="none" stroke="black" points="1506,-6 1506,-25 1670,-25 1670,-6 1506,-6"/>
<text text-anchor="middle" x="1588" y="-13" font-family="Helvetica,sans-Serif" font-size="10.00">Framework/test/testWorkflow.cxx</text>
</a>
</g>
</g>
<!-- Node8&#45;&gt;Node16 -->
<g id="edge15" class="edge"><title>Node8&#45;&gt;Node16</title>
<path fill="none" stroke="midnightblue" d="M2352.93,-78.6306C2216.65,-73.0413 1924.35,-58.7385 1679,-31 1665.17,-29.4364 1650.23,-27.2609 1636.53,-25.07"/>
<polygon fill="midnightblue" stroke="midnightblue" points="2353.13,-82.1413 2363.26,-79.0497 2353.41,-75.1471 2353.13,-82.1413"/>
</g>
<!-- Node17 -->
<g id="node17" class="node"><title>Node17</title>
<polygon fill="none" stroke="#bfbfbf" points="1688,-6 1688,-25 1906,-25 1906,-6 1688,-6"/>
<text text-anchor="middle" x="1797" y="-13" font-family="Helvetica,sans-Serif" font-size="10.00">Modules/EMCAL/src/runQCEMCALDigits.cxx</text>
</g>
<!-- Node8&#45;&gt;Node17 -->
<g id="edge16" class="edge"><title>Node8&#45;&gt;Node17</title>
<path fill="none" stroke="midnightblue" d="M2353.2,-74.5614C2252.5,-65.3285 2070.4,-48.1639 1915,-31 1898.49,-29.1759 1880.69,-27.0652 1864.05,-25.0285"/>
<polygon fill="midnightblue" stroke="midnightblue" points="2353,-78.0581 2363.28,-75.4843 2353.64,-71.0872 2353,-78.0581"/>
</g>
<!-- Node18 -->
<g id="node18" class="node"><title>Node18</title>
<g id="a_node18"><a xlink:href="runTOF_8cxx.html" target="_top" xlink:title="This is an executable showing QC Task&#39;s usage in Data Processing Layer. ">
<polygon fill="none" stroke="black" points="1924.5,-6 1924.5,-25 2071.5,-25 2071.5,-6 1924.5,-6"/>
<text text-anchor="middle" x="1998" y="-13" font-family="Helvetica,sans-Serif" font-size="10.00">Modules/TOF/src/runTOF.cxx</text>
</a>
</g>
</g>
<!-- Node8&#45;&gt;Node18 -->
<g id="edge17" class="edge"><title>Node8&#45;&gt;Node18</title>
<path fill="none" stroke="midnightblue" d="M2353.16,-71.0398C2282.38,-61.248 2174.49,-45.9272 2081,-31 2069.44,-29.1549 2057.01,-27.047 2045.36,-25.0207"/>
<polygon fill="midnightblue" stroke="midnightblue" points="2352.95,-74.5429 2363.33,-72.4437 2353.9,-67.6087 2352.95,-74.5429"/>
</g>
<!-- Node19 -->
<g id="node19" class="node"><title>Node19</title>
<polygon fill="none" stroke="#bfbfbf" points="2090,-0.5 2090,-30.5 2260,-30.5 2260,-0.5 2090,-0.5"/>
<text text-anchor="start" x="2098" y="-18.5" font-family="Helvetica,sans-Serif" font-size="10.00">Modules/TPC/run/runTPCQCTrack</text>
<text text-anchor="middle" x="2175" y="-7.5" font-family="Helvetica,sans-Serif" font-size="10.00">Reader.cxx</text>
</g>
<!-- Node8&#45;&gt;Node19 -->
<g id="edge18" class="edge"><title>Node8&#45;&gt;Node19</title>
<path fill="none" stroke="midnightblue" d="M2365.21,-64.9844C2323.56,-54.3674 2270.02,-40.7201 2230.36,-30.6109"/>
<polygon fill="midnightblue" stroke="midnightblue" points="2364.43,-68.3974 2374.98,-67.476 2366.16,-61.6143 2364.43,-68.3974"/>
</g>
<!-- Node20&#45;&gt;Node4 -->
<g id="edge21" class="edge"><title>Node20&#45;&gt;Node4</title>
<path fill="none" stroke="midnightblue" d="M1157.53,-77.3725C1033.75,-70.3773 783.855,-54.6115 573,-31 558.301,-29.354 542.418,-27.1775 527.805,-25.0127"/>
<polygon fill="midnightblue" stroke="midnightblue" points="1157.48,-80.8754 1167.66,-77.9416 1157.88,-73.8864 1157.48,-80.8754"/>
</g>
<!-- Node20&#45;&gt;Node5 -->
<g id="edge24" class="edge"><title>Node20&#45;&gt;Node5</title>
<path fill="none" stroke="midnightblue" d="M1157.65,-67.9473C1083.87,-55.0209 975.013,-35.9498 912.653,-25.0241"/>
<polygon fill="midnightblue" stroke="midnightblue" points="1157.36,-71.4507 1167.81,-69.729 1158.57,-64.5557 1157.36,-71.4507"/>
</g>
<!-- Node20&#45;&gt;Node6 -->
<g id="edge25" class="edge"><title>Node20&#45;&gt;Node6</title>
<path fill="none" stroke="midnightblue" d="M1187.67,-63.8185C1159.7,-53.3707 1124.77,-40.3231 1098.68,-30.5765"/>
<polygon fill="midnightblue" stroke="midnightblue" points="1186.65,-67.1752 1197.24,-67.396 1189.1,-60.6178 1186.65,-67.1752"/>
</g>
<!-- Node20&#45;&gt;Node7 -->
<g id="edge26" class="edge"><title>Node20&#45;&gt;Node7</title>
<path fill="none" stroke="midnightblue" d="M1157.78,-74.3957C1063.86,-65.4953 900.552,-49.1871 761,-31 747.573,-29.2502 733.104,-27.1336 719.637,-25.0648"/>
<polygon fill="midnightblue" stroke="midnightblue" points="1157.48,-77.8829 1167.77,-75.3388 1158.14,-70.914 1157.48,-77.8829"/>
</g>
<!-- Node20&#45;&gt;Node9 -->
<g id="edge20" class="edge"><title>Node20&#45;&gt;Node9</title>
<path fill="none" stroke="midnightblue" d="M1281.61,-63.7838C1314.76,-51.1807 1357.84,-34.8082 1383.62,-25.007"/>
<polygon fill="midnightblue" stroke="midnightblue" points="1280.21,-60.5712 1272.1,-67.396 1282.7,-67.1144 1280.21,-60.5712"/>
</g>
<!-- Node21 -->
<g id="node21" class="node"><title>Node21</title>
<polygon fill="none" stroke="#bfbfbf" points="3099,-0.5 3099,-30.5 3253,-30.5 3253,-0.5 3099,-0.5"/>
<text text-anchor="start" x="3107" y="-18.5" font-family="Helvetica,sans-Serif" font-size="10.00">Framework/src/PostProcessing</text>
<text text-anchor="middle" x="3176" y="-7.5" font-family="Helvetica,sans-Serif" font-size="10.00">Runner.cxx</text>
</g>
<!-- Node20&#45;&gt;Node21 -->
<g id="edge22" class="edge"><title>Node20&#45;&gt;Node21</title>
<path fill="none" stroke="midnightblue" d="M1312.21,-80.8179C1616.84,-77.9063 2735.85,-65.075 3089,-31 3092.2,-30.6912 3095.46,-30.3354 3098.75,-29.9426"/>
<polygon fill="midnightblue" stroke="midnightblue" points="1312.12,-77.3185 1302.15,-80.9132 1312.18,-84.3182 1312.12,-77.3185"/>
</g>
<!-- Node22 -->
<g id="node22" class="node"><title>Node22</title>
<g id="a_node22"><a xlink:href="RepositoryBenchmark_8cxx.html" target="_top" xlink:title="Framework/src/Repository\lBenchmark.cxx">
<polygon fill="none" stroke="black" points="3627,-0.5 3627,-30.5 3759,-30.5 3759,-0.5 3627,-0.5"/>
<text text-anchor="start" x="3635" y="-18.5" font-family="Helvetica,sans-Serif" font-size="10.00">Framework/src/Repository</text>
<text text-anchor="middle" x="3693" y="-7.5" font-family="Helvetica,sans-Serif" font-size="10.00">Benchmark.cxx</text>
</a>
</g>
</g>
<!-- Node20&#45;&gt;Node22 -->
<g id="edge23" class="edge"><title>Node20&#45;&gt;Node22</title>
<path fill="none" stroke="midnightblue" d="M1312.42,-80.6418C1696.13,-76.2831 3384.81,-55.8307 3618,-31 3620.9,-30.6911 3623.86,-30.3282 3626.84,-29.9228"/>
<polygon fill="midnightblue" stroke="midnightblue" points="1312.22,-77.1438 1302.26,-80.757 1312.29,-84.1434 1312.22,-77.1438"/>
</g>
<!-- Node23 -->
<g id="node23" class="node"><title>Node23</title>
<g id="a_node23"><a xlink:href="testTrendingTask_8cxx.html" target="_top" xlink:title="Framework/test/testTrending\lTask.cxx">
<polygon fill="none" stroke="black" points="1164,-0.5 1164,-30.5 1306,-30.5 1306,-0.5 1164,-0.5"/>
<text text-anchor="start" x="1172" y="-18.5" font-family="Helvetica,sans-Serif" font-size="10.00">Framework/test/testTrending</text>
<text text-anchor="middle" x="1235" y="-7.5" font-family="Helvetica,sans-Serif" font-size="10.00">Task.cxx</text>
</a>
</g>
</g>
<!-- Node20&#45;&gt;Node23 -->
<g id="edge27" class="edge"><title>Node20&#45;&gt;Node23</title>
<path fill="none" stroke="midnightblue" d="M1235,-57.1081C1235,-48.1539 1235,-38.3227 1235,-30.5765"/>
<polygon fill="midnightblue" stroke="midnightblue" points="1231.5,-57.3959 1235,-67.396 1238.5,-57.396 1231.5,-57.3959"/>
</g>
<!-- Node24&#45;&gt;Node4 -->
<g id="edge29" class="edge"><title>Node24&#45;&gt;Node4</title>
<path fill="none" stroke="midnightblue" d="M541.67,-61.6409C523.553,-49.3742 501.232,-34.2613 487.564,-25.007"/>
<polygon fill="midnightblue" stroke="midnightblue" points="539.927,-64.6875 550.169,-67.396 543.851,-58.8912 539.927,-64.6875"/>
</g>
<!-- Node24&#45;&gt;Node7 -->
<g id="edge31" class="edge"><title>Node24&#45;&gt;Node7</title>
<path fill="none" stroke="midnightblue" d="M600.33,-61.6409C618.447,-49.3742 640.768,-34.2613 654.436,-25.007"/>
<polygon fill="midnightblue" stroke="midnightblue" points="598.149,-58.8912 591.831,-67.396 602.073,-64.6875 598.149,-58.8912"/>
</g>
<!-- Node25 -->
<g id="node25" class="node"><title>Node25</title>
<g id="a_node25"><a xlink:href="DummyDatabase_8cxx.html" target="_top" xlink:title="Framework/src/DummyDatabase.cxx">
<polygon fill="none" stroke="black" points="0,-6 0,-25 180,-25 180,-6 0,-6"/>
<text text-anchor="middle" x="90" y="-13" font-family="Helvetica,sans-Serif" font-size="10.00">Framework/src/DummyDatabase.cxx</text>
</a>
</g>
</g>
<!-- Node24&#45;&gt;Node25 -->
<g id="edge30" class="edge"><title>Node24&#45;&gt;Node25</title>
<path fill="none" stroke="midnightblue" d="M492.862,-71.4952C415.623,-61.5291 294.101,-45.6432 189,-31 175.494,-29.1183 160.963,-27.0272 147.304,-25.0321"/>
<polygon fill="midnightblue" stroke="midnightblue" points="492.626,-74.9938 502.992,-72.8012 493.522,-68.0513 492.626,-74.9938"/>
</g>
<!-- Node27 -->
<g id="node27" class="node"><title>Node27</title>
<g id="a_node27"><a xlink:href="MySqlDatabase_8cxx.html" target="_top" xlink:title="Framework/src/MySqlDatabase.cxx">
<polygon fill="none" stroke="black" points="4133.5,-6 4133.5,-25 4306.5,-25 4306.5,-6 4133.5,-6"/>
<text text-anchor="middle" x="4220" y="-13" font-family="Helvetica,sans-Serif" font-size="10.00">Framework/src/MySqlDatabase.cxx</text>
</a>
</g>
</g>
<!-- Node26&#45;&gt;Node27 -->
<g id="edge33" class="edge"><title>Node26&#45;&gt;Node27</title>
<path fill="none" stroke="midnightblue" d="M3831.67,-66.9621C3962.31,-46.7856 3997.19,-48.3645 4124,-31 4137.44,-29.1592 4151.92,-27.0424 4165.46,-25.005"/>
<polygon fill="midnightblue" stroke="midnightblue" points="3831.03,-63.5207 3821.68,-68.5183 3832.1,-70.4373 3831.03,-63.5207"/>
</g>
<!-- Node28&#45;&gt;Node21 -->
<g id="edge35" class="edge"><title>Node28&#45;&gt;Node21</title>
<path fill="none" stroke="midnightblue" d="M3236.86,-61.4511C3223.32,-51.4517 3207.27,-39.5995 3195.06,-30.5765"/>
<polygon fill="midnightblue" stroke="midnightblue" points="3234.78,-64.2699 3244.91,-67.396 3238.94,-58.6393 3234.78,-64.2699"/>
</g>
<!-- Node29 -->
<g id="node29" class="node"><title>Node29</title>
<g id="a_node29"><a xlink:href="runPostProcessing_8cxx.html" target="_top" xlink:title="This is a standalone executable to run postprocessing. ">
<polygon fill="none" stroke="black" points="3423,-6 3423,-25 3609,-25 3609,-6 3423,-6"/>
<text text-anchor="middle" x="3516" y="-13" font-family="Helvetica,sans-Serif" font-size="10.00">Framework/src/runPostProcessing.cxx</text>
</a>
</g>
</g>
<!-- Node28&#45;&gt;Node29 -->
<g id="edge36" class="edge"><title>Node28&#45;&gt;Node29</title>
<path fill="none" stroke="midnightblue" d="M3328.32,-64.9102C3377.67,-52.1803 3443.78,-35.1273 3482.94,-25.0287"/>
<polygon fill="midnightblue" stroke="midnightblue" points="3327.18,-61.5892 3318.37,-67.476 3328.93,-68.3674 3327.18,-61.5892"/>
</g>
<!-- Node30 -->
<g id="node30" class="node"><title>Node30</title>
<g id="a_node30"><a xlink:href="testPostProcessingRunner_8cxx.html" target="_top" xlink:title="Framework/test/testPostProcessing\lRunner.cxx">
<polygon fill="none" stroke="black" points="3777.5,-0.5 3777.5,-30.5 3950.5,-30.5 3950.5,-0.5 3777.5,-0.5"/>
<text text-anchor="start" x="3785.5" y="-18.5" font-family="Helvetica,sans-Serif" font-size="10.00">Framework/test/testPostProcessing</text>
<text text-anchor="middle" x="3864" y="-7.5" font-family="Helvetica,sans-Serif" font-size="10.00">Runner.cxx</text>
</a>
</g>
</g>
<!-- Node28&#45;&gt;Node30 -->
<g id="edge37" class="edge"><title>Node28&#45;&gt;Node30</title>
<path fill="none" stroke="midnightblue" d="M3354.17,-73.8358C3455.13,-64.9357 3623.54,-49.1355 3768,-31 3771.09,-30.6116 3774.24,-30.2036 3777.42,-29.7808"/>
<polygon fill="midnightblue" stroke="midnightblue" points="3353.66,-70.3665 3344.01,-74.7282 3354.28,-77.3397 3353.66,-70.3665"/>
</g>
<!-- Node31&#45;&gt;Node22 -->
<g id="edge39" class="edge"><title>Node31&#45;&gt;Node22</title>
<path fill="none" stroke="midnightblue" d="M3631.45,-61.4511C3645.14,-51.4517 3661.37,-39.5995 3673.73,-30.5765"/>
<polygon fill="midnightblue" stroke="midnightblue" points="3629.32,-58.6716 3623.31,-67.396 3633.45,-64.3245 3629.32,-58.6716"/>
</g>
<!-- Node32 -->
<g id="node32" class="node"><title>Node32</title>
<g id="a_node32"><a xlink:href="runRepositoryBenchmark_8cxx.html" target="_top" xlink:title="Framework/src/runRepository\lBenchmark.cxx">
<polygon fill="none" stroke="black" points="3969,-0.5 3969,-30.5 4115,-30.5 4115,-0.5 3969,-0.5"/>
<text text-anchor="start" x="3977" y="-18.5" font-family="Helvetica,sans-Serif" font-size="10.00">Framework/src/runRepository</text>
<text text-anchor="middle" x="4042" y="-7.5" font-family="Helvetica,sans-Serif" font-size="10.00">Benchmark.cxx</text>
</a>
</g>
</g>
<!-- Node31&#45;&gt;Node32 -->
<g id="edge40" class="edge"><title>Node31&#45;&gt;Node32</title>
<path fill="none" stroke="midnightblue" d="M3680.16,-66.8767C3805.01,-47.1745 3838.69,-49.486 3960,-31 3962.86,-30.5644 3965.77,-30.1084 3968.71,-29.6378"/>
<polygon fill="midnightblue" stroke="midnightblue" points="3679.54,-63.4317 3670.21,-68.4622 3680.64,-70.3444 3679.54,-63.4317"/>
</g>
</g>
</svg>
        <g id="navigator" transform="translate(0 0)" fill="#404254">
                <rect fill="#f2f5e9" fill-opacity="0.5" stroke="#606060" stroke-width=".5" x="0" y="0" width="60" height="60"/>
                <use id="zoomplus" xlink:href="#zoomPlus" x="17" y="9" onmousedown="handleZoom(evt,'in')"/>
                <use id="zoomminus" xlink:href="#zoomMin" x="42" y="9" onmousedown="handleZoom(evt,'out')"/>
                <use id="reset" xlink:href="#resetDef" x="30" y="36" onmousedown="handleReset()"/>
                <g id="arrowUp" xlink:href="#dirArrow" transform="translate(30 24)" onmousedown="handlePan(0,-1)">
                  <use xlink:href="#rim" fill="#404040">
                        <set attributeName="fill" to="#808080" begin="arrowUp.mouseover" end="arrowUp.mouseout"/>
                  </use>
                  <path fill="none" stroke="white" stroke-width="1.5" d="M0,-3.0v7 M-2.5,-0.5L0,-3.0L2.5,-0.5"/>
                </g>
                <g id="arrowRight" xlink:href="#dirArrow" transform="rotate(90) translate(36 -43)" onmousedown="handlePan(1,0)">
                  <use xlink:href="#rim" fill="#404040">
                        <set attributeName="fill" to="#808080" begin="arrowRight.mouseover" end="arrowRight.mouseout"/>
                  </use>
                  <path fill="none" stroke="white" stroke-width="1.5" d="M0,-3.0v7 M-2.5,-0.5L0,-3.0L2.5,-0.5"/>
                </g>
                <g id="arrowDown" xlink:href="#dirArrow" transform="rotate(180) translate(-30 -48)" onmousedown="handlePan(0,1)">
                  <use xlink:href="#rim" fill="#404040">
                        <set attributeName="fill" to="#808080" begin="arrowDown.mouseover" end="arrowDown.mouseout"/>
                  </use>
                  <path fill="none" stroke="white" stroke-width="1.5" d="M0,-3.0v7 M-2.5,-0.5L0,-3.0L2.5,-0.5"/>
                </g>
                <g id="arrowLeft" xlink:href="#dirArrow" transform="rotate(270) translate(-36 17)" onmousedown="handlePan(-1,0)">
                  <use xlink:href="#rim" fill="#404040">
                        <set attributeName="fill" to="#808080" begin="arrowLeft.mouseover" end="arrowLeft.mouseout"/>
                  </use>
                  <path fill="none" stroke="white" stroke-width="1.5" d="M0,-3.0v7 M-2.5,-0.5L0,-3.0L2.5,-0.5"/>
                </g>
        </g>
        <svg viewBox="0 0 15 15" width="100%" height="30px" preserveAspectRatio="xMaxYMin meet">
         <g id="arrow_out" transform="scale(0.3 0.3)">
          <a xlink:href="DatabaseInterface_8h__dep__incl_org.svg" target="_base">
           <rect id="button" ry="5" rx="5" y="6" x="6" height="38" width="38"
                fill="#f2f5e9" fill-opacity="0.5" stroke="#606060" stroke-width="1.0"/>
           <path id="arrow"
             d="M 11.500037,31.436501 C 11.940474,20.09759 22.043105,11.32322 32.158766,21.979434 L 37.068811,17.246167 C 37.068811,17.246167 37.088388,32 37.088388,32 L 22.160133,31.978069 C 22.160133,31.978069 26.997745,27.140456 26.997745,27.140456 C 18.528582,18.264221 13.291696,25.230495 11.500037,31.436501 z"
             style="fill:#404040;"/>
          </a>
         </g>
        </svg>
</svg>
