<?xml version="1.0" encoding="UTF-8" standalone="no"?>
<!DOCTYPE svg PUBLIC "-//W3C//DTD SVG 1.1//EN"
 "http://www.w3.org/Graphics/SVG/1.1/DTD/svg11.dtd">
<!-- Generated by graphviz version 2.38.0 (20140413.2041)
 -->
<!-- Title: Modules/EMCAL/src/DigitCheck.cxx Pages: 1 -->
<!--zoomable 252 -->
<svg id="main" version="1.1" xmlns="http://www.w3.org/2000/svg" xmlns:xlink="http://www.w3.org/1999/xlink" xml:space="preserve" onload="init(evt)">
<style type="text/css"><![CDATA[
.edge:hover path { stroke: red; }
.edge:hover polygon { stroke: red; fill: red; }
]]></style>
<script type="text/javascript"><![CDATA[
var edges = document.getElementsByTagName('g');
if (edges && edges.length) {
  for (var i=0;i<edges.length;i++) {
    if (edges[i].id.substr(0,4)=='edge') {
      edges[i].setAttribute('class','edge');
    }
  }
}
]]></script>
        <defs>
                <circle id="rim" cx="0" cy="0" r="7"/>
                <circle id="rim2" cx="0" cy="0" r="3.5"/>
                <g id="zoomPlus">
                        <use xlink:href="#rim" fill="#404040">
                                <set attributeName="fill" to="#808080" begin="zoomplus.mouseover" end="zoomplus.mouseout"/>
                        </use>
                        <path d="M-4,0h8M0,-4v8" fill="none" stroke="white" stroke-width="1.5" pointer-events="none"/>
                </g>
                <g id="zoomMin">
                        <use xlink:href="#rim" fill="#404040">
                                <set attributeName="fill" to="#808080" begin="zoomminus.mouseover" end="zoomminus.mouseout"/>
                        </use>
                        <path d="M-4,0h8" fill="none" stroke="white" stroke-width="1.5" pointer-events="none"/>
                </g>
                <g id="dirArrow">
                        <path fill="none" stroke="white" stroke-width="1.5" d="M0,-3.0v7 M-2.5,-0.5L0,-3.0L2.5,-0.5"/>
                </g>
               <g id="resetDef">
                       <use xlink:href="#rim2" fill="#404040">
                               <set attributeName="fill" to="#808080" begin="reset.mouseover" end="reset.mouseout"/>
                       </use>
               </g>
        </defs>

<script type="text/javascript">
var viewWidth = 879;
var viewHeight = 252;
var sectionId = 'dynsection-0';
</script>
<script xlink:href="svgpan.js"/>
<svg id="graph" class="graph">
<g id="viewport">
<title>Modules/EMCAL/src/DigitCheck.cxx</title>
<!-- Node1 -->
<g id="node1" class="node"><title>Node1</title>
<polygon fill="#bfbfbf" stroke="black" points="468.5,-224.5 468.5,-243.5 646.5,-243.5 646.5,-224.5 468.5,-224.5"/>
<text text-anchor="middle" x="557.5" y="-231.5" font-family="Helvetica,sans-Serif" font-size="10.00">Modules/EMCAL/src/DigitCheck.cxx</text>
</g>
<!-- Node2 -->
<g id="node2" class="node"><title>Node2</title>
<g id="a_node2"><a xlink:href="DigitCheck_8h.html" target="_top" xlink:title="EMCAL/DigitCheck.h">
<polygon fill="none" stroke="black" points="241,-168.5 241,-187.5 352,-187.5 352,-168.5 241,-168.5"/>
<text text-anchor="middle" x="296.5" y="-175.5" font-family="Helvetica,sans-Serif" font-size="10.00">EMCAL/DigitCheck.h</text>
</a>
</g>
</g>
<!-- Node1&#45;&gt;Node2 -->
<g id="edge1" class="edge"><title>Node1&#45;&gt;Node2</title>
<path fill="none" stroke="midnightblue" d="M516.144,-224.444C470.422,-214.984 396.736,-199.738 347.478,-189.547"/>
<polygon fill="midnightblue" stroke="midnightblue" points="348.164,-186.115 337.663,-187.516 346.746,-192.97 348.164,-186.115"/>
</g>
<!-- Node7 -->
<g id="node7" class="node"><title>Node7</title>
<g id="a_node7"><a xlink:href="MonitorObject_8h.html" target="_top" xlink:title="QualityControl/MonitorObject.h">
<polygon fill="none" stroke="black" points="68,-56.5 68,-75.5 219,-75.5 219,-56.5 68,-56.5"/>
<text text-anchor="middle" x="143.5" y="-63.5" font-family="Helvetica,sans-Serif" font-size="10.00">QualityControl/MonitorObject.h</text>
</a>
</g>
</g>
<!-- Node1&#45;&gt;Node7 -->
<g id="edge15" class="edge"><title>Node1&#45;&gt;Node7</title>
<path fill="none" stroke="midnightblue" d="M468.171,-228.487C385.692,-222.933 270.284,-211.227 231.5,-188 190.777,-163.612 163.351,-112.385 150.99,-85.0636"/>
<polygon fill="midnightblue" stroke="midnightblue" points="154.06,-83.3455 146.868,-75.5657 147.639,-86.1325 154.06,-83.3455"/>
</g>
<!-- Node10 -->
<g id="node10" class="node"><title>Node10</title>
<g id="a_node10"><a xlink:href="Quality_8h.html" target="_top" xlink:title="QualityControl/Quality.h">
<polygon fill="none" stroke="black" points="352,-56.5 352,-75.5 473,-75.5 473,-56.5 352,-56.5"/>
<text text-anchor="middle" x="412.5" y="-63.5" font-family="Helvetica,sans-Serif" font-size="10.00">QualityControl/Quality.h</text>
</a>
</g>
</g>
<!-- Node1&#45;&gt;Node10 -->
<g id="edge16" class="edge"><title>Node1&#45;&gt;Node10</title>
<path fill="none" stroke="midnightblue" d="M469.897,-224.424C447.691,-217.828 426.258,-206.675 412.5,-188 390.259,-157.811 399.034,-110.894 406.385,-85.2535"/>
<polygon fill="midnightblue" stroke="midnightblue" points="409.735,-86.2664 409.354,-75.6785 403.049,-84.1934 409.735,-86.2664"/>
</g>
<!-- Node11 -->
<g id="node11" class="node"><title>Node11</title>
<polygon fill="none" stroke="#bfbfbf" points="421,-168.5 421,-187.5 518,-187.5 518,-168.5 421,-168.5"/>
<text text-anchor="middle" x="469.5" y="-175.5" font-family="Helvetica,sans-Serif" font-size="10.00">fairlogger/Logger.h</text>
</g>
<!-- Node1&#45;&gt;Node11 -->
<g id="edge17" class="edge"><title>Node1&#45;&gt;Node11</title>
<path fill="none" stroke="midnightblue" d="M543.361,-224.324C529.634,-215.9 508.564,-202.971 492.436,-193.074"/>
<polygon fill="midnightblue" stroke="midnightblue" points="493.957,-189.902 483.604,-187.655 490.296,-195.868 493.957,-189.902"/>
</g>
<!-- Node12 -->
<g id="node12" class="node"><title>Node12</title>
<polygon fill="none" stroke="#bfbfbf" points="535.5,-168.5 535.5,-187.5 579.5,-187.5 579.5,-168.5 535.5,-168.5"/>
<text text-anchor="middle" x="557.5" y="-175.5" font-family="Helvetica,sans-Serif" font-size="10.00">TH1.h</text>
</g>
<!-- Node1&#45;&gt;Node12 -->
<g id="edge18" class="edge"><title>Node1&#45;&gt;Node12</title>
<path fill="none" stroke="midnightblue" d="M557.5,-224.083C557.5,-217.006 557.5,-206.861 557.5,-197.986"/>
<polygon fill="midnightblue" stroke="midnightblue" points="561,-197.751 557.5,-187.751 554,-197.751 561,-197.751"/>
</g>
<!-- Node13 -->
<g id="node13" class="node"><title>Node13</title>
<polygon fill="none" stroke="#bfbfbf" points="597.5,-168.5 597.5,-187.5 641.5,-187.5 641.5,-168.5 597.5,-168.5"/>
<text text-anchor="middle" x="619.5" y="-175.5" font-family="Helvetica,sans-Serif" font-size="10.00">TH2.h</text>
</g>
<!-- Node1&#45;&gt;Node13 -->
<g id="edge19" class="edge"><title>Node1&#45;&gt;Node13</title>
<path fill="none" stroke="midnightblue" d="M567.461,-224.324C576.627,-216.341 590.437,-204.313 601.528,-194.653"/>
<polygon fill="midnightblue" stroke="midnightblue" points="604.115,-197.041 609.357,-187.834 599.518,-191.762 604.115,-197.041"/>
</g>
<!-- Node14 -->
<g id="node14" class="node"><title>Node14</title>
<polygon fill="none" stroke="#bfbfbf" points="660,-168.5 660,-187.5 733,-187.5 733,-168.5 660,-168.5"/>
<text text-anchor="middle" x="696.5" y="-175.5" font-family="Helvetica,sans-Serif" font-size="10.00">TPaveText.h</text>
</g>
<!-- Node1&#45;&gt;Node14 -->
<g id="edge20" class="edge"><title>Node1&#45;&gt;Node14</title>
<path fill="none" stroke="midnightblue" d="M579.525,-224.444C602.604,-215.478 639.062,-201.314 665.141,-191.183"/>
<polygon fill="midnightblue" stroke="midnightblue" points="666.524,-194.4 674.578,-187.516 663.989,-187.875 666.524,-194.4"/>
</g>
<!-- Node15 -->
<g id="node15" class="node"><title>Node15</title>
<polygon fill="none" stroke="#bfbfbf" points="751,-168.5 751,-187.5 798,-187.5 798,-168.5 751,-168.5"/>
<text text-anchor="middle" x="774.5" y="-175.5" font-family="Helvetica,sans-Serif" font-size="10.00">TList.h</text>
</g>
<!-- Node1&#45;&gt;Node15 -->
<g id="edge21" class="edge"><title>Node1&#45;&gt;Node15</title>
<path fill="none" stroke="midnightblue" d="M594.453,-224.42C629.819,-216.117 684.902,-202.951 741.015,-188.33"/>
<polygon fill="midnightblue" stroke="midnightblue" points="741.973,-191.697 750.76,-185.778 740.2,-184.925 741.973,-191.697"/>
</g>
<!-- Node16 -->
<g id="node16" class="node"><title>Node16</title>
<polygon fill="none" stroke="#bfbfbf" points="816.5,-168.5 816.5,-187.5 870.5,-187.5 870.5,-168.5 816.5,-168.5"/>
<text text-anchor="middle" x="843.5" y="-175.5" font-family="Helvetica,sans-Serif" font-size="10.00">iostream</text>
</g>
<!-- Node1&#45;&gt;Node16 -->
<g id="edge22" class="edge"><title>Node1&#45;&gt;Node16</title>
<path fill="none" stroke="midnightblue" d="M610.861,-224.458C659.435,-216.442 733.334,-203.649 806.562,-188.089"/>
<polygon fill="midnightblue" stroke="midnightblue" points="807.374,-191.494 816.418,-185.977 805.907,-184.65 807.374,-191.494"/>
</g>
<!-- Node3 -->
<g id="node3" class="node"><title>Node3</title>
<g id="a_node3"><a xlink:href="CheckInterface_8h.html" target="_top" xlink:title="QualityControl/CheckInterface.h">
<polygon fill="none" stroke="black" points="207,-112.5 207,-131.5 364,-131.5 364,-112.5 207,-112.5"/>
<text text-anchor="middle" x="285.5" y="-119.5" font-family="Helvetica,sans-Serif" font-size="10.00">QualityControl/CheckInterface.h</text>
</a>
</g>
</g>
<!-- Node2&#45;&gt;Node3 -->
<g id="edge2" class="edge"><title>Node2&#45;&gt;Node3</title>
<path fill="none" stroke="midnightblue" d="M294.684,-168.083C293.226,-160.927 291.129,-150.635 289.307,-141.691"/>
<polygon fill="midnightblue" stroke="midnightblue" points="292.708,-140.851 287.283,-131.751 285.849,-142.248 292.708,-140.851"/>
</g>
<!-- Node4 -->
<g id="node4" class="node"><title>Node4</title>
<polygon fill="none" stroke="#bfbfbf" points="340,-0.5 340,-19.5 381,-19.5 381,-0.5 340,-0.5"/>
<text text-anchor="middle" x="360.5" y="-7.5" font-family="Helvetica,sans-Serif" font-size="10.00">string</text>
</g>
<!-- Node3&#45;&gt;Node4 -->
<g id="edge3" class="edge"><title>Node3&#45;&gt;Node4</title>
<path fill="none" stroke="midnightblue" d="M291.385,-112.368C303.762,-94.2153 332.681,-51.8015 348.916,-27.9902"/>
<polygon fill="midnightblue" stroke="midnightblue" points="351.901,-29.8254 354.642,-19.5914 346.117,-25.882 351.901,-29.8254"/>
</g>
<!-- Node5 -->
<g id="node5" class="node"><title>Node5</title>
<polygon fill="none" stroke="#bfbfbf" points="212,-0.5 212,-19.5 247,-19.5 247,-0.5 212,-0.5"/>
<text text-anchor="middle" x="229.5" y="-7.5" font-family="Helvetica,sans-Serif" font-size="10.00">map</text>
</g>
<!-- Node3&#45;&gt;Node5 -->
<g id="edge4" class="edge"><title>Node3&#45;&gt;Node5</title>
<path fill="none" stroke="midnightblue" d="M281.106,-112.368C271.946,-94.376 250.653,-52.5503 238.474,-28.6267"/>
<polygon fill="midnightblue" stroke="midnightblue" points="241.53,-26.9152 233.874,-19.5914 235.292,-30.091 241.53,-26.9152"/>
</g>
<!-- Node6 -->
<g id="node6" class="node"><title>Node6</title>
<polygon fill="none" stroke="#bfbfbf" points="265.5,-0.5 265.5,-19.5 321.5,-19.5 321.5,-0.5 265.5,-0.5"/>
<text text-anchor="middle" x="293.5" y="-7.5" font-family="Helvetica,sans-Serif" font-size="10.00">Rtypes.h</text>
</g>
<!-- Node3&#45;&gt;Node6 -->
<g id="edge5" class="edge"><title>Node3&#45;&gt;Node6</title>
<path fill="none" stroke="midnightblue" d="M286.128,-112.368C287.419,-94.617 290.397,-53.6664 292.147,-29.5974"/>
<polygon fill="midnightblue" stroke="midnightblue" points="295.641,-29.819 292.875,-19.5914 288.659,-29.3112 295.641,-29.819"/>
</g>
<!-- Node3&#45;&gt;Node7 -->
<g id="edge6" class="edge"><title>Node3&#45;&gt;Node7</title>
<path fill="none" stroke="midnightblue" d="M263,-112.444C239.423,-103.478 202.178,-89.314 175.536,-79.1827"/>
<polygon fill="midnightblue" stroke="midnightblue" points="176.486,-75.7995 165.895,-75.5164 173.998,-82.3424 176.486,-75.7995"/>
</g>
<!-- Node3&#45;&gt;Node10 -->
<g id="edge12" class="edge"><title>Node3&#45;&gt;Node10</title>
<path fill="none" stroke="midnightblue" d="M305.624,-112.444C326.524,-103.557 359.435,-89.5632 383.216,-79.4514"/>
<polygon fill="midnightblue" stroke="midnightblue" points="384.638,-82.6504 392.471,-75.5164 381.898,-76.2085 384.638,-82.6504"/>
</g>
<!-- Node7&#45;&gt;Node4 -->
<g id="edge7" class="edge"><title>Node7&#45;&gt;Node4</title>
<path fill="none" stroke="midnightblue" d="M181.621,-56.4769C217.448,-48.3223 272.776,-35.3602 329.949,-20.0312"/>
<polygon fill="midnightblue" stroke="midnightblue" points="331.144,-23.3337 339.886,-17.3475 329.319,-16.5758 331.144,-23.3337"/>
</g>
<!-- Node7&#45;&gt;Node5 -->
<g id="edge8" class="edge"><title>Node7&#45;&gt;Node5</title>
<path fill="none" stroke="midnightblue" d="M157.317,-56.324C170.733,-47.9002 191.324,-34.9709 207.086,-25.0741"/>
<polygon fill="midnightblue" stroke="midnightblue" points="209.109,-27.9364 215.717,-19.6545 205.387,-22.0081 209.109,-27.9364"/>
</g>
<!-- Node7&#45;&gt;Node6 -->
<g id="edge9" class="edge"><title>Node7&#45;&gt;Node6</title>
<path fill="none" stroke="midnightblue" d="M167.268,-56.4435C192.393,-47.3986 232.211,-33.064 260.4,-22.9158"/>
<polygon fill="midnightblue" stroke="midnightblue" points="261.62,-26.1968 269.843,-19.5164 259.249,-19.6106 261.62,-26.1968"/>
</g>
<!-- Node8 -->
<g id="node8" class="node"><title>Node8</title>
<polygon fill="none" stroke="#bfbfbf" points="0,-0.5 0,-19.5 59,-19.5 59,-0.5 0,-0.5"/>
<text text-anchor="middle" x="29.5" y="-7.5" font-family="Helvetica,sans-Serif" font-size="10.00">TObject.h</text>
</g>
<!-- Node7&#45;&gt;Node8 -->
<g id="edge10" class="edge"><title>Node7&#45;&gt;Node8</title>
<path fill="none" stroke="midnightblue" d="M125.436,-56.4435C106.925,-47.6751 77.9193,-33.9355 56.6445,-23.8579"/>
<polygon fill="midnightblue" stroke="midnightblue" points="58.0148,-20.6343 47.4791,-19.5164 55.0182,-26.9604 58.0148,-20.6343"/>
</g>
<!-- Node9 -->
<g id="node9" class="node"><title>Node9</title>
<polygon fill="none" stroke="#bfbfbf" points="77.5,-0.5 77.5,-19.5 193.5,-19.5 193.5,-0.5 77.5,-0.5"/>
<text text-anchor="middle" x="135.5" y="-7.5" font-family="Helvetica,sans-Serif" font-size="10.00">Common/Exceptions.h</text>
</g>
<!-- Node7&#45;&gt;Node9 -->
<g id="edge11" class="edge"><title>Node7&#45;&gt;Node9</title>
<path fill="none" stroke="midnightblue" d="M142.179,-56.083C141.119,-48.9272 139.594,-38.6353 138.269,-29.6911"/>
<polygon fill="midnightblue" stroke="midnightblue" points="141.724,-29.1302 136.796,-19.7511 134.8,-30.1561 141.724,-29.1302"/>
</g>
<!-- Node10&#45;&gt;Node4 -->
<g id="edge14" class="edge"><title>Node10&#45;&gt;Node4</title>
<path fill="none" stroke="midnightblue" d="M403.913,-56.083C396.341,-48.2195 385.122,-36.5688 375.986,-27.0813"/>
<polygon fill="midnightblue" stroke="midnightblue" points="378.385,-24.5266 368.927,-19.7511 373.342,-29.3821 378.385,-24.5266"/>
</g>
<!-- Node10&#45;&gt;Node6 -->
<g id="edge13" class="edge"><title>Node10&#45;&gt;Node6</title>
<path fill="none" stroke="midnightblue" d="M393.644,-56.4435C374.234,-47.6356 343.77,-33.8116 321.535,-23.722"/>
<polygon fill="midnightblue" stroke="midnightblue" points="322.82,-20.4615 312.268,-19.5164 319.928,-26.836 322.82,-20.4615"/>
</g>
</g>
</svg>
        <g id="navigator" transform="translate(0 0)" fill="#404254">
                <rect fill="#f2f5e9" fill-opacity="0.5" stroke="#606060" stroke-width=".5" x="0" y="0" width="60" height="60"/>
                <use id="zoomplus" xlink:href="#zoomPlus" x="17" y="9" onmousedown="handleZoom(evt,'in')"/>
                <use id="zoomminus" xlink:href="#zoomMin" x="42" y="9" onmousedown="handleZoom(evt,'out')"/>
                <use id="reset" xlink:href="#resetDef" x="30" y="36" onmousedown="handleReset()"/>
                <g id="arrowUp" xlink:href="#dirArrow" transform="translate(30 24)" onmousedown="handlePan(0,-1)">
                  <use xlink:href="#rim" fill="#404040">
                        <set attributeName="fill" to="#808080" begin="arrowUp.mouseover" end="arrowUp.mouseout"/>
                  </use>
                  <path fill="none" stroke="white" stroke-width="1.5" d="M0,-3.0v7 M-2.5,-0.5L0,-3.0L2.5,-0.5"/>
                </g>
                <g id="arrowRight" xlink:href="#dirArrow" transform="rotate(90) translate(36 -43)" onmousedown="handlePan(1,0)">
                  <use xlink:href="#rim" fill="#404040">
                        <set attributeName="fill" to="#808080" begin="arrowRight.mouseover" end="arrowRight.mouseout"/>
                  </use>
                  <path fill="none" stroke="white" stroke-width="1.5" d="M0,-3.0v7 M-2.5,-0.5L0,-3.0L2.5,-0.5"/>
                </g>
                <g id="arrowDown" xlink:href="#dirArrow" transform="rotate(180) translate(-30 -48)" onmousedown="handlePan(0,1)">
                  <use xlink:href="#rim" fill="#404040">
                        <set attributeName="fill" to="#808080" begin="arrowDown.mouseover" end="arrowDown.mouseout"/>
                  </use>
                  <path fill="none" stroke="white" stroke-width="1.5" d="M0,-3.0v7 M-2.5,-0.5L0,-3.0L2.5,-0.5"/>
                </g>
                <g id="arrowLeft" xlink:href="#dirArrow" transform="rotate(270) translate(-36 17)" onmousedown="handlePan(-1,0)">
                  <use xlink:href="#rim" fill="#404040">
                        <set attributeName="fill" to="#808080" begin="arrowLeft.mouseover" end="arrowLeft.mouseout"/>
                  </use>
                  <path fill="none" stroke="white" stroke-width="1.5" d="M0,-3.0v7 M-2.5,-0.5L0,-3.0L2.5,-0.5"/>
                </g>
        </g>
        <svg viewBox="0 0 15 15" width="100%" height="30px" preserveAspectRatio="xMaxYMin meet">
         <g id="arrow_out" transform="scale(0.3 0.3)">
          <a xlink:href="DigitCheck_8cxx__incl_org.svg" target="_base">
           <rect id="button" ry="5" rx="5" y="6" x="6" height="38" width="38"
                fill="#f2f5e9" fill-opacity="0.5" stroke="#606060" stroke-width="1.0"/>
           <path id="arrow"
             d="M 11.500037,31.436501 C 11.940474,20.09759 22.043105,11.32322 32.158766,21.979434 L 37.068811,17.246167 C 37.068811,17.246167 37.088388,32 37.088388,32 L 22.160133,31.978069 C 22.160133,31.978069 26.997745,27.140456 26.997745,27.140456 C 18.528582,18.264221 13.291696,25.230495 11.500037,31.436501 z"
             style="fill:#404040;"/>
          </a>
         </g>
        </svg>
</svg>
