<?xml version="1.0" encoding="UTF-8" standalone="no"?>
<!DOCTYPE svg PUBLIC "-//W3C//DTD SVG 1.1//EN"
 "http://www.w3.org/Graphics/SVG/1.1/DTD/svg11.dtd">
<!-- Generated by graphviz version 2.38.0 (20140413.2041)
 -->
<!-- Title: Modules/EMCAL/src/DigitsQcTask.cxx Pages: 1 -->
<svg width="1485pt" height="330pt"
 viewBox="0.00 0.00 1484.50 330.00" xmlns="http://www.w3.org/2000/svg" xmlns:xlink="http://www.w3.org/1999/xlink">
<g id="graph0" class="graph" transform="scale(1 1) rotate(0) translate(4 326)">
<title>Modules/EMCAL/src/DigitsQcTask.cxx</title>
<!-- Node1 -->
<g id="node1" class="node"><title>Node1</title>
<polygon fill="#bfbfbf" stroke="black" points="335.5,-291.5 335.5,-321.5 471.5,-321.5 471.5,-291.5 335.5,-291.5"/>
<text text-anchor="start" x="343.5" y="-309.5" font-family="Helvetica,sans-Serif" font-size="10.00">Modules/EMCAL/src/Digits</text>
<text text-anchor="middle" x="403.5" y="-298.5" font-family="Helvetica,sans-Serif" font-size="10.00">QcTask.cxx</text>
</g>
<!-- Node2 -->
<g id="node2" class="node"><title>Node2</title>
<polygon fill="none" stroke="#bfbfbf" points="0,-230 0,-249 65,-249 65,-230 0,-230"/>
<text text-anchor="middle" x="32.5" y="-237" font-family="Helvetica,sans-Serif" font-size="10.00">TCanvas.h</text>
</g>
<!-- Node1&#45;&gt;Node2 -->
<g id="edge1" class="edge"><title>Node1&#45;&gt;Node2</title>
<path fill="none" stroke="midnightblue" d="M335.376,-298.67C268.346,-291.103 163.415,-276.982 74.5,-255 71.2799,-254.204 67.9566,-253.266 64.6557,-252.257"/>
<polygon fill="midnightblue" stroke="midnightblue" points="65.5376,-248.863 54.9451,-249.084 63.3635,-255.517 65.5376,-248.863"/>
</g>
<!-- Node3 -->
<g id="node3" class="node"><title>Node3</title>
<polygon fill="none" stroke="#bfbfbf" points="83.5,-230 83.5,-249 127.5,-249 127.5,-230 83.5,-230"/>
<text text-anchor="middle" x="105.5" y="-237" font-family="Helvetica,sans-Serif" font-size="10.00">TH2.h</text>
</g>
<!-- Node1&#45;&gt;Node3 -->
<g id="edge2" class="edge"><title>Node1&#45;&gt;Node3</title>
<path fill="none" stroke="midnightblue" d="M335.399,-297.416C280.737,-289.791 202.496,-276.302 136.5,-255 134.828,-254.46 133.13,-253.852 131.432,-253.198"/>
<polygon fill="midnightblue" stroke="midnightblue" points="132.492,-249.844 121.922,-249.114 129.729,-256.276 132.492,-249.844"/>
</g>
<!-- Node4 -->
<g id="node4" class="node"><title>Node4</title>
<polygon fill="none" stroke="#bfbfbf" points="145.5,-224.5 145.5,-254.5 315.5,-254.5 315.5,-224.5 145.5,-224.5"/>
<text text-anchor="start" x="153.5" y="-242.5" font-family="Helvetica,sans-Serif" font-size="10.00">DataFormatsEMCAL/EMCALBlock</text>
<text text-anchor="middle" x="230.5" y="-231.5" font-family="Helvetica,sans-Serif" font-size="10.00">Header.h</text>
</g>
<!-- Node1&#45;&gt;Node4 -->
<g id="edge3" class="edge"><title>Node1&#45;&gt;Node4</title>
<path fill="none" stroke="midnightblue" d="M365.962,-291.396C340.004,-281.643 305.276,-268.595 277.481,-258.152"/>
<polygon fill="midnightblue" stroke="midnightblue" points="278.557,-254.817 267.965,-254.577 276.095,-261.37 278.557,-254.817"/>
</g>
<!-- Node5 -->
<g id="node5" class="node"><title>Node5</title>
<polygon fill="none" stroke="#bfbfbf" points="333.5,-230 333.5,-249 473.5,-249 473.5,-230 333.5,-230"/>
<text text-anchor="middle" x="403.5" y="-237" font-family="Helvetica,sans-Serif" font-size="10.00">DataFormatsEMCAL/Digit.h</text>
</g>
<!-- Node1&#45;&gt;Node5 -->
<g id="edge4" class="edge"><title>Node1&#45;&gt;Node5</title>
<path fill="none" stroke="midnightblue" d="M403.5,-291.396C403.5,-282.064 403.5,-269.714 403.5,-259.517"/>
<polygon fill="midnightblue" stroke="midnightblue" points="407,-259.195 403.5,-249.195 400,-259.195 407,-259.195"/>
</g>
<!-- Node6 -->
<g id="node6" class="node"><title>Node6</title>
<g id="a_node6"><a xlink:href="QcInfoLogger_8h.html" target="_top" xlink:title="QualityControl/QcInfoLogger.h">
<polygon fill="none" stroke="black" points="492,-230 492,-249 641,-249 641,-230 492,-230"/>
<text text-anchor="middle" x="566.5" y="-237" font-family="Helvetica,sans-Serif" font-size="10.00">QualityControl/QcInfoLogger.h</text>
</a>
</g>
</g>
<!-- Node1&#45;&gt;Node6 -->
<g id="edge5" class="edge"><title>Node1&#45;&gt;Node6</title>
<path fill="none" stroke="midnightblue" d="M438.869,-291.396C467.722,-279.89 508.077,-263.797 535.637,-252.807"/>
<polygon fill="midnightblue" stroke="midnightblue" points="537.175,-255.962 545.167,-249.007 534.582,-249.46 537.175,-255.962"/>
</g>
<!-- Node8 -->
<g id="node8" class="node"><title>Node8</title>
<g id="a_node8"><a xlink:href="DigitsQcTask_8h.html" target="_top" xlink:title="EMCAL/DigitsQcTask.h">
<polygon fill="none" stroke="black" points="659.5,-230 659.5,-249 781.5,-249 781.5,-230 659.5,-230"/>
<text text-anchor="middle" x="720.5" y="-237" font-family="Helvetica,sans-Serif" font-size="10.00">EMCAL/DigitsQcTask.h</text>
</a>
</g>
</g>
<!-- Node1&#45;&gt;Node8 -->
<g id="edge7" class="edge"><title>Node1&#45;&gt;Node8</title>
<path fill="none" stroke="midnightblue" d="M471.504,-291.556C530.639,-279.43 615.047,-262.123 668.804,-251.1"/>
<polygon fill="midnightblue" stroke="midnightblue" points="669.708,-254.488 678.801,-249.05 668.301,-247.63 669.708,-254.488"/>
</g>
<!-- Node25 -->
<g id="node25" class="node"><title>Node25</title>
<polygon fill="none" stroke="#bfbfbf" points="799.5,-230 799.5,-249 927.5,-249 927.5,-230 799.5,-230"/>
<text text-anchor="middle" x="863.5" y="-237" font-family="Helvetica,sans-Serif" font-size="10.00">EMCALBase/Geometry.h</text>
</g>
<!-- Node1&#45;&gt;Node25 -->
<g id="edge32" class="edge"><title>Node1&#45;&gt;Node25</title>
<path fill="none" stroke="midnightblue" d="M471.511,-298.008C548.958,-289.157 679.178,-273.298 790.5,-255 797.858,-253.79 805.609,-252.389 813.201,-250.945"/>
<polygon fill="midnightblue" stroke="midnightblue" points="813.895,-254.375 823.044,-249.033 812.56,-247.504 813.895,-254.375"/>
</g>
<!-- Node7 -->
<g id="node7" class="node"><title>Node7</title>
<polygon fill="none" stroke="#bfbfbf" points="501.5,-168.5 501.5,-187.5 631.5,-187.5 631.5,-168.5 501.5,-168.5"/>
<text text-anchor="middle" x="566.5" y="-175.5" font-family="Helvetica,sans-Serif" font-size="10.00">InfoLogger/InfoLogger.hxx</text>
</g>
<!-- Node6&#45;&gt;Node7 -->
<g id="edge6" class="edge"><title>Node6&#45;&gt;Node7</title>
<path fill="none" stroke="midnightblue" d="M566.5,-229.975C566.5,-221.58 566.5,-208.481 566.5,-197.663"/>
<polygon fill="midnightblue" stroke="midnightblue" points="570,-197.509 566.5,-187.509 563,-197.509 570,-197.509"/>
</g>
<!-- Node9 -->
<g id="node9" class="node"><title>Node9</title>
<g id="a_node9"><a xlink:href="TaskInterface_8h.html" target="_top" xlink:title="QualityControl/TaskInterface.h">
<polygon fill="none" stroke="black" points="731.5,-168.5 731.5,-187.5 881.5,-187.5 881.5,-168.5 731.5,-168.5"/>
<text text-anchor="middle" x="806.5" y="-175.5" font-family="Helvetica,sans-Serif" font-size="10.00">QualityControl/TaskInterface.h</text>
</a>
</g>
</g>
<!-- Node8&#45;&gt;Node9 -->
<g id="edge8" class="edge"><title>Node8&#45;&gt;Node9</title>
<path fill="none" stroke="midnightblue" d="M732.822,-229.975C746.616,-220.431 769.199,-204.807 785.732,-193.368"/>
<polygon fill="midnightblue" stroke="midnightblue" points="787.969,-196.077 794.201,-187.509 783.986,-190.32 787.969,-196.077"/>
</g>
<!-- Node24 -->
<g id="node24" class="node"><title>Node24</title>
<polygon fill="none" stroke="#bfbfbf" points="675.5,-168.5 675.5,-187.5 713.5,-187.5 713.5,-168.5 675.5,-168.5"/>
<text text-anchor="middle" x="694.5" y="-175.5" font-family="Helvetica,sans-Serif" font-size="10.00">array</text>
</g>
<!-- Node8&#45;&gt;Node24 -->
<g id="edge31" class="edge"><title>Node8&#45;&gt;Node24</title>
<path fill="none" stroke="midnightblue" d="M716.775,-229.975C713.029,-221.404 707.14,-207.927 702.358,-196.983"/>
<polygon fill="midnightblue" stroke="midnightblue" points="705.43,-195.271 698.218,-187.509 699.015,-198.074 705.43,-195.271"/>
</g>
<!-- Node10 -->
<g id="node10" class="node"><title>Node10</title>
<polygon fill="none" stroke="#bfbfbf" points="939,-0.5 939,-19.5 974,-19.5 974,-0.5 939,-0.5"/>
<text text-anchor="middle" x="956.5" y="-7.5" font-family="Helvetica,sans-Serif" font-size="10.00">map</text>
</g>
<!-- Node9&#45;&gt;Node10 -->
<g id="edge9" class="edge"><title>Node9&#45;&gt;Node10</title>
<path fill="none" stroke="midnightblue" d="M763.433,-168.486C743.104,-162.074 720.677,-150.991 708.5,-132 690.268,-103.565 686.852,-81.9291 708.5,-56 736.353,-22.6382 870.293,-13.9562 928.92,-11.7405"/>
<polygon fill="midnightblue" stroke="midnightblue" points="929.073,-15.2374 938.948,-11.3975 928.834,-8.24147 929.073,-15.2374"/>
</g>
<!-- Node11 -->
<g id="node11" class="node"><title>Node11</title>
<polygon fill="none" stroke="#bfbfbf" points="801.5,-56.5 801.5,-75.5 853.5,-75.5 853.5,-56.5 801.5,-56.5"/>
<text text-anchor="middle" x="827.5" y="-63.5" font-family="Helvetica,sans-Serif" font-size="10.00">memory</text>
</g>
<!-- Node9&#45;&gt;Node11 -->
<g id="edge10" class="edge"><title>Node9&#45;&gt;Node11</title>
<path fill="none" stroke="midnightblue" d="M798.364,-168.116C787.893,-155.549 772.004,-131.896 780.5,-112 785.647,-99.9469 795.781,-89.5764 805.326,-81.8389"/>
<polygon fill="midnightblue" stroke="midnightblue" points="807.54,-84.5532 813.422,-75.7409 803.328,-78.9619 807.54,-84.5532"/>
</g>
<!-- Node12 -->
<g id="node12" class="node"><title>Node12</title>
<polygon fill="none" stroke="#bfbfbf" points="1069,-0.5 1069,-19.5 1110,-19.5 1110,-0.5 1069,-0.5"/>
<text text-anchor="middle" x="1089.5" y="-7.5" font-family="Helvetica,sans-Serif" font-size="10.00">string</text>
</g>
<!-- Node9&#45;&gt;Node12 -->
<g id="edge11" class="edge"><title>Node9&#45;&gt;Node12</title>
<path fill="none" stroke="midnightblue" d="M797.48,-168.34C789.428,-159.932 778.202,-146.363 773.5,-132 762.668,-98.9107 765.804,-78.3509 792.5,-56 812.753,-39.0433 986.967,-20.7414 1058.77,-13.8438"/>
<polygon fill="midnightblue" stroke="midnightblue" points="1059.35,-17.3037 1068.98,-12.8734 1058.69,-10.3351 1059.35,-17.3037"/>
</g>
<!-- Node13 -->
<g id="node13" class="node"><title>Node13</title>
<polygon fill="none" stroke="#bfbfbf" points="683,-0.5 683,-19.5 766,-19.5 766,-0.5 683,-0.5"/>
<text text-anchor="middle" x="724.5" y="-7.5" font-family="Helvetica,sans-Serif" font-size="10.00">unordered_map</text>
</g>
<!-- Node9&#45;&gt;Node13 -->
<g id="edge12" class="edge"><title>Node9&#45;&gt;Node13</title>
<path fill="none" stroke="midnightblue" d="M731.342,-169.312C708.048,-162.981 684.773,-151.756 670.5,-132 650.72,-104.62 656.173,-86.5888 670.5,-56 676.545,-43.0941 688.312,-32.5985 699.323,-24.9999"/>
<polygon fill="midnightblue" stroke="midnightblue" points="701.328,-27.8723 707.867,-19.5364 697.557,-21.9748 701.328,-27.8723"/>
</g>
<!-- Node14 -->
<g id="node14" class="node"><title>Node14</title>
<polygon fill="none" stroke="#bfbfbf" points="789,-112.5 789,-131.5 914,-131.5 914,-112.5 789,-112.5"/>
<text text-anchor="middle" x="851.5" y="-119.5" font-family="Helvetica,sans-Serif" font-size="10.00">Framework/InitContext.h</text>
</g>
<!-- Node9&#45;&gt;Node14 -->
<g id="edge13" class="edge"><title>Node9&#45;&gt;Node14</title>
<path fill="none" stroke="midnightblue" d="M813.931,-168.083C820.353,-160.377 829.806,-149.033 837.622,-139.653"/>
<polygon fill="midnightblue" stroke="midnightblue" points="840.494,-141.674 844.207,-131.751 835.117,-137.193 840.494,-141.674"/>
</g>
<!-- Node15 -->
<g id="node15" class="node"><title>Node15</title>
<polygon fill="none" stroke="#bfbfbf" points="932.5,-112.5 932.5,-131.5 1092.5,-131.5 1092.5,-112.5 932.5,-112.5"/>
<text text-anchor="middle" x="1012.5" y="-119.5" font-family="Helvetica,sans-Serif" font-size="10.00">Framework/ProcessingContext.h</text>
</g>
<!-- Node9&#45;&gt;Node15 -->
<g id="edge14" class="edge"><title>Node9&#45;&gt;Node15</title>
<path fill="none" stroke="midnightblue" d="M839.141,-168.444C874.55,-159.162 931.209,-144.309 970.053,-134.127"/>
<polygon fill="midnightblue" stroke="midnightblue" points="971.226,-137.438 980.011,-131.516 969.451,-130.667 971.226,-137.438"/>
</g>
<!-- Node16 -->
<g id="node16" class="node"><title>Node16</title>
<g id="a_node16"><a xlink:href="Activity_8h.html" target="_top" xlink:title="QualityControl/Activity.h">
<polygon fill="none" stroke="black" points="1111,-112.5 1111,-131.5 1234,-131.5 1234,-112.5 1111,-112.5"/>
<text text-anchor="middle" x="1172.5" y="-119.5" font-family="Helvetica,sans-Serif" font-size="10.00">QualityControl/Activity.h</text>
</a>
</g>
</g>
<!-- Node9&#45;&gt;Node16 -->
<g id="edge15" class="edge"><title>Node9&#45;&gt;Node16</title>
<path fill="none" stroke="midnightblue" d="M864.494,-168.444C929.814,-158.806 1035.84,-143.163 1104.87,-132.978"/>
<polygon fill="midnightblue" stroke="midnightblue" points="1105.4,-136.439 1114.78,-131.516 1104.37,-129.514 1105.4,-136.439"/>
</g>
<!-- Node17 -->
<g id="node17" class="node"><title>Node17</title>
<g id="a_node17"><a xlink:href="ObjectsManager_8h.html" target="_top" xlink:title="QualityControl/ObjectsManager.h">
<polygon fill="none" stroke="black" points="1252,-112.5 1252,-131.5 1413,-131.5 1413,-112.5 1252,-112.5"/>
<text text-anchor="middle" x="1332.5" y="-119.5" font-family="Helvetica,sans-Serif" font-size="10.00">QualityControl/ObjectsManager.h</text>
</a>
</g>
</g>
<!-- Node9&#45;&gt;Node17 -->
<g id="edge16" class="edge"><title>Node9&#45;&gt;Node17</title>
<path fill="none" stroke="midnightblue" d="M881.583,-169.292C976.494,-159.548 1139.75,-142.788 1241.61,-132.331"/>
<polygon fill="midnightblue" stroke="midnightblue" points="1241.98,-135.811 1251.57,-131.308 1241.27,-128.848 1241.98,-135.811"/>
</g>
<!-- Node17&#45;&gt;Node11 -->
<g id="edge30" class="edge"><title>Node17&#45;&gt;Node11</title>
<path fill="none" stroke="midnightblue" d="M1252.76,-112.473C1141.71,-100.598 944.995,-79.5638 863.952,-70.8979"/>
<polygon fill="midnightblue" stroke="midnightblue" points="864.07,-67.3905 853.754,-69.8074 863.325,-74.3509 864.07,-67.3905"/>
</g>
<!-- Node17&#45;&gt;Node12 -->
<g id="edge29" class="edge"><title>Node17&#45;&gt;Node12</title>
<path fill="none" stroke="midnightblue" d="M1274.81,-112.478C1212.9,-102.844 1121.72,-87.0663 1109.5,-76 1096.53,-64.2556 1091.87,-44.3216 1090.25,-29.6182"/>
<polygon fill="midnightblue" stroke="midnightblue" points="1093.74,-29.3328 1089.52,-19.6162 1086.76,-29.8458 1093.74,-29.3328"/>
</g>
<!-- Node18 -->
<g id="node18" class="node"><title>Node18</title>
<g id="a_node18"><a xlink:href="MonitorObject_8h.html" target="_top" xlink:title="QualityControl/MonitorObject.h">
<polygon fill="none" stroke="black" points="1257,-56.5 1257,-75.5 1408,-75.5 1408,-56.5 1257,-56.5"/>
<text text-anchor="middle" x="1332.5" y="-63.5" font-family="Helvetica,sans-Serif" font-size="10.00">QualityControl/MonitorObject.h</text>
</a>
</g>
</g>
<!-- Node17&#45;&gt;Node18 -->
<g id="edge17" class="edge"><title>Node17&#45;&gt;Node18</title>
<path fill="none" stroke="midnightblue" d="M1332.5,-112.083C1332.5,-105.006 1332.5,-94.8611 1332.5,-85.9865"/>
<polygon fill="midnightblue" stroke="midnightblue" points="1336,-85.751 1332.5,-75.7511 1329,-85.7511 1336,-85.751"/>
</g>
<!-- Node22 -->
<g id="node22" class="node"><title>Node22</title>
<g id="a_node22"><a xlink:href="Quality_8h.html" target="_top" xlink:title="QualityControl/Quality.h">
<polygon fill="none" stroke="black" points="1118,-56.5 1118,-75.5 1239,-75.5 1239,-56.5 1118,-56.5"/>
<text text-anchor="middle" x="1178.5" y="-63.5" font-family="Helvetica,sans-Serif" font-size="10.00">QualityControl/Quality.h</text>
</a>
</g>
</g>
<!-- Node17&#45;&gt;Node22 -->
<g id="edge23" class="edge"><title>Node17&#45;&gt;Node22</title>
<path fill="none" stroke="midnightblue" d="M1308.1,-112.444C1282.3,-103.399 1241.42,-89.064 1212.48,-78.9158"/>
<polygon fill="midnightblue" stroke="midnightblue" points="1213.38,-75.5226 1202.79,-75.5164 1211.07,-82.1283 1213.38,-75.5226"/>
</g>
<!-- Node23 -->
<g id="node23" class="node"><title>Node23</title>
<g id="a_node23"><a xlink:href="TaskConfig_8h.html" target="_top" xlink:title="QualityControl/TaskConfig.h">
<polygon fill="none" stroke="black" points="921.5,-56.5 921.5,-75.5 1061.5,-75.5 1061.5,-56.5 921.5,-56.5"/>
<text text-anchor="middle" x="991.5" y="-63.5" font-family="Helvetica,sans-Serif" font-size="10.00">QualityControl/TaskConfig.h</text>
</a>
</g>
</g>
<!-- Node17&#45;&gt;Node23 -->
<g id="edge26" class="edge"><title>Node17&#45;&gt;Node23</title>
<path fill="none" stroke="midnightblue" d="M1278.47,-112.444C1217.86,-102.846 1119.64,-87.2916 1055.3,-77.1037"/>
<polygon fill="midnightblue" stroke="midnightblue" points="1055.7,-73.6237 1045.28,-75.5164 1054.61,-80.5375 1055.7,-73.6237"/>
</g>
<!-- Node18&#45;&gt;Node10 -->
<g id="edge19" class="edge"><title>Node18&#45;&gt;Node10</title>
<path fill="none" stroke="midnightblue" d="M1272.92,-56.4435C1190.49,-44.6044 1044.95,-23.7026 984.273,-14.9887"/>
<polygon fill="midnightblue" stroke="midnightblue" points="984.69,-11.5127 974.294,-13.5555 983.695,-18.4416 984.69,-11.5127"/>
</g>
<!-- Node18&#45;&gt;Node12 -->
<g id="edge18" class="edge"><title>Node18&#45;&gt;Node12</title>
<path fill="none" stroke="midnightblue" d="M1294,-56.4435C1245.8,-45.7335 1164.23,-27.6072 1120.08,-17.7961"/>
<polygon fill="midnightblue" stroke="midnightblue" points="1120.74,-14.3576 1110.22,-15.6049 1119.22,-21.191 1120.74,-14.3576"/>
</g>
<!-- Node19 -->
<g id="node19" class="node"><title>Node19</title>
<polygon fill="none" stroke="#bfbfbf" points="1169.5,-0.5 1169.5,-19.5 1225.5,-19.5 1225.5,-0.5 1169.5,-0.5"/>
<text text-anchor="middle" x="1197.5" y="-7.5" font-family="Helvetica,sans-Serif" font-size="10.00">Rtypes.h</text>
</g>
<!-- Node18&#45;&gt;Node19 -->
<g id="edge20" class="edge"><title>Node18&#45;&gt;Node19</title>
<path fill="none" stroke="midnightblue" d="M1311.11,-56.4435C1288.79,-47.5171 1253.6,-33.4387 1228.29,-23.3168"/>
<polygon fill="midnightblue" stroke="midnightblue" points="1229.38,-19.9807 1218.79,-19.5164 1226.78,-26.4801 1229.38,-19.9807"/>
</g>
<!-- Node20 -->
<g id="node20" class="node"><title>Node20</title>
<polygon fill="none" stroke="#bfbfbf" points="1283,-0.5 1283,-19.5 1342,-19.5 1342,-0.5 1283,-0.5"/>
<text text-anchor="middle" x="1312.5" y="-7.5" font-family="Helvetica,sans-Serif" font-size="10.00">TObject.h</text>
</g>
<!-- Node18&#45;&gt;Node20 -->
<g id="edge21" class="edge"><title>Node18&#45;&gt;Node20</title>
<path fill="none" stroke="midnightblue" d="M1329.2,-56.083C1326.52,-48.8486 1322.65,-38.4087 1319.31,-29.3968"/>
<polygon fill="midnightblue" stroke="midnightblue" points="1322.5,-27.9129 1315.74,-19.7511 1315.93,-30.3442 1322.5,-27.9129"/>
</g>
<!-- Node21 -->
<g id="node21" class="node"><title>Node21</title>
<polygon fill="none" stroke="#bfbfbf" points="1360.5,-0.5 1360.5,-19.5 1476.5,-19.5 1476.5,-0.5 1360.5,-0.5"/>
<text text-anchor="middle" x="1418.5" y="-7.5" font-family="Helvetica,sans-Serif" font-size="10.00">Common/Exceptions.h</text>
</g>
<!-- Node18&#45;&gt;Node21 -->
<g id="edge22" class="edge"><title>Node18&#45;&gt;Node21</title>
<path fill="none" stroke="midnightblue" d="M1346.32,-56.324C1359.73,-47.9002 1380.32,-34.9709 1396.09,-25.0741"/>
<polygon fill="midnightblue" stroke="midnightblue" points="1398.11,-27.9364 1404.72,-19.6545 1394.39,-22.0081 1398.11,-27.9364"/>
</g>
<!-- Node22&#45;&gt;Node12 -->
<g id="edge25" class="edge"><title>Node22&#45;&gt;Node12</title>
<path fill="none" stroke="midnightblue" d="M1164.2,-56.324C1150.32,-47.9002 1129.01,-34.9709 1112.7,-25.0741"/>
<polygon fill="midnightblue" stroke="midnightblue" points="1114.13,-21.8495 1103.76,-19.6545 1110.5,-27.8341 1114.13,-21.8495"/>
</g>
<!-- Node22&#45;&gt;Node19 -->
<g id="edge24" class="edge"><title>Node22&#45;&gt;Node19</title>
<path fill="none" stroke="midnightblue" d="M1181.64,-56.083C1184.18,-48.8486 1187.86,-38.4087 1191.03,-29.3968"/>
<polygon fill="midnightblue" stroke="midnightblue" points="1194.4,-30.3459 1194.42,-19.7511 1187.8,-28.0225 1194.4,-30.3459"/>
</g>
<!-- Node23&#45;&gt;Node12 -->
<g id="edge27" class="edge"><title>Node23&#45;&gt;Node12</title>
<path fill="none" stroke="midnightblue" d="M1007.25,-56.324C1022.82,-47.7428 1046.88,-34.486 1064.96,-24.5224"/>
<polygon fill="midnightblue" stroke="midnightblue" points="1066.72,-27.546 1073.79,-19.6545 1063.35,-21.4152 1066.72,-27.546"/>
</g>
<!-- Node23&#45;&gt;Node13 -->
<g id="edge28" class="edge"><title>Node23&#45;&gt;Node13</title>
<path fill="none" stroke="midnightblue" d="M949.193,-56.4435C902.283,-46.9561 826.596,-31.6487 776.206,-21.4574"/>
<polygon fill="midnightblue" stroke="midnightblue" points="776.665,-17.9794 766.169,-19.4275 775.277,-24.8405 776.665,-17.9794"/>
</g>
</g>
</svg>
