<?xml version="1.0" encoding="UTF-8" standalone="no"?>
<!DOCTYPE svg PUBLIC "-//W3C//DTD SVG 1.1//EN"
 "http://www.w3.org/Graphics/SVG/1.1/DTD/svg11.dtd">
<!-- Generated by graphviz version 2.38.0 (20140413.2041)
 -->
<!-- Title: Modules Pages: 1 -->
<svg width="676pt" height="132pt"
 viewBox="0.00 0.00 676.00 132.00" xmlns="http://www.w3.org/2000/svg" xmlns:xlink="http://www.w3.org/1999/xlink">
<g id="graph0" class="graph" transform="scale(1 1) rotate(0) translate(4 128)">
<title>Modules</title>
<g id="clust1" class="cluster"><title>clusterdir_f2541a3b18981391fa76fac5599e978a</title>
<g id="a_clust1"><a xlink:href="dir_f2541a3b18981391fa76fac5599e978a.html" target="_top">
<polygon fill="#eeeeff" stroke="black" points="8,-64 8,-116 660,-116 660,-64 8,-64"/>
</a>
</g>
</g>
<!-- dir_f2541a3b18981391fa76fac5599e978a -->
<g id="node1" class="node"><title>dir_f2541a3b18981391fa76fac5599e978a</title>
<text text-anchor="middle" x="625" y="-87.5" font-family="Helvetica,sans-Serif" font-size="10.00">Modules</text>
</g>
<!-- dir_6b8bd6c02904bc94839ef977dfbf16fd -->
<g id="node2" class="node"><title>dir_6b8bd6c02904bc94839ef977dfbf16fd</title>
<g id="a_node2"><a xlink:href="dir_6b8bd6c02904bc94839ef977dfbf16fd.html" target="_top" xlink:title="Common">
<polygon fill="white" stroke="red" points="580,-108 524,-108 524,-72 580,-72 580,-108"/>
<text text-anchor="middle" x="552" y="-87.5" font-family="Helvetica,sans-Serif" font-size="10.00">Common</text>
</a>
</g>
</g>
<!-- dir_bcbb2cf9a3d3d83e5515c82071a07177 -->
<g id="node10" class="node"><title>dir_bcbb2cf9a3d3d83e5515c82071a07177</title>
<g id="a_node10"><a xlink:href="dir_bcbb2cf9a3d3d83e5515c82071a07177.html" target="_top" xlink:title="Framework">
<polygon fill="none" stroke="red" points="329.5,-36 264.5,-36 264.5,-0 329.5,-0 329.5,-36"/>
<text text-anchor="middle" x="297" y="-15.5" font-family="Helvetica,sans-Serif" font-size="10.00">Framework</text>
</a>
</g>
</g>
<!-- dir_6b8bd6c02904bc94839ef977dfbf16fd&#45;&gt;dir_bcbb2cf9a3d3d83e5515c82071a07177 -->
<g id="edge6" class="edge"><title>dir_6b8bd6c02904bc94839ef977dfbf16fd&#45;&gt;dir_bcbb2cf9a3d3d83e5515c82071a07177</title>
<path fill="none" stroke="black" d="M529.706,-71.9233C525.033,-68.932 520.001,-66.1077 515,-64 457.019,-39.5618 384.609,-28.0067 339.577,-22.8325"/>
<polygon fill="black" stroke="black" points="339.894,-19.3463 329.572,-21.7364 339.131,-26.3047 339.894,-19.3463"/>
<g id="a_edge6&#45;headlabel"><a xlink:href="dir_000004_000000.html" target="_top" xlink:title="12">
<text text-anchor="middle" x="343.776" y="-14.4153" font-family="Helvetica,sans-Serif" font-size="10.00">12</text>
</a>
</g>
</g>
<!-- dir_b4be303506ebb37c6dc24696436a6ab8 -->
<g id="node3" class="node"><title>dir_b4be303506ebb37c6dc24696436a6ab8</title>
<g id="a_node3"><a xlink:href="dir_b4be303506ebb37c6dc24696436a6ab8.html" target="_top" xlink:title="Daq">
<polygon fill="white" stroke="red" points="506,-108 452,-108 452,-72 506,-72 506,-108"/>
<text text-anchor="middle" x="479" y="-87.5" font-family="Helvetica,sans-Serif" font-size="10.00">Daq</text>
</a>
</g>
</g>
<!-- dir_b4be303506ebb37c6dc24696436a6ab8&#45;&gt;dir_bcbb2cf9a3d3d83e5515c82071a07177 -->
<g id="edge8" class="edge"><title>dir_b4be303506ebb37c6dc24696436a6ab8&#45;&gt;dir_bcbb2cf9a3d3d83e5515c82071a07177</title>
<path fill="none" stroke="black" d="M456.407,-71.7604C452.096,-68.9242 447.516,-66.1979 443,-64 409.826,-47.853 369.598,-35.9675 339.776,-28.4797"/>
<polygon fill="black" stroke="black" points="340.235,-24.989 329.69,-26.0148 338.573,-31.7888 340.235,-24.989"/>
<g id="a_edge8&#45;headlabel"><a xlink:href="dir_000007_000000.html" target="_top" xlink:title="6">
<text text-anchor="middle" x="344.401" y="-20.5842" font-family="Helvetica,sans-Serif" font-size="10.00">6</text>
</a>
</g>
</g>
<!-- dir_ed80be2c367d80462ec6a6a3f0ad67d1 -->
<g id="node4" class="node"><title>dir_ed80be2c367d80462ec6a6a3f0ad67d1</title>
<g id="a_node4"><a xlink:href="dir_ed80be2c367d80462ec6a6a3f0ad67d1.html" target="_top" xlink:title="EMCAL">
<polygon fill="white" stroke="red" points="434,-108 380,-108 380,-72 434,-72 434,-108"/>
<text text-anchor="middle" x="407" y="-87.5" font-family="Helvetica,sans-Serif" font-size="10.00">EMCAL</text>
</a>
</g>
</g>
<!-- dir_ed80be2c367d80462ec6a6a3f0ad67d1&#45;&gt;dir_bcbb2cf9a3d3d83e5515c82071a07177 -->
<g id="edge2" class="edge"><title>dir_ed80be2c367d80462ec6a6a3f0ad67d1&#45;&gt;dir_bcbb2cf9a3d3d83e5515c82071a07177</title>
<path fill="none" stroke="black" d="M382.736,-71.8537C378.838,-69.185 374.827,-66.4893 371,-64 359.349,-56.4217 346.463,-48.449 334.754,-41.3549"/>
<polygon fill="black" stroke="black" points="336.441,-38.2851 326.069,-36.1222 332.829,-44.2809 336.441,-38.2851"/>
<g id="a_edge2&#45;headlabel"><a xlink:href="dir_000010_000000.html" target="_top" xlink:title="11">
<text text-anchor="middle" x="340.985" y="-35.2082" font-family="Helvetica,sans-Serif" font-size="10.00">11</text>
</a>
</g>
</g>
<!-- dir_5273b6b5b4e75477d91e3579fb65d936 -->
<g id="node5" class="node"><title>dir_5273b6b5b4e75477d91e3579fb65d936</title>
<g id="a_node5"><a xlink:href="dir_5273b6b5b4e75477d91e3579fb65d936.html" target="_top" xlink:title="Example">
<polygon fill="white" stroke="red" points="361.5,-108 306.5,-108 306.5,-72 361.5,-72 361.5,-108"/>
<text text-anchor="middle" x="334" y="-87.5" font-family="Helvetica,sans-Serif" font-size="10.00">Example</text>
</a>
</g>
</g>
<!-- dir_5273b6b5b4e75477d91e3579fb65d936&#45;&gt;dir_bcbb2cf9a3d3d83e5515c82071a07177 -->
<g id="edge3" class="edge"><title>dir_5273b6b5b4e75477d91e3579fb65d936&#45;&gt;dir_bcbb2cf9a3d3d83e5515c82071a07177</title>
<path fill="none" stroke="black" d="M324.854,-71.6966C320.597,-63.6436 315.444,-53.8945 310.734,-44.9824"/>
<polygon fill="black" stroke="black" points="313.808,-43.3097 306.041,-36.1043 307.62,-46.5809 313.808,-43.3097"/>
<g id="a_edge3&#45;headlabel"><a xlink:href="dir_000013_000000.html" target="_top" xlink:title="11">
<text text-anchor="middle" x="317.998" y="-42.6609" font-family="Helvetica,sans-Serif" font-size="10.00">11</text>
</a>
</g>
</g>
<!-- dir_83d1d206e08935b361e68569931943ec -->
<g id="node6" class="node"><title>dir_83d1d206e08935b361e68569931943ec</title>
<g id="a_node6"><a xlink:href="dir_83d1d206e08935b361e68569931943ec.html" target="_top" xlink:title="MFT">
<polygon fill="white" stroke="red" points="288,-108 234,-108 234,-72 288,-72 288,-108"/>
<text text-anchor="middle" x="261" y="-87.5" font-family="Helvetica,sans-Serif" font-size="10.00">MFT</text>
</a>
</g>
</g>
<!-- dir_83d1d206e08935b361e68569931943ec&#45;&gt;dir_bcbb2cf9a3d3d83e5515c82071a07177 -->
<g id="edge5" class="edge"><title>dir_83d1d206e08935b361e68569931943ec&#45;&gt;dir_bcbb2cf9a3d3d83e5515c82071a07177</title>
<path fill="none" stroke="black" d="M269.899,-71.6966C273.997,-63.7284 278.949,-54.0995 283.493,-45.2641"/>
<polygon fill="black" stroke="black" points="286.742,-46.598 288.203,-36.1043 280.517,-43.3965 286.742,-46.598"/>
<g id="a_edge5&#45;headlabel"><a xlink:href="dir_000016_000000.html" target="_top" xlink:title="6">
<text text-anchor="middle" x="287.623" y="-48.5931" font-family="Helvetica,sans-Serif" font-size="10.00">6</text>
</a>
</g>
</g>
<!-- dir_cc72967e88078b463843b5977855e60d -->
<g id="node7" class="node"><title>dir_cc72967e88078b463843b5977855e60d</title>
<g id="a_node7"><a xlink:href="dir_cc72967e88078b463843b5977855e60d.html" target="_top" xlink:title="Skeleton">
<polygon fill="white" stroke="red" points="215.5,-108 160.5,-108 160.5,-72 215.5,-72 215.5,-108"/>
<text text-anchor="middle" x="188" y="-87.5" font-family="Helvetica,sans-Serif" font-size="10.00">Skeleton</text>
</a>
</g>
</g>
<!-- dir_cc72967e88078b463843b5977855e60d&#45;&gt;dir_bcbb2cf9a3d3d83e5515c82071a07177 -->
<g id="edge4" class="edge"><title>dir_cc72967e88078b463843b5977855e60d&#45;&gt;dir_bcbb2cf9a3d3d83e5515c82071a07177</title>
<path fill="none" stroke="black" d="M212.997,-71.9343C216.996,-69.2552 221.1,-66.5351 225,-64 236.41,-56.5831 248.954,-48.6634 260.33,-41.5681"/>
<polygon fill="black" stroke="black" points="262.515,-44.3315 269.16,-36.0798 258.819,-38.3864 262.515,-44.3315"/>
<g id="a_edge4&#45;headlabel"><a xlink:href="dir_000019_000000.html" target="_top" xlink:title="8">
<text text-anchor="middle" x="260.96" y="-46.1405" font-family="Helvetica,sans-Serif" font-size="10.00">8</text>
</a>
</g>
</g>
<!-- dir_d97bc60669e70ebe18802fd5c1c1d939 -->
<g id="node8" class="node"><title>dir_d97bc60669e70ebe18802fd5c1c1d939</title>
<g id="a_node8"><a xlink:href="dir_d97bc60669e70ebe18802fd5c1c1d939.html" target="_top" xlink:title="TOF">
<polygon fill="white" stroke="red" points="142,-108 88,-108 88,-72 142,-72 142,-108"/>
<text text-anchor="middle" x="115" y="-87.5" font-family="Helvetica,sans-Serif" font-size="10.00">TOF</text>
</a>
</g>
</g>
<!-- dir_d97bc60669e70ebe18802fd5c1c1d939&#45;&gt;dir_bcbb2cf9a3d3d83e5515c82071a07177 -->
<g id="edge7" class="edge"><title>dir_d97bc60669e70ebe18802fd5c1c1d939&#45;&gt;dir_bcbb2cf9a3d3d83e5515c82071a07177</title>
<path fill="none" stroke="black" d="M138.268,-71.7875C142.694,-68.9486 147.387,-66.2143 152,-64 184.946,-48.1838 224.739,-36.2997 254.298,-28.7279"/>
<polygon fill="black" stroke="black" points="255.444,-32.0491 264.298,-26.2301 253.748,-25.2577 255.444,-32.0491"/>
<g id="a_edge7&#45;headlabel"><a xlink:href="dir_000022_000000.html" target="_top" xlink:title="16">
<text text-anchor="middle" x="252.645" y="-33.1747" font-family="Helvetica,sans-Serif" font-size="10.00">16</text>
</a>
</g>
</g>
<!-- dir_1daf86e93d49a76fe0702a1348efb120 -->
<g id="node9" class="node"><title>dir_1daf86e93d49a76fe0702a1348efb120</title>
<g id="a_node9"><a xlink:href="dir_1daf86e93d49a76fe0702a1348efb120.html" target="_top" xlink:title="TPC">
<polygon fill="white" stroke="red" points="70,-108 16,-108 16,-72 70,-72 70,-108"/>
<text text-anchor="middle" x="43" y="-87.5" font-family="Helvetica,sans-Serif" font-size="10.00">TPC</text>
</a>
</g>
</g>
<!-- dir_1daf86e93d49a76fe0702a1348efb120&#45;&gt;dir_bcbb2cf9a3d3d83e5515c82071a07177 -->
<g id="edge1" class="edge"><title>dir_1daf86e93d49a76fe0702a1348efb120&#45;&gt;dir_bcbb2cf9a3d3d83e5515c82071a07177</title>
<path fill="none" stroke="black" d="M64.645,-71.9112C69.1953,-68.9209 74.105,-66.1001 79,-64 136.824,-39.192 209.277,-27.7374 254.361,-22.6855"/>
<polygon fill="black" stroke="black" points="254.805,-26.158 264.378,-21.6182 254.063,-19.1974 254.805,-26.158"/>
<g id="a_edge1&#45;headlabel"><a xlink:href="dir_000025_000000.html" target="_top" xlink:title="6">
<text text-anchor="middle" x="251.531" y="-26.8621" font-family="Helvetica,sans-Serif" font-size="10.00">6</text>
</a>
</g>
</g>
</g>
</svg>
