<?xml version="1.0" encoding="UTF-8" standalone="no"?>
<!DOCTYPE svg PUBLIC "-//W3C//DTD SVG 1.1//EN"
 "http://www.w3.org/Graphics/SVG/1.1/DTD/svg11.dtd">
<!-- Generated by graphviz version 2.38.0 (20140413.2041)
 -->
<!-- Title: Modules/Daq/src/EverIncreasingGraph.cxx Pages: 1 -->
<!--zoomable 263 -->
<svg id="main" version="1.1" xmlns="http://www.w3.org/2000/svg" xmlns:xlink="http://www.w3.org/1999/xlink" xml:space="preserve" onload="init(evt)">
<style type="text/css"><![CDATA[
.edge:hover path { stroke: red; }
.edge:hover polygon { stroke: red; fill: red; }
]]></style>
<script type="text/javascript"><![CDATA[
var edges = document.getElementsByTagName('g');
if (edges && edges.length) {
  for (var i=0;i<edges.length;i++) {
    if (edges[i].id.substr(0,4)=='edge') {
      edges[i].setAttribute('class','edge');
    }
  }
}
]]></script>
        <defs>
                <circle id="rim" cx="0" cy="0" r="7"/>
                <circle id="rim2" cx="0" cy="0" r="3.5"/>
                <g id="zoomPlus">
                        <use xlink:href="#rim" fill="#404040">
                                <set attributeName="fill" to="#808080" begin="zoomplus.mouseover" end="zoomplus.mouseout"/>
                        </use>
                        <path d="M-4,0h8M0,-4v8" fill="none" stroke="white" stroke-width="1.5" pointer-events="none"/>
                </g>
                <g id="zoomMin">
                        <use xlink:href="#rim" fill="#404040">
                                <set attributeName="fill" to="#808080" begin="zoomminus.mouseover" end="zoomminus.mouseout"/>
                        </use>
                        <path d="M-4,0h8" fill="none" stroke="white" stroke-width="1.5" pointer-events="none"/>
                </g>
                <g id="dirArrow">
                        <path fill="none" stroke="white" stroke-width="1.5" d="M0,-3.0v7 M-2.5,-0.5L0,-3.0L2.5,-0.5"/>
                </g>
               <g id="resetDef">
                       <use xlink:href="#rim2" fill="#404040">
                               <set attributeName="fill" to="#808080" begin="reset.mouseover" end="reset.mouseout"/>
                       </use>
               </g>
        </defs>

<script type="text/javascript">
var viewWidth = 891;
var viewHeight = 263;
var sectionId = 'dynsection-0';
</script>
<script xlink:href="svgpan.js"/>
<svg id="graph" class="graph">
<g id="viewport">
<title>Modules/Daq/src/EverIncreasingGraph.cxx</title>
<!-- Node1 -->
<g id="node1" class="node"><title>Node1</title>
<polygon fill="#bfbfbf" stroke="black" points="495,-224.5 495,-254.5 654,-254.5 654,-224.5 495,-224.5"/>
<text text-anchor="start" x="503" y="-242.5" font-family="Helvetica,sans-Serif" font-size="10.00">Modules/Daq/src/EverIncreasing</text>
<text text-anchor="middle" x="574.5" y="-231.5" font-family="Helvetica,sans-Serif" font-size="10.00">Graph.cxx</text>
</g>
<!-- Node2 -->
<g id="node2" class="node"><title>Node2</title>
<g id="a_node2"><a xlink:href="EverIncreasingGraph_8h.html" target="_top" xlink:title="Daq/EverIncreasingGraph.h">
<polygon fill="none" stroke="black" points="237,-168.5 237,-187.5 374,-187.5 374,-168.5 237,-168.5"/>
<text text-anchor="middle" x="305.5" y="-175.5" font-family="Helvetica,sans-Serif" font-size="10.00">Daq/EverIncreasingGraph.h</text>
</a>
</g>
</g>
<!-- Node1&#45;&gt;Node2 -->
<g id="edge1" class="edge"><title>Node1&#45;&gt;Node2</title>
<path fill="none" stroke="midnightblue" d="M511.091,-224.475C462.961,-213.829 397.786,-199.413 353.826,-189.689"/>
<polygon fill="midnightblue" stroke="midnightblue" points="354.477,-186.249 343.957,-187.506 352.965,-193.084 354.477,-186.249"/>
</g>
<!-- Node8 -->
<g id="node8" class="node"><title>Node8</title>
<g id="a_node8"><a xlink:href="MonitorObject_8h.html" target="_top" xlink:title="QualityControl/MonitorObject.h">
<polygon fill="none" stroke="black" points="68,-56.5 68,-75.5 219,-75.5 219,-56.5 68,-56.5"/>
<text text-anchor="middle" x="143.5" y="-63.5" font-family="Helvetica,sans-Serif" font-size="10.00">QualityControl/MonitorObject.h</text>
</a>
</g>
</g>
<!-- Node1&#45;&gt;Node8 -->
<g id="edge16" class="edge"><title>Node1&#45;&gt;Node8</title>
<path fill="none" stroke="midnightblue" d="M494.898,-233.914C368.564,-224.676 131.764,-198.68 86.5,-132 73.5762,-112.961 96.5752,-93.4138 117.105,-80.7952"/>
<polygon fill="midnightblue" stroke="midnightblue" points="119.041,-83.7189 125.933,-75.6725 115.527,-77.6644 119.041,-83.7189"/>
</g>
<!-- Node11 -->
<g id="node11" class="node"><title>Node11</title>
<g id="a_node11"><a xlink:href="Quality_8h.html" target="_top" xlink:title="QualityControl/Quality.h">
<polygon fill="none" stroke="black" points="352,-56.5 352,-75.5 473,-75.5 473,-56.5 352,-56.5"/>
<text text-anchor="middle" x="412.5" y="-63.5" font-family="Helvetica,sans-Serif" font-size="10.00">QualityControl/Quality.h</text>
</a>
</g>
</g>
<!-- Node1&#45;&gt;Node11 -->
<g id="edge17" class="edge"><title>Node1&#45;&gt;Node11</title>
<path fill="none" stroke="midnightblue" d="M494.935,-226.525C471.304,-219.148 447.49,-207.234 431.5,-188 407.226,-158.799 407.572,-111.46 410.001,-85.4964"/>
<polygon fill="midnightblue" stroke="midnightblue" points="413.485,-85.835 411.144,-75.5021 406.531,-85.0399 413.485,-85.835"/>
</g>
<!-- Node12 -->
<g id="node12" class="node"><title>Node12</title>
<g id="a_node12"><a xlink:href="QcInfoLogger_8h.html" target="_top" xlink:title="QualityControl/QcInfoLogger.h">
<polygon fill="none" stroke="black" points="440,-168.5 440,-187.5 589,-187.5 589,-168.5 440,-168.5"/>
<text text-anchor="middle" x="514.5" y="-175.5" font-family="Helvetica,sans-Serif" font-size="10.00">QualityControl/QcInfoLogger.h</text>
</a>
</g>
</g>
<!-- Node1&#45;&gt;Node12 -->
<g id="edge18" class="edge"><title>Node1&#45;&gt;Node12</title>
<path fill="none" stroke="midnightblue" d="M560.281,-224.399C551.292,-215.486 539.662,-203.952 530.373,-194.741"/>
<polygon fill="midnightblue" stroke="midnightblue" points="532.796,-192.214 523.231,-187.658 527.867,-197.184 532.796,-192.214"/>
</g>
<!-- Node14 -->
<g id="node14" class="node"><title>Node14</title>
<polygon fill="none" stroke="#bfbfbf" points="607,-168.5 607,-187.5 664,-187.5 664,-168.5 607,-168.5"/>
<text text-anchor="middle" x="635.5" y="-175.5" font-family="Helvetica,sans-Serif" font-size="10.00">TGraph.h</text>
</g>
<!-- Node1&#45;&gt;Node14 -->
<g id="edge20" class="edge"><title>Node1&#45;&gt;Node14</title>
<path fill="none" stroke="midnightblue" d="M588.956,-224.399C598.094,-215.486 609.919,-203.952 619.362,-194.741"/>
<polygon fill="midnightblue" stroke="midnightblue" points="621.909,-197.146 626.624,-187.658 617.022,-192.135 621.909,-197.146"/>
</g>
<!-- Node15 -->
<g id="node15" class="node"><title>Node15</title>
<polygon fill="none" stroke="#bfbfbf" points="682.5,-168.5 682.5,-187.5 726.5,-187.5 726.5,-168.5 682.5,-168.5"/>
<text text-anchor="middle" x="704.5" y="-175.5" font-family="Helvetica,sans-Serif" font-size="10.00">TH1.h</text>
</g>
<!-- Node1&#45;&gt;Node15 -->
<g id="edge21" class="edge"><title>Node1&#45;&gt;Node15</title>
<path fill="none" stroke="midnightblue" d="M605.308,-224.399C626.828,-214.55 655.337,-201.501 676.268,-191.922"/>
<polygon fill="midnightblue" stroke="midnightblue" points="677.948,-195.002 685.584,-187.658 675.034,-188.637 677.948,-195.002"/>
</g>
<!-- Node16 -->
<g id="node16" class="node"><title>Node16</title>
<polygon fill="none" stroke="#bfbfbf" points="745,-168.5 745,-187.5 792,-187.5 792,-168.5 745,-168.5"/>
<text text-anchor="middle" x="768.5" y="-175.5" font-family="Helvetica,sans-Serif" font-size="10.00">TList.h</text>
</g>
<!-- Node1&#45;&gt;Node16 -->
<g id="edge22" class="edge"><title>Node1&#45;&gt;Node16</title>
<path fill="none" stroke="midnightblue" d="M620.475,-224.399C655.761,-213.577 703.64,-198.893 735.272,-189.191"/>
<polygon fill="midnightblue" stroke="midnightblue" points="736.4,-192.506 744.934,-186.228 734.348,-185.814 736.4,-192.506"/>
</g>
<!-- Node17 -->
<g id="node17" class="node"><title>Node17</title>
<polygon fill="none" stroke="#bfbfbf" points="810,-168.5 810,-187.5 883,-187.5 883,-168.5 810,-168.5"/>
<text text-anchor="middle" x="846.5" y="-175.5" font-family="Helvetica,sans-Serif" font-size="10.00">TPaveText.h</text>
</g>
<!-- Node1&#45;&gt;Node17 -->
<g id="edge23" class="edge"><title>Node1&#45;&gt;Node17</title>
<path fill="none" stroke="midnightblue" d="M638.616,-224.475C688.157,-213.637 755.558,-198.894 800.01,-189.17"/>
<polygon fill="midnightblue" stroke="midnightblue" points="800.939,-192.549 809.96,-186.993 799.443,-185.711 800.939,-192.549"/>
</g>
<!-- Node3 -->
<g id="node3" class="node"><title>Node3</title>
<polygon fill="none" stroke="#bfbfbf" points="96,-112.5 96,-131.5 209,-131.5 209,-112.5 96,-112.5"/>
<text text-anchor="middle" x="152.5" y="-119.5" font-family="Helvetica,sans-Serif" font-size="10.00">Common/DataBlock.h</text>
</g>
<!-- Node2&#45;&gt;Node3 -->
<g id="edge2" class="edge"><title>Node2&#45;&gt;Node3</title>
<path fill="none" stroke="midnightblue" d="M281.257,-168.444C255.629,-159.399 215.015,-145.064 186.262,-134.916"/>
<polygon fill="midnightblue" stroke="midnightblue" points="187.225,-131.544 176.63,-131.516 184.895,-138.145 187.225,-131.544"/>
</g>
<!-- Node4 -->
<g id="node4" class="node"><title>Node4</title>
<g id="a_node4"><a xlink:href="CheckInterface_8h.html" target="_top" xlink:title="QualityControl/CheckInterface.h">
<polygon fill="none" stroke="black" points="227,-112.5 227,-131.5 384,-131.5 384,-112.5 227,-112.5"/>
<text text-anchor="middle" x="305.5" y="-119.5" font-family="Helvetica,sans-Serif" font-size="10.00">QualityControl/CheckInterface.h</text>
</a>
</g>
</g>
<!-- Node2&#45;&gt;Node4 -->
<g id="edge3" class="edge"><title>Node2&#45;&gt;Node4</title>
<path fill="none" stroke="midnightblue" d="M305.5,-168.083C305.5,-161.006 305.5,-150.861 305.5,-141.986"/>
<polygon fill="midnightblue" stroke="midnightblue" points="309,-141.751 305.5,-131.751 302,-141.751 309,-141.751"/>
</g>
<!-- Node5 -->
<g id="node5" class="node"><title>Node5</title>
<polygon fill="none" stroke="#bfbfbf" points="340,-0.5 340,-19.5 381,-19.5 381,-0.5 340,-0.5"/>
<text text-anchor="middle" x="360.5" y="-7.5" font-family="Helvetica,sans-Serif" font-size="10.00">string</text>
</g>
<!-- Node4&#45;&gt;Node5 -->
<g id="edge4" class="edge"><title>Node4&#45;&gt;Node5</title>
<path fill="none" stroke="midnightblue" d="M309.816,-112.368C318.812,-94.376 339.725,-52.5503 351.687,-28.6267"/>
<polygon fill="midnightblue" stroke="midnightblue" points="354.863,-30.101 356.204,-19.5914 348.602,-26.9704 354.863,-30.101"/>
</g>
<!-- Node6 -->
<g id="node6" class="node"><title>Node6</title>
<polygon fill="none" stroke="#bfbfbf" points="212,-0.5 212,-19.5 247,-19.5 247,-0.5 212,-0.5"/>
<text text-anchor="middle" x="229.5" y="-7.5" font-family="Helvetica,sans-Serif" font-size="10.00">map</text>
</g>
<!-- Node4&#45;&gt;Node6 -->
<g id="edge5" class="edge"><title>Node4&#45;&gt;Node6</title>
<path fill="none" stroke="midnightblue" d="M299.536,-112.368C286.994,-94.2153 257.69,-51.8015 241.239,-27.9902"/>
<polygon fill="midnightblue" stroke="midnightblue" points="244,-25.8292 235.436,-19.5914 238.241,-29.8083 244,-25.8292"/>
</g>
<!-- Node7 -->
<g id="node7" class="node"><title>Node7</title>
<polygon fill="none" stroke="#bfbfbf" points="265.5,-0.5 265.5,-19.5 321.5,-19.5 321.5,-0.5 265.5,-0.5"/>
<text text-anchor="middle" x="293.5" y="-7.5" font-family="Helvetica,sans-Serif" font-size="10.00">Rtypes.h</text>
</g>
<!-- Node4&#45;&gt;Node7 -->
<g id="edge6" class="edge"><title>Node4&#45;&gt;Node7</title>
<path fill="none" stroke="midnightblue" d="M304.558,-112.368C302.622,-94.617 298.155,-53.6664 295.529,-29.5974"/>
<polygon fill="midnightblue" stroke="midnightblue" points="299.001,-29.1528 294.437,-19.5914 292.042,-29.912 299.001,-29.1528"/>
</g>
<!-- Node4&#45;&gt;Node8 -->
<g id="edge7" class="edge"><title>Node4&#45;&gt;Node8</title>
<path fill="none" stroke="midnightblue" d="M279.831,-112.444C252.577,-103.359 209.316,-88.9388 178.849,-78.7831"/>
<polygon fill="midnightblue" stroke="midnightblue" points="179.643,-75.3584 169.049,-75.5164 177.429,-81.9992 179.643,-75.3584"/>
</g>
<!-- Node4&#45;&gt;Node11 -->
<g id="edge13" class="edge"><title>Node4&#45;&gt;Node11</title>
<path fill="none" stroke="midnightblue" d="M322.691,-112.324C339.851,-103.664 366.446,-90.2424 386.247,-80.249"/>
<polygon fill="midnightblue" stroke="midnightblue" points="388.001,-83.2847 395.351,-75.6545 384.847,-77.0354 388.001,-83.2847"/>
</g>
<!-- Node8&#45;&gt;Node5 -->
<g id="edge8" class="edge"><title>Node8&#45;&gt;Node5</title>
<path fill="none" stroke="midnightblue" d="M181.621,-56.4769C217.448,-48.3223 272.776,-35.3602 329.949,-20.0312"/>
<polygon fill="midnightblue" stroke="midnightblue" points="331.144,-23.3337 339.886,-17.3475 329.319,-16.5758 331.144,-23.3337"/>
</g>
<!-- Node8&#45;&gt;Node6 -->
<g id="edge9" class="edge"><title>Node8&#45;&gt;Node6</title>
<path fill="none" stroke="midnightblue" d="M157.317,-56.324C170.733,-47.9002 191.324,-34.9709 207.086,-25.0741"/>
<polygon fill="midnightblue" stroke="midnightblue" points="209.109,-27.9364 215.717,-19.6545 205.387,-22.0081 209.109,-27.9364"/>
</g>
<!-- Node8&#45;&gt;Node7 -->
<g id="edge10" class="edge"><title>Node8&#45;&gt;Node7</title>
<path fill="none" stroke="midnightblue" d="M167.268,-56.4435C192.393,-47.3986 232.211,-33.064 260.4,-22.9158"/>
<polygon fill="midnightblue" stroke="midnightblue" points="261.62,-26.1968 269.843,-19.5164 259.249,-19.6106 261.62,-26.1968"/>
</g>
<!-- Node9 -->
<g id="node9" class="node"><title>Node9</title>
<polygon fill="none" stroke="#bfbfbf" points="0,-0.5 0,-19.5 59,-19.5 59,-0.5 0,-0.5"/>
<text text-anchor="middle" x="29.5" y="-7.5" font-family="Helvetica,sans-Serif" font-size="10.00">TObject.h</text>
</g>
<!-- Node8&#45;&gt;Node9 -->
<g id="edge11" class="edge"><title>Node8&#45;&gt;Node9</title>
<path fill="none" stroke="midnightblue" d="M125.436,-56.4435C106.925,-47.6751 77.9193,-33.9355 56.6445,-23.8579"/>
<polygon fill="midnightblue" stroke="midnightblue" points="58.0148,-20.6343 47.4791,-19.5164 55.0182,-26.9604 58.0148,-20.6343"/>
</g>
<!-- Node10 -->
<g id="node10" class="node"><title>Node10</title>
<polygon fill="none" stroke="#bfbfbf" points="77.5,-0.5 77.5,-19.5 193.5,-19.5 193.5,-0.5 77.5,-0.5"/>
<text text-anchor="middle" x="135.5" y="-7.5" font-family="Helvetica,sans-Serif" font-size="10.00">Common/Exceptions.h</text>
</g>
<!-- Node8&#45;&gt;Node10 -->
<g id="edge12" class="edge"><title>Node8&#45;&gt;Node10</title>
<path fill="none" stroke="midnightblue" d="M142.179,-56.083C141.119,-48.9272 139.594,-38.6353 138.269,-29.6911"/>
<polygon fill="midnightblue" stroke="midnightblue" points="141.724,-29.1302 136.796,-19.7511 134.8,-30.1561 141.724,-29.1302"/>
</g>
<!-- Node11&#45;&gt;Node5 -->
<g id="edge15" class="edge"><title>Node11&#45;&gt;Node5</title>
<path fill="none" stroke="midnightblue" d="M403.913,-56.083C396.341,-48.2195 385.122,-36.5688 375.986,-27.0813"/>
<polygon fill="midnightblue" stroke="midnightblue" points="378.385,-24.5266 368.927,-19.7511 373.342,-29.3821 378.385,-24.5266"/>
</g>
<!-- Node11&#45;&gt;Node7 -->
<g id="edge14" class="edge"><title>Node11&#45;&gt;Node7</title>
<path fill="none" stroke="midnightblue" d="M393.644,-56.4435C374.234,-47.6356 343.77,-33.8116 321.535,-23.722"/>
<polygon fill="midnightblue" stroke="midnightblue" points="322.82,-20.4615 312.268,-19.5164 319.928,-26.836 322.82,-20.4615"/>
</g>
<!-- Node13 -->
<g id="node13" class="node"><title>Node13</title>
<polygon fill="none" stroke="#bfbfbf" points="449.5,-112.5 449.5,-131.5 579.5,-131.5 579.5,-112.5 449.5,-112.5"/>
<text text-anchor="middle" x="514.5" y="-119.5" font-family="Helvetica,sans-Serif" font-size="10.00">InfoLogger/InfoLogger.hxx</text>
</g>
<!-- Node12&#45;&gt;Node13 -->
<g id="edge19" class="edge"><title>Node12&#45;&gt;Node13</title>
<path fill="none" stroke="midnightblue" d="M514.5,-168.083C514.5,-161.006 514.5,-150.861 514.5,-141.986"/>
<polygon fill="midnightblue" stroke="midnightblue" points="518,-141.751 514.5,-131.751 511,-141.751 518,-141.751"/>
</g>
</g>
</svg>
        <g id="navigator" transform="translate(0 0)" fill="#404254">
                <rect fill="#f2f5e9" fill-opacity="0.5" stroke="#606060" stroke-width=".5" x="0" y="0" width="60" height="60"/>
                <use id="zoomplus" xlink:href="#zoomPlus" x="17" y="9" onmousedown="handleZoom(evt,'in')"/>
                <use id="zoomminus" xlink:href="#zoomMin" x="42" y="9" onmousedown="handleZoom(evt,'out')"/>
                <use id="reset" xlink:href="#resetDef" x="30" y="36" onmousedown="handleReset()"/>
                <g id="arrowUp" xlink:href="#dirArrow" transform="translate(30 24)" onmousedown="handlePan(0,-1)">
                  <use xlink:href="#rim" fill="#404040">
                        <set attributeName="fill" to="#808080" begin="arrowUp.mouseover" end="arrowUp.mouseout"/>
                  </use>
                  <path fill="none" stroke="white" stroke-width="1.5" d="M0,-3.0v7 M-2.5,-0.5L0,-3.0L2.5,-0.5"/>
                </g>
                <g id="arrowRight" xlink:href="#dirArrow" transform="rotate(90) translate(36 -43)" onmousedown="handlePan(1,0)">
                  <use xlink:href="#rim" fill="#404040">
                        <set attributeName="fill" to="#808080" begin="arrowRight.mouseover" end="arrowRight.mouseout"/>
                  </use>
                  <path fill="none" stroke="white" stroke-width="1.5" d="M0,-3.0v7 M-2.5,-0.5L0,-3.0L2.5,-0.5"/>
                </g>
                <g id="arrowDown" xlink:href="#dirArrow" transform="rotate(180) translate(-30 -48)" onmousedown="handlePan(0,1)">
                  <use xlink:href="#rim" fill="#404040">
                        <set attributeName="fill" to="#808080" begin="arrowDown.mouseover" end="arrowDown.mouseout"/>
                  </use>
                  <path fill="none" stroke="white" stroke-width="1.5" d="M0,-3.0v7 M-2.5,-0.5L0,-3.0L2.5,-0.5"/>
                </g>
                <g id="arrowLeft" xlink:href="#dirArrow" transform="rotate(270) translate(-36 17)" onmousedown="handlePan(-1,0)">
                  <use xlink:href="#rim" fill="#404040">
                        <set attributeName="fill" to="#808080" begin="arrowLeft.mouseover" end="arrowLeft.mouseout"/>
                  </use>
                  <path fill="none" stroke="white" stroke-width="1.5" d="M0,-3.0v7 M-2.5,-0.5L0,-3.0L2.5,-0.5"/>
                </g>
        </g>
        <svg viewBox="0 0 15 15" width="100%" height="30px" preserveAspectRatio="xMaxYMin meet">
         <g id="arrow_out" transform="scale(0.3 0.3)">
          <a xlink:href="EverIncreasingGraph_8cxx__incl_org.svg" target="_base">
           <rect id="button" ry="5" rx="5" y="6" x="6" height="38" width="38"
                fill="#f2f5e9" fill-opacity="0.5" stroke="#606060" stroke-width="1.0"/>
           <path id="arrow"
             d="M 11.500037,31.436501 C 11.940474,20.09759 22.043105,11.32322 32.158766,21.979434 L 37.068811,17.246167 C 37.068811,17.246167 37.088388,32 37.088388,32 L 22.160133,31.978069 C 22.160133,31.978069 26.997745,27.140456 26.997745,27.140456 C 18.528582,18.264221 13.291696,25.230495 11.500037,31.436501 z"
             style="fill:#404040;"/>
          </a>
         </g>
        </svg>
</svg>
