<?xml version="1.0" encoding="UTF-8" standalone="no"?>
<!DOCTYPE svg PUBLIC "-//W3C//DTD SVG 1.1//EN"
 "http://www.w3.org/Graphics/SVG/1.1/DTD/svg11.dtd">
<!-- Generated by graphviz version 2.38.0 (20140413.2041)
 -->
<!-- Title: Modules/Daq/include/Daq/EverIncreasingGraph.h Pages: 1 -->
<!--zoomable 207 -->
<svg id="main" version="1.1" xmlns="http://www.w3.org/2000/svg" xmlns:xlink="http://www.w3.org/1999/xlink" xml:space="preserve" onload="init(evt)">
<style type="text/css"><![CDATA[
.edge:hover path { stroke: red; }
.edge:hover polygon { stroke: red; fill: red; }
]]></style>
<script type="text/javascript"><![CDATA[
var edges = document.getElementsByTagName('g');
if (edges && edges.length) {
  for (var i=0;i<edges.length;i++) {
    if (edges[i].id.substr(0,4)=='edge') {
      edges[i].setAttribute('class','edge');
    }
  }
}
]]></script>
        <defs>
                <circle id="rim" cx="0" cy="0" r="7"/>
                <circle id="rim2" cx="0" cy="0" r="3.5"/>
                <g id="zoomPlus">
                        <use xlink:href="#rim" fill="#404040">
                                <set attributeName="fill" to="#808080" begin="zoomplus.mouseover" end="zoomplus.mouseout"/>
                        </use>
                        <path d="M-4,0h8M0,-4v8" fill="none" stroke="white" stroke-width="1.5" pointer-events="none"/>
                </g>
                <g id="zoomMin">
                        <use xlink:href="#rim" fill="#404040">
                                <set attributeName="fill" to="#808080" begin="zoomminus.mouseover" end="zoomminus.mouseout"/>
                        </use>
                        <path d="M-4,0h8" fill="none" stroke="white" stroke-width="1.5" pointer-events="none"/>
                </g>
                <g id="dirArrow">
                        <path fill="none" stroke="white" stroke-width="1.5" d="M0,-3.0v7 M-2.5,-0.5L0,-3.0L2.5,-0.5"/>
                </g>
               <g id="resetDef">
                       <use xlink:href="#rim2" fill="#404040">
                               <set attributeName="fill" to="#808080" begin="reset.mouseover" end="reset.mouseout"/>
                       </use>
               </g>
        </defs>

<script type="text/javascript">
var viewWidth = 521;
var viewHeight = 207;
var sectionId = 'dynsection-0';
</script>
<script xlink:href="svgpan.js"/>
<svg id="graph" class="graph">
<g id="viewport">
<title>Modules/Daq/include/Daq/EverIncreasingGraph.h</title>
<!-- Node1 -->
<g id="node1" class="node"><title>Node1</title>
<polygon fill="#bfbfbf" stroke="black" points="62.5,-168.5 62.5,-198.5 202.5,-198.5 202.5,-168.5 62.5,-168.5"/>
<text text-anchor="start" x="70.5" y="-186.5" font-family="Helvetica,sans-Serif" font-size="10.00">Modules/Daq/include</text>
<text text-anchor="middle" x="132.5" y="-175.5" font-family="Helvetica,sans-Serif" font-size="10.00">/Daq/EverIncreasingGraph.h</text>
</g>
<!-- Node2 -->
<g id="node2" class="node"><title>Node2</title>
<polygon fill="none" stroke="#bfbfbf" points="0,-112.5 0,-131.5 113,-131.5 113,-112.5 0,-112.5"/>
<text text-anchor="middle" x="56.5" y="-119.5" font-family="Helvetica,sans-Serif" font-size="10.00">Common/DataBlock.h</text>
</g>
<!-- Node1&#45;&gt;Node2 -->
<g id="edge1" class="edge"><title>Node1&#45;&gt;Node2</title>
<path fill="none" stroke="midnightblue" d="M114.489,-168.399C102.762,-159.218 87.4849,-147.258 75.5551,-137.918"/>
<polygon fill="midnightblue" stroke="midnightblue" points="77.5902,-135.066 67.5587,-131.658 73.2751,-140.578 77.5902,-135.066"/>
</g>
<!-- Node3 -->
<g id="node3" class="node"><title>Node3</title>
<g id="a_node3"><a xlink:href="CheckInterface_8h.html" target="_top" xlink:title="QualityControl/CheckInterface.h">
<polygon fill="none" stroke="black" points="131,-112.5 131,-131.5 288,-131.5 288,-112.5 131,-112.5"/>
<text text-anchor="middle" x="209.5" y="-119.5" font-family="Helvetica,sans-Serif" font-size="10.00">QualityControl/CheckInterface.h</text>
</a>
</g>
</g>
<!-- Node1&#45;&gt;Node3 -->
<g id="edge2" class="edge"><title>Node1&#45;&gt;Node3</title>
<path fill="none" stroke="midnightblue" d="M150.748,-168.399C162.629,-159.218 178.107,-147.258 190.194,-137.918"/>
<polygon fill="midnightblue" stroke="midnightblue" points="192.523,-140.542 198.296,-131.658 188.243,-135.003 192.523,-140.542"/>
</g>
<!-- Node4 -->
<g id="node4" class="node"><title>Node4</title>
<polygon fill="none" stroke="#bfbfbf" points="100,-0.5 100,-19.5 141,-19.5 141,-0.5 100,-0.5"/>
<text text-anchor="middle" x="120.5" y="-7.5" font-family="Helvetica,sans-Serif" font-size="10.00">string</text>
</g>
<!-- Node3&#45;&gt;Node4 -->
<g id="edge3" class="edge"><title>Node3&#45;&gt;Node4</title>
<path fill="none" stroke="midnightblue" d="M153.656,-112.467C113.072,-104.991 63.1323,-92.7037 50.5,-76 34.7997,-55.2396 64.6615,-35.5033 90.12,-23.3386"/>
<polygon fill="midnightblue" stroke="midnightblue" points="91.8945,-26.3771 99.5575,-19.0607 89.0045,-20.0015 91.8945,-26.3771"/>
</g>
<!-- Node5 -->
<g id="node5" class="node"><title>Node5</title>
<polygon fill="none" stroke="#bfbfbf" points="192,-0.5 192,-19.5 227,-19.5 227,-0.5 192,-0.5"/>
<text text-anchor="middle" x="209.5" y="-7.5" font-family="Helvetica,sans-Serif" font-size="10.00">map</text>
</g>
<!-- Node3&#45;&gt;Node5 -->
<g id="edge4" class="edge"><title>Node3&#45;&gt;Node5</title>
<path fill="none" stroke="midnightblue" d="M209.5,-112.368C209.5,-94.617 209.5,-53.6664 209.5,-29.5974"/>
<polygon fill="midnightblue" stroke="midnightblue" points="213,-29.5914 209.5,-19.5914 206,-29.5915 213,-29.5914"/>
</g>
<!-- Node6 -->
<g id="node6" class="node"><title>Node6</title>
<polygon fill="none" stroke="#bfbfbf" points="322.5,-0.5 322.5,-19.5 378.5,-19.5 378.5,-0.5 322.5,-0.5"/>
<text text-anchor="middle" x="350.5" y="-7.5" font-family="Helvetica,sans-Serif" font-size="10.00">Rtypes.h</text>
</g>
<!-- Node3&#45;&gt;Node6 -->
<g id="edge5" class="edge"><title>Node3&#45;&gt;Node6</title>
<path fill="none" stroke="midnightblue" d="M285.781,-112.471C331.831,-105.574 384.283,-93.9989 398.5,-76 411.95,-58.9714 391.62,-38.7893 373.423,-25.482"/>
<polygon fill="midnightblue" stroke="midnightblue" points="375.037,-22.3434 364.818,-19.5456 371.061,-28.1053 375.037,-22.3434"/>
</g>
<!-- Node7 -->
<g id="node7" class="node"><title>Node7</title>
<g id="a_node7"><a xlink:href="MonitorObject_8h.html" target="_top" xlink:title="QualityControl/MonitorObject.h">
<polygon fill="none" stroke="black" points="238,-56.5 238,-75.5 389,-75.5 389,-56.5 238,-56.5"/>
<text text-anchor="middle" x="313.5" y="-63.5" font-family="Helvetica,sans-Serif" font-size="10.00">QualityControl/MonitorObject.h</text>
</a>
</g>
</g>
<!-- Node3&#45;&gt;Node7 -->
<g id="edge6" class="edge"><title>Node3&#45;&gt;Node7</title>
<path fill="none" stroke="midnightblue" d="M226.209,-112.324C242.812,-103.703 268.502,-90.3643 287.72,-80.3855"/>
<polygon fill="midnightblue" stroke="midnightblue" points="289.57,-83.3689 296.832,-75.6545 286.344,-77.1565 289.57,-83.3689"/>
</g>
<!-- Node10 -->
<g id="node10" class="node"><title>Node10</title>
<g id="a_node10"><a xlink:href="Quality_8h.html" target="_top" xlink:title="QualityControl/Quality.h">
<polygon fill="none" stroke="black" points="60,-56.5 60,-75.5 181,-75.5 181,-56.5 60,-56.5"/>
<text text-anchor="middle" x="120.5" y="-63.5" font-family="Helvetica,sans-Serif" font-size="10.00">QualityControl/Quality.h</text>
</a>
</g>
</g>
<!-- Node3&#45;&gt;Node10 -->
<g id="edge12" class="edge"><title>Node3&#45;&gt;Node10</title>
<path fill="none" stroke="midnightblue" d="M195.201,-112.324C181.317,-103.9 160.008,-90.9709 143.696,-81.0741"/>
<polygon fill="midnightblue" stroke="midnightblue" points="145.129,-77.8495 134.764,-75.6545 141.498,-83.8341 145.129,-77.8495"/>
</g>
<!-- Node7&#45;&gt;Node4 -->
<g id="edge7" class="edge"><title>Node7&#45;&gt;Node4</title>
<path fill="none" stroke="midnightblue" d="M282.919,-56.4435C246.834,-46.3474 187.194,-29.6606 151.101,-19.562"/>
<polygon fill="midnightblue" stroke="midnightblue" points="151.72,-16.1007 141.147,-16.7767 149.834,-22.8418 151.72,-16.1007"/>
</g>
<!-- Node7&#45;&gt;Node5 -->
<g id="edge8" class="edge"><title>Node7&#45;&gt;Node5</title>
<path fill="none" stroke="midnightblue" d="M296.791,-56.324C280.188,-47.7034 254.498,-34.3643 235.28,-24.3855"/>
<polygon fill="midnightblue" stroke="midnightblue" points="236.656,-21.1565 226.168,-19.6545 233.43,-27.3689 236.656,-21.1565"/>
</g>
<!-- Node7&#45;&gt;Node6 -->
<g id="edge9" class="edge"><title>Node7&#45;&gt;Node6</title>
<path fill="none" stroke="midnightblue" d="M319.61,-56.083C324.782,-48.5341 332.346,-37.4948 338.694,-28.2298"/>
<polygon fill="midnightblue" stroke="midnightblue" points="341.739,-29.9787 344.504,-19.7511 335.964,-26.0221 341.739,-29.9787"/>
</g>
<!-- Node8 -->
<g id="node8" class="node"><title>Node8</title>
<polygon fill="none" stroke="#bfbfbf" points="245,-0.5 245,-19.5 304,-19.5 304,-0.5 245,-0.5"/>
<text text-anchor="middle" x="274.5" y="-7.5" font-family="Helvetica,sans-Serif" font-size="10.00">TObject.h</text>
</g>
<!-- Node7&#45;&gt;Node8 -->
<g id="edge10" class="edge"><title>Node7&#45;&gt;Node8</title>
<path fill="none" stroke="midnightblue" d="M307.06,-56.083C301.551,-48.4554 293.469,-37.2645 286.735,-27.9408"/>
<polygon fill="midnightblue" stroke="midnightblue" points="289.513,-25.8087 280.82,-19.7511 283.838,-29.9071 289.513,-25.8087"/>
</g>
<!-- Node9 -->
<g id="node9" class="node"><title>Node9</title>
<polygon fill="none" stroke="#bfbfbf" points="396.5,-0.5 396.5,-19.5 512.5,-19.5 512.5,-0.5 396.5,-0.5"/>
<text text-anchor="middle" x="454.5" y="-7.5" font-family="Helvetica,sans-Serif" font-size="10.00">Common/Exceptions.h</text>
</g>
<!-- Node7&#45;&gt;Node9 -->
<g id="edge11" class="edge"><title>Node7&#45;&gt;Node9</title>
<path fill="none" stroke="midnightblue" d="M335.842,-56.4435C359.253,-47.4776 396.236,-33.314 422.69,-23.1827"/>
<polygon fill="midnightblue" stroke="midnightblue" points="424.176,-26.3615 432.263,-19.5164 421.672,-19.8245 424.176,-26.3615"/>
</g>
<!-- Node10&#45;&gt;Node4 -->
<g id="edge14" class="edge"><title>Node10&#45;&gt;Node4</title>
<path fill="none" stroke="midnightblue" d="M120.5,-56.083C120.5,-49.0059 120.5,-38.8611 120.5,-29.9865"/>
<polygon fill="midnightblue" stroke="midnightblue" points="124,-29.751 120.5,-19.7511 117,-29.7511 124,-29.751"/>
</g>
<!-- Node10&#45;&gt;Node6 -->
<g id="edge13" class="edge"><title>Node10&#45;&gt;Node6</title>
<path fill="none" stroke="midnightblue" d="M157.524,-56.4779C194.345,-47.978 252.714,-34.4382 312.271,-20.2772"/>
<polygon fill="midnightblue" stroke="midnightblue" points="313.308,-23.6282 322.225,-17.9071 311.686,-16.8186 313.308,-23.6282"/>
</g>
</g>
</svg>
        <g id="navigator" transform="translate(0 0)" fill="#404254">
                <rect fill="#f2f5e9" fill-opacity="0.5" stroke="#606060" stroke-width=".5" x="0" y="0" width="60" height="60"/>
                <use id="zoomplus" xlink:href="#zoomPlus" x="17" y="9" onmousedown="handleZoom(evt,'in')"/>
                <use id="zoomminus" xlink:href="#zoomMin" x="42" y="9" onmousedown="handleZoom(evt,'out')"/>
                <use id="reset" xlink:href="#resetDef" x="30" y="36" onmousedown="handleReset()"/>
                <g id="arrowUp" xlink:href="#dirArrow" transform="translate(30 24)" onmousedown="handlePan(0,-1)">
                  <use xlink:href="#rim" fill="#404040">
                        <set attributeName="fill" to="#808080" begin="arrowUp.mouseover" end="arrowUp.mouseout"/>
                  </use>
                  <path fill="none" stroke="white" stroke-width="1.5" d="M0,-3.0v7 M-2.5,-0.5L0,-3.0L2.5,-0.5"/>
                </g>
                <g id="arrowRight" xlink:href="#dirArrow" transform="rotate(90) translate(36 -43)" onmousedown="handlePan(1,0)">
                  <use xlink:href="#rim" fill="#404040">
                        <set attributeName="fill" to="#808080" begin="arrowRight.mouseover" end="arrowRight.mouseout"/>
                  </use>
                  <path fill="none" stroke="white" stroke-width="1.5" d="M0,-3.0v7 M-2.5,-0.5L0,-3.0L2.5,-0.5"/>
                </g>
                <g id="arrowDown" xlink:href="#dirArrow" transform="rotate(180) translate(-30 -48)" onmousedown="handlePan(0,1)">
                  <use xlink:href="#rim" fill="#404040">
                        <set attributeName="fill" to="#808080" begin="arrowDown.mouseover" end="arrowDown.mouseout"/>
                  </use>
                  <path fill="none" stroke="white" stroke-width="1.5" d="M0,-3.0v7 M-2.5,-0.5L0,-3.0L2.5,-0.5"/>
                </g>
                <g id="arrowLeft" xlink:href="#dirArrow" transform="rotate(270) translate(-36 17)" onmousedown="handlePan(-1,0)">
                  <use xlink:href="#rim" fill="#404040">
                        <set attributeName="fill" to="#808080" begin="arrowLeft.mouseover" end="arrowLeft.mouseout"/>
                  </use>
                  <path fill="none" stroke="white" stroke-width="1.5" d="M0,-3.0v7 M-2.5,-0.5L0,-3.0L2.5,-0.5"/>
                </g>
        </g>
        <svg viewBox="0 0 15 15" width="100%" height="30px" preserveAspectRatio="xMaxYMin meet">
         <g id="arrow_out" transform="scale(0.3 0.3)">
          <a xlink:href="EverIncreasingGraph_8h__incl_org.svg" target="_base">
           <rect id="button" ry="5" rx="5" y="6" x="6" height="38" width="38"
                fill="#f2f5e9" fill-opacity="0.5" stroke="#606060" stroke-width="1.0"/>
           <path id="arrow"
             d="M 11.500037,31.436501 C 11.940474,20.09759 22.043105,11.32322 32.158766,21.979434 L 37.068811,17.246167 C 37.068811,17.246167 37.088388,32 37.088388,32 L 22.160133,31.978069 C 22.160133,31.978069 26.997745,27.140456 26.997745,27.140456 C 18.528582,18.264221 13.291696,25.230495 11.500037,31.436501 z"
             style="fill:#404040;"/>
          </a>
         </g>
        </svg>
</svg>
