<?xml version="1.0" encoding="UTF-8" standalone="no"?>
<!DOCTYPE svg PUBLIC "-//W3C//DTD SVG 1.1//EN"
 "http://www.w3.org/Graphics/SVG/1.1/DTD/svg11.dtd">
<!-- Generated by graphviz version 2.38.0 (20140413.2041)
 -->
<!-- Title: Modules/Example/src/FakeCheck.cxx Pages: 1 -->
<svg width="481pt" height="263pt"
 viewBox="0.00 0.00 481.00 263.00" xmlns="http://www.w3.org/2000/svg" xmlns:xlink="http://www.w3.org/1999/xlink">
<g id="graph0" class="graph" transform="scale(1 1) rotate(0) translate(4 259)">
<title>Modules/Example/src/FakeCheck.cxx</title>
<!-- Node1 -->
<g id="node1" class="node"><title>Node1</title>
<polygon fill="#bfbfbf" stroke="black" points="230,-224.5 230,-254.5 341,-254.5 341,-224.5 230,-224.5"/>
<text text-anchor="start" x="238" y="-242.5" font-family="Helvetica,sans-Serif" font-size="10.00">Modules/Example/src</text>
<text text-anchor="middle" x="285.5" y="-231.5" font-family="Helvetica,sans-Serif" font-size="10.00">/FakeCheck.cxx</text>
</g>
<!-- Node2 -->
<g id="node2" class="node"><title>Node2</title>
<g id="a_node2"><a xlink:href="FakeCheck_8h.html" target="_top" xlink:title="Example/FakeCheck.h">
<polygon fill="none" stroke="black" points="227.5,-168.5 227.5,-187.5 343.5,-187.5 343.5,-168.5 227.5,-168.5"/>
<text text-anchor="middle" x="285.5" y="-175.5" font-family="Helvetica,sans-Serif" font-size="10.00">Example/FakeCheck.h</text>
</a>
</g>
</g>
<!-- Node1&#45;&gt;Node2 -->
<g id="edge1" class="edge"><title>Node1&#45;&gt;Node2</title>
<path fill="none" stroke="midnightblue" d="M285.5,-224.399C285.5,-216.466 285.5,-206.458 285.5,-197.858"/>
<polygon fill="midnightblue" stroke="midnightblue" points="289,-197.658 285.5,-187.658 282,-197.658 289,-197.658"/>
</g>
<!-- Node7 -->
<g id="node7" class="node"><title>Node7</title>
<g id="a_node7"><a xlink:href="MonitorObject_8h.html" target="_top" xlink:title="QualityControl/MonitorObject.h">
<polygon fill="none" stroke="black" points="68,-56.5 68,-75.5 219,-75.5 219,-56.5 68,-56.5"/>
<text text-anchor="middle" x="143.5" y="-63.5" font-family="Helvetica,sans-Serif" font-size="10.00">QualityControl/MonitorObject.h</text>
</a>
</g>
</g>
<!-- Node1&#45;&gt;Node7 -->
<g id="edge15" class="edge"><title>Node1&#45;&gt;Node7</title>
<path fill="none" stroke="midnightblue" d="M262.694,-224.428C248.871,-215.183 231.463,-202.2 218.5,-188 188.902,-155.578 164.27,-109.895 151.962,-84.9628"/>
<polygon fill="midnightblue" stroke="midnightblue" points="154.964,-83.1297 147.463,-75.6469 148.66,-86.1739 154.964,-83.1297"/>
</g>
<!-- Node10 -->
<g id="node10" class="node"><title>Node10</title>
<g id="a_node10"><a xlink:href="Quality_8h.html" target="_top" xlink:title="QualityControl/Quality.h">
<polygon fill="none" stroke="black" points="352,-56.5 352,-75.5 473,-75.5 473,-56.5 352,-56.5"/>
<text text-anchor="middle" x="412.5" y="-63.5" font-family="Helvetica,sans-Serif" font-size="10.00">QualityControl/Quality.h</text>
</a>
</g>
</g>
<!-- Node1&#45;&gt;Node10 -->
<g id="edge16" class="edge"><title>Node1&#45;&gt;Node10</title>
<path fill="none" stroke="midnightblue" d="M309.427,-224.432C323.32,-215.367 340.408,-202.572 352.5,-188 378.977,-156.091 397.504,-110.531 406.431,-85.4036"/>
<polygon fill="midnightblue" stroke="midnightblue" points="409.825,-86.2958 409.758,-75.7012 403.204,-84.0252 409.825,-86.2958"/>
</g>
<!-- Node3 -->
<g id="node3" class="node"><title>Node3</title>
<g id="a_node3"><a xlink:href="CheckInterface_8h.html" target="_top" xlink:title="QualityControl/CheckInterface.h">
<polygon fill="none" stroke="black" points="207,-112.5 207,-131.5 364,-131.5 364,-112.5 207,-112.5"/>
<text text-anchor="middle" x="285.5" y="-119.5" font-family="Helvetica,sans-Serif" font-size="10.00">QualityControl/CheckInterface.h</text>
</a>
</g>
</g>
<!-- Node2&#45;&gt;Node3 -->
<g id="edge2" class="edge"><title>Node2&#45;&gt;Node3</title>
<path fill="none" stroke="midnightblue" d="M285.5,-168.083C285.5,-161.006 285.5,-150.861 285.5,-141.986"/>
<polygon fill="midnightblue" stroke="midnightblue" points="289,-141.751 285.5,-131.751 282,-141.751 289,-141.751"/>
</g>
<!-- Node4 -->
<g id="node4" class="node"><title>Node4</title>
<polygon fill="none" stroke="#bfbfbf" points="340,-0.5 340,-19.5 381,-19.5 381,-0.5 340,-0.5"/>
<text text-anchor="middle" x="360.5" y="-7.5" font-family="Helvetica,sans-Serif" font-size="10.00">string</text>
</g>
<!-- Node3&#45;&gt;Node4 -->
<g id="edge3" class="edge"><title>Node3&#45;&gt;Node4</title>
<path fill="none" stroke="midnightblue" d="M291.385,-112.368C303.762,-94.2153 332.681,-51.8015 348.916,-27.9902"/>
<polygon fill="midnightblue" stroke="midnightblue" points="351.901,-29.8254 354.642,-19.5914 346.117,-25.882 351.901,-29.8254"/>
</g>
<!-- Node5 -->
<g id="node5" class="node"><title>Node5</title>
<polygon fill="none" stroke="#bfbfbf" points="212,-0.5 212,-19.5 247,-19.5 247,-0.5 212,-0.5"/>
<text text-anchor="middle" x="229.5" y="-7.5" font-family="Helvetica,sans-Serif" font-size="10.00">map</text>
</g>
<!-- Node3&#45;&gt;Node5 -->
<g id="edge4" class="edge"><title>Node3&#45;&gt;Node5</title>
<path fill="none" stroke="midnightblue" d="M281.106,-112.368C271.946,-94.376 250.653,-52.5503 238.474,-28.6267"/>
<polygon fill="midnightblue" stroke="midnightblue" points="241.53,-26.9152 233.874,-19.5914 235.292,-30.091 241.53,-26.9152"/>
</g>
<!-- Node6 -->
<g id="node6" class="node"><title>Node6</title>
<polygon fill="none" stroke="#bfbfbf" points="265.5,-0.5 265.5,-19.5 321.5,-19.5 321.5,-0.5 265.5,-0.5"/>
<text text-anchor="middle" x="293.5" y="-7.5" font-family="Helvetica,sans-Serif" font-size="10.00">Rtypes.h</text>
</g>
<!-- Node3&#45;&gt;Node6 -->
<g id="edge5" class="edge"><title>Node3&#45;&gt;Node6</title>
<path fill="none" stroke="midnightblue" d="M286.128,-112.368C287.419,-94.617 290.397,-53.6664 292.147,-29.5974"/>
<polygon fill="midnightblue" stroke="midnightblue" points="295.641,-29.819 292.875,-19.5914 288.659,-29.3112 295.641,-29.819"/>
</g>
<!-- Node3&#45;&gt;Node7 -->
<g id="edge6" class="edge"><title>Node3&#45;&gt;Node7</title>
<path fill="none" stroke="midnightblue" d="M263,-112.444C239.423,-103.478 202.178,-89.314 175.536,-79.1827"/>
<polygon fill="midnightblue" stroke="midnightblue" points="176.486,-75.7995 165.895,-75.5164 173.998,-82.3424 176.486,-75.7995"/>
</g>
<!-- Node3&#45;&gt;Node10 -->
<g id="edge12" class="edge"><title>Node3&#45;&gt;Node10</title>
<path fill="none" stroke="midnightblue" d="M305.624,-112.444C326.524,-103.557 359.435,-89.5632 383.216,-79.4514"/>
<polygon fill="midnightblue" stroke="midnightblue" points="384.638,-82.6504 392.471,-75.5164 381.898,-76.2085 384.638,-82.6504"/>
</g>
<!-- Node7&#45;&gt;Node4 -->
<g id="edge7" class="edge"><title>Node7&#45;&gt;Node4</title>
<path fill="none" stroke="midnightblue" d="M181.621,-56.4769C217.448,-48.3223 272.776,-35.3602 329.949,-20.0312"/>
<polygon fill="midnightblue" stroke="midnightblue" points="331.144,-23.3337 339.886,-17.3475 329.319,-16.5758 331.144,-23.3337"/>
</g>
<!-- Node7&#45;&gt;Node5 -->
<g id="edge8" class="edge"><title>Node7&#45;&gt;Node5</title>
<path fill="none" stroke="midnightblue" d="M157.317,-56.324C170.733,-47.9002 191.324,-34.9709 207.086,-25.0741"/>
<polygon fill="midnightblue" stroke="midnightblue" points="209.109,-27.9364 215.717,-19.6545 205.387,-22.0081 209.109,-27.9364"/>
</g>
<!-- Node7&#45;&gt;Node6 -->
<g id="edge9" class="edge"><title>Node7&#45;&gt;Node6</title>
<path fill="none" stroke="midnightblue" d="M167.268,-56.4435C192.393,-47.3986 232.211,-33.064 260.4,-22.9158"/>
<polygon fill="midnightblue" stroke="midnightblue" points="261.62,-26.1968 269.843,-19.5164 259.249,-19.6106 261.62,-26.1968"/>
</g>
<!-- Node8 -->
<g id="node8" class="node"><title>Node8</title>
<polygon fill="none" stroke="#bfbfbf" points="0,-0.5 0,-19.5 59,-19.5 59,-0.5 0,-0.5"/>
<text text-anchor="middle" x="29.5" y="-7.5" font-family="Helvetica,sans-Serif" font-size="10.00">TObject.h</text>
</g>
<!-- Node7&#45;&gt;Node8 -->
<g id="edge10" class="edge"><title>Node7&#45;&gt;Node8</title>
<path fill="none" stroke="midnightblue" d="M125.436,-56.4435C106.925,-47.6751 77.9193,-33.9355 56.6445,-23.8579"/>
<polygon fill="midnightblue" stroke="midnightblue" points="58.0148,-20.6343 47.4791,-19.5164 55.0182,-26.9604 58.0148,-20.6343"/>
</g>
<!-- Node9 -->
<g id="node9" class="node"><title>Node9</title>
<polygon fill="none" stroke="#bfbfbf" points="77.5,-0.5 77.5,-19.5 193.5,-19.5 193.5,-0.5 77.5,-0.5"/>
<text text-anchor="middle" x="135.5" y="-7.5" font-family="Helvetica,sans-Serif" font-size="10.00">Common/Exceptions.h</text>
</g>
<!-- Node7&#45;&gt;Node9 -->
<g id="edge11" class="edge"><title>Node7&#45;&gt;Node9</title>
<path fill="none" stroke="midnightblue" d="M142.179,-56.083C141.119,-48.9272 139.594,-38.6353 138.269,-29.6911"/>
<polygon fill="midnightblue" stroke="midnightblue" points="141.724,-29.1302 136.796,-19.7511 134.8,-30.1561 141.724,-29.1302"/>
</g>
<!-- Node10&#45;&gt;Node4 -->
<g id="edge14" class="edge"><title>Node10&#45;&gt;Node4</title>
<path fill="none" stroke="midnightblue" d="M403.913,-56.083C396.341,-48.2195 385.122,-36.5688 375.986,-27.0813"/>
<polygon fill="midnightblue" stroke="midnightblue" points="378.385,-24.5266 368.927,-19.7511 373.342,-29.3821 378.385,-24.5266"/>
</g>
<!-- Node10&#45;&gt;Node6 -->
<g id="edge13" class="edge"><title>Node10&#45;&gt;Node6</title>
<path fill="none" stroke="midnightblue" d="M393.644,-56.4435C374.234,-47.6356 343.77,-33.8116 321.535,-23.722"/>
<polygon fill="midnightblue" stroke="midnightblue" points="322.82,-20.4615 312.268,-19.5164 319.928,-26.836 322.82,-20.4615"/>
</g>
</g>
</svg>
