<?xml version="1.0" encoding="UTF-8" standalone="no"?>
<!DOCTYPE svg PUBLIC "-//W3C//DTD SVG 1.1//EN"
 "http://www.w3.org/Graphics/SVG/1.1/DTD/svg11.dtd">
<!-- Generated by graphviz version 2.38.0 (20140413.2041)
 -->
<!-- Title: Framework/include/QualityControl/InfrastructureGenerator.h Pages: 1 -->
<svg width="1745pt" height="106pt"
 viewBox="0.00 0.00 1744.50 106.00" xmlns="http://www.w3.org/2000/svg" xmlns:xlink="http://www.w3.org/1999/xlink">
<g id="graph0" class="graph" transform="scale(1 1) rotate(0) translate(4 102)">
<title>Framework/include/QualityControl/InfrastructureGenerator.h</title>
<!-- Node1 -->
<g id="node1" class="node"><title>Node1</title>
<polygon fill="#bfbfbf" stroke="black" points="720.5,-67.5 720.5,-97.5 880.5,-97.5 880.5,-67.5 720.5,-67.5"/>
<text text-anchor="start" x="728.5" y="-85.5" font-family="Helvetica,sans-Serif" font-size="10.00">Framework/include/Quality</text>
<text text-anchor="middle" x="800.5" y="-74.5" font-family="Helvetica,sans-Serif" font-size="10.00">Control/InfrastructureGenerator.h</text>
</g>
<!-- Node2 -->
<g id="node2" class="node"><title>Node2</title>
<g id="a_node2"><a xlink:href="InfrastructureGenerator_8cxx.html" target="_top" xlink:title="Framework/src/Infrastructure\lGenerator.cxx">
<polygon fill="none" stroke="black" points="0,-0.5 0,-30.5 143,-30.5 143,-0.5 0,-0.5"/>
<text text-anchor="start" x="8" y="-18.5" font-family="Helvetica,sans-Serif" font-size="10.00">Framework/src/Infrastructure</text>
<text text-anchor="middle" x="71.5" y="-7.5" font-family="Helvetica,sans-Serif" font-size="10.00">Generator.cxx</text>
</a>
</g>
</g>
<!-- Node1&#45;&gt;Node2 -->
<g id="edge1" class="edge"><title>Node1&#45;&gt;Node2</title>
<path fill="none" stroke="midnightblue" d="M709.959,-77.3655C584.253,-70.9633 349.913,-56.6332 151.5,-31 148.84,-30.6564 146.135,-30.2839 143.405,-29.8887"/>
<polygon fill="midnightblue" stroke="midnightblue" points="710.136,-80.8788 720.3,-77.8867 710.489,-73.8877 710.136,-80.8788"/>
</g>
<!-- Node3 -->
<g id="node3" class="node"><title>Node3</title>
<g id="a_node3"><a xlink:href="runAdvanced_8cxx.html" target="_top" xlink:title="This is an executable showing a more complicated QC topology. ">
<polygon fill="none" stroke="black" points="161,-6 161,-25 322,-25 322,-6 161,-6"/>
<text text-anchor="middle" x="241.5" y="-13" font-family="Helvetica,sans-Serif" font-size="10.00">Framework/src/runAdvanced.cxx</text>
</a>
</g>
</g>
<!-- Node1&#45;&gt;Node3 -->
<g id="edge2" class="edge"><title>Node1&#45;&gt;Node3</title>
<path fill="none" stroke="midnightblue" d="M710.162,-73.1919C615.595,-64.1627 462.869,-48.6427 331.5,-31 318.481,-29.2515 304.443,-27.1126 291.416,-25.0203"/>
<polygon fill="midnightblue" stroke="midnightblue" points="709.977,-76.69 720.264,-74.1528 710.64,-69.7215 709.977,-76.69"/>
</g>
<!-- Node4 -->
<g id="node4" class="node"><title>Node4</title>
<g id="a_node4"><a xlink:href="runBasic_8cxx.html" target="_top" xlink:title="This is an executable showing QC Task&#39;s usage in Data Processing Layer. ">
<polygon fill="none" stroke="black" points="340.5,-6 340.5,-25 482.5,-25 482.5,-6 340.5,-6"/>
<text text-anchor="middle" x="411.5" y="-13" font-family="Helvetica,sans-Serif" font-size="10.00">Framework/src/runBasic.cxx</text>
</a>
</g>
</g>
<!-- Node1&#45;&gt;Node4 -->
<g id="edge3" class="edge"><title>Node1&#45;&gt;Node4</title>
<path fill="none" stroke="midnightblue" d="M710.318,-67.1833C648.653,-57.2904 565.077,-43.6794 491.5,-31 480.65,-29.1303 468.985,-27.0538 458.009,-25.0702"/>
<polygon fill="midnightblue" stroke="midnightblue" points="709.979,-70.6736 720.407,-68.8001 711.087,-63.7618 709.979,-70.6736"/>
</g>
<!-- Node5 -->
<g id="node5" class="node"><title>Node5</title>
<g id="a_node5"><a xlink:href="runQC_8cxx.html" target="_top" xlink:title="This is an executable which generates a QC topology given a configuration file. ">
<polygon fill="none" stroke="black" points="500.5,-6 500.5,-25 632.5,-25 632.5,-6 500.5,-6"/>
<text text-anchor="middle" x="566.5" y="-13" font-family="Helvetica,sans-Serif" font-size="10.00">Framework/src/runQC.cxx</text>
</a>
</g>
</g>
<!-- Node1&#45;&gt;Node5 -->
<g id="edge4" class="edge"><title>Node1&#45;&gt;Node5</title>
<path fill="none" stroke="midnightblue" d="M740.202,-64.7505C694.437,-52.038 633.406,-35.0851 597.203,-25.0287"/>
<polygon fill="midnightblue" stroke="midnightblue" points="739.442,-68.1718 750.014,-67.476 741.315,-61.4272 739.442,-68.1718"/>
</g>
<!-- Node6 -->
<g id="node6" class="node"><title>Node6</title>
<g id="a_node6"><a xlink:href="testCheckWorkflow_8cxx.html" target="_top" xlink:title="Framework/test/testCheck\lWorkflow.cxx">
<polygon fill="none" stroke="black" points="651,-0.5 651,-30.5 784,-30.5 784,-0.5 651,-0.5"/>
<text text-anchor="start" x="659" y="-18.5" font-family="Helvetica,sans-Serif" font-size="10.00">Framework/test/testCheck</text>
<text text-anchor="middle" x="717.5" y="-7.5" font-family="Helvetica,sans-Serif" font-size="10.00">Workflow.cxx</text>
</a>
</g>
</g>
<!-- Node1&#45;&gt;Node6 -->
<g id="edge5" class="edge"><title>Node1&#45;&gt;Node6</title>
<path fill="none" stroke="midnightblue" d="M774.537,-61.1677C761.845,-51.2283 746.888,-39.5144 735.475,-30.5765"/>
<polygon fill="midnightblue" stroke="midnightblue" points="772.459,-63.9859 782.49,-67.396 776.775,-58.4747 772.459,-63.9859"/>
</g>
<!-- Node7 -->
<g id="node7" class="node"><title>Node7</title>
<g id="a_node7"><a xlink:href="testInfrastructureGenerator_8cxx.html" target="_top" xlink:title="Framework/test/testInfrastructure\lGenerator.cxx">
<polygon fill="none" stroke="black" points="802.5,-0.5 802.5,-30.5 964.5,-30.5 964.5,-0.5 802.5,-0.5"/>
<text text-anchor="start" x="810.5" y="-18.5" font-family="Helvetica,sans-Serif" font-size="10.00">Framework/test/testInfrastructure</text>
<text text-anchor="middle" x="883.5" y="-7.5" font-family="Helvetica,sans-Serif" font-size="10.00">Generator.cxx</text>
</a>
</g>
</g>
<!-- Node1&#45;&gt;Node7 -->
<g id="edge6" class="edge"><title>Node1&#45;&gt;Node7</title>
<path fill="none" stroke="midnightblue" d="M826.463,-61.1677C839.155,-51.2283 854.112,-39.5144 865.525,-30.5765"/>
<polygon fill="midnightblue" stroke="midnightblue" points="824.225,-58.4747 818.51,-67.396 828.541,-63.9859 824.225,-58.4747"/>
</g>
<!-- Node8 -->
<g id="node8" class="node"><title>Node8</title>
<g id="a_node8"><a xlink:href="testWorkflow_8cxx.html" target="_top" xlink:title="Framework/test/testWorkflow.cxx">
<polygon fill="none" stroke="black" points="982.5,-6 982.5,-25 1146.5,-25 1146.5,-6 982.5,-6"/>
<text text-anchor="middle" x="1064.5" y="-13" font-family="Helvetica,sans-Serif" font-size="10.00">Framework/test/testWorkflow.cxx</text>
</a>
</g>
</g>
<!-- Node1&#45;&gt;Node8 -->
<g id="edge7" class="edge"><title>Node1&#45;&gt;Node8</title>
<path fill="none" stroke="midnightblue" d="M867.233,-65.0694C919.004,-52.3228 988.673,-35.1694 1029.86,-25.0287"/>
<polygon fill="midnightblue" stroke="midnightblue" points="866.332,-61.6867 857.459,-67.476 868.006,-68.4837 866.332,-61.6867"/>
</g>
<!-- Node9 -->
<g id="node9" class="node"><title>Node9</title>
<polygon fill="none" stroke="#bfbfbf" points="1164.5,-6 1164.5,-25 1382.5,-25 1382.5,-6 1164.5,-6"/>
<text text-anchor="middle" x="1273.5" y="-13" font-family="Helvetica,sans-Serif" font-size="10.00">Modules/EMCAL/src/runQCEMCALDigits.cxx</text>
</g>
<!-- Node1&#45;&gt;Node9 -->
<g id="edge8" class="edge"><title>Node1&#45;&gt;Node9</title>
<path fill="none" stroke="midnightblue" d="M890.806,-69.0901C984.802,-56.1731 1129.5,-36.2893 1211.39,-25.0349"/>
<polygon fill="midnightblue" stroke="midnightblue" points="890.168,-65.6447 880.738,-70.4736 891.121,-72.5796 890.168,-65.6447"/>
</g>
<!-- Node10 -->
<g id="node10" class="node"><title>Node10</title>
<g id="a_node10"><a xlink:href="runTOF_8cxx.html" target="_top" xlink:title="This is an executable showing QC Task&#39;s usage in Data Processing Layer. ">
<polygon fill="none" stroke="black" points="1401,-6 1401,-25 1548,-25 1548,-6 1401,-6"/>
<text text-anchor="middle" x="1474.5" y="-13" font-family="Helvetica,sans-Serif" font-size="10.00">Modules/TOF/src/runTOF.cxx</text>
</a>
</g>
</g>
<!-- Node1&#45;&gt;Node10 -->
<g id="edge9" class="edge"><title>Node1&#45;&gt;Node10</title>
<path fill="none" stroke="midnightblue" d="M890.821,-76.2531C1006.98,-68.9392 1214.8,-53.9388 1391.5,-31 1403.98,-29.3805 1417.44,-27.2127 1429.81,-25.0477"/>
<polygon fill="midnightblue" stroke="midnightblue" points="890.32,-72.7774 880.557,-76.8943 890.756,-79.7638 890.32,-72.7774"/>
</g>
<!-- Node11 -->
<g id="node11" class="node"><title>Node11</title>
<polygon fill="none" stroke="#bfbfbf" points="1566.5,-0.5 1566.5,-30.5 1736.5,-30.5 1736.5,-0.5 1566.5,-0.5"/>
<text text-anchor="start" x="1574.5" y="-18.5" font-family="Helvetica,sans-Serif" font-size="10.00">Modules/TPC/run/runTPCQCTrack</text>
<text text-anchor="middle" x="1651.5" y="-7.5" font-family="Helvetica,sans-Serif" font-size="10.00">Reader.cxx</text>
</g>
<!-- Node1&#45;&gt;Node11 -->
<g id="edge10" class="edge"><title>Node1&#45;&gt;Node11</title>
<path fill="none" stroke="midnightblue" d="M890.942,-77.9966C1033.14,-71.9189 1317.54,-57.4619 1557.5,-31 1560.45,-30.6742 1563.46,-30.3226 1566.49,-29.9503"/>
<polygon fill="midnightblue" stroke="midnightblue" points="890.379,-74.5172 880.536,-78.4372 890.675,-81.5109 890.379,-74.5172"/>
</g>
</g>
</svg>
