<?xml version="1.0" encoding="UTF-8" standalone="no"?>
<!DOCTYPE svg PUBLIC "-//W3C//DTD SVG 1.1//EN"
 "http://www.w3.org/Graphics/SVG/1.1/DTD/svg11.dtd">
<!-- Generated by graphviz version 2.38.0 (20140413.2041)
 -->
<!-- Title: Graphical Class Hierarchy Pages: 1 -->
<svg width="267pt" height="176pt"
 viewBox="0.00 0.00 267.00 175.50" xmlns="http://www.w3.org/2000/svg" xmlns:xlink="http://www.w3.org/1999/xlink">
<g id="graph0" class="graph" transform="scale(1 1) rotate(0) translate(4 171.5)">
<title>Graphical Class Hierarchy</title>
<!-- Node1 -->
<g id="node1" class="node"><title>Node1</title>
<g id="a_node1"><a xlink:href="classo2_1_1framework_1_1Task.html" target="_top" xlink:title="Task">
<polygon fill="none" stroke="black" points="0,-79 0,-98 38,-98 38,-79 0,-79"/>
<text text-anchor="middle" x="19" y="-86" font-family="Helvetica,sans-Serif" font-size="10.00">Task</text>
</a>
</g>
</g>
<!-- Node2 -->
<g id="node2" class="node"><title>Node2</title>
<g id="a_node2"><a xlink:href="classDigitsRootFileReaderMFT.html" target="_top" xlink:title="DigitsRootFileReaderMFT">
<polygon fill="none" stroke="black" points="101,-148 101,-167 232,-167 232,-148 101,-148"/>
<text text-anchor="middle" x="166.5" y="-155" font-family="Helvetica,sans-Serif" font-size="10.00">DigitsRootFileReaderMFT</text>
</a>
</g>
</g>
<!-- Node1&#45;&gt;Node2 -->
<g id="edge1" class="edge"><title>Node1&#45;&gt;Node2</title>
<path fill="none" stroke="midnightblue" d="M34.4077,-106.041C44.3909,-117.033 58.6145,-130.571 74,-138.5 82.3647,-142.811 91.6358,-146.143 100.973,-148.72"/>
<polygon fill="midnightblue" stroke="midnightblue" points="36.853,-103.52 27.6512,-98.2683 31.5699,-108.112 36.853,-103.52"/>
</g>
<!-- Node3 -->
<g id="node3" class="node"><title>Node3</title>
<g id="a_node3"><a xlink:href="classo2_1_1quality__control_1_1core_1_1HistoMerger.html" target="_top" xlink:title="A crude histogram merger for development purposes. ">
<polygon fill="none" stroke="black" points="116,-98.5 116,-128.5 217,-128.5 217,-98.5 116,-98.5"/>
<text text-anchor="start" x="124" y="-116.5" font-family="Helvetica,sans-Serif" font-size="10.00">o2::quality_control</text>
<text text-anchor="middle" x="166.5" y="-105.5" font-family="Helvetica,sans-Serif" font-size="10.00">::core::HistoMerger</text>
</a>
</g>
</g>
<!-- Node1&#45;&gt;Node3 -->
<g id="edge2" class="edge"><title>Node1&#45;&gt;Node3</title>
<path fill="none" stroke="midnightblue" d="M48.0292,-93.316C67.212,-96.612 93.1725,-101.073 115.81,-104.962"/>
<polygon fill="midnightblue" stroke="midnightblue" points="48.5818,-89.8597 38.1335,-91.6157 47.3963,-96.7587 48.5818,-89.8597"/>
</g>
<!-- Node4 -->
<g id="node4" class="node"><title>Node4</title>
<g id="a_node4"><a xlink:href="classo2_1_1quality__control_1_1core_1_1TaskRunner.html" target="_top" xlink:title="A class driving the execution of a QC task inside DPL. ">
<polygon fill="none" stroke="black" points="116,-49.5 116,-79.5 217,-79.5 217,-49.5 116,-49.5"/>
<text text-anchor="start" x="124" y="-67.5" font-family="Helvetica,sans-Serif" font-size="10.00">o2::quality_control</text>
<text text-anchor="middle" x="166.5" y="-56.5" font-family="Helvetica,sans-Serif" font-size="10.00">::core::TaskRunner</text>
</a>
</g>
</g>
<!-- Node1&#45;&gt;Node4 -->
<g id="edge3" class="edge"><title>Node1&#45;&gt;Node4</title>
<path fill="none" stroke="midnightblue" d="M48.0292,-83.8766C67.212,-80.7125 93.1725,-76.4303 115.81,-72.6962"/>
<polygon fill="midnightblue" stroke="midnightblue" points="47.4305,-80.428 38.1335,-85.5089 48.5698,-87.3347 47.4305,-80.428"/>
</g>
<!-- Node5 -->
<g id="node5" class="node"><title>Node5</title>
<g id="a_node5"><a xlink:href="classo2_1_1quality__control_1_1example_1_1ExampleQualityPrinterSpec.html" target="_top" xlink:title="Example DPL task to be plugged after a QC check. ">
<polygon fill="none" stroke="black" points="74,-0.5 74,-30.5 259,-30.5 259,-0.5 74,-0.5"/>
<text text-anchor="start" x="82" y="-18.5" font-family="Helvetica,sans-Serif" font-size="10.00">o2::quality_control</text>
<text text-anchor="middle" x="166.5" y="-7.5" font-family="Helvetica,sans-Serif" font-size="10.00">::example::ExampleQualityPrinterSpec</text>
</a>
</g>
</g>
<!-- Node1&#45;&gt;Node5 -->
<g id="edge4" class="edge"><title>Node1&#45;&gt;Node5</title>
<path fill="none" stroke="midnightblue" d="M35.063,-71.6142C45.1466,-61.2613 59.2366,-48.5017 74,-40.5 81.0942,-36.655 88.8248,-33.366 96.6884,-30.561"/>
<polygon fill="midnightblue" stroke="midnightblue" points="32.4769,-69.2553 28.1882,-78.9434 37.5824,-74.0443 32.4769,-69.2553"/>
</g>
</g>
</svg>
