<?xml version="1.0" encoding="UTF-8" standalone="no"?>
<!DOCTYPE svg PUBLIC "-//W3C//DTD SVG 1.1//EN"
 "http://www.w3.org/Graphics/SVG/1.1/DTD/svg11.dtd">
<!-- Generated by graphviz version 2.38.0 (20140413.2041)
 -->
<!-- Title: Graphical Class Hierarchy Pages: 1 -->
<svg width="330pt" height="490pt"
 viewBox="0.00 0.00 330.00 490.00" xmlns="http://www.w3.org/2000/svg" xmlns:xlink="http://www.w3.org/1999/xlink">
<g id="graph0" class="graph" transform="scale(1 1) rotate(0) translate(4 486)">
<title>Graphical Class Hierarchy</title>
<!-- Node1 -->
<g id="node1" class="node"><title>Node1</title>
<g id="a_node1"><a xlink:href="classo2_1_1quality__control_1_1core_1_1TaskInterface.html" target="_top" xlink:title="Skeleton of a QC task. ">
<polygon fill="none" stroke="black" points="0,-230.5 0,-260.5 107,-260.5 107,-230.5 0,-230.5"/>
<text text-anchor="start" x="8" y="-248.5" font-family="Helvetica,sans-Serif" font-size="10.00">o2::quality_control</text>
<text text-anchor="middle" x="53.5" y="-237.5" font-family="Helvetica,sans-Serif" font-size="10.00">::core::TaskInterface</text>
</a>
</g>
</g>
<!-- Node2 -->
<g id="node2" class="node"><title>Node2</title>
<g id="a_node2"><a xlink:href="classo2_1_1quality__control_1_1test_1_1TestTask.html" target="_top" xlink:title="o2::quality_control\l::test::TestTask">
<polygon fill="none" stroke="black" points="184.5,-451.5 184.5,-481.5 280.5,-481.5 280.5,-451.5 184.5,-451.5"/>
<text text-anchor="start" x="192.5" y="-469.5" font-family="Helvetica,sans-Serif" font-size="10.00">o2::quality_control</text>
<text text-anchor="middle" x="232.5" y="-458.5" font-family="Helvetica,sans-Serif" font-size="10.00">::test::TestTask</text>
</a>
</g>
</g>
<!-- Node1&#45;&gt;Node2 -->
<g id="edge1" class="edge"><title>Node1&#45;&gt;Node2</title>
<path fill="none" stroke="midnightblue" d="M58.6736,-270.66C66.9843,-312.658 89.6194,-396.924 143,-442.5 154.502,-452.32 169.654,-458.157 184.164,-461.614"/>
<polygon fill="midnightblue" stroke="midnightblue" points="62.0915,-269.896 56.8182,-260.706 55.2101,-271.179 62.0915,-269.896"/>
</g>
<!-- Node3 -->
<g id="node3" class="node"><title>Node3</title>
<g id="a_node3"><a xlink:href="classo2_1_1quality__control__modules_1_1daq_1_1DaqTask.html" target="_top" xlink:title="Example Quality Control Task It is final because there is no reason to derive from it...">
<polygon fill="none" stroke="black" points="169.5,-402.5 169.5,-432.5 295.5,-432.5 295.5,-402.5 169.5,-402.5"/>
<text text-anchor="start" x="177.5" y="-420.5" font-family="Helvetica,sans-Serif" font-size="10.00">o2::quality_control</text>
<text text-anchor="middle" x="232.5" y="-409.5" font-family="Helvetica,sans-Serif" font-size="10.00">_modules::daq::DaqTask</text>
</a>
</g>
</g>
<!-- Node1&#45;&gt;Node3 -->
<g id="edge2" class="edge"><title>Node1&#45;&gt;Node3</title>
<path fill="none" stroke="midnightblue" d="M62.7307,-270.529C74.9333,-303.689 101.011,-361.69 143,-393.5 150.74,-399.364 159.817,-403.796 169.153,-407.146"/>
<polygon fill="midnightblue" stroke="midnightblue" points="65.8884,-268.96 59.2538,-260.7 59.2892,-271.295 65.8884,-268.96"/>
</g>
<!-- Node4 -->
<g id="node4" class="node"><title>Node4</title>
<g id="a_node4"><a xlink:href="classo2_1_1quality__control__modules_1_1emcal_1_1DigitsQcTask.html" target="_top" xlink:title="QC Task for EMCAL digits. ">
<polygon fill="none" stroke="black" points="154,-353.5 154,-383.5 311,-383.5 311,-353.5 154,-353.5"/>
<text text-anchor="start" x="162" y="-371.5" font-family="Helvetica,sans-Serif" font-size="10.00">o2::quality_control</text>
<text text-anchor="middle" x="232.5" y="-360.5" font-family="Helvetica,sans-Serif" font-size="10.00">_modules::emcal::DigitsQcTask</text>
</a>
</g>
</g>
<!-- Node1&#45;&gt;Node4 -->
<g id="edge3" class="edge"><title>Node1&#45;&gt;Node4</title>
<path fill="none" stroke="midnightblue" d="M69.5827,-269.116C85.2551,-291.757 111.828,-325.256 143,-344.5 148.554,-347.929 154.599,-350.875 160.835,-353.405"/>
<polygon fill="midnightblue" stroke="midnightblue" points="72.4235,-267.068 63.9324,-260.732 66.6187,-270.98 72.4235,-267.068"/>
</g>
<!-- Node5 -->
<g id="node5" class="node"><title>Node5</title>
<g id="a_node5"><a xlink:href="classo2_1_1quality__control__modules_1_1emcal_1_1RawTask.html" target="_top" xlink:title="Example Quality Control DPL Task It is final because there is no reason to derive from it...">
<polygon fill="none" stroke="black" points="163,-304.5 163,-334.5 302,-334.5 302,-304.5 163,-304.5"/>
<text text-anchor="start" x="171" y="-322.5" font-family="Helvetica,sans-Serif" font-size="10.00">o2::quality_control</text>
<text text-anchor="middle" x="232.5" y="-311.5" font-family="Helvetica,sans-Serif" font-size="10.00">_modules::emcal::RawTask</text>
</a>
</g>
</g>
<!-- Node1&#45;&gt;Node5 -->
<g id="edge4" class="edge"><title>Node1&#45;&gt;Node5</title>
<path fill="none" stroke="midnightblue" d="M86.0373,-265.869C102.514,-275.843 123.303,-287.414 143,-295.5 151.1,-298.825 159.804,-301.829 168.479,-304.497"/>
<polygon fill="midnightblue" stroke="midnightblue" points="87.7116,-262.789 77.3618,-260.524 84.0398,-268.749 87.7116,-262.789"/>
</g>
<!-- Node6 -->
<g id="node6" class="node"><title>Node6</title>
<g id="a_node6"><a xlink:href="classo2_1_1quality__control__modules_1_1example_1_1BenchmarkTask.html" target="_top" xlink:title="Quality Control Task for benchmarking It publishes a number of TH1F (configurable, see example.ini in module QualityControl). The histos are reset and refilled (1000 random) at EOC. They have 1000 bins. The monitoring of data blocks is empty (sleep 100 ms). ">
<polygon fill="none" stroke="black" points="143,-255.5 143,-285.5 322,-285.5 322,-255.5 143,-255.5"/>
<text text-anchor="start" x="151" y="-273.5" font-family="Helvetica,sans-Serif" font-size="10.00">o2::quality_control</text>
<text text-anchor="middle" x="232.5" y="-262.5" font-family="Helvetica,sans-Serif" font-size="10.00">_modules::example::BenchmarkTask</text>
</a>
</g>
</g>
<!-- Node1&#45;&gt;Node6 -->
<g id="edge5" class="edge"><title>Node1&#45;&gt;Node6</title>
<path fill="none" stroke="midnightblue" d="M117.149,-254.349C125.522,-255.531 134.233,-256.762 142.944,-257.992"/>
<polygon fill="midnightblue" stroke="midnightblue" points="117.518,-250.866 107.127,-252.933 116.539,-257.797 117.518,-250.866"/>
</g>
<!-- Node7 -->
<g id="node7" class="node"><title>Node7</title>
<g id="a_node7"><a xlink:href="classo2_1_1quality__control__modules_1_1example_1_1ExampleTask.html" target="_top" xlink:title="Example Quality Control Task It is final because there is no reason to derive from it...">
<polygon fill="none" stroke="black" points="149,-206.5 149,-236.5 316,-236.5 316,-206.5 149,-206.5"/>
<text text-anchor="start" x="157" y="-224.5" font-family="Helvetica,sans-Serif" font-size="10.00">o2::quality_control</text>
<text text-anchor="middle" x="232.5" y="-213.5" font-family="Helvetica,sans-Serif" font-size="10.00">_modules::example::ExampleTask</text>
</a>
</g>
</g>
<!-- Node1&#45;&gt;Node7 -->
<g id="edge6" class="edge"><title>Node1&#45;&gt;Node7</title>
<path fill="none" stroke="midnightblue" d="M117.201,-236.998C127.468,-235.606 138.242,-234.145 148.902,-232.7"/>
<polygon fill="midnightblue" stroke="midnightblue" points="116.566,-233.552 107.127,-238.364 117.506,-240.489 116.566,-233.552"/>
</g>
<!-- Node8 -->
<g id="node8" class="node"><title>Node8</title>
<g id="a_node8"><a xlink:href="classo2_1_1quality__control__modules_1_1mft_1_1BasicDigitQcTask.html" target="_top" xlink:title="Example Quality Control DPL Task It is final because there is no reason to derive from it...">
<polygon fill="none" stroke="black" points="150.5,-157.5 150.5,-187.5 314.5,-187.5 314.5,-157.5 150.5,-157.5"/>
<text text-anchor="start" x="158.5" y="-175.5" font-family="Helvetica,sans-Serif" font-size="10.00">o2::quality_control</text>
<text text-anchor="middle" x="232.5" y="-164.5" font-family="Helvetica,sans-Serif" font-size="10.00">_modules::mft::BasicDigitQcTask</text>
</a>
</g>
</g>
<!-- Node1&#45;&gt;Node8 -->
<g id="edge7" class="edge"><title>Node1&#45;&gt;Node8</title>
<path fill="none" stroke="midnightblue" d="M88.0205,-225.033C104.218,-215.743 124.186,-205.149 143,-197.5 152.022,-193.832 161.769,-190.493 171.384,-187.534"/>
<polygon fill="midnightblue" stroke="midnightblue" points="85.831,-222.258 78.9564,-230.32 89.3578,-228.305 85.831,-222.258"/>
</g>
<!-- Node9 -->
<g id="node9" class="node"><title>Node9</title>
<g id="a_node9"><a xlink:href="classo2_1_1quality__control__modules_1_1skeleton_1_1SkeletonTask.html" target="_top" xlink:title="Example Quality Control DPL Task It is final because there is no reason to derive from it...">
<polygon fill="none" stroke="black" points="179,-98 179,-139 286,-139 286,-98 179,-98"/>
<text text-anchor="start" x="187" y="-127" font-family="Helvetica,sans-Serif" font-size="10.00">o2::quality_control</text>
<text text-anchor="start" x="187" y="-116" font-family="Helvetica,sans-Serif" font-size="10.00">_modules::skeleton::</text>
<text text-anchor="middle" x="232.5" y="-105" font-family="Helvetica,sans-Serif" font-size="10.00">SkeletonTask</text>
</a>
</g>
</g>
<!-- Node1&#45;&gt;Node9 -->
<g id="edge8" class="edge"><title>Node1&#45;&gt;Node9</title>
<path fill="none" stroke="midnightblue" d="M70.6993,-221.755C86.7318,-199.904 113.149,-168.015 143,-148.5 153.863,-141.398 166.58,-135.805 178.93,-131.472"/>
<polygon fill="midnightblue" stroke="midnightblue" points="67.6593,-219.988 64.6821,-230.156 73.3503,-224.064 67.6593,-219.988"/>
</g>
<!-- Node10 -->
<g id="node10" class="node"><title>Node10</title>
<g id="a_node10"><a xlink:href="classo2_1_1quality__control__modules_1_1tof_1_1TOFTask.html" target="_top" xlink:title="TOF Quality Control DPL Task. ">
<polygon fill="none" stroke="black" points="171,-49.5 171,-79.5 294,-79.5 294,-49.5 171,-49.5"/>
<text text-anchor="start" x="179" y="-67.5" font-family="Helvetica,sans-Serif" font-size="10.00">o2::quality_control</text>
<text text-anchor="middle" x="232.5" y="-56.5" font-family="Helvetica,sans-Serif" font-size="10.00">_modules::tof::TOFTask</text>
</a>
</g>
</g>
<!-- Node1&#45;&gt;Node10 -->
<g id="edge9" class="edge"><title>Node1&#45;&gt;Node10</title>
<path fill="none" stroke="midnightblue" d="M61.7955,-220.493C73.2737,-185.616 98.91,-122.8 143,-88.5 151.167,-82.1462 160.893,-77.4717 170.858,-74.0333"/>
<polygon fill="midnightblue" stroke="midnightblue" points="58.3544,-219.768 58.6831,-230.357 65.0299,-221.874 58.3544,-219.768"/>
</g>
<!-- Node11 -->
<g id="node11" class="node"><title>Node11</title>
<g id="a_node11"><a xlink:href="classo2_1_1quality__control__modules_1_1tpc_1_1PID.html" target="_top" xlink:title="Example Quality Control DPL Task It is final because there is no reason to derive from it...">
<polygon fill="none" stroke="black" points="182,-0.5 182,-30.5 283,-30.5 283,-0.5 182,-0.5"/>
<text text-anchor="start" x="190" y="-18.5" font-family="Helvetica,sans-Serif" font-size="10.00">o2::quality_control</text>
<text text-anchor="middle" x="232.5" y="-7.5" font-family="Helvetica,sans-Serif" font-size="10.00">_modules::tpc::PID</text>
</a>
</g>
</g>
<!-- Node1&#45;&gt;Node11 -->
<g id="edge10" class="edge"><title>Node1&#45;&gt;Node11</title>
<path fill="none" stroke="midnightblue" d="M58.2456,-220.317C66.0233,-177.057 88.0225,-88.6495 143,-40.5 153.81,-31.0328 167.957,-25.1324 181.759,-21.4609"/>
<polygon fill="midnightblue" stroke="midnightblue" points="54.7755,-219.847 56.5633,-230.29 61.6779,-221.012 54.7755,-219.847"/>
</g>
</g>
</svg>
