<?xml version="1.0" encoding="UTF-8" standalone="no"?>
<!DOCTYPE svg PUBLIC "-//W3C//DTD SVG 1.1//EN"
 "http://www.w3.org/Graphics/SVG/1.1/DTD/svg11.dtd">
<!-- Generated by graphviz version 2.38.0 (20140413.2041)
 -->
<!-- Title: Graphical Class Hierarchy Pages: 1 -->
<svg width="351pt" height="610pt"
 viewBox="0.00 0.00 351.00 609.50" xmlns="http://www.w3.org/2000/svg" xmlns:xlink="http://www.w3.org/1999/xlink">
<g id="graph0" class="graph" transform="scale(1 1) rotate(0) translate(4 605.5)">
<title>Graphical Class Hierarchy</title>
<!-- Node1 -->
<g id="node1" class="node"><title>Node1</title>
<g id="a_node1"><a xlink:href="classo2_1_1quality__control_1_1checker_1_1CheckInterface.html" target="_top" xlink:title="Skeleton of a check. ">
<polygon fill="none" stroke="black" points="0,-289 0,-319 130,-319 130,-289 0,-289"/>
<text text-anchor="start" x="8" y="-307" font-family="Helvetica,sans-Serif" font-size="10.00">o2::quality_control</text>
<text text-anchor="middle" x="65" y="-296" font-family="Helvetica,sans-Serif" font-size="10.00">::checker::CheckInterface</text>
</a>
</g>
</g>
<!-- Node2 -->
<g id="node2" class="node"><title>Node2</title>
<g id="a_node2"><a xlink:href="classo2_1_1quality__control_1_1test_1_1TestCheck.html" target="_top" xlink:title="o2::quality_control\l::test::TestCheck">
<polygon fill="none" stroke="black" points="206.5,-571 206.5,-601 302.5,-601 302.5,-571 206.5,-571"/>
<text text-anchor="start" x="214.5" y="-589" font-family="Helvetica,sans-Serif" font-size="10.00">o2::quality_control</text>
<text text-anchor="middle" x="254.5" y="-578" font-family="Helvetica,sans-Serif" font-size="10.00">::test::TestCheck</text>
</a>
</g>
</g>
<!-- Node1&#45;&gt;Node2 -->
<g id="edge1" class="edge"><title>Node1&#45;&gt;Node2</title>
<path fill="none" stroke="midnightblue" d="M68.3769,-329.389C74.5979,-381.057 96.0731,-498.869 166,-562 177.107,-572.028 192.021,-577.918 206.386,-581.361"/>
<polygon fill="midnightblue" stroke="midnightblue" points="71.8205,-328.685 67.2408,-319.131 64.8631,-329.456 71.8205,-328.685"/>
</g>
<!-- Node3 -->
<g id="node3" class="node"><title>Node3</title>
<g id="a_node3"><a xlink:href="classo2_1_1quality__control__modules_1_1common_1_1MeanIsAbove.html" target="_top" xlink:title="Check whether the mean of the plot is above a certain limit. ">
<polygon fill="none" stroke="black" points="170.5,-522 170.5,-552 338.5,-552 338.5,-522 170.5,-522"/>
<text text-anchor="start" x="178.5" y="-540" font-family="Helvetica,sans-Serif" font-size="10.00">o2::quality_control</text>
<text text-anchor="middle" x="254.5" y="-529" font-family="Helvetica,sans-Serif" font-size="10.00">_modules::common::MeanIsAbove</text>
</a>
</g>
</g>
<!-- Node1&#45;&gt;Node3 -->
<g id="edge2" class="edge"><title>Node1&#45;&gt;Node3</title>
<path fill="none" stroke="midnightblue" d="M70.843,-328.846C80.7201,-372.752 107.402,-464.032 166,-513 170.11,-516.434 174.671,-519.38 179.492,-521.905"/>
<polygon fill="midnightblue" stroke="midnightblue" points="74.2513,-328.047 68.7341,-319.002 67.4066,-329.514 74.2513,-328.047"/>
</g>
<!-- Node4 -->
<g id="node4" class="node"><title>Node4</title>
<g id="a_node4"><a xlink:href="classo2_1_1quality__control__modules_1_1common_1_1NonEmpty.html" target="_top" xlink:title="Check whether a plot is empty or not. ">
<polygon fill="none" stroke="black" points="177,-473 177,-503 332,-503 332,-473 177,-473"/>
<text text-anchor="start" x="185" y="-491" font-family="Helvetica,sans-Serif" font-size="10.00">o2::quality_control</text>
<text text-anchor="middle" x="254.5" y="-480" font-family="Helvetica,sans-Serif" font-size="10.00">_modules::common::NonEmpty</text>
</a>
</g>
</g>
<!-- Node1&#45;&gt;Node4 -->
<g id="edge3" class="edge"><title>Node1&#45;&gt;Node4</title>
<path fill="none" stroke="midnightblue" d="M74.8637,-329.036C88.715,-364.496 118.888,-428.927 166,-464 170.549,-467.386 175.548,-470.295 180.782,-472.793"/>
<polygon fill="midnightblue" stroke="midnightblue" points="78.0461,-327.556 71.2383,-319.438 71.4977,-330.03 78.0461,-327.556"/>
</g>
<!-- Node5 -->
<g id="node5" class="node"><title>Node5</title>
<g id="a_node5"><a xlink:href="classo2_1_1quality__control__modules_1_1daq_1_1EverIncreasingGraph.html" target="_top" xlink:title="Check whether a plot is empty or not. ">
<polygon fill="none" stroke="black" points="178.5,-413.5 178.5,-454.5 330.5,-454.5 330.5,-413.5 178.5,-413.5"/>
<text text-anchor="start" x="186.5" y="-442.5" font-family="Helvetica,sans-Serif" font-size="10.00">o2::quality_control</text>
<text text-anchor="start" x="186.5" y="-431.5" font-family="Helvetica,sans-Serif" font-size="10.00">_modules::daq::EverIncreasing</text>
<text text-anchor="middle" x="254.5" y="-420.5" font-family="Helvetica,sans-Serif" font-size="10.00">Graph</text>
</a>
</g>
</g>
<!-- Node1&#45;&gt;Node5 -->
<g id="edge4" class="edge"><title>Node1&#45;&gt;Node5</title>
<path fill="none" stroke="midnightblue" d="M83.6207,-327.344C101.925,-350.106 132.532,-384.24 166,-405 171.032,-408.121 176.437,-410.946 182.003,-413.495"/>
<polygon fill="midnightblue" stroke="midnightblue" points="86.1654,-324.919 77.2277,-319.229 80.6667,-329.25 86.1654,-324.919"/>
</g>
<!-- Node6 -->
<g id="node6" class="node"><title>Node6</title>
<g id="a_node6"><a xlink:href="classo2_1_1quality__control__modules_1_1emcal_1_1DigitCheck.html" target="_top" xlink:title="Check whether a plot is empty or not. ">
<polygon fill="none" stroke="black" points="181.5,-365 181.5,-395 327.5,-395 327.5,-365 181.5,-365"/>
<text text-anchor="start" x="189.5" y="-383" font-family="Helvetica,sans-Serif" font-size="10.00">o2::quality_control</text>
<text text-anchor="middle" x="254.5" y="-372" font-family="Helvetica,sans-Serif" font-size="10.00">_modules::emcal::DigitCheck</text>
</a>
</g>
</g>
<!-- Node1&#45;&gt;Node6 -->
<g id="edge5" class="edge"><title>Node1&#45;&gt;Node6</title>
<path fill="none" stroke="midnightblue" d="M100.046,-324C119.004,-334.544 143.298,-347.1 166,-356 174.359,-359.277 183.334,-362.285 192.236,-364.98"/>
<polygon fill="midnightblue" stroke="midnightblue" points="101.628,-320.874 91.1985,-319.01 98.1894,-326.971 101.628,-320.874"/>
</g>
<!-- Node7 -->
<g id="node7" class="node"><title>Node7</title>
<g id="a_node7"><a xlink:href="classo2_1_1quality__control__modules_1_1example_1_1FakeCheck.html" target="_top" xlink:title="Check whether a plot is empty or not. ">
<polygon fill="none" stroke="black" points="175.5,-316 175.5,-346 333.5,-346 333.5,-316 175.5,-316"/>
<text text-anchor="start" x="183.5" y="-334" font-family="Helvetica,sans-Serif" font-size="10.00">o2::quality_control</text>
<text text-anchor="middle" x="254.5" y="-323" font-family="Helvetica,sans-Serif" font-size="10.00">_modules::example::FakeCheck</text>
</a>
</g>
</g>
<!-- Node1&#45;&gt;Node7 -->
<g id="edge6" class="edge"><title>Node1&#45;&gt;Node7</title>
<path fill="none" stroke="midnightblue" d="M140.026,-314.66C151.577,-316.323 163.545,-318.047 175.187,-319.723"/>
<polygon fill="midnightblue" stroke="midnightblue" points="140.399,-311.177 130.002,-313.216 139.401,-318.106 140.399,-311.177"/>
</g>
<!-- Node8 -->
<g id="node8" class="node"><title>Node8</title>
<g id="a_node8"><a xlink:href="classo2_1_1quality__control__modules_1_1mft_1_1BasicDigitQcCheck.html" target="_top" xlink:title="Check whether a plot is empty or not. ">
<polygon fill="none" stroke="black" points="183,-256.5 183,-297.5 326,-297.5 326,-256.5 183,-256.5"/>
<text text-anchor="start" x="191" y="-285.5" font-family="Helvetica,sans-Serif" font-size="10.00">o2::quality_control</text>
<text text-anchor="start" x="191" y="-274.5" font-family="Helvetica,sans-Serif" font-size="10.00">_modules::mft::BasicDigitQc</text>
<text text-anchor="middle" x="254.5" y="-263.5" font-family="Helvetica,sans-Serif" font-size="10.00">Check</text>
</a>
</g>
</g>
<!-- Node1&#45;&gt;Node8 -->
<g id="edge7" class="edge"><title>Node1&#45;&gt;Node8</title>
<path fill="none" stroke="midnightblue" d="M140.095,-293.33C154.132,-291.309 168.784,-289.199 182.715,-287.193"/>
<polygon fill="midnightblue" stroke="midnightblue" points="139.401,-289.894 130.002,-294.784 140.399,-296.823 139.401,-289.894"/>
</g>
<!-- Node9 -->
<g id="node9" class="node"><title>Node9</title>
<g id="a_node9"><a xlink:href="classo2_1_1quality__control__modules_1_1skeleton_1_1SkeletonCheck.html" target="_top" xlink:title="Check whether a plot is empty or not. ">
<polygon fill="none" stroke="black" points="201,-196.5 201,-237.5 308,-237.5 308,-196.5 201,-196.5"/>
<text text-anchor="start" x="209" y="-225.5" font-family="Helvetica,sans-Serif" font-size="10.00">o2::quality_control</text>
<text text-anchor="start" x="209" y="-214.5" font-family="Helvetica,sans-Serif" font-size="10.00">_modules::skeleton::</text>
<text text-anchor="middle" x="254.5" y="-203.5" font-family="Helvetica,sans-Serif" font-size="10.00">SkeletonCheck</text>
</a>
</g>
</g>
<!-- Node1&#45;&gt;Node9 -->
<g id="edge8" class="edge"><title>Node1&#45;&gt;Node9</title>
<path fill="none" stroke="midnightblue" d="M98.234,-283.567C117.442,-271.918 142.574,-257.579 166,-247 176.977,-242.043 189.032,-237.415 200.592,-233.35"/>
<polygon fill="midnightblue" stroke="midnightblue" points="96.2774,-280.661 89.5837,-288.873 99.9378,-286.628 96.2774,-280.661"/>
</g>
<!-- Node10 -->
<g id="node10" class="node"><title>Node10</title>
<g id="a_node10"><a xlink:href="classo2_1_1quality__control__modules_1_1tof_1_1TOFCheckRawsMulti.html" target="_top" xlink:title="Check whether a plot is empty or not. ">
<polygon fill="none" stroke="black" points="177,-136.5 177,-177.5 332,-177.5 332,-136.5 177,-136.5"/>
<text text-anchor="start" x="185" y="-165.5" font-family="Helvetica,sans-Serif" font-size="10.00">o2::quality_control</text>
<text text-anchor="start" x="185" y="-154.5" font-family="Helvetica,sans-Serif" font-size="10.00">_modules::tof::TOFCheckRaws</text>
<text text-anchor="middle" x="254.5" y="-143.5" font-family="Helvetica,sans-Serif" font-size="10.00">Multi</text>
</a>
</g>
</g>
<!-- Node1&#45;&gt;Node10 -->
<g id="edge9" class="edge"><title>Node1&#45;&gt;Node10</title>
<path fill="none" stroke="midnightblue" d="M80.6659,-280.212C98.0146,-253.919 129.23,-211.991 166,-187 171.18,-183.479 176.812,-180.335 182.639,-177.535"/>
<polygon fill="midnightblue" stroke="midnightblue" points="77.6013,-278.506 75.1214,-288.807 83.4835,-282.301 77.6013,-278.506"/>
</g>
<!-- Node11 -->
<g id="node11" class="node"><title>Node11</title>
<g id="a_node11"><a xlink:href="classo2_1_1quality__control__modules_1_1tof_1_1TOFCheckRawsTime.html" target="_top" xlink:title="Check whether a plot is empty or not. ">
<polygon fill="none" stroke="black" points="166,-88 166,-118 343,-118 343,-88 166,-88"/>
<text text-anchor="start" x="174" y="-106" font-family="Helvetica,sans-Serif" font-size="10.00">o2::quality_control</text>
<text text-anchor="middle" x="254.5" y="-95" font-family="Helvetica,sans-Serif" font-size="10.00">_modules::tof::TOFCheckRawsTime</text>
</a>
</g>
</g>
<!-- Node1&#45;&gt;Node11 -->
<g id="edge10" class="edge"><title>Node1&#45;&gt;Node11</title>
<path fill="none" stroke="midnightblue" d="M73.275,-278.887C85.7618,-240.31 114.984,-166.767 166,-127 170.348,-123.611 175.143,-120.699 180.181,-118.199"/>
<polygon fill="midnightblue" stroke="midnightblue" points="69.8247,-278.196 70.1927,-288.784 76.5081,-280.277 69.8247,-278.196"/>
</g>
<!-- Node12 -->
<g id="node12" class="node"><title>Node12</title>
<g id="a_node12"><a xlink:href="classo2_1_1quality__control__modules_1_1tof_1_1TOFCheckRawsToT.html" target="_top" xlink:title="Check whether a plot is empty or not. ">
<polygon fill="none" stroke="black" points="168,-39 168,-69 341,-69 341,-39 168,-39"/>
<text text-anchor="start" x="176" y="-57" font-family="Helvetica,sans-Serif" font-size="10.00">o2::quality_control</text>
<text text-anchor="middle" x="254.5" y="-46" font-family="Helvetica,sans-Serif" font-size="10.00">_modules::tof::TOFCheckRawsToT</text>
</a>
</g>
</g>
<!-- Node1&#45;&gt;Node12 -->
<g id="edge11" class="edge"><title>Node1&#45;&gt;Node12</title>
<path fill="none" stroke="midnightblue" d="M70.0593,-278.674C78.8708,-232.104 104.167,-132.734 166,-79 170.412,-75.1656 175.377,-71.9174 180.642,-69.1659"/>
<polygon fill="midnightblue" stroke="midnightblue" points="66.5626,-278.345 68.2476,-288.805 73.4533,-279.578 66.5626,-278.345"/>
</g>
<!-- Node13 -->
<g id="node13" class="node"><title>Node13</title>
<g id="a_node13"><a xlink:href="classTestCheck.html" target="_top" xlink:title="TestCheck">
<polygon fill="none" stroke="black" points="222,-0.5 222,-19.5 287,-19.5 287,-0.5 222,-0.5"/>
<text text-anchor="middle" x="254.5" y="-7.5" font-family="Helvetica,sans-Serif" font-size="10.00">TestCheck</text>
</a>
</g>
</g>
<!-- Node1&#45;&gt;Node13 -->
<g id="edge12" class="edge"><title>Node1&#45;&gt;Node13</title>
<path fill="none" stroke="midnightblue" d="M67.4705,-278.669C72.0434,-224.394 90.6774,-96.4347 166,-30 181.193,-16.6001 203.519,-11.652 221.816,-10.0274"/>
<polygon fill="midnightblue" stroke="midnightblue" points="63.969,-278.559 66.7116,-288.793 70.9494,-279.083 63.969,-278.559"/>
</g>
</g>
</svg>
