<?xml version="1.0" encoding="UTF-8" standalone="no"?>
<!DOCTYPE svg PUBLIC "-//W3C//DTD SVG 1.1//EN"
 "http://www.w3.org/Graphics/SVG/1.1/DTD/svg11.dtd">
<!-- Generated by graphviz version 2.38.0 (20140413.2041)
 -->
<!-- Title: Framework/include/QualityControl/ObjectsManager.h Pages: 1 -->
<!--zoomable 240 -->
<svg id="main" version="1.1" xmlns="http://www.w3.org/2000/svg" xmlns:xlink="http://www.w3.org/1999/xlink" xml:space="preserve" onload="init(evt)">
<style type="text/css"><![CDATA[
.edge:hover path { stroke: red; }
.edge:hover polygon { stroke: red; fill: red; }
]]></style>
<script type="text/javascript"><![CDATA[
var edges = document.getElementsByTagName('g');
if (edges && edges.length) {
  for (var i=0;i<edges.length;i++) {
    if (edges[i].id.substr(0,4)=='edge') {
      edges[i].setAttribute('class','edge');
    }
  }
}
]]></script>
        <defs>
                <circle id="rim" cx="0" cy="0" r="7"/>
                <circle id="rim2" cx="0" cy="0" r="3.5"/>
                <g id="zoomPlus">
                        <use xlink:href="#rim" fill="#404040">
                                <set attributeName="fill" to="#808080" begin="zoomplus.mouseover" end="zoomplus.mouseout"/>
                        </use>
                        <path d="M-4,0h8M0,-4v8" fill="none" stroke="white" stroke-width="1.5" pointer-events="none"/>
                </g>
                <g id="zoomMin">
                        <use xlink:href="#rim" fill="#404040">
                                <set attributeName="fill" to="#808080" begin="zoomminus.mouseover" end="zoomminus.mouseout"/>
                        </use>
                        <path d="M-4,0h8" fill="none" stroke="white" stroke-width="1.5" pointer-events="none"/>
                </g>
                <g id="dirArrow">
                        <path fill="none" stroke="white" stroke-width="1.5" d="M0,-3.0v7 M-2.5,-0.5L0,-3.0L2.5,-0.5"/>
                </g>
               <g id="resetDef">
                       <use xlink:href="#rim2" fill="#404040">
                               <set attributeName="fill" to="#808080" begin="reset.mouseover" end="reset.mouseout"/>
                       </use>
               </g>
        </defs>

<script type="text/javascript">
var viewWidth = 4450;
var viewHeight = 240;
var sectionId = 'dynsection-1';
</script>
<script xlink:href="svgpan.js"/>
<svg id="graph" class="graph">
<g id="viewport">
<title>Framework/include/QualityControl/ObjectsManager.h</title>
<!-- Node1 -->
<g id="node1" class="node"><title>Node1</title>
<polygon fill="#bfbfbf" stroke="black" points="3373.5,-201.5 3373.5,-231.5 3506.5,-231.5 3506.5,-201.5 3373.5,-201.5"/>
<text text-anchor="start" x="3381.5" y="-219.5" font-family="Helvetica,sans-Serif" font-size="10.00">Framework/include/Quality</text>
<text text-anchor="middle" x="3440" y="-208.5" font-family="Helvetica,sans-Serif" font-size="10.00">Control/ObjectsManager.h</text>
</g>
<!-- Node2 -->
<g id="node2" class="node"><title>Node2</title>
<g id="a_node2"><a xlink:href="TaskInterface_8h.html" target="_top" xlink:title="Framework/include/Quality\lControl/TaskInterface.h">
<polygon fill="none" stroke="black" points="3201.5,-134.5 3201.5,-164.5 3334.5,-164.5 3334.5,-134.5 3201.5,-134.5"/>
<text text-anchor="start" x="3209.5" y="-152.5" font-family="Helvetica,sans-Serif" font-size="10.00">Framework/include/Quality</text>
<text text-anchor="middle" x="3268" y="-141.5" font-family="Helvetica,sans-Serif" font-size="10.00">Control/TaskInterface.h</text>
</a>
</g>
</g>
<!-- Node1&#45;&gt;Node2 -->
<g id="edge1" class="edge"><title>Node1&#45;&gt;Node2</title>
<path fill="none" stroke="midnightblue" d="M3393.21,-197.819C3365.57,-187.371 3331.04,-174.323 3305.25,-164.577"/>
<polygon fill="midnightblue" stroke="midnightblue" points="3392.09,-201.135 3402.68,-201.396 3394.56,-194.587 3392.09,-201.135"/>
</g>
<!-- Node8 -->
<g id="node8" class="node"><title>Node8</title>
<polygon fill="none" stroke="#bfbfbf" points="1381,-0.5 1381,-30.5 1495,-30.5 1495,-0.5 1381,-0.5"/>
<text text-anchor="start" x="1389" y="-18.5" font-family="Helvetica,sans-Serif" font-size="10.00">Modules/Example/test</text>
<text text-anchor="middle" x="1438" y="-7.5" font-family="Helvetica,sans-Serif" font-size="10.00">/testFactory.cxx</text>
</g>
<!-- Node1&#45;&gt;Node8 -->
<g id="edge51" class="edge"><title>Node1&#45;&gt;Node8</title>
<path fill="none" stroke="midnightblue" d="M3363.27,-214.996C3058.1,-212.32 1930.45,-195.875 1589,-98 1538.03,-83.3887 1484.94,-49.6943 1457.32,-30.5182"/>
<polygon fill="midnightblue" stroke="midnightblue" points="3363.32,-218.496 3373.35,-215.082 3363.38,-211.496 3363.32,-218.496"/>
</g>
<!-- Node44 -->
<g id="node44" class="node"><title>Node44</title>
<g id="a_node44"><a xlink:href="ObjectsManager_8cxx.html" target="_top" xlink:title="Framework/src/ObjectsManager.cxx">
<polygon fill="none" stroke="black" points="3352.5,-140 3352.5,-159 3527.5,-159 3527.5,-140 3352.5,-140"/>
<text text-anchor="middle" x="3440" y="-147" font-family="Helvetica,sans-Serif" font-size="10.00">Framework/src/ObjectsManager.cxx</text>
</a>
</g>
</g>
<!-- Node1&#45;&gt;Node44 -->
<g id="edge48" class="edge"><title>Node1&#45;&gt;Node44</title>
<path fill="none" stroke="midnightblue" d="M3440,-191.25C3440,-180.017 3440,-167.377 3440,-159.195"/>
<polygon fill="midnightblue" stroke="midnightblue" points="3436.5,-191.396 3440,-201.396 3443.5,-191.396 3436.5,-191.396"/>
</g>
<!-- Node45 -->
<g id="node45" class="node"><title>Node45</title>
<polygon fill="none" stroke="#bfbfbf" points="3546,-134.5 3546,-164.5 3684,-164.5 3684,-134.5 3546,-134.5"/>
<text text-anchor="start" x="3554" y="-152.5" font-family="Helvetica,sans-Serif" font-size="10.00">Framework/test/testObjects</text>
<text text-anchor="middle" x="3615" y="-141.5" font-family="Helvetica,sans-Serif" font-size="10.00">Manager.cxx</text>
</g>
<!-- Node1&#45;&gt;Node45 -->
<g id="edge49" class="edge"><title>Node1&#45;&gt;Node45</title>
<path fill="none" stroke="midnightblue" d="M3487.6,-197.819C3515.73,-187.371 3550.86,-174.323 3577.1,-164.577"/>
<polygon fill="midnightblue" stroke="midnightblue" points="3486.13,-194.633 3477.97,-201.396 3488.57,-201.195 3486.13,-194.633"/>
</g>
<!-- Node46 -->
<g id="node46" class="node"><title>Node46</title>
<g id="a_node46"><a xlink:href="testPublisher_8cxx.html" target="_top" xlink:title="Framework/test/testPublisher.cxx">
<polygon fill="none" stroke="black" points="3702,-140 3702,-159 3866,-159 3866,-140 3702,-140"/>
<text text-anchor="middle" x="3784" y="-147" font-family="Helvetica,sans-Serif" font-size="10.00">Framework/test/testPublisher.cxx</text>
</a>
</g>
</g>
<!-- Node1&#45;&gt;Node46 -->
<g id="edge50" class="edge"><title>Node1&#45;&gt;Node46</title>
<path fill="none" stroke="midnightblue" d="M3516.58,-201.03C3584.81,-188.137 3682.35,-169.707 3738.83,-159.035"/>
<polygon fill="midnightblue" stroke="midnightblue" points="3515.91,-197.594 3506.73,-202.89 3517.21,-204.473 3515.91,-197.594"/>
</g>
<!-- Node3 -->
<g id="node3" class="node"><title>Node3</title>
<g id="a_node3"><a xlink:href="TaskFactory_8h.html" target="_top" xlink:title="Framework/include/Quality\lControl/TaskFactory.h">
<polygon fill="none" stroke="black" points="2018.5,-67.5 2018.5,-97.5 2151.5,-97.5 2151.5,-67.5 2018.5,-67.5"/>
<text text-anchor="start" x="2026.5" y="-85.5" font-family="Helvetica,sans-Serif" font-size="10.00">Framework/include/Quality</text>
<text text-anchor="middle" x="2085" y="-74.5" font-family="Helvetica,sans-Serif" font-size="10.00">Control/TaskFactory.h</text>
</a>
</g>
</g>
<!-- Node2&#45;&gt;Node3 -->
<g id="edge2" class="edge"><title>Node2&#45;&gt;Node3</title>
<path fill="none" stroke="midnightblue" d="M3191.39,-144.291C2974.08,-132.351 2356.26,-98.4044 2151.7,-87.1646"/>
<polygon fill="midnightblue" stroke="midnightblue" points="3191.26,-147.789 3201.44,-144.843 3191.64,-140.799 3191.26,-147.789"/>
</g>
<!-- Node6 -->
<g id="node6" class="node"><title>Node6</title>
<g id="a_node6"><a xlink:href="testTaskInterface_8cxx.html" target="_top" xlink:title="Framework/test/testTaskInterface.cxx">
<polygon fill="none" stroke="black" points="1179.5,-6 1179.5,-25 1362.5,-25 1362.5,-6 1179.5,-6"/>
<text text-anchor="middle" x="1271" y="-13" font-family="Helvetica,sans-Serif" font-size="10.00">Framework/test/testTaskInterface.cxx</text>
</a>
</g>
</g>
<!-- Node2&#45;&gt;Node6 -->
<g id="edge23" class="edge"><title>Node2&#45;&gt;Node6</title>
<path fill="none" stroke="midnightblue" d="M3190.97,-148.439C2905,-147.86 1904.53,-142.62 1589,-98 1478.11,-82.3194 1350.1,-42.6931 1296.58,-25.1201"/>
<polygon fill="midnightblue" stroke="midnightblue" points="3191.24,-151.939 3201.24,-148.458 3191.25,-144.939 3191.24,-151.939"/>
</g>
<!-- Node15 -->
<g id="node15" class="node"><title>Node15</title>
<g id="a_node15"><a xlink:href="TaskRunner_8h.html" target="_top" xlink:title="Framework/include/Quality\lControl/TaskRunner.h">
<polygon fill="none" stroke="black" points="577.5,-67.5 577.5,-97.5 710.5,-97.5 710.5,-67.5 577.5,-67.5"/>
<text text-anchor="start" x="585.5" y="-85.5" font-family="Helvetica,sans-Serif" font-size="10.00">Framework/include/Quality</text>
<text text-anchor="middle" x="644" y="-74.5" font-family="Helvetica,sans-Serif" font-size="10.00">Control/TaskRunner.h</text>
</a>
</g>
</g>
<!-- Node2&#45;&gt;Node15 -->
<g id="edge14" class="edge"><title>Node2&#45;&gt;Node15</title>
<path fill="none" stroke="midnightblue" d="M3191.25,-146.599C2804.43,-137.017 1072.77,-94.1212 710.559,-85.1488"/>
<polygon fill="midnightblue" stroke="midnightblue" points="3191.41,-150.104 3201.49,-146.853 3191.58,-143.106 3191.41,-150.104"/>
</g>
<!-- Node22 -->
<g id="node22" class="node"><title>Node22</title>
<g id="a_node22"><a xlink:href="TaskInterface_8cxx.html" target="_top" xlink:title="Framework/src/TaskInterface.cxx">
<polygon fill="none" stroke="black" points="3032,-73 3032,-92 3196,-92 3196,-73 3032,-73"/>
<text text-anchor="middle" x="3114" y="-80" font-family="Helvetica,sans-Serif" font-size="10.00">Framework/src/TaskInterface.cxx</text>
</a>
</g>
</g>
<!-- Node2&#45;&gt;Node22 -->
<g id="edge22" class="edge"><title>Node2&#45;&gt;Node22</title>
<path fill="none" stroke="midnightblue" d="M3225.26,-130.458C3195.5,-117.9 3157.18,-101.724 3134.16,-92.007"/>
<polygon fill="midnightblue" stroke="midnightblue" points="3224.01,-133.732 3234.58,-134.396 3226.73,-127.283 3224.01,-133.732"/>
</g>
<!-- Node23 -->
<g id="node23" class="node"><title>Node23</title>
<g id="a_node23"><a xlink:href="DaqTask_8h.html" target="_top" xlink:title="Modules/Daq/include\l/Daq/DaqTask.h">
<polygon fill="none" stroke="black" points="3214,-67.5 3214,-97.5 3322,-97.5 3322,-67.5 3214,-67.5"/>
<text text-anchor="start" x="3222" y="-85.5" font-family="Helvetica,sans-Serif" font-size="10.00">Modules/Daq/include</text>
<text text-anchor="middle" x="3268" y="-74.5" font-family="Helvetica,sans-Serif" font-size="10.00">/Daq/DaqTask.h</text>
</a>
</g>
</g>
<!-- Node2&#45;&gt;Node23 -->
<g id="edge24" class="edge"><title>Node2&#45;&gt;Node23</title>
<path fill="none" stroke="midnightblue" d="M3268,-124.108C3268,-115.154 3268,-105.323 3268,-97.5765"/>
<polygon fill="midnightblue" stroke="midnightblue" points="3264.5,-124.396 3268,-134.396 3271.5,-124.396 3264.5,-124.396"/>
</g>
<!-- Node26 -->
<g id="node26" class="node"><title>Node26</title>
<g id="a_node26"><a xlink:href="DigitsQcTask_8h.html" target="_top" xlink:title="Modules/EMCAL/include\l/EMCAL/DigitsQcTask.h">
<polygon fill="none" stroke="black" points="3341.5,-67.5 3341.5,-97.5 3466.5,-97.5 3466.5,-67.5 3341.5,-67.5"/>
<text text-anchor="start" x="3349.5" y="-85.5" font-family="Helvetica,sans-Serif" font-size="10.00">Modules/EMCAL/include</text>
<text text-anchor="middle" x="3404" y="-74.5" font-family="Helvetica,sans-Serif" font-size="10.00">/EMCAL/DigitsQcTask.h</text>
</a>
</g>
</g>
<!-- Node2&#45;&gt;Node26 -->
<g id="edge27" class="edge"><title>Node2&#45;&gt;Node26</title>
<path fill="none" stroke="midnightblue" d="M3306.72,-129.992C3328.28,-119.689 3354.69,-107.068 3374.55,-97.5765"/>
<polygon fill="midnightblue" stroke="midnightblue" points="3305.02,-126.926 3297.51,-134.396 3308.04,-133.242 3305.02,-126.926"/>
</g>
<!-- Node28 -->
<g id="node28" class="node"><title>Node28</title>
<g id="a_node28"><a xlink:href="RawTask_8h.html" target="_top" xlink:title="Modules/EMCAL/include\l/EMCAL/RawTask.h">
<polygon fill="none" stroke="black" points="3485.5,-67.5 3485.5,-97.5 3610.5,-97.5 3610.5,-67.5 3485.5,-67.5"/>
<text text-anchor="start" x="3493.5" y="-85.5" font-family="Helvetica,sans-Serif" font-size="10.00">Modules/EMCAL/include</text>
<text text-anchor="middle" x="3548" y="-74.5" font-family="Helvetica,sans-Serif" font-size="10.00">/EMCAL/RawTask.h</text>
</a>
</g>
</g>
<!-- Node2&#45;&gt;Node28 -->
<g id="edge29" class="edge"><title>Node2&#45;&gt;Node28</title>
<path fill="none" stroke="midnightblue" d="M3338.28,-132.186C3384.13,-121.54 3443.39,-107.784 3487.21,-97.6109"/>
<polygon fill="midnightblue" stroke="midnightblue" points="3337.36,-128.805 3328.41,-134.476 3338.94,-135.624 3337.36,-128.805"/>
</g>
<!-- Node30 -->
<g id="node30" class="node"><title>Node30</title>
<g id="a_node30"><a xlink:href="BenchmarkTask_8h.html" target="_top" xlink:title="Modules/Example/include\l/Example/BenchmarkTask.h">
<polygon fill="none" stroke="black" points="3632,-67.5 3632,-97.5 3772,-97.5 3772,-67.5 3632,-67.5"/>
<text text-anchor="start" x="3640" y="-85.5" font-family="Helvetica,sans-Serif" font-size="10.00">Modules/Example/include</text>
<text text-anchor="middle" x="3702" y="-74.5" font-family="Helvetica,sans-Serif" font-size="10.00">/Example/BenchmarkTask.h</text>
</a>
</g>
</g>
<!-- Node2&#45;&gt;Node30 -->
<g id="edge31" class="edge"><title>Node2&#45;&gt;Node30</title>
<path fill="none" stroke="midnightblue" d="M3344.74,-133.776C3466.85,-114.362 3499.93,-116.157 3619,-98 3623.19,-97.3605 3627.5,-96.6798 3631.85,-95.9755"/>
<polygon fill="midnightblue" stroke="midnightblue" points="3343.94,-130.36 3334.62,-135.401 3345.05,-137.271 3343.94,-130.36"/>
</g>
<!-- Node32 -->
<g id="node32" class="node"><title>Node32</title>
<g id="a_node32"><a xlink:href="ExampleCondition_8h.html" target="_top" xlink:title="Modules/Example/include\l/Example/ExampleCondition.h">
<polygon fill="none" stroke="black" points="3796.5,-67.5 3796.5,-97.5 3945.5,-97.5 3945.5,-67.5 3796.5,-67.5"/>
<text text-anchor="start" x="3804.5" y="-85.5" font-family="Helvetica,sans-Serif" font-size="10.00">Modules/Example/include</text>
<text text-anchor="middle" x="3871" y="-74.5" font-family="Helvetica,sans-Serif" font-size="10.00">/Example/ExampleCondition.h</text>
</a>
</g>
</g>
<!-- Node2&#45;&gt;Node32 -->
<g id="edge33" class="edge"><title>Node2&#45;&gt;Node32</title>
<path fill="none" stroke="midnightblue" d="M3344.53,-133.884C3538.23,-107.881 3590.32,-121.161 3781,-98 3786.03,-97.3893 3791.2,-96.7048 3796.41,-95.9743"/>
<polygon fill="midnightblue" stroke="midnightblue" points="3344.03,-130.419 3334.59,-135.235 3344.97,-137.355 3344.03,-130.419"/>
</g>
<!-- Node34 -->
<g id="node34" class="node"><title>Node34</title>
<g id="a_node34"><a xlink:href="ExampleTask_8h.html" target="_top" xlink:title="Modules/Example/include\l/Example/ExampleTask.h">
<polygon fill="none" stroke="black" points="1598.5,-67.5 1598.5,-97.5 1727.5,-97.5 1727.5,-67.5 1598.5,-67.5"/>
<text text-anchor="start" x="1606.5" y="-85.5" font-family="Helvetica,sans-Serif" font-size="10.00">Modules/Example/include</text>
<text text-anchor="middle" x="1663" y="-74.5" font-family="Helvetica,sans-Serif" font-size="10.00">/Example/ExampleTask.h</text>
</a>
</g>
</g>
<!-- Node2&#45;&gt;Node34 -->
<g id="edge35" class="edge"><title>Node2&#45;&gt;Node34</title>
<path fill="none" stroke="midnightblue" d="M3191.23,-145.469C2994.64,-137.696 2456.97,-116.371 2009,-98 1910.93,-93.9783 1797.24,-89.1894 1727.72,-86.2471"/>
<polygon fill="midnightblue" stroke="midnightblue" points="3191.33,-148.975 3201.46,-145.873 3191.6,-141.981 3191.33,-148.975"/>
</g>
<!-- Node36 -->
<g id="node36" class="node"><title>Node36</title>
<g id="a_node36"><a xlink:href="BasicDigitQcTask_8h.html" target="_top" xlink:title="Modules/MFT/include\l/MFT/BasicDigitQcTask.h">
<polygon fill="none" stroke="black" points="3974.5,-67.5 3974.5,-97.5 4105.5,-97.5 4105.5,-67.5 3974.5,-67.5"/>
<text text-anchor="start" x="3982.5" y="-85.5" font-family="Helvetica,sans-Serif" font-size="10.00">Modules/MFT/include</text>
<text text-anchor="middle" x="4040" y="-74.5" font-family="Helvetica,sans-Serif" font-size="10.00">/MFT/BasicDigitQcTask.h</text>
</a>
</g>
</g>
<!-- Node2&#45;&gt;Node36 -->
<g id="edge39" class="edge"><title>Node2&#45;&gt;Node36</title>
<path fill="none" stroke="midnightblue" d="M3344.68,-133.899C3614.67,-100.796 3687.01,-128.284 3954,-98 3960.62,-97.2492 3967.5,-96.3281 3974.37,-95.3174"/>
<polygon fill="midnightblue" stroke="midnightblue" points="3344.08,-130.447 3334.58,-135.154 3344.94,-137.394 3344.08,-130.447"/>
</g>
<!-- Node38 -->
<g id="node38" class="node"><title>Node38</title>
<g id="a_node38"><a xlink:href="SkeletonTask_8h.html" target="_top" xlink:title="Modules/Skeleton/include\l/Skeleton/SkeletonTask.h">
<polygon fill="none" stroke="black" points="2877.5,-67.5 2877.5,-97.5 3006.5,-97.5 3006.5,-67.5 2877.5,-67.5"/>
<text text-anchor="start" x="2885.5" y="-85.5" font-family="Helvetica,sans-Serif" font-size="10.00">Modules/Skeleton/include</text>
<text text-anchor="middle" x="2942" y="-74.5" font-family="Helvetica,sans-Serif" font-size="10.00">/Skeleton/SkeletonTask.h</text>
</a>
</g>
</g>
<!-- Node2&#45;&gt;Node38 -->
<g id="edge41" class="edge"><title>Node2&#45;&gt;Node38</title>
<path fill="none" stroke="midnightblue" d="M3191.35,-133.216C3135.2,-122.022 3059.85,-106.998 3006.72,-96.4049"/>
<polygon fill="midnightblue" stroke="midnightblue" points="3190.75,-136.666 3201.24,-135.189 3192.12,-129.802 3190.75,-136.666"/>
</g>
<!-- Node40 -->
<g id="node40" class="node"><title>Node40</title>
<g id="a_node40"><a xlink:href="TOFTask_8h.html" target="_top" xlink:title="Modules/TOF/include\l/TOF/TOFTask.h">
<polygon fill="none" stroke="black" points="4147,-67.5 4147,-97.5 4257,-97.5 4257,-67.5 4147,-67.5"/>
<text text-anchor="start" x="4155" y="-85.5" font-family="Helvetica,sans-Serif" font-size="10.00">Modules/TOF/include</text>
<text text-anchor="middle" x="4202" y="-74.5" font-family="Helvetica,sans-Serif" font-size="10.00">/TOF/TOFTask.h</text>
</a>
</g>
</g>
<!-- Node2&#45;&gt;Node40 -->
<g id="edge44" class="edge"><title>Node2&#45;&gt;Node40</title>
<path fill="none" stroke="midnightblue" d="M3344.73,-133.911C3685.39,-94.1224 3776.18,-133.596 4114,-98 4124.62,-96.8805 4135.92,-95.311 4146.74,-93.6156"/>
<polygon fill="midnightblue" stroke="midnightblue" points="3344.1,-130.461 3334.58,-135.111 3344.92,-137.413 3344.1,-130.461"/>
</g>
<!-- Node42 -->
<g id="node42" class="node"><title>Node42</title>
<g id="a_node42"><a xlink:href="PID_8h.html" target="_top" xlink:title="Modules/TPC/include\l/TPC/PID.h">
<polygon fill="none" stroke="black" points="4320,-67.5 4320,-97.5 4430,-97.5 4430,-67.5 4320,-67.5"/>
<text text-anchor="start" x="4328" y="-85.5" font-family="Helvetica,sans-Serif" font-size="10.00">Modules/TPC/include</text>
<text text-anchor="middle" x="4375" y="-74.5" font-family="Helvetica,sans-Serif" font-size="10.00">/TPC/PID.h</text>
</a>
</g>
</g>
<!-- Node2&#45;&gt;Node42 -->
<g id="edge46" class="edge"><title>Node2&#45;&gt;Node42</title>
<path fill="none" stroke="midnightblue" d="M3344.58,-133.938C3752.55,-87.6398 3860.27,-132.823 4266,-98 4283.59,-96.49 4302.7,-94.1781 4319.94,-91.8409"/>
<polygon fill="midnightblue" stroke="midnightblue" points="3344.11,-130.468 3334.57,-135.084 3344.91,-137.423 3344.11,-130.468"/>
</g>
<!-- Node4 -->
<g id="node4" class="node"><title>Node4</title>
<g id="a_node4"><a xlink:href="TaskFactory_8cxx.html" target="_top" xlink:title="Framework/src/TaskFactory.cxx">
<polygon fill="none" stroke="black" points="1775,-6 1775,-25 1933,-25 1933,-6 1775,-6"/>
<text text-anchor="middle" x="1854" y="-13" font-family="Helvetica,sans-Serif" font-size="10.00">Framework/src/TaskFactory.cxx</text>
</a>
</g>
</g>
<!-- Node3&#45;&gt;Node4 -->
<g id="edge3" class="edge"><title>Node3&#45;&gt;Node4</title>
<path fill="none" stroke="midnightblue" d="M2025.47,-64.7505C1980.3,-52.038 1920.05,-35.0851 1884.31,-25.0287"/>
<polygon fill="midnightblue" stroke="midnightblue" points="2024.59,-68.1364 2035.16,-67.476 2026.48,-61.3981 2024.59,-68.1364"/>
</g>
<!-- Node5 -->
<g id="node5" class="node"><title>Node5</title>
<g id="a_node5"><a xlink:href="TaskRunner_8cxx.html" target="_top" xlink:title="Framework/src/TaskRunner.cxx">
<polygon fill="none" stroke="black" points="1004.5,-6 1004.5,-25 1161.5,-25 1161.5,-6 1004.5,-6"/>
<text text-anchor="middle" x="1083" y="-13" font-family="Helvetica,sans-Serif" font-size="10.00">Framework/src/TaskRunner.cxx</text>
</a>
</g>
</g>
<!-- Node3&#45;&gt;Node5 -->
<g id="edge4" class="edge"><title>Node3&#45;&gt;Node5</title>
<path fill="none" stroke="midnightblue" d="M2008.06,-78.3463C1818.3,-70.3913 1331.58,-48.8694 1170,-31 1156.45,-29.502 1141.81,-27.293 1128.47,-25.0485"/>
<polygon fill="midnightblue" stroke="midnightblue" points="2008.09,-81.8506 2018.23,-78.7715 2008.39,-74.8567 2008.09,-81.8506"/>
</g>
<!-- Node3&#45;&gt;Node6 -->
<g id="edge5" class="edge"><title>Node3&#45;&gt;Node6</title>
<path fill="none" stroke="midnightblue" d="M2007.69,-77.8486C1876.65,-71.2515 1602.66,-55.6937 1372,-31 1356.76,-29.3689 1340.29,-27.1846 1325.16,-25.0072"/>
<polygon fill="midnightblue" stroke="midnightblue" points="2007.85,-81.3611 2018.01,-78.3648 2008.2,-74.3699 2007.85,-81.3611"/>
</g>
<!-- Node7 -->
<g id="node7" class="node"><title>Node7</title>
<g id="a_node7"><a xlink:href="testEMCAL_8cxx.html" target="_top" xlink:title="Modules/EMCAL/test\l/testEMCAL.cxx">
<polygon fill="none" stroke="black" points="1951,-0.5 1951,-30.5 2061,-30.5 2061,-0.5 1951,-0.5"/>
<text text-anchor="start" x="1959" y="-18.5" font-family="Helvetica,sans-Serif" font-size="10.00">Modules/EMCAL/test</text>
<text text-anchor="middle" x="2006" y="-7.5" font-family="Helvetica,sans-Serif" font-size="10.00">/testEMCAL.cxx</text>
</a>
</g>
</g>
<!-- Node3&#45;&gt;Node7 -->
<g id="edge6" class="edge"><title>Node3&#45;&gt;Node7</title>
<path fill="none" stroke="midnightblue" d="M2059.94,-60.8832C2047.94,-51.0054 2033.87,-39.4293 2023.11,-30.5765"/>
<polygon fill="midnightblue" stroke="midnightblue" points="2057.91,-63.745 2067.86,-67.396 2062.36,-58.3395 2057.91,-63.745"/>
</g>
<!-- Node3&#45;&gt;Node8 -->
<g id="edge7" class="edge"><title>Node3&#45;&gt;Node8</title>
<path fill="none" stroke="midnightblue" d="M2008.3,-78.0038C1896.78,-72.2033 1683.56,-58.4098 1504,-31 1501.1,-30.5574 1498.14,-30.063 1495.15,-29.5311"/>
<polygon fill="midnightblue" stroke="midnightblue" points="2008.28,-81.5071 2018.45,-78.5238 2008.64,-74.5163 2008.28,-81.5071"/>
</g>
<!-- Node9 -->
<g id="node9" class="node"><title>Node9</title>
<g id="a_node9"><a xlink:href="testQcExample_8cxx.html" target="_top" xlink:title="Modules/Example/test\l/testQcExample.cxx">
<polygon fill="none" stroke="black" points="1643,-0.5 1643,-30.5 1757,-30.5 1757,-0.5 1643,-0.5"/>
<text text-anchor="start" x="1651" y="-18.5" font-family="Helvetica,sans-Serif" font-size="10.00">Modules/Example/test</text>
<text text-anchor="middle" x="1700" y="-7.5" font-family="Helvetica,sans-Serif" font-size="10.00">/testQcExample.cxx</text>
</a>
</g>
</g>
<!-- Node3&#45;&gt;Node9 -->
<g id="edge8" class="edge"><title>Node3&#45;&gt;Node9</title>
<path fill="none" stroke="midnightblue" d="M2008.08,-70.6282C1943.33,-61.1644 1848.37,-46.5544 1766,-31 1763.12,-30.4558 1760.17,-29.8796 1757.19,-29.2828"/>
<polygon fill="midnightblue" stroke="midnightblue" points="2007.81,-74.1252 2018.2,-72.1023 2008.81,-67.1982 2007.81,-74.1252"/>
</g>
<!-- Node10 -->
<g id="node10" class="node"><title>Node10</title>
<polygon fill="none" stroke="#bfbfbf" points="2079.5,-6 2079.5,-25 2246.5,-25 2246.5,-6 2079.5,-6"/>
<text text-anchor="middle" x="2163" y="-13" font-family="Helvetica,sans-Serif" font-size="10.00">Modules/MFT/test/testQcMFT.cxx</text>
</g>
<!-- Node3&#45;&gt;Node10 -->
<g id="edge9" class="edge"><title>Node3&#45;&gt;Node10</title>
<path fill="none" stroke="midnightblue" d="M2109.99,-60.6722C2124.4,-48.6707 2141.74,-34.2203 2152.57,-25.1945"/>
<polygon fill="midnightblue" stroke="midnightblue" points="2107.37,-58.3053 2101.92,-67.396 2111.85,-63.6829 2107.37,-58.3053"/>
</g>
<!-- Node11 -->
<g id="node11" class="node"><title>Node11</title>
<polygon fill="none" stroke="#bfbfbf" points="2265,-0.5 2265,-30.5 2379,-30.5 2379,-0.5 2265,-0.5"/>
<text text-anchor="start" x="2273" y="-18.5" font-family="Helvetica,sans-Serif" font-size="10.00">Modules/Skeleton/test</text>
<text text-anchor="middle" x="2322" y="-7.5" font-family="Helvetica,sans-Serif" font-size="10.00">/.testEmpty.cxx</text>
</g>
<!-- Node3&#45;&gt;Node11 -->
<g id="edge10" class="edge"><title>Node3&#45;&gt;Node11</title>
<path fill="none" stroke="midnightblue" d="M2146.2,-64.7149C2184.77,-54.1373 2234,-40.6348 2270.55,-30.6109"/>
<polygon fill="midnightblue" stroke="midnightblue" points="2144.85,-61.4556 2136.13,-67.476 2146.7,-68.2063 2144.85,-61.4556"/>
</g>
<!-- Node12 -->
<g id="node12" class="node"><title>Node12</title>
<g id="a_node12"><a xlink:href="testQcSkeleton_8cxx.html" target="_top" xlink:title="Modules/Skeleton/test\l/testQcSkeleton.cxx">
<polygon fill="none" stroke="black" points="2754,-0.5 2754,-30.5 2868,-30.5 2868,-0.5 2754,-0.5"/>
<text text-anchor="start" x="2762" y="-18.5" font-family="Helvetica,sans-Serif" font-size="10.00">Modules/Skeleton/test</text>
<text text-anchor="middle" x="2811" y="-7.5" font-family="Helvetica,sans-Serif" font-size="10.00">/testQcSkeleton.cxx</text>
</a>
</g>
</g>
<!-- Node3&#45;&gt;Node12 -->
<g id="edge11" class="edge"><title>Node3&#45;&gt;Node12</title>
<path fill="none" stroke="midnightblue" d="M2161.84,-79.0176C2285.18,-74.2698 2534.72,-61.5191 2744,-31 2747.18,-30.5363 2750.43,-30.0091 2753.71,-29.437"/>
<polygon fill="midnightblue" stroke="midnightblue" points="2161.61,-75.524 2151.74,-79.3992 2161.87,-82.519 2161.61,-75.524"/>
</g>
<!-- Node13 -->
<g id="node13" class="node"><title>Node13</title>
<g id="a_node13"><a xlink:href="testTOF_8cxx.html" target="_top" xlink:title="Modules/TOF/test/testTOF.cxx">
<polygon fill="none" stroke="black" points="2397.5,-6 2397.5,-25 2550.5,-25 2550.5,-6 2397.5,-6"/>
<text text-anchor="middle" x="2474" y="-13" font-family="Helvetica,sans-Serif" font-size="10.00">Modules/TOF/test/testTOF.cxx</text>
</a>
</g>
</g>
<!-- Node3&#45;&gt;Node13 -->
<g id="edge12" class="edge"><title>Node3&#45;&gt;Node13</title>
<path fill="none" stroke="midnightblue" d="M2161.48,-68.7943C2222.75,-58.606 2310.9,-43.9247 2388,-31 2399.5,-29.0725 2411.86,-26.9927 2423.53,-25.0266"/>
<polygon fill="midnightblue" stroke="midnightblue" points="2160.79,-65.3601 2151.5,-70.453 2161.94,-72.2653 2160.79,-65.3601"/>
</g>
<!-- Node14 -->
<g id="node14" class="node"><title>Node14</title>
<polygon fill="none" stroke="#bfbfbf" points="2568.5,-6 2568.5,-25 2735.5,-25 2735.5,-6 2568.5,-6"/>
<text text-anchor="middle" x="2652" y="-13" font-family="Helvetica,sans-Serif" font-size="10.00">Modules/TPC/test/testQcTPC.cxx</text>
</g>
<!-- Node3&#45;&gt;Node14 -->
<g id="edge13" class="edge"><title>Node3&#45;&gt;Node14</title>
<path fill="none" stroke="midnightblue" d="M2161.82,-74.4715C2255.69,-65.6174 2419.26,-49.326 2559,-31 2572.29,-29.2576 2586.6,-27.1437 2599.93,-25.0751"/>
<polygon fill="midnightblue" stroke="midnightblue" points="2161.47,-70.9889 2151.84,-75.4095 2162.13,-77.9582 2161.47,-70.9889"/>
</g>
<!-- Node15&#45;&gt;Node5 -->
<g id="edge19" class="edge"><title>Node15&#45;&gt;Node5</title>
<path fill="none" stroke="midnightblue" d="M720.917,-70.8938C792.074,-60.9725 900.762,-45.5416 995,-31 1007.09,-29.1346 1020.1,-27.0396 1032.31,-25.0345"/>
<polygon fill="midnightblue" stroke="midnightblue" points="720.118,-67.4711 710.696,-72.3169 721.083,-74.4043 720.118,-67.4711"/>
</g>
<!-- Node16 -->
<g id="node16" class="node"><title>Node16</title>
<polygon fill="none" stroke="#bfbfbf" points="0,-6 0,-25 132,-25 132,-6 0,-6"/>
<text text-anchor="middle" x="66" y="-13" font-family="Helvetica,sans-Serif" font-size="10.00">Framework/src/Check.cxx</text>
</g>
<!-- Node15&#45;&gt;Node16 -->
<g id="edge15" class="edge"><title>Node15&#45;&gt;Node16</title>
<path fill="none" stroke="midnightblue" d="M567.25,-75.9763C468.377,-68.3608 291.336,-53.0327 141,-31 129.715,-29.3462 117.548,-27.1671 106.366,-25.0024"/>
<polygon fill="midnightblue" stroke="midnightblue" points="567.211,-79.4834 577.448,-76.7557 567.744,-72.5038 567.211,-79.4834"/>
</g>
<!-- Node17 -->
<g id="node17" class="node"><title>Node17</title>
<g id="a_node17"><a xlink:href="CheckRunner_8cxx.html" target="_top" xlink:title="Framework/src/CheckRunner.cxx">
<polygon fill="none" stroke="black" points="150,-6 150,-25 314,-25 314,-6 150,-6"/>
<text text-anchor="middle" x="232" y="-13" font-family="Helvetica,sans-Serif" font-size="10.00">Framework/src/CheckRunner.cxx</text>
</a>
</g>
</g>
<!-- Node15&#45;&gt;Node17 -->
<g id="edge16" class="edge"><title>Node15&#45;&gt;Node17</title>
<path fill="none" stroke="midnightblue" d="M567.121,-69.4489C502.089,-59.2443 406.435,-44.2104 323,-31 310.833,-29.0736 297.753,-26.9943 285.409,-25.0283"/>
<polygon fill="midnightblue" stroke="midnightblue" points="566.867,-72.9518 577.289,-71.0442 567.952,-66.0364 566.867,-72.9518"/>
</g>
<!-- Node18 -->
<g id="node18" class="node"><title>Node18</title>
<g id="a_node18"><a xlink:href="InfrastructureGenerator_8cxx.html" target="_top" xlink:title="Framework/src/Infrastructure\lGenerator.cxx">
<polygon fill="none" stroke="black" points="332.5,-0.5 332.5,-30.5 475.5,-30.5 475.5,-0.5 332.5,-0.5"/>
<text text-anchor="start" x="340.5" y="-18.5" font-family="Helvetica,sans-Serif" font-size="10.00">Framework/src/Infrastructure</text>
<text text-anchor="middle" x="404" y="-7.5" font-family="Helvetica,sans-Serif" font-size="10.00">Generator.cxx</text>
</a>
</g>
</g>
<!-- Node15&#45;&gt;Node18 -->
<g id="edge17" class="edge"><title>Node15&#45;&gt;Node18</title>
<path fill="none" stroke="midnightblue" d="M582.522,-64.8498C543.393,-54.2523 493.271,-40.6775 456.102,-30.6109"/>
<polygon fill="midnightblue" stroke="midnightblue" points="581.652,-68.2401 592.219,-67.476 583.482,-61.4835 581.652,-68.2401"/>
</g>
<!-- Node19 -->
<g id="node19" class="node"><title>Node19</title>
<g id="a_node19"><a xlink:href="runBasic_8cxx.html" target="_top" xlink:title="This is an executable showing QC Task&#39;s usage in Data Processing Layer. ">
<polygon fill="none" stroke="black" points="494,-6 494,-25 636,-25 636,-6 494,-6"/>
<text text-anchor="middle" x="565" y="-13" font-family="Helvetica,sans-Serif" font-size="10.00">Framework/src/runBasic.cxx</text>
</a>
</g>
</g>
<!-- Node15&#45;&gt;Node19 -->
<g id="edge18" class="edge"><title>Node15&#45;&gt;Node19</title>
<path fill="none" stroke="midnightblue" d="M619.094,-61.008C604.429,-48.9412 586.639,-34.3046 575.567,-25.1945"/>
<polygon fill="midnightblue" stroke="midnightblue" points="616.912,-63.745 626.858,-67.396 621.36,-58.3395 616.912,-63.745"/>
</g>
<!-- Node20 -->
<g id="node20" class="node"><title>Node20</title>
<g id="a_node20"><a xlink:href="TaskRunnerFactory_8cxx.html" target="_top" xlink:title="Framework/src/TaskRunner\lFactory.cxx">
<polygon fill="none" stroke="black" points="654,-0.5 654,-30.5 792,-30.5 792,-0.5 654,-0.5"/>
<text text-anchor="start" x="662" y="-18.5" font-family="Helvetica,sans-Serif" font-size="10.00">Framework/src/TaskRunner</text>
<text text-anchor="middle" x="723" y="-7.5" font-family="Helvetica,sans-Serif" font-size="10.00">Factory.cxx</text>
</a>
</g>
</g>
<!-- Node15&#45;&gt;Node20 -->
<g id="edge20" class="edge"><title>Node15&#45;&gt;Node20</title>
<path fill="none" stroke="midnightblue" d="M669.057,-60.8832C681.063,-51.0054 695.132,-39.4293 705.892,-30.5765"/>
<polygon fill="midnightblue" stroke="midnightblue" points="666.64,-58.3395 661.142,-67.396 671.088,-63.745 666.64,-58.3395"/>
</g>
<!-- Node21 -->
<g id="node21" class="node"><title>Node21</title>
<g id="a_node21"><a xlink:href="testTaskRunner_8cxx.html" target="_top" xlink:title="Framework/test/testTaskRunner.cxx">
<polygon fill="none" stroke="black" points="810,-6 810,-25 986,-25 986,-6 810,-6"/>
<text text-anchor="middle" x="898" y="-13" font-family="Helvetica,sans-Serif" font-size="10.00">Framework/test/testTaskRunner.cxx</text>
</a>
</g>
</g>
<!-- Node15&#45;&gt;Node21 -->
<g id="edge21" class="edge"><title>Node15&#45;&gt;Node21</title>
<path fill="none" stroke="midnightblue" d="M708.516,-64.9899C758.294,-52.2516 825.128,-35.1484 864.673,-25.0287"/>
<polygon fill="midnightblue" stroke="midnightblue" points="707.622,-61.606 698.802,-67.476 709.357,-68.3875 707.622,-61.606"/>
</g>
<!-- Node24 -->
<g id="node24" class="node"><title>Node24</title>
<g id="a_node24"><a xlink:href="DaqTask_8cxx.html" target="_top" xlink:title="Modules/Daq/src/DaqTask.cxx">
<polygon fill="none" stroke="black" points="3016,-6 3016,-25 3168,-25 3168,-6 3016,-6"/>
<text text-anchor="middle" x="3092" y="-13" font-family="Helvetica,sans-Serif" font-size="10.00">Modules/Daq/src/DaqTask.cxx</text>
</a>
</g>
</g>
<!-- Node23&#45;&gt;Node24 -->
<g id="edge25" class="edge"><title>Node23&#45;&gt;Node24</title>
<path fill="none" stroke="midnightblue" d="M3220.03,-63.7838C3185.9,-51.1807 3141.57,-34.8082 3115.03,-25.007"/>
<polygon fill="midnightblue" stroke="midnightblue" points="3219.22,-67.2147 3229.81,-67.396 3221.64,-60.6482 3219.22,-67.2147"/>
</g>
<!-- Node25 -->
<g id="node25" class="node"><title>Node25</title>
<g id="a_node25"><a xlink:href="testQcDaq_8cxx.html" target="_top" xlink:title="Modules/Daq/test/testQcDaq.cxx">
<polygon fill="none" stroke="black" points="3186.5,-6 3186.5,-25 3349.5,-25 3349.5,-6 3186.5,-6"/>
<text text-anchor="middle" x="3268" y="-13" font-family="Helvetica,sans-Serif" font-size="10.00">Modules/Daq/test/testQcDaq.cxx</text>
</a>
</g>
</g>
<!-- Node23&#45;&gt;Node25 -->
<g id="edge26" class="edge"><title>Node23&#45;&gt;Node25</title>
<path fill="none" stroke="midnightblue" d="M3268,-57.2495C3268,-46.017 3268,-33.3767 3268,-25.1945"/>
<polygon fill="midnightblue" stroke="midnightblue" points="3264.5,-57.3959 3268,-67.396 3271.5,-57.396 3264.5,-57.3959"/>
</g>
<!-- Node27 -->
<g id="node27" class="node"><title>Node27</title>
<g id="a_node27"><a xlink:href="DigitsQcTask_8cxx.html" target="_top" xlink:title="Modules/EMCAL/src/Digits\lQcTask.cxx">
<polygon fill="none" stroke="black" points="3368,-0.5 3368,-30.5 3504,-30.5 3504,-0.5 3368,-0.5"/>
<text text-anchor="start" x="3376" y="-18.5" font-family="Helvetica,sans-Serif" font-size="10.00">Modules/EMCAL/src/Digits</text>
<text text-anchor="middle" x="3436" y="-7.5" font-family="Helvetica,sans-Serif" font-size="10.00">QcTask.cxx</text>
</a>
</g>
</g>
<!-- Node26&#45;&gt;Node27 -->
<g id="edge28" class="edge"><title>Node26&#45;&gt;Node27</title>
<path fill="none" stroke="midnightblue" d="M3415.43,-58.2835C3419.99,-49.0223 3425.09,-38.6632 3429.07,-30.5765"/>
<polygon fill="midnightblue" stroke="midnightblue" points="3412.22,-56.8783 3410.94,-67.396 3418.5,-59.9702 3412.22,-56.8783"/>
</g>
<!-- Node29 -->
<g id="node29" class="node"><title>Node29</title>
<g id="a_node29"><a xlink:href="RawTask_8cxx.html" target="_top" xlink:title="Modules/EMCAL/src/RawTask.cxx">
<polygon fill="none" stroke="black" points="3522.5,-6 3522.5,-25 3693.5,-25 3693.5,-6 3522.5,-6"/>
<text text-anchor="middle" x="3608" y="-13" font-family="Helvetica,sans-Serif" font-size="10.00">Modules/EMCAL/src/RawTask.cxx</text>
</a>
</g>
</g>
<!-- Node28&#45;&gt;Node29 -->
<g id="edge30" class="edge"><title>Node28&#45;&gt;Node29</title>
<path fill="none" stroke="midnightblue" d="M3567.85,-59.9967C3578.8,-48.1323 3591.8,-34.0516 3599.97,-25.1945"/>
<polygon fill="midnightblue" stroke="midnightblue" points="3565.23,-57.6739 3561.02,-67.396 3570.37,-62.4219 3565.23,-57.6739"/>
</g>
<!-- Node31 -->
<g id="node31" class="node"><title>Node31</title>
<g id="a_node31"><a xlink:href="BenchmarkTask_8cxx.html" target="_top" xlink:title="Modules/Example/src\l/BenchmarkTask.cxx">
<polygon fill="none" stroke="black" points="3711.5,-0.5 3711.5,-30.5 3822.5,-30.5 3822.5,-0.5 3711.5,-0.5"/>
<text text-anchor="start" x="3719.5" y="-18.5" font-family="Helvetica,sans-Serif" font-size="10.00">Modules/Example/src</text>
<text text-anchor="middle" x="3767" y="-7.5" font-family="Helvetica,sans-Serif" font-size="10.00">/BenchmarkTask.cxx</text>
</a>
</g>
</g>
<!-- Node30&#45;&gt;Node31 -->
<g id="edge32" class="edge"><title>Node30&#45;&gt;Node31</title>
<path fill="none" stroke="midnightblue" d="M3723.19,-60.3115C3732.94,-50.5612 3744.24,-39.259 3752.92,-30.5765"/>
<polygon fill="midnightblue" stroke="midnightblue" points="3720.7,-57.85 3716.1,-67.396 3725.65,-62.7998 3720.7,-57.85"/>
</g>
<!-- Node33 -->
<g id="node33" class="node"><title>Node33</title>
<g id="a_node33"><a xlink:href="ExampleCondition_8cxx.html" target="_top" xlink:title="Modules/Example/src\l/ExampleCondition.cxx">
<polygon fill="none" stroke="black" points="3841,-0.5 3841,-30.5 3959,-30.5 3959,-0.5 3841,-0.5"/>
<text text-anchor="start" x="3849" y="-18.5" font-family="Helvetica,sans-Serif" font-size="10.00">Modules/Example/src</text>
<text text-anchor="middle" x="3900" y="-7.5" font-family="Helvetica,sans-Serif" font-size="10.00">/ExampleCondition.cxx</text>
</a>
</g>
</g>
<!-- Node32&#45;&gt;Node33 -->
<g id="edge34" class="edge"><title>Node32&#45;&gt;Node33</title>
<path fill="none" stroke="midnightblue" d="M3881.49,-57.9907C3885.59,-48.8044 3890.15,-38.5781 3893.72,-30.5765"/>
<polygon fill="midnightblue" stroke="midnightblue" points="3878.17,-56.8376 3877.29,-67.396 3884.56,-59.6897 3878.17,-56.8376"/>
</g>
<!-- Node34&#45;&gt;Node8 -->
<g id="edge37" class="edge"><title>Node34&#45;&gt;Node8</title>
<path fill="none" stroke="midnightblue" d="M1604.43,-64.5797C1567.89,-54.0225 1521.4,-40.5921 1486.85,-30.6109"/>
<polygon fill="midnightblue" stroke="midnightblue" points="1603.88,-68.063 1614.46,-67.476 1605.82,-61.338 1603.88,-68.063"/>
</g>
<!-- Node34&#45;&gt;Node9 -->
<g id="edge38" class="edge"><title>Node34&#45;&gt;Node9</title>
<path fill="none" stroke="midnightblue" d="M1676.05,-58.5756C1681.36,-49.2406 1687.34,-38.7483 1691.99,-30.5765"/>
<polygon fill="midnightblue" stroke="midnightblue" points="1672.93,-56.9738 1671.03,-67.396 1679.02,-60.4368 1672.93,-56.9738"/>
</g>
<!-- Node35 -->
<g id="node35" class="node"><title>Node35</title>
<g id="a_node35"><a xlink:href="ExampleTask_8cxx.html" target="_top" xlink:title="Modules/Example/src\l/ExampleTask.cxx">
<polygon fill="none" stroke="black" points="1513.5,-0.5 1513.5,-30.5 1624.5,-30.5 1624.5,-0.5 1513.5,-0.5"/>
<text text-anchor="start" x="1521.5" y="-18.5" font-family="Helvetica,sans-Serif" font-size="10.00">Modules/Example/src</text>
<text text-anchor="middle" x="1569" y="-7.5" font-family="Helvetica,sans-Serif" font-size="10.00">/ExampleTask.cxx</text>
</a>
</g>
</g>
<!-- Node34&#45;&gt;Node35 -->
<g id="edge36" class="edge"><title>Node34&#45;&gt;Node35</title>
<path fill="none" stroke="midnightblue" d="M1634.01,-61.4511C1619.55,-51.4517 1602.41,-39.5995 1589.36,-30.5765"/>
<polygon fill="midnightblue" stroke="midnightblue" points="1632.39,-64.5872 1642.6,-67.396 1636.37,-58.8296 1632.39,-64.5872"/>
</g>
<!-- Node37 -->
<g id="node37" class="node"><title>Node37</title>
<g id="a_node37"><a xlink:href="BasicDigitQcTask_8cxx.html" target="_top" xlink:title="Modules/MFT/src/BasicDigit\lQcTask.cxx">
<polygon fill="none" stroke="black" points="3977.5,-0.5 3977.5,-30.5 4118.5,-30.5 4118.5,-0.5 3977.5,-0.5"/>
<text text-anchor="start" x="3985.5" y="-18.5" font-family="Helvetica,sans-Serif" font-size="10.00">Modules/MFT/src/BasicDigit</text>
<text text-anchor="middle" x="4048" y="-7.5" font-family="Helvetica,sans-Serif" font-size="10.00">QcTask.cxx</text>
</a>
</g>
</g>
<!-- Node36&#45;&gt;Node37 -->
<g id="edge40" class="edge"><title>Node36&#45;&gt;Node37</title>
<path fill="none" stroke="midnightblue" d="M4042.97,-57.4029C4044.08,-48.3703 4045.3,-38.4078 4046.27,-30.5765"/>
<polygon fill="midnightblue" stroke="midnightblue" points="4039.48,-57.0433 4041.74,-67.396 4046.43,-57.8984 4039.48,-57.0433"/>
</g>
<!-- Node38&#45;&gt;Node12 -->
<g id="edge43" class="edge"><title>Node38&#45;&gt;Node12</title>
<path fill="none" stroke="midnightblue" d="M2904.42,-62.8533C2883.71,-52.5761 2858.41,-40.0252 2839.37,-30.5765"/>
<polygon fill="midnightblue" stroke="midnightblue" points="2903.06,-66.0864 2913.57,-67.396 2906.17,-59.8159 2903.06,-66.0864"/>
</g>
<!-- Node39 -->
<g id="node39" class="node"><title>Node39</title>
<g id="a_node39"><a xlink:href="SkeletonTask_8cxx.html" target="_top" xlink:title="Modules/Skeleton/src\l/SkeletonTask.cxx">
<polygon fill="none" stroke="black" points="2886.5,-0.5 2886.5,-30.5 2997.5,-30.5 2997.5,-0.5 2886.5,-0.5"/>
<text text-anchor="start" x="2894.5" y="-18.5" font-family="Helvetica,sans-Serif" font-size="10.00">Modules/Skeleton/src</text>
<text text-anchor="middle" x="2942" y="-7.5" font-family="Helvetica,sans-Serif" font-size="10.00">/SkeletonTask.cxx</text>
</a>
</g>
</g>
<!-- Node38&#45;&gt;Node39 -->
<g id="edge42" class="edge"><title>Node38&#45;&gt;Node39</title>
<path fill="none" stroke="midnightblue" d="M2942,-57.1081C2942,-48.1539 2942,-38.3227 2942,-30.5765"/>
<polygon fill="midnightblue" stroke="midnightblue" points="2938.5,-57.3959 2942,-67.396 2945.5,-57.396 2938.5,-57.3959"/>
</g>
<!-- Node41 -->
<g id="node41" class="node"><title>Node41</title>
<g id="a_node41"><a xlink:href="TOFTask_8cxx.html" target="_top" xlink:title="Modules/TOF/src/TOFTask.cxx">
<polygon fill="none" stroke="black" points="4136.5,-6 4136.5,-25 4291.5,-25 4291.5,-6 4136.5,-6"/>
<text text-anchor="middle" x="4214" y="-13" font-family="Helvetica,sans-Serif" font-size="10.00">Modules/TOF/src/TOFTask.cxx</text>
</a>
</g>
</g>
<!-- Node40&#45;&gt;Node41 -->
<g id="edge45" class="edge"><title>Node40&#45;&gt;Node41</title>
<path fill="none" stroke="midnightblue" d="M4206.48,-57.2495C4208.55,-46.017 4210.88,-33.3767 4212.39,-25.1945"/>
<polygon fill="midnightblue" stroke="midnightblue" points="4202.98,-56.9267 4204.6,-67.396 4209.86,-58.1976 4202.98,-56.9267"/>
</g>
<!-- Node43 -->
<g id="node43" class="node"><title>Node43</title>
<g id="a_node43"><a xlink:href="PID_8cxx.html" target="_top" xlink:title="Modules/TPC/src/PID.cxx">
<polygon fill="none" stroke="black" points="4310,-6 4310,-25 4442,-25 4442,-6 4310,-6"/>
<text text-anchor="middle" x="4376" y="-13" font-family="Helvetica,sans-Serif" font-size="10.00">Modules/TPC/src/PID.cxx</text>
</a>
</g>
</g>
<!-- Node42&#45;&gt;Node43 -->
<g id="edge47" class="edge"><title>Node42&#45;&gt;Node43</title>
<path fill="none" stroke="midnightblue" d="M4375.37,-57.2495C4375.55,-46.017 4375.74,-33.3767 4375.87,-25.1945"/>
<polygon fill="midnightblue" stroke="midnightblue" points="4371.87,-57.3433 4375.22,-67.396 4378.87,-57.451 4371.87,-57.3433"/>
</g>
</g>
</svg>
        <g id="navigator" transform="translate(0 0)" fill="#404254">
                <rect fill="#f2f5e9" fill-opacity="0.5" stroke="#606060" stroke-width=".5" x="0" y="0" width="60" height="60"/>
                <use id="zoomplus" xlink:href="#zoomPlus" x="17" y="9" onmousedown="handleZoom(evt,'in')"/>
                <use id="zoomminus" xlink:href="#zoomMin" x="42" y="9" onmousedown="handleZoom(evt,'out')"/>
                <use id="reset" xlink:href="#resetDef" x="30" y="36" onmousedown="handleReset()"/>
                <g id="arrowUp" xlink:href="#dirArrow" transform="translate(30 24)" onmousedown="handlePan(0,-1)">
                  <use xlink:href="#rim" fill="#404040">
                        <set attributeName="fill" to="#808080" begin="arrowUp.mouseover" end="arrowUp.mouseout"/>
                  </use>
                  <path fill="none" stroke="white" stroke-width="1.5" d="M0,-3.0v7 M-2.5,-0.5L0,-3.0L2.5,-0.5"/>
                </g>
                <g id="arrowRight" xlink:href="#dirArrow" transform="rotate(90) translate(36 -43)" onmousedown="handlePan(1,0)">
                  <use xlink:href="#rim" fill="#404040">
                        <set attributeName="fill" to="#808080" begin="arrowRight.mouseover" end="arrowRight.mouseout"/>
                  </use>
                  <path fill="none" stroke="white" stroke-width="1.5" d="M0,-3.0v7 M-2.5,-0.5L0,-3.0L2.5,-0.5"/>
                </g>
                <g id="arrowDown" xlink:href="#dirArrow" transform="rotate(180) translate(-30 -48)" onmousedown="handlePan(0,1)">
                  <use xlink:href="#rim" fill="#404040">
                        <set attributeName="fill" to="#808080" begin="arrowDown.mouseover" end="arrowDown.mouseout"/>
                  </use>
                  <path fill="none" stroke="white" stroke-width="1.5" d="M0,-3.0v7 M-2.5,-0.5L0,-3.0L2.5,-0.5"/>
                </g>
                <g id="arrowLeft" xlink:href="#dirArrow" transform="rotate(270) translate(-36 17)" onmousedown="handlePan(-1,0)">
                  <use xlink:href="#rim" fill="#404040">
                        <set attributeName="fill" to="#808080" begin="arrowLeft.mouseover" end="arrowLeft.mouseout"/>
                  </use>
                  <path fill="none" stroke="white" stroke-width="1.5" d="M0,-3.0v7 M-2.5,-0.5L0,-3.0L2.5,-0.5"/>
                </g>
        </g>
        <svg viewBox="0 0 15 15" width="100%" height="30px" preserveAspectRatio="xMaxYMin meet">
         <g id="arrow_out" transform="scale(0.3 0.3)">
          <a xlink:href="ObjectsManager_8h__dep__incl_org.svg" target="_base">
           <rect id="button" ry="5" rx="5" y="6" x="6" height="38" width="38"
                fill="#f2f5e9" fill-opacity="0.5" stroke="#606060" stroke-width="1.0"/>
           <path id="arrow"
             d="M 11.500037,31.436501 C 11.940474,20.09759 22.043105,11.32322 32.158766,21.979434 L 37.068811,17.246167 C 37.068811,17.246167 37.088388,32 37.088388,32 L 22.160133,31.978069 C 22.160133,31.978069 26.997745,27.140456 26.997745,27.140456 C 18.528582,18.264221 13.291696,25.230495 11.500037,31.436501 z"
             style="fill:#404040;"/>
          </a>
         </g>
        </svg>
</svg>
