<?xml version="1.0" encoding="UTF-8" standalone="no"?>
<!DOCTYPE svg PUBLIC "-//W3C//DTD SVG 1.1//EN"
 "http://www.w3.org/Graphics/SVG/1.1/DTD/svg11.dtd">
<!-- Generated by graphviz version 2.38.0 (20140413.2041)
 -->
<!-- Title: Framework/include/QualityControl/QcInfoLogger.h Pages: 1 -->
<svg width="7636pt" height="240pt"
 viewBox="0.00 0.00 7636.00 240.00" xmlns="http://www.w3.org/2000/svg" xmlns:xlink="http://www.w3.org/1999/xlink">
<g id="graph0" class="graph" transform="scale(1 1) rotate(0) translate(4 236)">
<title>Framework/include/QualityControl/QcInfoLogger.h</title>
<!-- Node1 -->
<g id="node1" class="node"><title>Node1</title>
<polygon fill="#bfbfbf" stroke="black" points="4372.5,-201.5 4372.5,-231.5 4505.5,-231.5 4505.5,-201.5 4372.5,-201.5"/>
<text text-anchor="start" x="4380.5" y="-219.5" font-family="Helvetica,sans-Serif" font-size="10.00">Framework/include/Quality</text>
<text text-anchor="middle" x="4439" y="-208.5" font-family="Helvetica,sans-Serif" font-size="10.00">Control/QcInfoLogger.h</text>
</g>
<!-- Node2 -->
<g id="node2" class="node"><title>Node2</title>
<g id="a_node2"><a xlink:href="Check_8h_source.html" target="_top" xlink:title="Framework/include/Quality\lControl/Check.h">
<polygon fill="none" stroke="black" points="1636.5,-134.5 1636.5,-164.5 1769.5,-164.5 1769.5,-134.5 1636.5,-134.5"/>
<text text-anchor="start" x="1644.5" y="-152.5" font-family="Helvetica,sans-Serif" font-size="10.00">Framework/include/Quality</text>
<text text-anchor="middle" x="1703" y="-141.5" font-family="Helvetica,sans-Serif" font-size="10.00">Control/Check.h</text>
</a>
</g>
</g>
<!-- Node1&#45;&gt;Node2 -->
<g id="edge1" class="edge"><title>Node1&#45;&gt;Node2</title>
<path fill="none" stroke="midnightblue" d="M4361.96,-215.086C3985.19,-212.898 2333.99,-201.369 1821,-165 1804.32,-163.818 1786.39,-161.932 1769.66,-159.906"/>
<polygon fill="midnightblue" stroke="midnightblue" points="4362.19,-218.587 4372.21,-215.145 4362.23,-211.588 4362.19,-218.587"/>
</g>
<!-- Node3 -->
<g id="node3" class="node"><title>Node3</title>
<g id="a_node3"><a xlink:href="CheckRunner_8h.html" target="_top" xlink:title="Framework/include/Quality\lControl/CheckRunner.h">
<polygon fill="none" stroke="black" points="1036.5,-67.5 1036.5,-97.5 1169.5,-97.5 1169.5,-67.5 1036.5,-67.5"/>
<text text-anchor="start" x="1044.5" y="-85.5" font-family="Helvetica,sans-Serif" font-size="10.00">Framework/include/Quality</text>
<text text-anchor="middle" x="1103" y="-74.5" font-family="Helvetica,sans-Serif" font-size="10.00">Control/CheckRunner.h</text>
</a>
</g>
</g>
<!-- Node1&#45;&gt;Node3 -->
<g id="edge23" class="edge"><title>Node1&#45;&gt;Node3</title>
<path fill="none" stroke="midnightblue" d="M4362.37,-215.538C3969.71,-215.518 2180.16,-212.76 1627,-165 1461.44,-150.705 1268.84,-116.052 1169.65,-96.855"/>
<polygon fill="midnightblue" stroke="midnightblue" points="4362.48,-219.038 4372.48,-215.538 4362.48,-212.038 4362.48,-219.038"/>
</g>
<!-- Node6 -->
<g id="node6" class="node"><title>Node6</title>
<g id="a_node6"><a xlink:href="InfrastructureGenerator_8cxx.html" target="_top" xlink:title="Framework/src/Infrastructure\lGenerator.cxx">
<polygon fill="none" stroke="black" points="1936.5,-0.5 1936.5,-30.5 2079.5,-30.5 2079.5,-0.5 1936.5,-0.5"/>
<text text-anchor="start" x="1944.5" y="-18.5" font-family="Helvetica,sans-Serif" font-size="10.00">Framework/src/Infrastructure</text>
<text text-anchor="middle" x="2008" y="-7.5" font-family="Helvetica,sans-Serif" font-size="10.00">Generator.cxx</text>
</a>
</g>
</g>
<!-- Node1&#45;&gt;Node6 -->
<g id="edge27" class="edge"><title>Node1&#45;&gt;Node6</title>
<path fill="none" stroke="midnightblue" d="M4362.23,-215.443C3941.76,-214.954 1935.36,-210.248 1891,-165 1846.54,-119.649 1936.14,-58.0143 1982.53,-30.6225"/>
<polygon fill="midnightblue" stroke="midnightblue" points="4362.45,-218.943 4372.45,-215.455 4362.45,-211.943 4362.45,-218.943"/>
</g>
<!-- Node8 -->
<g id="node8" class="node"><title>Node8</title>
<g id="a_node8"><a xlink:href="runMergerTest_8cxx.html" target="_top" xlink:title="This is DPL workflow to see HistoMerger in action. ">
<polygon fill="none" stroke="black" points="1751.5,-6 1751.5,-25 1918.5,-25 1918.5,-6 1751.5,-6"/>
<text text-anchor="middle" x="1835" y="-13" font-family="Helvetica,sans-Serif" font-size="10.00">Framework/src/runMergerTest.cxx</text>
</a>
</g>
</g>
<!-- Node1&#45;&gt;Node8 -->
<g id="edge37" class="edge"><title>Node1&#45;&gt;Node8</title>
<path fill="none" stroke="midnightblue" d="M4361.93,-215.246C3939.81,-213.702 1925.23,-204.28 1875,-165 1830.41,-130.13 1832.24,-51.1736 1834.19,-25.0623"/>
<polygon fill="midnightblue" stroke="midnightblue" points="4362.18,-218.747 4372.19,-215.283 4362.2,-211.747 4362.18,-218.747"/>
</g>
<!-- Node18 -->
<g id="node18" class="node"><title>Node18</title>
<g id="a_node18"><a xlink:href="CcdbDatabase_8cxx.html" target="_top" xlink:title="Framework/src/CcdbDatabase.cxx">
<polygon fill="none" stroke="black" points="1900.5,-140 1900.5,-159 2069.5,-159 2069.5,-140 1900.5,-140"/>
<text text-anchor="middle" x="1985" y="-147" font-family="Helvetica,sans-Serif" font-size="10.00">Framework/src/CcdbDatabase.cxx</text>
</a>
</g>
</g>
<!-- Node1&#45;&gt;Node18 -->
<g id="edge24" class="edge"><title>Node1&#45;&gt;Node18</title>
<path fill="none" stroke="midnightblue" d="M4362.13,-215.235C4008.62,-213.805 2536.76,-205.488 2078,-165 2062.86,-163.664 2046.45,-161.385 2031.69,-159.025"/>
<polygon fill="midnightblue" stroke="midnightblue" points="4362.25,-218.736 4372.26,-215.275 4362.28,-211.736 4362.25,-218.736"/>
</g>
<!-- Node19 -->
<g id="node19" class="node"><title>Node19</title>
<g id="a_node19"><a xlink:href="DatabaseFactory_8cxx.html" target="_top" xlink:title="Framework/src/DatabaseFactory.cxx">
<polygon fill="none" stroke="black" points="2087.5,-140 2087.5,-159 2266.5,-159 2266.5,-140 2087.5,-140"/>
<text text-anchor="middle" x="2177" y="-147" font-family="Helvetica,sans-Serif" font-size="10.00">Framework/src/DatabaseFactory.cxx</text>
</a>
</g>
</g>
<!-- Node1&#45;&gt;Node19 -->
<g id="edge25" class="edge"><title>Node1&#45;&gt;Node19</title>
<path fill="none" stroke="midnightblue" d="M4362.37,-214.967C4027.87,-212.448 2693.8,-200.34 2276,-165 2259.99,-163.646 2242.62,-161.377 2226.97,-159.031"/>
<polygon fill="midnightblue" stroke="midnightblue" points="4362.42,-218.467 4372.44,-215.042 4362.47,-211.468 4362.42,-218.467"/>
</g>
<!-- Node20 -->
<g id="node20" class="node"><title>Node20</title>
<g id="a_node20"><a xlink:href="DataDumpGui_8cxx.html" target="_top" xlink:title="Framework/src/DataDumpGui.cxx">
<polygon fill="none" stroke="black" points="2285,-140 2285,-159 2451,-159 2451,-140 2285,-140"/>
<text text-anchor="middle" x="2368" y="-147" font-family="Helvetica,sans-Serif" font-size="10.00">Framework/src/DataDumpGui.cxx</text>
</a>
</g>
</g>
<!-- Node1&#45;&gt;Node20 -->
<g id="edge26" class="edge"><title>Node1&#45;&gt;Node20</title>
<path fill="none" stroke="midnightblue" d="M4361.98,-214.883C4044.88,-212.133 2839.25,-199.576 2460,-165 2445.19,-163.649 2429.14,-161.397 2414.66,-159.065"/>
<polygon fill="midnightblue" stroke="midnightblue" points="4362.41,-218.386 4372.44,-214.973 4362.47,-211.387 4362.41,-218.386"/>
</g>
<!-- Node21 -->
<g id="node21" class="node"><title>Node21</title>
<g id="a_node21"><a xlink:href="MySqlDatabase_8cxx.html" target="_top" xlink:title="Framework/src/MySqlDatabase.cxx">
<polygon fill="none" stroke="black" points="2469.5,-140 2469.5,-159 2642.5,-159 2642.5,-140 2469.5,-140"/>
<text text-anchor="middle" x="2556" y="-147" font-family="Helvetica,sans-Serif" font-size="10.00">Framework/src/MySqlDatabase.cxx</text>
</a>
</g>
</g>
<!-- Node1&#45;&gt;Node21 -->
<g id="edge28" class="edge"><title>Node1&#45;&gt;Node21</title>
<path fill="none" stroke="midnightblue" d="M4362.12,-214.592C4064.91,-210.884 2990.86,-195.619 2651,-165 2635.71,-163.623 2619.14,-161.363 2604.19,-159.032"/>
<polygon fill="midnightblue" stroke="midnightblue" points="4362.32,-218.094 4372.36,-214.719 4362.41,-211.095 4362.32,-218.094"/>
</g>
<!-- Node22 -->
<g id="node22" class="node"><title>Node22</title>
<g id="a_node22"><a xlink:href="ObjectsManager_8cxx.html" target="_top" xlink:title="Framework/src/ObjectsManager.cxx">
<polygon fill="none" stroke="black" points="2660.5,-140 2660.5,-159 2835.5,-159 2835.5,-140 2660.5,-140"/>
<text text-anchor="middle" x="2748" y="-147" font-family="Helvetica,sans-Serif" font-size="10.00">Framework/src/ObjectsManager.cxx</text>
</a>
</g>
</g>
<!-- Node1&#45;&gt;Node22 -->
<g id="edge29" class="edge"><title>Node1&#45;&gt;Node22</title>
<path fill="none" stroke="midnightblue" d="M4361.97,-216.034C4131.85,-216.989 3429.54,-215.25 2850,-165 2833.7,-163.586 2816.02,-161.331 2800.03,-159.016"/>
<polygon fill="midnightblue" stroke="midnightblue" points="4362.26,-219.533 4372.24,-215.988 4362.22,-212.533 4362.26,-219.533"/>
</g>
<!-- Node23 -->
<g id="node23" class="node"><title>Node23</title>
<g id="a_node23"><a xlink:href="RootClassFactory_8h.html" target="_top" xlink:title="Framework/src/RootClassFactory.h">
<polygon fill="none" stroke="black" points="2892.5,-140 2892.5,-159 3065.5,-159 3065.5,-140 2892.5,-140"/>
<text text-anchor="middle" x="2979" y="-147" font-family="Helvetica,sans-Serif" font-size="10.00">Framework/src/RootClassFactory.h</text>
</a>
</g>
</g>
<!-- Node1&#45;&gt;Node23 -->
<g id="edge30" class="edge"><title>Node1&#45;&gt;Node23</title>
<path fill="none" stroke="midnightblue" d="M4362.21,-215.479C4154.91,-214.809 3566.77,-208.862 3080,-165 3063.94,-163.553 3046.54,-161.303 3030.78,-159.003"/>
<polygon fill="midnightblue" stroke="midnightblue" points="4362.37,-218.979 4372.38,-215.508 4362.39,-211.979 4362.37,-218.979"/>
</g>
<!-- Node25 -->
<g id="node25" class="node"><title>Node25</title>
<g id="a_node25"><a xlink:href="TaskFactory_8cxx.html" target="_top" xlink:title="Framework/src/TaskFactory.cxx">
<polygon fill="none" stroke="black" points="2726,-73 2726,-92 2884,-92 2884,-73 2726,-73"/>
<text text-anchor="middle" x="2805" y="-80" font-family="Helvetica,sans-Serif" font-size="10.00">Framework/src/TaskFactory.cxx</text>
</a>
</g>
</g>
<!-- Node1&#45;&gt;Node25 -->
<g id="edge41" class="edge"><title>Node1&#45;&gt;Node25</title>
<path fill="none" stroke="midnightblue" d="M4361.95,-214.614C4057.44,-210.905 2951.06,-195.386 2883,-165 2865.03,-156.976 2827.19,-111.31 2811.77,-92.058"/>
<polygon fill="midnightblue" stroke="midnightblue" points="4361.97,-218.114 4372.02,-214.736 4362.06,-211.115 4361.97,-218.114"/>
</g>
<!-- Node26 -->
<g id="node26" class="node"><title>Node26</title>
<g id="a_node26"><a xlink:href="TrendingTask_8cxx.html" target="_top" xlink:title="Framework/src/TrendingTask.cxx">
<polygon fill="none" stroke="black" points="3074.5,-73 3074.5,-92 3237.5,-92 3237.5,-73 3074.5,-73"/>
<text text-anchor="middle" x="3156" y="-80" font-family="Helvetica,sans-Serif" font-size="10.00">Framework/src/TrendingTask.cxx</text>
</a>
</g>
</g>
<!-- Node1&#45;&gt;Node26 -->
<g id="edge44" class="edge"><title>Node1&#45;&gt;Node26</title>
<path fill="none" stroke="midnightblue" d="M4361.76,-215.48C4084.93,-215.034 3156.48,-210.165 3113,-165 3091.7,-142.871 3126.54,-108.092 3145.29,-92.0852"/>
<polygon fill="midnightblue" stroke="midnightblue" points="4362.11,-218.98 4372.12,-215.495 4362.12,-211.98 4362.11,-218.98"/>
</g>
<!-- Node27 -->
<g id="node27" class="node"><title>Node27</title>
<polygon fill="none" stroke="#bfbfbf" points="3122,-134.5 3122,-164.5 3276,-164.5 3276,-134.5 3122,-134.5"/>
<text text-anchor="start" x="3130" y="-152.5" font-family="Helvetica,sans-Serif" font-size="10.00">Framework/src/PostProcessing</text>
<text text-anchor="middle" x="3199" y="-141.5" font-family="Helvetica,sans-Serif" font-size="10.00">Runner.cxx</text>
</g>
<!-- Node1&#45;&gt;Node27 -->
<g id="edge34" class="edge"><title>Node1&#45;&gt;Node27</title>
<path fill="none" stroke="midnightblue" d="M4362.24,-215.404C4176.67,-214.463 3689.17,-207.752 3285,-165 3282.14,-164.697 3279.23,-164.36 3276.29,-163.994"/>
<polygon fill="midnightblue" stroke="midnightblue" points="4362.42,-218.905 4372.44,-215.452 4362.46,-211.905 4362.42,-218.905"/>
</g>
<!-- Node28 -->
<g id="node28" class="node"><title>Node28</title>
<g id="a_node28"><a xlink:href="QcInfoLogger_8cxx.html" target="_top" xlink:title="Framework/src/QcInfoLogger.cxx">
<polygon fill="none" stroke="black" points="3294,-140 3294,-159 3456,-159 3456,-140 3294,-140"/>
<text text-anchor="middle" x="3375" y="-147" font-family="Helvetica,sans-Serif" font-size="10.00">Framework/src/QcInfoLogger.cxx</text>
</a>
</g>
</g>
<!-- Node1&#45;&gt;Node28 -->
<g id="edge35" class="edge"><title>Node1&#45;&gt;Node28</title>
<path fill="none" stroke="midnightblue" d="M4362.34,-214.336C4197.65,-211.218 3797.94,-200.347 3465,-165 3450.99,-163.513 3435.85,-161.307 3422.05,-159.062"/>
<polygon fill="midnightblue" stroke="midnightblue" points="4362.31,-217.836 4372.38,-214.522 4362.44,-210.837 4362.31,-217.836"/>
</g>
<!-- Node29 -->
<g id="node29" class="node"><title>Node29</title>
<g id="a_node29"><a xlink:href="RepositoryBenchmark_8cxx.html" target="_top" xlink:title="Framework/src/Repository\lBenchmark.cxx">
<polygon fill="none" stroke="black" points="3474,-134.5 3474,-164.5 3606,-164.5 3606,-134.5 3474,-134.5"/>
<text text-anchor="start" x="3482" y="-152.5" font-family="Helvetica,sans-Serif" font-size="10.00">Framework/src/Repository</text>
<text text-anchor="middle" x="3540" y="-141.5" font-family="Helvetica,sans-Serif" font-size="10.00">Benchmark.cxx</text>
</a>
</g>
</g>
<!-- Node1&#45;&gt;Node29 -->
<g id="edge36" class="edge"><title>Node1&#45;&gt;Node29</title>
<path fill="none" stroke="midnightblue" d="M4362.03,-214.112C4215.89,-210.74 3888.37,-199.654 3615,-165 3612.11,-164.633 3609.15,-164.222 3606.18,-163.777"/>
<polygon fill="midnightblue" stroke="midnightblue" points="4362.16,-217.616 4372.24,-214.342 4362.32,-210.617 4362.16,-217.616"/>
</g>
<!-- Node30 -->
<g id="node30" class="node"><title>Node30</title>
<g id="a_node30"><a xlink:href="runPostProcessing_8cxx.html" target="_top" xlink:title="This is a standalone executable to run postprocessing. ">
<polygon fill="none" stroke="black" points="3624,-140 3624,-159 3810,-159 3810,-140 3624,-140"/>
<text text-anchor="middle" x="3717" y="-147" font-family="Helvetica,sans-Serif" font-size="10.00">Framework/src/runPostProcessing.cxx</text>
</a>
</g>
</g>
<!-- Node1&#45;&gt;Node30 -->
<g id="edge38" class="edge"><title>Node1&#45;&gt;Node30</title>
<path fill="none" stroke="midnightblue" d="M4362.04,-210.72C4244.7,-203.096 4014.08,-186.791 3819,-165 3803.89,-163.312 3787.57,-161.147 3772.51,-159.007"/>
<polygon fill="midnightblue" stroke="midnightblue" points="4362.15,-214.235 4372.35,-211.387 4362.6,-207.249 4362.15,-214.235"/>
</g>
<!-- Node31 -->
<g id="node31" class="node"><title>Node31</title>
<g id="a_node31"><a xlink:href="runQC_8cxx.html" target="_top" xlink:title="This is an executable which generates a QC topology given a configuration file. ">
<polygon fill="none" stroke="black" points="3828,-140 3828,-159 3960,-159 3960,-140 3828,-140"/>
<text text-anchor="middle" x="3894" y="-147" font-family="Helvetica,sans-Serif" font-size="10.00">Framework/src/runQC.cxx</text>
</a>
</g>
</g>
<!-- Node1&#45;&gt;Node31 -->
<g id="edge39" class="edge"><title>Node1&#45;&gt;Node31</title>
<path fill="none" stroke="midnightblue" d="M4362.2,-209.16C4269.11,-201.031 4107.6,-185.5 3970,-165 3958.71,-163.318 3946.53,-161.154 3935.31,-159.014"/>
<polygon fill="midnightblue" stroke="midnightblue" points="4362.11,-212.666 4372.38,-210.043 4362.72,-205.692 4362.11,-212.666"/>
</g>
<!-- Node32 -->
<g id="node32" class="node"><title>Node32</title>
<polygon fill="none" stroke="#bfbfbf" points="3978.5,-140 3978.5,-159 4159.5,-159 4159.5,-140 3978.5,-140"/>
<text text-anchor="middle" x="4069" y="-147" font-family="Helvetica,sans-Serif" font-size="10.00">Framework/src/ServiceDiscovery.cxx</text>
</g>
<!-- Node1&#45;&gt;Node32 -->
<g id="edge40" class="edge"><title>Node1&#45;&gt;Node32</title>
<path fill="none" stroke="midnightblue" d="M4362.29,-202.024C4288.75,-189.105 4179.97,-169.996 4117.64,-159.045"/>
<polygon fill="midnightblue" stroke="midnightblue" points="4361.97,-205.521 4372.42,-203.804 4363.18,-198.627 4361.97,-205.521"/>
</g>
<!-- Node33 -->
<g id="node33" class="node"><title>Node33</title>
<g id="a_node33"><a xlink:href="TaskInterface_8cxx.html" target="_top" xlink:title="Framework/src/TaskInterface.cxx">
<polygon fill="none" stroke="black" points="4178,-140 4178,-159 4342,-159 4342,-140 4178,-140"/>
<text text-anchor="middle" x="4260" y="-147" font-family="Helvetica,sans-Serif" font-size="10.00">Framework/src/TaskInterface.cxx</text>
</a>
</g>
</g>
<!-- Node1&#45;&gt;Node33 -->
<g id="edge42" class="edge"><title>Node1&#45;&gt;Node33</title>
<path fill="none" stroke="midnightblue" d="M4390.66,-197.946C4355.89,-185.321 4310.53,-168.85 4283.43,-159.007"/>
<polygon fill="midnightblue" stroke="midnightblue" points="4389.57,-201.273 4400.16,-201.396 4391.95,-194.693 4389.57,-201.273"/>
</g>
<!-- Node34 -->
<g id="node34" class="node"><title>Node34</title>
<g id="a_node34"><a xlink:href="TaskRunner_8cxx.html" target="_top" xlink:title="Framework/src/TaskRunner.cxx">
<polygon fill="none" stroke="black" points="4360.5,-140 4360.5,-159 4517.5,-159 4517.5,-140 4360.5,-140"/>
<text text-anchor="middle" x="4439" y="-147" font-family="Helvetica,sans-Serif" font-size="10.00">Framework/src/TaskRunner.cxx</text>
</a>
</g>
</g>
<!-- Node1&#45;&gt;Node34 -->
<g id="edge43" class="edge"><title>Node1&#45;&gt;Node34</title>
<path fill="none" stroke="midnightblue" d="M4439,-191.25C4439,-180.017 4439,-167.377 4439,-159.195"/>
<polygon fill="midnightblue" stroke="midnightblue" points="4435.5,-191.396 4439,-201.396 4442.5,-191.396 4435.5,-191.396"/>
</g>
<!-- Node35 -->
<g id="node35" class="node"><title>Node35</title>
<g id="a_node35"><a xlink:href="TriggerHelpers_8cxx.html" target="_top" xlink:title="Framework/src/TriggerHelpers.cxx">
<polygon fill="none" stroke="black" points="4535.5,-140 4535.5,-159 4702.5,-159 4702.5,-140 4535.5,-140"/>
<text text-anchor="middle" x="4619" y="-147" font-family="Helvetica,sans-Serif" font-size="10.00">Framework/src/TriggerHelpers.cxx</text>
</a>
</g>
</g>
<!-- Node1&#45;&gt;Node35 -->
<g id="edge45" class="edge"><title>Node1&#45;&gt;Node35</title>
<path fill="none" stroke="midnightblue" d="M4487.61,-197.946C4522.57,-185.321 4568.18,-168.85 4595.44,-159.007"/>
<polygon fill="midnightblue" stroke="midnightblue" points="4486.27,-194.708 4478.06,-201.396 4488.65,-201.291 4486.27,-194.708"/>
</g>
<!-- Node36 -->
<g id="node36" class="node"><title>Node36</title>
<g id="a_node36"><a xlink:href="Triggers_8cxx.html" target="_top" xlink:title="Framework/src/Triggers.cxx">
<polygon fill="none" stroke="black" points="4720.5,-140 4720.5,-159 4859.5,-159 4859.5,-140 4720.5,-140"/>
<text text-anchor="middle" x="4790" y="-147" font-family="Helvetica,sans-Serif" font-size="10.00">Framework/src/Triggers.cxx</text>
</a>
</g>
</g>
<!-- Node1&#45;&gt;Node36 -->
<g id="edge46" class="edge"><title>Node1&#45;&gt;Node36</title>
<path fill="none" stroke="midnightblue" d="M4515.73,-201.325C4570.44,-191.213 4645.75,-177.286 4712,-165 4722.43,-163.066 4733.64,-160.984 4744.22,-159.017"/>
<polygon fill="midnightblue" stroke="midnightblue" points="4514.96,-197.909 4505.76,-203.168 4516.23,-204.792 4514.96,-197.909"/>
</g>
<!-- Node37 -->
<g id="node37" class="node"><title>Node37</title>
<g id="a_node37"><a xlink:href="testCcdbDatabase_8cxx.html" target="_top" xlink:title="Framework/test/testCcdbDatabase.cxx">
<polygon fill="none" stroke="black" points="4878,-140 4878,-159 5066,-159 5066,-140 4878,-140"/>
<text text-anchor="middle" x="4972" y="-147" font-family="Helvetica,sans-Serif" font-size="10.00">Framework/test/testCcdbDatabase.cxx</text>
</a>
</g>
</g>
<!-- Node1&#45;&gt;Node37 -->
<g id="edge47" class="edge"><title>Node1&#45;&gt;Node37</title>
<path fill="none" stroke="midnightblue" d="M4515.67,-207.033C4601.73,-197.405 4745.48,-180.945 4869,-165 4883.33,-163.15 4898.76,-161.041 4913.21,-159.014"/>
<polygon fill="midnightblue" stroke="midnightblue" points="4515.27,-203.555 4505.72,-208.144 4516.05,-210.512 4515.27,-203.555"/>
</g>
<!-- Node38 -->
<g id="node38" class="node"><title>Node38</title>
<polygon fill="none" stroke="#bfbfbf" points="5084,-134.5 5084,-164.5 5254,-164.5 5254,-134.5 5084,-134.5"/>
<text text-anchor="start" x="5092" y="-152.5" font-family="Helvetica,sans-Serif" font-size="10.00">Framework/test/testCcdbDatabase</text>
<text text-anchor="middle" x="5169" y="-141.5" font-family="Helvetica,sans-Serif" font-size="10.00">Extra.cxx</text>
</g>
<!-- Node1&#45;&gt;Node38 -->
<g id="edge48" class="edge"><title>Node1&#45;&gt;Node38</title>
<path fill="none" stroke="midnightblue" d="M4515.7,-211.243C4635.39,-204.188 4873.76,-188.479 5075,-165 5077.95,-164.656 5080.95,-164.288 5083.98,-163.902"/>
<polygon fill="midnightblue" stroke="midnightblue" points="4515.32,-207.76 4505.54,-211.838 4515.73,-214.748 4515.32,-207.76"/>
</g>
<!-- Node39 -->
<g id="node39" class="node"><title>Node39</title>
<g id="a_node39"><a xlink:href="testMonitorObject_8cxx.html" target="_top" xlink:title="Framework/test/testMonitor\lObject.cxx">
<polygon fill="none" stroke="black" points="5272.5,-134.5 5272.5,-164.5 5409.5,-164.5 5409.5,-134.5 5272.5,-134.5"/>
<text text-anchor="start" x="5280.5" y="-152.5" font-family="Helvetica,sans-Serif" font-size="10.00">Framework/test/testMonitor</text>
<text text-anchor="middle" x="5341" y="-141.5" font-family="Helvetica,sans-Serif" font-size="10.00">Object.cxx</text>
</a>
</g>
</g>
<!-- Node1&#45;&gt;Node39 -->
<g id="edge49" class="edge"><title>Node1&#45;&gt;Node39</title>
<path fill="none" stroke="midnightblue" d="M4515.94,-213.929C4662.05,-210.251 4989.51,-198.672 5263,-165 5266.01,-164.63 5269.07,-164.216 5272.17,-163.769"/>
<polygon fill="midnightblue" stroke="midnightblue" points="4515.65,-210.435 4505.74,-214.181 4515.82,-217.433 4515.65,-210.435"/>
</g>
<!-- Node40 -->
<g id="node40" class="node"><title>Node40</title>
<g id="a_node40"><a xlink:href="testQcInfoLogger_8cxx.html" target="_top" xlink:title="Framework/test/testQcInfo\lLogger.cxx">
<polygon fill="none" stroke="black" points="5428,-134.5 5428,-164.5 5562,-164.5 5562,-134.5 5428,-134.5"/>
<text text-anchor="start" x="5436" y="-152.5" font-family="Helvetica,sans-Serif" font-size="10.00">Framework/test/testQcInfo</text>
<text text-anchor="middle" x="5495" y="-141.5" font-family="Helvetica,sans-Serif" font-size="10.00">Logger.cxx</text>
</a>
</g>
</g>
<!-- Node1&#45;&gt;Node40 -->
<g id="edge50" class="edge"><title>Node1&#45;&gt;Node40</title>
<path fill="none" stroke="midnightblue" d="M4515.6,-215.116C4681.09,-213.506 5084.14,-205.379 5419,-165 5421.93,-164.646 5424.92,-164.246 5427.94,-163.81"/>
<polygon fill="midnightblue" stroke="midnightblue" points="4515.48,-211.617 4505.52,-215.209 4515.55,-218.617 4515.48,-211.617"/>
</g>
<!-- Node41 -->
<g id="node41" class="node"><title>Node41</title>
<g id="a_node41"><a xlink:href="testQuality_8cxx.html" target="_top" xlink:title="Framework/test/testQuality.cxx">
<polygon fill="none" stroke="black" points="5580,-140 5580,-159 5734,-159 5734,-140 5580,-140"/>
<text text-anchor="middle" x="5657" y="-147" font-family="Helvetica,sans-Serif" font-size="10.00">Framework/test/testQuality.cxx</text>
</a>
</g>
</g>
<!-- Node1&#45;&gt;Node41 -->
<g id="edge51" class="edge"><title>Node1&#45;&gt;Node41</title>
<path fill="none" stroke="midnightblue" d="M4515.62,-215.312C4698.65,-214.16 5175.49,-207.004 5571,-165 5584.55,-163.561 5599.2,-161.341 5612.51,-159.068"/>
<polygon fill="midnightblue" stroke="midnightblue" points="4515.54,-211.812 4505.56,-215.371 4515.58,-218.812 4515.54,-211.812"/>
</g>
<!-- Node42 -->
<g id="node42" class="node"><title>Node42</title>
<g id="a_node42"><a xlink:href="testTaskInterface_8cxx.html" target="_top" xlink:title="Framework/test/testTaskInterface.cxx">
<polygon fill="none" stroke="black" points="5752.5,-140 5752.5,-159 5935.5,-159 5935.5,-140 5752.5,-140"/>
<text text-anchor="middle" x="5844" y="-147" font-family="Helvetica,sans-Serif" font-size="10.00">Framework/test/testTaskInterface.cxx</text>
</a>
</g>
</g>
<!-- Node1&#45;&gt;Node42 -->
<g id="edge52" class="edge"><title>Node1&#45;&gt;Node42</title>
<path fill="none" stroke="midnightblue" d="M4515.84,-215.307C4717.51,-214.198 5278.39,-207.232 5743,-165 5758.97,-163.549 5776.27,-161.311 5791.96,-159.025"/>
<polygon fill="midnightblue" stroke="midnightblue" points="4515.64,-211.808 4505.65,-215.36 4515.67,-218.808 4515.64,-211.808"/>
</g>
<!-- Node43 -->
<g id="node43" class="node"><title>Node43</title>
<g id="a_node43"><a xlink:href="MeanIsAbove_8cxx.html" target="_top" xlink:title="Modules/Common/src\l/MeanIsAbove.cxx">
<polygon fill="none" stroke="black" points="5953.5,-134.5 5953.5,-164.5 6066.5,-164.5 6066.5,-134.5 5953.5,-134.5"/>
<text text-anchor="start" x="5961.5" y="-152.5" font-family="Helvetica,sans-Serif" font-size="10.00">Modules/Common/src</text>
<text text-anchor="middle" x="6010" y="-141.5" font-family="Helvetica,sans-Serif" font-size="10.00">/MeanIsAbove.cxx</text>
</a>
</g>
</g>
<!-- Node1&#45;&gt;Node43 -->
<g id="edge53" class="edge"><title>Node1&#45;&gt;Node43</title>
<path fill="none" stroke="midnightblue" d="M4515.95,-214.811C4782.34,-212.129 5664.26,-200.705 5945,-165 5947.75,-164.65 5950.56,-164.238 5953.39,-163.779"/>
<polygon fill="midnightblue" stroke="midnightblue" points="4515.57,-211.314 4505.61,-214.914 4515.64,-218.314 4515.57,-211.314"/>
</g>
<!-- Node44 -->
<g id="node44" class="node"><title>Node44</title>
<g id="a_node44"><a xlink:href="DaqTask_8cxx.html" target="_top" xlink:title="Modules/Daq/src/DaqTask.cxx">
<polygon fill="none" stroke="black" points="6085,-140 6085,-159 6237,-159 6237,-140 6085,-140"/>
<text text-anchor="middle" x="6161" y="-147" font-family="Helvetica,sans-Serif" font-size="10.00">Modules/Daq/src/DaqTask.cxx</text>
</a>
</g>
</g>
<!-- Node1&#45;&gt;Node44 -->
<g id="edge54" class="edge"><title>Node1&#45;&gt;Node44</title>
<path fill="none" stroke="midnightblue" d="M4515.9,-214.538C4796.87,-210.805 5767.54,-195.918 6076,-165 6089.7,-163.626 6104.54,-161.367 6117.92,-159.037"/>
<polygon fill="midnightblue" stroke="midnightblue" points="4515.76,-211.04 4505.8,-214.672 4515.85,-218.039 4515.76,-211.04"/>
</g>
<!-- Node45 -->
<g id="node45" class="node"><title>Node45</title>
<g id="a_node45"><a xlink:href="EverIncreasingGraph_8cxx.html" target="_top" xlink:title="Modules/Daq/src/EverIncreasing\lGraph.cxx">
<polygon fill="none" stroke="black" points="6255.5,-134.5 6255.5,-164.5 6414.5,-164.5 6414.5,-134.5 6255.5,-134.5"/>
<text text-anchor="start" x="6263.5" y="-152.5" font-family="Helvetica,sans-Serif" font-size="10.00">Modules/Daq/src/EverIncreasing</text>
<text text-anchor="middle" x="6335" y="-141.5" font-family="Helvetica,sans-Serif" font-size="10.00">Graph.cxx</text>
</a>
</g>
</g>
<!-- Node1&#45;&gt;Node45 -->
<g id="edge55" class="edge"><title>Node1&#45;&gt;Node45</title>
<path fill="none" stroke="midnightblue" d="M4516.2,-214.717C4815.89,-211.465 5902.49,-197.635 6246,-165 6249.12,-164.704 6252.29,-164.366 6255.49,-163.993"/>
<polygon fill="midnightblue" stroke="midnightblue" points="4515.84,-211.221 4505.88,-214.828 4515.91,-218.22 4515.84,-211.221"/>
</g>
<!-- Node46 -->
<g id="node46" class="node"><title>Node46</title>
<g id="a_node46"><a xlink:href="DigitsQcTask_8cxx.html" target="_top" xlink:title="Modules/EMCAL/src/Digits\lQcTask.cxx">
<polygon fill="none" stroke="black" points="6433,-134.5 6433,-164.5 6569,-164.5 6569,-134.5 6433,-134.5"/>
<text text-anchor="start" x="6441" y="-152.5" font-family="Helvetica,sans-Serif" font-size="10.00">Modules/EMCAL/src/Digits</text>
<text text-anchor="middle" x="6501" y="-141.5" font-family="Helvetica,sans-Serif" font-size="10.00">QcTask.cxx</text>
</a>
</g>
</g>
<!-- Node1&#45;&gt;Node46 -->
<g id="edge56" class="edge"><title>Node1&#45;&gt;Node46</title>
<path fill="none" stroke="midnightblue" d="M4515.55,-215.198C4832.59,-213.692 6043.87,-205.362 6424,-165 6426.84,-164.698 6429.73,-164.349 6432.65,-163.961"/>
<polygon fill="midnightblue" stroke="midnightblue" points="4515.52,-211.698 4505.54,-215.244 4515.56,-218.698 4515.52,-211.698"/>
</g>
<!-- Node47 -->
<g id="node47" class="node"><title>Node47</title>
<g id="a_node47"><a xlink:href="RawTask_8cxx.html" target="_top" xlink:title="Modules/EMCAL/src/RawTask.cxx">
<polygon fill="none" stroke="black" points="6587.5,-140 6587.5,-159 6758.5,-159 6758.5,-140 6587.5,-140"/>
<text text-anchor="middle" x="6673" y="-147" font-family="Helvetica,sans-Serif" font-size="10.00">Modules/EMCAL/src/RawTask.cxx</text>
</a>
</g>
</g>
<!-- Node1&#45;&gt;Node47 -->
<g id="edge57" class="edge"><title>Node1&#45;&gt;Node47</title>
<path fill="none" stroke="midnightblue" d="M4515.61,-215.006C4847.79,-212.661 6165.29,-201.218 6578,-165 6593.29,-163.658 6609.86,-161.408 6624.82,-159.076"/>
<polygon fill="midnightblue" stroke="midnightblue" points="4515.58,-211.506 4505.61,-215.076 4515.63,-218.506 4515.58,-211.506"/>
</g>
<!-- Node48 -->
<g id="node48" class="node"><title>Node48</title>
<g id="a_node48"><a xlink:href="BenchmarkTask_8cxx.html" target="_top" xlink:title="Modules/Example/src\l/BenchmarkTask.cxx">
<polygon fill="none" stroke="black" points="6776.5,-134.5 6776.5,-164.5 6887.5,-164.5 6887.5,-134.5 6776.5,-134.5"/>
<text text-anchor="start" x="6784.5" y="-152.5" font-family="Helvetica,sans-Serif" font-size="10.00">Modules/Example/src</text>
<text text-anchor="middle" x="6832" y="-141.5" font-family="Helvetica,sans-Serif" font-size="10.00">/BenchmarkTask.cxx</text>
</a>
</g>
</g>
<!-- Node1&#45;&gt;Node48 -->
<g id="edge58" class="edge"><title>Node1&#45;&gt;Node48</title>
<path fill="none" stroke="midnightblue" d="M4515.89,-214.752C4893.29,-210.958 6540.76,-192.918 6768,-165 6770.71,-164.667 6773.48,-164.268 6776.27,-163.82"/>
<polygon fill="midnightblue" stroke="midnightblue" points="4515.59,-211.255 4505.62,-214.855 4515.66,-218.255 4515.59,-211.255"/>
</g>
<!-- Node49 -->
<g id="node49" class="node"><title>Node49</title>
<g id="a_node49"><a xlink:href="ExampleTask_8cxx.html" target="_top" xlink:title="Modules/Example/src\l/ExampleTask.cxx">
<polygon fill="none" stroke="black" points="6905.5,-134.5 6905.5,-164.5 7016.5,-164.5 7016.5,-134.5 6905.5,-134.5"/>
<text text-anchor="start" x="6913.5" y="-152.5" font-family="Helvetica,sans-Serif" font-size="10.00">Modules/Example/src</text>
<text text-anchor="middle" x="6961" y="-141.5" font-family="Helvetica,sans-Serif" font-size="10.00">/ExampleTask.cxx</text>
</a>
</g>
</g>
<!-- Node1&#45;&gt;Node49 -->
<g id="edge59" class="edge"><title>Node1&#45;&gt;Node49</title>
<path fill="none" stroke="midnightblue" d="M4515.69,-214.848C4905.3,-211.412 6656.25,-194.438 6897,-165 6899.71,-164.668 6902.48,-164.271 6905.27,-163.824"/>
<polygon fill="midnightblue" stroke="midnightblue" points="4515.62,-211.348 4505.65,-214.936 4515.68,-218.348 4515.62,-211.348"/>
</g>
<!-- Node50 -->
<g id="node50" class="node"><title>Node50</title>
<g id="a_node50"><a xlink:href="BasicDigitQcTask_8cxx.html" target="_top" xlink:title="Modules/MFT/src/BasicDigit\lQcTask.cxx">
<polygon fill="none" stroke="black" points="7034.5,-134.5 7034.5,-164.5 7175.5,-164.5 7175.5,-134.5 7034.5,-134.5"/>
<text text-anchor="start" x="7042.5" y="-152.5" font-family="Helvetica,sans-Serif" font-size="10.00">Modules/MFT/src/BasicDigit</text>
<text text-anchor="middle" x="7105" y="-141.5" font-family="Helvetica,sans-Serif" font-size="10.00">QcTask.cxx</text>
</a>
</g>
</g>
<!-- Node1&#45;&gt;Node50 -->
<g id="edge60" class="edge"><title>Node1&#45;&gt;Node50</title>
<path fill="none" stroke="midnightblue" d="M4515.79,-215.68C4889.52,-216.297 6520.65,-215.97 7026,-165 7028.77,-164.72 7031.6,-164.395 7034.45,-164.035"/>
<polygon fill="midnightblue" stroke="midnightblue" points="4515.63,-212.179 4505.62,-215.662 4515.62,-219.179 4515.63,-212.179"/>
</g>
<!-- Node51 -->
<g id="node51" class="node"><title>Node51</title>
<g id="a_node51"><a xlink:href="SkeletonTask_8cxx.html" target="_top" xlink:title="Modules/Skeleton/src\l/SkeletonTask.cxx">
<polygon fill="none" stroke="black" points="7193.5,-134.5 7193.5,-164.5 7304.5,-164.5 7304.5,-134.5 7193.5,-134.5"/>
<text text-anchor="start" x="7201.5" y="-152.5" font-family="Helvetica,sans-Serif" font-size="10.00">Modules/Skeleton/src</text>
<text text-anchor="middle" x="7249" y="-141.5" font-family="Helvetica,sans-Serif" font-size="10.00">/SkeletonTask.cxx</text>
</a>
</g>
</g>
<!-- Node1&#45;&gt;Node51 -->
<g id="edge61" class="edge"><title>Node1&#45;&gt;Node51</title>
<path fill="none" stroke="midnightblue" d="M4515.71,-215.026C4932.32,-212.323 6914.13,-197.825 7185,-165 7187.71,-164.671 7190.48,-164.276 7193.27,-163.831"/>
<polygon fill="midnightblue" stroke="midnightblue" points="4515.56,-211.526 4505.58,-215.091 4515.61,-218.526 4515.56,-211.526"/>
</g>
<!-- Node52 -->
<g id="node52" class="node"><title>Node52</title>
<g id="a_node52"><a xlink:href="TOFTask_8cxx.html" target="_top" xlink:title="Modules/TOF/src/TOFTask.cxx">
<polygon fill="none" stroke="black" points="7322.5,-140 7322.5,-159 7477.5,-159 7477.5,-140 7322.5,-140"/>
<text text-anchor="middle" x="7400" y="-147" font-family="Helvetica,sans-Serif" font-size="10.00">Modules/TOF/src/TOFTask.cxx</text>
</a>
</g>
</g>
<!-- Node1&#45;&gt;Node52 -->
<g id="edge62" class="edge"><title>Node1&#45;&gt;Node52</title>
<path fill="none" stroke="midnightblue" d="M4516.05,-215.706C4914.89,-216.534 6748.15,-217.376 7314,-165 7328.02,-163.702 7343.21,-161.434 7356.86,-159.071"/>
<polygon fill="midnightblue" stroke="midnightblue" points="4515.79,-212.205 4505.78,-215.684 4515.77,-219.205 4515.79,-212.205"/>
</g>
<!-- Node53 -->
<g id="node53" class="node"><title>Node53</title>
<g id="a_node53"><a xlink:href="PID_8cxx.html" target="_top" xlink:title="Modules/TPC/src/PID.cxx">
<polygon fill="none" stroke="black" points="7496,-140 7496,-159 7628,-159 7628,-140 7496,-140"/>
<text text-anchor="middle" x="7562" y="-147" font-family="Helvetica,sans-Serif" font-size="10.00">Modules/TPC/src/PID.cxx</text>
</a>
</g>
</g>
<!-- Node1&#45;&gt;Node53 -->
<g id="edge63" class="edge"><title>Node1&#45;&gt;Node53</title>
<path fill="none" stroke="midnightblue" d="M4515.76,-215.03C4959.19,-212.208 7183.91,-196.565 7487,-165 7499.4,-163.709 7512.8,-161.411 7524.81,-159.019"/>
<polygon fill="midnightblue" stroke="midnightblue" points="4515.59,-211.531 4505.62,-215.094 4515.64,-218.531 4515.59,-211.531"/>
</g>
<!-- Node2&#45;&gt;Node3 -->
<g id="edge2" class="edge"><title>Node2&#45;&gt;Node3</title>
<path fill="none" stroke="midnightblue" d="M1626.41,-140.203C1507.9,-127.365 1282.07,-102.899 1169.8,-90.7368"/>
<polygon fill="midnightblue" stroke="midnightblue" points="1626.18,-143.698 1636.5,-141.296 1626.93,-136.739 1626.18,-143.698"/>
</g>
<!-- Node2&#45;&gt;Node6 -->
<g id="edge22" class="edge"><title>Node2&#45;&gt;Node6</title>
<path fill="none" stroke="midnightblue" d="M1736.1,-129.292C1767.19,-111.713 1815.33,-85.6736 1859,-67 1892.15,-52.8238 1930.73,-39.8404 1960.32,-30.5888"/>
<polygon fill="midnightblue" stroke="midnightblue" points="1733.98,-126.47 1727.02,-134.458 1737.44,-132.554 1733.98,-126.47"/>
</g>
<!-- Node15 -->
<g id="node15" class="node"><title>Node15</title>
<g id="a_node15"><a xlink:href="CheckRunnerFactory_8h.html" target="_top" xlink:title="Framework/include/Quality\lControl/CheckRunnerFactory.h">
<polygon fill="none" stroke="black" points="1467,-67.5 1467,-97.5 1619,-97.5 1619,-67.5 1467,-67.5"/>
<text text-anchor="start" x="1475" y="-85.5" font-family="Helvetica,sans-Serif" font-size="10.00">Framework/include/Quality</text>
<text text-anchor="middle" x="1543" y="-74.5" font-family="Helvetica,sans-Serif" font-size="10.00">Control/CheckRunnerFactory.h</text>
</a>
</g>
</g>
<!-- Node2&#45;&gt;Node15 -->
<g id="edge14" class="edge"><title>Node2&#45;&gt;Node15</title>
<path fill="none" stroke="midnightblue" d="M1658.8,-130.544C1633.2,-120.143 1601.43,-107.238 1577.65,-97.5765"/>
<polygon fill="midnightblue" stroke="midnightblue" points="1657.7,-133.875 1668.28,-134.396 1660.34,-127.39 1657.7,-133.875"/>
</g>
<!-- Node17 -->
<g id="node17" class="node"><title>Node17</title>
<polygon fill="none" stroke="#bfbfbf" points="1637,-73 1637,-92 1769,-92 1769,-73 1637,-73"/>
<text text-anchor="middle" x="1703" y="-80" font-family="Helvetica,sans-Serif" font-size="10.00">Framework/src/Check.cxx</text>
</g>
<!-- Node2&#45;&gt;Node17 -->
<g id="edge21" class="edge"><title>Node2&#45;&gt;Node17</title>
<path fill="none" stroke="midnightblue" d="M1703,-124.25C1703,-113.017 1703,-100.377 1703,-92.1945"/>
<polygon fill="midnightblue" stroke="midnightblue" points="1699.5,-124.396 1703,-134.396 1706.5,-124.396 1699.5,-124.396"/>
</g>
<!-- Node4 -->
<g id="node4" class="node"><title>Node4</title>
<g id="a_node4"><a xlink:href="CheckRunner_8cxx.html" target="_top" xlink:title="Framework/src/CheckRunner.cxx">
<polygon fill="none" stroke="black" points="0,-6 0,-25 164,-25 164,-6 0,-6"/>
<text text-anchor="middle" x="82" y="-13" font-family="Helvetica,sans-Serif" font-size="10.00">Framework/src/CheckRunner.cxx</text>
</a>
</g>
</g>
<!-- Node3&#45;&gt;Node4 -->
<g id="edge3" class="edge"><title>Node3&#45;&gt;Node4</title>
<path fill="none" stroke="midnightblue" d="M1026.09,-80.0215C866.613,-76.3622 488.451,-64.6051 173,-31 158.842,-29.4917 143.529,-27.2797 129.576,-25.0354"/>
<polygon fill="midnightblue" stroke="midnightblue" points="1026.2,-83.5247 1036.28,-80.251 1026.36,-76.5265 1026.2,-83.5247"/>
</g>
<!-- Node5 -->
<g id="node5" class="node"><title>Node5</title>
<g id="a_node5"><a xlink:href="CheckRunnerFactory_8cxx.html" target="_top" xlink:title="Framework/src/CheckRunner\lFactory.cxx">
<polygon fill="none" stroke="black" points="1030.5,-0.5 1030.5,-30.5 1175.5,-30.5 1175.5,-0.5 1030.5,-0.5"/>
<text text-anchor="start" x="1038.5" y="-18.5" font-family="Helvetica,sans-Serif" font-size="10.00">Framework/src/CheckRunner</text>
<text text-anchor="middle" x="1103" y="-7.5" font-family="Helvetica,sans-Serif" font-size="10.00">Factory.cxx</text>
</a>
</g>
</g>
<!-- Node3&#45;&gt;Node5 -->
<g id="edge4" class="edge"><title>Node3&#45;&gt;Node5</title>
<path fill="none" stroke="midnightblue" d="M1103,-57.1081C1103,-48.1539 1103,-38.3227 1103,-30.5765"/>
<polygon fill="midnightblue" stroke="midnightblue" points="1099.5,-57.3959 1103,-67.396 1106.5,-57.396 1099.5,-57.3959"/>
</g>
<!-- Node3&#45;&gt;Node6 -->
<g id="edge5" class="edge"><title>Node3&#45;&gt;Node6</title>
<path fill="none" stroke="midnightblue" d="M1180,-77.9255C1356.03,-69.5676 1783.72,-48.1561 1927,-31 1929.98,-30.6433 1933.01,-30.2476 1936.08,-29.8216"/>
<polygon fill="midnightblue" stroke="midnightblue" points="1179.61,-74.4401 1169.78,-78.4093 1179.94,-81.4322 1179.61,-74.4401"/>
</g>
<!-- Node7 -->
<g id="node7" class="node"><title>Node7</title>
<g id="a_node7"><a xlink:href="runBasic_8cxx.html" target="_top" xlink:title="This is an executable showing QC Task&#39;s usage in Data Processing Layer. ">
<polygon fill="none" stroke="black" points="182,-6 182,-25 324,-25 324,-6 182,-6"/>
<text text-anchor="middle" x="253" y="-13" font-family="Helvetica,sans-Serif" font-size="10.00">Framework/src/runBasic.cxx</text>
</a>
</g>
</g>
<!-- Node3&#45;&gt;Node7 -->
<g id="edge6" class="edge"><title>Node3&#45;&gt;Node7</title>
<path fill="none" stroke="midnightblue" d="M1026.22,-79.3574C887.398,-74.841 585.628,-62.0763 333,-31 320.531,-29.4662 307.063,-27.2464 294.798,-25.0028"/>
<polygon fill="midnightblue" stroke="midnightblue" points="1026.22,-82.8593 1036.33,-79.6812 1026.45,-75.8629 1026.22,-82.8593"/>
</g>
<!-- Node3&#45;&gt;Node8 -->
<g id="edge7" class="edge"><title>Node3&#45;&gt;Node8</title>
<path fill="none" stroke="midnightblue" d="M1180.07,-77.3012C1300.33,-70.3227 1539.83,-54.715 1742,-31 1755.96,-29.3628 1771.03,-27.1892 1784.9,-25.0244"/>
<polygon fill="midnightblue" stroke="midnightblue" points="1179.64,-73.8198 1169.86,-77.8894 1180.04,-80.8082 1179.64,-73.8198"/>
</g>
<!-- Node9 -->
<g id="node9" class="node"><title>Node9</title>
<g id="a_node9"><a xlink:href="testCheckRunner_8cxx.html" target="_top" xlink:title="Framework/test/testCheck\lRunner.cxx">
<polygon fill="none" stroke="black" points="1193.5,-0.5 1193.5,-30.5 1326.5,-30.5 1326.5,-0.5 1193.5,-0.5"/>
<text text-anchor="start" x="1201.5" y="-18.5" font-family="Helvetica,sans-Serif" font-size="10.00">Framework/test/testCheck</text>
<text text-anchor="middle" x="1260" y="-7.5" font-family="Helvetica,sans-Serif" font-size="10.00">Runner.cxx</text>
</a>
</g>
</g>
<!-- Node3&#45;&gt;Node9 -->
<g id="edge8" class="edge"><title>Node3&#45;&gt;Node9</title>
<path fill="none" stroke="midnightblue" d="M1146.37,-63.5442C1171.49,-53.143 1202.66,-40.238 1226,-30.5765"/>
<polygon fill="midnightblue" stroke="midnightblue" points="1144.97,-60.3368 1137.07,-67.396 1147.64,-66.8045 1144.97,-60.3368"/>
</g>
<!-- Node10 -->
<g id="node10" class="node"><title>Node10</title>
<g id="a_node10"><a xlink:href="testCheckWorkflow_8cxx.html" target="_top" xlink:title="Framework/test/testCheck\lWorkflow.cxx">
<polygon fill="none" stroke="black" points="342.5,-0.5 342.5,-30.5 475.5,-30.5 475.5,-0.5 342.5,-0.5"/>
<text text-anchor="start" x="350.5" y="-18.5" font-family="Helvetica,sans-Serif" font-size="10.00">Framework/test/testCheck</text>
<text text-anchor="middle" x="409" y="-7.5" font-family="Helvetica,sans-Serif" font-size="10.00">Workflow.cxx</text>
</a>
</g>
</g>
<!-- Node3&#45;&gt;Node10 -->
<g id="edge9" class="edge"><title>Node3&#45;&gt;Node10</title>
<path fill="none" stroke="midnightblue" d="M1026.15,-77.8681C908.996,-71.7349 678.887,-57.3406 485,-31 481.939,-30.5841 478.814,-30.1259 475.662,-29.6363"/>
<polygon fill="midnightblue" stroke="midnightblue" points="1026.27,-81.3793 1036.44,-78.401 1026.64,-74.3887 1026.27,-81.3793"/>
</g>
<!-- Node11 -->
<g id="node11" class="node"><title>Node11</title>
<g id="a_node11"><a xlink:href="testWorkflow_8cxx.html" target="_top" xlink:title="Framework/test/testWorkflow.cxx">
<polygon fill="none" stroke="black" points="494,-6 494,-25 658,-25 658,-6 494,-6"/>
<text text-anchor="middle" x="576" y="-13" font-family="Helvetica,sans-Serif" font-size="10.00">Framework/test/testWorkflow.cxx</text>
</a>
</g>
</g>
<!-- Node3&#45;&gt;Node11 -->
<g id="edge10" class="edge"><title>Node3&#45;&gt;Node11</title>
<path fill="none" stroke="midnightblue" d="M1026.34,-73.6219C939.16,-64.4306 792.624,-48.2757 667,-31 654.004,-29.2128 639.997,-27.0828 626.96,-25.013"/>
<polygon fill="midnightblue" stroke="midnightblue" points="1026.1,-77.1158 1036.41,-74.6805 1026.83,-70.1542 1026.1,-77.1158"/>
</g>
<!-- Node12 -->
<g id="node12" class="node"><title>Node12</title>
<polygon fill="none" stroke="#bfbfbf" points="1345,-6 1345,-25 1563,-25 1563,-6 1345,-6"/>
<text text-anchor="middle" x="1454" y="-13" font-family="Helvetica,sans-Serif" font-size="10.00">Modules/EMCAL/src/runQCEMCALDigits.cxx</text>
</g>
<!-- Node3&#45;&gt;Node12 -->
<g id="edge11" class="edge"><title>Node3&#45;&gt;Node12</title>
<path fill="none" stroke="midnightblue" d="M1179.91,-67.2583C1249.65,-54.3425 1350.15,-35.7318 1408.09,-25.002"/>
<polygon fill="midnightblue" stroke="midnightblue" points="1179.04,-63.8585 1169.85,-69.121 1180.32,-70.7415 1179.04,-63.8585"/>
</g>
<!-- Node13 -->
<g id="node13" class="node"><title>Node13</title>
<g id="a_node13"><a xlink:href="runTOF_8cxx.html" target="_top" xlink:title="This is an executable showing QC Task&#39;s usage in Data Processing Layer. ">
<polygon fill="none" stroke="black" points="676.5,-6 676.5,-25 823.5,-25 823.5,-6 676.5,-6"/>
<text text-anchor="middle" x="750" y="-13" font-family="Helvetica,sans-Serif" font-size="10.00">Modules/TOF/src/runTOF.cxx</text>
</a>
</g>
</g>
<!-- Node3&#45;&gt;Node13 -->
<g id="edge12" class="edge"><title>Node3&#45;&gt;Node13</title>
<path fill="none" stroke="midnightblue" d="M1026.08,-67.336C955.966,-54.4257 854.692,-35.7776 796.287,-25.023"/>
<polygon fill="midnightblue" stroke="midnightblue" points="1025.72,-70.8287 1036.19,-69.1976 1026.99,-63.9445 1025.72,-70.8287"/>
</g>
<!-- Node14 -->
<g id="node14" class="node"><title>Node14</title>
<polygon fill="none" stroke="#bfbfbf" points="842,-0.5 842,-30.5 1012,-30.5 1012,-0.5 842,-0.5"/>
<text text-anchor="start" x="850" y="-18.5" font-family="Helvetica,sans-Serif" font-size="10.00">Modules/TPC/run/runTPCQCTrack</text>
<text text-anchor="middle" x="927" y="-7.5" font-family="Helvetica,sans-Serif" font-size="10.00">Reader.cxx</text>
</g>
<!-- Node3&#45;&gt;Node14 -->
<g id="edge13" class="edge"><title>Node3&#45;&gt;Node14</title>
<path fill="none" stroke="midnightblue" d="M1055.12,-63.8185C1026.83,-53.3707 991.506,-40.3231 965.115,-30.5765"/>
<polygon fill="midnightblue" stroke="midnightblue" points="1054.22,-67.2147 1064.81,-67.396 1056.64,-60.6482 1054.22,-67.2147"/>
</g>
<!-- Node15&#45;&gt;Node5 -->
<g id="edge15" class="edge"><title>Node15&#45;&gt;Node5</title>
<path fill="none" stroke="midnightblue" d="M1456.85,-70.3009C1384.04,-60.6163 1277.05,-45.8672 1184,-31 1181.32,-30.5717 1178.59,-30.1272 1175.84,-29.6711"/>
<polygon fill="midnightblue" stroke="midnightblue" points="1456.52,-73.7874 1466.89,-71.6333 1457.44,-66.8483 1456.52,-73.7874"/>
</g>
<!-- Node15&#45;&gt;Node6 -->
<g id="edge16" class="edge"><title>Node15&#45;&gt;Node6</title>
<path fill="none" stroke="midnightblue" d="M1629.57,-66.8172C1762.18,-47.8761 1797.86,-50.3175 1927,-31 1930.11,-30.535 1933.28,-30.0429 1936.48,-29.5317"/>
<polygon fill="midnightblue" stroke="midnightblue" points="1628.83,-63.3881 1619.43,-68.2801 1629.82,-70.3164 1628.83,-63.3881"/>
</g>
<!-- Node15&#45;&gt;Node8 -->
<g id="edge17" class="edge"><title>Node15&#45;&gt;Node8</title>
<path fill="none" stroke="midnightblue" d="M1616.1,-65.2282C1673.43,-52.4656 1750.94,-35.2116 1796.69,-25.0287"/>
<polygon fill="midnightblue" stroke="midnightblue" points="1615,-61.8867 1606,-67.476 1616.52,-68.7195 1615,-61.8867"/>
</g>
<!-- Node15&#45;&gt;Node9 -->
<g id="edge19" class="edge"><title>Node15&#45;&gt;Node9</title>
<path fill="none" stroke="midnightblue" d="M1471.97,-65.1856C1425.62,-54.5403 1365.73,-40.7841 1321.44,-30.6109"/>
<polygon fill="midnightblue" stroke="midnightblue" points="1471.41,-68.6486 1481.94,-67.476 1472.98,-61.8262 1471.41,-68.6486"/>
</g>
<!-- Node15&#45;&gt;Node12 -->
<g id="edge20" class="edge"><title>Node15&#45;&gt;Node12</title>
<path fill="none" stroke="midnightblue" d="M1515.35,-61.3056C1498.64,-49.0999 1478.2,-34.1772 1465.65,-25.007"/>
<polygon fill="midnightblue" stroke="midnightblue" points="1513.55,-64.3245 1523.69,-67.396 1517.68,-58.6716 1513.55,-64.3245"/>
</g>
<!-- Node16 -->
<g id="node16" class="node"><title>Node16</title>
<polygon fill="none" stroke="#bfbfbf" points="1581,-6 1581,-25 1733,-25 1733,-6 1581,-6"/>
<text text-anchor="middle" x="1657" y="-13" font-family="Helvetica,sans-Serif" font-size="10.00">Framework/test/testCheck.cxx</text>
</g>
<!-- Node15&#45;&gt;Node16 -->
<g id="edge18" class="edge"><title>Node15&#45;&gt;Node16</title>
<path fill="none" stroke="midnightblue" d="M1576.66,-62.3071C1598.38,-49.9256 1625.55,-34.4296 1642.08,-25.007"/>
<polygon fill="midnightblue" stroke="midnightblue" points="1574.69,-59.4022 1567.74,-67.396 1578.16,-65.4832 1574.69,-59.4022"/>
</g>
<!-- Node24 -->
<g id="node24" class="node"><title>Node24</title>
<g id="a_node24"><a xlink:href="PostProcessingFactory_8cxx.html" target="_top" xlink:title="Framework/src/PostProcessing\lFactory.cxx">
<polygon fill="none" stroke="black" points="2902,-67.5 2902,-97.5 3056,-97.5 3056,-67.5 2902,-67.5"/>
<text text-anchor="start" x="2910" y="-85.5" font-family="Helvetica,sans-Serif" font-size="10.00">Framework/src/PostProcessing</text>
<text text-anchor="middle" x="2979" y="-74.5" font-family="Helvetica,sans-Serif" font-size="10.00">Factory.cxx</text>
</a>
</g>
</g>
<!-- Node23&#45;&gt;Node24 -->
<g id="edge31" class="edge"><title>Node23&#45;&gt;Node24</title>
<path fill="none" stroke="midnightblue" d="M2979,-129.411C2979,-119.222 2979,-106.901 2979,-97.589"/>
<polygon fill="midnightblue" stroke="midnightblue" points="2975.5,-129.734 2979,-139.734 2982.5,-129.734 2975.5,-129.734"/>
</g>
<!-- Node23&#45;&gt;Node25 -->
<g id="edge32" class="edge"><title>Node23&#45;&gt;Node25</title>
<path fill="none" stroke="midnightblue" d="M2946.26,-136.271C2911.73,-123.37 2858.21,-103.376 2827.92,-92.0637"/>
<polygon fill="midnightblue" stroke="midnightblue" points="2945.3,-139.648 2955.89,-139.869 2947.75,-133.09 2945.3,-139.648"/>
</g>
<!-- Node23&#45;&gt;Node26 -->
<g id="edge33" class="edge"><title>Node23&#45;&gt;Node26</title>
<path fill="none" stroke="midnightblue" d="M3012.3,-136.271C3047.43,-123.37 3101.88,-103.376 3132.68,-92.0637"/>
<polygon fill="midnightblue" stroke="midnightblue" points="3010.68,-133.136 3002.5,-139.869 3013.1,-139.707 3010.68,-133.136"/>
</g>
</g>
</svg>
