<?xml version="1.0" encoding="UTF-8" standalone="no"?>
<!DOCTYPE svg PUBLIC "-//W3C//DTD SVG 1.1//EN"
 "http://www.w3.org/Graphics/SVG/1.1/DTD/svg11.dtd">
<!-- Generated by graphviz version 2.38.0 (20140413.2041)
 -->
<!-- Title: Modules/EMCAL/src/RawTask.cxx Pages: 1 -->
<svg width="1515pt" height="319pt"
 viewBox="0.00 0.00 1515.00 319.00" xmlns="http://www.w3.org/2000/svg" xmlns:xlink="http://www.w3.org/1999/xlink">
<g id="graph0" class="graph" transform="scale(1 1) rotate(0) translate(4 315)">
<title>Modules/EMCAL/src/RawTask.cxx</title>
<!-- Node1 -->
<g id="node1" class="node"><title>Node1</title>
<polygon fill="#bfbfbf" stroke="black" points="367,-291.5 367,-310.5 538,-310.5 538,-291.5 367,-291.5"/>
<text text-anchor="middle" x="452.5" y="-298.5" font-family="Helvetica,sans-Serif" font-size="10.00">Modules/EMCAL/src/RawTask.cxx</text>
</g>
<!-- Node2 -->
<g id="node2" class="node"><title>Node2</title>
<polygon fill="none" stroke="#bfbfbf" points="0,-230 0,-249 65,-249 65,-230 0,-230"/>
<text text-anchor="middle" x="32.5" y="-237" font-family="Helvetica,sans-Serif" font-size="10.00">TCanvas.h</text>
</g>
<!-- Node1&#45;&gt;Node2 -->
<g id="edge1" class="edge"><title>Node1&#45;&gt;Node2</title>
<path fill="none" stroke="midnightblue" d="M366.786,-295.042C289.583,-289.339 173.378,-277.678 74.5,-255 71.0884,-254.218 67.5666,-253.257 64.0811,-252.206"/>
<polygon fill="midnightblue" stroke="midnightblue" points="65.0672,-248.846 54.4748,-249.077 62.8993,-255.502 65.0672,-248.846"/>
</g>
<!-- Node3 -->
<g id="node3" class="node"><title>Node3</title>
<polygon fill="none" stroke="#bfbfbf" points="83.5,-230 83.5,-249 127.5,-249 127.5,-230 83.5,-230"/>
<text text-anchor="middle" x="105.5" y="-237" font-family="Helvetica,sans-Serif" font-size="10.00">TH1.h</text>
</g>
<!-- Node1&#45;&gt;Node3 -->
<g id="edge2" class="edge"><title>Node1&#45;&gt;Node3</title>
<path fill="none" stroke="midnightblue" d="M366.875,-294.689C302.46,-289.051 212.578,-277.66 136.5,-255 134.621,-254.44 132.711,-253.784 130.81,-253.065"/>
<polygon fill="midnightblue" stroke="midnightblue" points="132.126,-249.821 121.555,-249.109 129.375,-256.258 132.126,-249.821"/>
</g>
<!-- Node4 -->
<g id="node4" class="node"><title>Node4</title>
<polygon fill="none" stroke="#bfbfbf" points="146,-230 146,-249 217,-249 217,-230 146,-230"/>
<text text-anchor="middle" x="181.5" y="-237" font-family="Helvetica,sans-Serif" font-size="10.00">TProfile2D.h</text>
</g>
<!-- Node1&#45;&gt;Node4 -->
<g id="edge3" class="edge"><title>Node1&#45;&gt;Node4</title>
<path fill="none" stroke="midnightblue" d="M399.791,-291.44C353.515,-283.477 284.562,-270.524 225.5,-255 222.131,-254.114 218.642,-253.114 215.171,-252.062"/>
<polygon fill="midnightblue" stroke="midnightblue" points="216.138,-248.697 205.548,-249.015 214.025,-255.37 216.138,-248.697"/>
</g>
<!-- Node5 -->
<g id="node5" class="node"><title>Node5</title>
<polygon fill="none" stroke="#bfbfbf" points="235,-230 235,-249 288,-249 288,-230 235,-230"/>
<text text-anchor="middle" x="261.5" y="-237" font-family="Helvetica,sans-Serif" font-size="10.00">TMath.h</text>
</g>
<!-- Node1&#45;&gt;Node5 -->
<g id="edge4" class="edge"><title>Node1&#45;&gt;Node5</title>
<path fill="none" stroke="midnightblue" d="M418.989,-291.497C387.166,-283.15 338.135,-269.578 296.5,-255 294.591,-254.332 292.636,-253.615 290.673,-252.87"/>
<polygon fill="midnightblue" stroke="midnightblue" points="291.559,-249.456 280.973,-249.02 288.976,-255.962 291.559,-249.456"/>
</g>
<!-- Node6 -->
<g id="node6" class="node"><title>Node6</title>
<g id="a_node6"><a xlink:href="QcInfoLogger_8h.html" target="_top" xlink:title="QualityControl/QcInfoLogger.h">
<polygon fill="none" stroke="black" points="306,-230 306,-249 455,-249 455,-230 306,-230"/>
<text text-anchor="middle" x="380.5" y="-237" font-family="Helvetica,sans-Serif" font-size="10.00">QualityControl/QcInfoLogger.h</text>
</a>
</g>
</g>
<!-- Node1&#45;&gt;Node6 -->
<g id="edge5" class="edge"><title>Node1&#45;&gt;Node6</title>
<path fill="none" stroke="midnightblue" d="M442.184,-291.475C430.849,-282.108 412.427,-266.884 398.661,-255.508"/>
<polygon fill="midnightblue" stroke="midnightblue" points="400.735,-252.681 390.797,-249.009 396.276,-258.077 400.735,-252.681"/>
</g>
<!-- Node8 -->
<g id="node8" class="node"><title>Node8</title>
<g id="a_node8"><a xlink:href="RawTask_8h.html" target="_top" xlink:title="EMCAL/RawTask.h">
<polygon fill="none" stroke="black" points="473.5,-230 473.5,-249 577.5,-249 577.5,-230 473.5,-230"/>
<text text-anchor="middle" x="525.5" y="-237" font-family="Helvetica,sans-Serif" font-size="10.00">EMCAL/RawTask.h</text>
</a>
</g>
</g>
<!-- Node1&#45;&gt;Node8 -->
<g id="edge7" class="edge"><title>Node1&#45;&gt;Node8</title>
<path fill="none" stroke="midnightblue" d="M462.959,-291.475C474.451,-282.108 493.13,-266.884 507.087,-255.508"/>
<polygon fill="midnightblue" stroke="midnightblue" points="509.52,-258.04 515.06,-249.009 505.098,-252.614 509.52,-258.04"/>
</g>
<!-- Node26 -->
<g id="node26" class="node"><title>Node26</title>
<polygon fill="none" stroke="#bfbfbf" points="596,-230 596,-249 737,-249 737,-230 596,-230"/>
<text text-anchor="middle" x="666.5" y="-237" font-family="Helvetica,sans-Serif" font-size="10.00">Headers/RAWDataHeader.h</text>
</g>
<!-- Node1&#45;&gt;Node26 -->
<g id="edge34" class="edge"><title>Node1&#45;&gt;Node26</title>
<path fill="none" stroke="midnightblue" d="M483.161,-291.475C520.744,-281.026 584.544,-263.287 626.098,-251.733"/>
<polygon fill="midnightblue" stroke="midnightblue" points="627.199,-255.06 635.896,-249.009 625.324,-248.316 627.199,-255.06"/>
</g>
<!-- Node27 -->
<g id="node27" class="node"><title>Node27</title>
<polygon fill="none" stroke="#bfbfbf" points="755,-224.5 755,-254.5 872,-254.5 872,-224.5 755,-224.5"/>
<text text-anchor="start" x="763" y="-242.5" font-family="Helvetica,sans-Serif" font-size="10.00">EMCALReconstruction</text>
<text text-anchor="middle" x="813.5" y="-231.5" font-family="Helvetica,sans-Serif" font-size="10.00">/AltroDecoder.h</text>
</g>
<!-- Node1&#45;&gt;Node27 -->
<g id="edge35" class="edge"><title>Node1&#45;&gt;Node27</title>
<path fill="none" stroke="midnightblue" d="M514.976,-291.47C572.21,-283.413 659.504,-270.519 745.056,-255.016"/>
<polygon fill="midnightblue" stroke="midnightblue" points="745.728,-258.451 754.937,-253.212 744.471,-251.565 745.728,-258.451"/>
</g>
<!-- Node28 -->
<g id="node28" class="node"><title>Node28</title>
<polygon fill="none" stroke="#bfbfbf" points="890,-224.5 890,-254.5 1007,-254.5 1007,-224.5 890,-224.5"/>
<text text-anchor="start" x="898" y="-242.5" font-family="Helvetica,sans-Serif" font-size="10.00">EMCALReconstruction</text>
<text text-anchor="middle" x="948.5" y="-231.5" font-family="Helvetica,sans-Serif" font-size="10.00">/RawReaderMemory.h</text>
</g>
<!-- Node1&#45;&gt;Node28 -->
<g id="edge36" class="edge"><title>Node1&#45;&gt;Node28</title>
<path fill="none" stroke="midnightblue" d="M538.113,-293.668C622.478,-286.82 755.209,-274.417 879.86,-254.984"/>
<polygon fill="midnightblue" stroke="midnightblue" points="880.635,-258.406 889.968,-253.39 879.545,-251.491 880.635,-258.406"/>
</g>
<!-- Node29 -->
<g id="node29" class="node"><title>Node29</title>
<polygon fill="none" stroke="#bfbfbf" points="1025,-224.5 1025,-254.5 1142,-254.5 1142,-224.5 1025,-224.5"/>
<text text-anchor="start" x="1033" y="-242.5" font-family="Helvetica,sans-Serif" font-size="10.00">EMCALReconstruction</text>
<text text-anchor="middle" x="1083.5" y="-231.5" font-family="Helvetica,sans-Serif" font-size="10.00">/RawHeaderStream.h</text>
</g>
<!-- Node1&#45;&gt;Node29 -->
<g id="edge37" class="edge"><title>Node1&#45;&gt;Node29</title>
<path fill="none" stroke="midnightblue" d="M538.255,-296.624C646.918,-291.566 840.068,-279.974 1015.08,-254.92"/>
<polygon fill="midnightblue" stroke="midnightblue" points="1015.59,-258.382 1024.98,-253.484 1014.58,-251.455 1015.59,-258.382"/>
</g>
<!-- Node7 -->
<g id="node7" class="node"><title>Node7</title>
<polygon fill="none" stroke="#bfbfbf" points="311.5,-168.5 311.5,-187.5 441.5,-187.5 441.5,-168.5 311.5,-168.5"/>
<text text-anchor="middle" x="376.5" y="-175.5" font-family="Helvetica,sans-Serif" font-size="10.00">InfoLogger/InfoLogger.hxx</text>
</g>
<!-- Node6&#45;&gt;Node7 -->
<g id="edge6" class="edge"><title>Node6&#45;&gt;Node7</title>
<path fill="none" stroke="midnightblue" d="M379.927,-229.975C379.363,-221.58 378.482,-208.481 377.755,-197.663"/>
<polygon fill="midnightblue" stroke="midnightblue" points="381.235,-197.252 377.072,-187.509 374.251,-197.721 381.235,-197.252"/>
</g>
<!-- Node9 -->
<g id="node9" class="node"><title>Node9</title>
<g id="a_node9"><a xlink:href="TaskInterface_8h.html" target="_top" xlink:title="QualityControl/TaskInterface.h">
<polygon fill="none" stroke="black" points="697.5,-168.5 697.5,-187.5 847.5,-187.5 847.5,-168.5 697.5,-168.5"/>
<text text-anchor="middle" x="772.5" y="-175.5" font-family="Helvetica,sans-Serif" font-size="10.00">QualityControl/TaskInterface.h</text>
</a>
</g>
</g>
<!-- Node8&#45;&gt;Node9 -->
<g id="edge8" class="edge"><title>Node8&#45;&gt;Node9</title>
<path fill="none" stroke="midnightblue" d="M560.889,-229.975C604.726,-219.415 679.466,-201.411 727.38,-189.869"/>
<polygon fill="midnightblue" stroke="midnightblue" points="728.274,-193.254 737.177,-187.509 726.635,-186.448 728.274,-193.254"/>
</g>
<!-- Node11 -->
<g id="node11" class="node"><title>Node11</title>
<polygon fill="none" stroke="#bfbfbf" points="591.5,-56.5 591.5,-75.5 643.5,-75.5 643.5,-56.5 591.5,-56.5"/>
<text text-anchor="middle" x="617.5" y="-63.5" font-family="Helvetica,sans-Serif" font-size="10.00">memory</text>
</g>
<!-- Node8&#45;&gt;Node11 -->
<g id="edge32" class="edge"><title>Node8&#45;&gt;Node11</title>
<path fill="none" stroke="midnightblue" d="M530.189,-229.76C544.648,-202.806 588.738,-120.616 608.153,-84.4237"/>
<polygon fill="midnightblue" stroke="midnightblue" points="611.287,-85.986 612.93,-75.5194 605.118,-82.677 611.287,-85.986"/>
</g>
<!-- Node24 -->
<g id="node24" class="node"><title>Node24</title>
<polygon fill="none" stroke="#bfbfbf" points="866,-168.5 866,-187.5 983,-187.5 983,-168.5 866,-168.5"/>
<text text-anchor="middle" x="924.5" y="-175.5" font-family="Helvetica,sans-Serif" font-size="10.00">EMCALBase/Mapper.h</text>
</g>
<!-- Node8&#45;&gt;Node24 -->
<g id="edge31" class="edge"><title>Node8&#45;&gt;Node24</title>
<path fill="none" stroke="midnightblue" d="M558.613,-229.986C567.62,-227.846 577.402,-225.683 586.5,-224 589.799,-223.39 758.01,-201.066 855.853,-188.096"/>
<polygon fill="midnightblue" stroke="midnightblue" points="856.513,-191.539 865.966,-186.755 855.593,-184.6 856.513,-191.539"/>
</g>
<!-- Node25 -->
<g id="node25" class="node"><title>Node25</title>
<polygon fill="none" stroke="#bfbfbf" points="459.5,-168.5 459.5,-187.5 497.5,-187.5 497.5,-168.5 459.5,-168.5"/>
<text text-anchor="middle" x="478.5" y="-175.5" font-family="Helvetica,sans-Serif" font-size="10.00">array</text>
</g>
<!-- Node8&#45;&gt;Node25 -->
<g id="edge33" class="edge"><title>Node8&#45;&gt;Node25</title>
<path fill="none" stroke="midnightblue" d="M518.766,-229.975C511.716,-221.05 500.465,-206.807 491.646,-195.643"/>
<polygon fill="midnightblue" stroke="midnightblue" points="494.167,-193.187 485.221,-187.509 488.674,-197.526 494.167,-193.187"/>
</g>
<!-- Node10 -->
<g id="node10" class="node"><title>Node10</title>
<polygon fill="none" stroke="#bfbfbf" points="1472,-0.5 1472,-19.5 1507,-19.5 1507,-0.5 1472,-0.5"/>
<text text-anchor="middle" x="1489.5" y="-7.5" font-family="Helvetica,sans-Serif" font-size="10.00">map</text>
</g>
<!-- Node9&#45;&gt;Node10 -->
<g id="edge9" class="edge"><title>Node9&#45;&gt;Node10</title>
<path fill="none" stroke="midnightblue" d="M847.597,-168.87C850.604,-168.571 853.58,-168.28 856.5,-168 1045.64,-149.878 1095.78,-167.172 1282.5,-132 1368.6,-115.783 1410.11,-138.501 1471.5,-76 1483.41,-63.8716 1487.6,-44.5932 1489,-30.1759"/>
<polygon fill="midnightblue" stroke="midnightblue" points="1492.51,-30.0758 1489.61,-19.8851 1485.52,-29.6589 1492.51,-30.0758"/>
</g>
<!-- Node9&#45;&gt;Node11 -->
<g id="edge10" class="edge"><title>Node9&#45;&gt;Node11</title>
<path fill="none" stroke="midnightblue" d="M697.212,-172.73C668.747,-167.063 638.83,-155.398 620.5,-132 610.385,-119.089 610.778,-99.9155 613.014,-85.7359"/>
<polygon fill="midnightblue" stroke="midnightblue" points="616.502,-86.1427 615.036,-75.6497 609.639,-84.7664 616.502,-86.1427"/>
</g>
<!-- Node12 -->
<g id="node12" class="node"><title>Node12</title>
<polygon fill="none" stroke="#bfbfbf" points="1024,-0.5 1024,-19.5 1065,-19.5 1065,-0.5 1024,-0.5"/>
<text text-anchor="middle" x="1044.5" y="-7.5" font-family="Helvetica,sans-Serif" font-size="10.00">string</text>
</g>
<!-- Node9&#45;&gt;Node12 -->
<g id="edge11" class="edge"><title>Node9&#45;&gt;Node12</title>
<path fill="none" stroke="midnightblue" d="M697.289,-169.808C667.265,-163.704 634.068,-152.503 609.5,-132 581.979,-109.032 558.413,-82.5472 582.5,-56 611.468,-24.0731 914.787,-14.0793 1013.58,-11.6587"/>
<polygon fill="midnightblue" stroke="midnightblue" points="1013.89,-15.1525 1023.81,-11.4176 1013.73,-8.15441 1013.89,-15.1525"/>
</g>
<!-- Node13 -->
<g id="node13" class="node"><title>Node13</title>
<polygon fill="none" stroke="#bfbfbf" points="1084,-0.5 1084,-19.5 1167,-19.5 1167,-0.5 1084,-0.5"/>
<text text-anchor="middle" x="1125.5" y="-7.5" font-family="Helvetica,sans-Serif" font-size="10.00">unordered_map</text>
</g>
<!-- Node9&#45;&gt;Node13 -->
<g id="edge12" class="edge"><title>Node9&#45;&gt;Node13</title>
<path fill="none" stroke="midnightblue" d="M847.599,-168.884C850.605,-168.581 853.581,-168.285 856.5,-168 901.683,-163.582 1232.85,-165.486 1263.5,-132 1272.67,-121.983 1286.69,-88.784 1262.5,-56 1252.02,-41.79 1211.48,-29.5759 1177.2,-21.4732"/>
<polygon fill="midnightblue" stroke="midnightblue" points="1177.8,-18.0189 1167.27,-19.1959 1176.23,-24.842 1177.8,-18.0189"/>
</g>
<!-- Node14 -->
<g id="node14" class="node"><title>Node14</title>
<polygon fill="none" stroke="#bfbfbf" points="630,-112.5 630,-131.5 755,-131.5 755,-112.5 630,-112.5"/>
<text text-anchor="middle" x="692.5" y="-119.5" font-family="Helvetica,sans-Serif" font-size="10.00">Framework/InitContext.h</text>
</g>
<!-- Node9&#45;&gt;Node14 -->
<g id="edge13" class="edge"><title>Node9&#45;&gt;Node14</title>
<path fill="none" stroke="midnightblue" d="M759.647,-168.324C747.284,-159.979 728.37,-147.212 713.763,-137.352"/>
<polygon fill="midnightblue" stroke="midnightblue" points="715.568,-134.348 705.321,-131.655 711.652,-140.15 715.568,-134.348"/>
</g>
<!-- Node15 -->
<g id="node15" class="node"><title>Node15</title>
<polygon fill="none" stroke="#bfbfbf" points="773.5,-112.5 773.5,-131.5 933.5,-131.5 933.5,-112.5 773.5,-112.5"/>
<text text-anchor="middle" x="853.5" y="-119.5" font-family="Helvetica,sans-Serif" font-size="10.00">Framework/ProcessingContext.h</text>
</g>
<!-- Node9&#45;&gt;Node15 -->
<g id="edge14" class="edge"><title>Node9&#45;&gt;Node15</title>
<path fill="none" stroke="midnightblue" d="M785.514,-168.324C798.032,-159.979 817.182,-147.212 831.971,-137.352"/>
<polygon fill="midnightblue" stroke="midnightblue" points="834.139,-140.114 840.518,-131.655 830.256,-134.289 834.139,-140.114"/>
</g>
<!-- Node16 -->
<g id="node16" class="node"><title>Node16</title>
<g id="a_node16"><a xlink:href="Activity_8h.html" target="_top" xlink:title="QualityControl/Activity.h">
<polygon fill="none" stroke="black" points="952,-112.5 952,-131.5 1075,-131.5 1075,-112.5 952,-112.5"/>
<text text-anchor="middle" x="1013.5" y="-119.5" font-family="Helvetica,sans-Serif" font-size="10.00">QualityControl/Activity.h</text>
</a>
</g>
</g>
<!-- Node9&#45;&gt;Node16 -->
<g id="edge15" class="edge"><title>Node9&#45;&gt;Node16</title>
<path fill="none" stroke="midnightblue" d="M810.687,-168.444C852.641,-159.043 920.094,-143.929 965.571,-133.739"/>
<polygon fill="midnightblue" stroke="midnightblue" points="966.499,-137.118 975.491,-131.516 964.968,-130.288 966.499,-137.118"/>
</g>
<!-- Node17 -->
<g id="node17" class="node"><title>Node17</title>
<g id="a_node17"><a xlink:href="ObjectsManager_8h.html" target="_top" xlink:title="QualityControl/ObjectsManager.h">
<polygon fill="none" stroke="black" points="1093,-112.5 1093,-131.5 1254,-131.5 1254,-112.5 1093,-112.5"/>
<text text-anchor="middle" x="1173.5" y="-119.5" font-family="Helvetica,sans-Serif" font-size="10.00">QualityControl/ObjectsManager.h</text>
</a>
</g>
</g>
<!-- Node9&#45;&gt;Node17 -->
<g id="edge16" class="edge"><title>Node9&#45;&gt;Node17</title>
<path fill="none" stroke="midnightblue" d="M836.04,-168.444C907.9,-158.767 1024.72,-143.035 1100.33,-132.853"/>
<polygon fill="midnightblue" stroke="midnightblue" points="1100.81,-136.32 1110.26,-131.516 1099.88,-129.382 1100.81,-136.32"/>
</g>
<!-- Node17&#45;&gt;Node11 -->
<g id="edge30" class="edge"><title>Node17&#45;&gt;Node11</title>
<path fill="none" stroke="midnightblue" d="M1092.55,-112.892C1089.49,-112.59 1086.47,-112.292 1083.5,-112 923.388,-96.2637 732.279,-77.9592 653.829,-70.4658"/>
<polygon fill="midnightblue" stroke="midnightblue" points="653.81,-66.9481 643.522,-69.4816 653.144,-73.9164 653.81,-66.9481"/>
</g>
<!-- Node17&#45;&gt;Node12 -->
<g id="edge29" class="edge"><title>Node17&#45;&gt;Node12</title>
<path fill="none" stroke="midnightblue" d="M1116.97,-112.48C1058.71,-103.127 975.07,-87.8614 965.5,-76 947.164,-53.2728 984.966,-32.9275 1014.36,-21.2789"/>
<polygon fill="midnightblue" stroke="midnightblue" points="1015.8,-24.4785 1023.91,-17.6711 1013.32,-17.9299 1015.8,-24.4785"/>
</g>
<!-- Node18 -->
<g id="node18" class="node"><title>Node18</title>
<g id="a_node18"><a xlink:href="MonitorObject_8h.html" target="_top" xlink:title="QualityControl/MonitorObject.h">
<polygon fill="none" stroke="black" points="1311,-56.5 1311,-75.5 1462,-75.5 1462,-56.5 1311,-56.5"/>
<text text-anchor="middle" x="1386.5" y="-63.5" font-family="Helvetica,sans-Serif" font-size="10.00">QualityControl/MonitorObject.h</text>
</a>
</g>
</g>
<!-- Node17&#45;&gt;Node18 -->
<g id="edge17" class="edge"><title>Node17&#45;&gt;Node18</title>
<path fill="none" stroke="midnightblue" d="M1207.25,-112.444C1244.02,-103.122 1302.95,-88.1828 1343.12,-77.9972"/>
<polygon fill="midnightblue" stroke="midnightblue" points="1344.07,-81.3666 1352.91,-75.5164 1342.35,-74.5813 1344.07,-81.3666"/>
</g>
<!-- Node22 -->
<g id="node22" class="node"><title>Node22</title>
<g id="a_node22"><a xlink:href="Quality_8h.html" target="_top" xlink:title="QualityControl/Quality.h">
<polygon fill="none" stroke="black" points="1133,-56.5 1133,-75.5 1254,-75.5 1254,-56.5 1133,-56.5"/>
<text text-anchor="middle" x="1193.5" y="-63.5" font-family="Helvetica,sans-Serif" font-size="10.00">QualityControl/Quality.h</text>
</a>
</g>
</g>
<!-- Node17&#45;&gt;Node22 -->
<g id="edge23" class="edge"><title>Node17&#45;&gt;Node22</title>
<path fill="none" stroke="midnightblue" d="M1176.8,-112.083C1179.48,-104.849 1183.35,-94.4087 1186.69,-85.3968"/>
<polygon fill="midnightblue" stroke="midnightblue" points="1190.07,-86.3442 1190.26,-75.7511 1183.5,-83.9129 1190.07,-86.3442"/>
</g>
<!-- Node23 -->
<g id="node23" class="node"><title>Node23</title>
<g id="a_node23"><a xlink:href="TaskConfig_8h.html" target="_top" xlink:title="QualityControl/TaskConfig.h">
<polygon fill="none" stroke="black" points="974.5,-56.5 974.5,-75.5 1114.5,-75.5 1114.5,-56.5 974.5,-56.5"/>
<text text-anchor="middle" x="1044.5" y="-63.5" font-family="Helvetica,sans-Serif" font-size="10.00">QualityControl/TaskConfig.h</text>
</a>
</g>
</g>
<!-- Node17&#45;&gt;Node23 -->
<g id="edge26" class="edge"><title>Node17&#45;&gt;Node23</title>
<path fill="none" stroke="midnightblue" d="M1153.06,-112.444C1131.83,-103.557 1098.4,-89.5632 1074.25,-79.4514"/>
<polygon fill="midnightblue" stroke="midnightblue" points="1075.42,-76.1493 1064.84,-75.5164 1072.72,-82.6064 1075.42,-76.1493"/>
</g>
<!-- Node18&#45;&gt;Node10 -->
<g id="edge19" class="edge"><title>Node18&#45;&gt;Node10</title>
<path fill="none" stroke="midnightblue" d="M1403.05,-56.324C1419.49,-47.7034 1444.93,-34.3643 1463.97,-24.3855"/>
<polygon fill="midnightblue" stroke="midnightblue" points="1465.76,-27.3977 1472.99,-19.6545 1462.51,-21.198 1465.76,-27.3977"/>
</g>
<!-- Node18&#45;&gt;Node12 -->
<g id="edge18" class="edge"><title>Node18&#45;&gt;Node12</title>
<path fill="none" stroke="midnightblue" d="M1310.92,-57.2761C1249.73,-50.2955 1161.25,-38.5553 1075.01,-19.8024"/>
<polygon fill="midnightblue" stroke="midnightblue" points="1075.57,-16.3418 1065.05,-17.6029 1074.06,-23.1771 1075.57,-16.3418"/>
</g>
<!-- Node19 -->
<g id="node19" class="node"><title>Node19</title>
<polygon fill="none" stroke="#bfbfbf" points="1186.5,-0.5 1186.5,-19.5 1242.5,-19.5 1242.5,-0.5 1186.5,-0.5"/>
<text text-anchor="middle" x="1214.5" y="-7.5" font-family="Helvetica,sans-Serif" font-size="10.00">Rtypes.h</text>
</g>
<!-- Node18&#45;&gt;Node19 -->
<g id="edge20" class="edge"><title>Node18&#45;&gt;Node19</title>
<path fill="none" stroke="midnightblue" d="M1359.25,-56.4435C1330.06,-47.2801 1283.58,-32.6876 1251.19,-22.5192"/>
<polygon fill="midnightblue" stroke="midnightblue" points="1252.22,-19.1726 1241.63,-19.5164 1250.12,-25.8512 1252.22,-19.1726"/>
</g>
<!-- Node20 -->
<g id="node20" class="node"><title>Node20</title>
<polygon fill="none" stroke="#bfbfbf" points="1395,-0.5 1395,-19.5 1454,-19.5 1454,-0.5 1395,-0.5"/>
<text text-anchor="middle" x="1424.5" y="-7.5" font-family="Helvetica,sans-Serif" font-size="10.00">TObject.h</text>
</g>
<!-- Node18&#45;&gt;Node20 -->
<g id="edge21" class="edge"><title>Node18&#45;&gt;Node20</title>
<path fill="none" stroke="midnightblue" d="M1392.77,-56.083C1398.14,-48.4554 1406.02,-37.2645 1412.58,-27.9408"/>
<polygon fill="midnightblue" stroke="midnightblue" points="1415.45,-29.9434 1418.34,-19.7511 1409.72,-25.9149 1415.45,-29.9434"/>
</g>
<!-- Node21 -->
<g id="node21" class="node"><title>Node21</title>
<polygon fill="none" stroke="#bfbfbf" points="1260.5,-0.5 1260.5,-19.5 1376.5,-19.5 1376.5,-0.5 1260.5,-0.5"/>
<text text-anchor="middle" x="1318.5" y="-7.5" font-family="Helvetica,sans-Serif" font-size="10.00">Common/Exceptions.h</text>
</g>
<!-- Node18&#45;&gt;Node21 -->
<g id="edge22" class="edge"><title>Node18&#45;&gt;Node21</title>
<path fill="none" stroke="midnightblue" d="M1375.57,-56.324C1365.33,-48.1849 1349.78,-35.8395 1337.5,-26.0874"/>
<polygon fill="midnightblue" stroke="midnightblue" points="1339.63,-23.3119 1329.62,-19.8339 1335.28,-28.7937 1339.63,-23.3119"/>
</g>
<!-- Node22&#45;&gt;Node12 -->
<g id="edge25" class="edge"><title>Node22&#45;&gt;Node12</title>
<path fill="none" stroke="midnightblue" d="M1169.89,-56.4435C1144.17,-47.1203 1102.93,-32.1768 1074.83,-21.9911"/>
<polygon fill="midnightblue" stroke="midnightblue" points="1075.71,-18.5898 1065.12,-18.473 1073.33,-25.1709 1075.71,-18.5898"/>
</g>
<!-- Node22&#45;&gt;Node19 -->
<g id="edge24" class="edge"><title>Node22&#45;&gt;Node19</title>
<path fill="none" stroke="midnightblue" d="M1196.97,-56.083C1199.81,-48.77 1203.93,-38.1814 1207.46,-29.1034"/>
<polygon fill="midnightblue" stroke="midnightblue" points="1210.73,-30.3397 1211.1,-19.7511 1204.21,-27.8025 1210.73,-30.3397"/>
</g>
<!-- Node23&#45;&gt;Node12 -->
<g id="edge27" class="edge"><title>Node23&#45;&gt;Node12</title>
<path fill="none" stroke="midnightblue" d="M1044.5,-56.083C1044.5,-49.0059 1044.5,-38.8611 1044.5,-29.9865"/>
<polygon fill="midnightblue" stroke="midnightblue" points="1048,-29.751 1044.5,-19.7511 1041,-29.7511 1048,-29.751"/>
</g>
<!-- Node23&#45;&gt;Node13 -->
<g id="edge28" class="edge"><title>Node23&#45;&gt;Node13</title>
<path fill="none" stroke="midnightblue" d="M1057.51,-56.324C1070.03,-47.979 1089.18,-35.2122 1103.97,-25.3524"/>
<polygon fill="midnightblue" stroke="midnightblue" points="1106.14,-28.1137 1112.52,-19.6545 1102.26,-22.2894 1106.14,-28.1137"/>
</g>
</g>
</svg>
