<?xml version="1.0" encoding="UTF-8" standalone="no"?>
<!DOCTYPE svg PUBLIC "-//W3C//DTD SVG 1.1//EN"
 "http://www.w3.org/Graphics/SVG/1.1/DTD/svg11.dtd">
<!-- Generated by graphviz version 2.38.0 (20140413.2041)
 -->
<!-- Title: Framework/src/runMergerTest.cxx Pages: 1 -->
<!--zoomable 319 -->
<svg id="main" version="1.1" xmlns="http://www.w3.org/2000/svg" xmlns:xlink="http://www.w3.org/1999/xlink" xml:space="preserve" onload="init(evt)">
<style type="text/css"><![CDATA[
.edge:hover path { stroke: red; }
.edge:hover polygon { stroke: red; fill: red; }
]]></style>
<script type="text/javascript"><![CDATA[
var edges = document.getElementsByTagName('g');
if (edges && edges.length) {
  for (var i=0;i<edges.length;i++) {
    if (edges[i].id.substr(0,4)=='edge') {
      edges[i].setAttribute('class','edge');
    }
  }
}
]]></script>
        <defs>
                <circle id="rim" cx="0" cy="0" r="7"/>
                <circle id="rim2" cx="0" cy="0" r="3.5"/>
                <g id="zoomPlus">
                        <use xlink:href="#rim" fill="#404040">
                                <set attributeName="fill" to="#808080" begin="zoomplus.mouseover" end="zoomplus.mouseout"/>
                        </use>
                        <path d="M-4,0h8M0,-4v8" fill="none" stroke="white" stroke-width="1.5" pointer-events="none"/>
                </g>
                <g id="zoomMin">
                        <use xlink:href="#rim" fill="#404040">
                                <set attributeName="fill" to="#808080" begin="zoomminus.mouseover" end="zoomminus.mouseout"/>
                        </use>
                        <path d="M-4,0h8" fill="none" stroke="white" stroke-width="1.5" pointer-events="none"/>
                </g>
                <g id="dirArrow">
                        <path fill="none" stroke="white" stroke-width="1.5" d="M0,-3.0v7 M-2.5,-0.5L0,-3.0L2.5,-0.5"/>
                </g>
               <g id="resetDef">
                       <use xlink:href="#rim2" fill="#404040">
                               <set attributeName="fill" to="#808080" begin="reset.mouseover" end="reset.mouseout"/>
                       </use>
               </g>
        </defs>

<script type="text/javascript">
var viewWidth = 1967;
var viewHeight = 319;
var sectionId = 'dynsection-0';
</script>
<script xlink:href="svgpan.js"/>
<svg id="graph" class="graph">
<g id="viewport">
<title>Framework/src/runMergerTest.cxx</title>
<!-- Node1 -->
<g id="node1" class="node"><title>Node1</title>
<polygon fill="#bfbfbf" stroke="black" points="750,-291.5 750,-310.5 917,-310.5 917,-291.5 750,-291.5"/>
<text text-anchor="middle" x="833.5" y="-298.5" font-family="Helvetica,sans-Serif" font-size="10.00">Framework/src/runMergerTest.cxx</text>
</g>
<!-- Node2 -->
<g id="node2" class="node"><title>Node2</title>
<polygon fill="none" stroke="#bfbfbf" points="0,-230 0,-249 97,-249 97,-230 0,-230"/>
<text text-anchor="middle" x="48.5" y="-237" font-family="Helvetica,sans-Serif" font-size="10.00">fairlogger/Logger.h</text>
</g>
<!-- Node1&#45;&gt;Node2 -->
<g id="edge1" class="edge"><title>Node1&#45;&gt;Node2</title>
<path fill="none" stroke="midnightblue" d="M749.935,-299.229C614.977,-296.989 340.964,-288.328 111.5,-255 104.784,-254.025 97.7254,-252.701 90.8612,-251.248"/>
<polygon fill="midnightblue" stroke="midnightblue" points="91.5277,-247.811 81.0059,-249.052 90.0054,-254.643 91.5277,-247.811"/>
</g>
<!-- Node3 -->
<g id="node3" class="node"><title>Node3</title>
<g id="a_node3"><a xlink:href="QcInfoLogger_8h.html" target="_top" xlink:title="QualityControl/QcInfoLogger.h">
<polygon fill="none" stroke="black" points="89,-112.5 89,-131.5 238,-131.5 238,-112.5 89,-112.5"/>
<text text-anchor="middle" x="163.5" y="-119.5" font-family="Helvetica,sans-Serif" font-size="10.00">QualityControl/QcInfoLogger.h</text>
</a>
</g>
</g>
<!-- Node1&#45;&gt;Node3 -->
<g id="edge2" class="edge"><title>Node1&#45;&gt;Node3</title>
<path fill="none" stroke="midnightblue" d="M749.961,-299.563C614.844,-297.82 354.959,-289.873 270.5,-255 227.947,-237.43 218.886,-225.007 191.5,-188 181.004,-173.816 173.472,-155.091 168.882,-141.383"/>
<polygon fill="midnightblue" stroke="midnightblue" points="172.162,-140.143 165.832,-131.648 165.482,-142.237 172.162,-140.143"/>
</g>
<!-- Node5 -->
<g id="node5" class="node"><title>Node5</title>
<polygon fill="none" stroke="#bfbfbf" points="1806,-168.5 1806,-187.5 1959,-187.5 1959,-168.5 1806,-168.5"/>
<text text-anchor="middle" x="1882.5" y="-175.5" font-family="Helvetica,sans-Serif" font-size="10.00">Framework/CompletionPolicy.h</text>
</g>
<!-- Node1&#45;&gt;Node5 -->
<g id="edge4" class="edge"><title>Node1&#45;&gt;Node5</title>
<path fill="none" stroke="midnightblue" d="M917.15,-298.841C1133.72,-295.444 1701.49,-283.868 1781.5,-255 1816.23,-242.471 1848.93,-213.587 1867.27,-195.255"/>
<polygon fill="midnightblue" stroke="midnightblue" points="1870.18,-197.282 1874.64,-187.672 1865.16,-192.402 1870.18,-197.282"/>
</g>
<!-- Node6 -->
<g id="node6" class="node"><title>Node6</title>
<polygon fill="none" stroke="#bfbfbf" points="527,-224.5 527,-254.5 672,-254.5 672,-224.5 527,-224.5"/>
<text text-anchor="start" x="535" y="-242.5" font-family="Helvetica,sans-Serif" font-size="10.00">Framework/CompletionPolicy</text>
<text text-anchor="middle" x="599.5" y="-231.5" font-family="Helvetica,sans-Serif" font-size="10.00">Helpers.h</text>
</g>
<!-- Node1&#45;&gt;Node6 -->
<g id="edge5" class="edge"><title>Node1&#45;&gt;Node6</title>
<path fill="none" stroke="midnightblue" d="M799.974,-291.475C764.727,-282.513 708.392,-268.188 664.404,-257.003"/>
<polygon fill="midnightblue" stroke="midnightblue" points="665.203,-253.595 654.649,-254.523 663.478,-260.379 665.203,-253.595"/>
</g>
<!-- Node7 -->
<g id="node7" class="node"><title>Node7</title>
<polygon fill="none" stroke="#bfbfbf" points="690.5,-230 690.5,-249 740.5,-249 740.5,-230 690.5,-230"/>
<text text-anchor="middle" x="715.5" y="-237" font-family="Helvetica,sans-Serif" font-size="10.00">TH1F.h</text>
</g>
<!-- Node1&#45;&gt;Node7 -->
<g id="edge6" class="edge"><title>Node1&#45;&gt;Node7</title>
<path fill="none" stroke="midnightblue" d="M816.593,-291.475C796.966,-281.578 764.369,-265.142 741.51,-253.615"/>
<polygon fill="midnightblue" stroke="midnightblue" points="742.88,-250.386 732.375,-249.009 739.728,-256.637 742.88,-250.386"/>
</g>
<!-- Node8 -->
<g id="node8" class="node"><title>Node8</title>
<polygon fill="none" stroke="#bfbfbf" points="589.5,-112.5 589.5,-131.5 641.5,-131.5 641.5,-112.5 589.5,-112.5"/>
<text text-anchor="middle" x="615.5" y="-119.5" font-family="Helvetica,sans-Serif" font-size="10.00">memory</text>
</g>
<!-- Node1&#45;&gt;Node8 -->
<g id="edge7" class="edge"><title>Node1&#45;&gt;Node8</title>
<path fill="none" stroke="midnightblue" d="M749.879,-297.71C597.741,-291.559 285.357,-269.118 220.5,-188 174.712,-130.732 472.751,-123.71 578.936,-123.011"/>
<polygon fill="midnightblue" stroke="midnightblue" points="579.194,-126.51 589.176,-122.959 579.159,-119.51 579.194,-126.51"/>
</g>
<!-- Node9 -->
<g id="node9" class="node"><title>Node9</title>
<polygon fill="none" stroke="#bfbfbf" points="926,-230 926,-249 975,-249 975,-230 926,-230"/>
<text text-anchor="middle" x="950.5" y="-237" font-family="Helvetica,sans-Serif" font-size="10.00">random</text>
</g>
<!-- Node1&#45;&gt;Node9 -->
<g id="edge8" class="edge"><title>Node1&#45;&gt;Node9</title>
<path fill="none" stroke="midnightblue" d="M850.263,-291.475C869.725,-281.578 902.045,-265.142 924.711,-253.615"/>
<polygon fill="midnightblue" stroke="midnightblue" points="926.441,-256.662 933.768,-249.009 923.268,-250.422 926.441,-256.662"/>
</g>
<!-- Node10 -->
<g id="node10" class="node"><title>Node10</title>
<polygon fill="none" stroke="#bfbfbf" points="993.5,-230 993.5,-249 1153.5,-249 1153.5,-230 993.5,-230"/>
<text text-anchor="middle" x="1073.5" y="-237" font-family="Helvetica,sans-Serif" font-size="10.00">Framework/runDataProcessing.h</text>
</g>
<!-- Node1&#45;&gt;Node10 -->
<g id="edge9" class="edge"><title>Node1&#45;&gt;Node10</title>
<path fill="none" stroke="midnightblue" d="M867.886,-291.475C910.391,-280.937 982.799,-262.986 1029.37,-251.441"/>
<polygon fill="midnightblue" stroke="midnightblue" points="1030.31,-254.813 1039.18,-249.009 1028.63,-248.018 1030.31,-254.813"/>
</g>
<!-- Node11 -->
<g id="node11" class="node"><title>Node11</title>
<g id="a_node11"><a xlink:href="CheckRunner_8h.html" target="_top" xlink:title="QualityControl/CheckRunner.h">
<polygon fill="none" stroke="black" points="758.5,-230 758.5,-249 908.5,-249 908.5,-230 758.5,-230"/>
<text text-anchor="middle" x="833.5" y="-237" font-family="Helvetica,sans-Serif" font-size="10.00">QualityControl/CheckRunner.h</text>
</a>
</g>
</g>
<!-- Node1&#45;&gt;Node11 -->
<g id="edge10" class="edge"><title>Node1&#45;&gt;Node11</title>
<path fill="none" stroke="midnightblue" d="M833.5,-291.475C833.5,-283.08 833.5,-269.981 833.5,-259.163"/>
<polygon fill="midnightblue" stroke="midnightblue" points="837,-259.009 833.5,-249.009 830,-259.009 837,-259.009"/>
</g>
<!-- Node34 -->
<g id="node34" class="node"><title>Node34</title>
<g id="a_node34"><a xlink:href="CheckRunnerFactory_8h.html" target="_top" xlink:title="QualityControl/CheckRunner\lFactory.h">
<polygon fill="none" stroke="black" points="1630.5,-224.5 1630.5,-254.5 1772.5,-254.5 1772.5,-224.5 1630.5,-224.5"/>
<text text-anchor="start" x="1638.5" y="-242.5" font-family="Helvetica,sans-Serif" font-size="10.00">QualityControl/CheckRunner</text>
<text text-anchor="middle" x="1701.5" y="-231.5" font-family="Helvetica,sans-Serif" font-size="10.00">Factory.h</text>
</a>
</g>
</g>
<!-- Node1&#45;&gt;Node34 -->
<g id="edge60" class="edge"><title>Node1&#45;&gt;Node34</title>
<path fill="none" stroke="midnightblue" d="M917.121,-294.268C1083.8,-282.842 1455.53,-257.361 1620.24,-246.07"/>
<polygon fill="midnightblue" stroke="midnightblue" points="1620.58,-249.555 1630.31,-245.38 1620.1,-242.572 1620.58,-249.555"/>
</g>
<!-- Node35 -->
<g id="node35" class="node"><title>Node35</title>
<g id="a_node35"><a xlink:href="HistoMerger_8h.html" target="_top" xlink:title="QualityControl/HistoMerger.h">
<polygon fill="none" stroke="black" points="1172,-230 1172,-249 1315,-249 1315,-230 1172,-230"/>
<text text-anchor="middle" x="1243.5" y="-237" font-family="Helvetica,sans-Serif" font-size="10.00">QualityControl/HistoMerger.h</text>
</a>
</g>
</g>
<!-- Node1&#45;&gt;Node35 -->
<g id="edge65" class="edge"><title>Node1&#45;&gt;Node35</title>
<path fill="none" stroke="midnightblue" d="M901.988,-291.468C968.621,-282.97 1072.67,-269.178 1162.5,-255 1170.63,-253.717 1179.2,-252.278 1187.6,-250.818"/>
<polygon fill="midnightblue" stroke="midnightblue" points="1188.48,-254.216 1197.72,-249.035 1187.26,-247.322 1188.48,-254.216"/>
</g>
<!-- Node4 -->
<g id="node4" class="node"><title>Node4</title>
<polygon fill="none" stroke="#bfbfbf" points="98.5,-56.5 98.5,-75.5 228.5,-75.5 228.5,-56.5 98.5,-56.5"/>
<text text-anchor="middle" x="163.5" y="-63.5" font-family="Helvetica,sans-Serif" font-size="10.00">InfoLogger/InfoLogger.hxx</text>
</g>
<!-- Node3&#45;&gt;Node4 -->
<g id="edge3" class="edge"><title>Node3&#45;&gt;Node4</title>
<path fill="none" stroke="midnightblue" d="M163.5,-112.083C163.5,-105.006 163.5,-94.8611 163.5,-85.9865"/>
<polygon fill="midnightblue" stroke="midnightblue" points="167,-85.751 163.5,-75.7511 160,-85.7511 167,-85.751"/>
</g>
<!-- Node11&#45;&gt;Node3 -->
<g id="edge48" class="edge"><title>Node11&#45;&gt;Node3</title>
<path fill="none" stroke="midnightblue" d="M789.159,-229.967C776.397,-227.75 762.43,-225.552 749.5,-224 632.512,-209.96 326.11,-240.247 220.5,-188 199.556,-177.638 183.005,-155.839 173.249,-140.347"/>
<polygon fill="midnightblue" stroke="midnightblue" points="176.204,-138.468 168.075,-131.674 170.193,-142.055 176.204,-138.468"/>
</g>
<!-- Node11&#45;&gt;Node8 -->
<g id="edge12" class="edge"><title>Node11&#45;&gt;Node8</title>
<path fill="none" stroke="midnightblue" d="M787.261,-229.996C729.68,-218.985 637.495,-199.812 626.5,-188 615.178,-175.837 613.161,-156.563 613.535,-142.156"/>
<polygon fill="midnightblue" stroke="midnightblue" points="617.047,-142.084 614.216,-131.875 610.063,-141.621 617.047,-142.084"/>
</g>
<!-- Node12 -->
<g id="node12" class="node"><title>Node12</title>
<polygon fill="none" stroke="#bfbfbf" points="229.5,-168.5 229.5,-187.5 275.5,-187.5 275.5,-168.5 229.5,-168.5"/>
<text text-anchor="middle" x="252.5" y="-175.5" font-family="Helvetica,sans-Serif" font-size="10.00">chrono</text>
</g>
<!-- Node11&#45;&gt;Node12 -->
<g id="edge11" class="edge"><title>Node11&#45;&gt;Node12</title>
<path fill="none" stroke="midnightblue" d="M788.714,-229.969C776.07,-227.779 762.276,-225.594 749.5,-224 547.023,-198.743 490.355,-223.44 285.656,-187.864"/>
<polygon fill="midnightblue" stroke="midnightblue" points="286.252,-184.415 275.796,-186.124 285.035,-191.309 286.252,-184.415"/>
</g>
<!-- Node13 -->
<g id="node13" class="node"><title>Node13</title>
<polygon fill="none" stroke="#bfbfbf" points="1430,-0.5 1430,-19.5 1471,-19.5 1471,-0.5 1430,-0.5"/>
<text text-anchor="middle" x="1450.5" y="-7.5" font-family="Helvetica,sans-Serif" font-size="10.00">string</text>
</g>
<!-- Node11&#45;&gt;Node13 -->
<g id="edge13" class="edge"><title>Node11&#45;&gt;Node13</title>
<path fill="none" stroke="midnightblue" d="M876.872,-229.968C889.597,-227.724 903.569,-225.511 916.5,-224 1086.79,-204.099 1582.76,-271.449 1682.5,-132 1736.53,-56.4599 1556.29,-24.4026 1481.51,-14.5545"/>
<polygon fill="midnightblue" stroke="midnightblue" points="1481.64,-11.0434 1471.28,-13.2601 1480.76,-17.988 1481.64,-11.0434"/>
</g>
<!-- Node14 -->
<g id="node14" class="node"><title>Node14</title>
<polygon fill="none" stroke="#bfbfbf" points="1037,-0.5 1037,-19.5 1072,-19.5 1072,-0.5 1037,-0.5"/>
<text text-anchor="middle" x="1054.5" y="-7.5" font-family="Helvetica,sans-Serif" font-size="10.00">map</text>
</g>
<!-- Node11&#45;&gt;Node14 -->
<g id="edge14" class="edge"><title>Node11&#45;&gt;Node14</title>
<path fill="none" stroke="midnightblue" d="M787.576,-229.967C727.305,-218.463 627.492,-198.244 613.5,-188 583.787,-166.247 557.333,-140.624 580.5,-112 587.714,-103.087 926.536,-36.0799 1026.82,-16.4117"/>
<polygon fill="midnightblue" stroke="midnightblue" points="1027.67,-19.8129 1036.81,-14.4554 1026.32,-12.9436 1027.67,-19.8129"/>
</g>
<!-- Node15 -->
<g id="node15" class="node"><title>Node15</title>
<polygon fill="none" stroke="#bfbfbf" points="1041.5,-112.5 1041.5,-131.5 1085.5,-131.5 1085.5,-112.5 1041.5,-112.5"/>
<text text-anchor="middle" x="1063.5" y="-119.5" font-family="Helvetica,sans-Serif" font-size="10.00">vector</text>
</g>
<!-- Node11&#45;&gt;Node15 -->
<g id="edge15" class="edge"><title>Node11&#45;&gt;Node15</title>
<path fill="none" stroke="midnightblue" d="M838.165,-229.614C846.548,-214.54 865.631,-184.035 890.5,-168 893.513,-166.057 982.376,-143.457 1031.54,-131.045"/>
<polygon fill="midnightblue" stroke="midnightblue" points="1032.54,-134.402 1041.38,-128.562 1030.83,-127.615 1032.54,-134.402"/>
</g>
<!-- Node16 -->
<g id="node16" class="node"><title>Node16</title>
<polygon fill="none" stroke="#bfbfbf" points="293.5,-168.5 293.5,-187.5 371.5,-187.5 371.5,-168.5 293.5,-168.5"/>
<text text-anchor="middle" x="332.5" y="-175.5" font-family="Helvetica,sans-Serif" font-size="10.00">unordered_set</text>
</g>
<!-- Node11&#45;&gt;Node16 -->
<g id="edge16" class="edge"><title>Node11&#45;&gt;Node16</title>
<path fill="none" stroke="midnightblue" d="M787.819,-229.985C775.415,-227.845 761.966,-225.682 749.5,-224 589.39,-202.401 545.345,-210.857 381.672,-188.051"/>
<polygon fill="midnightblue" stroke="midnightblue" points="382.137,-184.582 371.746,-186.65 381.159,-191.513 382.137,-184.582"/>
</g>
<!-- Node17 -->
<g id="node17" class="node"><title>Node17</title>
<polygon fill="none" stroke="#bfbfbf" points="899.5,-168.5 899.5,-187.5 991.5,-187.5 991.5,-168.5 899.5,-168.5"/>
<text text-anchor="middle" x="945.5" y="-175.5" font-family="Helvetica,sans-Serif" font-size="10.00">Common/Timer.h</text>
</g>
<!-- Node11&#45;&gt;Node17 -->
<g id="edge17" class="edge"><title>Node11&#45;&gt;Node17</title>
<path fill="none" stroke="midnightblue" d="M849.547,-229.975C868.093,-220.122 898.84,-203.788 920.522,-192.27"/>
<polygon fill="midnightblue" stroke="midnightblue" points="922.294,-195.292 929.483,-187.509 919.01,-189.11 922.294,-195.292"/>
</g>
<!-- Node18 -->
<g id="node18" class="node"><title>Node18</title>
<polygon fill="none" stroke="#bfbfbf" points="1145.5,-168.5 1145.5,-187.5 1243.5,-187.5 1243.5,-168.5 1145.5,-168.5"/>
<text text-anchor="middle" x="1194.5" y="-175.5" font-family="Helvetica,sans-Serif" font-size="10.00">Framework/Task.h</text>
</g>
<!-- Node11&#45;&gt;Node18 -->
<g id="edge18" class="edge"><title>Node11&#45;&gt;Node18</title>
<path fill="none" stroke="midnightblue" d="M881.761,-229.964C893.148,-227.979 905.248,-225.893 916.5,-224 991.846,-211.321 1078.8,-197.353 1135.11,-188.394"/>
<polygon fill="midnightblue" stroke="midnightblue" points="1135.93,-191.807 1145.26,-186.781 1134.83,-184.894 1135.93,-191.807"/>
</g>
<!-- Node19 -->
<g id="node19" class="node"><title>Node19</title>
<polygon fill="none" stroke="#bfbfbf" points="1010,-168.5 1010,-187.5 1127,-187.5 1127,-168.5 1010,-168.5"/>
<text text-anchor="middle" x="1068.5" y="-175.5" font-family="Helvetica,sans-Serif" font-size="10.00">Headers/DataHeader.h</text>
</g>
<!-- Node11&#45;&gt;Node19 -->
<g id="edge19" class="edge"><title>Node11&#45;&gt;Node19</title>
<path fill="none" stroke="midnightblue" d="M867.17,-229.975C908.702,-219.459 979.391,-201.562 1025,-190.014"/>
<polygon fill="midnightblue" stroke="midnightblue" points="1026.06,-193.357 1034.89,-187.509 1024.34,-186.571 1026.06,-193.357"/>
</g>
<!-- Node20 -->
<g id="node20" class="node"><title>Node20</title>
<polygon fill="none" stroke="#bfbfbf" points="390,-168.5 390,-187.5 541,-187.5 541,-168.5 390,-168.5"/>
<text text-anchor="middle" x="465.5" y="-175.5" font-family="Helvetica,sans-Serif" font-size="10.00">Monitoring/MonitoringFactory.h</text>
</g>
<!-- Node11&#45;&gt;Node20 -->
<g id="edge20" class="edge"><title>Node11&#45;&gt;Node20</title>
<path fill="none" stroke="midnightblue" d="M784.66,-229.952C773.135,-227.968 760.888,-225.885 749.5,-224 674.582,-211.599 588.422,-198.047 530.833,-189.09"/>
<polygon fill="midnightblue" stroke="midnightblue" points="531.196,-185.605 520.777,-187.528 530.121,-192.522 531.196,-185.605"/>
</g>
<!-- Node21 -->
<g id="node21" class="node"><title>Node21</title>
<polygon fill="none" stroke="#bfbfbf" points="1509.5,-112.5 1509.5,-131.5 1673.5,-131.5 1673.5,-112.5 1509.5,-112.5"/>
<text text-anchor="middle" x="1591.5" y="-119.5" font-family="Helvetica,sans-Serif" font-size="10.00">Framework/DataProcessorSpec.h</text>
</g>
<!-- Node11&#45;&gt;Node21 -->
<g id="edge21" class="edge"><title>Node11&#45;&gt;Node21</title>
<path fill="none" stroke="midnightblue" d="M876.875,-230C889.601,-227.756 903.572,-225.536 916.5,-224 1041.65,-209.133 1362.12,-225.319 1482.5,-188 1517.12,-177.268 1552.25,-153.489 1572.95,-137.862"/>
<polygon fill="midnightblue" stroke="midnightblue" points="1575.12,-140.61 1580.89,-131.726 1570.84,-135.071 1575.12,-140.61"/>
</g>
<!-- Node22 -->
<g id="node22" class="node"><title>Node22</title>
<g id="a_node22"><a xlink:href="CheckInterface_8h.html" target="_top" xlink:title="QualityControl/CheckInterface.h">
<polygon fill="none" stroke="black" points="1334,-112.5 1334,-131.5 1491,-131.5 1491,-112.5 1334,-112.5"/>
<text text-anchor="middle" x="1412.5" y="-119.5" font-family="Helvetica,sans-Serif" font-size="10.00">QualityControl/CheckInterface.h</text>
</a>
</g>
</g>
<!-- Node11&#45;&gt;Node22 -->
<g id="edge22" class="edge"><title>Node11&#45;&gt;Node22</title>
<path fill="none" stroke="midnightblue" d="M877.307,-229.939C889.917,-227.722 903.719,-225.53 916.5,-224 977.308,-216.72 1424.63,-232.696 1466.5,-188 1482.3,-171.136 1458.22,-150.419 1437.35,-136.974"/>
<polygon fill="midnightblue" stroke="midnightblue" points="1439.08,-133.931 1428.73,-131.689 1435.42,-139.899 1439.08,-133.931"/>
</g>
<!-- Node24 -->
<g id="node24" class="node"><title>Node24</title>
<g id="a_node24"><a xlink:href="MonitorObject_8h.html" target="_top" xlink:title="QualityControl/MonitorObject.h">
<polygon fill="none" stroke="black" points="979,-56.5 979,-75.5 1130,-75.5 1130,-56.5 979,-56.5"/>
<text text-anchor="middle" x="1054.5" y="-63.5" font-family="Helvetica,sans-Serif" font-size="10.00">QualityControl/MonitorObject.h</text>
</a>
</g>
</g>
<!-- Node11&#45;&gt;Node24 -->
<g id="edge47" class="edge"><title>Node11&#45;&gt;Node24</title>
<path fill="none" stroke="midnightblue" d="M835.089,-229.933C838.217,-215.34 846.497,-185.542 864.5,-168 894.766,-138.51 914.976,-151.433 952.5,-132 982.091,-116.676 1014.19,-95.3724 1034.32,-81.3917"/>
<polygon fill="midnightblue" stroke="midnightblue" points="1036.5,-84.1397 1042.67,-75.5312 1032.48,-78.4094 1036.5,-84.1397"/>
</g>
<!-- Node28 -->
<g id="node28" class="node"><title>Node28</title>
<g id="a_node28"><a xlink:href="DatabaseInterface_8h.html" target="_top" xlink:title="QualityControl/DatabaseInterface.h">
<polygon fill="none" stroke="black" points="635.5,-168.5 635.5,-187.5 805.5,-187.5 805.5,-168.5 635.5,-168.5"/>
<text text-anchor="middle" x="720.5" y="-175.5" font-family="Helvetica,sans-Serif" font-size="10.00">QualityControl/DatabaseInterface.h</text>
</a>
</g>
</g>
<!-- Node11&#45;&gt;Node28 -->
<g id="edge35" class="edge"><title>Node11&#45;&gt;Node28</title>
<path fill="none" stroke="midnightblue" d="M817.31,-229.975C798.598,-220.122 767.577,-203.788 745.701,-192.27"/>
<polygon fill="midnightblue" stroke="midnightblue" points="747.139,-189.071 736.66,-187.509 743.878,-195.265 747.139,-189.071"/>
</g>
<!-- Node32 -->
<g id="node32" class="node"><title>Node32</title>
<g id="a_node32"><a xlink:href="Check_8h_source.html" target="_top" xlink:title="QualityControl/Check.h">
<polygon fill="none" stroke="black" points="1338,-168.5 1338,-187.5 1457,-187.5 1457,-168.5 1338,-168.5"/>
<text text-anchor="middle" x="1397.5" y="-175.5" font-family="Helvetica,sans-Serif" font-size="10.00">QualityControl/Check.h</text>
</a>
</g>
</g>
<!-- Node11&#45;&gt;Node32 -->
<g id="edge49" class="edge"><title>Node11&#45;&gt;Node32</title>
<path fill="none" stroke="midnightblue" d="M878.63,-229.943C890.886,-227.803 904.176,-225.65 916.5,-224 1062.13,-204.499 1233.69,-190.615 1327.5,-183.792"/>
<polygon fill="midnightblue" stroke="midnightblue" points="1327.99,-187.266 1337.71,-183.055 1327.49,-180.284 1327.99,-187.266"/>
</g>
<!-- Node22&#45;&gt;Node13 -->
<g id="edge23" class="edge"><title>Node22&#45;&gt;Node13</title>
<path fill="none" stroke="midnightblue" d="M1415.48,-112.368C1421.64,-94.5366 1435.89,-53.2953 1444.19,-29.2717"/>
<polygon fill="midnightblue" stroke="midnightblue" points="1447.57,-30.1862 1447.53,-19.5914 1440.96,-27.9005 1447.57,-30.1862"/>
</g>
<!-- Node22&#45;&gt;Node14 -->
<g id="edge24" class="edge"><title>Node22&#45;&gt;Node14</title>
<path fill="none" stroke="midnightblue" d="M1381.02,-112.488C1348.86,-103.701 1297.55,-89.4204 1253.5,-76 1192.01,-57.2636 1120.49,-33.3898 1082.16,-20.4211"/>
<polygon fill="midnightblue" stroke="midnightblue" points="1082.86,-16.9621 1072.26,-17.0658 1080.61,-23.5914 1082.86,-16.9621"/>
</g>
<!-- Node23 -->
<g id="node23" class="node"><title>Node23</title>
<polygon fill="none" stroke="#bfbfbf" points="1295.5,-0.5 1295.5,-19.5 1351.5,-19.5 1351.5,-0.5 1295.5,-0.5"/>
<text text-anchor="middle" x="1323.5" y="-7.5" font-family="Helvetica,sans-Serif" font-size="10.00">Rtypes.h</text>
</g>
<!-- Node22&#45;&gt;Node23 -->
<g id="edge25" class="edge"><title>Node22&#45;&gt;Node23</title>
<path fill="none" stroke="midnightblue" d="M1411.69,-112.148C1410.08,-98.7751 1405.43,-73.1624 1392.5,-56 1382.29,-42.4502 1366.73,-31.7953 1352.96,-24.262"/>
<polygon fill="midnightblue" stroke="midnightblue" points="1354.3,-21.0151 1343.81,-19.5481 1351.1,-27.2383 1354.3,-21.0151"/>
</g>
<!-- Node22&#45;&gt;Node24 -->
<g id="edge26" class="edge"><title>Node22&#45;&gt;Node24</title>
<path fill="none" stroke="midnightblue" d="M1355.77,-112.444C1292.01,-102.826 1188.6,-87.2275 1121.07,-77.0409"/>
<polygon fill="midnightblue" stroke="midnightblue" points="1121.37,-73.5472 1110.96,-75.5164 1120.33,-80.4689 1121.37,-73.5472"/>
</g>
<!-- Node27 -->
<g id="node27" class="node"><title>Node27</title>
<g id="a_node27"><a xlink:href="Quality_8h.html" target="_top" xlink:title="QualityControl/Quality.h">
<polygon fill="none" stroke="black" points="1263,-56.5 1263,-75.5 1384,-75.5 1384,-56.5 1263,-56.5"/>
<text text-anchor="middle" x="1323.5" y="-63.5" font-family="Helvetica,sans-Serif" font-size="10.00">QualityControl/Quality.h</text>
</a>
</g>
</g>
<!-- Node22&#45;&gt;Node27 -->
<g id="edge32" class="edge"><title>Node22&#45;&gt;Node27</title>
<path fill="none" stroke="midnightblue" d="M1398.2,-112.324C1384.32,-103.9 1363.01,-90.9709 1346.7,-81.0741"/>
<polygon fill="midnightblue" stroke="midnightblue" points="1348.13,-77.8495 1337.76,-75.6545 1344.5,-83.8341 1348.13,-77.8495"/>
</g>
<!-- Node24&#45;&gt;Node13 -->
<g id="edge27" class="edge"><title>Node24&#45;&gt;Node13</title>
<path fill="none" stroke="midnightblue" d="M1117.25,-56.4435C1203.39,-44.6962 1354.97,-24.0263 1419.75,-15.1936"/>
<polygon fill="midnightblue" stroke="midnightblue" points="1420.3,-18.6512 1429.73,-13.8321 1419.35,-11.7154 1420.3,-18.6512"/>
</g>
<!-- Node24&#45;&gt;Node14 -->
<g id="edge28" class="edge"><title>Node24&#45;&gt;Node14</title>
<path fill="none" stroke="midnightblue" d="M1054.5,-56.083C1054.5,-49.0059 1054.5,-38.8611 1054.5,-29.9865"/>
<polygon fill="midnightblue" stroke="midnightblue" points="1058,-29.751 1054.5,-19.7511 1051,-29.7511 1058,-29.751"/>
</g>
<!-- Node24&#45;&gt;Node23 -->
<g id="edge29" class="edge"><title>Node24&#45;&gt;Node23</title>
<path fill="none" stroke="midnightblue" d="M1097.12,-56.4435C1148.99,-46.0319 1235.77,-28.6112 1285.47,-18.635"/>
<polygon fill="midnightblue" stroke="midnightblue" points="1286.37,-22.0241 1295.48,-16.6243 1284.99,-15.1611 1286.37,-22.0241"/>
</g>
<!-- Node25 -->
<g id="node25" class="node"><title>Node25</title>
<polygon fill="none" stroke="#bfbfbf" points="940,-0.5 940,-19.5 999,-19.5 999,-0.5 940,-0.5"/>
<text text-anchor="middle" x="969.5" y="-7.5" font-family="Helvetica,sans-Serif" font-size="10.00">TObject.h</text>
</g>
<!-- Node24&#45;&gt;Node25 -->
<g id="edge30" class="edge"><title>Node24&#45;&gt;Node25</title>
<path fill="none" stroke="midnightblue" d="M1040.84,-56.324C1027.58,-47.9002 1007.23,-34.9709 991.654,-25.0741"/>
<polygon fill="midnightblue" stroke="midnightblue" points="993.44,-22.0626 983.123,-19.6545 989.687,-27.9711 993.44,-22.0626"/>
</g>
<!-- Node26 -->
<g id="node26" class="node"><title>Node26</title>
<polygon fill="none" stroke="#bfbfbf" points="765.5,-0.5 765.5,-19.5 881.5,-19.5 881.5,-0.5 765.5,-0.5"/>
<text text-anchor="middle" x="823.5" y="-7.5" font-family="Helvetica,sans-Serif" font-size="10.00">Common/Exceptions.h</text>
</g>
<!-- Node24&#45;&gt;Node26 -->
<g id="edge31" class="edge"><title>Node24&#45;&gt;Node26</title>
<path fill="none" stroke="midnightblue" d="M1017.9,-56.4435C977.769,-47.0629 913.302,-31.9926 869.715,-21.8036"/>
<polygon fill="midnightblue" stroke="midnightblue" points="870.466,-18.3847 859.931,-19.5164 868.872,-25.2009 870.466,-18.3847"/>
</g>
<!-- Node27&#45;&gt;Node13 -->
<g id="edge34" class="edge"><title>Node27&#45;&gt;Node13</title>
<path fill="none" stroke="midnightblue" d="M1343.62,-56.4435C1364.52,-47.5566 1397.43,-33.5632 1421.22,-23.4514"/>
<polygon fill="midnightblue" stroke="midnightblue" points="1422.64,-26.6504 1430.47,-19.5164 1419.9,-20.2085 1422.64,-26.6504"/>
</g>
<!-- Node27&#45;&gt;Node23 -->
<g id="edge33" class="edge"><title>Node27&#45;&gt;Node23</title>
<path fill="none" stroke="midnightblue" d="M1323.5,-56.083C1323.5,-49.0059 1323.5,-38.8611 1323.5,-29.9865"/>
<polygon fill="midnightblue" stroke="midnightblue" points="1327,-29.751 1323.5,-19.7511 1320,-29.7511 1327,-29.751"/>
</g>
<!-- Node28&#45;&gt;Node8 -->
<g id="edge37" class="edge"><title>Node28&#45;&gt;Node8</title>
<path fill="none" stroke="midnightblue" d="M703.63,-168.324C686.791,-159.664 660.693,-146.242 641.262,-136.249"/>
<polygon fill="midnightblue" stroke="midnightblue" points="642.822,-133.116 632.328,-131.655 639.62,-139.341 642.822,-133.116"/>
</g>
<!-- Node28&#45;&gt;Node13 -->
<g id="edge36" class="edge"><title>Node28&#45;&gt;Node13</title>
<path fill="none" stroke="midnightblue" d="M768.65,-168.47C815.685,-159.946 889.23,-146.112 952.5,-132 969.333,-128.245 1236.73,-60.0317 1253.5,-56 1312.12,-41.9071 1380.81,-26.4575 1419.63,-17.8228"/>
<polygon fill="midnightblue" stroke="midnightblue" points="1420.76,-21.159 1429.76,-15.5749 1419.24,-14.3253 1420.76,-21.159"/>
</g>
<!-- Node28&#45;&gt;Node15 -->
<g id="edge38" class="edge"><title>Node28&#45;&gt;Node15</title>
<path fill="none" stroke="midnightblue" d="M774.849,-168.444C847.049,-157.077 972.31,-137.356 1031.18,-128.089"/>
<polygon fill="midnightblue" stroke="midnightblue" points="1032.03,-131.497 1041.37,-126.484 1030.95,-124.582 1032.03,-131.497"/>
</g>
<!-- Node28&#45;&gt;Node24 -->
<g id="edge46" class="edge"><title>Node28&#45;&gt;Node24</title>
<path fill="none" stroke="midnightblue" d="M772.663,-168.425C813.111,-160.996 870.221,-148.789 918.5,-132 924.097,-130.054 989.87,-98.3155 1027.85,-79.9221"/>
<polygon fill="midnightblue" stroke="midnightblue" points="1029.39,-83.0694 1036.86,-75.5595 1026.33,-76.7698 1029.39,-83.0694"/>
</g>
<!-- Node29 -->
<g id="node29" class="node"><title>Node29</title>
<polygon fill="none" stroke="#bfbfbf" points="660,-112.5 660,-131.5 743,-131.5 743,-112.5 660,-112.5"/>
<text text-anchor="middle" x="701.5" y="-119.5" font-family="Helvetica,sans-Serif" font-size="10.00">unordered_map</text>
</g>
<!-- Node28&#45;&gt;Node29 -->
<g id="edge39" class="edge"><title>Node28&#45;&gt;Node29</title>
<path fill="none" stroke="midnightblue" d="M717.363,-168.083C714.817,-160.849 711.144,-150.409 707.973,-141.397"/>
<polygon fill="midnightblue" stroke="midnightblue" points="711.2,-140.023 704.579,-131.751 704.597,-142.346 711.2,-140.023"/>
</g>
<!-- Node30 -->
<g id="node30" class="node"><title>Node30</title>
<g id="a_node30"><a xlink:href="QualityObject_8h_source.html" target="_top" xlink:title="QualityControl/QualityObject.h">
<polygon fill="none" stroke="black" points="761,-112.5 761,-131.5 910,-131.5 910,-112.5 761,-112.5"/>
<text text-anchor="middle" x="835.5" y="-119.5" font-family="Helvetica,sans-Serif" font-size="10.00">QualityControl/QualityObject.h</text>
</a>
</g>
</g>
<!-- Node28&#45;&gt;Node30 -->
<g id="edge40" class="edge"><title>Node28&#45;&gt;Node30</title>
<path fill="none" stroke="midnightblue" d="M738.722,-168.444C757.396,-159.675 786.656,-145.935 808.117,-135.858"/>
<polygon fill="midnightblue" stroke="midnightblue" points="809.799,-138.935 817.363,-131.516 806.824,-132.599 809.799,-138.935"/>
</g>
<!-- Node30&#45;&gt;Node14 -->
<g id="edge42" class="edge"><title>Node30&#45;&gt;Node14</title>
<path fill="none" stroke="midnightblue" d="M841.305,-112.446C851.198,-98.5243 872.682,-71.0148 897.5,-56 919.287,-42.819 987.787,-25.9821 1026.73,-17.1079"/>
<polygon fill="midnightblue" stroke="midnightblue" points="1027.87,-20.437 1036.86,-14.8258 1026.34,-13.608 1027.87,-20.437"/>
</g>
<!-- Node30&#45;&gt;Node25 -->
<g id="edge43" class="edge"><title>Node30&#45;&gt;Node25</title>
<path fill="none" stroke="midnightblue" d="M837.248,-112.254C840.409,-98.5556 848.305,-71.9582 864.5,-56 882.509,-38.2553 908.618,-27.0245 930.295,-20.2204"/>
<polygon fill="midnightblue" stroke="midnightblue" points="931.291,-23.5759 939.898,-17.3982 929.317,-16.86 931.291,-23.5759"/>
</g>
<!-- Node30&#45;&gt;Node26 -->
<g id="edge44" class="edge"><title>Node30&#45;&gt;Node26</title>
<path fill="none" stroke="midnightblue" d="M833.385,-112.436C831.255,-103.429 828.068,-88.8113 826.5,-76 824.611,-60.5627 823.886,-42.9306 823.62,-29.929"/>
<polygon fill="midnightblue" stroke="midnightblue" points="827.119,-29.8193 823.486,-19.8669 820.119,-29.9126 827.119,-29.8193"/>
</g>
<!-- Node30&#45;&gt;Node27 -->
<g id="edge45" class="edge"><title>Node30&#45;&gt;Node27</title>
<path fill="none" stroke="midnightblue" d="M910.148,-112.74C1003.31,-102.431 1161.46,-84.9302 1252.76,-74.8276"/>
<polygon fill="midnightblue" stroke="midnightblue" points="1253.19,-78.3021 1262.74,-73.7234 1252.42,-71.3445 1253.19,-78.3021"/>
</g>
<!-- Node31 -->
<g id="node31" class="node"><title>Node31</title>
<polygon fill="none" stroke="#bfbfbf" points="906.5,-56.5 906.5,-75.5 960.5,-75.5 960.5,-56.5 906.5,-56.5"/>
<text text-anchor="middle" x="933.5" y="-63.5" font-family="Helvetica,sans-Serif" font-size="10.00">iostream</text>
</g>
<!-- Node30&#45;&gt;Node31 -->
<g id="edge41" class="edge"><title>Node30&#45;&gt;Node31</title>
<path fill="none" stroke="midnightblue" d="M851.245,-112.324C866.819,-103.743 890.877,-90.486 908.959,-80.5224"/>
<polygon fill="midnightblue" stroke="midnightblue" points="910.724,-83.546 917.794,-75.6545 907.346,-77.4152 910.724,-83.546"/>
</g>
<!-- Node32&#45;&gt;Node3 -->
<g id="edge59" class="edge"><title>Node32&#45;&gt;Node3</title>
<path fill="none" stroke="midnightblue" d="M1337.9,-173.022C1311.71,-171.346 1280.59,-169.452 1252.5,-168 878.324,-148.659 431.481,-132.316 248.231,-125.904"/>
<polygon fill="midnightblue" stroke="midnightblue" points="248.239,-122.402 238.123,-125.551 247.995,-129.398 248.239,-122.402"/>
</g>
<!-- Node32&#45;&gt;Node8 -->
<g id="edge53" class="edge"><title>Node32&#45;&gt;Node8</title>
<path fill="none" stroke="midnightblue" d="M1337.89,-173.27C1311.7,-171.638 1280.57,-169.71 1252.5,-168 988.229,-151.897 917.021,-173.039 651.687,-131.884"/>
<polygon fill="midnightblue" stroke="midnightblue" points="652.181,-128.418 641.76,-130.329 651.098,-135.334 652.181,-128.418"/>
</g>
<!-- Node32&#45;&gt;Node14 -->
<g id="edge51" class="edge"><title>Node32&#45;&gt;Node14</title>
<path fill="none" stroke="midnightblue" d="M1337.94,-171.896C1298.94,-166.445 1248.08,-155.194 1208.5,-132 1168.88,-108.781 1174.8,-84.1244 1138.5,-56 1121.01,-42.4481 1098.86,-30.7734 1081.7,-22.7136"/>
<polygon fill="midnightblue" stroke="midnightblue" points="1082.8,-19.3666 1072.25,-18.399 1079.89,-25.7349 1082.8,-19.3666"/>
</g>
<!-- Node32&#45;&gt;Node15 -->
<g id="edge52" class="edge"><title>Node32&#45;&gt;Node15</title>
<path fill="none" stroke="midnightblue" d="M1344.58,-168.444C1274.62,-157.133 1153.5,-137.55 1095.83,-128.226"/>
<polygon fill="midnightblue" stroke="midnightblue" points="1096.25,-124.75 1085.82,-126.609 1095.14,-131.66 1096.25,-124.75"/>
</g>
<!-- Node32&#45;&gt;Node21 -->
<g id="edge54" class="edge"><title>Node32&#45;&gt;Node21</title>
<path fill="none" stroke="midnightblue" d="M1428.24,-168.444C1461.44,-159.201 1514.49,-144.436 1551.06,-134.257"/>
<polygon fill="midnightblue" stroke="midnightblue" points="1552.21,-137.57 1560.9,-131.516 1550.33,-130.826 1552.21,-137.57"/>
</g>
<!-- Node32&#45;&gt;Node22 -->
<g id="edge58" class="edge"><title>Node32&#45;&gt;Node22</title>
<path fill="none" stroke="midnightblue" d="M1399.98,-168.083C1401.99,-160.849 1404.89,-150.409 1407.39,-141.397"/>
<polygon fill="midnightblue" stroke="midnightblue" points="1410.76,-142.323 1410.07,-131.751 1404.02,-140.449 1410.76,-142.323"/>
</g>
<!-- Node32&#45;&gt;Node24 -->
<g id="edge57" class="edge"><title>Node32&#45;&gt;Node24</title>
<path fill="none" stroke="midnightblue" d="M1337.79,-169.739C1292.35,-163.065 1228.76,-151.23 1175.5,-132 1138.67,-118.703 1099.31,-95.7219 1075.81,-80.9503"/>
<polygon fill="midnightblue" stroke="midnightblue" points="1077.65,-77.9714 1067.34,-75.5436 1073.88,-83.8727 1077.65,-77.9714"/>
</g>
<!-- Node32&#45;&gt;Node27 -->
<g id="edge55" class="edge"><title>Node32&#45;&gt;Node27</title>
<path fill="none" stroke="midnightblue" d="M1371.38,-168.364C1354.78,-161.373 1334.58,-149.732 1324.5,-132 1316.57,-118.049 1317.14,-99.5434 1319.22,-85.8464"/>
<polygon fill="midnightblue" stroke="midnightblue" points="1322.72,-86.1566 1321.16,-75.6774 1315.84,-84.8429 1322.72,-86.1566"/>
</g>
<!-- Node32&#45;&gt;Node30 -->
<g id="edge56" class="edge"><title>Node32&#45;&gt;Node30</title>
<path fill="none" stroke="midnightblue" d="M1337.89,-171.272C1237.8,-161.655 1035.65,-142.232 920.631,-131.18"/>
<polygon fill="midnightblue" stroke="midnightblue" points="920.748,-127.675 910.459,-130.203 920.079,-134.643 920.748,-127.675"/>
</g>
<!-- Node33 -->
<g id="node33" class="node"><title>Node33</title>
<polygon fill="none" stroke="#bfbfbf" points="1218,-112.5 1218,-131.5 1277,-131.5 1277,-112.5 1218,-112.5"/>
<text text-anchor="middle" x="1247.5" y="-119.5" font-family="Helvetica,sans-Serif" font-size="10.00">functional</text>
</g>
<!-- Node32&#45;&gt;Node33 -->
<g id="edge50" class="edge"><title>Node32&#45;&gt;Node33</title>
<path fill="none" stroke="midnightblue" d="M1373.73,-168.444C1348.61,-159.399 1308.79,-145.064 1280.6,-134.916"/>
<polygon fill="midnightblue" stroke="midnightblue" points="1281.75,-131.611 1271.16,-131.516 1279.38,-138.197 1281.75,-131.611"/>
</g>
<!-- Node34&#45;&gt;Node5 -->
<g id="edge63" class="edge"><title>Node34&#45;&gt;Node5</title>
<path fill="none" stroke="midnightblue" d="M1744.39,-224.399C1775.53,-214.163 1817.19,-200.47 1846.58,-190.808"/>
<polygon fill="midnightblue" stroke="midnightblue" points="1848.02,-194.019 1856.43,-187.571 1845.83,-187.369 1848.02,-194.019"/>
</g>
<!-- Node34&#45;&gt;Node13 -->
<g id="edge61" class="edge"><title>Node34&#45;&gt;Node13</title>
<path fill="none" stroke="midnightblue" d="M1710.92,-224.167C1731.77,-190.493 1776.74,-105.458 1734.5,-56 1702.25,-18.2429 1548.64,-11.9928 1481.75,-11.0827"/>
<polygon fill="midnightblue" stroke="midnightblue" points="1481.45,-7.57955 1471.42,-10.9758 1481.38,-14.5792 1481.45,-7.57955"/>
</g>
<!-- Node34&#45;&gt;Node21 -->
<g id="edge62" class="edge"><title>Node34&#45;&gt;Node21</title>
<path fill="none" stroke="midnightblue" d="M1688.01,-224.337C1667.47,-202.77 1628.46,-161.813 1606.86,-139.13"/>
<polygon fill="midnightblue" stroke="midnightblue" points="1609.19,-136.497 1599.76,-131.669 1604.12,-141.325 1609.19,-136.497"/>
</g>
<!-- Node34&#45;&gt;Node32 -->
<g id="edge64" class="edge"><title>Node34&#45;&gt;Node32</title>
<path fill="none" stroke="midnightblue" d="M1630.23,-224.55C1575.39,-213.817 1500.8,-199.219 1451,-189.471"/>
<polygon fill="midnightblue" stroke="midnightblue" points="1451.56,-186.014 1441.07,-187.528 1450.21,-192.884 1451.56,-186.014"/>
</g>
<!-- Node35&#45;&gt;Node13 -->
<g id="edge66" class="edge"><title>Node35&#45;&gt;Node13</title>
<path fill="none" stroke="midnightblue" d="M1315.21,-237.291C1422.42,-234.306 1618.24,-223.946 1677.5,-188 1703.22,-172.401 1706.67,-160.752 1715.5,-132 1725.42,-99.7119 1737.29,-81.8065 1715.5,-56 1685.83,-20.8646 1544.76,-13.1571 1481.42,-11.4704"/>
<polygon fill="midnightblue" stroke="midnightblue" points="1481.32,-7.96729 1471.24,-11.234 1481.16,-14.9654 1481.32,-7.96729"/>
</g>
<!-- Node35&#45;&gt;Node15 -->
<g id="edge67" class="edge"><title>Node35&#45;&gt;Node15</title>
<path fill="none" stroke="midnightblue" d="M1248.35,-229.605C1255.54,-215.055 1266.75,-185.991 1252.5,-168 1209.13,-113.238 1167.39,-148.472 1099.5,-132 1098.23,-131.692 1096.94,-131.377 1095.63,-131.057"/>
<polygon fill="midnightblue" stroke="midnightblue" points="1096.12,-127.572 1085.57,-128.57 1094.44,-134.368 1096.12,-127.572"/>
</g>
<!-- Node35&#45;&gt;Node17 -->
<g id="edge68" class="edge"><title>Node35&#45;&gt;Node17</title>
<path fill="none" stroke="midnightblue" d="M1200.8,-229.975C1147.36,-219.305 1055.85,-201.034 998.133,-189.509"/>
<polygon fill="midnightblue" stroke="midnightblue" points="998.609,-186.035 988.117,-187.509 997.238,-192.899 998.609,-186.035"/>
</g>
<!-- Node35&#45;&gt;Node18 -->
<g id="edge69" class="edge"><title>Node35&#45;&gt;Node18</title>
<path fill="none" stroke="midnightblue" d="M1236.48,-229.975C1229.06,-220.962 1217.17,-206.525 1207.93,-195.312"/>
<polygon fill="midnightblue" stroke="midnightblue" points="1210.57,-193.003 1201.51,-187.509 1205.16,-197.453 1210.57,-193.003"/>
</g>
<!-- Node35&#45;&gt;Node19 -->
<g id="edge70" class="edge"><title>Node35&#45;&gt;Node19</title>
<path fill="none" stroke="midnightblue" d="M1218.43,-229.975C1188.15,-219.68 1137.06,-202.31 1103.06,-190.75"/>
<polygon fill="midnightblue" stroke="midnightblue" points="1104.12,-187.414 1093.53,-187.509 1101.87,-194.042 1104.12,-187.414"/>
</g>
<!-- Node35&#45;&gt;Node24 -->
<g id="edge71" class="edge"><title>Node35&#45;&gt;Node24</title>
<path fill="none" stroke="midnightblue" d="M1251.81,-229.882C1264.44,-215.731 1285.49,-187.227 1270.5,-168 1230.21,-116.309 1185.42,-162.674 1127.5,-132 1104.18,-119.651 1082.26,-98.325 1068.64,-83.4819"/>
<polygon fill="midnightblue" stroke="midnightblue" points="1070.9,-80.7512 1061.63,-75.6085 1065.67,-85.4052 1070.9,-80.7512"/>
</g>
</g>
</svg>
        <g id="navigator" transform="translate(0 0)" fill="#404254">
                <rect fill="#f2f5e9" fill-opacity="0.5" stroke="#606060" stroke-width=".5" x="0" y="0" width="60" height="60"/>
                <use id="zoomplus" xlink:href="#zoomPlus" x="17" y="9" onmousedown="handleZoom(evt,'in')"/>
                <use id="zoomminus" xlink:href="#zoomMin" x="42" y="9" onmousedown="handleZoom(evt,'out')"/>
                <use id="reset" xlink:href="#resetDef" x="30" y="36" onmousedown="handleReset()"/>
                <g id="arrowUp" xlink:href="#dirArrow" transform="translate(30 24)" onmousedown="handlePan(0,-1)">
                  <use xlink:href="#rim" fill="#404040">
                        <set attributeName="fill" to="#808080" begin="arrowUp.mouseover" end="arrowUp.mouseout"/>
                  </use>
                  <path fill="none" stroke="white" stroke-width="1.5" d="M0,-3.0v7 M-2.5,-0.5L0,-3.0L2.5,-0.5"/>
                </g>
                <g id="arrowRight" xlink:href="#dirArrow" transform="rotate(90) translate(36 -43)" onmousedown="handlePan(1,0)">
                  <use xlink:href="#rim" fill="#404040">
                        <set attributeName="fill" to="#808080" begin="arrowRight.mouseover" end="arrowRight.mouseout"/>
                  </use>
                  <path fill="none" stroke="white" stroke-width="1.5" d="M0,-3.0v7 M-2.5,-0.5L0,-3.0L2.5,-0.5"/>
                </g>
                <g id="arrowDown" xlink:href="#dirArrow" transform="rotate(180) translate(-30 -48)" onmousedown="handlePan(0,1)">
                  <use xlink:href="#rim" fill="#404040">
                        <set attributeName="fill" to="#808080" begin="arrowDown.mouseover" end="arrowDown.mouseout"/>
                  </use>
                  <path fill="none" stroke="white" stroke-width="1.5" d="M0,-3.0v7 M-2.5,-0.5L0,-3.0L2.5,-0.5"/>
                </g>
                <g id="arrowLeft" xlink:href="#dirArrow" transform="rotate(270) translate(-36 17)" onmousedown="handlePan(-1,0)">
                  <use xlink:href="#rim" fill="#404040">
                        <set attributeName="fill" to="#808080" begin="arrowLeft.mouseover" end="arrowLeft.mouseout"/>
                  </use>
                  <path fill="none" stroke="white" stroke-width="1.5" d="M0,-3.0v7 M-2.5,-0.5L0,-3.0L2.5,-0.5"/>
                </g>
        </g>
        <svg viewBox="0 0 15 15" width="100%" height="30px" preserveAspectRatio="xMaxYMin meet">
         <g id="arrow_out" transform="scale(0.3 0.3)">
          <a xlink:href="runMergerTest_8cxx__incl_org.svg" target="_base">
           <rect id="button" ry="5" rx="5" y="6" x="6" height="38" width="38"
                fill="#f2f5e9" fill-opacity="0.5" stroke="#606060" stroke-width="1.0"/>
           <path id="arrow"
             d="M 11.500037,31.436501 C 11.940474,20.09759 22.043105,11.32322 32.158766,21.979434 L 37.068811,17.246167 C 37.068811,17.246167 37.088388,32 37.088388,32 L 22.160133,31.978069 C 22.160133,31.978069 26.997745,27.140456 26.997745,27.140456 C 18.528582,18.264221 13.291696,25.230495 11.500037,31.436501 z"
             style="fill:#404040;"/>
          </a>
         </g>
        </svg>
</svg>
