<?xml version="1.0" encoding="UTF-8" standalone="no"?>
<!DOCTYPE svg PUBLIC "-//W3C//DTD SVG 1.1//EN"
 "http://www.w3.org/Graphics/SVG/1.1/DTD/svg11.dtd">
<!-- Generated by graphviz version 2.38.0 (20140413.2041)
 -->
<!-- Title: Modules/TOF/src/runTOF.cxx Pages: 1 -->
<svg width="1982pt" height="330pt"
 viewBox="0.00 0.00 1981.88 330.00" xmlns="http://www.w3.org/2000/svg" xmlns:xlink="http://www.w3.org/1999/xlink">
<g id="graph0" class="graph" transform="scale(1 1) rotate(0) translate(4 326)">
<title>Modules/TOF/src/runTOF.cxx</title>
<!-- Node1 -->
<g id="node1" class="node"><title>Node1</title>
<polygon fill="#bfbfbf" stroke="black" points="1279.34,-302.5 1279.34,-321.5 1426.34,-321.5 1426.34,-302.5 1279.34,-302.5"/>
<text text-anchor="middle" x="1352.84" y="-309.5" font-family="Helvetica,sans-Serif" font-size="10.00">Modules/TOF/src/runTOF.cxx</text>
</g>
<!-- Node2 -->
<g id="node2" class="node"><title>Node2</title>
<polygon fill="none" stroke="#bfbfbf" points="601.844,-246.5 601.844,-265.5 739.844,-265.5 739.844,-246.5 601.844,-246.5"/>
<text text-anchor="middle" x="670.844" y="-253.5" font-family="Helvetica,sans-Serif" font-size="10.00">Framework/DataSampling.h</text>
</g>
<!-- Node1&#45;&gt;Node2 -->
<g id="edge1" class="edge"><title>Node1&#45;&gt;Node2</title>
<path fill="none" stroke="midnightblue" d="M1279.31,-306.485C1167.39,-299.4 947.348,-284.632 750.119,-266.087"/>
<polygon fill="midnightblue" stroke="midnightblue" points="750.436,-262.601 740.151,-265.145 749.777,-269.57 750.436,-262.601"/>
</g>
<!-- Node3 -->
<g id="node3" class="node"><title>Node3</title>
<g id="a_node3"><a xlink:href="InfrastructureGenerator_8h.html" target="_top" xlink:title="QualityControl/Infrastructure\lGenerator.h">
<polygon fill="none" stroke="black" points="1316.84,-179.5 1316.84,-209.5 1456.84,-209.5 1456.84,-179.5 1316.84,-179.5"/>
<text text-anchor="start" x="1324.84" y="-197.5" font-family="Helvetica,sans-Serif" font-size="10.00">QualityControl/Infrastructure</text>
<text text-anchor="middle" x="1386.84" y="-186.5" font-family="Helvetica,sans-Serif" font-size="10.00">Generator.h</text>
</a>
</g>
</g>
<!-- Node1&#45;&gt;Node3 -->
<g id="edge2" class="edge"><title>Node1&#45;&gt;Node3</title>
<path fill="none" stroke="midnightblue" d="M1349.8,-302.309C1345.83,-289.574 1340.14,-265.265 1346.84,-246 1350.48,-235.543 1357.29,-225.621 1364.27,-217.385"/>
<polygon fill="midnightblue" stroke="midnightblue" points="1367.07,-219.51 1371.2,-209.753 1361.88,-214.806 1367.07,-219.51"/>
</g>
<!-- Node7 -->
<g id="node7" class="node"><title>Node7</title>
<polygon fill="none" stroke="#bfbfbf" points="1163.34,-246.5 1163.34,-265.5 1260.34,-265.5 1260.34,-246.5 1163.34,-246.5"/>
<text text-anchor="middle" x="1211.84" y="-253.5" font-family="Helvetica,sans-Serif" font-size="10.00">fairlogger/Logger.h</text>
</g>
<!-- Node1&#45;&gt;Node7 -->
<g id="edge6" class="edge"><title>Node1&#45;&gt;Node7</title>
<path fill="none" stroke="midnightblue" d="M1330.5,-302.444C1307.09,-293.478 1270.11,-279.314 1243.65,-269.183"/>
<polygon fill="midnightblue" stroke="midnightblue" points="1244.67,-265.824 1234.08,-265.516 1242.17,-272.361 1244.67,-265.824"/>
</g>
<!-- Node8 -->
<g id="node8" class="node"><title>Node8</title>
<polygon fill="none" stroke="#bfbfbf" points="1910.84,-123.5 1910.84,-142.5 1960.84,-142.5 1960.84,-123.5 1910.84,-123.5"/>
<text text-anchor="middle" x="1935.84" y="-130.5" font-family="Helvetica,sans-Serif" font-size="10.00">TH1F.h</text>
</g>
<!-- Node1&#45;&gt;Node8 -->
<g id="edge7" class="edge"><title>Node1&#45;&gt;Node8</title>
<path fill="none" stroke="midnightblue" d="M1426.36,-302.511C1478.73,-295.43 1550.43,-283.624 1611.84,-266 1726.16,-233.194 1855.16,-173.346 1909.49,-147.018"/>
<polygon fill="midnightblue" stroke="midnightblue" points="1911.3,-150.034 1918.75,-142.506 1908.23,-143.742 1911.3,-150.034"/>
</g>
<!-- Node9 -->
<g id="node9" class="node"><title>Node9</title>
<polygon fill="none" stroke="#bfbfbf" points="1212.84,-123.5 1212.84,-142.5 1264.84,-142.5 1264.84,-123.5 1212.84,-123.5"/>
<text text-anchor="middle" x="1238.84" y="-130.5" font-family="Helvetica,sans-Serif" font-size="10.00">memory</text>
</g>
<!-- Node1&#45;&gt;Node9 -->
<g id="edge8" class="edge"><title>Node1&#45;&gt;Node9</title>
<path fill="none" stroke="midnightblue" d="M1347.35,-302.463C1329.71,-275.078 1274.3,-189.052 1250.21,-151.653"/>
<polygon fill="midnightblue" stroke="midnightblue" points="1252.91,-149.38 1244.56,-142.868 1247.03,-153.171 1252.91,-149.38"/>
</g>
<!-- Node10 -->
<g id="node10" class="node"><title>Node10</title>
<polygon fill="none" stroke="#bfbfbf" points="1355.34,-246.5 1355.34,-265.5 1404.34,-265.5 1404.34,-246.5 1355.34,-246.5"/>
<text text-anchor="middle" x="1379.84" y="-253.5" font-family="Helvetica,sans-Serif" font-size="10.00">random</text>
</g>
<!-- Node1&#45;&gt;Node10 -->
<g id="edge9" class="edge"><title>Node1&#45;&gt;Node10</title>
<path fill="none" stroke="midnightblue" d="M1357.3,-302.083C1361,-294.691 1366.37,-283.953 1370.94,-274.811"/>
<polygon fill="midnightblue" stroke="midnightblue" points="1374.13,-276.261 1375.47,-265.751 1367.87,-273.13 1374.13,-276.261"/>
</g>
<!-- Node11 -->
<g id="node11" class="node"><title>Node11</title>
<polygon fill="none" stroke="#bfbfbf" points="1422.84,-246.5 1422.84,-265.5 1582.84,-265.5 1582.84,-246.5 1422.84,-246.5"/>
<text text-anchor="middle" x="1502.84" y="-253.5" font-family="Helvetica,sans-Serif" font-size="10.00">Framework/runDataProcessing.h</text>
</g>
<!-- Node1&#45;&gt;Node11 -->
<g id="edge10" class="edge"><title>Node1&#45;&gt;Node11</title>
<path fill="none" stroke="midnightblue" d="M1376.61,-302.444C1401.74,-293.399 1441.55,-279.064 1469.74,-268.916"/>
<polygon fill="midnightblue" stroke="midnightblue" points="1470.96,-272.197 1479.19,-265.516 1468.59,-265.611 1470.96,-272.197"/>
</g>
<!-- Node12 -->
<g id="node12" class="node"><title>Node12</title>
<g id="a_node12"><a xlink:href="CheckRunner_8h.html" target="_top" xlink:title="QualityControl/CheckRunner.h">
<polygon fill="none" stroke="black" points="757.844,-246.5 757.844,-265.5 907.844,-265.5 907.844,-246.5 757.844,-246.5"/>
<text text-anchor="middle" x="832.844" y="-253.5" font-family="Helvetica,sans-Serif" font-size="10.00">QualityControl/CheckRunner.h</text>
</a>
</g>
</g>
<!-- Node1&#45;&gt;Node12 -->
<g id="edge11" class="edge"><title>Node1&#45;&gt;Node12</title>
<path fill="none" stroke="midnightblue" d="M1279.17,-303.349C1183.96,-293.462 1018.51,-276.281 918.01,-265.844"/>
<polygon fill="midnightblue" stroke="midnightblue" points="918.199,-262.345 907.891,-264.793 917.476,-269.308 918.199,-262.345"/>
</g>
<!-- Node35 -->
<g id="node35" class="node"><title>Node35</title>
<g id="a_node35"><a xlink:href="runnerUtils_8h.html" target="_top" xlink:title="QualityControl/runnerUtils.h">
<polygon fill="none" stroke="black" points="1671.34,-67.5 1671.34,-86.5 1808.34,-86.5 1808.34,-67.5 1671.34,-67.5"/>
<text text-anchor="middle" x="1739.84" y="-74.5" font-family="Helvetica,sans-Serif" font-size="10.00">QualityControl/runnerUtils.h</text>
</a>
</g>
</g>
<!-- Node1&#45;&gt;Node35 -->
<g id="edge62" class="edge"><title>Node1&#45;&gt;Node35</title>
<path fill="none" stroke="midnightblue" d="M1426.57,-302.962C1577.04,-284.775 1910.34,-234.747 1969.84,-143 1974.68,-135.542 1975.49,-129.862 1969.84,-123 1950.78,-99.839 1877.35,-88.4293 1818.53,-82.9178"/>
<polygon fill="midnightblue" stroke="midnightblue" points="1818.75,-79.4238 1808.48,-82.0193 1818.13,-86.396 1818.75,-79.4238"/>
</g>
<!-- Node37 -->
<g id="node37" class="node"><title>Node37</title>
<g id="a_node37"><a xlink:href="ExamplePrinterSpec_8h.html" target="_top" xlink:title="QualityControl/ExamplePrinter\lSpec.h">
<polygon fill="none" stroke="black" points="1536.34,-179.5 1536.34,-209.5 1685.34,-209.5 1685.34,-179.5 1536.34,-179.5"/>
<text text-anchor="start" x="1544.34" y="-197.5" font-family="Helvetica,sans-Serif" font-size="10.00">QualityControl/ExamplePrinter</text>
<text text-anchor="middle" x="1610.84" y="-186.5" font-family="Helvetica,sans-Serif" font-size="10.00">Spec.h</text>
</a>
</g>
</g>
<!-- Node1&#45;&gt;Node37 -->
<g id="edge66" class="edge"><title>Node1&#45;&gt;Node37</title>
<path fill="none" stroke="midnightblue" d="M1426.57,-305.635C1487.66,-299.691 1568.18,-287.906 1591.84,-266 1604.42,-254.359 1609.01,-235.353 1610.55,-220.006"/>
<polygon fill="midnightblue" stroke="midnightblue" points="1614.06,-219.835 1611.19,-209.636 1607.08,-219.399 1614.06,-219.835"/>
</g>
<!-- Node4 -->
<g id="node4" class="node"><title>Node4</title>
<polygon fill="none" stroke="#bfbfbf" points="768.844,-123.5 768.844,-142.5 812.844,-142.5 812.844,-123.5 768.844,-123.5"/>
<text text-anchor="middle" x="790.844" y="-130.5" font-family="Helvetica,sans-Serif" font-size="10.00">vector</text>
</g>
<!-- Node3&#45;&gt;Node4 -->
<g id="edge3" class="edge"><title>Node3&#45;&gt;Node4</title>
<path fill="none" stroke="midnightblue" d="M1316.74,-186.938C1183.56,-174.451 903.218,-148.057 858.844,-143 847.067,-141.658 834.169,-139.999 822.802,-138.472"/>
<polygon fill="midnightblue" stroke="midnightblue" points="823.249,-135.001 812.868,-137.121 822.305,-141.937 823.249,-135.001"/>
</g>
<!-- Node5 -->
<g id="node5" class="node"><title>Node5</title>
<polygon fill="none" stroke="#bfbfbf" points="883.344,-6 883.344,-25 924.344,-25 924.344,-6 883.344,-6"/>
<text text-anchor="middle" x="903.844" y="-13" font-family="Helvetica,sans-Serif" font-size="10.00">string</text>
</g>
<!-- Node3&#45;&gt;Node5 -->
<g id="edge4" class="edge"><title>Node3&#45;&gt;Node5</title>
<path fill="none" stroke="midnightblue" d="M1406.62,-179.328C1424.76,-164.6 1446.74,-141.204 1431.84,-123 1415.72,-103.303 1045.02,-40.0621 934.605,-21.6033"/>
<polygon fill="midnightblue" stroke="midnightblue" points="934.903,-18.1046 924.463,-19.9115 933.751,-25.0092 934.903,-18.1046"/>
</g>
<!-- Node6 -->
<g id="node6" class="node"><title>Node6</title>
<polygon fill="none" stroke="#bfbfbf" points="1282.84,-123.5 1282.84,-142.5 1422.84,-142.5 1422.84,-123.5 1282.84,-123.5"/>
<text text-anchor="middle" x="1352.84" y="-130.5" font-family="Helvetica,sans-Serif" font-size="10.00">Framework/WorkflowSpec.h</text>
</g>
<!-- Node3&#45;&gt;Node6 -->
<g id="edge5" class="edge"><title>Node3&#45;&gt;Node6</title>
<path fill="none" stroke="midnightblue" d="M1378.79,-179.399C1374,-171.021 1367.89,-160.327 1362.8,-151.423"/>
<polygon fill="midnightblue" stroke="midnightblue" points="1365.79,-149.604 1357.79,-142.658 1359.71,-153.077 1365.79,-149.604"/>
</g>
<!-- Node12&#45;&gt;Node4 -->
<g id="edge16" class="edge"><title>Node12&#45;&gt;Node4</title>
<path fill="none" stroke="midnightblue" d="M855.302,-246.382C870.613,-239.184 889.707,-227.288 898.844,-210 905.282,-197.819 906.486,-190.464 898.844,-179 889.974,-165.696 851.167,-151.736 822.599,-142.959"/>
<polygon fill="midnightblue" stroke="midnightblue" points="823.571,-139.596 812.988,-140.08 821.563,-146.302 823.571,-139.596"/>
</g>
<!-- Node12&#45;&gt;Node5 -->
<g id="edge14" class="edge"><title>Node12&#45;&gt;Node5</title>
<path fill="none" stroke="midnightblue" d="M757.506,-246.868C639.552,-234.115 424.535,-210.772 423.844,-210 414.65,-199.739 419.797,-192.17 423.844,-179 432.678,-150.248 437.113,-140.12 461.844,-123 594.216,-31.3621 796.241,-18.1419 872.894,-16.5535"/>
<polygon fill="midnightblue" stroke="midnightblue" points="873.325,-20.0474 883.271,-16.3956 873.219,-13.0482 873.325,-20.0474"/>
</g>
<!-- Node12&#45;&gt;Node9 -->
<g id="edge13" class="edge"><title>Node12&#45;&gt;Node9</title>
<path fill="none" stroke="midnightblue" d="M908.023,-251.573C1017.34,-245.843 1209.65,-232.656 1231.84,-210 1246.37,-195.171 1245.74,-170.025 1243.06,-152.746"/>
<polygon fill="midnightblue" stroke="midnightblue" points="1246.46,-151.88 1241.14,-142.714 1239.58,-153.194 1246.46,-151.88"/>
</g>
<!-- Node13 -->
<g id="node13" class="node"><title>Node13</title>
<polygon fill="none" stroke="#bfbfbf" points="1176.84,-185 1176.84,-204 1222.84,-204 1222.84,-185 1176.84,-185"/>
<text text-anchor="middle" x="1199.84" y="-192" font-family="Helvetica,sans-Serif" font-size="10.00">chrono</text>
</g>
<!-- Node12&#45;&gt;Node13 -->
<g id="edge12" class="edge"><title>Node12&#45;&gt;Node13</title>
<path fill="none" stroke="midnightblue" d="M907.878,-249.882C975.413,-244.074 1076.95,-232.347 1162.84,-210 1165.51,-209.307 1168.24,-208.479 1170.95,-207.573"/>
<polygon fill="midnightblue" stroke="midnightblue" points="1172.36,-210.785 1180.55,-204.063 1169.95,-204.212 1172.36,-210.785"/>
</g>
<!-- Node14 -->
<g id="node14" class="node"><title>Node14</title>
<polygon fill="none" stroke="#bfbfbf" points="217.344,-6 217.344,-25 252.344,-25 252.344,-6 217.344,-6"/>
<text text-anchor="middle" x="234.844" y="-13" font-family="Helvetica,sans-Serif" font-size="10.00">map</text>
</g>
<!-- Node12&#45;&gt;Node14 -->
<g id="edge15" class="edge"><title>Node12&#45;&gt;Node14</title>
<path fill="none" stroke="midnightblue" d="M757.756,-246.764C754.747,-246.495 751.767,-246.239 748.844,-246 606.647,-234.397 243.43,-254.392 107.844,-210 55.944,-193.008 30.8835,-191.003 4.84371,-143 -4.8747,-125.085 2.09762,-80.3855 14.8437,-67 41.0738,-39.454 154.029,-24.6457 207.098,-19.0967"/>
<polygon fill="midnightblue" stroke="midnightblue" points="207.568,-22.5671 217.166,-18.0805 206.865,-15.6025 207.568,-22.5671"/>
</g>
<!-- Node15 -->
<g id="node15" class="node"><title>Node15</title>
<polygon fill="none" stroke="#bfbfbf" points="150.844,-185 150.844,-204 228.844,-204 228.844,-185 150.844,-185"/>
<text text-anchor="middle" x="189.844" y="-192" font-family="Helvetica,sans-Serif" font-size="10.00">unordered_set</text>
</g>
<!-- Node12&#45;&gt;Node15 -->
<g id="edge17" class="edge"><title>Node12&#45;&gt;Node15</title>
<path fill="none" stroke="midnightblue" d="M757.751,-246.817C754.744,-246.533 751.766,-246.259 748.844,-246 522.061,-225.869 461.764,-251.175 237.844,-210 233.389,-209.181 228.762,-208.096 224.217,-206.886"/>
<polygon fill="midnightblue" stroke="midnightblue" points="225.075,-203.491 214.497,-204.096 223.143,-210.22 225.075,-203.491"/>
</g>
<!-- Node16 -->
<g id="node16" class="node"><title>Node16</title>
<polygon fill="none" stroke="#bfbfbf" points="246.844,-185 246.844,-204 338.844,-204 338.844,-185 246.844,-185"/>
<text text-anchor="middle" x="292.844" y="-192" font-family="Helvetica,sans-Serif" font-size="10.00">Common/Timer.h</text>
</g>
<!-- Node12&#45;&gt;Node16 -->
<g id="edge18" class="edge"><title>Node12&#45;&gt;Node16</title>
<path fill="none" stroke="midnightblue" d="M757.744,-246.893C754.738,-246.588 751.763,-246.289 748.844,-246 572.978,-228.586 527.201,-238.834 352.844,-210 346.883,-209.014 340.638,-207.76 334.523,-206.402"/>
<polygon fill="midnightblue" stroke="midnightblue" points="334.961,-202.91 324.428,-204.05 333.372,-209.728 334.961,-202.91"/>
</g>
<!-- Node17 -->
<g id="node17" class="node"><title>Node17</title>
<polygon fill="none" stroke="#bfbfbf" points="1478.84,-123.5 1478.84,-142.5 1576.84,-142.5 1576.84,-123.5 1478.84,-123.5"/>
<text text-anchor="middle" x="1527.84" y="-130.5" font-family="Helvetica,sans-Serif" font-size="10.00">Framework/Task.h</text>
</g>
<!-- Node12&#45;&gt;Node17 -->
<g id="edge19" class="edge"><title>Node12&#45;&gt;Node17</title>
<path fill="none" stroke="midnightblue" d="M907.846,-252.995C1064.8,-248.319 1417.41,-235.138 1465.84,-210 1490.58,-197.16 1509.03,-169.668 1519.12,-151.511"/>
<polygon fill="midnightblue" stroke="midnightblue" points="1522.29,-153.014 1523.85,-142.536 1516.09,-149.75 1522.29,-153.014"/>
</g>
<!-- Node18 -->
<g id="node18" class="node"><title>Node18</title>
<polygon fill="none" stroke="#bfbfbf" points="570.344,-185 570.344,-204 687.344,-204 687.344,-185 570.344,-185"/>
<text text-anchor="middle" x="628.844" y="-192" font-family="Helvetica,sans-Serif" font-size="10.00">Headers/DataHeader.h</text>
</g>
<!-- Node12&#45;&gt;Node18 -->
<g id="edge20" class="edge"><title>Node12&#45;&gt;Node18</title>
<path fill="none" stroke="midnightblue" d="M803.615,-246.475C767.941,-236.07 707.484,-218.437 667.861,-206.88"/>
<polygon fill="midnightblue" stroke="midnightblue" points="668.598,-203.449 658.018,-204.009 666.638,-210.169 668.598,-203.449"/>
</g>
<!-- Node19 -->
<g id="node19" class="node"><title>Node19</title>
<polygon fill="none" stroke="#bfbfbf" points="705.344,-185 705.344,-204 856.344,-204 856.344,-185 705.344,-185"/>
<text text-anchor="middle" x="780.844" y="-192" font-family="Helvetica,sans-Serif" font-size="10.00">Monitoring/MonitoringFactory.h</text>
</g>
<!-- Node12&#45;&gt;Node19 -->
<g id="edge21" class="edge"><title>Node12&#45;&gt;Node19</title>
<path fill="none" stroke="midnightblue" d="M825.393,-246.475C817.516,-237.462 804.899,-223.025 795.099,-211.812"/>
<polygon fill="midnightblue" stroke="midnightblue" points="797.496,-209.236 788.28,-204.009 792.225,-213.842 797.496,-209.236"/>
</g>
<!-- Node20 -->
<g id="node20" class="node"><title>Node20</title>
<polygon fill="none" stroke="#bfbfbf" points="586.844,-123.5 586.844,-142.5 750.844,-142.5 750.844,-123.5 586.844,-123.5"/>
<text text-anchor="middle" x="668.844" y="-130.5" font-family="Helvetica,sans-Serif" font-size="10.00">Framework/DataProcessorSpec.h</text>
</g>
<!-- Node12&#45;&gt;Node20 -->
<g id="edge22" class="edge"><title>Node12&#45;&gt;Node20</title>
<path fill="none" stroke="midnightblue" d="M841.967,-246.218C856.494,-231.172 881.611,-200.054 864.844,-179 851.346,-162.052 804.867,-150.96 760.559,-144.03"/>
<polygon fill="midnightblue" stroke="midnightblue" points="760.967,-140.552 750.558,-142.528 759.927,-147.475 760.967,-140.552"/>
</g>
<!-- Node21 -->
<g id="node21" class="node"><title>Node21</title>
<g id="a_node21"><a xlink:href="CheckInterface_8h.html" target="_top" xlink:title="QualityControl/CheckInterface.h">
<polygon fill="none" stroke="black" points="219.344,-123.5 219.344,-142.5 376.344,-142.5 376.344,-123.5 219.344,-123.5"/>
<text text-anchor="middle" x="297.844" y="-130.5" font-family="Helvetica,sans-Serif" font-size="10.00">QualityControl/CheckInterface.h</text>
</a>
</g>
</g>
<!-- Node12&#45;&gt;Node21 -->
<g id="edge23" class="edge"><title>Node12&#45;&gt;Node21</title>
<path fill="none" stroke="midnightblue" d="M757.74,-246.929C754.736,-246.614 751.761,-246.303 748.844,-246 589.786,-229.482 538.586,-271.194 390.844,-210 382.227,-206.431 340.233,-170.733 315.722,-149.555"/>
<polygon fill="midnightblue" stroke="midnightblue" points="317.714,-146.65 307.865,-142.746 313.13,-151.94 317.714,-146.65"/>
</g>
<!-- Node23 -->
<g id="node23" class="node"><title>Node23</title>
<g id="a_node23"><a xlink:href="MonitorObject_8h.html" target="_top" xlink:title="QualityControl/MonitorObject.h">
<polygon fill="none" stroke="black" points="941.344,-67.5 941.344,-86.5 1092.34,-86.5 1092.34,-67.5 941.344,-67.5"/>
<text text-anchor="middle" x="1016.84" y="-74.5" font-family="Helvetica,sans-Serif" font-size="10.00">QualityControl/MonitorObject.h</text>
</a>
</g>
</g>
<!-- Node12&#45;&gt;Node23 -->
<g id="edge48" class="edge"><title>Node12&#45;&gt;Node23</title>
<path fill="none" stroke="midnightblue" d="M907.957,-253.144C985.28,-249.62 1098.73,-239.431 1129.84,-210 1158.3,-183.088 1166.44,-154.985 1143.84,-123 1132.35,-106.739 1114.46,-96.3163 1095.7,-89.6475"/>
<polygon fill="midnightblue" stroke="midnightblue" points="1096.73,-86.3032 1086.14,-86.5788 1094.59,-92.9682 1096.73,-86.3032"/>
</g>
<!-- Node27 -->
<g id="node27" class="node"><title>Node27</title>
<g id="a_node27"><a xlink:href="DatabaseInterface_8h.html" target="_top" xlink:title="QualityControl/DatabaseInterface.h">
<polygon fill="none" stroke="black" points="950.844,-185 950.844,-204 1120.84,-204 1120.84,-185 950.844,-185"/>
<text text-anchor="middle" x="1035.84" y="-192" font-family="Helvetica,sans-Serif" font-size="10.00">QualityControl/DatabaseInterface.h</text>
</a>
</g>
</g>
<!-- Node12&#45;&gt;Node27 -->
<g id="edge36" class="edge"><title>Node12&#45;&gt;Node27</title>
<path fill="none" stroke="midnightblue" d="M861.929,-246.475C897.429,-236.07 957.589,-218.437 997.017,-206.88"/>
<polygon fill="midnightblue" stroke="midnightblue" points="998.201,-210.181 1006.81,-204.009 996.232,-203.463 998.201,-210.181"/>
</g>
<!-- Node31 -->
<g id="node31" class="node"><title>Node31</title>
<g id="a_node31"><a xlink:href="QcInfoLogger_8h.html" target="_top" xlink:title="QualityControl/QcInfoLogger.h">
<polygon fill="none" stroke="black" points="14.3437,-123.5 14.3437,-142.5 163.344,-142.5 163.344,-123.5 14.3437,-123.5"/>
<text text-anchor="middle" x="88.8437" y="-130.5" font-family="Helvetica,sans-Serif" font-size="10.00">QualityControl/QcInfoLogger.h</text>
</a>
</g>
</g>
<!-- Node12&#45;&gt;Node31 -->
<g id="edge49" class="edge"><title>Node12&#45;&gt;Node31</title>
<path fill="none" stroke="midnightblue" d="M757.755,-246.776C754.746,-246.503 751.767,-246.243 748.844,-246 681.513,-240.4 200.791,-243.014 141.844,-210 119.083,-197.253 103.891,-170.157 95.8114,-152.007"/>
<polygon fill="midnightblue" stroke="midnightblue" points="98.9428,-150.422 91.873,-142.531 92.4788,-153.108 98.9428,-150.422"/>
</g>
<!-- Node33 -->
<g id="node33" class="node"><title>Node33</title>
<g id="a_node33"><a xlink:href="Check_8h_source.html" target="_top" xlink:title="QualityControl/Check.h">
<polygon fill="none" stroke="black" points="433.344,-185 433.344,-204 552.344,-204 552.344,-185 433.344,-185"/>
<text text-anchor="middle" x="492.844" y="-192" font-family="Helvetica,sans-Serif" font-size="10.00">QualityControl/Check.h</text>
</a>
</g>
</g>
<!-- Node12&#45;&gt;Node33 -->
<g id="edge51" class="edge"><title>Node12&#45;&gt;Node33</title>
<path fill="none" stroke="midnightblue" d="M776.71,-246.488C721.618,-237.951 635.268,-224.084 560.844,-210 554.539,-208.807 547.921,-207.484 541.391,-206.137"/>
<polygon fill="midnightblue" stroke="midnightblue" points="541.766,-202.64 531.261,-204.015 540.331,-209.491 541.766,-202.64"/>
</g>
<!-- Node21&#45;&gt;Node5 -->
<g id="edge24" class="edge"><title>Node21&#45;&gt;Node5</title>
<path fill="none" stroke="midnightblue" d="M304.014,-123.376C314.976,-108.826 339.39,-79.7462 367.844,-67 459.301,-26.0305 773.623,-18.2635 873.277,-16.8214"/>
<polygon fill="midnightblue" stroke="midnightblue" points="873.342,-20.321 883.294,-16.6877 873.249,-13.3216 873.342,-20.321"/>
</g>
<!-- Node21&#45;&gt;Node14 -->
<g id="edge25" class="edge"><title>Node21&#45;&gt;Node14</title>
<path fill="none" stroke="midnightblue" d="M288.649,-123.493C279.926,-114.988 266.976,-101.166 258.844,-87 249.406,-70.5586 242.906,-49.8236 239.075,-35.107"/>
<polygon fill="midnightblue" stroke="midnightblue" points="242.428,-34.0844 236.661,-25.197 235.627,-35.7412 242.428,-34.0844"/>
</g>
<!-- Node22 -->
<g id="node22" class="node"><title>Node22</title>
<polygon fill="none" stroke="#bfbfbf" points="409.844,-6 409.844,-25 465.844,-25 465.844,-6 409.844,-6"/>
<text text-anchor="middle" x="437.844" y="-13" font-family="Helvetica,sans-Serif" font-size="10.00">Rtypes.h</text>
</g>
<!-- Node21&#45;&gt;Node22 -->
<g id="edge26" class="edge"><title>Node21&#45;&gt;Node22</title>
<path fill="none" stroke="midnightblue" d="M300.847,-123.351C305.938,-109.785 317.437,-83.3658 334.844,-67 353.382,-49.5704 379.072,-36.9597 400.157,-28.6993"/>
<polygon fill="midnightblue" stroke="midnightblue" points="401.641,-31.8811 409.782,-25.1001 399.189,-25.3245 401.641,-31.8811"/>
</g>
<!-- Node21&#45;&gt;Node23 -->
<g id="edge27" class="edge"><title>Node21&#45;&gt;Node23</title>
<path fill="none" stroke="midnightblue" d="M376.49,-127.296C494.462,-120.045 724.503,-105.151 931.178,-87.0275"/>
<polygon fill="midnightblue" stroke="midnightblue" points="931.659,-90.4988 941.313,-86.1345 931.045,-83.5258 931.659,-90.4988"/>
</g>
<!-- Node26 -->
<g id="node26" class="node"><title>Node26</title>
<g id="a_node26"><a xlink:href="Quality_8h.html" target="_top" xlink:title="QualityControl/Quality.h">
<polygon fill="none" stroke="black" points="377.344,-67.5 377.344,-86.5 498.344,-86.5 498.344,-67.5 377.344,-67.5"/>
<text text-anchor="middle" x="437.844" y="-74.5" font-family="Helvetica,sans-Serif" font-size="10.00">QualityControl/Quality.h</text>
</a>
</g>
</g>
<!-- Node21&#45;&gt;Node26 -->
<g id="edge33" class="edge"><title>Node21&#45;&gt;Node26</title>
<path fill="none" stroke="midnightblue" d="M320.027,-123.444C343.272,-114.478 379.993,-100.314 406.259,-90.1827"/>
<polygon fill="midnightblue" stroke="midnightblue" points="407.694,-93.3807 415.764,-86.5164 405.174,-86.8497 407.694,-93.3807"/>
</g>
<!-- Node23&#45;&gt;Node5 -->
<g id="edge28" class="edge"><title>Node23&#45;&gt;Node5</title>
<path fill="none" stroke="midnightblue" d="M1000.65,-67.4751C981.941,-57.6222 950.921,-41.2883 929.045,-29.7697"/>
<polygon fill="midnightblue" stroke="midnightblue" points="930.483,-26.5713 920.004,-25.0091 927.221,-32.7651 930.483,-26.5713"/>
</g>
<!-- Node23&#45;&gt;Node14 -->
<g id="edge29" class="edge"><title>Node23&#45;&gt;Node14</title>
<path fill="none" stroke="midnightblue" d="M941.314,-67.8531C938.116,-67.5554 934.948,-67.2695 931.844,-67 696.188,-46.5432 636.677,-49.2926 400.844,-31 352.386,-27.2413 296.035,-22.1709 263.022,-19.1294"/>
<polygon fill="midnightblue" stroke="midnightblue" points="263.046,-15.6168 252.766,-18.1805 262.401,-22.587 263.046,-15.6168"/>
</g>
<!-- Node23&#45;&gt;Node22 -->
<g id="edge30" class="edge"><title>Node23&#45;&gt;Node22</title>
<path fill="none" stroke="midnightblue" d="M941.301,-67.9871C938.106,-67.6527 934.943,-67.3225 931.844,-67 761.831,-49.3095 558.845,-28.7295 475.941,-20.3472"/>
<polygon fill="midnightblue" stroke="midnightblue" points="476.276,-16.8633 465.975,-19.3398 475.572,-23.8278 476.276,-16.8633"/>
</g>
<!-- Node24 -->
<g id="node24" class="node"><title>Node24</title>
<polygon fill="none" stroke="#bfbfbf" points="1005.34,-6 1005.34,-25 1064.34,-25 1064.34,-6 1005.34,-6"/>
<text text-anchor="middle" x="1034.84" y="-13" font-family="Helvetica,sans-Serif" font-size="10.00">TObject.h</text>
</g>
<!-- Node23&#45;&gt;Node24 -->
<g id="edge31" class="edge"><title>Node23&#45;&gt;Node24</title>
<path fill="none" stroke="midnightblue" d="M1019.42,-67.4751C1021.99,-58.9919 1026.01,-45.7043 1029.3,-34.8222"/>
<polygon fill="midnightblue" stroke="midnightblue" points="1032.72,-35.5942 1032.27,-25.0091 1026.02,-33.5672 1032.72,-35.5942"/>
</g>
<!-- Node25 -->
<g id="node25" class="node"><title>Node25</title>
<polygon fill="none" stroke="#bfbfbf" points="1100.84,-6 1100.84,-25 1216.84,-25 1216.84,-6 1100.84,-6"/>
<text text-anchor="middle" x="1158.84" y="-13" font-family="Helvetica,sans-Serif" font-size="10.00">Common/Exceptions.h</text>
</g>
<!-- Node23&#45;&gt;Node25 -->
<g id="edge32" class="edge"><title>Node23&#45;&gt;Node25</title>
<path fill="none" stroke="midnightblue" d="M1037.19,-67.4751C1061.23,-57.4013 1101.44,-40.5525 1129.01,-29.0023"/>
<polygon fill="midnightblue" stroke="midnightblue" points="1130.67,-32.1018 1138.54,-25.0091 1127.96,-25.6457 1130.67,-32.1018"/>
</g>
<!-- Node26&#45;&gt;Node5 -->
<g id="edge35" class="edge"><title>Node26&#45;&gt;Node5</title>
<path fill="none" stroke="midnightblue" d="M498.765,-68.2214C599.407,-55.3712 796.825,-30.1644 872.918,-20.4487"/>
<polygon fill="midnightblue" stroke="midnightblue" points="873.762,-23.8694 883.238,-19.131 872.875,-16.9258 873.762,-23.8694"/>
</g>
<!-- Node26&#45;&gt;Node22 -->
<g id="edge34" class="edge"><title>Node26&#45;&gt;Node22</title>
<path fill="none" stroke="midnightblue" d="M437.844,-67.4751C437.844,-59.0803 437.844,-45.9806 437.844,-35.1631"/>
<polygon fill="midnightblue" stroke="midnightblue" points="441.344,-35.0091 437.844,-25.0091 434.344,-35.0091 441.344,-35.0091"/>
</g>
<!-- Node27&#45;&gt;Node4 -->
<g id="edge39" class="edge"><title>Node27&#45;&gt;Node4</title>
<path fill="none" stroke="midnightblue" d="M999.95,-184.918C958.299,-174.939 887.562,-157.925 826.844,-143 825.577,-142.689 824.285,-142.37 822.98,-142.048"/>
<polygon fill="midnightblue" stroke="midnightblue" points="823.47,-138.563 812.922,-139.549 821.783,-145.357 823.47,-138.563"/>
</g>
<!-- Node27&#45;&gt;Node5 -->
<g id="edge37" class="edge"><title>Node27&#45;&gt;Node5</title>
<path fill="none" stroke="midnightblue" d="M979.64,-184.949C933.522,-176.648 873.52,-162.45 858.844,-143 852.955,-135.196 844.845,-105.982 859.844,-67 865.063,-53.434 875.676,-41.0759 885.171,-31.9805"/>
<polygon fill="midnightblue" stroke="midnightblue" points="887.659,-34.4496 892.74,-25.1529 882.97,-29.2516 887.659,-34.4496"/>
</g>
<!-- Node27&#45;&gt;Node9 -->
<g id="edge38" class="edge"><title>Node27&#45;&gt;Node9</title>
<path fill="none" stroke="midnightblue" d="M1064.93,-184.975C1101.34,-174.304 1163.68,-156.03 1203,-144.506"/>
<polygon fill="midnightblue" stroke="midnightblue" points="1204.1,-147.831 1212.71,-141.659 1202.13,-141.113 1204.1,-147.831"/>
</g>
<!-- Node27&#45;&gt;Node23 -->
<g id="edge47" class="edge"><title>Node27&#45;&gt;Node23</title>
<path fill="none" stroke="midnightblue" d="M1065,-184.928C1098.34,-173.554 1146,-151.539 1126.84,-123 1115.92,-106.734 1097.97,-96.344 1079.71,-89.7083"/>
<polygon fill="midnightblue" stroke="midnightblue" points="1080.76,-86.3688 1070.16,-86.5693 1078.57,-93.0184 1080.76,-86.3688"/>
</g>
<!-- Node28 -->
<g id="node28" class="node"><title>Node28</title>
<polygon fill="none" stroke="#bfbfbf" points="1035.34,-123.5 1035.34,-142.5 1118.34,-142.5 1118.34,-123.5 1035.34,-123.5"/>
<text text-anchor="middle" x="1076.84" y="-130.5" font-family="Helvetica,sans-Serif" font-size="10.00">unordered_map</text>
</g>
<!-- Node27&#45;&gt;Node28 -->
<g id="edge40" class="edge"><title>Node27&#45;&gt;Node28</title>
<path fill="none" stroke="midnightblue" d="M1041.72,-184.975C1047.81,-176.138 1057.49,-162.089 1065.15,-150.975"/>
<polygon fill="midnightblue" stroke="midnightblue" points="1068.19,-152.729 1070.98,-142.509 1062.42,-148.758 1068.19,-152.729"/>
</g>
<!-- Node29 -->
<g id="node29" class="node"><title>Node29</title>
<g id="a_node29"><a xlink:href="QualityObject_8h_source.html" target="_top" xlink:title="QualityControl/QualityObject.h">
<polygon fill="none" stroke="black" points="868.344,-123.5 868.344,-142.5 1017.34,-142.5 1017.34,-123.5 868.344,-123.5"/>
<text text-anchor="middle" x="942.844" y="-130.5" font-family="Helvetica,sans-Serif" font-size="10.00">QualityControl/QualityObject.h</text>
</a>
</g>
</g>
<!-- Node27&#45;&gt;Node29 -->
<g id="edge41" class="edge"><title>Node27&#45;&gt;Node29</title>
<path fill="none" stroke="midnightblue" d="M1022.52,-184.975C1007.46,-175.343 982.728,-159.517 964.807,-148.052"/>
<polygon fill="midnightblue" stroke="midnightblue" points="966.453,-144.95 956.144,-142.509 962.681,-150.847 966.453,-144.95"/>
</g>
<!-- Node29&#45;&gt;Node14 -->
<g id="edge43" class="edge"><title>Node29&#45;&gt;Node14</title>
<path fill="none" stroke="midnightblue" d="M868.297,-126.361C714.078,-114.67 373.79,-88.7275 367.844,-87 325.153,-74.5965 280.472,-47.548 255.295,-30.7941"/>
<polygon fill="midnightblue" stroke="midnightblue" points="257.184,-27.8459 246.942,-25.1335 253.257,-33.6408 257.184,-27.8459"/>
</g>
<!-- Node29&#45;&gt;Node24 -->
<g id="edge44" class="edge"><title>Node29&#45;&gt;Node24</title>
<path fill="none" stroke="midnightblue" d="M997.927,-123.496C1038.33,-116.001 1088.26,-103.674 1100.84,-87 1116.97,-65.6428 1087.33,-43.5121 1062.73,-29.8745"/>
<polygon fill="midnightblue" stroke="midnightblue" points="1064.13,-26.6558 1053.65,-25.0829 1060.86,-32.8463 1064.13,-26.6558"/>
</g>
<!-- Node29&#45;&gt;Node25 -->
<g id="edge45" class="edge"><title>Node29&#45;&gt;Node25</title>
<path fill="none" stroke="midnightblue" d="M993.587,-123.445C1038.01,-115.16 1098.4,-101.719 1117.84,-87 1135.25,-73.8224 1146.57,-50.9368 1152.81,-34.8219"/>
<polygon fill="midnightblue" stroke="midnightblue" points="1156.12,-35.9744 1156.19,-25.3799 1149.53,-33.6128 1156.12,-35.9744"/>
</g>
<!-- Node29&#45;&gt;Node26 -->
<g id="edge46" class="edge"><title>Node29&#45;&gt;Node26</title>
<path fill="none" stroke="midnightblue" d="M868.329,-124.032C771.442,-113.672 603.42,-95.7052 508.478,-85.553"/>
<polygon fill="midnightblue" stroke="midnightblue" points="508.713,-82.0583 498.398,-84.4751 507.969,-89.0186 508.713,-82.0583"/>
</g>
<!-- Node30 -->
<g id="node30" class="node"><title>Node30</title>
<polygon fill="none" stroke="#bfbfbf" points="868.844,-67.5 868.844,-86.5 922.844,-86.5 922.844,-67.5 868.844,-67.5"/>
<text text-anchor="middle" x="895.844" y="-74.5" font-family="Helvetica,sans-Serif" font-size="10.00">iostream</text>
</g>
<!-- Node29&#45;&gt;Node30 -->
<g id="edge42" class="edge"><title>Node29&#45;&gt;Node30</title>
<path fill="none" stroke="midnightblue" d="M935.083,-123.083C928.307,-115.298 918.301,-103.801 910.089,-94.3665"/>
<polygon fill="midnightblue" stroke="midnightblue" points="912.666,-91.9963 903.46,-86.7511 907.386,-96.592 912.666,-91.9963"/>
</g>
<!-- Node32 -->
<g id="node32" class="node"><title>Node32</title>
<polygon fill="none" stroke="#bfbfbf" points="23.8437,-67.5 23.8437,-86.5 153.844,-86.5 153.844,-67.5 23.8437,-67.5"/>
<text text-anchor="middle" x="88.8437" y="-74.5" font-family="Helvetica,sans-Serif" font-size="10.00">InfoLogger/InfoLogger.hxx</text>
</g>
<!-- Node31&#45;&gt;Node32 -->
<g id="edge50" class="edge"><title>Node31&#45;&gt;Node32</title>
<path fill="none" stroke="midnightblue" d="M88.8437,-123.083C88.8437,-116.006 88.8437,-105.861 88.8437,-96.9865"/>
<polygon fill="midnightblue" stroke="midnightblue" points="92.3438,-96.751 88.8437,-86.7511 85.3438,-96.7511 92.3438,-96.751"/>
</g>
<!-- Node33&#45;&gt;Node4 -->
<g id="edge54" class="edge"><title>Node33&#45;&gt;Node4</title>
<path fill="none" stroke="midnightblue" d="M531.995,-184.934C541.43,-182.93 551.488,-180.843 560.844,-179 645.928,-162.237 670.626,-163.445 758.682,-143.081"/>
<polygon fill="midnightblue" stroke="midnightblue" points="759.627,-146.454 768.566,-140.767 758.031,-139.639 759.627,-146.454"/>
</g>
<!-- Node33&#45;&gt;Node9 -->
<g id="edge55" class="edge"><title>Node33&#45;&gt;Node9</title>
<path fill="none" stroke="midnightblue" d="M527.964,-184.985C538.482,-182.714 550.081,-180.482 560.844,-179 810.553,-144.624 875.43,-161.096 1126.84,-143 1152.09,-141.183 1180.52,-138.895 1202.42,-137.081"/>
<polygon fill="midnightblue" stroke="midnightblue" points="1202.93,-140.551 1212.6,-136.233 1202.35,-133.575 1202.93,-140.551"/>
</g>
<!-- Node33&#45;&gt;Node14 -->
<g id="edge53" class="edge"><title>Node33&#45;&gt;Node14</title>
<path fill="none" stroke="midnightblue" d="M433.011,-186.917C354.247,-177.641 224.042,-159.956 209.844,-143 183.475,-111.51 207.743,-60.1827 223.61,-33.6261"/>
<polygon fill="midnightblue" stroke="midnightblue" points="226.64,-35.3817 228.967,-25.0454 220.702,-31.6748 226.64,-35.3817"/>
</g>
<!-- Node33&#45;&gt;Node20 -->
<g id="edge56" class="edge"><title>Node33&#45;&gt;Node20</title>
<path fill="none" stroke="midnightblue" d="M518.06,-184.975C548.512,-174.68 599.892,-157.31 634.087,-145.75"/>
<polygon fill="midnightblue" stroke="midnightblue" points="635.322,-149.027 643.674,-142.509 633.08,-142.396 635.322,-149.027"/>
</g>
<!-- Node33&#45;&gt;Node21 -->
<g id="edge60" class="edge"><title>Node33&#45;&gt;Node21</title>
<path fill="none" stroke="midnightblue" d="M464.905,-184.975C430.876,-174.592 373.26,-157.012 335.381,-145.454"/>
<polygon fill="midnightblue" stroke="midnightblue" points="336.317,-142.08 325.731,-142.509 334.274,-148.775 336.317,-142.08"/>
</g>
<!-- Node33&#45;&gt;Node23 -->
<g id="edge59" class="edge"><title>Node33&#45;&gt;Node23</title>
<path fill="none" stroke="midnightblue" d="M500.181,-184.666C513.699,-169.095 544.248,-137.081 577.844,-123 720.705,-63.1235 772.418,-101.669 931.187,-87.0072"/>
<polygon fill="midnightblue" stroke="midnightblue" points="931.691,-90.4746 941.302,-86.015 931.008,-83.5081 931.691,-90.4746"/>
</g>
<!-- Node33&#45;&gt;Node26 -->
<g id="edge57" class="edge"><title>Node33&#45;&gt;Node26</title>
<path fill="none" stroke="midnightblue" d="M486.81,-184.86C480.124,-175.035 469.304,-158.361 461.844,-143 454.453,-127.783 447.94,-109.671 443.571,-96.4351"/>
<polygon fill="midnightblue" stroke="midnightblue" points="446.816,-95.091 440.432,-86.635 440.149,-97.226 446.816,-95.091"/>
</g>
<!-- Node33&#45;&gt;Node29 -->
<g id="edge58" class="edge"><title>Node33&#45;&gt;Node29</title>
<path fill="none" stroke="midnightblue" d="M529.782,-184.972C539.823,-182.832 550.721,-180.672 560.844,-179 662.519,-162.208 780.426,-149.309 858.047,-141.711"/>
<polygon fill="midnightblue" stroke="midnightblue" points="858.638,-145.17 868.253,-140.719 857.962,-138.203 858.638,-145.17"/>
</g>
<!-- Node33&#45;&gt;Node31 -->
<g id="edge61" class="edge"><title>Node33&#45;&gt;Node31</title>
<path fill="none" stroke="midnightblue" d="M434.96,-184.975C361.46,-174.15 234.843,-155.502 156.825,-144.012"/>
<polygon fill="midnightblue" stroke="midnightblue" points="157.023,-140.504 146.62,-142.509 156.003,-147.429 157.023,-140.504"/>
</g>
<!-- Node34 -->
<g id="node34" class="node"><title>Node34</title>
<polygon fill="none" stroke="#bfbfbf" points="471.344,-123.5 471.344,-142.5 530.344,-142.5 530.344,-123.5 471.344,-123.5"/>
<text text-anchor="middle" x="500.844" y="-130.5" font-family="Helvetica,sans-Serif" font-size="10.00">functional</text>
</g>
<!-- Node33&#45;&gt;Node34 -->
<g id="edge52" class="edge"><title>Node33&#45;&gt;Node34</title>
<path fill="none" stroke="midnightblue" d="M493.99,-184.975C495.119,-176.58 496.88,-163.481 498.334,-152.663"/>
<polygon fill="midnightblue" stroke="midnightblue" points="501.836,-152.886 499.7,-142.509 494.898,-151.953 501.836,-152.886"/>
</g>
<!-- Node35&#45;&gt;Node5 -->
<g id="edge63" class="edge"><title>Node35&#45;&gt;Node5</title>
<path fill="none" stroke="midnightblue" d="M1671.03,-68.2509C1666.23,-67.7991 1661.47,-67.3763 1656.84,-67 1363.6,-43.1331 1288.43,-61.9427 995.844,-31 975.278,-28.825 952.298,-25.204 934.45,-22.1248"/>
<polygon fill="midnightblue" stroke="midnightblue" points="935.046,-18.6761 924.591,-20.3894 933.833,-25.5701 935.046,-18.6761"/>
</g>
<!-- Node35&#45;&gt;Node25 -->
<g id="edge65" class="edge"><title>Node35&#45;&gt;Node25</title>
<path fill="none" stroke="midnightblue" d="M1671.01,-68.4983C1666.21,-67.9876 1661.46,-67.484 1656.84,-67 1503.41,-50.9018 1323.29,-32.8449 1227.28,-23.2879"/>
<polygon fill="midnightblue" stroke="midnightblue" points="1227.42,-19.7849 1217.13,-22.2775 1226.73,-26.7505 1227.42,-19.7849"/>
</g>
<!-- Node36 -->
<g id="node36" class="node"><title>Node36</title>
<polygon fill="none" stroke="#bfbfbf" points="1672.34,-0.5 1672.34,-30.5 1807.34,-30.5 1807.34,-0.5 1672.34,-0.5"/>
<text text-anchor="start" x="1680.34" y="-18.5" font-family="Helvetica,sans-Serif" font-size="10.00">Configuration/Configuration</text>
<text text-anchor="middle" x="1739.84" y="-7.5" font-family="Helvetica,sans-Serif" font-size="10.00">Factory.h</text>
</g>
<!-- Node35&#45;&gt;Node36 -->
<g id="edge64" class="edge"><title>Node35&#45;&gt;Node36</title>
<path fill="none" stroke="midnightblue" d="M1739.84,-67.4751C1739.84,-60.471 1739.84,-50.1919 1739.84,-40.6956"/>
<polygon fill="midnightblue" stroke="midnightblue" points="1743.34,-40.5229 1739.84,-30.523 1736.34,-40.523 1743.34,-40.5229"/>
</g>
<!-- Node37&#45;&gt;Node5 -->
<g id="edge67" class="edge"><title>Node37&#45;&gt;Node5</title>
<path fill="none" stroke="midnightblue" d="M1614.7,-179.372C1618.09,-163.567 1620.56,-138.196 1606.84,-123 1514.83,-21.086 1131.68,-51.0702 995.844,-31 975.385,-27.9772 952.406,-24.3555 934.53,-21.4879"/>
<polygon fill="midnightblue" stroke="midnightblue" points="935.083,-18.0318 924.653,-19.8969 933.969,-24.9427 935.083,-18.0318"/>
</g>
<!-- Node37&#45;&gt;Node8 -->
<g id="edge69" class="edge"><title>Node37&#45;&gt;Node8</title>
<path fill="none" stroke="midnightblue" d="M1685.35,-182.4C1741.92,-173.549 1821.83,-160.148 1900.56,-143.132"/>
<polygon fill="midnightblue" stroke="midnightblue" points="1901.63,-146.481 1910.65,-140.929 1900.14,-139.642 1901.63,-146.481"/>
</g>
<!-- Node37&#45;&gt;Node9 -->
<g id="edge68" class="edge"><title>Node37&#45;&gt;Node9</title>
<path fill="none" stroke="midnightblue" d="M1536.17,-184.552C1469.9,-176.099 1370.3,-162.143 1274.96,-143.058"/>
<polygon fill="midnightblue" stroke="midnightblue" points="1275.65,-139.627 1265.15,-141.074 1274.26,-146.488 1275.65,-139.627"/>
</g>
<!-- Node37&#45;&gt;Node17 -->
<g id="edge71" class="edge"><title>Node37&#45;&gt;Node17</title>
<path fill="none" stroke="midnightblue" d="M1591.17,-179.399C1578.24,-170.129 1561.36,-158.025 1548.28,-148.647"/>
<polygon fill="midnightblue" stroke="midnightblue" points="1550.09,-145.639 1539.92,-142.658 1546.01,-151.329 1550.09,-145.639"/>
</g>
<!-- Node37&#45;&gt;Node23 -->
<g id="edge73" class="edge"><title>Node37&#45;&gt;Node23</title>
<path fill="none" stroke="midnightblue" d="M1610.18,-179.236C1608.57,-162.805 1603.26,-136.36 1585.84,-123 1548.43,-94.2904 1251.99,-83.3949 1102.47,-79.6954"/>
<polygon fill="midnightblue" stroke="midnightblue" points="1102.48,-76.1948 1092.4,-79.4517 1102.31,-83.1927 1102.48,-76.1948"/>
</g>
<!-- Node37&#45;&gt;Node29 -->
<g id="edge74" class="edge"><title>Node37&#45;&gt;Node29</title>
<path fill="none" stroke="midnightblue" d="M1535.98,-185.754C1513.45,-183.492 1488.65,-181.073 1465.84,-179 1273.68,-161.532 1222.85,-161.571 1027.51,-143.138"/>
<polygon fill="midnightblue" stroke="midnightblue" points="1027.78,-139.648 1017.49,-142.188 1027.12,-146.616 1027.78,-139.648"/>
</g>
<!-- Node38 -->
<g id="node38" class="node"><title>Node38</title>
<polygon fill="none" stroke="#bfbfbf" points="1671.34,-123.5 1671.34,-142.5 1740.34,-142.5 1740.34,-123.5 1671.34,-123.5"/>
<text text-anchor="middle" x="1705.84" y="-130.5" font-family="Helvetica,sans-Serif" font-size="10.00">TObjArray.h</text>
</g>
<!-- Node37&#45;&gt;Node38 -->
<g id="edge70" class="edge"><title>Node37&#45;&gt;Node38</title>
<path fill="none" stroke="midnightblue" d="M1633.36,-179.399C1648.44,-169.951 1668.23,-157.559 1683.32,-148.109"/>
<polygon fill="midnightblue" stroke="midnightblue" points="1685.4,-150.932 1692.02,-142.658 1681.69,-145 1685.4,-150.932"/>
</g>
<!-- Node39 -->
<g id="node39" class="node"><title>Node39</title>
<polygon fill="none" stroke="#bfbfbf" points="1758.84,-123.5 1758.84,-142.5 1892.84,-142.5 1892.84,-123.5 1758.84,-123.5"/>
<text text-anchor="middle" x="1825.84" y="-130.5" font-family="Helvetica,sans-Serif" font-size="10.00">Framework/DataRefUtils.h</text>
</g>
<!-- Node37&#45;&gt;Node39 -->
<g id="edge72" class="edge"><title>Node37&#45;&gt;Node39</title>
<path fill="none" stroke="midnightblue" d="M1661.52,-179.475C1699.26,-169.03 1750.11,-154.958 1785.2,-145.247"/>
<polygon fill="midnightblue" stroke="midnightblue" points="1786.4,-148.547 1795.11,-142.506 1784.54,-141.8 1786.4,-148.547"/>
</g>
</g>
</svg>
