<?xml version="1.0" encoding="UTF-8" standalone="no"?>
<!DOCTYPE svg PUBLIC "-//W3C//DTD SVG 1.1//EN"
 "http://www.w3.org/Graphics/SVG/1.1/DTD/svg11.dtd">
<!-- Generated by graphviz version 2.38.0 (20140413.2041)
 -->
<!-- Title: Framework/src/TaskRunner.cxx Pages: 1 -->
<svg width="3013pt" height="319pt"
 viewBox="0.00 0.00 3012.50 319.00" xmlns="http://www.w3.org/2000/svg" xmlns:xlink="http://www.w3.org/1999/xlink">
<g id="graph0" class="graph" transform="scale(1 1) rotate(0) translate(4 315)">
<title>Framework/src/TaskRunner.cxx</title>
<!-- Node1 -->
<g id="node1" class="node"><title>Node1</title>
<polygon fill="#bfbfbf" stroke="black" points="1888.5,-291.5 1888.5,-310.5 2045.5,-310.5 2045.5,-291.5 1888.5,-291.5"/>
<text text-anchor="middle" x="1967" y="-298.5" font-family="Helvetica,sans-Serif" font-size="10.00">Framework/src/TaskRunner.cxx</text>
</g>
<!-- Node2 -->
<g id="node2" class="node"><title>Node2</title>
<g id="a_node2"><a xlink:href="TaskRunner_8h.html" target="_top" xlink:title="QualityControl/TaskRunner.h">
<polygon fill="none" stroke="black" points="520.5,-230 520.5,-249 663.5,-249 663.5,-230 520.5,-230"/>
<text text-anchor="middle" x="592" y="-237" font-family="Helvetica,sans-Serif" font-size="10.00">QualityControl/TaskRunner.h</text>
</a>
</g>
</g>
<!-- Node1&#45;&gt;Node2 -->
<g id="edge1" class="edge"><title>Node1&#45;&gt;Node2</title>
<path fill="none" stroke="midnightblue" d="M1888.39,-296.598C1647.31,-286.166 919.957,-254.692 674.171,-244.056"/>
<polygon fill="midnightblue" stroke="midnightblue" points="674.023,-240.546 663.881,-243.61 673.72,-247.54 674.023,-240.546"/>
</g>
<!-- Node9 -->
<g id="node9" class="node"><title>Node9</title>
<polygon fill="none" stroke="#bfbfbf" points="1408.5,-0.5 1408.5,-19.5 1449.5,-19.5 1449.5,-0.5 1408.5,-0.5"/>
<text text-anchor="middle" x="1429" y="-7.5" font-family="Helvetica,sans-Serif" font-size="10.00">string</text>
</g>
<!-- Node1&#45;&gt;Node9 -->
<g id="edge46" class="edge"><title>Node1&#45;&gt;Node9</title>
<path fill="none" stroke="midnightblue" d="M1888.42,-294.409C1822.51,-288.298 1734.83,-276.391 1707,-255 1677.52,-232.338 1672,-216.188 1672,-179 1672,-179 1672,-179 1672,-121 1672,-28.8802 1525.27,-13.5051 1459.85,-11.2283"/>
<polygon fill="midnightblue" stroke="midnightblue" points="1459.81,-7.72602 1449.72,-10.9588 1459.62,-14.7235 1459.81,-7.72602"/>
</g>
<!-- Node13 -->
<g id="node13" class="node"><title>Node13</title>
<polygon fill="none" stroke="#bfbfbf" points="1559,-56.5 1559,-75.5 1611,-75.5 1611,-56.5 1559,-56.5"/>
<text text-anchor="middle" x="1585" y="-63.5" font-family="Helvetica,sans-Serif" font-size="10.00">memory</text>
</g>
<!-- Node1&#45;&gt;Node13 -->
<g id="edge31" class="edge"><title>Node1&#45;&gt;Node13</title>
<path fill="none" stroke="midnightblue" d="M1888.34,-297.415C1808.74,-293.274 1692.62,-282.566 1658,-255 1604.39,-212.304 1590.08,-124.982 1586.32,-86.2437"/>
<polygon fill="midnightblue" stroke="midnightblue" points="1589.77,-85.5601 1585.46,-75.8845 1582.8,-86.1402 1589.77,-85.5601"/>
</g>
<!-- Node21 -->
<g id="node21" class="node"><title>Node21</title>
<polygon fill="none" stroke="#bfbfbf" points="1578,-0.5 1578,-19.5 1694,-19.5 1694,-0.5 1578,-0.5"/>
<text text-anchor="middle" x="1636" y="-7.5" font-family="Helvetica,sans-Serif" font-size="10.00">Common/Exceptions.h</text>
</g>
<!-- Node1&#45;&gt;Node21 -->
<g id="edge32" class="edge"><title>Node1&#45;&gt;Node21</title>
<path fill="none" stroke="midnightblue" d="M1888.36,-294.194C1828.16,-288.138 1751.71,-276.427 1729,-255 1703.68,-231.106 1710,-213.817 1710,-179 1710,-179 1710,-179 1710,-121 1710,-90.2048 1703.28,-81.4885 1686,-56 1678.19,-44.4869 1666.83,-33.9457 1656.9,-25.9644"/>
<polygon fill="midnightblue" stroke="midnightblue" points="1658.74,-22.9641 1648.68,-19.6494 1654.48,-28.516 1658.74,-22.9641"/>
</g>
<!-- Node23 -->
<g id="node23" class="node"><title>Node23</title>
<polygon fill="none" stroke="#bfbfbf" points="1738.5,-224.5 1738.5,-254.5 1873.5,-254.5 1873.5,-224.5 1738.5,-224.5"/>
<text text-anchor="start" x="1746.5" y="-242.5" font-family="Helvetica,sans-Serif" font-size="10.00">Configuration/Configuration</text>
<text text-anchor="middle" x="1806" y="-231.5" font-family="Helvetica,sans-Serif" font-size="10.00">Factory.h</text>
</g>
<!-- Node1&#45;&gt;Node23 -->
<g id="edge33" class="edge"><title>Node1&#45;&gt;Node23</title>
<path fill="none" stroke="midnightblue" d="M1943.93,-291.475C1920.4,-282.776 1883.19,-269.026 1853.35,-257.998"/>
<polygon fill="midnightblue" stroke="midnightblue" points="1854.54,-254.707 1843.94,-254.523 1852.11,-261.273 1854.54,-254.707"/>
</g>
<!-- Node24 -->
<g id="node24" class="node"><title>Node24</title>
<polygon fill="none" stroke="#bfbfbf" points="1891.5,-230 1891.5,-249 2042.5,-249 2042.5,-230 1891.5,-230"/>
<text text-anchor="middle" x="1967" y="-237" font-family="Helvetica,sans-Serif" font-size="10.00">Monitoring/MonitoringFactory.h</text>
</g>
<!-- Node1&#45;&gt;Node24 -->
<g id="edge34" class="edge"><title>Node1&#45;&gt;Node24</title>
<path fill="none" stroke="midnightblue" d="M1967,-291.475C1967,-283.08 1967,-269.981 1967,-259.163"/>
<polygon fill="midnightblue" stroke="midnightblue" points="1970.5,-259.009 1967,-249.009 1963.5,-259.009 1970.5,-259.009"/>
</g>
<!-- Node25 -->
<g id="node25" class="node"><title>Node25</title>
<polygon fill="none" stroke="#bfbfbf" points="2061,-230 2061,-249 2199,-249 2199,-230 2061,-230"/>
<text text-anchor="middle" x="2130" y="-237" font-family="Helvetica,sans-Serif" font-size="10.00">Framework/DataSampling.h</text>
</g>
<!-- Node1&#45;&gt;Node25 -->
<g id="edge35" class="edge"><title>Node1&#45;&gt;Node25</title>
<path fill="none" stroke="midnightblue" d="M1990.35,-291.475C2018.31,-281.269 2065.33,-264.108 2096.99,-252.549"/>
<polygon fill="midnightblue" stroke="midnightblue" points="2098.5,-255.726 2106.69,-249.009 2096.1,-249.15 2098.5,-255.726"/>
</g>
<!-- Node26 -->
<g id="node26" class="node"><title>Node26</title>
<polygon fill="none" stroke="#bfbfbf" points="2217,-230 2217,-249 2365,-249 2365,-230 2217,-230"/>
<text text-anchor="middle" x="2291" y="-237" font-family="Helvetica,sans-Serif" font-size="10.00">Framework/CallbackService.h</text>
</g>
<!-- Node1&#45;&gt;Node26 -->
<g id="edge36" class="edge"><title>Node1&#45;&gt;Node26</title>
<path fill="none" stroke="midnightblue" d="M2013.42,-291.475C2071.77,-280.761 2171.84,-262.382 2234.55,-250.866"/>
<polygon fill="midnightblue" stroke="midnightblue" points="2235.46,-254.258 2244.66,-249.009 2234.2,-247.373 2235.46,-254.258"/>
</g>
<!-- Node27 -->
<g id="node27" class="node"><title>Node27</title>
<polygon fill="none" stroke="#bfbfbf" points="2383.5,-230 2383.5,-249 2526.5,-249 2526.5,-230 2383.5,-230"/>
<text text-anchor="middle" x="2455" y="-237" font-family="Helvetica,sans-Serif" font-size="10.00">Framework/TimesliceIndex.h</text>
</g>
<!-- Node1&#45;&gt;Node27 -->
<g id="edge37" class="edge"><title>Node1&#45;&gt;Node27</title>
<path fill="none" stroke="midnightblue" d="M2045.6,-292.885C2127.72,-285.084 2260.2,-271.459 2374,-255 2382.63,-253.752 2391.75,-252.275 2400.63,-250.749"/>
<polygon fill="midnightblue" stroke="midnightblue" points="2401.28,-254.189 2410.52,-249.015 2400.07,-247.294 2401.28,-254.189"/>
</g>
<!-- Node28 -->
<g id="node28" class="node"><title>Node28</title>
<polygon fill="none" stroke="#bfbfbf" points="2545,-230 2545,-249 2685,-249 2685,-230 2545,-230"/>
<text text-anchor="middle" x="2615" y="-237" font-family="Helvetica,sans-Serif" font-size="10.00">Framework/DataSpecUtils.h</text>
</g>
<!-- Node1&#45;&gt;Node28 -->
<g id="edge38" class="edge"><title>Node1&#45;&gt;Node28</title>
<path fill="none" stroke="midnightblue" d="M2045.82,-296.257C2155.73,-290.469 2361.13,-277.587 2535,-255 2543.85,-253.851 2553.2,-252.385 2562.28,-250.829"/>
<polygon fill="midnightblue" stroke="midnightblue" points="2563.12,-254.234 2572.36,-249.046 2561.9,-247.341 2563.12,-254.234"/>
</g>
<!-- Node29 -->
<g id="node29" class="node"><title>Node29</title>
<polygon fill="none" stroke="#bfbfbf" points="2703,-224.5 2703,-254.5 2837,-254.5 2837,-224.5 2703,-224.5"/>
<text text-anchor="start" x="2711" y="-242.5" font-family="Helvetica,sans-Serif" font-size="10.00">Framework/DataDescriptor</text>
<text text-anchor="middle" x="2770" y="-231.5" font-family="Helvetica,sans-Serif" font-size="10.00">QueryBuilder.h</text>
</g>
<!-- Node1&#45;&gt;Node29 -->
<g id="edge39" class="edge"><title>Node1&#45;&gt;Node29</title>
<path fill="none" stroke="midnightblue" d="M2045.57,-298.396C2177.41,-294.987 2451.59,-284.825 2692.92,-255.023"/>
<polygon fill="midnightblue" stroke="midnightblue" points="2693.45,-258.485 2702.94,-253.772 2692.58,-251.538 2693.45,-258.485"/>
</g>
<!-- Node30 -->
<g id="node30" class="node"><title>Node30</title>
<g id="a_node30"><a xlink:href="QcInfoLogger_8h.html" target="_top" xlink:title="QualityControl/QcInfoLogger.h">
<polygon fill="none" stroke="black" points="2855.5,-230 2855.5,-249 3004.5,-249 3004.5,-230 2855.5,-230"/>
<text text-anchor="middle" x="2930" y="-237" font-family="Helvetica,sans-Serif" font-size="10.00">QualityControl/QcInfoLogger.h</text>
</a>
</g>
</g>
<!-- Node1&#45;&gt;Node30 -->
<g id="edge40" class="edge"><title>Node1&#45;&gt;Node30</title>
<path fill="none" stroke="midnightblue" d="M2045.75,-299.127C2199.87,-296.72 2551.96,-287.786 2846,-255 2855.93,-253.893 2866.46,-252.362 2876.59,-250.707"/>
<polygon fill="midnightblue" stroke="midnightblue" points="2877.27,-254.142 2886.54,-249.022 2876.1,-247.24 2877.27,-254.142"/>
</g>
<!-- Node32 -->
<g id="node32" class="node"><title>Node32</title>
<g id="a_node32"><a xlink:href="TaskFactory_8h.html" target="_top" xlink:title="QualityControl/TaskFactory.h">
<polygon fill="none" stroke="black" points="1319.5,-230 1319.5,-249 1464.5,-249 1464.5,-230 1319.5,-230"/>
<text text-anchor="middle" x="1392" y="-237" font-family="Helvetica,sans-Serif" font-size="10.00">QualityControl/TaskFactory.h</text>
</a>
</g>
</g>
<!-- Node1&#45;&gt;Node32 -->
<g id="edge42" class="edge"><title>Node1&#45;&gt;Node32</title>
<path fill="none" stroke="midnightblue" d="M1888.25,-291.852C1779.84,-280.633 1585.48,-260.521 1474.91,-249.08"/>
<polygon fill="midnightblue" stroke="midnightblue" points="1475.11,-245.582 1464.81,-248.034 1474.39,-252.545 1475.11,-245.582"/>
</g>
<!-- Node3 -->
<g id="node3" class="node"><title>Node3</title>
<polygon fill="none" stroke="#bfbfbf" points="489,-168.5 489,-187.5 581,-187.5 581,-168.5 489,-168.5"/>
<text text-anchor="middle" x="535" y="-175.5" font-family="Helvetica,sans-Serif" font-size="10.00">Common/Timer.h</text>
</g>
<!-- Node2&#45;&gt;Node3 -->
<g id="edge2" class="edge"><title>Node2&#45;&gt;Node3</title>
<path fill="none" stroke="midnightblue" d="M583.833,-229.975C575.114,-220.873 561.096,-206.241 550.311,-194.983"/>
<polygon fill="midnightblue" stroke="midnightblue" points="552.597,-192.309 543.152,-187.509 547.542,-197.151 552.597,-192.309"/>
</g>
<!-- Node4 -->
<g id="node4" class="node"><title>Node4</title>
<polygon fill="none" stroke="#bfbfbf" points="599,-168.5 599,-187.5 697,-187.5 697,-168.5 599,-168.5"/>
<text text-anchor="middle" x="648" y="-175.5" font-family="Helvetica,sans-Serif" font-size="10.00">Framework/Task.h</text>
</g>
<!-- Node2&#45;&gt;Node4 -->
<g id="edge3" class="edge"><title>Node2&#45;&gt;Node4</title>
<path fill="none" stroke="midnightblue" d="M600.023,-229.975C608.59,-220.873 622.361,-206.241 632.957,-194.983"/>
<polygon fill="midnightblue" stroke="midnightblue" points="635.686,-197.19 639.991,-187.509 630.589,-192.392 635.686,-197.19"/>
</g>
<!-- Node5 -->
<g id="node5" class="node"><title>Node5</title>
<polygon fill="none" stroke="#bfbfbf" points="0,-168.5 0,-187.5 164,-187.5 164,-168.5 0,-168.5"/>
<text text-anchor="middle" x="82" y="-175.5" font-family="Helvetica,sans-Serif" font-size="10.00">Framework/DataProcessorSpec.h</text>
</g>
<!-- Node2&#45;&gt;Node5 -->
<g id="edge4" class="edge"><title>Node2&#45;&gt;Node5</title>
<path fill="none" stroke="midnightblue" d="M520.281,-230.133C426.781,-219.224 263.573,-200.183 164.879,-188.669"/>
<polygon fill="midnightblue" stroke="midnightblue" points="165.283,-185.193 154.944,-187.51 164.471,-192.145 165.283,-185.193"/>
</g>
<!-- Node6 -->
<g id="node6" class="node"><title>Node6</title>
<polygon fill="none" stroke="#bfbfbf" points="182.5,-168.5 182.5,-187.5 335.5,-187.5 335.5,-168.5 182.5,-168.5"/>
<text text-anchor="middle" x="259" y="-175.5" font-family="Helvetica,sans-Serif" font-size="10.00">Framework/CompletionPolicy.h</text>
</g>
<!-- Node2&#45;&gt;Node6 -->
<g id="edge5" class="edge"><title>Node2&#45;&gt;Node6</title>
<path fill="none" stroke="midnightblue" d="M544.289,-229.975C484.201,-219.239 381.042,-200.806 316.617,-189.295"/>
<polygon fill="midnightblue" stroke="midnightblue" points="317.082,-185.823 306.622,-187.509 315.851,-192.714 317.082,-185.823"/>
</g>
<!-- Node7 -->
<g id="node7" class="node"><title>Node7</title>
<polygon fill="none" stroke="#bfbfbf" points="353.5,-168.5 353.5,-187.5 470.5,-187.5 470.5,-168.5 353.5,-168.5"/>
<text text-anchor="middle" x="412" y="-175.5" font-family="Helvetica,sans-Serif" font-size="10.00">Headers/DataHeader.h</text>
</g>
<!-- Node2&#45;&gt;Node7 -->
<g id="edge6" class="edge"><title>Node2&#45;&gt;Node7</title>
<path fill="none" stroke="midnightblue" d="M566.21,-229.975C535.067,-219.68 482.519,-202.31 447.547,-190.75"/>
<polygon fill="midnightblue" stroke="midnightblue" points="448.335,-187.325 437.742,-187.509 446.138,-193.971 448.335,-187.325"/>
</g>
<!-- Node8 -->
<g id="node8" class="node"><title>Node8</title>
<g id="a_node8"><a xlink:href="TaskConfig_8h.html" target="_top" xlink:title="QualityControl/TaskConfig.h">
<polygon fill="none" stroke="black" points="633,-56.5 633,-75.5 773,-75.5 773,-56.5 633,-56.5"/>
<text text-anchor="middle" x="703" y="-63.5" font-family="Helvetica,sans-Serif" font-size="10.00">QualityControl/TaskConfig.h</text>
</a>
</g>
</g>
<!-- Node2&#45;&gt;Node8 -->
<g id="edge7" class="edge"><title>Node2&#45;&gt;Node8</title>
<path fill="none" stroke="midnightblue" d="M640.286,-229.927C664.375,-222.948 691.419,-210.407 706,-188 726.367,-156.702 717.013,-110.552 709.386,-85.2493"/>
<polygon fill="midnightblue" stroke="midnightblue" points="712.637,-83.9287 706.215,-75.5018 705.98,-86.094 712.637,-83.9287"/>
</g>
<!-- Node11 -->
<g id="node11" class="node"><title>Node11</title>
<g id="a_node11"><a xlink:href="TaskInterface_8h.html" target="_top" xlink:title="QualityControl/TaskInterface.h">
<polygon fill="none" stroke="black" points="1096,-168.5 1096,-187.5 1246,-187.5 1246,-168.5 1096,-168.5"/>
<text text-anchor="middle" x="1171" y="-175.5" font-family="Helvetica,sans-Serif" font-size="10.00">QualityControl/TaskInterface.h</text>
</a>
</g>
</g>
<!-- Node2&#45;&gt;Node11 -->
<g id="edge10" class="edge"><title>Node2&#45;&gt;Node11</title>
<path fill="none" stroke="midnightblue" d="M663.577,-231.144C770.484,-220.158 971.496,-199.502 1085.81,-187.754"/>
<polygon fill="midnightblue" stroke="midnightblue" points="1086.33,-191.219 1095.92,-186.715 1085.62,-184.256 1086.33,-191.219"/>
</g>
<!-- Node8&#45;&gt;Node9 -->
<g id="edge8" class="edge"><title>Node8&#45;&gt;Node9</title>
<path fill="none" stroke="midnightblue" d="M773.117,-64.7408C898.492,-63.3225 1169.03,-55.9264 1394,-20 1395.47,-19.765 1396.97,-19.4962 1398.48,-19.2018"/>
<polygon fill="midnightblue" stroke="midnightblue" points="1399.41,-22.5795 1408.41,-16.9761 1397.88,-15.7491 1399.41,-22.5795"/>
</g>
<!-- Node10 -->
<g id="node10" class="node"><title>Node10</title>
<polygon fill="none" stroke="#bfbfbf" points="725.5,-0.5 725.5,-19.5 808.5,-19.5 808.5,-0.5 725.5,-0.5"/>
<text text-anchor="middle" x="767" y="-7.5" font-family="Helvetica,sans-Serif" font-size="10.00">unordered_map</text>
</g>
<!-- Node8&#45;&gt;Node10 -->
<g id="edge9" class="edge"><title>Node8&#45;&gt;Node10</title>
<path fill="none" stroke="midnightblue" d="M713.283,-56.324C722.836,-48.2631 737.28,-36.0765 748.784,-26.3695"/>
<polygon fill="midnightblue" stroke="midnightblue" points="751.144,-28.9577 756.53,-19.8339 746.63,-23.6076 751.144,-28.9577"/>
</g>
<!-- Node11&#45;&gt;Node9 -->
<g id="edge13" class="edge"><title>Node11&#45;&gt;Node9</title>
<path fill="none" stroke="midnightblue" d="M1246.15,-177.682C1332.88,-176.674 1467.74,-168.977 1500,-132 1529.59,-98.0917 1479.48,-50.101 1449.31,-26.0175"/>
<polygon fill="midnightblue" stroke="midnightblue" points="1451.1,-22.9777 1441.05,-19.6209 1446.81,-28.5117 1451.1,-22.9777"/>
</g>
<!-- Node11&#45;&gt;Node10 -->
<g id="edge14" class="edge"><title>Node11&#45;&gt;Node10</title>
<path fill="none" stroke="midnightblue" d="M1095.64,-173.897C1012.3,-169.216 884.456,-157.954 844,-132 805.702,-107.43 782.845,-56.2807 772.899,-29.0188"/>
<polygon fill="midnightblue" stroke="midnightblue" points="776.197,-27.8455 769.615,-19.543 769.583,-30.1378 776.197,-27.8455"/>
</g>
<!-- Node12 -->
<g id="node12" class="node"><title>Node12</title>
<polygon fill="none" stroke="#bfbfbf" points="855.5,-0.5 855.5,-19.5 890.5,-19.5 890.5,-0.5 855.5,-0.5"/>
<text text-anchor="middle" x="873" y="-7.5" font-family="Helvetica,sans-Serif" font-size="10.00">map</text>
</g>
<!-- Node11&#45;&gt;Node12 -->
<g id="edge11" class="edge"><title>Node11&#45;&gt;Node12</title>
<path fill="none" stroke="midnightblue" d="M1095.81,-177.05C1013.19,-175.315 888.154,-166.8 858,-132 832.913,-103.048 850.792,-54.5594 863.427,-28.6256"/>
<polygon fill="midnightblue" stroke="midnightblue" points="866.613,-30.0831 868.068,-19.5887 860.386,-26.8851 866.613,-30.0831"/>
</g>
<!-- Node11&#45;&gt;Node13 -->
<g id="edge12" class="edge"><title>Node11&#45;&gt;Node13</title>
<path fill="none" stroke="midnightblue" d="M1246.05,-174.381C1337.65,-170.044 1486.25,-158.988 1534,-132 1553.26,-121.116 1567.82,-99.7565 1576.36,-84.4926"/>
<polygon fill="midnightblue" stroke="midnightblue" points="1579.52,-85.9927 1581.09,-75.5137 1573.33,-82.7312 1579.52,-85.9927"/>
</g>
<!-- Node14 -->
<g id="node14" class="node"><title>Node14</title>
<polygon fill="none" stroke="#bfbfbf" points="867.5,-112.5 867.5,-131.5 992.5,-131.5 992.5,-112.5 867.5,-112.5"/>
<text text-anchor="middle" x="930" y="-119.5" font-family="Helvetica,sans-Serif" font-size="10.00">Framework/InitContext.h</text>
</g>
<!-- Node11&#45;&gt;Node14 -->
<g id="edge15" class="edge"><title>Node11&#45;&gt;Node14</title>
<path fill="none" stroke="midnightblue" d="M1132.81,-168.444C1090.86,-159.043 1023.41,-143.929 977.929,-133.739"/>
<polygon fill="midnightblue" stroke="midnightblue" points="978.532,-130.288 968.009,-131.516 977.001,-137.118 978.532,-130.288"/>
</g>
<!-- Node15 -->
<g id="node15" class="node"><title>Node15</title>
<polygon fill="none" stroke="#bfbfbf" points="1011,-112.5 1011,-131.5 1171,-131.5 1171,-112.5 1011,-112.5"/>
<text text-anchor="middle" x="1091" y="-119.5" font-family="Helvetica,sans-Serif" font-size="10.00">Framework/ProcessingContext.h</text>
</g>
<!-- Node11&#45;&gt;Node15 -->
<g id="edge16" class="edge"><title>Node11&#45;&gt;Node15</title>
<path fill="none" stroke="midnightblue" d="M1158.15,-168.324C1145.78,-159.979 1126.87,-147.212 1112.26,-137.352"/>
<polygon fill="midnightblue" stroke="midnightblue" points="1114.07,-134.348 1103.82,-131.655 1110.15,-140.15 1114.07,-134.348"/>
</g>
<!-- Node16 -->
<g id="node16" class="node"><title>Node16</title>
<g id="a_node16"><a xlink:href="Activity_8h.html" target="_top" xlink:title="QualityControl/Activity.h">
<polygon fill="none" stroke="black" points="1189.5,-112.5 1189.5,-131.5 1312.5,-131.5 1312.5,-112.5 1189.5,-112.5"/>
<text text-anchor="middle" x="1251" y="-119.5" font-family="Helvetica,sans-Serif" font-size="10.00">QualityControl/Activity.h</text>
</a>
</g>
</g>
<!-- Node11&#45;&gt;Node16 -->
<g id="edge17" class="edge"><title>Node11&#45;&gt;Node16</title>
<path fill="none" stroke="midnightblue" d="M1183.85,-168.324C1196.22,-159.979 1215.13,-147.212 1229.74,-137.352"/>
<polygon fill="midnightblue" stroke="midnightblue" points="1231.85,-140.15 1238.18,-131.655 1227.93,-134.348 1231.85,-140.15"/>
</g>
<!-- Node17 -->
<g id="node17" class="node"><title>Node17</title>
<g id="a_node17"><a xlink:href="ObjectsManager_8h.html" target="_top" xlink:title="QualityControl/ObjectsManager.h">
<polygon fill="none" stroke="black" points="1330.5,-112.5 1330.5,-131.5 1491.5,-131.5 1491.5,-112.5 1330.5,-112.5"/>
<text text-anchor="middle" x="1411" y="-119.5" font-family="Helvetica,sans-Serif" font-size="10.00">QualityControl/ObjectsManager.h</text>
</a>
</g>
</g>
<!-- Node11&#45;&gt;Node17 -->
<g id="edge18" class="edge"><title>Node11&#45;&gt;Node17</title>
<path fill="none" stroke="midnightblue" d="M1209.03,-168.444C1250.81,-159.043 1317.98,-143.929 1363.27,-133.739"/>
<polygon fill="midnightblue" stroke="midnightblue" points="1364.16,-137.126 1373.15,-131.516 1362.62,-130.297 1364.16,-137.126"/>
</g>
<!-- Node17&#45;&gt;Node8 -->
<g id="edge28" class="edge"><title>Node17&#45;&gt;Node8</title>
<path fill="none" stroke="midnightblue" d="M1330.06,-112.802C1327,-112.525 1323.97,-112.257 1321,-112 1128.08,-95.3331 900.916,-79.8563 783.046,-72.1362"/>
<polygon fill="midnightblue" stroke="midnightblue" points="783.229,-68.6407 773.022,-71.4811 782.773,-75.6258 783.229,-68.6407"/>
</g>
<!-- Node17&#45;&gt;Node9 -->
<g id="edge29" class="edge"><title>Node17&#45;&gt;Node9</title>
<path fill="none" stroke="midnightblue" d="M1426.73,-112.236C1438.89,-104.481 1454.81,-91.9292 1462,-76 1469.67,-58.9958 1457.57,-40.023 1445.92,-26.9863"/>
<polygon fill="midnightblue" stroke="midnightblue" points="1448.36,-24.4794 1438.9,-19.707 1443.32,-29.3366 1448.36,-24.4794"/>
</g>
<!-- Node17&#45;&gt;Node13 -->
<g id="edge30" class="edge"><title>Node17&#45;&gt;Node13</title>
<path fill="none" stroke="midnightblue" d="M1438.57,-112.444C1468.53,-103.145 1516.5,-88.2572 1549.32,-78.0735"/>
<polygon fill="midnightblue" stroke="midnightblue" points="1550.47,-81.3822 1558.98,-75.0755 1548.39,-74.6968 1550.47,-81.3822"/>
</g>
<!-- Node18 -->
<g id="node18" class="node"><title>Node18</title>
<g id="a_node18"><a xlink:href="MonitorObject_8h.html" target="_top" xlink:title="QualityControl/MonitorObject.h">
<polygon fill="none" stroke="black" points="1163.5,-56.5 1163.5,-75.5 1314.5,-75.5 1314.5,-56.5 1163.5,-56.5"/>
<text text-anchor="middle" x="1239" y="-63.5" font-family="Helvetica,sans-Serif" font-size="10.00">QualityControl/MonitorObject.h</text>
</a>
</g>
</g>
<!-- Node17&#45;&gt;Node18 -->
<g id="edge19" class="edge"><title>Node17&#45;&gt;Node18</title>
<path fill="none" stroke="midnightblue" d="M1383.75,-112.444C1354.56,-103.28 1308.08,-88.6876 1275.69,-78.5192"/>
<polygon fill="midnightblue" stroke="midnightblue" points="1276.72,-75.1726 1266.13,-75.5164 1274.62,-81.8512 1276.72,-75.1726"/>
</g>
<!-- Node22 -->
<g id="node22" class="node"><title>Node22</title>
<g id="a_node22"><a xlink:href="Quality_8h.html" target="_top" xlink:title="QualityControl/Quality.h">
<polygon fill="none" stroke="black" points="1332.5,-56.5 1332.5,-75.5 1453.5,-75.5 1453.5,-56.5 1332.5,-56.5"/>
<text text-anchor="middle" x="1393" y="-63.5" font-family="Helvetica,sans-Serif" font-size="10.00">QualityControl/Quality.h</text>
</a>
</g>
</g>
<!-- Node17&#45;&gt;Node22 -->
<g id="edge25" class="edge"><title>Node17&#45;&gt;Node22</title>
<path fill="none" stroke="midnightblue" d="M1408.03,-112.083C1405.62,-104.849 1402.14,-94.4087 1399.13,-85.3968"/>
<polygon fill="midnightblue" stroke="midnightblue" points="1402.4,-84.1311 1395.92,-75.7511 1395.76,-86.3447 1402.4,-84.1311"/>
</g>
<!-- Node18&#45;&gt;Node9 -->
<g id="edge20" class="edge"><title>Node18&#45;&gt;Node9</title>
<path fill="none" stroke="midnightblue" d="M1269.11,-56.4435C1304.53,-46.3745 1363.03,-29.7501 1398.59,-19.6434"/>
<polygon fill="midnightblue" stroke="midnightblue" points="1399.74,-22.9541 1408.4,-16.8536 1397.83,-16.2208 1399.74,-22.9541"/>
</g>
<!-- Node18&#45;&gt;Node12 -->
<g id="edge21" class="edge"><title>Node18&#45;&gt;Node12</title>
<path fill="none" stroke="midnightblue" d="M1181.01,-56.4435C1101.12,-44.6569 960.351,-23.8878 900.825,-15.1053"/>
<polygon fill="midnightblue" stroke="midnightblue" points="901.092,-11.607 890.689,-13.6098 900.071,-18.532 901.092,-11.607"/>
</g>
<!-- Node19 -->
<g id="node19" class="node"><title>Node19</title>
<polygon fill="none" stroke="#bfbfbf" points="1329,-0.5 1329,-19.5 1385,-19.5 1385,-0.5 1329,-0.5"/>
<text text-anchor="middle" x="1357" y="-7.5" font-family="Helvetica,sans-Serif" font-size="10.00">Rtypes.h</text>
</g>
<!-- Node18&#45;&gt;Node19 -->
<g id="edge22" class="edge"><title>Node18&#45;&gt;Node19</title>
<path fill="none" stroke="midnightblue" d="M1257.7,-56.4435C1276.94,-47.6356 1307.15,-33.8116 1329.2,-23.722"/>
<polygon fill="midnightblue" stroke="midnightblue" points="1330.75,-26.8603 1338.39,-19.5164 1327.84,-20.4951 1330.75,-26.8603"/>
</g>
<!-- Node20 -->
<g id="node20" class="node"><title>Node20</title>
<polygon fill="none" stroke="#bfbfbf" points="1209.5,-0.5 1209.5,-19.5 1268.5,-19.5 1268.5,-0.5 1209.5,-0.5"/>
<text text-anchor="middle" x="1239" y="-7.5" font-family="Helvetica,sans-Serif" font-size="10.00">TObject.h</text>
</g>
<!-- Node18&#45;&gt;Node20 -->
<g id="edge23" class="edge"><title>Node18&#45;&gt;Node20</title>
<path fill="none" stroke="midnightblue" d="M1239,-56.083C1239,-49.0059 1239,-38.8611 1239,-29.9865"/>
<polygon fill="midnightblue" stroke="midnightblue" points="1242.5,-29.751 1239,-19.7511 1235.5,-29.7511 1242.5,-29.751"/>
</g>
<!-- Node18&#45;&gt;Node21 -->
<g id="edge24" class="edge"><title>Node18&#45;&gt;Node21</title>
<path fill="none" stroke="midnightblue" d="M1301.91,-56.4435C1374.37,-46.5876 1493,-30.4508 1567.67,-20.2938"/>
<polygon fill="midnightblue" stroke="midnightblue" points="1568.47,-23.7175 1577.91,-18.9015 1567.53,-16.7813 1568.47,-23.7175"/>
</g>
<!-- Node22&#45;&gt;Node9 -->
<g id="edge27" class="edge"><title>Node22&#45;&gt;Node9</title>
<path fill="none" stroke="midnightblue" d="M1398.94,-56.083C1403.98,-48.5341 1411.34,-37.4948 1417.51,-28.2298"/>
<polygon fill="midnightblue" stroke="midnightblue" points="1420.53,-30.0131 1423.17,-19.7511 1414.71,-26.1301 1420.53,-30.0131"/>
</g>
<!-- Node22&#45;&gt;Node19 -->
<g id="edge26" class="edge"><title>Node22&#45;&gt;Node19</title>
<path fill="none" stroke="midnightblue" d="M1387.06,-56.083C1382.02,-48.5341 1374.66,-37.4948 1368.49,-28.2298"/>
<polygon fill="midnightblue" stroke="midnightblue" points="1371.29,-26.1301 1362.83,-19.7511 1365.47,-30.0131 1371.29,-26.1301"/>
</g>
<!-- Node31 -->
<g id="node31" class="node"><title>Node31</title>
<polygon fill="none" stroke="#bfbfbf" points="2865,-168.5 2865,-187.5 2995,-187.5 2995,-168.5 2865,-168.5"/>
<text text-anchor="middle" x="2930" y="-175.5" font-family="Helvetica,sans-Serif" font-size="10.00">InfoLogger/InfoLogger.hxx</text>
</g>
<!-- Node30&#45;&gt;Node31 -->
<g id="edge41" class="edge"><title>Node30&#45;&gt;Node31</title>
<path fill="none" stroke="midnightblue" d="M2930,-229.975C2930,-221.58 2930,-208.481 2930,-197.663"/>
<polygon fill="midnightblue" stroke="midnightblue" points="2933.5,-197.509 2930,-187.509 2926.5,-197.509 2933.5,-197.509"/>
</g>
<!-- Node32&#45;&gt;Node8 -->
<g id="edge44" class="edge"><title>Node32&#45;&gt;Node8</title>
<path fill="none" stroke="midnightblue" d="M1319.43,-233.363C1208.15,-223.667 990.079,-197.415 817,-132 782.316,-118.891 745.657,-96.179 723.552,-81.3723"/>
<polygon fill="midnightblue" stroke="midnightblue" points="725.254,-78.2966 715.018,-75.5616 721.314,-84.0827 725.254,-78.2966"/>
</g>
<!-- Node32&#45;&gt;Node11 -->
<g id="edge45" class="edge"><title>Node32&#45;&gt;Node11</title>
<path fill="none" stroke="midnightblue" d="M1360.34,-229.975C1321.44,-219.504 1255.36,-201.712 1212.45,-190.16"/>
<polygon fill="midnightblue" stroke="midnightblue" points="1213.17,-186.729 1202.61,-187.509 1211.35,-193.489 1213.17,-186.729"/>
</g>
<!-- Node32&#45;&gt;Node13 -->
<g id="edge43" class="edge"><title>Node32&#45;&gt;Node13</title>
<path fill="none" stroke="midnightblue" d="M1413.97,-229.991C1449.43,-215.209 1519.4,-181.549 1560,-132 1571.01,-118.57 1577.53,-99.7527 1581.14,-85.8188"/>
<polygon fill="midnightblue" stroke="midnightblue" points="1584.59,-86.4189 1583.44,-75.8872 1577.77,-84.8407 1584.59,-86.4189"/>
</g>
</g>
</svg>
