<?xml version="1.0" encoding="UTF-8" standalone="no"?>
<!DOCTYPE svg PUBLIC "-//W3C//DTD SVG 1.1//EN"
 "http://www.w3.org/Graphics/SVG/1.1/DTD/svg11.dtd">
<!-- Generated by graphviz version 2.38.0 (20140413.2041)
 -->
<!-- Title: Framework/include/QualityControl/TaskConfig.h Pages: 1 -->
<svg width="4450pt" height="307pt"
 viewBox="0.00 0.00 4450.00 307.00" xmlns="http://www.w3.org/2000/svg" xmlns:xlink="http://www.w3.org/1999/xlink">
<g id="graph0" class="graph" transform="scale(1 1) rotate(0) translate(4 303)">
<title>Framework/include/QualityControl/TaskConfig.h</title>
<!-- Node1 -->
<g id="node1" class="node"><title>Node1</title>
<polygon fill="#bfbfbf" stroke="black" points="2368.5,-268.5 2368.5,-298.5 2501.5,-298.5 2501.5,-268.5 2368.5,-268.5"/>
<text text-anchor="start" x="2376.5" y="-286.5" font-family="Helvetica,sans-Serif" font-size="10.00">Framework/include/Quality</text>
<text text-anchor="middle" x="2435" y="-275.5" font-family="Helvetica,sans-Serif" font-size="10.00">Control/TaskConfig.h</text>
</g>
<!-- Node2 -->
<g id="node2" class="node"><title>Node2</title>
<g id="a_node2"><a xlink:href="ObjectsManager_8h.html" target="_top" xlink:title="Framework/include/Quality\lControl/ObjectsManager.h">
<polygon fill="none" stroke="black" points="1136.5,-201.5 1136.5,-231.5 1269.5,-231.5 1269.5,-201.5 1136.5,-201.5"/>
<text text-anchor="start" x="1144.5" y="-219.5" font-family="Helvetica,sans-Serif" font-size="10.00">Framework/include/Quality</text>
<text text-anchor="middle" x="1203" y="-208.5" font-family="Helvetica,sans-Serif" font-size="10.00">Control/ObjectsManager.h</text>
</a>
</g>
</g>
<!-- Node1&#45;&gt;Node2 -->
<g id="edge1" class="edge"><title>Node1&#45;&gt;Node2</title>
<path fill="none" stroke="midnightblue" d="M2358.28,-278.453C2133.87,-266.612 1481.19,-232.177 1269.87,-221.028"/>
<polygon fill="midnightblue" stroke="midnightblue" points="2358.15,-281.95 2368.33,-278.982 2358.52,-274.96 2358.15,-281.95"/>
</g>
<!-- Node4 -->
<g id="node4" class="node"><title>Node4</title>
<g id="a_node4"><a xlink:href="TaskFactory_8h.html" target="_top" xlink:title="Framework/include/Quality\lControl/TaskFactory.h">
<polygon fill="none" stroke="black" points="2368.5,-67.5 2368.5,-97.5 2501.5,-97.5 2501.5,-67.5 2368.5,-67.5"/>
<text text-anchor="start" x="2376.5" y="-85.5" font-family="Helvetica,sans-Serif" font-size="10.00">Framework/include/Quality</text>
<text text-anchor="middle" x="2435" y="-74.5" font-family="Helvetica,sans-Serif" font-size="10.00">Control/TaskFactory.h</text>
</a>
</g>
</g>
<!-- Node1&#45;&gt;Node4 -->
<g id="edge53" class="edge"><title>Node1&#45;&gt;Node4</title>
<path fill="none" stroke="midnightblue" d="M2435,-257.998C2435,-215.93 2435,-131.256 2435,-97.6819"/>
<polygon fill="midnightblue" stroke="midnightblue" points="2431.5,-258.188 2435,-268.188 2438.5,-258.188 2431.5,-258.188"/>
</g>
<!-- Node16 -->
<g id="node16" class="node"><title>Node16</title>
<g id="a_node16"><a xlink:href="TaskRunner_8h.html" target="_top" xlink:title="Framework/include/Quality\lControl/TaskRunner.h">
<polygon fill="none" stroke="black" points="3633.5,-67.5 3633.5,-97.5 3766.5,-97.5 3766.5,-67.5 3633.5,-67.5"/>
<text text-anchor="start" x="3641.5" y="-85.5" font-family="Helvetica,sans-Serif" font-size="10.00">Framework/include/Quality</text>
<text text-anchor="middle" x="3700" y="-74.5" font-family="Helvetica,sans-Serif" font-size="10.00">Control/TaskRunner.h</text>
</a>
</g>
</g>
<!-- Node1&#45;&gt;Node16 -->
<g id="edge54" class="edge"><title>Node1&#45;&gt;Node16</title>
<path fill="none" stroke="midnightblue" d="M2511.59,-270.452C2740.65,-234.418 3417.86,-127.884 3633.35,-93.9843"/>
<polygon fill="midnightblue" stroke="midnightblue" points="2511.01,-267 2501.67,-272.011 2512.1,-273.915 2511.01,-267"/>
</g>
<!-- Node3 -->
<g id="node3" class="node"><title>Node3</title>
<g id="a_node3"><a xlink:href="TaskInterface_8h.html" target="_top" xlink:title="Framework/include/Quality\lControl/TaskInterface.h">
<polygon fill="none" stroke="black" points="1219.5,-134.5 1219.5,-164.5 1352.5,-164.5 1352.5,-134.5 1219.5,-134.5"/>
<text text-anchor="start" x="1227.5" y="-152.5" font-family="Helvetica,sans-Serif" font-size="10.00">Framework/include/Quality</text>
<text text-anchor="middle" x="1286" y="-141.5" font-family="Helvetica,sans-Serif" font-size="10.00">Control/TaskInterface.h</text>
</a>
</g>
</g>
<!-- Node2&#45;&gt;Node3 -->
<g id="edge2" class="edge"><title>Node2&#45;&gt;Node3</title>
<path fill="none" stroke="midnightblue" d="M1228.96,-195.168C1241.65,-185.228 1256.61,-173.514 1268.03,-164.577"/>
<polygon fill="midnightblue" stroke="midnightblue" points="1226.72,-192.475 1221.01,-201.396 1231.04,-197.986 1226.72,-192.475"/>
</g>
<!-- Node9 -->
<g id="node9" class="node"><title>Node9</title>
<polygon fill="none" stroke="#bfbfbf" points="1836,-0.5 1836,-30.5 1950,-30.5 1950,-0.5 1836,-0.5"/>
<text text-anchor="start" x="1844" y="-18.5" font-family="Helvetica,sans-Serif" font-size="10.00">Modules/Example/test</text>
<text text-anchor="middle" x="1893" y="-7.5" font-family="Helvetica,sans-Serif" font-size="10.00">/testFactory.cxx</text>
</g>
<!-- Node2&#45;&gt;Node9 -->
<g id="edge52" class="edge"><title>Node2&#45;&gt;Node9</title>
<path fill="none" stroke="midnightblue" d="M1279.79,-209.421C1429.69,-196.29 1754.48,-161.235 1845,-98 1868.69,-81.4489 1882.5,-49.1341 1888.81,-30.5536"/>
<polygon fill="midnightblue" stroke="midnightblue" points="1279.4,-205.942 1269.74,-210.292 1280.01,-212.915 1279.4,-205.942"/>
</g>
<!-- Node45 -->
<g id="node45" class="node"><title>Node45</title>
<g id="a_node45"><a xlink:href="ObjectsManager_8cxx.html" target="_top" xlink:title="Framework/src/ObjectsManager.cxx">
<polygon fill="none" stroke="black" points="687.5,-140 687.5,-159 862.5,-159 862.5,-140 687.5,-140"/>
<text text-anchor="middle" x="775" y="-147" font-family="Helvetica,sans-Serif" font-size="10.00">Framework/src/ObjectsManager.cxx</text>
</a>
</g>
</g>
<!-- Node2&#45;&gt;Node45 -->
<g id="edge49" class="edge"><title>Node2&#45;&gt;Node45</title>
<path fill="none" stroke="midnightblue" d="M1126.03,-203.81C1041.16,-190.921 906.666,-170.496 831.173,-159.031"/>
<polygon fill="midnightblue" stroke="midnightblue" points="1125.71,-207.303 1136.12,-205.344 1126.76,-200.382 1125.71,-207.303"/>
</g>
<!-- Node46 -->
<g id="node46" class="node"><title>Node46</title>
<polygon fill="none" stroke="#bfbfbf" points="881,-134.5 881,-164.5 1019,-164.5 1019,-134.5 881,-134.5"/>
<text text-anchor="start" x="889" y="-152.5" font-family="Helvetica,sans-Serif" font-size="10.00">Framework/test/testObjects</text>
<text text-anchor="middle" x="950" y="-141.5" font-family="Helvetica,sans-Serif" font-size="10.00">Manager.cxx</text>
</g>
<!-- Node2&#45;&gt;Node46 -->
<g id="edge50" class="edge"><title>Node2&#45;&gt;Node46</title>
<path fill="none" stroke="midnightblue" d="M1138.72,-198.984C1097.39,-188.367 1044.27,-174.72 1004.92,-164.611"/>
<polygon fill="midnightblue" stroke="midnightblue" points="1137.86,-202.377 1148.41,-201.476 1139.6,-195.598 1137.86,-202.377"/>
</g>
<!-- Node47 -->
<g id="node47" class="node"><title>Node47</title>
<g id="a_node47"><a xlink:href="testPublisher_8cxx.html" target="_top" xlink:title="Framework/test/testPublisher.cxx">
<polygon fill="none" stroke="black" points="1037,-140 1037,-159 1201,-159 1201,-140 1037,-140"/>
<text text-anchor="middle" x="1119" y="-147" font-family="Helvetica,sans-Serif" font-size="10.00">Framework/test/testPublisher.cxx</text>
</a>
</g>
</g>
<!-- Node2&#45;&gt;Node47 -->
<g id="edge51" class="edge"><title>Node2&#45;&gt;Node47</title>
<path fill="none" stroke="midnightblue" d="M1176.52,-195.008C1160.92,-182.941 1142.01,-168.305 1130.24,-159.195"/>
<polygon fill="midnightblue" stroke="midnightblue" points="1174.72,-198.044 1184.77,-201.396 1179.01,-192.508 1174.72,-198.044"/>
</g>
<!-- Node3&#45;&gt;Node4 -->
<g id="edge3" class="edge"><title>Node3&#45;&gt;Node4</title>
<path fill="none" stroke="midnightblue" d="M1362.88,-144.151C1575.48,-132.124 2168.74,-98.5625 2368.43,-87.2657"/>
<polygon fill="midnightblue" stroke="midnightblue" points="1362.53,-140.665 1352.74,-144.724 1362.92,-147.654 1362.53,-140.665"/>
</g>
<!-- Node7 -->
<g id="node7" class="node"><title>Node7</title>
<g id="a_node7"><a xlink:href="testTaskInterface_8cxx.html" target="_top" xlink:title="Framework/test/testTaskInterface.cxx">
<polygon fill="none" stroke="black" points="2100.5,-6 2100.5,-25 2283.5,-25 2283.5,-6 2100.5,-6"/>
<text text-anchor="middle" x="2192" y="-13" font-family="Helvetica,sans-Serif" font-size="10.00">Framework/test/testTaskInterface.cxx</text>
</a>
</g>
</g>
<!-- Node3&#45;&gt;Node7 -->
<g id="edge24" class="edge"><title>Node3&#45;&gt;Node7</title>
<path fill="none" stroke="midnightblue" d="M1362.8,-144.985C1470.94,-139.259 1674,-125.664 1845,-98 1963.82,-78.7777 2102.39,-41.7189 2162.11,-25.0227"/>
<polygon fill="midnightblue" stroke="midnightblue" points="1362.44,-141.499 1352.64,-145.514 1362.8,-148.489 1362.44,-141.499"/>
</g>
<!-- Node3&#45;&gt;Node16 -->
<g id="edge15" class="edge"><title>Node3&#45;&gt;Node16</title>
<path fill="none" stroke="midnightblue" d="M1362.99,-146.427C1729.2,-136.566 3291.11,-94.5099 3633.49,-85.2909"/>
<polygon fill="midnightblue" stroke="midnightblue" points="1362.67,-142.934 1352.77,-146.702 1362.86,-149.932 1362.67,-142.934"/>
</g>
<!-- Node23 -->
<g id="node23" class="node"><title>Node23</title>
<g id="a_node23"><a xlink:href="TaskInterface_8cxx.html" target="_top" xlink:title="Framework/src/TaskInterface.cxx">
<polygon fill="none" stroke="black" points="32,-73 32,-92 196,-92 196,-73 32,-73"/>
<text text-anchor="middle" x="114" y="-80" font-family="Helvetica,sans-Serif" font-size="10.00">Framework/src/TaskInterface.cxx</text>
</a>
</g>
</g>
<!-- Node3&#45;&gt;Node23 -->
<g id="edge23" class="edge"><title>Node3&#45;&gt;Node23</title>
<path fill="none" stroke="midnightblue" d="M1209.12,-134.045C764.081,-84.8339 646.489,-140.919 205,-98 190.51,-96.5914 174.823,-94.352 160.621,-92.0505"/>
<polygon fill="midnightblue" stroke="midnightblue" points="1209.03,-137.557 1219.36,-135.189 1209.81,-130.6 1209.03,-137.557"/>
</g>
<!-- Node24 -->
<g id="node24" class="node"><title>Node24</title>
<g id="a_node24"><a xlink:href="DaqTask_8h.html" target="_top" xlink:title="Modules/Daq/include\l/Daq/DaqTask.h">
<polygon fill="none" stroke="black" points="214,-67.5 214,-97.5 322,-97.5 322,-67.5 214,-67.5"/>
<text text-anchor="start" x="222" y="-85.5" font-family="Helvetica,sans-Serif" font-size="10.00">Modules/Daq/include</text>
<text text-anchor="middle" x="268" y="-74.5" font-family="Helvetica,sans-Serif" font-size="10.00">/Daq/DaqTask.h</text>
</a>
</g>
</g>
<!-- Node3&#45;&gt;Node24 -->
<g id="edge25" class="edge"><title>Node3&#45;&gt;Node24</title>
<path fill="none" stroke="midnightblue" d="M1209.3,-134.057C833.542,-91.3081 734.128,-134.487 362,-98 349.017,-96.727 335.096,-94.8589 322.051,-92.8842"/>
<polygon fill="midnightblue" stroke="midnightblue" points="1209.02,-137.549 1219.36,-135.215 1209.82,-130.595 1209.02,-137.549"/>
</g>
<!-- Node27 -->
<g id="node27" class="node"><title>Node27</title>
<g id="a_node27"><a xlink:href="DigitsQcTask_8h.html" target="_top" xlink:title="Modules/EMCAL/include\l/EMCAL/DigitsQcTask.h">
<polygon fill="none" stroke="black" points="371.5,-67.5 371.5,-97.5 496.5,-97.5 496.5,-67.5 371.5,-67.5"/>
<text text-anchor="start" x="379.5" y="-85.5" font-family="Helvetica,sans-Serif" font-size="10.00">Modules/EMCAL/include</text>
<text text-anchor="middle" x="434" y="-74.5" font-family="Helvetica,sans-Serif" font-size="10.00">/EMCAL/DigitsQcTask.h</text>
</a>
</g>
</g>
<!-- Node3&#45;&gt;Node27 -->
<g id="edge28" class="edge"><title>Node3&#45;&gt;Node27</title>
<path fill="none" stroke="midnightblue" d="M1209.36,-134.054C905.175,-98.0082 824.331,-129.98 524,-98 515.187,-97.0616 505.923,-95.8398 496.827,-94.5037"/>
<polygon fill="midnightblue" stroke="midnightblue" points="1209.01,-137.537 1219.35,-135.253 1209.84,-130.586 1209.01,-137.537"/>
</g>
<!-- Node29 -->
<g id="node29" class="node"><title>Node29</title>
<g id="a_node29"><a xlink:href="RawTask_8h.html" target="_top" xlink:title="Modules/EMCAL/include\l/EMCAL/RawTask.h">
<polygon fill="none" stroke="black" points="533.5,-67.5 533.5,-97.5 658.5,-97.5 658.5,-67.5 533.5,-67.5"/>
<text text-anchor="start" x="541.5" y="-85.5" font-family="Helvetica,sans-Serif" font-size="10.00">Modules/EMCAL/include</text>
<text text-anchor="middle" x="596" y="-74.5" font-family="Helvetica,sans-Serif" font-size="10.00">/EMCAL/RawTask.h</text>
</a>
</g>
</g>
<!-- Node3&#45;&gt;Node29 -->
<g id="edge30" class="edge"><title>Node3&#45;&gt;Node29</title>
<path fill="none" stroke="midnightblue" d="M1209.33,-134.036C971.006,-104.193 907.046,-127.774 673,-98 668.277,-97.3992 663.406,-96.6916 658.516,-95.9177"/>
<polygon fill="midnightblue" stroke="midnightblue" points="1208.98,-137.52 1219.35,-135.308 1209.87,-130.576 1208.98,-137.52"/>
</g>
<!-- Node31 -->
<g id="node31" class="node"><title>Node31</title>
<g id="a_node31"><a xlink:href="BenchmarkTask_8h.html" target="_top" xlink:title="Modules/Example/include\l/Example/BenchmarkTask.h">
<polygon fill="none" stroke="black" points="682,-67.5 682,-97.5 822,-97.5 822,-67.5 682,-67.5"/>
<text text-anchor="start" x="690" y="-85.5" font-family="Helvetica,sans-Serif" font-size="10.00">Modules/Example/include</text>
<text text-anchor="middle" x="752" y="-74.5" font-family="Helvetica,sans-Serif" font-size="10.00">/Example/BenchmarkTask.h</text>
</a>
</g>
</g>
<!-- Node3&#45;&gt;Node31 -->
<g id="edge32" class="edge"><title>Node3&#45;&gt;Node31</title>
<path fill="none" stroke="midnightblue" d="M1209.4,-134.011C1041.22,-110.563 995.992,-120.63 832,-98 828.784,-97.5562 825.5,-97.0751 822.186,-96.567"/>
<polygon fill="midnightblue" stroke="midnightblue" points="1208.94,-137.481 1219.33,-135.415 1209.92,-130.55 1208.94,-137.481"/>
</g>
<!-- Node33 -->
<g id="node33" class="node"><title>Node33</title>
<g id="a_node33"><a xlink:href="ExampleCondition_8h.html" target="_top" xlink:title="Modules/Example/include\l/Example/ExampleCondition.h">
<polygon fill="none" stroke="black" points="841.5,-67.5 841.5,-97.5 990.5,-97.5 990.5,-67.5 841.5,-67.5"/>
<text text-anchor="start" x="849.5" y="-85.5" font-family="Helvetica,sans-Serif" font-size="10.00">Modules/Example/include</text>
<text text-anchor="middle" x="916" y="-74.5" font-family="Helvetica,sans-Serif" font-size="10.00">/Example/ExampleCondition.h</text>
</a>
</g>
</g>
<!-- Node3&#45;&gt;Node33 -->
<g id="edge34" class="edge"><title>Node3&#45;&gt;Node33</title>
<path fill="none" stroke="midnightblue" d="M1209.24,-133.888C1155.99,-124.346 1059.05,-107.79 990.804,-96.1875"/>
<polygon fill="midnightblue" stroke="midnightblue" points="1208.82,-137.369 1219.28,-135.699 1210.06,-130.481 1208.82,-137.369"/>
</g>
<!-- Node35 -->
<g id="node35" class="node"><title>Node35</title>
<g id="a_node35"><a xlink:href="ExampleTask_8h.html" target="_top" xlink:title="Modules/Example/include\l/Example/ExampleTask.h">
<polygon fill="none" stroke="black" points="1706.5,-67.5 1706.5,-97.5 1835.5,-97.5 1835.5,-67.5 1706.5,-67.5"/>
<text text-anchor="start" x="1714.5" y="-85.5" font-family="Helvetica,sans-Serif" font-size="10.00">Modules/Example/include</text>
<text text-anchor="middle" x="1771" y="-74.5" font-family="Helvetica,sans-Serif" font-size="10.00">/Example/ExampleTask.h</text>
</a>
</g>
</g>
<!-- Node3&#45;&gt;Node35 -->
<g id="edge36" class="edge"><title>Node3&#45;&gt;Node35</title>
<path fill="none" stroke="midnightblue" d="M1362.78,-138.21C1457.62,-125.5 1617.29,-104.1 1706.23,-92.1805"/>
<polygon fill="midnightblue" stroke="midnightblue" points="1362.12,-134.767 1352.67,-139.564 1363.05,-141.705 1362.12,-134.767"/>
</g>
<!-- Node37 -->
<g id="node37" class="node"><title>Node37</title>
<g id="a_node37"><a xlink:href="BasicDigitQcTask_8h.html" target="_top" xlink:title="Modules/MFT/include\l/MFT/BasicDigitQcTask.h">
<polygon fill="none" stroke="black" points="1011.5,-67.5 1011.5,-97.5 1142.5,-97.5 1142.5,-67.5 1011.5,-67.5"/>
<text text-anchor="start" x="1019.5" y="-85.5" font-family="Helvetica,sans-Serif" font-size="10.00">Modules/MFT/include</text>
<text text-anchor="middle" x="1077" y="-74.5" font-family="Helvetica,sans-Serif" font-size="10.00">/MFT/BasicDigitQcTask.h</text>
</a>
</g>
</g>
<!-- Node3&#45;&gt;Node37 -->
<g id="edge40" class="edge"><title>Node3&#45;&gt;Node37</title>
<path fill="none" stroke="midnightblue" d="M1231.16,-131.444C1197.28,-120.908 1154.33,-107.549 1122.37,-97.6109"/>
<polygon fill="midnightblue" stroke="midnightblue" points="1230.32,-134.848 1240.91,-134.476 1232.4,-128.164 1230.32,-134.848"/>
</g>
<!-- Node39 -->
<g id="node39" class="node"><title>Node39</title>
<g id="a_node39"><a xlink:href="SkeletonTask_8h.html" target="_top" xlink:title="Modules/Skeleton/include\l/Skeleton/SkeletonTask.h">
<polygon fill="none" stroke="black" points="1435.5,-67.5 1435.5,-97.5 1564.5,-97.5 1564.5,-67.5 1435.5,-67.5"/>
<text text-anchor="start" x="1443.5" y="-85.5" font-family="Helvetica,sans-Serif" font-size="10.00">Modules/Skeleton/include</text>
<text text-anchor="middle" x="1500" y="-74.5" font-family="Helvetica,sans-Serif" font-size="10.00">/Skeleton/SkeletonTask.h</text>
</a>
</g>
</g>
<!-- Node3&#45;&gt;Node39 -->
<g id="edge42" class="edge"><title>Node3&#45;&gt;Node39</title>
<path fill="none" stroke="midnightblue" d="M1342.15,-131.444C1376.84,-120.908 1420.82,-107.549 1453.54,-97.6109"/>
<polygon fill="midnightblue" stroke="midnightblue" points="1340.72,-128.221 1332.17,-134.476 1342.76,-134.919 1340.72,-128.221"/>
</g>
<!-- Node41 -->
<g id="node41" class="node"><title>Node41</title>
<g id="a_node41"><a xlink:href="TOFTask_8h.html" target="_top" xlink:title="Modules/TOF/include\l/TOF/TOFTask.h">
<polygon fill="none" stroke="black" points="1166,-67.5 1166,-97.5 1276,-97.5 1276,-67.5 1166,-67.5"/>
<text text-anchor="start" x="1174" y="-85.5" font-family="Helvetica,sans-Serif" font-size="10.00">Modules/TOF/include</text>
<text text-anchor="middle" x="1221" y="-74.5" font-family="Helvetica,sans-Serif" font-size="10.00">/TOF/TOFTask.h</text>
</a>
</g>
</g>
<!-- Node3&#45;&gt;Node41 -->
<g id="edge45" class="edge"><title>Node3&#45;&gt;Node41</title>
<path fill="none" stroke="midnightblue" d="M1264.81,-127.311C1255.06,-117.561 1243.76,-106.259 1235.08,-97.5765"/>
<polygon fill="midnightblue" stroke="midnightblue" points="1262.35,-129.8 1271.9,-134.396 1267.3,-124.85 1262.35,-129.8"/>
</g>
<!-- Node43 -->
<g id="node43" class="node"><title>Node43</title>
<g id="a_node43"><a xlink:href="PID_8h.html" target="_top" xlink:title="Modules/TPC/include\l/TPC/PID.h">
<polygon fill="none" stroke="black" points="1295,-67.5 1295,-97.5 1405,-97.5 1405,-67.5 1295,-67.5"/>
<text text-anchor="start" x="1303" y="-85.5" font-family="Helvetica,sans-Serif" font-size="10.00">Modules/TPC/include</text>
<text text-anchor="middle" x="1350" y="-74.5" font-family="Helvetica,sans-Serif" font-size="10.00">/TPC/PID.h</text>
</a>
</g>
</g>
<!-- Node3&#45;&gt;Node43 -->
<g id="edge47" class="edge"><title>Node3&#45;&gt;Node43</title>
<path fill="none" stroke="midnightblue" d="M1307.15,-127.024C1316.68,-117.34 1327.67,-106.174 1336.14,-97.5765"/>
<polygon fill="midnightblue" stroke="midnightblue" points="1304.41,-124.815 1299.89,-134.396 1309.4,-129.726 1304.41,-124.815"/>
</g>
<!-- Node5 -->
<g id="node5" class="node"><title>Node5</title>
<g id="a_node5"><a xlink:href="TaskFactory_8cxx.html" target="_top" xlink:title="Framework/src/TaskFactory.cxx">
<polygon fill="none" stroke="black" points="3104,-6 3104,-25 3262,-25 3262,-6 3104,-6"/>
<text text-anchor="middle" x="3183" y="-13" font-family="Helvetica,sans-Serif" font-size="10.00">Framework/src/TaskFactory.cxx</text>
</a>
</g>
</g>
<!-- Node4&#45;&gt;Node5 -->
<g id="edge4" class="edge"><title>Node4&#45;&gt;Node5</title>
<path fill="none" stroke="midnightblue" d="M2511.92,-77.847C2635.41,-71.4829 2885.41,-56.5425 3096,-31 3109.22,-29.396 3123.51,-27.2075 3136.6,-25.0171"/>
<polygon fill="midnightblue" stroke="midnightblue" points="2511.62,-74.3578 2501.81,-78.3635 2511.97,-81.3487 2511.62,-74.3578"/>
</g>
<!-- Node6 -->
<g id="node6" class="node"><title>Node6</title>
<g id="a_node6"><a xlink:href="TaskRunner_8cxx.html" target="_top" xlink:title="Framework/src/TaskRunner.cxx">
<polygon fill="none" stroke="black" points="3280.5,-6 3280.5,-25 3437.5,-25 3437.5,-6 3280.5,-6"/>
<text text-anchor="middle" x="3359" y="-13" font-family="Helvetica,sans-Serif" font-size="10.00">Framework/src/TaskRunner.cxx</text>
</a>
</g>
</g>
<!-- Node4&#45;&gt;Node6 -->
<g id="edge5" class="edge"><title>Node4&#45;&gt;Node6</title>
<path fill="none" stroke="midnightblue" d="M2511.88,-79.5023C2659.45,-75.0821 2992.49,-62.2736 3271,-31 3284.54,-29.4796 3299.17,-27.291 3312.54,-25.0734"/>
<polygon fill="midnightblue" stroke="midnightblue" points="2511.47,-76.0127 2501.58,-79.8062 2511.68,-83.0097 2511.47,-76.0127"/>
</g>
<!-- Node4&#45;&gt;Node7 -->
<g id="edge6" class="edge"><title>Node4&#45;&gt;Node7</title>
<path fill="none" stroke="midnightblue" d="M2372.68,-64.8304C2325.12,-52.1091 2261.56,-35.1062 2223.88,-25.0287"/>
<polygon fill="midnightblue" stroke="midnightblue" points="2372.01,-68.273 2382.57,-67.476 2373.82,-61.5107 2372.01,-68.273"/>
</g>
<!-- Node8 -->
<g id="node8" class="node"><title>Node8</title>
<g id="a_node8"><a xlink:href="testEMCAL_8cxx.html" target="_top" xlink:title="Modules/EMCAL/test\l/testEMCAL.cxx">
<polygon fill="none" stroke="black" points="2302,-0.5 2302,-30.5 2412,-30.5 2412,-0.5 2302,-0.5"/>
<text text-anchor="start" x="2310" y="-18.5" font-family="Helvetica,sans-Serif" font-size="10.00">Modules/EMCAL/test</text>
<text text-anchor="middle" x="2357" y="-7.5" font-family="Helvetica,sans-Serif" font-size="10.00">/testEMCAL.cxx</text>
</a>
</g>
</g>
<!-- Node4&#45;&gt;Node8 -->
<g id="edge7" class="edge"><title>Node4&#45;&gt;Node8</title>
<path fill="none" stroke="midnightblue" d="M2410.26,-60.8832C2398.41,-51.0054 2384.52,-39.4293 2373.89,-30.5765"/>
<polygon fill="midnightblue" stroke="midnightblue" points="2408.15,-63.6829 2418.08,-67.396 2412.63,-58.3053 2408.15,-63.6829"/>
</g>
<!-- Node4&#45;&gt;Node9 -->
<g id="edge8" class="edge"><title>Node4&#45;&gt;Node9</title>
<path fill="none" stroke="midnightblue" d="M2358.44,-75.9994C2264.1,-68.619 2099.09,-53.7477 1959,-31 1956.11,-30.5299 1953.15,-30.0133 1950.16,-29.4639"/>
<polygon fill="midnightblue" stroke="midnightblue" points="2358.23,-79.4932 2368.47,-76.7764 2358.77,-72.5142 2358.23,-79.4932"/>
</g>
<!-- Node10 -->
<g id="node10" class="node"><title>Node10</title>
<g id="a_node10"><a xlink:href="testQcExample_8cxx.html" target="_top" xlink:title="Modules/Example/test\l/testQcExample.cxx">
<polygon fill="none" stroke="black" points="1968,-0.5 1968,-30.5 2082,-30.5 2082,-0.5 1968,-0.5"/>
<text text-anchor="start" x="1976" y="-18.5" font-family="Helvetica,sans-Serif" font-size="10.00">Modules/Example/test</text>
<text text-anchor="middle" x="2025" y="-7.5" font-family="Helvetica,sans-Serif" font-size="10.00">/testQcExample.cxx</text>
</a>
</g>
</g>
<!-- Node4&#45;&gt;Node10 -->
<g id="edge9" class="edge"><title>Node4&#45;&gt;Node10</title>
<path fill="none" stroke="midnightblue" d="M2358.38,-71.7133C2288.7,-62.4602 2183.16,-47.5559 2092,-31 2088.84,-30.4258 2085.6,-29.8114 2082.33,-29.1718"/>
<polygon fill="midnightblue" stroke="midnightblue" points="2358.02,-75.1962 2368.39,-73.0371 2358.93,-68.2566 2358.02,-75.1962"/>
</g>
<!-- Node11 -->
<g id="node11" class="node"><title>Node11</title>
<polygon fill="none" stroke="#bfbfbf" points="2430.5,-6 2430.5,-25 2597.5,-25 2597.5,-6 2430.5,-6"/>
<text text-anchor="middle" x="2514" y="-13" font-family="Helvetica,sans-Serif" font-size="10.00">Modules/MFT/test/testQcMFT.cxx</text>
</g>
<!-- Node4&#45;&gt;Node11 -->
<g id="edge10" class="edge"><title>Node4&#45;&gt;Node11</title>
<path fill="none" stroke="midnightblue" d="M2459.91,-61.008C2474.57,-48.9412 2492.36,-34.3046 2503.43,-25.1945"/>
<polygon fill="midnightblue" stroke="midnightblue" points="2457.64,-58.3395 2452.14,-67.396 2462.09,-63.745 2457.64,-58.3395"/>
</g>
<!-- Node12 -->
<g id="node12" class="node"><title>Node12</title>
<polygon fill="none" stroke="#bfbfbf" points="2616,-0.5 2616,-30.5 2730,-30.5 2730,-0.5 2616,-0.5"/>
<text text-anchor="start" x="2624" y="-18.5" font-family="Helvetica,sans-Serif" font-size="10.00">Modules/Skeleton/test</text>
<text text-anchor="middle" x="2673" y="-7.5" font-family="Helvetica,sans-Serif" font-size="10.00">/.testEmpty.cxx</text>
</g>
<!-- Node4&#45;&gt;Node12 -->
<g id="edge11" class="edge"><title>Node4&#45;&gt;Node12</title>
<path fill="none" stroke="midnightblue" d="M2496.46,-64.7149C2535.19,-54.1373 2584.63,-40.6348 2621.33,-30.6109"/>
<polygon fill="midnightblue" stroke="midnightblue" points="2495.07,-61.465 2486.35,-67.476 2496.92,-68.2177 2495.07,-61.465"/>
</g>
<!-- Node13 -->
<g id="node13" class="node"><title>Node13</title>
<g id="a_node13"><a xlink:href="testQcSkeleton_8cxx.html" target="_top" xlink:title="Modules/Skeleton/test\l/testQcSkeleton.cxx">
<polygon fill="none" stroke="black" points="1574,-0.5 1574,-30.5 1688,-30.5 1688,-0.5 1574,-0.5"/>
<text text-anchor="start" x="1582" y="-18.5" font-family="Helvetica,sans-Serif" font-size="10.00">Modules/Skeleton/test</text>
<text text-anchor="middle" x="1631" y="-7.5" font-family="Helvetica,sans-Serif" font-size="10.00">/testQcSkeleton.cxx</text>
</a>
</g>
</g>
<!-- Node4&#45;&gt;Node13 -->
<g id="edge12" class="edge"><title>Node4&#45;&gt;Node13</title>
<path fill="none" stroke="midnightblue" d="M2358.15,-79.8914C2223.71,-76.2634 1937.32,-64.9137 1698,-31 1694.82,-30.5491 1691.56,-30.0321 1688.28,-29.4678"/>
<polygon fill="midnightblue" stroke="midnightblue" points="2358.26,-83.3953 2368.35,-80.1595 2358.44,-76.3977 2358.26,-83.3953"/>
</g>
<!-- Node14 -->
<g id="node14" class="node"><title>Node14</title>
<g id="a_node14"><a xlink:href="testTOF_8cxx.html" target="_top" xlink:title="Modules/TOF/test/testTOF.cxx">
<polygon fill="none" stroke="black" points="2748.5,-6 2748.5,-25 2901.5,-25 2901.5,-6 2748.5,-6"/>
<text text-anchor="middle" x="2825" y="-13" font-family="Helvetica,sans-Serif" font-size="10.00">Modules/TOF/test/testTOF.cxx</text>
</a>
</g>
</g>
<!-- Node4&#45;&gt;Node14 -->
<g id="edge13" class="edge"><title>Node4&#45;&gt;Node14</title>
<path fill="none" stroke="midnightblue" d="M2511.73,-68.8057C2573.2,-58.6238 2661.65,-43.9456 2739,-31 2750.5,-29.0755 2762.86,-26.997 2774.53,-25.0311"/>
<polygon fill="midnightblue" stroke="midnightblue" points="2511.02,-65.3764 2501.73,-70.4633 2512.16,-72.2823 2511.02,-65.3764"/>
</g>
<!-- Node15 -->
<g id="node15" class="node"><title>Node15</title>
<polygon fill="none" stroke="#bfbfbf" points="2919.5,-6 2919.5,-25 3086.5,-25 3086.5,-6 2919.5,-6"/>
<text text-anchor="middle" x="3003" y="-13" font-family="Helvetica,sans-Serif" font-size="10.00">Modules/TPC/test/testQcTPC.cxx</text>
</g>
<!-- Node4&#45;&gt;Node15 -->
<g id="edge14" class="edge"><title>Node4&#45;&gt;Node15</title>
<path fill="none" stroke="midnightblue" d="M2511.75,-74.5632C2605.95,-65.7715 2770.49,-49.5137 2911,-31 2924.31,-29.2468 2938.65,-27.1062 2951.97,-25.0138"/>
<polygon fill="midnightblue" stroke="midnightblue" points="2511.37,-71.0833 2501.74,-75.4942 2512.02,-78.0532 2511.37,-71.0833"/>
</g>
<!-- Node16&#45;&gt;Node6 -->
<g id="edge20" class="edge"><title>Node16&#45;&gt;Node6</title>
<path fill="none" stroke="midnightblue" d="M3623.26,-66.8722C3555.62,-53.9788 3459.41,-35.6388 3403.66,-25.0138"/>
<polygon fill="midnightblue" stroke="midnightblue" points="3622.96,-70.3786 3633.44,-68.813 3624.27,-63.5024 3622.96,-70.3786"/>
</g>
<!-- Node17 -->
<g id="node17" class="node"><title>Node17</title>
<polygon fill="none" stroke="#bfbfbf" points="3806,-6 3806,-25 3938,-25 3938,-6 3806,-6"/>
<text text-anchor="middle" x="3872" y="-13" font-family="Helvetica,sans-Serif" font-size="10.00">Framework/src/Check.cxx</text>
</g>
<!-- Node16&#45;&gt;Node17 -->
<g id="edge16" class="edge"><title>Node16&#45;&gt;Node17</title>
<path fill="none" stroke="midnightblue" d="M3746.88,-63.7838C3780.23,-51.1807 3823.55,-34.8082 3849.49,-25.007"/>
<polygon fill="midnightblue" stroke="midnightblue" points="3745.44,-60.5868 3737.32,-67.396 3747.91,-67.1349 3745.44,-60.5868"/>
</g>
<!-- Node18 -->
<g id="node18" class="node"><title>Node18</title>
<g id="a_node18"><a xlink:href="CheckRunner_8cxx.html" target="_top" xlink:title="Framework/src/CheckRunner.cxx">
<polygon fill="none" stroke="black" points="3956,-6 3956,-25 4120,-25 4120,-6 3956,-6"/>
<text text-anchor="middle" x="4038" y="-13" font-family="Helvetica,sans-Serif" font-size="10.00">Framework/src/CheckRunner.cxx</text>
</a>
</g>
</g>
<!-- Node16&#45;&gt;Node18 -->
<g id="edge17" class="edge"><title>Node16&#45;&gt;Node18</title>
<path fill="none" stroke="midnightblue" d="M3776.85,-66.721C3843.74,-53.8573 3938.38,-35.6585 3993.45,-25.0671"/>
<polygon fill="midnightblue" stroke="midnightblue" points="3775.94,-63.3325 3766.78,-68.6581 3777.26,-70.2066 3775.94,-63.3325"/>
</g>
<!-- Node19 -->
<g id="node19" class="node"><title>Node19</title>
<g id="a_node19"><a xlink:href="InfrastructureGenerator_8cxx.html" target="_top" xlink:title="Framework/src/Infrastructure\lGenerator.cxx">
<polygon fill="none" stroke="black" points="4138.5,-0.5 4138.5,-30.5 4281.5,-30.5 4281.5,-0.5 4138.5,-0.5"/>
<text text-anchor="start" x="4146.5" y="-18.5" font-family="Helvetica,sans-Serif" font-size="10.00">Framework/src/Infrastructure</text>
<text text-anchor="middle" x="4210" y="-7.5" font-family="Helvetica,sans-Serif" font-size="10.00">Generator.cxx</text>
</a>
</g>
</g>
<!-- Node16&#45;&gt;Node19 -->
<g id="edge18" class="edge"><title>Node16&#45;&gt;Node19</title>
<path fill="none" stroke="midnightblue" d="M3776.87,-73.8551C3862.86,-64.9769 4006.21,-49.2007 4129,-31 4132.11,-30.5392 4135.28,-30.0505 4138.48,-29.5421"/>
<polygon fill="midnightblue" stroke="midnightblue" points="3776.26,-70.399 3766.67,-74.9033 3776.98,-77.3623 3776.26,-70.399"/>
</g>
<!-- Node20 -->
<g id="node20" class="node"><title>Node20</title>
<g id="a_node20"><a xlink:href="runBasic_8cxx.html" target="_top" xlink:title="This is an executable showing QC Task&#39;s usage in Data Processing Layer. ">
<polygon fill="none" stroke="black" points="4300,-6 4300,-25 4442,-25 4442,-6 4300,-6"/>
<text text-anchor="middle" x="4371" y="-13" font-family="Helvetica,sans-Serif" font-size="10.00">Framework/src/runBasic.cxx</text>
</a>
</g>
</g>
<!-- Node16&#45;&gt;Node20 -->
<g id="edge19" class="edge"><title>Node16&#45;&gt;Node20</title>
<path fill="none" stroke="midnightblue" d="M3776.97,-77.241C3890,-70.4623 4107.38,-55.4309 4291,-31 4303.03,-29.399 4316.01,-27.2373 4327.94,-25.0723"/>
<polygon fill="midnightblue" stroke="midnightblue" points="3776.47,-73.7645 3766.7,-77.8517 3776.89,-80.7522 3776.47,-73.7645"/>
</g>
<!-- Node21 -->
<g id="node21" class="node"><title>Node21</title>
<g id="a_node21"><a xlink:href="TaskRunnerFactory_8cxx.html" target="_top" xlink:title="Framework/src/TaskRunner\lFactory.cxx">
<polygon fill="none" stroke="black" points="3456,-0.5 3456,-30.5 3594,-30.5 3594,-0.5 3456,-0.5"/>
<text text-anchor="start" x="3464" y="-18.5" font-family="Helvetica,sans-Serif" font-size="10.00">Framework/src/TaskRunner</text>
<text text-anchor="middle" x="3525" y="-7.5" font-family="Helvetica,sans-Serif" font-size="10.00">Factory.cxx</text>
</a>
</g>
</g>
<!-- Node16&#45;&gt;Node21 -->
<g id="edge21" class="edge"><title>Node16&#45;&gt;Node21</title>
<path fill="none" stroke="midnightblue" d="M3652.4,-63.8185C3624.27,-53.3707 3589.14,-40.3231 3562.9,-30.5765"/>
<polygon fill="midnightblue" stroke="midnightblue" points="3651.43,-67.195 3662.03,-67.396 3653.87,-60.633 3651.43,-67.195"/>
</g>
<!-- Node22 -->
<g id="node22" class="node"><title>Node22</title>
<g id="a_node22"><a xlink:href="testTaskRunner_8cxx.html" target="_top" xlink:title="Framework/test/testTaskRunner.cxx">
<polygon fill="none" stroke="black" points="3612,-6 3612,-25 3788,-25 3788,-6 3612,-6"/>
<text text-anchor="middle" x="3700" y="-13" font-family="Helvetica,sans-Serif" font-size="10.00">Framework/test/testTaskRunner.cxx</text>
</a>
</g>
</g>
<!-- Node16&#45;&gt;Node22 -->
<g id="edge22" class="edge"><title>Node16&#45;&gt;Node22</title>
<path fill="none" stroke="midnightblue" d="M3700,-57.2495C3700,-46.017 3700,-33.3767 3700,-25.1945"/>
<polygon fill="midnightblue" stroke="midnightblue" points="3696.5,-57.3959 3700,-67.396 3703.5,-57.396 3696.5,-57.3959"/>
</g>
<!-- Node25 -->
<g id="node25" class="node"><title>Node25</title>
<g id="a_node25"><a xlink:href="DaqTask_8cxx.html" target="_top" xlink:title="Modules/Daq/src/DaqTask.cxx">
<polygon fill="none" stroke="black" points="0,-6 0,-25 152,-25 152,-6 0,-6"/>
<text text-anchor="middle" x="76" y="-13" font-family="Helvetica,sans-Serif" font-size="10.00">Modules/Daq/src/DaqTask.cxx</text>
</a>
</g>
</g>
<!-- Node24&#45;&gt;Node25 -->
<g id="edge26" class="edge"><title>Node24&#45;&gt;Node25</title>
<path fill="none" stroke="midnightblue" d="M216.625,-64.1075C179.273,-51.4622 130.328,-34.8923 101.128,-25.007"/>
<polygon fill="midnightblue" stroke="midnightblue" points="215.745,-67.5044 226.339,-67.396 217.989,-60.8741 215.745,-67.5044"/>
</g>
<!-- Node26 -->
<g id="node26" class="node"><title>Node26</title>
<g id="a_node26"><a xlink:href="testQcDaq_8cxx.html" target="_top" xlink:title="Modules/Daq/test/testQcDaq.cxx">
<polygon fill="none" stroke="black" points="170.5,-6 170.5,-25 333.5,-25 333.5,-6 170.5,-6"/>
<text text-anchor="middle" x="252" y="-13" font-family="Helvetica,sans-Serif" font-size="10.00">Modules/Daq/test/testQcDaq.cxx</text>
</a>
</g>
</g>
<!-- Node24&#45;&gt;Node26 -->
<g id="edge27" class="edge"><title>Node24&#45;&gt;Node26</title>
<path fill="none" stroke="midnightblue" d="M262.116,-57.5965C259.33,-46.2781 256.175,-33.4611 254.14,-25.1945"/>
<polygon fill="midnightblue" stroke="midnightblue" points="258.739,-58.5224 264.528,-67.396 265.537,-56.8492 258.739,-58.5224"/>
</g>
<!-- Node28 -->
<g id="node28" class="node"><title>Node28</title>
<g id="a_node28"><a xlink:href="DigitsQcTask_8cxx.html" target="_top" xlink:title="Modules/EMCAL/src/Digits\lQcTask.cxx">
<polygon fill="none" stroke="black" points="352,-0.5 352,-30.5 488,-30.5 488,-0.5 352,-0.5"/>
<text text-anchor="start" x="360" y="-18.5" font-family="Helvetica,sans-Serif" font-size="10.00">Modules/EMCAL/src/Digits</text>
<text text-anchor="middle" x="420" y="-7.5" font-family="Helvetica,sans-Serif" font-size="10.00">QcTask.cxx</text>
</a>
</g>
</g>
<!-- Node27&#45;&gt;Node28 -->
<g id="edge29" class="edge"><title>Node27&#45;&gt;Node28</title>
<path fill="none" stroke="midnightblue" d="M428.81,-57.4029C426.864,-48.3703 424.719,-38.4078 423.032,-30.5765"/>
<polygon fill="midnightblue" stroke="midnightblue" points="425.435,-58.3571 430.962,-67.396 432.278,-56.8832 425.435,-58.3571"/>
</g>
<!-- Node30 -->
<g id="node30" class="node"><title>Node30</title>
<g id="a_node30"><a xlink:href="RawTask_8cxx.html" target="_top" xlink:title="Modules/EMCAL/src/RawTask.cxx">
<polygon fill="none" stroke="black" points="506.5,-6 506.5,-25 677.5,-25 677.5,-6 506.5,-6"/>
<text text-anchor="middle" x="592" y="-13" font-family="Helvetica,sans-Serif" font-size="10.00">Modules/EMCAL/src/RawTask.cxx</text>
</a>
</g>
</g>
<!-- Node29&#45;&gt;Node30 -->
<g id="edge31" class="edge"><title>Node29&#45;&gt;Node30</title>
<path fill="none" stroke="midnightblue" d="M594.508,-57.2495C593.816,-46.017 593.039,-33.3767 592.535,-25.1945"/>
<polygon fill="midnightblue" stroke="midnightblue" points="591.024,-57.6299 595.132,-67.396 598.011,-57.1998 591.024,-57.6299"/>
</g>
<!-- Node32 -->
<g id="node32" class="node"><title>Node32</title>
<g id="a_node32"><a xlink:href="BenchmarkTask_8cxx.html" target="_top" xlink:title="Modules/Example/src\l/BenchmarkTask.cxx">
<polygon fill="none" stroke="black" points="695.5,-0.5 695.5,-30.5 806.5,-30.5 806.5,-0.5 695.5,-0.5"/>
<text text-anchor="start" x="703.5" y="-18.5" font-family="Helvetica,sans-Serif" font-size="10.00">Modules/Example/src</text>
<text text-anchor="middle" x="751" y="-7.5" font-family="Helvetica,sans-Serif" font-size="10.00">/BenchmarkTask.cxx</text>
</a>
</g>
</g>
<!-- Node31&#45;&gt;Node32 -->
<g id="edge33" class="edge"><title>Node31&#45;&gt;Node32</title>
<path fill="none" stroke="midnightblue" d="M751.625,-57.1081C751.487,-48.1539 751.336,-38.3227 751.217,-30.5765"/>
<polygon fill="midnightblue" stroke="midnightblue" points="748.13,-57.451 751.783,-67.396 755.129,-57.3433 748.13,-57.451"/>
</g>
<!-- Node34 -->
<g id="node34" class="node"><title>Node34</title>
<g id="a_node34"><a xlink:href="ExampleCondition_8cxx.html" target="_top" xlink:title="Modules/Example/src\l/ExampleCondition.cxx">
<polygon fill="none" stroke="black" points="825,-0.5 825,-30.5 943,-30.5 943,-0.5 825,-0.5"/>
<text text-anchor="start" x="833" y="-18.5" font-family="Helvetica,sans-Serif" font-size="10.00">Modules/Example/src</text>
<text text-anchor="middle" x="884" y="-7.5" font-family="Helvetica,sans-Serif" font-size="10.00">/ExampleCondition.cxx</text>
</a>
</g>
</g>
<!-- Node33&#45;&gt;Node34 -->
<g id="edge35" class="edge"><title>Node33&#45;&gt;Node34</title>
<path fill="none" stroke="midnightblue" d="M904.57,-58.2835C900.011,-49.0223 894.911,-38.6632 890.93,-30.5765"/>
<polygon fill="midnightblue" stroke="midnightblue" points="901.499,-59.9702 909.056,-67.396 907.78,-56.8783 901.499,-59.9702"/>
</g>
<!-- Node35&#45;&gt;Node9 -->
<g id="edge38" class="edge"><title>Node35&#45;&gt;Node9</title>
<path fill="none" stroke="midnightblue" d="M1806.52,-62.575C1825.71,-52.3502 1849,-39.94 1866.58,-30.5765"/>
<polygon fill="midnightblue" stroke="midnightblue" points="1804.65,-59.6048 1797.47,-67.396 1807.94,-65.7827 1804.65,-59.6048"/>
</g>
<!-- Node35&#45;&gt;Node10 -->
<g id="edge39" class="edge"><title>Node35&#45;&gt;Node10</title>
<path fill="none" stroke="midnightblue" d="M1835.54,-64.9844C1877.03,-54.3674 1930.36,-40.7201 1969.86,-30.6109"/>
<polygon fill="midnightblue" stroke="midnightblue" points="1834.62,-61.606 1825.8,-67.476 1836.36,-68.3875 1834.62,-61.606"/>
</g>
<!-- Node36 -->
<g id="node36" class="node"><title>Node36</title>
<g id="a_node36"><a xlink:href="ExampleTask_8cxx.html" target="_top" xlink:title="Modules/Example/src\l/ExampleTask.cxx">
<polygon fill="none" stroke="black" points="1706.5,-0.5 1706.5,-30.5 1817.5,-30.5 1817.5,-0.5 1706.5,-0.5"/>
<text text-anchor="start" x="1714.5" y="-18.5" font-family="Helvetica,sans-Serif" font-size="10.00">Modules/Example/src</text>
<text text-anchor="middle" x="1762" y="-7.5" font-family="Helvetica,sans-Serif" font-size="10.00">/ExampleTask.cxx</text>
</a>
</g>
</g>
<!-- Node35&#45;&gt;Node36 -->
<g id="edge37" class="edge"><title>Node35&#45;&gt;Node36</title>
<path fill="none" stroke="midnightblue" d="M1767.66,-57.4029C1766.41,-48.3703 1765.03,-38.4078 1763.95,-30.5765"/>
<polygon fill="midnightblue" stroke="midnightblue" points="1764.21,-57.9705 1769.05,-67.396 1771.14,-57.0104 1764.21,-57.9705"/>
</g>
<!-- Node38 -->
<g id="node38" class="node"><title>Node38</title>
<g id="a_node38"><a xlink:href="BasicDigitQcTask_8cxx.html" target="_top" xlink:title="Modules/MFT/src/BasicDigit\lQcTask.cxx">
<polygon fill="none" stroke="black" points="961.5,-0.5 961.5,-30.5 1102.5,-30.5 1102.5,-0.5 961.5,-0.5"/>
<text text-anchor="start" x="969.5" y="-18.5" font-family="Helvetica,sans-Serif" font-size="10.00">Modules/MFT/src/BasicDigit</text>
<text text-anchor="middle" x="1032" y="-7.5" font-family="Helvetica,sans-Serif" font-size="10.00">QcTask.cxx</text>
</a>
</g>
</g>
<!-- Node37&#45;&gt;Node38 -->
<g id="edge41" class="edge"><title>Node37&#45;&gt;Node38</title>
<path fill="none" stroke="midnightblue" d="M1061.53,-59.1575C1054.97,-49.6788 1047.52,-38.9186 1041.75,-30.5765"/>
<polygon fill="midnightblue" stroke="midnightblue" points="1058.67,-61.1663 1067.24,-67.396 1064.42,-57.1818 1058.67,-61.1663"/>
</g>
<!-- Node39&#45;&gt;Node13 -->
<g id="edge44" class="edge"><title>Node39&#45;&gt;Node13</title>
<path fill="none" stroke="midnightblue" d="M1537.58,-62.8533C1558.29,-52.5761 1583.59,-40.0252 1602.63,-30.5765"/>
<polygon fill="midnightblue" stroke="midnightblue" points="1535.83,-59.8159 1528.43,-67.396 1538.94,-66.0864 1535.83,-59.8159"/>
</g>
<!-- Node40 -->
<g id="node40" class="node"><title>Node40</title>
<g id="a_node40"><a xlink:href="SkeletonTask_8cxx.html" target="_top" xlink:title="Modules/Skeleton/src\l/SkeletonTask.cxx">
<polygon fill="none" stroke="black" points="1444.5,-0.5 1444.5,-30.5 1555.5,-30.5 1555.5,-0.5 1444.5,-0.5"/>
<text text-anchor="start" x="1452.5" y="-18.5" font-family="Helvetica,sans-Serif" font-size="10.00">Modules/Skeleton/src</text>
<text text-anchor="middle" x="1500" y="-7.5" font-family="Helvetica,sans-Serif" font-size="10.00">/SkeletonTask.cxx</text>
</a>
</g>
</g>
<!-- Node39&#45;&gt;Node40 -->
<g id="edge43" class="edge"><title>Node39&#45;&gt;Node40</title>
<path fill="none" stroke="midnightblue" d="M1500,-57.1081C1500,-48.1539 1500,-38.3227 1500,-30.5765"/>
<polygon fill="midnightblue" stroke="midnightblue" points="1496.5,-57.3959 1500,-67.396 1503.5,-57.396 1496.5,-57.3959"/>
</g>
<!-- Node42 -->
<g id="node42" class="node"><title>Node42</title>
<g id="a_node42"><a xlink:href="TOFTask_8cxx.html" target="_top" xlink:title="Modules/TOF/src/TOFTask.cxx">
<polygon fill="none" stroke="black" points="1120.5,-6 1120.5,-25 1275.5,-25 1275.5,-6 1120.5,-6"/>
<text text-anchor="middle" x="1198" y="-13" font-family="Helvetica,sans-Serif" font-size="10.00">Modules/TOF/src/TOFTask.cxx</text>
</a>
</g>
</g>
<!-- Node41&#45;&gt;Node42 -->
<g id="edge46" class="edge"><title>Node41&#45;&gt;Node42</title>
<path fill="none" stroke="midnightblue" d="M1212.66,-57.9425C1208.63,-46.5402 1204.03,-33.5454 1201.08,-25.1945"/>
<polygon fill="midnightblue" stroke="midnightblue" points="1209.37,-59.1363 1216.01,-67.396 1215.97,-56.8012 1209.37,-59.1363"/>
</g>
<!-- Node44 -->
<g id="node44" class="node"><title>Node44</title>
<g id="a_node44"><a xlink:href="PID_8cxx.html" target="_top" xlink:title="Modules/TPC/src/PID.cxx">
<polygon fill="none" stroke="black" points="1294,-6 1294,-25 1426,-25 1426,-6 1294,-6"/>
<text text-anchor="middle" x="1360" y="-13" font-family="Helvetica,sans-Serif" font-size="10.00">Modules/TPC/src/PID.cxx</text>
</a>
</g>
</g>
<!-- Node43&#45;&gt;Node44 -->
<g id="edge48" class="edge"><title>Node43&#45;&gt;Node44</title>
<path fill="none" stroke="midnightblue" d="M1353.73,-57.2495C1355.46,-46.017 1357.4,-33.3767 1358.66,-25.1945"/>
<polygon fill="midnightblue" stroke="midnightblue" points="1350.23,-56.98 1352.17,-67.396 1357.15,-58.0445 1350.23,-56.98"/>
</g>
</g>
</svg>
