<?xml version="1.0" encoding="UTF-8" standalone="no"?>
<!DOCTYPE svg PUBLIC "-//W3C//DTD SVG 1.1//EN"
 "http://www.w3.org/Graphics/SVG/1.1/DTD/svg11.dtd">
<!-- Generated by graphviz version 2.38.0 (20140413.2041)
 -->
<!-- Title: Framework/include/QualityControl/TaskRunner.h Pages: 1 -->
<svg width="1678pt" height="263pt"
 viewBox="0.00 0.00 1677.61 263.00" xmlns="http://www.w3.org/2000/svg" xmlns:xlink="http://www.w3.org/1999/xlink">
<g id="graph0" class="graph" transform="scale(1 1) rotate(0) translate(4 259)">
<title>Framework/include/QualityControl/TaskRunner.h</title>
<!-- Node1 -->
<g id="node1" class="node"><title>Node1</title>
<polygon fill="#bfbfbf" stroke="black" points="418.5,-224.5 418.5,-254.5 551.5,-254.5 551.5,-224.5 418.5,-224.5"/>
<text text-anchor="start" x="426.5" y="-242.5" font-family="Helvetica,sans-Serif" font-size="10.00">Framework/include/Quality</text>
<text text-anchor="middle" x="485" y="-231.5" font-family="Helvetica,sans-Serif" font-size="10.00">Control/TaskRunner.h</text>
</g>
<!-- Node2 -->
<g id="node2" class="node"><title>Node2</title>
<polygon fill="none" stroke="#bfbfbf" points="0,-168.5 0,-187.5 92,-187.5 92,-168.5 0,-168.5"/>
<text text-anchor="middle" x="46" y="-175.5" font-family="Helvetica,sans-Serif" font-size="10.00">Common/Timer.h</text>
</g>
<!-- Node1&#45;&gt;Node2 -->
<g id="edge1" class="edge"><title>Node1&#45;&gt;Node2</title>
<path fill="none" stroke="midnightblue" d="M418.315,-230.376C343.825,-221.155 219.386,-205.318 102.405,-188.17"/>
<polygon fill="midnightblue" stroke="midnightblue" points="102.6,-184.661 92.1971,-186.668 101.581,-191.587 102.6,-184.661"/>
</g>
<!-- Node3 -->
<g id="node3" class="node"><title>Node3</title>
<polygon fill="none" stroke="#bfbfbf" points="110,-168.5 110,-187.5 208,-187.5 208,-168.5 110,-168.5"/>
<text text-anchor="middle" x="159" y="-175.5" font-family="Helvetica,sans-Serif" font-size="10.00">Framework/Task.h</text>
</g>
<!-- Node1&#45;&gt;Node3 -->
<g id="edge2" class="edge"><title>Node1&#45;&gt;Node3</title>
<path fill="none" stroke="midnightblue" d="M418.242,-226.316C358.618,-215.433 272.226,-199.666 215.837,-189.374"/>
<polygon fill="midnightblue" stroke="midnightblue" points="216.136,-185.87 205.67,-187.518 214.879,-192.757 216.136,-185.87"/>
</g>
<!-- Node4 -->
<g id="node4" class="node"><title>Node4</title>
<polygon fill="none" stroke="#bfbfbf" points="226,-168.5 226,-187.5 390,-187.5 390,-168.5 226,-168.5"/>
<text text-anchor="middle" x="308" y="-175.5" font-family="Helvetica,sans-Serif" font-size="10.00">Framework/DataProcessorSpec.h</text>
</g>
<!-- Node1&#45;&gt;Node4 -->
<g id="edge3" class="edge"><title>Node1&#45;&gt;Node4</title>
<path fill="none" stroke="midnightblue" d="M443.053,-224.399C412.602,-214.163 371.87,-200.47 343.127,-190.808"/>
<polygon fill="midnightblue" stroke="midnightblue" points="344.091,-187.44 333.497,-187.571 341.86,-194.075 344.091,-187.44"/>
</g>
<!-- Node5 -->
<g id="node5" class="node"><title>Node5</title>
<polygon fill="none" stroke="#bfbfbf" points="408.5,-168.5 408.5,-187.5 561.5,-187.5 561.5,-168.5 408.5,-168.5"/>
<text text-anchor="middle" x="485" y="-175.5" font-family="Helvetica,sans-Serif" font-size="10.00">Framework/CompletionPolicy.h</text>
</g>
<!-- Node1&#45;&gt;Node5 -->
<g id="edge4" class="edge"><title>Node1&#45;&gt;Node5</title>
<path fill="none" stroke="midnightblue" d="M485,-224.399C485,-216.466 485,-206.458 485,-197.858"/>
<polygon fill="midnightblue" stroke="midnightblue" points="488.5,-197.658 485,-187.658 481.5,-197.658 488.5,-197.658"/>
</g>
<!-- Node6 -->
<g id="node6" class="node"><title>Node6</title>
<polygon fill="none" stroke="#bfbfbf" points="579.5,-168.5 579.5,-187.5 696.5,-187.5 696.5,-168.5 579.5,-168.5"/>
<text text-anchor="middle" x="638" y="-175.5" font-family="Helvetica,sans-Serif" font-size="10.00">Headers/DataHeader.h</text>
</g>
<!-- Node1&#45;&gt;Node6 -->
<g id="edge5" class="edge"><title>Node1&#45;&gt;Node6</title>
<path fill="none" stroke="midnightblue" d="M521.259,-224.399C547.044,-214.372 581.357,-201.028 606.101,-191.405"/>
<polygon fill="midnightblue" stroke="midnightblue" points="607.686,-194.544 615.737,-187.658 605.149,-188.02 607.686,-194.544"/>
</g>
<!-- Node7 -->
<g id="node7" class="node"><title>Node7</title>
<g id="a_node7"><a xlink:href="TaskConfig_8h.html" target="_top" xlink:title="QualityControl/TaskConfig.h">
<polygon fill="none" stroke="black" points="791,-56.5 791,-75.5 931,-75.5 931,-56.5 791,-56.5"/>
<text text-anchor="middle" x="861" y="-63.5" font-family="Helvetica,sans-Serif" font-size="10.00">QualityControl/TaskConfig.h</text>
</a>
</g>
</g>
<!-- Node1&#45;&gt;Node7 -->
<g id="edge6" class="edge"><title>Node1&#45;&gt;Node7</title>
<path fill="none" stroke="midnightblue" d="M551.97,-230.816C596.892,-223.843 656.488,-210.997 705,-188 762.82,-160.59 819.271,-108.809 845.601,-82.7792"/>
<polygon fill="midnightblue" stroke="midnightblue" points="848.193,-85.1366 852.773,-75.583 843.235,-80.195 848.193,-85.1366"/>
</g>
<!-- Node10 -->
<g id="node10" class="node"><title>Node10</title>
<g id="a_node10"><a xlink:href="TaskInterface_8h.html" target="_top" xlink:title="QualityControl/TaskInterface.h">
<polygon fill="none" stroke="black" points="1102,-168.5 1102,-187.5 1252,-187.5 1252,-168.5 1102,-168.5"/>
<text text-anchor="middle" x="1177" y="-175.5" font-family="Helvetica,sans-Serif" font-size="10.00">QualityControl/TaskInterface.h</text>
</a>
</g>
</g>
<!-- Node1&#45;&gt;Node10 -->
<g id="edge9" class="edge"><title>Node1&#45;&gt;Node10</title>
<path fill="none" stroke="midnightblue" d="M551.666,-232.768C677.988,-221.906 952.036,-198.343 1091.6,-186.343"/>
<polygon fill="midnightblue" stroke="midnightblue" points="1092.16,-189.808 1101.82,-185.464 1091.56,-182.834 1092.16,-189.808"/>
</g>
<!-- Node8 -->
<g id="node8" class="node"><title>Node8</title>
<polygon fill="none" stroke="#bfbfbf" points="976.5,-0.5 976.5,-19.5 1017.5,-19.5 1017.5,-0.5 976.5,-0.5"/>
<text text-anchor="middle" x="997" y="-7.5" font-family="Helvetica,sans-Serif" font-size="10.00">string</text>
</g>
<!-- Node7&#45;&gt;Node8 -->
<g id="edge7" class="edge"><title>Node7&#45;&gt;Node8</title>
<path fill="none" stroke="midnightblue" d="M882.55,-56.4435C905.296,-47.4121 941.324,-33.1067 966.875,-22.9612"/>
<polygon fill="midnightblue" stroke="midnightblue" points="968.439,-26.1063 976.441,-19.1629 965.856,-19.6004 968.439,-26.1063"/>
</g>
<!-- Node9 -->
<g id="node9" class="node"><title>Node9</title>
<polygon fill="none" stroke="#bfbfbf" points="770.5,-0.5 770.5,-19.5 853.5,-19.5 853.5,-0.5 770.5,-0.5"/>
<text text-anchor="middle" x="812" y="-7.5" font-family="Helvetica,sans-Serif" font-size="10.00">unordered_map</text>
</g>
<!-- Node7&#45;&gt;Node9 -->
<g id="edge8" class="edge"><title>Node7&#45;&gt;Node9</title>
<path fill="none" stroke="midnightblue" d="M852.909,-56.083C845.845,-48.2982 835.412,-36.8015 826.851,-27.3665"/>
<polygon fill="midnightblue" stroke="midnightblue" points="829.253,-24.8047 819.941,-19.7511 824.069,-29.5087 829.253,-24.8047"/>
</g>
<!-- Node10&#45;&gt;Node8 -->
<g id="edge12" class="edge"><title>Node10&#45;&gt;Node8</title>
<path fill="none" stroke="midnightblue" d="M1101.89,-169.605C1052.58,-163.019 994.449,-151.354 979,-132 955.139,-102.107 973.758,-54.3901 986.897,-28.7212"/>
<polygon fill="midnightblue" stroke="midnightblue" points="990.065,-30.2213 991.728,-19.7578 983.903,-26.9003 990.065,-30.2213"/>
</g>
<!-- Node10&#45;&gt;Node9 -->
<g id="edge13" class="edge"><title>Node10&#45;&gt;Node9</title>
<path fill="none" stroke="midnightblue" d="M1101.95,-168.961C998.28,-156.098 819.728,-127.001 782,-76 770.754,-60.7984 783.471,-40.7079 795.64,-26.9086"/>
<polygon fill="midnightblue" stroke="midnightblue" points="798.229,-29.2656 802.557,-19.5952 793.143,-24.4558 798.229,-29.2656"/>
</g>
<!-- Node11 -->
<g id="node11" class="node"><title>Node11</title>
<polygon fill="none" stroke="#bfbfbf" points="1541.5,-0.5 1541.5,-19.5 1576.5,-19.5 1576.5,-0.5 1541.5,-0.5"/>
<text text-anchor="middle" x="1559" y="-7.5" font-family="Helvetica,sans-Serif" font-size="10.00">map</text>
</g>
<!-- Node10&#45;&gt;Node11 -->
<g id="edge10" class="edge"><title>Node10&#45;&gt;Node11</title>
<path fill="none" stroke="midnightblue" d="M1252.15,-175.445C1381.05,-171.993 1633.11,-161.511 1660,-132 1694.45,-94.189 1624.73,-47.0781 1584.61,-24.4115"/>
<polygon fill="midnightblue" stroke="midnightblue" points="1586.28,-21.3371 1575.83,-19.5755 1582.9,-27.4677 1586.28,-21.3371"/>
</g>
<!-- Node12 -->
<g id="node12" class="node"><title>Node12</title>
<polygon fill="none" stroke="#bfbfbf" points="1334,-56.5 1334,-75.5 1386,-75.5 1386,-56.5 1334,-56.5"/>
<text text-anchor="middle" x="1360" y="-63.5" font-family="Helvetica,sans-Serif" font-size="10.00">memory</text>
</g>
<!-- Node10&#45;&gt;Node12 -->
<g id="edge11" class="edge"><title>Node10&#45;&gt;Node12</title>
<path fill="none" stroke="midnightblue" d="M1177.16,-168.059C1177.9,-154.093 1181.42,-127.136 1197,-112 1199.34,-109.731 1276.77,-88.98 1324.06,-76.4635"/>
<polygon fill="midnightblue" stroke="midnightblue" points="1325.17,-79.7913 1333.94,-73.8519 1323.38,-73.0237 1325.17,-79.7913"/>
</g>
<!-- Node13 -->
<g id="node13" class="node"><title>Node13</title>
<polygon fill="none" stroke="#bfbfbf" points="1205.5,-112.5 1205.5,-131.5 1330.5,-131.5 1330.5,-112.5 1205.5,-112.5"/>
<text text-anchor="middle" x="1268" y="-119.5" font-family="Helvetica,sans-Serif" font-size="10.00">Framework/InitContext.h</text>
</g>
<!-- Node10&#45;&gt;Node13 -->
<g id="edge14" class="edge"><title>Node10&#45;&gt;Node13</title>
<path fill="none" stroke="midnightblue" d="M1191.62,-168.324C1205.95,-159.822 1228.01,-146.729 1244.75,-136.797"/>
<polygon fill="midnightblue" stroke="midnightblue" points="1246.6,-139.768 1253.42,-131.655 1243.03,-133.748 1246.6,-139.768"/>
</g>
<!-- Node14 -->
<g id="node14" class="node"><title>Node14</title>
<polygon fill="none" stroke="#bfbfbf" points="1349,-112.5 1349,-131.5 1509,-131.5 1509,-112.5 1349,-112.5"/>
<text text-anchor="middle" x="1429" y="-119.5" font-family="Helvetica,sans-Serif" font-size="10.00">Framework/ProcessingContext.h</text>
</g>
<!-- Node10&#45;&gt;Node14 -->
<g id="edge15" class="edge"><title>Node10&#45;&gt;Node14</title>
<path fill="none" stroke="midnightblue" d="M1216.93,-168.444C1260.89,-159.023 1331.63,-143.866 1379.18,-133.675"/>
<polygon fill="midnightblue" stroke="midnightblue" points="1380.21,-137.034 1389.26,-131.516 1378.75,-130.189 1380.21,-137.034"/>
</g>
<!-- Node15 -->
<g id="node15" class="node"><title>Node15</title>
<g id="a_node15"><a xlink:href="Activity_8h.html" target="_top" xlink:title="QualityControl/Activity.h">
<polygon fill="none" stroke="black" points="1527.5,-112.5 1527.5,-131.5 1650.5,-131.5 1650.5,-112.5 1527.5,-112.5"/>
<text text-anchor="middle" x="1589" y="-119.5" font-family="Helvetica,sans-Serif" font-size="10.00">QualityControl/Activity.h</text>
</a>
</g>
</g>
<!-- Node10&#45;&gt;Node15 -->
<g id="edge16" class="edge"><title>Node10&#45;&gt;Node15</title>
<path fill="none" stroke="midnightblue" d="M1242.28,-168.444C1317.2,-158.624 1439.68,-142.571 1517.22,-132.408"/>
<polygon fill="midnightblue" stroke="midnightblue" points="1517.93,-135.845 1527.39,-131.075 1517.02,-128.905 1517.93,-135.845"/>
</g>
<!-- Node16 -->
<g id="node16" class="node"><title>Node16</title>
<g id="a_node16"><a xlink:href="ObjectsManager_8h.html" target="_top" xlink:title="QualityControl/ObjectsManager.h">
<polygon fill="none" stroke="black" points="987.5,-112.5 987.5,-131.5 1148.5,-131.5 1148.5,-112.5 987.5,-112.5"/>
<text text-anchor="middle" x="1068" y="-119.5" font-family="Helvetica,sans-Serif" font-size="10.00">QualityControl/ObjectsManager.h</text>
</a>
</g>
</g>
<!-- Node10&#45;&gt;Node16 -->
<g id="edge17" class="edge"><title>Node10&#45;&gt;Node16</title>
<path fill="none" stroke="midnightblue" d="M1159.49,-168.324C1141.93,-159.625 1114.67,-146.12 1094.47,-136.113"/>
<polygon fill="midnightblue" stroke="midnightblue" points="1095.98,-132.958 1085.47,-131.655 1092.88,-139.23 1095.98,-132.958"/>
</g>
<!-- Node16&#45;&gt;Node7 -->
<g id="edge27" class="edge"><title>Node16&#45;&gt;Node7</title>
<path fill="none" stroke="midnightblue" d="M1035.2,-112.444C999.62,-103.162 942.686,-88.3093 903.653,-78.127"/>
<polygon fill="midnightblue" stroke="midnightblue" points="904.206,-74.6541 893.646,-75.5164 902.439,-81.4274 904.206,-74.6541"/>
</g>
<!-- Node16&#45;&gt;Node8 -->
<g id="edge28" class="edge"><title>Node16&#45;&gt;Node8</title>
<path fill="none" stroke="midnightblue" d="M1054.41,-112.22C1042.89,-104.117 1026.73,-91.0801 1017,-76 1007.9,-61.895 1002.74,-43.4064 999.946,-29.7551"/>
<polygon fill="midnightblue" stroke="midnightblue" points="1003.34,-28.8513 998.126,-19.628 996.45,-30.0894 1003.34,-28.8513"/>
</g>
<!-- Node16&#45;&gt;Node12 -->
<g id="edge29" class="edge"><title>Node16&#45;&gt;Node12</title>
<path fill="none" stroke="midnightblue" d="M1124.14,-112.469C1174.13,-104.579 1249.44,-91.9739 1323.69,-76.154"/>
<polygon fill="midnightblue" stroke="midnightblue" points="1324.64,-79.5294 1333.68,-74.0038 1323.17,-72.6861 1324.64,-79.5294"/>
</g>
<!-- Node17 -->
<g id="node17" class="node"><title>Node17</title>
<g id="a_node17"><a xlink:href="MonitorObject_8h.html" target="_top" xlink:title="QualityControl/MonitorObject.h">
<polygon fill="none" stroke="black" points="1164.5,-56.5 1164.5,-75.5 1315.5,-75.5 1315.5,-56.5 1164.5,-56.5"/>
<text text-anchor="middle" x="1240" y="-63.5" font-family="Helvetica,sans-Serif" font-size="10.00">QualityControl/MonitorObject.h</text>
</a>
</g>
</g>
<!-- Node16&#45;&gt;Node17 -->
<g id="edge18" class="edge"><title>Node16&#45;&gt;Node17</title>
<path fill="none" stroke="midnightblue" d="M1095.25,-112.444C1124.44,-103.28 1170.92,-88.6876 1203.31,-78.5192"/>
<polygon fill="midnightblue" stroke="midnightblue" points="1204.38,-81.8512 1212.87,-75.5164 1202.28,-75.1726 1204.38,-81.8512"/>
</g>
<!-- Node21 -->
<g id="node21" class="node"><title>Node21</title>
<g id="a_node21"><a xlink:href="Quality_8h.html" target="_top" xlink:title="QualityControl/Quality.h">
<polygon fill="none" stroke="black" points="1025.5,-56.5 1025.5,-75.5 1146.5,-75.5 1146.5,-56.5 1025.5,-56.5"/>
<text text-anchor="middle" x="1086" y="-63.5" font-family="Helvetica,sans-Serif" font-size="10.00">QualityControl/Quality.h</text>
</a>
</g>
</g>
<!-- Node16&#45;&gt;Node21 -->
<g id="edge24" class="edge"><title>Node16&#45;&gt;Node21</title>
<path fill="none" stroke="midnightblue" d="M1070.97,-112.083C1073.38,-104.849 1076.86,-94.4087 1079.87,-85.3968"/>
<polygon fill="midnightblue" stroke="midnightblue" points="1083.24,-86.3447 1083.08,-75.7511 1076.6,-84.1311 1083.24,-86.3447"/>
</g>
<!-- Node17&#45;&gt;Node8 -->
<g id="edge19" class="edge"><title>Node17&#45;&gt;Node8</title>
<path fill="none" stroke="midnightblue" d="M1201.5,-56.4435C1153.3,-45.7335 1071.73,-27.6072 1027.58,-17.7961"/>
<polygon fill="midnightblue" stroke="midnightblue" points="1028.24,-14.3576 1017.72,-15.6049 1026.72,-21.191 1028.24,-14.3576"/>
</g>
<!-- Node17&#45;&gt;Node11 -->
<g id="edge20" class="edge"><title>Node17&#45;&gt;Node11</title>
<path fill="none" stroke="midnightblue" d="M1290.55,-56.4435C1358.59,-44.925 1477.31,-24.8281 1531.1,-15.723"/>
<polygon fill="midnightblue" stroke="midnightblue" points="1531.98,-19.1241 1541.25,-14.0041 1530.81,-12.2223 1531.98,-19.1241"/>
</g>
<!-- Node18 -->
<g id="node18" class="node"><title>Node18</title>
<polygon fill="none" stroke="#bfbfbf" points="1077,-0.5 1077,-19.5 1133,-19.5 1133,-0.5 1077,-0.5"/>
<text text-anchor="middle" x="1105" y="-7.5" font-family="Helvetica,sans-Serif" font-size="10.00">Rtypes.h</text>
</g>
<!-- Node17&#45;&gt;Node18 -->
<g id="edge21" class="edge"><title>Node17&#45;&gt;Node18</title>
<path fill="none" stroke="midnightblue" d="M1218.61,-56.4435C1196.29,-47.5171 1161.1,-33.4387 1135.79,-23.3168"/>
<polygon fill="midnightblue" stroke="midnightblue" points="1136.88,-19.9807 1126.29,-19.5164 1134.28,-26.4801 1136.88,-19.9807"/>
</g>
<!-- Node19 -->
<g id="node19" class="node"><title>Node19</title>
<polygon fill="none" stroke="#bfbfbf" points="1190.5,-0.5 1190.5,-19.5 1249.5,-19.5 1249.5,-0.5 1190.5,-0.5"/>
<text text-anchor="middle" x="1220" y="-7.5" font-family="Helvetica,sans-Serif" font-size="10.00">TObject.h</text>
</g>
<!-- Node17&#45;&gt;Node19 -->
<g id="edge22" class="edge"><title>Node17&#45;&gt;Node19</title>
<path fill="none" stroke="midnightblue" d="M1236.7,-56.083C1234.02,-48.8486 1230.15,-38.4087 1226.81,-29.3968"/>
<polygon fill="midnightblue" stroke="midnightblue" points="1230,-27.9129 1223.24,-19.7511 1223.43,-30.3442 1230,-27.9129"/>
</g>
<!-- Node20 -->
<g id="node20" class="node"><title>Node20</title>
<polygon fill="none" stroke="#bfbfbf" points="1268,-0.5 1268,-19.5 1384,-19.5 1384,-0.5 1268,-0.5"/>
<text text-anchor="middle" x="1326" y="-7.5" font-family="Helvetica,sans-Serif" font-size="10.00">Common/Exceptions.h</text>
</g>
<!-- Node17&#45;&gt;Node20 -->
<g id="edge23" class="edge"><title>Node17&#45;&gt;Node20</title>
<path fill="none" stroke="midnightblue" d="M1253.82,-56.324C1267.23,-47.9002 1287.82,-34.9709 1303.59,-25.0741"/>
<polygon fill="midnightblue" stroke="midnightblue" points="1305.61,-27.9364 1312.22,-19.6545 1301.89,-22.0081 1305.61,-27.9364"/>
</g>
<!-- Node21&#45;&gt;Node8 -->
<g id="edge26" class="edge"><title>Node21&#45;&gt;Node8</title>
<path fill="none" stroke="midnightblue" d="M1071.7,-56.324C1057.82,-47.9002 1036.51,-34.9709 1020.2,-25.0741"/>
<polygon fill="midnightblue" stroke="midnightblue" points="1021.63,-21.8495 1011.26,-19.6545 1018,-27.8341 1021.63,-21.8495"/>
</g>
<!-- Node21&#45;&gt;Node18 -->
<g id="edge25" class="edge"><title>Node21&#45;&gt;Node18</title>
<path fill="none" stroke="midnightblue" d="M1089.14,-56.083C1091.68,-48.8486 1095.36,-38.4087 1098.53,-29.3968"/>
<polygon fill="midnightblue" stroke="midnightblue" points="1101.9,-30.3459 1101.92,-19.7511 1095.3,-28.0225 1101.9,-30.3459"/>
</g>
</g>
</svg>
