<?xml version="1.0" encoding="UTF-8" standalone="no"?>
<!DOCTYPE svg PUBLIC "-//W3C//DTD SVG 1.1//EN"
 "http://www.w3.org/Graphics/SVG/1.1/DTD/svg11.dtd">
<!-- Generated by graphviz version 2.38.0 (20140413.2041)
 -->
<!-- Title: Framework/src/TaskRunnerFactory.cxx Pages: 1 -->
<!--zoomable 330 -->
<svg id="main" version="1.1" xmlns="http://www.w3.org/2000/svg" xmlns:xlink="http://www.w3.org/1999/xlink" xml:space="preserve" onload="init(evt)">
<style type="text/css"><![CDATA[
.edge:hover path { stroke: red; }
.edge:hover polygon { stroke: red; fill: red; }
]]></style>
<script type="text/javascript"><![CDATA[
var edges = document.getElementsByTagName('g');
if (edges && edges.length) {
  for (var i=0;i<edges.length;i++) {
    if (edges[i].id.substr(0,4)=='edge') {
      edges[i].setAttribute('class','edge');
    }
  }
}
]]></script>
        <defs>
                <circle id="rim" cx="0" cy="0" r="7"/>
                <circle id="rim2" cx="0" cy="0" r="3.5"/>
                <g id="zoomPlus">
                        <use xlink:href="#rim" fill="#404040">
                                <set attributeName="fill" to="#808080" begin="zoomplus.mouseover" end="zoomplus.mouseout"/>
                        </use>
                        <path d="M-4,0h8M0,-4v8" fill="none" stroke="white" stroke-width="1.5" pointer-events="none"/>
                </g>
                <g id="zoomMin">
                        <use xlink:href="#rim" fill="#404040">
                                <set attributeName="fill" to="#808080" begin="zoomminus.mouseover" end="zoomminus.mouseout"/>
                        </use>
                        <path d="M-4,0h8" fill="none" stroke="white" stroke-width="1.5" pointer-events="none"/>
                </g>
                <g id="dirArrow">
                        <path fill="none" stroke="white" stroke-width="1.5" d="M0,-3.0v7 M-2.5,-0.5L0,-3.0L2.5,-0.5"/>
                </g>
               <g id="resetDef">
                       <use xlink:href="#rim2" fill="#404040">
                               <set attributeName="fill" to="#808080" begin="reset.mouseover" end="reset.mouseout"/>
                       </use>
               </g>
        </defs>

<script type="text/javascript">
var viewWidth = 1012;
var viewHeight = 330;
var sectionId = 'dynsection-0';
</script>
<script xlink:href="svgpan.js"/>
<svg id="graph" class="graph">
<g id="viewport">
<title>Framework/src/TaskRunnerFactory.cxx</title>
<!-- Node1 -->
<g id="node1" class="node"><title>Node1</title>
<polygon fill="#bfbfbf" stroke="black" points="512,-291.5 512,-321.5 650,-321.5 650,-291.5 512,-291.5"/>
<text text-anchor="start" x="520" y="-309.5" font-family="Helvetica,sans-Serif" font-size="10.00">Framework/src/TaskRunner</text>
<text text-anchor="middle" x="581" y="-298.5" font-family="Helvetica,sans-Serif" font-size="10.00">Factory.cxx</text>
</g>
<!-- Node2 -->
<g id="node2" class="node"><title>Node2</title>
<g id="a_node2"><a xlink:href="TaskRunnerFactory_8h.html" target="_top" xlink:title="QualityControl/TaskRunner\lFactory.h">
<polygon fill="none" stroke="black" points="59.5,-224.5 59.5,-254.5 194.5,-254.5 194.5,-224.5 59.5,-224.5"/>
<text text-anchor="start" x="67.5" y="-242.5" font-family="Helvetica,sans-Serif" font-size="10.00">QualityControl/TaskRunner</text>
<text text-anchor="middle" x="127" y="-231.5" font-family="Helvetica,sans-Serif" font-size="10.00">Factory.h</text>
</a>
</g>
</g>
<!-- Node1&#45;&gt;Node2 -->
<g id="edge1" class="edge"><title>Node1&#45;&gt;Node2</title>
<path fill="none" stroke="midnightblue" d="M511.553,-295.557C428.762,-283.704 290.796,-263.951 204.577,-251.607"/>
<polygon fill="midnightblue" stroke="midnightblue" points="204.981,-248.129 194.586,-250.176 203.989,-255.058 204.981,-248.129"/>
</g>
<!-- Node6 -->
<g id="node6" class="node"><title>Node6</title>
<g id="a_node6"><a xlink:href="TaskRunner_8h.html" target="_top" xlink:title="QualityControl/TaskRunner.h">
<polygon fill="none" stroke="black" points="459.5,-230 459.5,-249 602.5,-249 602.5,-230 459.5,-230"/>
<text text-anchor="middle" x="531" y="-237" font-family="Helvetica,sans-Serif" font-size="10.00">QualityControl/TaskRunner.h</text>
</a>
</g>
</g>
<!-- Node1&#45;&gt;Node6 -->
<g id="edge5" class="edge"><title>Node1&#45;&gt;Node6</title>
<path fill="none" stroke="midnightblue" d="M570.151,-291.396C562.432,-281.361 552.029,-267.838 543.887,-257.253"/>
<polygon fill="midnightblue" stroke="midnightblue" points="546.559,-254.987 537.688,-249.195 541.011,-259.255 546.559,-254.987"/>
</g>
<!-- Node9 -->
<g id="node9" class="node"><title>Node9</title>
<polygon fill="none" stroke="#bfbfbf" points="850.5,-168.5 850.5,-187.5 1003.5,-187.5 1003.5,-168.5 850.5,-168.5"/>
<text text-anchor="middle" x="927" y="-175.5" font-family="Helvetica,sans-Serif" font-size="10.00">Framework/CompletionPolicy.h</text>
</g>
<!-- Node1&#45;&gt;Node9 -->
<g id="edge36" class="edge"><title>Node1&#45;&gt;Node9</title>
<path fill="none" stroke="midnightblue" d="M588.682,-291.303C599.635,-272.56 621.598,-240.061 650,-224 667.173,-214.289 773.509,-198.851 849.302,-188.822"/>
<polygon fill="midnightblue" stroke="midnightblue" points="849.857,-192.279 859.315,-187.504 848.944,-185.339 849.857,-192.279"/>
</g>
<!-- Node25 -->
<g id="node25" class="node"><title>Node25</title>
<polygon fill="none" stroke="#bfbfbf" points="659,-230 659,-249 789,-249 789,-230 659,-230"/>
<text text-anchor="middle" x="724" y="-237" font-family="Helvetica,sans-Serif" font-size="10.00">Framework/DeviceSpec.h</text>
</g>
<!-- Node1&#45;&gt;Node25 -->
<g id="edge35" class="edge"><title>Node1&#45;&gt;Node25</title>
<path fill="none" stroke="midnightblue" d="M612.029,-291.396C637.009,-280.041 671.816,-264.22 695.964,-253.244"/>
<polygon fill="midnightblue" stroke="midnightblue" points="697.629,-256.331 705.285,-249.007 694.733,-249.959 697.629,-256.331"/>
</g>
<!-- Node3 -->
<g id="node3" class="node"><title>Node3</title>
<polygon fill="none" stroke="#bfbfbf" points="414.5,-0.5 414.5,-19.5 455.5,-19.5 455.5,-0.5 414.5,-0.5"/>
<text text-anchor="middle" x="435" y="-7.5" font-family="Helvetica,sans-Serif" font-size="10.00">string</text>
</g>
<!-- Node2&#45;&gt;Node3 -->
<g id="edge2" class="edge"><title>Node2&#45;&gt;Node3</title>
<path fill="none" stroke="midnightblue" d="M113.26,-224.387C105.054,-214.934 95.3966,-201.742 91,-188 74.1328,-135.282 113.971,-78.4102 144,-56 184.75,-25.5891 337.88,-15.2684 404.133,-12.1781"/>
<polygon fill="midnightblue" stroke="midnightblue" points="404.52,-15.6645 414.356,-11.727 404.212,-8.67134 404.52,-15.6645"/>
</g>
<!-- Node4 -->
<g id="node4" class="node"><title>Node4</title>
<polygon fill="none" stroke="#bfbfbf" points="0,-168.5 0,-187.5 44,-187.5 44,-168.5 0,-168.5"/>
<text text-anchor="middle" x="22" y="-175.5" font-family="Helvetica,sans-Serif" font-size="10.00">vector</text>
</g>
<!-- Node2&#45;&gt;Node4 -->
<g id="edge3" class="edge"><title>Node2&#45;&gt;Node4</title>
<path fill="none" stroke="midnightblue" d="M102.116,-224.399C85.2858,-214.862 63.1614,-202.325 46.4274,-192.842"/>
<polygon fill="midnightblue" stroke="midnightblue" points="47.7042,-189.543 37.2784,-187.658 44.2531,-195.633 47.7042,-189.543"/>
</g>
<!-- Node5 -->
<g id="node5" class="node"><title>Node5</title>
<polygon fill="none" stroke="#bfbfbf" points="100,-168.5 100,-187.5 264,-187.5 264,-168.5 100,-168.5"/>
<text text-anchor="middle" x="182" y="-175.5" font-family="Helvetica,sans-Serif" font-size="10.00">Framework/DataProcessorSpec.h</text>
</g>
<!-- Node2&#45;&gt;Node5 -->
<g id="edge4" class="edge"><title>Node2&#45;&gt;Node5</title>
<path fill="none" stroke="midnightblue" d="M140.034,-224.399C148.191,-215.575 158.722,-204.183 167.194,-195.018"/>
<polygon fill="midnightblue" stroke="midnightblue" points="169.779,-197.377 173.997,-187.658 164.639,-192.625 169.779,-197.377"/>
</g>
<!-- Node6&#45;&gt;Node5 -->
<g id="edge8" class="edge"><title>Node6&#45;&gt;Node5</title>
<path fill="none" stroke="midnightblue" d="M480.997,-229.975C417.891,-219.216 309.461,-200.73 241.969,-189.224"/>
<polygon fill="midnightblue" stroke="midnightblue" points="242.356,-185.74 231.91,-187.509 241.18,-192.64 242.356,-185.74"/>
</g>
<!-- Node7 -->
<g id="node7" class="node"><title>Node7</title>
<polygon fill="none" stroke="#bfbfbf" points="624,-168.5 624,-187.5 716,-187.5 716,-168.5 624,-168.5"/>
<text text-anchor="middle" x="670" y="-175.5" font-family="Helvetica,sans-Serif" font-size="10.00">Common/Timer.h</text>
</g>
<!-- Node6&#45;&gt;Node7 -->
<g id="edge6" class="edge"><title>Node6&#45;&gt;Node7</title>
<path fill="none" stroke="midnightblue" d="M550.915,-229.975C574.449,-219.901 613.81,-203.053 640.793,-191.502"/>
<polygon fill="midnightblue" stroke="midnightblue" points="642.306,-194.662 650.122,-187.509 639.551,-188.227 642.306,-194.662"/>
</g>
<!-- Node8 -->
<g id="node8" class="node"><title>Node8</title>
<polygon fill="none" stroke="#bfbfbf" points="734,-168.5 734,-187.5 832,-187.5 832,-168.5 734,-168.5"/>
<text text-anchor="middle" x="783" y="-175.5" font-family="Helvetica,sans-Serif" font-size="10.00">Framework/Task.h</text>
</g>
<!-- Node6&#45;&gt;Node8 -->
<g id="edge7" class="edge"><title>Node6&#45;&gt;Node8</title>
<path fill="none" stroke="midnightblue" d="M567.105,-229.975C611.829,-219.415 688.083,-201.411 736.967,-189.869"/>
<polygon fill="midnightblue" stroke="midnightblue" points="738.033,-193.213 746.962,-187.509 736.425,-186.401 738.033,-193.213"/>
</g>
<!-- Node6&#45;&gt;Node9 -->
<g id="edge9" class="edge"><title>Node6&#45;&gt;Node9</title>
<path fill="none" stroke="midnightblue" d="M580.538,-229.949C592.469,-227.944 605.183,-225.854 617,-224 698.557,-211.207 792.391,-197.763 855.267,-188.939"/>
<polygon fill="midnightblue" stroke="midnightblue" points="856.055,-192.362 865.473,-187.509 855.084,-185.43 856.055,-192.362"/>
</g>
<!-- Node10 -->
<g id="node10" class="node"><title>Node10</title>
<polygon fill="none" stroke="#bfbfbf" points="320.5,-168.5 320.5,-187.5 437.5,-187.5 437.5,-168.5 320.5,-168.5"/>
<text text-anchor="middle" x="379" y="-175.5" font-family="Helvetica,sans-Serif" font-size="10.00">Headers/DataHeader.h</text>
</g>
<!-- Node6&#45;&gt;Node10 -->
<g id="edge10" class="edge"><title>Node6&#45;&gt;Node10</title>
<path fill="none" stroke="midnightblue" d="M509.222,-229.975C483.262,-219.813 439.689,-202.756 410.165,-191.2"/>
<polygon fill="midnightblue" stroke="midnightblue" points="411.325,-187.895 400.737,-187.509 408.774,-194.413 411.325,-187.895"/>
</g>
<!-- Node11 -->
<g id="node11" class="node"><title>Node11</title>
<g id="a_node11"><a xlink:href="TaskConfig_8h.html" target="_top" xlink:title="QualityControl/TaskConfig.h">
<polygon fill="none" stroke="black" points="153,-56.5 153,-75.5 293,-75.5 293,-56.5 153,-56.5"/>
<text text-anchor="middle" x="223" y="-63.5" font-family="Helvetica,sans-Serif" font-size="10.00">QualityControl/TaskConfig.h</text>
</a>
</g>
</g>
<!-- Node6&#45;&gt;Node11 -->
<g id="edge11" class="edge"><title>Node6&#45;&gt;Node11</title>
<path fill="none" stroke="midnightblue" d="M459.344,-234.834C413.689,-229.564 355.059,-217.107 311,-188 271.586,-161.962 243.761,-111.855 230.95,-85.0163"/>
<polygon fill="midnightblue" stroke="midnightblue" points="234.009,-83.291 226.65,-75.6689 227.65,-86.2165 234.009,-83.291"/>
</g>
<!-- Node13 -->
<g id="node13" class="node"><title>Node13</title>
<g id="a_node13"><a xlink:href="TaskInterface_8h.html" target="_top" xlink:title="QualityControl/TaskInterface.h">
<polygon fill="none" stroke="black" points="456,-168.5 456,-187.5 606,-187.5 606,-168.5 456,-168.5"/>
<text text-anchor="middle" x="531" y="-175.5" font-family="Helvetica,sans-Serif" font-size="10.00">QualityControl/TaskInterface.h</text>
</a>
</g>
</g>
<!-- Node6&#45;&gt;Node13 -->
<g id="edge14" class="edge"><title>Node6&#45;&gt;Node13</title>
<path fill="none" stroke="midnightblue" d="M531,-229.975C531,-221.58 531,-208.481 531,-197.663"/>
<polygon fill="midnightblue" stroke="midnightblue" points="534.5,-197.509 531,-187.509 527.5,-197.509 534.5,-197.509"/>
</g>
<!-- Node11&#45;&gt;Node3 -->
<g id="edge12" class="edge"><title>Node11&#45;&gt;Node3</title>
<path fill="none" stroke="midnightblue" d="M256.592,-56.4435C297.319,-46.0696 365.364,-28.7375 404.598,-18.7438"/>
<polygon fill="midnightblue" stroke="midnightblue" points="405.56,-22.1108 414.386,-16.2506 403.832,-15.3274 405.56,-22.1108"/>
</g>
<!-- Node12 -->
<g id="node12" class="node"><title>Node12</title>
<polygon fill="none" stroke="#bfbfbf" points="87.5,-0.5 87.5,-19.5 170.5,-19.5 170.5,-0.5 87.5,-0.5"/>
<text text-anchor="middle" x="129" y="-7.5" font-family="Helvetica,sans-Serif" font-size="10.00">unordered_map</text>
</g>
<!-- Node11&#45;&gt;Node12 -->
<g id="edge13" class="edge"><title>Node11&#45;&gt;Node12</title>
<path fill="none" stroke="midnightblue" d="M207.897,-56.324C193.097,-47.8215 170.306,-34.7288 153.018,-24.7975"/>
<polygon fill="midnightblue" stroke="midnightblue" points="154.48,-21.6009 144.065,-19.6545 150.993,-27.6707 154.48,-21.6009"/>
</g>
<!-- Node13&#45;&gt;Node3 -->
<g id="edge17" class="edge"><title>Node13&#45;&gt;Node3</title>
<path fill="none" stroke="midnightblue" d="M606.27,-168.672C719.755,-156.074 921.689,-133.47 923,-132 928.916,-125.366 928.612,-118.893 923,-112 908.229,-93.8585 569.974,-34.2592 465.472,-16.2196"/>
<polygon fill="midnightblue" stroke="midnightblue" points="466.004,-12.7598 455.555,-14.5114 464.816,-19.6582 466.004,-12.7598"/>
</g>
<!-- Node13&#45;&gt;Node12 -->
<g id="edge18" class="edge"><title>Node13&#45;&gt;Node12</title>
<path fill="none" stroke="midnightblue" d="M455.937,-168.808C403.629,-161.929 332.64,-150.242 272,-132 212.537,-114.112 183.65,-123.788 144,-76 133.263,-63.0596 129.88,-43.8902 128.963,-29.7194"/>
<polygon fill="midnightblue" stroke="midnightblue" points="132.459,-29.5323 128.663,-19.6409 125.462,-29.7407 132.459,-29.5323"/>
</g>
<!-- Node14 -->
<g id="node14" class="node"><title>Node14</title>
<polygon fill="none" stroke="#bfbfbf" points="959.5,-0.5 959.5,-19.5 994.5,-19.5 994.5,-0.5 959.5,-0.5"/>
<text text-anchor="middle" x="977" y="-7.5" font-family="Helvetica,sans-Serif" font-size="10.00">map</text>
</g>
<!-- Node13&#45;&gt;Node14 -->
<g id="edge15" class="edge"><title>Node13&#45;&gt;Node14</title>
<path fill="none" stroke="midnightblue" d="M606.123,-168.836C723.747,-156.036 938.179,-132.628 939,-132 970.672,-107.764 976.549,-57.2525 977.278,-29.7782"/>
<polygon fill="midnightblue" stroke="midnightblue" points="980.779,-29.5772 977.335,-19.5578 973.779,-29.538 980.779,-29.5772"/>
</g>
<!-- Node15 -->
<g id="node15" class="node"><title>Node15</title>
<polygon fill="none" stroke="#bfbfbf" points="311,-56.5 311,-75.5 363,-75.5 363,-56.5 311,-56.5"/>
<text text-anchor="middle" x="337" y="-63.5" font-family="Helvetica,sans-Serif" font-size="10.00">memory</text>
</g>
<!-- Node13&#45;&gt;Node15 -->
<g id="edge16" class="edge"><title>Node13&#45;&gt;Node15</title>
<path fill="none" stroke="midnightblue" d="M456.376,-168.492C386.569,-159.764 291.363,-145.582 280,-132 264.915,-113.97 289.625,-93.6715 311.082,-80.6291"/>
<polygon fill="midnightblue" stroke="midnightblue" points="313.04,-83.5402 319.953,-75.5115 309.542,-77.4768 313.04,-83.5402"/>
</g>
<!-- Node16 -->
<g id="node16" class="node"><title>Node16</title>
<polygon fill="none" stroke="#bfbfbf" points="468.5,-112.5 468.5,-131.5 593.5,-131.5 593.5,-112.5 468.5,-112.5"/>
<text text-anchor="middle" x="531" y="-119.5" font-family="Helvetica,sans-Serif" font-size="10.00">Framework/InitContext.h</text>
</g>
<!-- Node13&#45;&gt;Node16 -->
<g id="edge19" class="edge"><title>Node13&#45;&gt;Node16</title>
<path fill="none" stroke="midnightblue" d="M531,-168.083C531,-161.006 531,-150.861 531,-141.986"/>
<polygon fill="midnightblue" stroke="midnightblue" points="534.5,-141.751 531,-131.751 527.5,-141.751 534.5,-141.751"/>
</g>
<!-- Node17 -->
<g id="node17" class="node"><title>Node17</title>
<polygon fill="none" stroke="#bfbfbf" points="612,-112.5 612,-131.5 772,-131.5 772,-112.5 612,-112.5"/>
<text text-anchor="middle" x="692" y="-119.5" font-family="Helvetica,sans-Serif" font-size="10.00">Framework/ProcessingContext.h</text>
</g>
<!-- Node13&#45;&gt;Node17 -->
<g id="edge20" class="edge"><title>Node13&#45;&gt;Node17</title>
<path fill="none" stroke="midnightblue" d="M556.511,-168.444C583.596,-159.359 626.59,-144.939 656.869,-134.783"/>
<polygon fill="midnightblue" stroke="midnightblue" points="658.24,-138.015 666.608,-131.516 656.014,-131.378 658.24,-138.015"/>
</g>
<!-- Node18 -->
<g id="node18" class="node"><title>Node18</title>
<g id="a_node18"><a xlink:href="Activity_8h.html" target="_top" xlink:title="QualityControl/Activity.h">
<polygon fill="none" stroke="black" points="790.5,-112.5 790.5,-131.5 913.5,-131.5 913.5,-112.5 790.5,-112.5"/>
<text text-anchor="middle" x="852" y="-119.5" font-family="Helvetica,sans-Serif" font-size="10.00">QualityControl/Activity.h</text>
</a>
</g>
</g>
<!-- Node13&#45;&gt;Node18 -->
<g id="edge21" class="edge"><title>Node13&#45;&gt;Node18</title>
<path fill="none" stroke="midnightblue" d="M581.863,-168.444C638.683,-158.885 730.617,-143.419 791.19,-133.23"/>
<polygon fill="midnightblue" stroke="midnightblue" points="792.094,-136.627 801.375,-131.516 790.932,-129.724 792.094,-136.627"/>
</g>
<!-- Node19 -->
<g id="node19" class="node"><title>Node19</title>
<g id="a_node19"><a xlink:href="ObjectsManager_8h.html" target="_top" xlink:title="QualityControl/ObjectsManager.h">
<polygon fill="none" stroke="black" points="289.5,-112.5 289.5,-131.5 450.5,-131.5 450.5,-112.5 289.5,-112.5"/>
<text text-anchor="middle" x="370" y="-119.5" font-family="Helvetica,sans-Serif" font-size="10.00">QualityControl/ObjectsManager.h</text>
</a>
</g>
</g>
<!-- Node13&#45;&gt;Node19 -->
<g id="edge22" class="edge"><title>Node13&#45;&gt;Node19</title>
<path fill="none" stroke="midnightblue" d="M505.489,-168.444C478.404,-159.359 435.41,-144.939 405.131,-134.783"/>
<polygon fill="midnightblue" stroke="midnightblue" points="405.986,-131.378 395.392,-131.516 403.76,-138.015 405.986,-131.378"/>
</g>
<!-- Node19&#45;&gt;Node3 -->
<g id="edge33" class="edge"><title>Node19&#45;&gt;Node3</title>
<path fill="none" stroke="midnightblue" d="M375.1,-112.368C385.78,-94.2957 410.668,-52.1764 424.773,-28.3074"/>
<polygon fill="midnightblue" stroke="midnightblue" points="427.849,-29.9813 429.923,-19.5914 421.823,-26.4201 427.849,-29.9813"/>
</g>
<!-- Node19&#45;&gt;Node11 -->
<g id="edge32" class="edge"><title>Node19&#45;&gt;Node11</title>
<path fill="none" stroke="midnightblue" d="M346.707,-112.444C322.193,-103.438 283.404,-89.1891 255.8,-79.049"/>
<polygon fill="midnightblue" stroke="midnightblue" points="256.777,-75.6793 246.184,-75.5164 254.363,-82.25 256.777,-75.6793"/>
</g>
<!-- Node19&#45;&gt;Node15 -->
<g id="edge34" class="edge"><title>Node19&#45;&gt;Node15</title>
<path fill="none" stroke="midnightblue" d="M364.551,-112.083C359.986,-104.613 353.332,-93.7244 347.707,-84.5199"/>
<polygon fill="midnightblue" stroke="midnightblue" points="350.549,-82.4588 342.348,-75.7511 344.576,-86.109 350.549,-82.4588"/>
</g>
<!-- Node20 -->
<g id="node20" class="node"><title>Node20</title>
<g id="a_node20"><a xlink:href="MonitorObject_8h.html" target="_top" xlink:title="QualityControl/MonitorObject.h">
<polygon fill="none" stroke="black" points="800.5,-56.5 800.5,-75.5 951.5,-75.5 951.5,-56.5 800.5,-56.5"/>
<text text-anchor="middle" x="876" y="-63.5" font-family="Helvetica,sans-Serif" font-size="10.00">QualityControl/MonitorObject.h</text>
</a>
</g>
</g>
<!-- Node19&#45;&gt;Node20 -->
<g id="edge23" class="edge"><title>Node19&#45;&gt;Node20</title>
<path fill="none" stroke="midnightblue" d="M449.898,-112.473C542.6,-102.58 694.869,-86.3302 790.067,-76.1707"/>
<polygon fill="midnightblue" stroke="midnightblue" points="790.669,-79.6265 800.241,-75.085 789.926,-72.666 790.669,-79.6265"/>
</g>
<!-- Node24 -->
<g id="node24" class="node"><title>Node24</title>
<g id="a_node24"><a xlink:href="Quality_8h.html" target="_top" xlink:title="QualityControl/Quality.h">
<polygon fill="none" stroke="black" points="419.5,-56.5 419.5,-75.5 540.5,-75.5 540.5,-56.5 419.5,-56.5"/>
<text text-anchor="middle" x="480" y="-63.5" font-family="Helvetica,sans-Serif" font-size="10.00">QualityControl/Quality.h</text>
</a>
</g>
</g>
<!-- Node19&#45;&gt;Node24 -->
<g id="edge29" class="edge"><title>Node19&#45;&gt;Node24</title>
<path fill="none" stroke="midnightblue" d="M387.673,-112.324C405.394,-103.625 432.903,-90.1202 453.288,-80.113"/>
<polygon fill="midnightblue" stroke="midnightblue" points="454.936,-83.2031 462.37,-75.6545 451.851,-76.9195 454.936,-83.2031"/>
</g>
<!-- Node20&#45;&gt;Node3 -->
<g id="edge24" class="edge"><title>Node20&#45;&gt;Node3</title>
<path fill="none" stroke="midnightblue" d="M806.122,-56.4435C708.635,-44.5063 535.905,-23.3558 465.827,-14.7747"/>
<polygon fill="midnightblue" stroke="midnightblue" points="466.221,-11.2969 455.87,-13.5555 465.37,-18.245 466.221,-11.2969"/>
</g>
<!-- Node20&#45;&gt;Node14 -->
<g id="edge25" class="edge"><title>Node20&#45;&gt;Node14</title>
<path fill="none" stroke="midnightblue" d="M892.227,-56.324C908.351,-47.7034 933.3,-34.3643 951.964,-24.3855"/>
<polygon fill="midnightblue" stroke="midnightblue" points="953.644,-27.456 960.813,-19.6545 950.344,-21.283 953.644,-27.456"/>
</g>
<!-- Node21 -->
<g id="node21" class="node"><title>Node21</title>
<polygon fill="none" stroke="#bfbfbf" points="560,-0.5 560,-19.5 616,-19.5 616,-0.5 560,-0.5"/>
<text text-anchor="middle" x="588" y="-7.5" font-family="Helvetica,sans-Serif" font-size="10.00">Rtypes.h</text>
</g>
<!-- Node20&#45;&gt;Node21 -->
<g id="edge26" class="edge"><title>Node20&#45;&gt;Node21</title>
<path fill="none" stroke="midnightblue" d="M830.366,-56.4435C773.861,-45.8489 678.65,-27.9968 625.952,-18.116"/>
<polygon fill="midnightblue" stroke="midnightblue" points="626.477,-14.6536 616.003,-16.2506 625.187,-21.5337 626.477,-14.6536"/>
</g>
<!-- Node22 -->
<g id="node22" class="node"><title>Node22</title>
<polygon fill="none" stroke="#bfbfbf" points="742.5,-0.5 742.5,-19.5 801.5,-19.5 801.5,-0.5 742.5,-0.5"/>
<text text-anchor="middle" x="772" y="-7.5" font-family="Helvetica,sans-Serif" font-size="10.00">TObject.h</text>
</g>
<!-- Node20&#45;&gt;Node22 -->
<g id="edge27" class="edge"><title>Node20&#45;&gt;Node22</title>
<path fill="none" stroke="midnightblue" d="M859.291,-56.324C842.688,-47.7034 816.998,-34.3643 797.78,-24.3855"/>
<polygon fill="midnightblue" stroke="midnightblue" points="799.156,-21.1565 788.668,-19.6545 795.93,-27.3689 799.156,-21.1565"/>
</g>
<!-- Node23 -->
<g id="node23" class="node"><title>Node23</title>
<polygon fill="none" stroke="#bfbfbf" points="820,-0.5 820,-19.5 936,-19.5 936,-0.5 820,-0.5"/>
<text text-anchor="middle" x="878" y="-7.5" font-family="Helvetica,sans-Serif" font-size="10.00">Common/Exceptions.h</text>
</g>
<!-- Node20&#45;&gt;Node23 -->
<g id="edge28" class="edge"><title>Node20&#45;&gt;Node23</title>
<path fill="none" stroke="midnightblue" d="M876.33,-56.083C876.592,-49.0059 876.968,-38.8611 877.297,-29.9865"/>
<polygon fill="midnightblue" stroke="midnightblue" points="880.803,-29.8738 877.676,-19.7511 873.808,-29.6147 880.803,-29.8738"/>
</g>
<!-- Node24&#45;&gt;Node3 -->
<g id="edge31" class="edge"><title>Node24&#45;&gt;Node3</title>
<path fill="none" stroke="midnightblue" d="M472.569,-56.083C466.147,-48.3768 456.694,-37.0333 448.878,-27.6531"/>
<polygon fill="midnightblue" stroke="midnightblue" points="451.383,-25.1927 442.293,-19.7511 446.006,-29.674 451.383,-25.1927"/>
</g>
<!-- Node24&#45;&gt;Node21 -->
<g id="edge30" class="edge"><title>Node24&#45;&gt;Node21</title>
<path fill="none" stroke="midnightblue" d="M497.352,-56.324C514.672,-47.6641 541.515,-34.2424 561.502,-24.249"/>
<polygon fill="midnightblue" stroke="midnightblue" points="563.312,-27.2572 570.691,-19.6545 560.181,-20.9962 563.312,-27.2572"/>
</g>
</g>
</svg>
        <g id="navigator" transform="translate(0 0)" fill="#404254">
                <rect fill="#f2f5e9" fill-opacity="0.5" stroke="#606060" stroke-width=".5" x="0" y="0" width="60" height="60"/>
                <use id="zoomplus" xlink:href="#zoomPlus" x="17" y="9" onmousedown="handleZoom(evt,'in')"/>
                <use id="zoomminus" xlink:href="#zoomMin" x="42" y="9" onmousedown="handleZoom(evt,'out')"/>
                <use id="reset" xlink:href="#resetDef" x="30" y="36" onmousedown="handleReset()"/>
                <g id="arrowUp" xlink:href="#dirArrow" transform="translate(30 24)" onmousedown="handlePan(0,-1)">
                  <use xlink:href="#rim" fill="#404040">
                        <set attributeName="fill" to="#808080" begin="arrowUp.mouseover" end="arrowUp.mouseout"/>
                  </use>
                  <path fill="none" stroke="white" stroke-width="1.5" d="M0,-3.0v7 M-2.5,-0.5L0,-3.0L2.5,-0.5"/>
                </g>
                <g id="arrowRight" xlink:href="#dirArrow" transform="rotate(90) translate(36 -43)" onmousedown="handlePan(1,0)">
                  <use xlink:href="#rim" fill="#404040">
                        <set attributeName="fill" to="#808080" begin="arrowRight.mouseover" end="arrowRight.mouseout"/>
                  </use>
                  <path fill="none" stroke="white" stroke-width="1.5" d="M0,-3.0v7 M-2.5,-0.5L0,-3.0L2.5,-0.5"/>
                </g>
                <g id="arrowDown" xlink:href="#dirArrow" transform="rotate(180) translate(-30 -48)" onmousedown="handlePan(0,1)">
                  <use xlink:href="#rim" fill="#404040">
                        <set attributeName="fill" to="#808080" begin="arrowDown.mouseover" end="arrowDown.mouseout"/>
                  </use>
                  <path fill="none" stroke="white" stroke-width="1.5" d="M0,-3.0v7 M-2.5,-0.5L0,-3.0L2.5,-0.5"/>
                </g>
                <g id="arrowLeft" xlink:href="#dirArrow" transform="rotate(270) translate(-36 17)" onmousedown="handlePan(-1,0)">
                  <use xlink:href="#rim" fill="#404040">
                        <set attributeName="fill" to="#808080" begin="arrowLeft.mouseover" end="arrowLeft.mouseout"/>
                  </use>
                  <path fill="none" stroke="white" stroke-width="1.5" d="M0,-3.0v7 M-2.5,-0.5L0,-3.0L2.5,-0.5"/>
                </g>
        </g>
        <svg viewBox="0 0 15 15" width="100%" height="30px" preserveAspectRatio="xMaxYMin meet">
         <g id="arrow_out" transform="scale(0.3 0.3)">
          <a xlink:href="TaskRunnerFactory_8cxx__incl_org.svg" target="_base">
           <rect id="button" ry="5" rx="5" y="6" x="6" height="38" width="38"
                fill="#f2f5e9" fill-opacity="0.5" stroke="#606060" stroke-width="1.0"/>
           <path id="arrow"
             d="M 11.500037,31.436501 C 11.940474,20.09759 22.043105,11.32322 32.158766,21.979434 L 37.068811,17.246167 C 37.068811,17.246167 37.088388,32 37.088388,32 L 22.160133,31.978069 C 22.160133,31.978069 26.997745,27.140456 26.997745,27.140456 C 18.528582,18.264221 13.291696,25.230495 11.500037,31.436501 z"
             style="fill:#404040;"/>
          </a>
         </g>
        </svg>
</svg>
