<?xml version="1.0" encoding="UTF-8" standalone="no"?>
<!DOCTYPE svg PUBLIC "-//W3C//DTD SVG 1.1//EN"
 "http://www.w3.org/Graphics/SVG/1.1/DTD/svg11.dtd">
<!-- Generated by graphviz version 2.38.0 (20140413.2041)
 -->
<!-- Title: Framework/test/testWorkflow.cxx Pages: 1 -->
<!--zoomable 330 -->
<svg id="main" version="1.1" xmlns="http://www.w3.org/2000/svg" xmlns:xlink="http://www.w3.org/1999/xlink" xml:space="preserve" onload="init(evt)">
<style type="text/css"><![CDATA[
.edge:hover path { stroke: red; }
.edge:hover polygon { stroke: red; fill: red; }
]]></style>
<script type="text/javascript"><![CDATA[
var edges = document.getElementsByTagName('g');
if (edges && edges.length) {
  for (var i=0;i<edges.length;i++) {
    if (edges[i].id.substr(0,4)=='edge') {
      edges[i].setAttribute('class','edge');
    }
  }
}
]]></script>
        <defs>
                <circle id="rim" cx="0" cy="0" r="7"/>
                <circle id="rim2" cx="0" cy="0" r="3.5"/>
                <g id="zoomPlus">
                        <use xlink:href="#rim" fill="#404040">
                                <set attributeName="fill" to="#808080" begin="zoomplus.mouseover" end="zoomplus.mouseout"/>
                        </use>
                        <path d="M-4,0h8M0,-4v8" fill="none" stroke="white" stroke-width="1.5" pointer-events="none"/>
                </g>
                <g id="zoomMin">
                        <use xlink:href="#rim" fill="#404040">
                                <set attributeName="fill" to="#808080" begin="zoomminus.mouseover" end="zoomminus.mouseout"/>
                        </use>
                        <path d="M-4,0h8" fill="none" stroke="white" stroke-width="1.5" pointer-events="none"/>
                </g>
                <g id="dirArrow">
                        <path fill="none" stroke="white" stroke-width="1.5" d="M0,-3.0v7 M-2.5,-0.5L0,-3.0L2.5,-0.5"/>
                </g>
               <g id="resetDef">
                       <use xlink:href="#rim2" fill="#404040">
                               <set attributeName="fill" to="#808080" begin="reset.mouseover" end="reset.mouseout"/>
                       </use>
               </g>
        </defs>

<script type="text/javascript">
var viewWidth = 1959;
var viewHeight = 330;
var sectionId = 'dynsection-0';
</script>
<script xlink:href="svgpan.js"/>
<svg id="graph" class="graph">
<g id="viewport">
<title>Framework/test/testWorkflow.cxx</title>
<!-- Node1 -->
<g id="node1" class="node"><title>Node1</title>
<polygon fill="#bfbfbf" stroke="black" points="1025.5,-302.5 1025.5,-321.5 1189.5,-321.5 1189.5,-302.5 1025.5,-302.5"/>
<text text-anchor="middle" x="1107.5" y="-309.5" font-family="Helvetica,sans-Serif" font-size="10.00">Framework/test/testWorkflow.cxx</text>
</g>
<!-- Node2 -->
<g id="node2" class="node"><title>Node2</title>
<polygon fill="none" stroke="#bfbfbf" points="0,-246.5 0,-265.5 119,-265.5 119,-246.5 0,-246.5"/>
<text text-anchor="middle" x="59.5" y="-253.5" font-family="Helvetica,sans-Serif" font-size="10.00">getTestDataDirectory.h</text>
</g>
<!-- Node1&#45;&gt;Node2 -->
<g id="edge1" class="edge"><title>Node1&#45;&gt;Node2</title>
<path fill="none" stroke="midnightblue" d="M1025.27,-309.278C857.405,-305.305 463.282,-293.633 133.5,-266 132.194,-265.891 130.876,-265.776 129.548,-265.656"/>
<polygon fill="midnightblue" stroke="midnightblue" points="129.527,-262.138 119.235,-264.654 128.85,-269.105 129.527,-262.138"/>
</g>
<!-- Node3 -->
<g id="node3" class="node"><title>Node3</title>
<g id="a_node3"><a xlink:href="CheckRunner_8h.html" target="_top" xlink:title="QualityControl/CheckRunner.h">
<polygon fill="none" stroke="black" points="946.5,-246.5 946.5,-265.5 1096.5,-265.5 1096.5,-246.5 946.5,-246.5"/>
<text text-anchor="middle" x="1021.5" y="-253.5" font-family="Helvetica,sans-Serif" font-size="10.00">QualityControl/CheckRunner.h</text>
</a>
</g>
</g>
<!-- Node1&#45;&gt;Node3 -->
<g id="edge2" class="edge"><title>Node1&#45;&gt;Node3</title>
<path fill="none" stroke="midnightblue" d="M1093.68,-302.324C1080.27,-293.9 1059.68,-280.971 1043.91,-271.074"/>
<polygon fill="midnightblue" stroke="midnightblue" points="1045.61,-268.008 1035.28,-265.655 1041.89,-273.936 1045.61,-268.008"/>
</g>
<!-- Node29 -->
<g id="node29" class="node"><title>Node29</title>
<g id="a_node29"><a xlink:href="InfrastructureGenerator_8h.html" target="_top" xlink:title="QualityControl/Infrastructure\lGenerator.h">
<polygon fill="none" stroke="black" points="175.5,-179.5 175.5,-209.5 315.5,-209.5 315.5,-179.5 175.5,-179.5"/>
<text text-anchor="start" x="183.5" y="-197.5" font-family="Helvetica,sans-Serif" font-size="10.00">QualityControl/Infrastructure</text>
<text text-anchor="middle" x="245.5" y="-186.5" font-family="Helvetica,sans-Serif" font-size="10.00">Generator.h</text>
</a>
</g>
</g>
<!-- Node1&#45;&gt;Node29 -->
<g id="edge53" class="edge"><title>Node1&#45;&gt;Node29</title>
<path fill="none" stroke="midnightblue" d="M1033.88,-302.484C895.608,-286.257 587.736,-249.033 329.5,-210 328.224,-209.807 326.938,-209.611 325.643,-209.411"/>
<polygon fill="midnightblue" stroke="midnightblue" points="326.014,-205.926 315.591,-207.825 324.923,-212.841 326.014,-205.926"/>
</g>
<!-- Node31 -->
<g id="node31" class="node"><title>Node31</title>
<g id="a_node31"><a xlink:href="runnerUtils_8h.html" target="_top" xlink:title="QualityControl/runnerUtils.h">
<polygon fill="none" stroke="black" points="178,-67.5 178,-86.5 315,-86.5 315,-67.5 178,-67.5"/>
<text text-anchor="middle" x="246.5" y="-74.5" font-family="Helvetica,sans-Serif" font-size="10.00">QualityControl/runnerUtils.h</text>
</a>
</g>
</g>
<!-- Node1&#45;&gt;Node31 -->
<g id="edge57" class="edge"><title>Node1&#45;&gt;Node31</title>
<path fill="none" stroke="midnightblue" d="M1025.41,-308.421C806.686,-300.7 222.639,-274.203 166.5,-210 141.048,-180.892 146.979,-156.377 166.5,-123 175.361,-107.85 191.405,-97.406 206.812,-90.4236"/>
<polygon fill="midnightblue" stroke="midnightblue" points="208.354,-93.5733 216.253,-86.5122 205.675,-87.1064 208.354,-93.5733"/>
</g>
<!-- Node33 -->
<g id="node33" class="node"><title>Node33</title>
<polygon fill="none" stroke="#bfbfbf" points="1114.5,-246.5 1114.5,-265.5 1274.5,-265.5 1274.5,-246.5 1114.5,-246.5"/>
<text text-anchor="middle" x="1194.5" y="-253.5" font-family="Helvetica,sans-Serif" font-size="10.00">Framework/runDataProcessing.h</text>
</g>
<!-- Node1&#45;&gt;Node33 -->
<g id="edge61" class="edge"><title>Node1&#45;&gt;Node33</title>
<path fill="none" stroke="midnightblue" d="M1121.48,-302.324C1135.05,-293.9 1155.88,-280.971 1171.82,-271.074"/>
<polygon fill="midnightblue" stroke="midnightblue" points="1173.91,-273.902 1180.56,-265.655 1170.21,-267.954 1173.91,-273.902"/>
</g>
<!-- Node34 -->
<g id="node34" class="node"><title>Node34</title>
<polygon fill="none" stroke="#bfbfbf" points="1293,-246.5 1293,-265.5 1434,-265.5 1434,-246.5 1293,-246.5"/>
<text text-anchor="middle" x="1363.5" y="-253.5" font-family="Helvetica,sans-Serif" font-size="10.00">Framework/ControlService.h</text>
</g>
<!-- Node1&#45;&gt;Node34 -->
<g id="edge62" class="edge"><title>Node1&#45;&gt;Node34</title>
<path fill="none" stroke="midnightblue" d="M1148.06,-302.444C1192.82,-293.004 1264.88,-277.802 1313.2,-267.611"/>
<polygon fill="midnightblue" stroke="midnightblue" points="1314.06,-271.005 1323.13,-265.516 1312.62,-264.156 1314.06,-271.005"/>
</g>
<!-- Node35 -->
<g id="node35" class="node"><title>Node35</title>
<polygon fill="none" stroke="#bfbfbf" points="1452.5,-246.5 1452.5,-265.5 1590.5,-265.5 1590.5,-246.5 1452.5,-246.5"/>
<text text-anchor="middle" x="1521.5" y="-253.5" font-family="Helvetica,sans-Serif" font-size="10.00">Framework/DataSampling.h</text>
</g>
<!-- Node1&#45;&gt;Node35 -->
<g id="edge63" class="edge"><title>Node1&#45;&gt;Node35</title>
<path fill="none" stroke="midnightblue" d="M1173.1,-302.444C1247.29,-292.767 1367.9,-277.035 1445.96,-266.853"/>
<polygon fill="midnightblue" stroke="midnightblue" points="1446.74,-270.281 1456.21,-265.516 1445.84,-263.339 1446.74,-270.281"/>
</g>
<!-- Node36 -->
<g id="node36" class="node"><title>Node36</title>
<polygon fill="none" stroke="#bfbfbf" points="1608.5,-246.5 1608.5,-265.5 1658.5,-265.5 1658.5,-246.5 1608.5,-246.5"/>
<text text-anchor="middle" x="1633.5" y="-253.5" font-family="Helvetica,sans-Serif" font-size="10.00">TH1F.h</text>
</g>
<!-- Node1&#45;&gt;Node36 -->
<g id="edge64" class="edge"><title>Node1&#45;&gt;Node36</title>
<path fill="none" stroke="midnightblue" d="M1189.89,-307.685C1285.86,-302.875 1449.21,-291.751 1598.11,-265.96"/>
<polygon fill="midnightblue" stroke="midnightblue" points="1599.11,-269.338 1608.35,-264.159 1597.9,-262.444 1599.11,-269.338"/>
</g>
<!-- Node4 -->
<g id="node4" class="node"><title>Node4</title>
<polygon fill="none" stroke="#bfbfbf" points="998.5,-185 998.5,-204 1044.5,-204 1044.5,-185 998.5,-185"/>
<text text-anchor="middle" x="1021.5" y="-192" font-family="Helvetica,sans-Serif" font-size="10.00">chrono</text>
</g>
<!-- Node3&#45;&gt;Node4 -->
<g id="edge3" class="edge"><title>Node3&#45;&gt;Node4</title>
<path fill="none" stroke="midnightblue" d="M1021.5,-246.475C1021.5,-238.08 1021.5,-224.981 1021.5,-214.163"/>
<polygon fill="midnightblue" stroke="midnightblue" points="1025,-214.009 1021.5,-204.009 1018,-214.009 1025,-214.009"/>
</g>
<!-- Node5 -->
<g id="node5" class="node"><title>Node5</title>
<polygon fill="none" stroke="#bfbfbf" points="1130.5,-123.5 1130.5,-142.5 1182.5,-142.5 1182.5,-123.5 1130.5,-123.5"/>
<text text-anchor="middle" x="1156.5" y="-130.5" font-family="Helvetica,sans-Serif" font-size="10.00">memory</text>
</g>
<!-- Node3&#45;&gt;Node5 -->
<g id="edge4" class="edge"><title>Node3&#45;&gt;Node5</title>
<path fill="none" stroke="midnightblue" d="M1096.52,-246.836C1168.41,-238.239 1267.71,-224.03 1279.5,-210 1288.37,-199.454 1287.39,-190.293 1279.5,-179 1269.24,-164.327 1225.07,-150.68 1192.58,-142.347"/>
<polygon fill="midnightblue" stroke="midnightblue" points="1193.06,-138.858 1182.51,-139.834 1191.36,-145.65 1193.06,-138.858"/>
</g>
<!-- Node6 -->
<g id="node6" class="node"><title>Node6</title>
<polygon fill="none" stroke="#bfbfbf" points="774,-6 774,-25 815,-25 815,-6 774,-6"/>
<text text-anchor="middle" x="794.5" y="-13" font-family="Helvetica,sans-Serif" font-size="10.00">string</text>
</g>
<!-- Node3&#45;&gt;Node6 -->
<g id="edge5" class="edge"><title>Node3&#45;&gt;Node6</title>
<path fill="none" stroke="midnightblue" d="M946.354,-252.588C777.696,-246.808 382.179,-231.069 362.5,-210 301.494,-144.686 656.007,-50.674 763.998,-23.8789"/>
<polygon fill="midnightblue" stroke="midnightblue" points="765.069,-27.2197 773.942,-21.4292 763.395,-20.4229 765.069,-27.2197"/>
</g>
<!-- Node7 -->
<g id="node7" class="node"><title>Node7</title>
<polygon fill="none" stroke="#bfbfbf" points="1445,-6 1445,-25 1480,-25 1480,-6 1445,-6"/>
<text text-anchor="middle" x="1462.5" y="-13" font-family="Helvetica,sans-Serif" font-size="10.00">map</text>
</g>
<!-- Node3&#45;&gt;Node7 -->
<g id="edge6" class="edge"><title>Node3&#45;&gt;Node7</title>
<path fill="none" stroke="midnightblue" d="M1096.59,-246.746C1099.6,-246.481 1102.58,-246.231 1105.5,-246 1261.88,-233.639 1658.79,-249.924 1810.5,-210 1874.89,-193.054 1909.49,-199.641 1944.5,-143 1955,-126.018 1951.85,-82.51 1935.5,-67 1903.04,-36.2201 1586.76,-21.3692 1490.29,-17.531"/>
<polygon fill="midnightblue" stroke="midnightblue" points="1490.27,-14.0278 1480.15,-17.136 1490,-21.0225 1490.27,-14.0278"/>
</g>
<!-- Node8 -->
<g id="node8" class="node"><title>Node8</title>
<polygon fill="none" stroke="#bfbfbf" points="724.5,-123.5 724.5,-142.5 768.5,-142.5 768.5,-123.5 724.5,-123.5"/>
<text text-anchor="middle" x="746.5" y="-130.5" font-family="Helvetica,sans-Serif" font-size="10.00">vector</text>
</g>
<!-- Node3&#45;&gt;Node8 -->
<g id="edge7" class="edge"><title>Node3&#45;&gt;Node8</title>
<path fill="none" stroke="midnightblue" d="M1030.83,-246.047C1045.66,-230.743 1071.23,-199.246 1053.5,-179 1013.47,-133.301 842.175,-154.385 782.5,-143 781.254,-142.762 779.987,-142.508 778.709,-142.241"/>
<polygon fill="midnightblue" stroke="midnightblue" points="779.408,-138.811 768.882,-140.011 777.859,-145.637 779.408,-138.811"/>
</g>
<!-- Node9 -->
<g id="node9" class="node"><title>Node9</title>
<polygon fill="none" stroke="#bfbfbf" points="371.5,-185 371.5,-204 449.5,-204 449.5,-185 371.5,-185"/>
<text text-anchor="middle" x="410.5" y="-192" font-family="Helvetica,sans-Serif" font-size="10.00">unordered_set</text>
</g>
<!-- Node3&#45;&gt;Node9 -->
<g id="edge8" class="edge"><title>Node3&#45;&gt;Node9</title>
<path fill="none" stroke="midnightblue" d="M946.148,-254.072C837.507,-251.585 630.972,-242.556 458.5,-210 454.049,-209.16 449.425,-208.062 444.881,-206.847"/>
<polygon fill="midnightblue" stroke="midnightblue" points="445.74,-203.452 435.162,-204.051 443.805,-210.179 445.74,-203.452"/>
</g>
<!-- Node10 -->
<g id="node10" class="node"><title>Node10</title>
<polygon fill="none" stroke="#bfbfbf" points="467.5,-185 467.5,-204 559.5,-204 559.5,-185 467.5,-185"/>
<text text-anchor="middle" x="513.5" y="-192" font-family="Helvetica,sans-Serif" font-size="10.00">Common/Timer.h</text>
</g>
<!-- Node3&#45;&gt;Node10 -->
<g id="edge9" class="edge"><title>Node3&#45;&gt;Node10</title>
<path fill="none" stroke="midnightblue" d="M946.448,-251.201C856.182,-245.791 700.335,-233.771 568.5,-210 563.289,-209.06 557.847,-207.878 552.501,-206.596"/>
<polygon fill="midnightblue" stroke="midnightblue" points="552.975,-203.106 542.422,-204.046 551.258,-209.892 552.975,-203.106"/>
</g>
<!-- Node11 -->
<g id="node11" class="node"><title>Node11</title>
<polygon fill="none" stroke="#bfbfbf" points="577.5,-185 577.5,-204 675.5,-204 675.5,-185 577.5,-185"/>
<text text-anchor="middle" x="626.5" y="-192" font-family="Helvetica,sans-Serif" font-size="10.00">Framework/Task.h</text>
</g>
<!-- Node3&#45;&gt;Node11 -->
<g id="edge10" class="edge"><title>Node3&#45;&gt;Node11</title>
<path fill="none" stroke="midnightblue" d="M946.49,-247.425C877.938,-239.925 773.929,-227.093 684.5,-210 679.084,-208.965 673.418,-207.735 667.839,-206.435"/>
<polygon fill="midnightblue" stroke="midnightblue" points="668.507,-202.996 657.964,-204.049 666.862,-209.8 668.507,-202.996"/>
</g>
<!-- Node12 -->
<g id="node12" class="node"><title>Node12</title>
<polygon fill="none" stroke="#bfbfbf" points="694,-185 694,-204 811,-204 811,-185 694,-185"/>
<text text-anchor="middle" x="752.5" y="-192" font-family="Helvetica,sans-Serif" font-size="10.00">Headers/DataHeader.h</text>
</g>
<!-- Node3&#45;&gt;Node12 -->
<g id="edge11" class="edge"><title>Node3&#45;&gt;Node12</title>
<path fill="none" stroke="midnightblue" d="M982.959,-246.475C935.018,-235.871 853.139,-217.76 800.985,-206.224"/>
<polygon fill="midnightblue" stroke="midnightblue" points="801.49,-202.751 790.97,-204.009 799.978,-209.586 801.49,-202.751"/>
</g>
<!-- Node13 -->
<g id="node13" class="node"><title>Node13</title>
<polygon fill="none" stroke="#bfbfbf" points="829,-185 829,-204 980,-204 980,-185 829,-185"/>
<text text-anchor="middle" x="904.5" y="-192" font-family="Helvetica,sans-Serif" font-size="10.00">Monitoring/MonitoringFactory.h</text>
</g>
<!-- Node3&#45;&gt;Node13 -->
<g id="edge12" class="edge"><title>Node3&#45;&gt;Node13</title>
<path fill="none" stroke="midnightblue" d="M1004.74,-246.475C985.275,-236.578 952.955,-220.142 930.289,-208.615"/>
<polygon fill="midnightblue" stroke="midnightblue" points="931.732,-205.422 921.232,-204.009 928.559,-211.662 931.732,-205.422"/>
</g>
<!-- Node14 -->
<g id="node14" class="node"><title>Node14</title>
<polygon fill="none" stroke="#bfbfbf" points="1567.5,-123.5 1567.5,-142.5 1731.5,-142.5 1731.5,-123.5 1567.5,-123.5"/>
<text text-anchor="middle" x="1649.5" y="-130.5" font-family="Helvetica,sans-Serif" font-size="10.00">Framework/DataProcessorSpec.h</text>
</g>
<!-- Node3&#45;&gt;Node14 -->
<g id="edge13" class="edge"><title>Node3&#45;&gt;Node14</title>
<path fill="none" stroke="midnightblue" d="M1096.6,-246.901C1099.61,-246.594 1102.58,-246.292 1105.5,-246 1277.38,-228.798 1326.1,-256.374 1492.5,-210 1543.3,-195.842 1597.64,-165.775 1627.2,-147.997"/>
<polygon fill="midnightblue" stroke="midnightblue" points="1629.17,-150.89 1635.88,-142.692 1625.53,-144.916 1629.17,-150.89"/>
</g>
<!-- Node15 -->
<g id="node15" class="node"><title>Node15</title>
<g id="a_node15"><a xlink:href="CheckInterface_8h.html" target="_top" xlink:title="QualityControl/CheckInterface.h">
<polygon fill="none" stroke="black" points="1239,-123.5 1239,-142.5 1396,-142.5 1396,-123.5 1239,-123.5"/>
<text text-anchor="middle" x="1317.5" y="-130.5" font-family="Helvetica,sans-Serif" font-size="10.00">QualityControl/CheckInterface.h</text>
</a>
</g>
</g>
<!-- Node3&#45;&gt;Node15 -->
<g id="edge14" class="edge"><title>Node3&#45;&gt;Node15</title>
<path fill="none" stroke="midnightblue" d="M1096.76,-246.969C1173.31,-238.134 1282.75,-223.406 1297.5,-210 1313.4,-195.549 1317.31,-170.113 1317.96,-152.678"/>
<polygon fill="midnightblue" stroke="midnightblue" points="1321.46,-152.589 1318.01,-142.572 1314.46,-152.554 1321.46,-152.589"/>
</g>
<!-- Node17 -->
<g id="node17" class="node"><title>Node17</title>
<g id="a_node17"><a xlink:href="MonitorObject_8h.html" target="_top" xlink:title="QualityControl/MonitorObject.h">
<polygon fill="none" stroke="black" points="1245,-67.5 1245,-86.5 1396,-86.5 1396,-67.5 1245,-67.5"/>
<text text-anchor="middle" x="1320.5" y="-74.5" font-family="Helvetica,sans-Serif" font-size="10.00">QualityControl/MonitorObject.h</text>
</a>
</g>
</g>
<!-- Node3&#45;&gt;Node17 -->
<g id="edge39" class="edge"><title>Node3&#45;&gt;Node17</title>
<path fill="none" stroke="midnightblue" d="M1096.6,-246.86C1099.6,-246.564 1102.58,-246.276 1105.5,-246 1247.82,-232.542 1657.36,-259.29 1740.5,-143 1780.42,-87.1714 1540.54,-78.1576 1406.42,-77.401"/>
<polygon fill="midnightblue" stroke="midnightblue" points="1406.18,-73.9 1396.17,-77.358 1406.15,-80.9 1406.18,-73.9"/>
</g>
<!-- Node21 -->
<g id="node21" class="node"><title>Node21</title>
<g id="a_node21"><a xlink:href="DatabaseInterface_8h.html" target="_top" xlink:title="QualityControl/DatabaseInterface.h">
<polygon fill="none" stroke="black" points="1100.5,-185 1100.5,-204 1270.5,-204 1270.5,-185 1100.5,-185"/>
<text text-anchor="middle" x="1185.5" y="-192" font-family="Helvetica,sans-Serif" font-size="10.00">QualityControl/DatabaseInterface.h</text>
</a>
</g>
</g>
<!-- Node3&#45;&gt;Node21 -->
<g id="edge27" class="edge"><title>Node3&#45;&gt;Node21</title>
<path fill="none" stroke="midnightblue" d="M1045,-246.475C1073.13,-236.269 1120.43,-219.108 1152.29,-207.549"/>
<polygon fill="midnightblue" stroke="midnightblue" points="1153.84,-210.71 1162.05,-204.009 1151.45,-204.13 1153.84,-210.71"/>
</g>
<!-- Node25 -->
<g id="node25" class="node"><title>Node25</title>
<g id="a_node25"><a xlink:href="QcInfoLogger_8h.html" target="_top" xlink:title="QualityControl/QcInfoLogger.h">
<polygon fill="none" stroke="black" points="1787,-123.5 1787,-142.5 1936,-142.5 1936,-123.5 1787,-123.5"/>
<text text-anchor="middle" x="1861.5" y="-130.5" font-family="Helvetica,sans-Serif" font-size="10.00">QualityControl/QcInfoLogger.h</text>
</a>
</g>
</g>
<!-- Node3&#45;&gt;Node25 -->
<g id="edge40" class="edge"><title>Node3&#45;&gt;Node25</title>
<path fill="none" stroke="midnightblue" d="M1096.59,-246.756C1099.6,-246.489 1102.58,-246.235 1105.5,-246 1253.68,-234.077 1635.62,-265.569 1773.5,-210 1804.72,-197.42 1832.6,-168.992 1848.25,-150.694"/>
<polygon fill="midnightblue" stroke="midnightblue" points="1851.23,-152.575 1854.91,-142.638 1845.84,-148.114 1851.23,-152.575"/>
</g>
<!-- Node27 -->
<g id="node27" class="node"><title>Node27</title>
<g id="a_node27"><a xlink:href="Check_8h_source.html" target="_top" xlink:title="QualityControl/Check.h">
<polygon fill="none" stroke="black" points="1365,-185 1365,-204 1484,-204 1484,-185 1365,-185"/>
<text text-anchor="middle" x="1424.5" y="-192" font-family="Helvetica,sans-Serif" font-size="10.00">QualityControl/Check.h</text>
</a>
</g>
</g>
<!-- Node3&#45;&gt;Node27 -->
<g id="edge42" class="edge"><title>Node3&#45;&gt;Node27</title>
<path fill="none" stroke="midnightblue" d="M1092.59,-246.476C1159.35,-238.188 1261.93,-224.723 1350.5,-210 1357.86,-208.776 1365.62,-207.378 1373.22,-205.944"/>
<polygon fill="midnightblue" stroke="midnightblue" points="1373.93,-209.373 1383.09,-204.05 1372.61,-202.498 1373.93,-209.373"/>
</g>
<!-- Node15&#45;&gt;Node6 -->
<g id="edge15" class="edge"><title>Node15&#45;&gt;Node6</title>
<path fill="none" stroke="midnightblue" d="M1301.6,-123.242C1270.05,-105.897 1202.09,-68.697 1196.5,-67 1037.56,-18.7518 984.439,-75.8416 824.5,-31 822.62,-30.4729 820.714,-29.8328 818.823,-29.1186"/>
<polygon fill="midnightblue" stroke="midnightblue" points="820.224,-25.9117 809.66,-25.1108 817.419,-32.325 820.224,-25.9117"/>
</g>
<!-- Node15&#45;&gt;Node7 -->
<g id="edge16" class="edge"><title>Node15&#45;&gt;Node7</title>
<path fill="none" stroke="midnightblue" d="M1350.1,-123.484C1371.95,-116.497 1400.3,-104.812 1420.5,-87 1436.82,-72.6061 1448.62,-50.2894 1455.48,-34.6293"/>
<polygon fill="midnightblue" stroke="midnightblue" points="1458.86,-35.6096 1459.44,-25.0303 1452.39,-32.9421 1458.86,-35.6096"/>
</g>
<!-- Node16 -->
<g id="node16" class="node"><title>Node16</title>
<polygon fill="none" stroke="#bfbfbf" points="1292.5,-6 1292.5,-25 1348.5,-25 1348.5,-6 1292.5,-6"/>
<text text-anchor="middle" x="1320.5" y="-13" font-family="Helvetica,sans-Serif" font-size="10.00">Rtypes.h</text>
</g>
<!-- Node15&#45;&gt;Node16 -->
<g id="edge17" class="edge"><title>Node15&#45;&gt;Node16</title>
<path fill="none" stroke="midnightblue" d="M1352.51,-123.445C1371.43,-116.844 1393.18,-105.594 1404.5,-87 1419.88,-61.7214 1385.62,-41.1502 1356.33,-28.8887"/>
<polygon fill="midnightblue" stroke="midnightblue" points="1357.25,-25.4886 1346.66,-25.0541 1354.67,-31.9953 1357.25,-25.4886"/>
</g>
<!-- Node15&#45;&gt;Node17 -->
<g id="edge18" class="edge"><title>Node15&#45;&gt;Node17</title>
<path fill="none" stroke="midnightblue" d="M1318,-123.083C1318.39,-116.006 1318.95,-105.861 1319.45,-96.9865"/>
<polygon fill="midnightblue" stroke="midnightblue" points="1322.95,-96.9299 1320.01,-86.7511 1315.96,-96.5415 1322.95,-96.9299"/>
</g>
<!-- Node20 -->
<g id="node20" class="node"><title>Node20</title>
<g id="a_node20"><a xlink:href="Quality_8h.html" target="_top" xlink:title="QualityControl/Quality.h">
<polygon fill="none" stroke="black" points="1067,-67.5 1067,-86.5 1188,-86.5 1188,-67.5 1067,-67.5"/>
<text text-anchor="middle" x="1127.5" y="-74.5" font-family="Helvetica,sans-Serif" font-size="10.00">QualityControl/Quality.h</text>
</a>
</g>
</g>
<!-- Node15&#45;&gt;Node20 -->
<g id="edge24" class="edge"><title>Node15&#45;&gt;Node20</title>
<path fill="none" stroke="midnightblue" d="M1287.39,-123.444C1254.87,-114.201 1202.92,-99.4356 1167.11,-89.2572"/>
<polygon fill="midnightblue" stroke="midnightblue" points="1168.04,-85.8837 1157.47,-86.5164 1166.13,-92.617 1168.04,-85.8837"/>
</g>
<!-- Node17&#45;&gt;Node6 -->
<g id="edge19" class="edge"><title>Node17&#45;&gt;Node6</title>
<path fill="none" stroke="midnightblue" d="M1244.88,-68.3762C1240.02,-67.9047 1235.19,-67.4424 1230.5,-67 1050.15,-49.9871 999.122,-79.2024 824.5,-31 822.775,-30.5238 821.029,-29.9509 819.291,-29.3117"/>
<polygon fill="midnightblue" stroke="midnightblue" points="820.22,-25.8998 809.653,-25.1362 817.438,-32.323 820.22,-25.8998"/>
</g>
<!-- Node17&#45;&gt;Node7 -->
<g id="edge20" class="edge"><title>Node17&#45;&gt;Node7</title>
<path fill="none" stroke="midnightblue" d="M1340.85,-67.4751C1365.71,-57.0579 1407.86,-39.3959 1435.44,-27.84"/>
<polygon fill="midnightblue" stroke="midnightblue" points="1437.01,-30.9763 1444.88,-23.8836 1434.3,-24.5202 1437.01,-30.9763"/>
</g>
<!-- Node17&#45;&gt;Node16 -->
<g id="edge21" class="edge"><title>Node17&#45;&gt;Node16</title>
<path fill="none" stroke="midnightblue" d="M1320.5,-67.4751C1320.5,-59.0803 1320.5,-45.9806 1320.5,-35.1631"/>
<polygon fill="midnightblue" stroke="midnightblue" points="1324,-35.0091 1320.5,-25.0091 1317,-35.0091 1324,-35.0091"/>
</g>
<!-- Node18 -->
<g id="node18" class="node"><title>Node18</title>
<polygon fill="none" stroke="#bfbfbf" points="1093,-6 1093,-25 1152,-25 1152,-6 1093,-6"/>
<text text-anchor="middle" x="1122.5" y="-13" font-family="Helvetica,sans-Serif" font-size="10.00">TObject.h</text>
</g>
<!-- Node17&#45;&gt;Node18 -->
<g id="edge22" class="edge"><title>Node17&#45;&gt;Node18</title>
<path fill="none" stroke="midnightblue" d="M1292.13,-67.4751C1257.58,-57.092 1199.08,-39.5116 1160.62,-27.9538"/>
<polygon fill="midnightblue" stroke="midnightblue" points="1161.4,-24.5351 1150.82,-25.0091 1159.39,-31.239 1161.4,-24.5351"/>
</g>
<!-- Node19 -->
<g id="node19" class="node"><title>Node19</title>
<polygon fill="none" stroke="#bfbfbf" points="833.5,-6 833.5,-25 949.5,-25 949.5,-6 833.5,-6"/>
<text text-anchor="middle" x="891.5" y="-13" font-family="Helvetica,sans-Serif" font-size="10.00">Common/Exceptions.h</text>
</g>
<!-- Node17&#45;&gt;Node19 -->
<g id="edge23" class="edge"><title>Node17&#45;&gt;Node19</title>
<path fill="none" stroke="midnightblue" d="M1259.03,-67.4751C1179.75,-56.4782 1042.25,-37.4079 959.78,-25.97"/>
<polygon fill="midnightblue" stroke="midnightblue" points="960.142,-22.4869 949.756,-24.5798 959.18,-29.4205 960.142,-22.4869"/>
</g>
<!-- Node20&#45;&gt;Node6 -->
<g id="edge26" class="edge"><title>Node20&#45;&gt;Node6</title>
<path fill="none" stroke="midnightblue" d="M1066.81,-72.3994C1004.77,-67.472 906.2,-56.1682 824.5,-31 822.828,-30.4848 821.132,-29.8889 819.441,-29.2386"/>
<polygon fill="midnightblue" stroke="midnightblue" points="820.58,-25.9164 810.017,-25.1015 817.766,-32.326 820.58,-25.9164"/>
</g>
<!-- Node20&#45;&gt;Node16 -->
<g id="edge25" class="edge"><title>Node20&#45;&gt;Node16</title>
<path fill="none" stroke="midnightblue" d="M1155.15,-67.4751C1188.69,-57.1362 1245.37,-39.6611 1282.87,-28.1017"/>
<polygon fill="midnightblue" stroke="midnightblue" points="1284.37,-31.2999 1292.9,-25.0091 1282.31,-24.6106 1284.37,-31.2999"/>
</g>
<!-- Node21&#45;&gt;Node5 -->
<g id="edge29" class="edge"><title>Node21&#45;&gt;Node5</title>
<path fill="none" stroke="midnightblue" d="M1181.35,-184.975C1177.12,-176.315 1170.46,-162.649 1165.1,-151.645"/>
<polygon fill="midnightblue" stroke="midnightblue" points="1168.17,-149.965 1160.65,-142.509 1161.88,-153.032 1168.17,-149.965"/>
</g>
<!-- Node21&#45;&gt;Node6 -->
<g id="edge28" class="edge"><title>Node21&#45;&gt;Node6</title>
<path fill="none" stroke="midnightblue" d="M1119.52,-184.992C1013.87,-171.3 818.214,-145.636 815.5,-143 786.45,-114.776 788.084,-62.7781 791.461,-35.0521"/>
<polygon fill="midnightblue" stroke="midnightblue" points="794.934,-35.494 792.881,-25.0999 788.004,-34.5055 794.934,-35.494"/>
</g>
<!-- Node21&#45;&gt;Node8 -->
<g id="edge30" class="edge"><title>Node21&#45;&gt;Node8</title>
<path fill="none" stroke="midnightblue" d="M1129.26,-184.988C1115.3,-182.951 1100.36,-180.836 1086.5,-179 951.622,-161.14 916.322,-167.549 782.5,-143 781.252,-142.771 779.984,-142.524 778.705,-142.263"/>
<polygon fill="midnightblue" stroke="midnightblue" points="779.396,-138.832 768.872,-140.061 777.865,-145.662 779.396,-138.832"/>
</g>
<!-- Node21&#45;&gt;Node17 -->
<g id="edge38" class="edge"><title>Node21&#45;&gt;Node17</title>
<path fill="none" stroke="midnightblue" d="M1167.43,-184.911C1142.55,-171.938 1102.82,-146.374 1121.5,-123 1135.98,-104.884 1187.7,-93.5278 1234.79,-86.7553"/>
<polygon fill="midnightblue" stroke="midnightblue" points="1235.32,-90.2147 1244.75,-85.3789 1234.37,-83.2806 1235.32,-90.2147"/>
</g>
<!-- Node22 -->
<g id="node22" class="node"><title>Node22</title>
<polygon fill="none" stroke="#bfbfbf" points="825,-123.5 825,-142.5 908,-142.5 908,-123.5 825,-123.5"/>
<text text-anchor="middle" x="866.5" y="-130.5" font-family="Helvetica,sans-Serif" font-size="10.00">unordered_map</text>
</g>
<!-- Node21&#45;&gt;Node22 -->
<g id="edge31" class="edge"><title>Node21&#45;&gt;Node22</title>
<path fill="none" stroke="midnightblue" d="M1139.8,-184.975C1081.05,-174.017 979.317,-155.043 917.924,-143.592"/>
<polygon fill="midnightblue" stroke="midnightblue" points="918.533,-140.145 908.06,-141.752 917.249,-147.026 918.533,-140.145"/>
</g>
<!-- Node23 -->
<g id="node23" class="node"><title>Node23</title>
<g id="a_node23"><a xlink:href="QualityObject_8h_source.html" target="_top" xlink:title="QualityControl/QualityObject.h">
<polygon fill="none" stroke="black" points="926,-123.5 926,-142.5 1075,-142.5 1075,-123.5 926,-123.5"/>
<text text-anchor="middle" x="1000.5" y="-130.5" font-family="Helvetica,sans-Serif" font-size="10.00">QualityControl/QualityObject.h</text>
</a>
</g>
</g>
<!-- Node21&#45;&gt;Node23 -->
<g id="edge32" class="edge"><title>Node21&#45;&gt;Node23</title>
<path fill="none" stroke="midnightblue" d="M1158.99,-184.975C1126.85,-174.636 1072.51,-157.161 1036.57,-145.602"/>
<polygon fill="midnightblue" stroke="midnightblue" points="1037.55,-142.239 1026.96,-142.509 1035.4,-148.903 1037.55,-142.239"/>
</g>
<!-- Node23&#45;&gt;Node7 -->
<g id="edge34" class="edge"><title>Node23&#45;&gt;Node7</title>
<path fill="none" stroke="midnightblue" d="M1005.15,-123.463C1013.5,-109.046 1032.54,-80.1589 1057.5,-67 1176.29,-4.37468 1224.31,-48.1859 1357.5,-31 1383.73,-27.6154 1413.6,-23.461 1434.76,-20.4679"/>
<polygon fill="midnightblue" stroke="midnightblue" points="1435.27,-23.9308 1444.68,-19.0597 1434.28,-17.0003 1435.27,-23.9308"/>
</g>
<!-- Node23&#45;&gt;Node18 -->
<g id="edge35" class="edge"><title>Node23&#45;&gt;Node18</title>
<path fill="none" stroke="midnightblue" d="M1001.65,-123.401C1003.85,-109.904 1009.83,-83.577 1024.5,-67 1040.3,-49.1377 1063.94,-36.6995 1084.04,-28.6372"/>
<polygon fill="midnightblue" stroke="midnightblue" points="1085.46,-31.8414 1093.58,-25.0262 1082.99,-25.2952 1085.46,-31.8414"/>
</g>
<!-- Node23&#45;&gt;Node19 -->
<g id="edge36" class="edge"><title>Node23&#45;&gt;Node19</title>
<path fill="none" stroke="midnightblue" d="M967.882,-123.433C948.239,-116.65 924.253,-105.216 909.5,-87 897.716,-72.4503 893.543,-51.1157 892.119,-35.7302"/>
<polygon fill="midnightblue" stroke="midnightblue" points="895.587,-35.1036 891.484,-25.3353 888.6,-35.53 895.587,-35.1036"/>
</g>
<!-- Node23&#45;&gt;Node20 -->
<g id="edge37" class="edge"><title>Node23&#45;&gt;Node20</title>
<path fill="none" stroke="midnightblue" d="M1020.62,-123.444C1041.52,-114.557 1074.43,-100.563 1098.22,-90.4514"/>
<polygon fill="midnightblue" stroke="midnightblue" points="1099.64,-93.6504 1107.47,-86.5164 1096.9,-87.2085 1099.64,-93.6504"/>
</g>
<!-- Node24 -->
<g id="node24" class="node"><title>Node24</title>
<polygon fill="none" stroke="#bfbfbf" points="918.5,-67.5 918.5,-86.5 972.5,-86.5 972.5,-67.5 918.5,-67.5"/>
<text text-anchor="middle" x="945.5" y="-74.5" font-family="Helvetica,sans-Serif" font-size="10.00">iostream</text>
</g>
<!-- Node23&#45;&gt;Node24 -->
<g id="edge33" class="edge"><title>Node23&#45;&gt;Node24</title>
<path fill="none" stroke="midnightblue" d="M991.418,-123.083C983.329,-115.141 971.305,-103.335 961.59,-93.7973"/>
<polygon fill="midnightblue" stroke="midnightblue" points="964.001,-91.2595 954.413,-86.7511 959.097,-96.2545 964.001,-91.2595"/>
</g>
<!-- Node26 -->
<g id="node26" class="node"><title>Node26</title>
<polygon fill="none" stroke="#bfbfbf" points="1796.5,-67.5 1796.5,-86.5 1926.5,-86.5 1926.5,-67.5 1796.5,-67.5"/>
<text text-anchor="middle" x="1861.5" y="-74.5" font-family="Helvetica,sans-Serif" font-size="10.00">InfoLogger/InfoLogger.hxx</text>
</g>
<!-- Node25&#45;&gt;Node26 -->
<g id="edge41" class="edge"><title>Node25&#45;&gt;Node26</title>
<path fill="none" stroke="midnightblue" d="M1861.5,-123.083C1861.5,-116.006 1861.5,-105.861 1861.5,-96.9865"/>
<polygon fill="midnightblue" stroke="midnightblue" points="1865,-96.751 1861.5,-86.7511 1858,-96.7511 1865,-96.751"/>
</g>
<!-- Node27&#45;&gt;Node5 -->
<g id="edge46" class="edge"><title>Node27&#45;&gt;Node5</title>
<path fill="none" stroke="midnightblue" d="M1385.76,-184.961C1340.39,-174.951 1262.98,-157.84 1196.5,-143 1195.25,-142.721 1193.98,-142.436 1192.69,-142.149"/>
<polygon fill="midnightblue" stroke="midnightblue" points="1193.27,-138.692 1182.75,-139.919 1191.74,-145.522 1193.27,-138.692"/>
</g>
<!-- Node27&#45;&gt;Node7 -->
<g id="edge44" class="edge"><title>Node27&#45;&gt;Node7</title>
<path fill="none" stroke="midnightblue" d="M1447.16,-184.988C1464.7,-177.052 1487.75,-163.354 1498.5,-143 1517.7,-106.657 1492.1,-58.8801 1475.21,-33.7167"/>
<polygon fill="midnightblue" stroke="midnightblue" points="1477.88,-31.4298 1469.27,-25.2508 1472.15,-35.4482 1477.88,-31.4298"/>
</g>
<!-- Node27&#45;&gt;Node8 -->
<g id="edge45" class="edge"><title>Node27&#45;&gt;Node8</title>
<path fill="none" stroke="midnightblue" d="M1364.92,-187.24C1338.73,-184.567 1307.6,-181.495 1279.5,-179 1073.47,-160.708 1021.23,-164.384 815.5,-143 803.448,-141.747 790.249,-140.095 778.651,-138.548"/>
<polygon fill="midnightblue" stroke="midnightblue" points="778.909,-135.051 768.529,-137.172 777.966,-141.987 778.909,-135.051"/>
</g>
<!-- Node27&#45;&gt;Node14 -->
<g id="edge47" class="edge"><title>Node27&#45;&gt;Node14</title>
<path fill="none" stroke="midnightblue" d="M1456.74,-184.975C1496.42,-174.482 1563.9,-156.637 1607.57,-145.087"/>
<polygon fill="midnightblue" stroke="midnightblue" points="1608.55,-148.449 1617.32,-142.509 1606.76,-141.682 1608.55,-148.449"/>
</g>
<!-- Node27&#45;&gt;Node15 -->
<g id="edge51" class="edge"><title>Node27&#45;&gt;Node15</title>
<path fill="none" stroke="midnightblue" d="M1409.17,-184.975C1391.53,-175.166 1362.34,-158.935 1341.64,-147.425"/>
<polygon fill="midnightblue" stroke="midnightblue" points="1343.24,-144.31 1332.8,-142.509 1339.84,-150.428 1343.24,-144.31"/>
</g>
<!-- Node27&#45;&gt;Node17 -->
<g id="edge50" class="edge"><title>Node27&#45;&gt;Node17</title>
<path fill="none" stroke="midnightblue" d="M1440.38,-184.954C1462.7,-171.826 1498.82,-145.82 1481.5,-123 1469.78,-107.56 1426.47,-95.9819 1387.71,-88.4387"/>
<polygon fill="midnightblue" stroke="midnightblue" points="1387.93,-84.9189 1377.46,-86.5133 1386.64,-91.7987 1387.93,-84.9189"/>
</g>
<!-- Node27&#45;&gt;Node20 -->
<g id="edge48" class="edge"><title>Node27&#45;&gt;Node20</title>
<path fill="none" stroke="midnightblue" d="M1374.19,-184.985C1333.94,-177.116 1276.64,-163.51 1229.5,-143 1213.04,-135.837 1173.06,-109.242 1148.32,-92.3701"/>
<polygon fill="midnightblue" stroke="midnightblue" points="1150.2,-89.4132 1139.97,-86.6483 1146.24,-95.1878 1150.2,-89.4132"/>
</g>
<!-- Node27&#45;&gt;Node23 -->
<g id="edge49" class="edge"><title>Node27&#45;&gt;Node23</title>
<path fill="none" stroke="midnightblue" d="M1364.65,-185.101C1287.41,-174.262 1153.2,-155.429 1071.07,-143.903"/>
<polygon fill="midnightblue" stroke="midnightblue" points="1071.46,-140.424 1061.07,-142.5 1070.49,-147.356 1071.46,-140.424"/>
</g>
<!-- Node27&#45;&gt;Node25 -->
<g id="edge52" class="edge"><title>Node27&#45;&gt;Node25</title>
<path fill="none" stroke="midnightblue" d="M1484.35,-185.352C1563.64,-174.555 1703.41,-155.525 1788.72,-143.909"/>
<polygon fill="midnightblue" stroke="midnightblue" points="1789.41,-147.348 1798.85,-142.531 1788.47,-140.412 1789.41,-147.348"/>
</g>
<!-- Node28 -->
<g id="node28" class="node"><title>Node28</title>
<polygon fill="none" stroke="#bfbfbf" points="1414,-123.5 1414,-142.5 1473,-142.5 1473,-123.5 1414,-123.5"/>
<text text-anchor="middle" x="1443.5" y="-130.5" font-family="Helvetica,sans-Serif" font-size="10.00">functional</text>
</g>
<!-- Node27&#45;&gt;Node28 -->
<g id="edge43" class="edge"><title>Node27&#45;&gt;Node28</title>
<path fill="none" stroke="midnightblue" d="M1427.22,-184.975C1429.93,-176.492 1434.17,-163.204 1437.65,-152.322"/>
<polygon fill="midnightblue" stroke="midnightblue" points="1441.07,-153.1 1440.78,-142.509 1434.41,-150.97 1441.07,-153.1"/>
</g>
<!-- Node29&#45;&gt;Node6 -->
<g id="edge55" class="edge"><title>Node29&#45;&gt;Node6</title>
<path fill="none" stroke="midnightblue" d="M274.631,-179.386C290.727,-170.552 310.281,-158.007 324.5,-143 351.193,-114.828 335.183,-88.4893 367.5,-67 432.55,-23.7445 676.651,-17.4625 763.548,-16.6101"/>
<polygon fill="midnightblue" stroke="midnightblue" points="763.837,-20.108 773.808,-16.528 763.781,-13.1082 763.837,-20.108"/>
</g>
<!-- Node29&#45;&gt;Node8 -->
<g id="edge54" class="edge"><title>Node29&#45;&gt;Node8</title>
<path fill="none" stroke="midnightblue" d="M315.712,-184.722C331.125,-182.816 347.361,-180.825 362.5,-179 492.855,-163.285 648.201,-145.312 714.238,-137.707"/>
<polygon fill="midnightblue" stroke="midnightblue" points="714.882,-141.156 724.416,-136.536 714.082,-134.202 714.882,-141.156"/>
</g>
<!-- Node30 -->
<g id="node30" class="node"><title>Node30</title>
<polygon fill="none" stroke="#bfbfbf" points="175.5,-123.5 175.5,-142.5 315.5,-142.5 315.5,-123.5 175.5,-123.5"/>
<text text-anchor="middle" x="245.5" y="-130.5" font-family="Helvetica,sans-Serif" font-size="10.00">Framework/WorkflowSpec.h</text>
</g>
<!-- Node29&#45;&gt;Node30 -->
<g id="edge56" class="edge"><title>Node29&#45;&gt;Node30</title>
<path fill="none" stroke="midnightblue" d="M245.5,-179.399C245.5,-171.466 245.5,-161.458 245.5,-152.858"/>
<polygon fill="midnightblue" stroke="midnightblue" points="249,-152.658 245.5,-142.658 242,-152.658 249,-152.658"/>
</g>
<!-- Node31&#45;&gt;Node6 -->
<g id="edge58" class="edge"><title>Node31&#45;&gt;Node6</title>
<path fill="none" stroke="midnightblue" d="M315.073,-68.5546C435.015,-55.5317 678.277,-29.1191 763.871,-19.8256"/>
<polygon fill="midnightblue" stroke="midnightblue" points="764.402,-23.2886 773.966,-18.7295 763.646,-16.3295 764.402,-23.2886"/>
</g>
<!-- Node31&#45;&gt;Node19 -->
<g id="edge60" class="edge"><title>Node31&#45;&gt;Node19</title>
<path fill="none" stroke="midnightblue" d="M315.217,-73.5812C423.687,-69.1031 641.031,-57.4514 823.5,-31 830.727,-29.9523 838.337,-28.59 845.743,-27.1202"/>
<polygon fill="midnightblue" stroke="midnightblue" points="846.579,-30.5215 855.663,-25.0689 845.162,-23.6665 846.579,-30.5215"/>
</g>
<!-- Node32 -->
<g id="node32" class="node"><title>Node32</title>
<polygon fill="none" stroke="#bfbfbf" points="179,-0.5 179,-30.5 314,-30.5 314,-0.5 179,-0.5"/>
<text text-anchor="start" x="187" y="-18.5" font-family="Helvetica,sans-Serif" font-size="10.00">Configuration/Configuration</text>
<text text-anchor="middle" x="246.5" y="-7.5" font-family="Helvetica,sans-Serif" font-size="10.00">Factory.h</text>
</g>
<!-- Node31&#45;&gt;Node32 -->
<g id="edge59" class="edge"><title>Node31&#45;&gt;Node32</title>
<path fill="none" stroke="midnightblue" d="M246.5,-67.4751C246.5,-60.471 246.5,-50.1919 246.5,-40.6956"/>
<polygon fill="midnightblue" stroke="midnightblue" points="250,-40.5229 246.5,-30.523 243,-40.523 250,-40.5229"/>
</g>
</g>
</svg>
        <g id="navigator" transform="translate(0 0)" fill="#404254">
                <rect fill="#f2f5e9" fill-opacity="0.5" stroke="#606060" stroke-width=".5" x="0" y="0" width="60" height="60"/>
                <use id="zoomplus" xlink:href="#zoomPlus" x="17" y="9" onmousedown="handleZoom(evt,'in')"/>
                <use id="zoomminus" xlink:href="#zoomMin" x="42" y="9" onmousedown="handleZoom(evt,'out')"/>
                <use id="reset" xlink:href="#resetDef" x="30" y="36" onmousedown="handleReset()"/>
                <g id="arrowUp" xlink:href="#dirArrow" transform="translate(30 24)" onmousedown="handlePan(0,-1)">
                  <use xlink:href="#rim" fill="#404040">
                        <set attributeName="fill" to="#808080" begin="arrowUp.mouseover" end="arrowUp.mouseout"/>
                  </use>
                  <path fill="none" stroke="white" stroke-width="1.5" d="M0,-3.0v7 M-2.5,-0.5L0,-3.0L2.5,-0.5"/>
                </g>
                <g id="arrowRight" xlink:href="#dirArrow" transform="rotate(90) translate(36 -43)" onmousedown="handlePan(1,0)">
                  <use xlink:href="#rim" fill="#404040">
                        <set attributeName="fill" to="#808080" begin="arrowRight.mouseover" end="arrowRight.mouseout"/>
                  </use>
                  <path fill="none" stroke="white" stroke-width="1.5" d="M0,-3.0v7 M-2.5,-0.5L0,-3.0L2.5,-0.5"/>
                </g>
                <g id="arrowDown" xlink:href="#dirArrow" transform="rotate(180) translate(-30 -48)" onmousedown="handlePan(0,1)">
                  <use xlink:href="#rim" fill="#404040">
                        <set attributeName="fill" to="#808080" begin="arrowDown.mouseover" end="arrowDown.mouseout"/>
                  </use>
                  <path fill="none" stroke="white" stroke-width="1.5" d="M0,-3.0v7 M-2.5,-0.5L0,-3.0L2.5,-0.5"/>
                </g>
                <g id="arrowLeft" xlink:href="#dirArrow" transform="rotate(270) translate(-36 17)" onmousedown="handlePan(-1,0)">
                  <use xlink:href="#rim" fill="#404040">
                        <set attributeName="fill" to="#808080" begin="arrowLeft.mouseover" end="arrowLeft.mouseout"/>
                  </use>
                  <path fill="none" stroke="white" stroke-width="1.5" d="M0,-3.0v7 M-2.5,-0.5L0,-3.0L2.5,-0.5"/>
                </g>
        </g>
        <svg viewBox="0 0 15 15" width="100%" height="30px" preserveAspectRatio="xMaxYMin meet">
         <g id="arrow_out" transform="scale(0.3 0.3)">
          <a xlink:href="testWorkflow_8cxx__incl_org.svg" target="_base">
           <rect id="button" ry="5" rx="5" y="6" x="6" height="38" width="38"
                fill="#f2f5e9" fill-opacity="0.5" stroke="#606060" stroke-width="1.0"/>
           <path id="arrow"
             d="M 11.500037,31.436501 C 11.940474,20.09759 22.043105,11.32322 32.158766,21.979434 L 37.068811,17.246167 C 37.068811,17.246167 37.088388,32 37.088388,32 L 22.160133,31.978069 C 22.160133,31.978069 26.997745,27.140456 26.997745,27.140456 C 18.528582,18.264221 13.291696,25.230495 11.500037,31.436501 z"
             style="fill:#404040;"/>
          </a>
         </g>
        </svg>
</svg>
