<?xml version="1.0" encoding="UTF-8" standalone="no"?>
<!DOCTYPE svg PUBLIC "-//W3C//DTD SVG 1.1//EN"
 "http://www.w3.org/Graphics/SVG/1.1/DTD/svg11.dtd">
<!-- Generated by graphviz version 2.38.0 (20140413.2041)
 -->
<!-- Title: Framework/test/testCheckRunner.cxx Pages: 1 -->
<!--zoomable 330 -->
<svg id="main" version="1.1" xmlns="http://www.w3.org/2000/svg" xmlns:xlink="http://www.w3.org/1999/xlink" xml:space="preserve" onload="init(evt)">
<style type="text/css"><![CDATA[
.edge:hover path { stroke: red; }
.edge:hover polygon { stroke: red; fill: red; }
]]></style>
<script type="text/javascript"><![CDATA[
var edges = document.getElementsByTagName('g');
if (edges && edges.length) {
  for (var i=0;i<edges.length;i++) {
    if (edges[i].id.substr(0,4)=='edge') {
      edges[i].setAttribute('class','edge');
    }
  }
}
]]></script>
        <defs>
                <circle id="rim" cx="0" cy="0" r="7"/>
                <circle id="rim2" cx="0" cy="0" r="3.5"/>
                <g id="zoomPlus">
                        <use xlink:href="#rim" fill="#404040">
                                <set attributeName="fill" to="#808080" begin="zoomplus.mouseover" end="zoomplus.mouseout"/>
                        </use>
                        <path d="M-4,0h8M0,-4v8" fill="none" stroke="white" stroke-width="1.5" pointer-events="none"/>
                </g>
                <g id="zoomMin">
                        <use xlink:href="#rim" fill="#404040">
                                <set attributeName="fill" to="#808080" begin="zoomminus.mouseover" end="zoomminus.mouseout"/>
                        </use>
                        <path d="M-4,0h8" fill="none" stroke="white" stroke-width="1.5" pointer-events="none"/>
                </g>
                <g id="dirArrow">
                        <path fill="none" stroke="white" stroke-width="1.5" d="M0,-3.0v7 M-2.5,-0.5L0,-3.0L2.5,-0.5"/>
                </g>
               <g id="resetDef">
                       <use xlink:href="#rim2" fill="#404040">
                               <set attributeName="fill" to="#808080" begin="reset.mouseover" end="reset.mouseout"/>
                       </use>
               </g>
        </defs>

<script type="text/javascript">
var viewWidth = 1554;
var viewHeight = 330;
var sectionId = 'dynsection-0';
</script>
<script xlink:href="svgpan.js"/>
<svg id="graph" class="graph">
<g id="viewport">
<title>Framework/test/testCheckRunner.cxx</title>
<!-- Node1 -->
<g id="node1" class="node"><title>Node1</title>
<polygon fill="#bfbfbf" stroke="black" points="844,-291.5 844,-321.5 977,-321.5 977,-291.5 844,-291.5"/>
<text text-anchor="start" x="852" y="-309.5" font-family="Helvetica,sans-Serif" font-size="10.00">Framework/test/testCheck</text>
<text text-anchor="middle" x="910.5" y="-298.5" font-family="Helvetica,sans-Serif" font-size="10.00">Runner.cxx</text>
</g>
<!-- Node2 -->
<g id="node2" class="node"><title>Node2</title>
<g id="a_node2"><a xlink:href="CheckRunnerFactory_8h.html" target="_top" xlink:title="QualityControl/CheckRunner\lFactory.h">
<polygon fill="none" stroke="black" points="148.5,-224.5 148.5,-254.5 290.5,-254.5 290.5,-224.5 148.5,-224.5"/>
<text text-anchor="start" x="156.5" y="-242.5" font-family="Helvetica,sans-Serif" font-size="10.00">QualityControl/CheckRunner</text>
<text text-anchor="middle" x="219.5" y="-231.5" font-family="Helvetica,sans-Serif" font-size="10.00">Factory.h</text>
</a>
</g>
</g>
<!-- Node1&#45;&gt;Node2 -->
<g id="edge1" class="edge"><title>Node1&#45;&gt;Node2</title>
<path fill="none" stroke="midnightblue" d="M843.93,-299.238C716.554,-287.256 438.756,-261.125 300.712,-248.139"/>
<polygon fill="midnightblue" stroke="midnightblue" points="300.9,-244.642 290.616,-247.19 300.244,-251.611 300.9,-244.642"/>
</g>
<!-- Node21 -->
<g id="node21" class="node"><title>Node21</title>
<g id="a_node21"><a xlink:href="CheckRunner_8h.html" target="_top" xlink:title="QualityControl/CheckRunner.h">
<polygon fill="none" stroke="black" points="673.5,-230 673.5,-249 823.5,-249 823.5,-230 673.5,-230"/>
<text text-anchor="middle" x="748.5" y="-237" font-family="Helvetica,sans-Serif" font-size="10.00">QualityControl/CheckRunner.h</text>
</a>
</g>
</g>
<!-- Node1&#45;&gt;Node21 -->
<g id="edge34" class="edge"><title>Node1&#45;&gt;Node21</title>
<path fill="none" stroke="midnightblue" d="M875.348,-291.396C846.672,-279.89 806.564,-263.797 779.173,-252.807"/>
<polygon fill="midnightblue" stroke="midnightblue" points="780.286,-249.483 769.702,-249.007 777.68,-255.979 780.286,-249.483"/>
</g>
<!-- Node30 -->
<g id="node30" class="node"><title>Node30</title>
<polygon fill="none" stroke="#bfbfbf" points="841.5,-230 841.5,-249 979.5,-249 979.5,-230 841.5,-230"/>
<text text-anchor="middle" x="910.5" y="-237" font-family="Helvetica,sans-Serif" font-size="10.00">Framework/DataSampling.h</text>
</g>
<!-- Node1&#45;&gt;Node30 -->
<g id="edge57" class="edge"><title>Node1&#45;&gt;Node30</title>
<path fill="none" stroke="midnightblue" d="M910.5,-291.396C910.5,-282.064 910.5,-269.714 910.5,-259.517"/>
<polygon fill="midnightblue" stroke="midnightblue" points="914,-259.195 910.5,-249.195 907,-259.195 914,-259.195"/>
</g>
<!-- Node31 -->
<g id="node31" class="node"><title>Node31</title>
<polygon fill="none" stroke="#bfbfbf" points="998,-230 998,-249 1117,-249 1117,-230 998,-230"/>
<text text-anchor="middle" x="1057.5" y="-237" font-family="Helvetica,sans-Serif" font-size="10.00">getTestDataDirectory.h</text>
</g>
<!-- Node1&#45;&gt;Node31 -->
<g id="edge58" class="edge"><title>Node1&#45;&gt;Node31</title>
<path fill="none" stroke="midnightblue" d="M942.397,-291.396C968.19,-279.991 1004.17,-264.079 1029.01,-253.098"/>
<polygon fill="midnightblue" stroke="midnightblue" points="1030.53,-256.252 1038.26,-249.007 1027.7,-249.85 1030.53,-256.252"/>
</g>
<!-- Node32 -->
<g id="node32" class="node"><title>Node32</title>
<polygon fill="none" stroke="#bfbfbf" points="1135,-230 1135,-249 1254,-249 1254,-230 1135,-230"/>
<text text-anchor="middle" x="1194.5" y="-237" font-family="Helvetica,sans-Serif" font-size="10.00">boost/test/unit_test.hpp</text>
</g>
<!-- Node1&#45;&gt;Node32 -->
<g id="edge59" class="edge"><title>Node1&#45;&gt;Node32</title>
<path fill="none" stroke="midnightblue" d="M971.774,-291.476C1024.45,-279.421 1099.31,-262.286 1147.4,-251.28"/>
<polygon fill="midnightblue" stroke="midnightblue" points="1148.27,-254.672 1157.24,-249.029 1146.71,-247.848 1148.27,-254.672"/>
</g>
<!-- Node3 -->
<g id="node3" class="node"><title>Node3</title>
<polygon fill="none" stroke="#bfbfbf" points="777,-0.5 777,-19.5 818,-19.5 818,-0.5 777,-0.5"/>
<text text-anchor="middle" x="797.5" y="-7.5" font-family="Helvetica,sans-Serif" font-size="10.00">string</text>
</g>
<!-- Node2&#45;&gt;Node3 -->
<g id="edge2" class="edge"><title>Node2&#45;&gt;Node3</title>
<path fill="none" stroke="midnightblue" d="M211.314,-224.342C197.912,-199.087 175.183,-145.756 200.5,-112 253.833,-40.8889 305.334,-73.4177 392.5,-56 428.961,-48.7142 678.668,-23.047 766.789,-14.1021"/>
<polygon fill="midnightblue" stroke="midnightblue" points="767.349,-17.5634 776.945,-13.0727 766.643,-10.5991 767.349,-17.5634"/>
</g>
<!-- Node4 -->
<g id="node4" class="node"><title>Node4</title>
<polygon fill="none" stroke="#bfbfbf" points="209.5,-112.5 209.5,-131.5 373.5,-131.5 373.5,-112.5 209.5,-112.5"/>
<text text-anchor="middle" x="291.5" y="-119.5" font-family="Helvetica,sans-Serif" font-size="10.00">Framework/DataProcessorSpec.h</text>
</g>
<!-- Node2&#45;&gt;Node4 -->
<g id="edge3" class="edge"><title>Node2&#45;&gt;Node4</title>
<path fill="none" stroke="midnightblue" d="M228.329,-224.337C241.537,-203.149 266.413,-163.244 280.69,-140.34"/>
<polygon fill="midnightblue" stroke="midnightblue" points="283.776,-142.007 286.096,-131.669 277.835,-138.304 283.776,-142.007"/>
</g>
<!-- Node5 -->
<g id="node5" class="node"><title>Node5</title>
<polygon fill="none" stroke="#bfbfbf" points="0,-168.5 0,-187.5 153,-187.5 153,-168.5 0,-168.5"/>
<text text-anchor="middle" x="76.5" y="-175.5" font-family="Helvetica,sans-Serif" font-size="10.00">Framework/CompletionPolicy.h</text>
</g>
<!-- Node2&#45;&gt;Node5 -->
<g id="edge4" class="edge"><title>Node2&#45;&gt;Node5</title>
<path fill="none" stroke="midnightblue" d="M185.611,-224.399C161.618,-214.416 129.726,-201.147 106.623,-191.534"/>
<polygon fill="midnightblue" stroke="midnightblue" points="107.885,-188.268 97.3078,-187.658 105.196,-194.731 107.885,-188.268"/>
</g>
<!-- Node6 -->
<g id="node6" class="node"><title>Node6</title>
<g id="a_node6"><a xlink:href="Check_8h_source.html" target="_top" xlink:title="QualityControl/Check.h">
<polygon fill="none" stroke="black" points="405,-168.5 405,-187.5 524,-187.5 524,-168.5 405,-168.5"/>
<text text-anchor="middle" x="464.5" y="-175.5" font-family="Helvetica,sans-Serif" font-size="10.00">QualityControl/Check.h</text>
</a>
</g>
</g>
<!-- Node2&#45;&gt;Node6 -->
<g id="edge5" class="edge"><title>Node2&#45;&gt;Node6</title>
<path fill="none" stroke="midnightblue" d="M277.251,-224.475C320.811,-213.896 379.699,-199.595 419.725,-189.874"/>
<polygon fill="midnightblue" stroke="midnightblue" points="420.582,-193.268 429.474,-187.506 418.93,-186.465 420.582,-193.268"/>
</g>
<!-- Node6&#45;&gt;Node4 -->
<g id="edge10" class="edge"><title>Node6&#45;&gt;Node4</title>
<path fill="none" stroke="midnightblue" d="M437.088,-168.444C407.731,-159.28 360.981,-144.688 328.404,-134.519"/>
<polygon fill="midnightblue" stroke="midnightblue" points="329.373,-131.155 318.784,-131.516 327.287,-137.837 329.373,-131.155"/>
</g>
<!-- Node7 -->
<g id="node7" class="node"><title>Node7</title>
<polygon fill="none" stroke="#bfbfbf" points="635,-112.5 635,-131.5 694,-131.5 694,-112.5 635,-112.5"/>
<text text-anchor="middle" x="664.5" y="-119.5" font-family="Helvetica,sans-Serif" font-size="10.00">functional</text>
</g>
<!-- Node6&#45;&gt;Node7 -->
<g id="edge6" class="edge"><title>Node6&#45;&gt;Node7</title>
<path fill="none" stroke="midnightblue" d="M496.191,-168.444C531.026,-159.038 587.046,-143.913 624.786,-133.723"/>
<polygon fill="midnightblue" stroke="midnightblue" points="626.172,-136.974 634.914,-130.988 624.347,-130.216 626.172,-136.974"/>
</g>
<!-- Node8 -->
<g id="node8" class="node"><title>Node8</title>
<polygon fill="none" stroke="#bfbfbf" points="660,-0.5 660,-19.5 695,-19.5 695,-0.5 660,-0.5"/>
<text text-anchor="middle" x="677.5" y="-7.5" font-family="Helvetica,sans-Serif" font-size="10.00">map</text>
</g>
<!-- Node6&#45;&gt;Node8 -->
<g id="edge7" class="edge"><title>Node6&#45;&gt;Node8</title>
<path fill="none" stroke="midnightblue" d="M484.277,-168.398C502.088,-160.225 528.603,-146.985 549.5,-132 594.824,-99.4993 640.535,-51.8929 663.077,-27.2005"/>
<polygon fill="midnightblue" stroke="midnightblue" points="665.693,-29.5264 669.8,-19.7599 660.499,-24.8336 665.693,-29.5264"/>
</g>
<!-- Node9 -->
<g id="node9" class="node"><title>Node9</title>
<polygon fill="none" stroke="#bfbfbf" points="1130.5,-112.5 1130.5,-131.5 1174.5,-131.5 1174.5,-112.5 1130.5,-112.5"/>
<text text-anchor="middle" x="1152.5" y="-119.5" font-family="Helvetica,sans-Serif" font-size="10.00">vector</text>
</g>
<!-- Node6&#45;&gt;Node9 -->
<g id="edge8" class="edge"><title>Node6&#45;&gt;Node9</title>
<path fill="none" stroke="midnightblue" d="M524.311,-168.946C527.416,-168.607 530.494,-168.289 533.5,-168 791.917,-143.197 859.941,-171.648 1116.5,-132 1117.75,-131.806 1119.03,-131.589 1120.31,-131.353"/>
<polygon fill="midnightblue" stroke="midnightblue" points="1121.11,-134.762 1130.16,-129.259 1119.65,-127.915 1121.11,-134.762"/>
</g>
<!-- Node10 -->
<g id="node10" class="node"><title>Node10</title>
<polygon fill="none" stroke="#bfbfbf" points="1192.5,-112.5 1192.5,-131.5 1244.5,-131.5 1244.5,-112.5 1192.5,-112.5"/>
<text text-anchor="middle" x="1218.5" y="-119.5" font-family="Helvetica,sans-Serif" font-size="10.00">memory</text>
</g>
<!-- Node6&#45;&gt;Node10 -->
<g id="edge9" class="edge"><title>Node6&#45;&gt;Node10</title>
<path fill="none" stroke="midnightblue" d="M524.309,-168.922C527.415,-168.589 530.493,-168.279 533.5,-168 818.218,-141.584 895.761,-175.43 1181.97,-131.922"/>
<polygon fill="midnightblue" stroke="midnightblue" points="1182.89,-135.322 1192.24,-130.342 1181.83,-128.404 1182.89,-135.322"/>
</g>
<!-- Node11 -->
<g id="node11" class="node"><title>Node11</title>
<g id="a_node11"><a xlink:href="Quality_8h.html" target="_top" xlink:title="QualityControl/Quality.h">
<polygon fill="none" stroke="black" points="782,-56.5 782,-75.5 903,-75.5 903,-56.5 782,-56.5"/>
<text text-anchor="middle" x="842.5" y="-63.5" font-family="Helvetica,sans-Serif" font-size="10.00">QualityControl/Quality.h</text>
</a>
</g>
</g>
<!-- Node6&#45;&gt;Node11 -->
<g id="edge11" class="edge"><title>Node6&#45;&gt;Node11</title>
<path fill="none" stroke="midnightblue" d="M519.555,-168.466C578.942,-158.929 669.435,-143.339 702.5,-132 720.926,-125.681 723.93,-120.411 741.5,-112 765.307,-100.602 792.678,-88.4664 812.915,-79.6733"/>
<polygon fill="midnightblue" stroke="midnightblue" points="814.442,-82.8262 822.23,-75.6431 811.663,-76.4018 814.442,-82.8262"/>
</g>
<!-- Node13 -->
<g id="node13" class="node"><title>Node13</title>
<g id="a_node13"><a xlink:href="QualityObject_8h_source.html" target="_top" xlink:title="QualityControl/QualityObject.h">
<polygon fill="none" stroke="black" points="926,-112.5 926,-131.5 1075,-131.5 1075,-112.5 926,-112.5"/>
<text text-anchor="middle" x="1000.5" y="-119.5" font-family="Helvetica,sans-Serif" font-size="10.00">QualityControl/QualityObject.h</text>
</a>
</g>
</g>
<!-- Node6&#45;&gt;Node13 -->
<g id="edge14" class="edge"><title>Node6&#45;&gt;Node13</title>
<path fill="none" stroke="midnightblue" d="M524.323,-169.063C527.425,-168.693 530.499,-168.337 533.5,-168 700.171,-149.303 744.703,-149.108 915.744,-132.061"/>
<polygon fill="midnightblue" stroke="midnightblue" points="916.249,-135.528 925.85,-131.049 915.551,-128.563 916.249,-135.528"/>
</g>
<!-- Node17 -->
<g id="node17" class="node"><title>Node17</title>
<g id="a_node17"><a xlink:href="MonitorObject_8h.html" target="_top" xlink:title="QualityControl/MonitorObject.h">
<polygon fill="none" stroke="black" points="1070,-56.5 1070,-75.5 1221,-75.5 1221,-56.5 1070,-56.5"/>
<text text-anchor="middle" x="1145.5" y="-63.5" font-family="Helvetica,sans-Serif" font-size="10.00">QualityControl/MonitorObject.h</text>
</a>
</g>
</g>
<!-- Node6&#45;&gt;Node17 -->
<g id="edge20" class="edge"><title>Node6&#45;&gt;Node17</title>
<path fill="none" stroke="midnightblue" d="M524.312,-168.959C527.417,-168.617 530.494,-168.294 533.5,-168 655.402,-156.073 972.536,-183.859 1083.5,-132 1105.5,-121.72 1123.67,-99.9034 1134.53,-84.3842"/>
<polygon fill="midnightblue" stroke="midnightblue" points="1137.69,-85.9574 1140.32,-75.6946 1131.87,-82.0763 1137.69,-85.9574"/>
</g>
<!-- Node18 -->
<g id="node18" class="node"><title>Node18</title>
<g id="a_node18"><a xlink:href="CheckInterface_8h.html" target="_top" xlink:title="QualityControl/CheckInterface.h">
<polygon fill="none" stroke="black" points="751,-112.5 751,-131.5 908,-131.5 908,-112.5 751,-112.5"/>
<text text-anchor="middle" x="829.5" y="-119.5" font-family="Helvetica,sans-Serif" font-size="10.00">QualityControl/CheckInterface.h</text>
</a>
</g>
</g>
<!-- Node6&#45;&gt;Node18 -->
<g id="edge26" class="edge"><title>Node6&#45;&gt;Node18</title>
<path fill="none" stroke="midnightblue" d="M522.335,-168.444C587.344,-158.826 692.777,-143.228 761.631,-133.041"/>
<polygon fill="midnightblue" stroke="midnightblue" points="762.555,-136.442 771.935,-131.516 761.531,-129.518 762.555,-136.442"/>
</g>
<!-- Node19 -->
<g id="node19" class="node"><title>Node19</title>
<g id="a_node19"><a xlink:href="QcInfoLogger_8h.html" target="_top" xlink:title="QualityControl/QcInfoLogger.h">
<polygon fill="none" stroke="black" points="392,-112.5 392,-131.5 541,-131.5 541,-112.5 392,-112.5"/>
<text text-anchor="middle" x="466.5" y="-119.5" font-family="Helvetica,sans-Serif" font-size="10.00">QualityControl/QcInfoLogger.h</text>
</a>
</g>
</g>
<!-- Node6&#45;&gt;Node19 -->
<g id="edge32" class="edge"><title>Node6&#45;&gt;Node19</title>
<path fill="none" stroke="midnightblue" d="M464.83,-168.083C465.092,-161.006 465.468,-150.861 465.797,-141.986"/>
<polygon fill="midnightblue" stroke="midnightblue" points="469.303,-141.874 466.176,-131.751 462.308,-141.615 469.303,-141.874"/>
</g>
<!-- Node11&#45;&gt;Node3 -->
<g id="edge13" class="edge"><title>Node11&#45;&gt;Node3</title>
<path fill="none" stroke="midnightblue" d="M835.069,-56.083C828.647,-48.3768 819.194,-37.0333 811.378,-27.6531"/>
<polygon fill="midnightblue" stroke="midnightblue" points="813.883,-25.1927 804.793,-19.7511 808.506,-29.674 813.883,-25.1927"/>
</g>
<!-- Node12 -->
<g id="node12" class="node"><title>Node12</title>
<polygon fill="none" stroke="#bfbfbf" points="903.5,-0.5 903.5,-19.5 959.5,-19.5 959.5,-0.5 903.5,-0.5"/>
<text text-anchor="middle" x="931.5" y="-7.5" font-family="Helvetica,sans-Serif" font-size="10.00">Rtypes.h</text>
</g>
<!-- Node11&#45;&gt;Node12 -->
<g id="edge12" class="edge"><title>Node11&#45;&gt;Node12</title>
<path fill="none" stroke="midnightblue" d="M856.799,-56.324C870.683,-47.9002 891.992,-34.9709 908.304,-25.0741"/>
<polygon fill="midnightblue" stroke="midnightblue" points="910.502,-27.8341 917.236,-19.6545 906.871,-21.8495 910.502,-27.8341"/>
</g>
<!-- Node13&#45;&gt;Node8 -->
<g id="edge16" class="edge"><title>Node13&#45;&gt;Node8</title>
<path fill="none" stroke="midnightblue" d="M943.833,-112.496C886.705,-103.446 802.773,-88.7086 772.5,-76 743.047,-63.6355 713.337,-41.3705 695.174,-26.389"/>
<polygon fill="midnightblue" stroke="midnightblue" points="697.138,-23.4664 687.237,-19.6948 692.625,-28.8174 697.138,-23.4664"/>
</g>
<!-- Node13&#45;&gt;Node11 -->
<g id="edge19" class="edge"><title>Node13&#45;&gt;Node11</title>
<path fill="none" stroke="midnightblue" d="M975.464,-112.444C948.884,-103.359 906.691,-88.9388 876.977,-78.7831"/>
<polygon fill="midnightblue" stroke="midnightblue" points="878.013,-75.4386 867.418,-75.5164 875.749,-82.0625 878.013,-75.4386"/>
</g>
<!-- Node14 -->
<g id="node14" class="node"><title>Node14</title>
<polygon fill="none" stroke="#bfbfbf" points="959.5,-56.5 959.5,-75.5 1013.5,-75.5 1013.5,-56.5 959.5,-56.5"/>
<text text-anchor="middle" x="986.5" y="-63.5" font-family="Helvetica,sans-Serif" font-size="10.00">iostream</text>
</g>
<!-- Node13&#45;&gt;Node14 -->
<g id="edge15" class="edge"><title>Node13&#45;&gt;Node14</title>
<path fill="none" stroke="midnightblue" d="M998.188,-112.083C996.333,-104.927 993.665,-94.6353 991.346,-85.6911"/>
<polygon fill="midnightblue" stroke="midnightblue" points="994.666,-84.5527 988.769,-75.7511 987.891,-86.3094 994.666,-84.5527"/>
</g>
<!-- Node15 -->
<g id="node15" class="node"><title>Node15</title>
<polygon fill="none" stroke="#bfbfbf" points="1125,-0.5 1125,-19.5 1184,-19.5 1184,-0.5 1125,-0.5"/>
<text text-anchor="middle" x="1154.5" y="-7.5" font-family="Helvetica,sans-Serif" font-size="10.00">TObject.h</text>
</g>
<!-- Node13&#45;&gt;Node15 -->
<g id="edge17" class="edge"><title>Node13&#45;&gt;Node15</title>
<path fill="none" stroke="midnightblue" d="M1075.28,-116.441C1134.72,-111.073 1211.01,-99.6764 1230.5,-76 1247.68,-55.1374 1215.87,-35.6155 1188.3,-23.5162"/>
<polygon fill="midnightblue" stroke="midnightblue" points="1189.38,-20.1773 1178.81,-19.556 1186.69,-26.6373 1189.38,-20.1773"/>
</g>
<!-- Node16 -->
<g id="node16" class="node"><title>Node16</title>
<polygon fill="none" stroke="#bfbfbf" points="1220.5,-0.5 1220.5,-19.5 1336.5,-19.5 1336.5,-0.5 1220.5,-0.5"/>
<text text-anchor="middle" x="1278.5" y="-7.5" font-family="Helvetica,sans-Serif" font-size="10.00">Common/Exceptions.h</text>
</g>
<!-- Node13&#45;&gt;Node16 -->
<g id="edge18" class="edge"><title>Node13&#45;&gt;Node16</title>
<path fill="none" stroke="midnightblue" d="M1075.05,-114.733C1137.31,-108.187 1220,-96.0245 1246.5,-76 1261.52,-64.65 1269.92,-44.3532 1274.3,-29.4509"/>
<polygon fill="midnightblue" stroke="midnightblue" points="1277.69,-30.3171 1276.82,-19.7582 1270.91,-28.556 1277.69,-30.3171"/>
</g>
<!-- Node17&#45;&gt;Node3 -->
<g id="edge21" class="edge"><title>Node17&#45;&gt;Node3</title>
<path fill="none" stroke="midnightblue" d="M1090.36,-56.4435C1016.38,-44.9649 887.51,-24.967 828.549,-15.8179"/>
<polygon fill="midnightblue" stroke="midnightblue" points="828.801,-12.3152 818.382,-14.2403 827.727,-19.2324 828.801,-12.3152"/>
</g>
<!-- Node17&#45;&gt;Node8 -->
<g id="edge22" class="edge"><title>Node17&#45;&gt;Node8</title>
<path fill="none" stroke="midnightblue" d="M1071.6,-56.4733C965.762,-44.261 775.97,-22.3619 705.147,-14.1901"/>
<polygon fill="midnightblue" stroke="midnightblue" points="705.544,-10.7127 695.208,-13.0433 704.741,-17.6665 705.544,-10.7127"/>
</g>
<!-- Node17&#45;&gt;Node12 -->
<g id="edge23" class="edge"><title>Node17&#45;&gt;Node12</title>
<path fill="none" stroke="midnightblue" d="M1111.59,-56.4435C1072.91,-46.6835 1009.83,-30.7643 969.513,-20.5919"/>
<polygon fill="midnightblue" stroke="midnightblue" points="970.335,-17.1899 959.783,-18.1368 968.623,-23.9772 970.335,-17.1899"/>
</g>
<!-- Node17&#45;&gt;Node15 -->
<g id="edge24" class="edge"><title>Node17&#45;&gt;Node15</title>
<path fill="none" stroke="midnightblue" d="M1146.99,-56.083C1148.18,-48.9272 1149.89,-38.6353 1151.38,-29.6911"/>
<polygon fill="midnightblue" stroke="midnightblue" points="1154.85,-30.1904 1153.04,-19.7511 1147.95,-29.0396 1154.85,-30.1904"/>
</g>
<!-- Node17&#45;&gt;Node16 -->
<g id="edge25" class="edge"><title>Node17&#45;&gt;Node16</title>
<path fill="none" stroke="midnightblue" d="M1166.57,-56.4435C1188.56,-47.5171 1223.23,-33.4387 1248.16,-23.3168"/>
<polygon fill="midnightblue" stroke="midnightblue" points="1249.58,-26.5213 1257.52,-19.5164 1246.94,-20.0355 1249.58,-26.5213"/>
</g>
<!-- Node18&#45;&gt;Node3 -->
<g id="edge27" class="edge"><title>Node18&#45;&gt;Node3</title>
<path fill="none" stroke="midnightblue" d="M811.418,-112.39C797.938,-104.872 780.528,-92.5651 772.5,-76 764.789,-60.0875 774.047,-41.1421 783.403,-27.8226"/>
<polygon fill="midnightblue" stroke="midnightblue" points="786.393,-29.6756 789.689,-19.6066 780.833,-25.4224 786.393,-29.6756"/>
</g>
<!-- Node18&#45;&gt;Node8 -->
<g id="edge28" class="edge"><title>Node18&#45;&gt;Node8</title>
<path fill="none" stroke="midnightblue" d="M773.674,-112.462C748.836,-106.111 720.888,-95.087 701.5,-76 689.054,-63.7472 683.006,-44.4855 680.102,-30.1059"/>
<polygon fill="midnightblue" stroke="midnightblue" points="683.487,-29.1326 678.384,-19.8477 676.584,-30.2884 683.487,-29.1326"/>
</g>
<!-- Node18&#45;&gt;Node11 -->
<g id="edge31" class="edge"><title>Node18&#45;&gt;Node11</title>
<path fill="none" stroke="midnightblue" d="M831.647,-112.083C833.369,-104.927 835.847,-94.6353 838,-85.6911"/>
<polygon fill="midnightblue" stroke="midnightblue" points="841.455,-86.2925 840.393,-75.7511 834.65,-84.6541 841.455,-86.2925"/>
</g>
<!-- Node18&#45;&gt;Node12 -->
<g id="edge29" class="edge"><title>Node18&#45;&gt;Node12</title>
<path fill="none" stroke="midnightblue" d="M856.293,-112.359C874.293,-105.262 897.242,-93.4989 911.5,-76 922.328,-62.7107 927.307,-43.5882 929.589,-29.5233"/>
<polygon fill="midnightblue" stroke="midnightblue" points="933.068,-29.9067 930.9,-19.536 926.128,-28.9951 933.068,-29.9067"/>
</g>
<!-- Node18&#45;&gt;Node17 -->
<g id="edge30" class="edge"><title>Node18&#45;&gt;Node17</title>
<path fill="none" stroke="midnightblue" d="M879.571,-112.444C935.506,-102.885 1026.01,-87.4195 1085.64,-77.2298"/>
<polygon fill="midnightblue" stroke="midnightblue" points="1086.4,-80.6509 1095.66,-75.5164 1085.22,-73.751 1086.4,-80.6509"/>
</g>
<!-- Node20 -->
<g id="node20" class="node"><title>Node20</title>
<polygon fill="none" stroke="#bfbfbf" points="401.5,-56.5 401.5,-75.5 531.5,-75.5 531.5,-56.5 401.5,-56.5"/>
<text text-anchor="middle" x="466.5" y="-63.5" font-family="Helvetica,sans-Serif" font-size="10.00">InfoLogger/InfoLogger.hxx</text>
</g>
<!-- Node19&#45;&gt;Node20 -->
<g id="edge33" class="edge"><title>Node19&#45;&gt;Node20</title>
<path fill="none" stroke="midnightblue" d="M466.5,-112.083C466.5,-105.006 466.5,-94.8611 466.5,-85.9865"/>
<polygon fill="midnightblue" stroke="midnightblue" points="470,-85.751 466.5,-75.7511 463,-85.7511 470,-85.751"/>
</g>
<!-- Node21&#45;&gt;Node3 -->
<g id="edge37" class="edge"><title>Node21&#45;&gt;Node3</title>
<path fill="none" stroke="midnightblue" d="M673.351,-235.667C559.38,-229.894 359.625,-213.229 395.5,-168 439.181,-112.931 483.276,-155.559 549.5,-132 635.523,-101.398 730.914,-49.2972 774.047,-24.6694"/>
<polygon fill="midnightblue" stroke="midnightblue" points="775.985,-27.5925 782.911,-19.5742 772.497,-21.5238 775.985,-27.5925"/>
</g>
<!-- Node21&#45;&gt;Node4 -->
<g id="edge45" class="edge"><title>Node21&#45;&gt;Node4</title>
<path fill="none" stroke="midnightblue" d="M673.213,-234.854C574.606,-229.063 407.871,-215.488 353.5,-188 331.832,-177.046 313.588,-155.375 302.618,-140.073"/>
<polygon fill="midnightblue" stroke="midnightblue" points="305.299,-137.795 296.761,-131.522 299.524,-141.75 305.299,-137.795"/>
</g>
<!-- Node21&#45;&gt;Node6 -->
<g id="edge56" class="edge"><title>Node21&#45;&gt;Node6</title>
<path fill="none" stroke="midnightblue" d="M707.81,-229.975C656.985,-219.327 570.029,-201.109 515.002,-189.581"/>
<polygon fill="midnightblue" stroke="midnightblue" points="515.62,-186.134 505.115,-187.509 514.185,-192.985 515.62,-186.134"/>
</g>
<!-- Node21&#45;&gt;Node8 -->
<g id="edge38" class="edge"><title>Node21&#45;&gt;Node8</title>
<path fill="none" stroke="midnightblue" d="M673.415,-236.558C535.459,-231.097 251.098,-210.37 200.5,-132 149.426,-52.8927 539.961,-20.3056 649.474,-12.7772"/>
<polygon fill="midnightblue" stroke="midnightblue" points="649.99,-16.2505 659.733,-12.0893 649.522,-9.26622 649.99,-16.2505"/>
</g>
<!-- Node21&#45;&gt;Node9 -->
<g id="edge39" class="edge"><title>Node21&#45;&gt;Node9</title>
<path fill="none" stroke="midnightblue" d="M793.734,-229.984C806.258,-227.819 819.879,-225.643 832.5,-224 877.629,-218.124 1209.77,-221.564 1240.5,-188 1262,-164.514 1217.6,-143.912 1184.39,-132.489"/>
<polygon fill="midnightblue" stroke="midnightblue" points="1185.12,-129.045 1174.53,-129.246 1182.93,-135.695 1185.12,-129.045"/>
</g>
<!-- Node21&#45;&gt;Node10 -->
<g id="edge36" class="edge"><title>Node21&#45;&gt;Node10</title>
<path fill="none" stroke="midnightblue" d="M793.73,-229.956C806.255,-227.791 819.877,-225.622 832.5,-224 879.395,-217.973 1224.51,-222.818 1256.5,-188 1270.28,-172.999 1253.2,-152.175 1237.73,-138.176"/>
<polygon fill="midnightblue" stroke="midnightblue" points="1239.83,-135.372 1229.96,-131.545 1235.29,-140.697 1239.83,-135.372"/>
</g>
<!-- Node21&#45;&gt;Node17 -->
<g id="edge54" class="edge"><title>Node21&#45;&gt;Node17</title>
<path fill="none" stroke="midnightblue" d="M791.957,-229.984C804.952,-227.712 819.263,-225.48 832.5,-224 909.236,-215.418 1473.33,-243.995 1526.5,-188 1616.24,-93.4814 1369.28,-72.522 1231.32,-68.0627"/>
<polygon fill="midnightblue" stroke="midnightblue" points="1231.28,-64.5599 1221.18,-67.7581 1231.07,-71.5568 1231.28,-64.5599"/>
</g>
<!-- Node21&#45;&gt;Node18 -->
<g id="edge46" class="edge"><title>Node21&#45;&gt;Node18</title>
<path fill="none" stroke="midnightblue" d="M794.175,-229.938C806.579,-227.798 820.029,-225.646 832.5,-224 875.863,-218.275 1195.02,-220.311 1224.5,-188 1230.49,-181.433 1230.42,-174.632 1224.5,-168 1221.96,-165.153 1034.29,-144.751 918.581,-132.416"/>
<polygon fill="midnightblue" stroke="midnightblue" points="918.622,-128.901 908.307,-131.322 917.88,-135.861 918.622,-128.901"/>
</g>
<!-- Node21&#45;&gt;Node19 -->
<g id="edge55" class="edge"><title>Node21&#45;&gt;Node19</title>
<path fill="none" stroke="midnightblue" d="M673.274,-233.925C566.77,-226.669 382.646,-210.953 362.5,-188 341.033,-163.542 382.271,-145.119 418.991,-134.243"/>
<polygon fill="midnightblue" stroke="midnightblue" points="420.005,-137.594 428.678,-131.509 418.104,-130.857 420.005,-137.594"/>
</g>
<!-- Node22 -->
<g id="node22" class="node"><title>Node22</title>
<polygon fill="none" stroke="#bfbfbf" points="542.5,-168.5 542.5,-187.5 588.5,-187.5 588.5,-168.5 542.5,-168.5"/>
<text text-anchor="middle" x="565.5" y="-175.5" font-family="Helvetica,sans-Serif" font-size="10.00">chrono</text>
</g>
<!-- Node21&#45;&gt;Node22 -->
<g id="edge35" class="edge"><title>Node21&#45;&gt;Node22</title>
<path fill="none" stroke="midnightblue" d="M722.281,-229.975C689.718,-219.388 634.141,-201.318 598.653,-189.779"/>
<polygon fill="midnightblue" stroke="midnightblue" points="599.365,-186.33 588.773,-186.567 597.201,-192.987 599.365,-186.33"/>
</g>
<!-- Node23 -->
<g id="node23" class="node"><title>Node23</title>
<polygon fill="none" stroke="#bfbfbf" points="606.5,-168.5 606.5,-187.5 684.5,-187.5 684.5,-168.5 606.5,-168.5"/>
<text text-anchor="middle" x="645.5" y="-175.5" font-family="Helvetica,sans-Serif" font-size="10.00">unordered_set</text>
</g>
<!-- Node21&#45;&gt;Node23 -->
<g id="edge40" class="edge"><title>Node21&#45;&gt;Node23</title>
<path fill="none" stroke="midnightblue" d="M733.743,-229.975C716.839,-220.211 688.917,-204.081 669.01,-192.581"/>
<polygon fill="midnightblue" stroke="midnightblue" points="670.64,-189.481 660.23,-187.509 667.138,-195.542 670.64,-189.481"/>
</g>
<!-- Node24 -->
<g id="node24" class="node"><title>Node24</title>
<polygon fill="none" stroke="#bfbfbf" points="702.5,-168.5 702.5,-187.5 794.5,-187.5 794.5,-168.5 702.5,-168.5"/>
<text text-anchor="middle" x="748.5" y="-175.5" font-family="Helvetica,sans-Serif" font-size="10.00">Common/Timer.h</text>
</g>
<!-- Node21&#45;&gt;Node24 -->
<g id="edge41" class="edge"><title>Node21&#45;&gt;Node24</title>
<path fill="none" stroke="midnightblue" d="M748.5,-229.975C748.5,-221.58 748.5,-208.481 748.5,-197.663"/>
<polygon fill="midnightblue" stroke="midnightblue" points="752,-197.509 748.5,-187.509 745,-197.509 752,-197.509"/>
</g>
<!-- Node25 -->
<g id="node25" class="node"><title>Node25</title>
<polygon fill="none" stroke="#bfbfbf" points="812.5,-168.5 812.5,-187.5 910.5,-187.5 910.5,-168.5 812.5,-168.5"/>
<text text-anchor="middle" x="861.5" y="-175.5" font-family="Helvetica,sans-Serif" font-size="10.00">Framework/Task.h</text>
</g>
<!-- Node21&#45;&gt;Node25 -->
<g id="edge42" class="edge"><title>Node21&#45;&gt;Node25</title>
<path fill="none" stroke="midnightblue" d="M764.69,-229.975C783.402,-220.122 814.423,-203.788 836.299,-192.27"/>
<polygon fill="midnightblue" stroke="midnightblue" points="838.122,-195.265 845.34,-187.509 834.861,-189.071 838.122,-195.265"/>
</g>
<!-- Node26 -->
<g id="node26" class="node"><title>Node26</title>
<polygon fill="none" stroke="#bfbfbf" points="929,-168.5 929,-187.5 1046,-187.5 1046,-168.5 929,-168.5"/>
<text text-anchor="middle" x="987.5" y="-175.5" font-family="Helvetica,sans-Serif" font-size="10.00">Headers/DataHeader.h</text>
</g>
<!-- Node21&#45;&gt;Node26 -->
<g id="edge43" class="edge"><title>Node21&#45;&gt;Node26</title>
<path fill="none" stroke="midnightblue" d="M782.743,-229.975C825.071,-219.437 897.177,-201.486 943.55,-189.941"/>
<polygon fill="midnightblue" stroke="midnightblue" points="944.462,-193.321 953.321,-187.509 942.771,-186.529 944.462,-193.321"/>
</g>
<!-- Node27 -->
<g id="node27" class="node"><title>Node27</title>
<polygon fill="none" stroke="#bfbfbf" points="1064,-168.5 1064,-187.5 1215,-187.5 1215,-168.5 1064,-168.5"/>
<text text-anchor="middle" x="1139.5" y="-175.5" font-family="Helvetica,sans-Serif" font-size="10.00">Monitoring/MonitoringFactory.h</text>
</g>
<!-- Node21&#45;&gt;Node27 -->
<g id="edge44" class="edge"><title>Node21&#45;&gt;Node27</title>
<path fill="none" stroke="midnightblue" d="M796.882,-229.932C808.536,-227.928 820.955,-225.842 832.5,-224 913.124,-211.135 1005.89,-197.73 1068.16,-188.934"/>
<polygon fill="midnightblue" stroke="midnightblue" points="1068.86,-192.37 1078.27,-187.509 1067.88,-185.439 1068.86,-192.37"/>
</g>
<!-- Node28 -->
<g id="node28" class="node"><title>Node28</title>
<g id="a_node28"><a xlink:href="DatabaseInterface_8h.html" target="_top" xlink:title="QualityControl/DatabaseInterface.h">
<polygon fill="none" stroke="black" points="1347.5,-168.5 1347.5,-187.5 1517.5,-187.5 1517.5,-168.5 1347.5,-168.5"/>
<text text-anchor="middle" x="1432.5" y="-175.5" font-family="Helvetica,sans-Serif" font-size="10.00">QualityControl/DatabaseInterface.h</text>
</a>
</g>
</g>
<!-- Node21&#45;&gt;Node28 -->
<g id="edge47" class="edge"><title>Node21&#45;&gt;Node28</title>
<path fill="none" stroke="midnightblue" d="M792.845,-229.999C805.607,-227.782 819.573,-225.576 832.5,-224 1054.1,-196.98 1110.99,-206.106 1333.5,-188 1334.78,-187.896 1336.07,-187.79 1337.37,-187.683"/>
<polygon fill="midnightblue" stroke="midnightblue" points="1337.78,-191.161 1347.45,-186.836 1337.2,-184.185 1337.78,-191.161"/>
</g>
<!-- Node28&#45;&gt;Node3 -->
<g id="edge48" class="edge"><title>Node28&#45;&gt;Node3</title>
<path fill="none" stroke="midnightblue" d="M1396.2,-168.47C1366.1,-160.773 1322.55,-148.184 1286.5,-132 1270.85,-124.977 1269.52,-118.116 1253.5,-112 1171.98,-80.8832 1142.92,-104.642 1060.5,-76 1042.47,-69.7354 1040.49,-62.3815 1022.5,-56 955.387,-32.1891 872.292,-19.6897 828.259,-14.3147"/>
<polygon fill="midnightblue" stroke="midnightblue" points="828.536,-10.8232 818.195,-13.1282 827.716,-17.7751 828.536,-10.8232"/>
</g>
<!-- Node28&#45;&gt;Node9 -->
<g id="edge50" class="edge"><title>Node28&#45;&gt;Node9</title>
<path fill="none" stroke="midnightblue" d="M1375.79,-168.471C1327.37,-160.8 1255.72,-148.531 1184.78,-132.112"/>
<polygon fill="midnightblue" stroke="midnightblue" points="1185.31,-128.642 1174.78,-129.768 1183.72,-135.457 1185.31,-128.642"/>
</g>
<!-- Node28&#45;&gt;Node10 -->
<g id="edge49" class="edge"><title>Node28&#45;&gt;Node10</title>
<path fill="none" stroke="midnightblue" d="M1398.59,-168.444C1359.24,-158.513 1294.61,-142.205 1254.42,-132.063"/>
<polygon fill="midnightblue" stroke="midnightblue" points="1255.06,-128.616 1244.51,-129.563 1253.35,-135.403 1255.06,-128.616"/>
</g>
<!-- Node28&#45;&gt;Node13 -->
<g id="edge52" class="edge"><title>Node28&#45;&gt;Node13</title>
<path fill="none" stroke="midnightblue" d="M1364.05,-168.444C1286.48,-158.747 1160.27,-142.971 1078.83,-132.791"/>
<polygon fill="midnightblue" stroke="midnightblue" points="1078.99,-129.284 1068.63,-131.516 1078.12,-136.23 1078.99,-129.284"/>
</g>
<!-- Node28&#45;&gt;Node17 -->
<g id="edge53" class="edge"><title>Node28&#45;&gt;Node17</title>
<path fill="none" stroke="midnightblue" d="M1414.78,-168.352C1387.58,-155.244 1333.69,-129.973 1286.5,-112 1252.78,-99.1559 1213.62,-86.8611 1185.14,-78.3785"/>
<polygon fill="midnightblue" stroke="midnightblue" points="1186.12,-75.0185 1175.54,-75.5424 1184.14,-81.7318 1186.12,-75.0185"/>
</g>
<!-- Node29 -->
<g id="node29" class="node"><title>Node29</title>
<polygon fill="none" stroke="#bfbfbf" points="1391,-112.5 1391,-131.5 1474,-131.5 1474,-112.5 1391,-112.5"/>
<text text-anchor="middle" x="1432.5" y="-119.5" font-family="Helvetica,sans-Serif" font-size="10.00">unordered_map</text>
</g>
<!-- Node28&#45;&gt;Node29 -->
<g id="edge51" class="edge"><title>Node28&#45;&gt;Node29</title>
<path fill="none" stroke="midnightblue" d="M1432.5,-168.083C1432.5,-161.006 1432.5,-150.861 1432.5,-141.986"/>
<polygon fill="midnightblue" stroke="midnightblue" points="1436,-141.751 1432.5,-131.751 1429,-141.751 1436,-141.751"/>
</g>
</g>
</svg>
        <g id="navigator" transform="translate(0 0)" fill="#404254">
                <rect fill="#f2f5e9" fill-opacity="0.5" stroke="#606060" stroke-width=".5" x="0" y="0" width="60" height="60"/>
                <use id="zoomplus" xlink:href="#zoomPlus" x="17" y="9" onmousedown="handleZoom(evt,'in')"/>
                <use id="zoomminus" xlink:href="#zoomMin" x="42" y="9" onmousedown="handleZoom(evt,'out')"/>
                <use id="reset" xlink:href="#resetDef" x="30" y="36" onmousedown="handleReset()"/>
                <g id="arrowUp" xlink:href="#dirArrow" transform="translate(30 24)" onmousedown="handlePan(0,-1)">
                  <use xlink:href="#rim" fill="#404040">
                        <set attributeName="fill" to="#808080" begin="arrowUp.mouseover" end="arrowUp.mouseout"/>
                  </use>
                  <path fill="none" stroke="white" stroke-width="1.5" d="M0,-3.0v7 M-2.5,-0.5L0,-3.0L2.5,-0.5"/>
                </g>
                <g id="arrowRight" xlink:href="#dirArrow" transform="rotate(90) translate(36 -43)" onmousedown="handlePan(1,0)">
                  <use xlink:href="#rim" fill="#404040">
                        <set attributeName="fill" to="#808080" begin="arrowRight.mouseover" end="arrowRight.mouseout"/>
                  </use>
                  <path fill="none" stroke="white" stroke-width="1.5" d="M0,-3.0v7 M-2.5,-0.5L0,-3.0L2.5,-0.5"/>
                </g>
                <g id="arrowDown" xlink:href="#dirArrow" transform="rotate(180) translate(-30 -48)" onmousedown="handlePan(0,1)">
                  <use xlink:href="#rim" fill="#404040">
                        <set attributeName="fill" to="#808080" begin="arrowDown.mouseover" end="arrowDown.mouseout"/>
                  </use>
                  <path fill="none" stroke="white" stroke-width="1.5" d="M0,-3.0v7 M-2.5,-0.5L0,-3.0L2.5,-0.5"/>
                </g>
                <g id="arrowLeft" xlink:href="#dirArrow" transform="rotate(270) translate(-36 17)" onmousedown="handlePan(-1,0)">
                  <use xlink:href="#rim" fill="#404040">
                        <set attributeName="fill" to="#808080" begin="arrowLeft.mouseover" end="arrowLeft.mouseout"/>
                  </use>
                  <path fill="none" stroke="white" stroke-width="1.5" d="M0,-3.0v7 M-2.5,-0.5L0,-3.0L2.5,-0.5"/>
                </g>
        </g>
        <svg viewBox="0 0 15 15" width="100%" height="30px" preserveAspectRatio="xMaxYMin meet">
         <g id="arrow_out" transform="scale(0.3 0.3)">
          <a xlink:href="testCheckRunner_8cxx__incl_org.svg" target="_base">
           <rect id="button" ry="5" rx="5" y="6" x="6" height="38" width="38"
                fill="#f2f5e9" fill-opacity="0.5" stroke="#606060" stroke-width="1.0"/>
           <path id="arrow"
             d="M 11.500037,31.436501 C 11.940474,20.09759 22.043105,11.32322 32.158766,21.979434 L 37.068811,17.246167 C 37.068811,17.246167 37.088388,32 37.088388,32 L 22.160133,31.978069 C 22.160133,31.978069 26.997745,27.140456 26.997745,27.140456 C 18.528582,18.264221 13.291696,25.230495 11.500037,31.436501 z"
             style="fill:#404040;"/>
          </a>
         </g>
        </svg>
</svg>
