<?xml version="1.0" encoding="UTF-8" standalone="no"?>
<!DOCTYPE svg PUBLIC "-//W3C//DTD SVG 1.1//EN"
 "http://www.w3.org/Graphics/SVG/1.1/DTD/svg11.dtd">
<!-- Generated by graphviz version 2.38.0 (20140413.2041)
 -->
<!-- Title: Framework/test/testCheckInterface.cxx Pages: 1 -->
<svg width="686pt" height="207pt"
 viewBox="0.00 0.00 686.00 207.00" xmlns="http://www.w3.org/2000/svg" xmlns:xlink="http://www.w3.org/1999/xlink">
<g id="graph0" class="graph" transform="scale(1 1) rotate(0) translate(4 203)">
<title>Framework/test/testCheckInterface.cxx</title>
<!-- Node1 -->
<g id="node1" class="node"><title>Node1</title>
<polygon fill="#bfbfbf" stroke="black" points="419,-168.5 419,-198.5 552,-198.5 552,-168.5 419,-168.5"/>
<text text-anchor="start" x="427" y="-186.5" font-family="Helvetica,sans-Serif" font-size="10.00">Framework/test/testCheck</text>
<text text-anchor="middle" x="485.5" y="-175.5" font-family="Helvetica,sans-Serif" font-size="10.00">Interface.cxx</text>
</g>
<!-- Node2 -->
<g id="node2" class="node"><title>Node2</title>
<g id="a_node2"><a xlink:href="CheckInterface_8h.html" target="_top" xlink:title="QualityControl/CheckInterface.h">
<polygon fill="none" stroke="black" points="192,-112.5 192,-131.5 349,-131.5 349,-112.5 192,-112.5"/>
<text text-anchor="middle" x="270.5" y="-119.5" font-family="Helvetica,sans-Serif" font-size="10.00">QualityControl/CheckInterface.h</text>
</a>
</g>
</g>
<!-- Node1&#45;&gt;Node2 -->
<g id="edge1" class="edge"><title>Node1&#45;&gt;Node2</title>
<path fill="none" stroke="midnightblue" d="M434.82,-168.475C397.08,-158.03 346.229,-143.958 311.14,-134.247"/>
<polygon fill="midnightblue" stroke="midnightblue" points="311.809,-130.8 301.237,-131.506 309.942,-137.547 311.809,-130.8"/>
</g>
<!-- Node3 -->
<g id="node3" class="node"><title>Node3</title>
<polygon fill="none" stroke="#bfbfbf" points="361,-0.5 361,-19.5 402,-19.5 402,-0.5 361,-0.5"/>
<text text-anchor="middle" x="381.5" y="-7.5" font-family="Helvetica,sans-Serif" font-size="10.00">string</text>
</g>
<!-- Node1&#45;&gt;Node3 -->
<g id="edge16" class="edge"><title>Node1&#45;&gt;Node3</title>
<path fill="none" stroke="midnightblue" d="M476.989,-168.465C458.091,-137.302 412.674,-62.4074 392.031,-28.3653"/>
<polygon fill="midnightblue" stroke="midnightblue" points="394.869,-26.2955 386.691,-19.5597 388.883,-29.9252 394.869,-26.2955"/>
</g>
<!-- Node10 -->
<g id="node10" class="node"><title>Node10</title>
<polygon fill="none" stroke="#bfbfbf" points="470,-112.5 470,-131.5 589,-131.5 589,-112.5 470,-112.5"/>
<text text-anchor="middle" x="529.5" y="-119.5" font-family="Helvetica,sans-Serif" font-size="10.00">boost/test/unit_test.hpp</text>
</g>
<!-- Node1&#45;&gt;Node10 -->
<g id="edge14" class="edge"><title>Node1&#45;&gt;Node10</title>
<path fill="none" stroke="midnightblue" d="M495.927,-168.399C502.255,-159.842 510.369,-148.871 517.034,-139.857"/>
<polygon fill="midnightblue" stroke="midnightblue" points="519.966,-141.779 523.098,-131.658 514.338,-137.617 519.966,-141.779"/>
</g>
<!-- Node11 -->
<g id="node11" class="node"><title>Node11</title>
<polygon fill="none" stroke="#bfbfbf" points="607,-112.5 607,-131.5 678,-131.5 678,-112.5 607,-112.5"/>
<text text-anchor="middle" x="642.5" y="-119.5" font-family="Helvetica,sans-Serif" font-size="10.00">TObjString.h</text>
</g>
<!-- Node1&#45;&gt;Node11 -->
<g id="edge15" class="edge"><title>Node1&#45;&gt;Node11</title>
<path fill="none" stroke="midnightblue" d="M522.707,-168.399C549.284,-158.327 584.689,-144.909 610.105,-135.277"/>
<polygon fill="midnightblue" stroke="midnightblue" points="611.544,-138.475 619.655,-131.658 609.064,-131.929 611.544,-138.475"/>
</g>
<!-- Node2&#45;&gt;Node3 -->
<g id="edge2" class="edge"><title>Node2&#45;&gt;Node3</title>
<path fill="none" stroke="midnightblue" d="M326.414,-112.458C347.972,-106.136 370.522,-95.1371 383.5,-76 392.6,-62.581 390.861,-43.7624 387.58,-29.8252"/>
<polygon fill="midnightblue" stroke="midnightblue" points="390.865,-28.5752 384.796,-19.8907 384.124,-30.4643 390.865,-28.5752"/>
</g>
<!-- Node4 -->
<g id="node4" class="node"><title>Node4</title>
<polygon fill="none" stroke="#bfbfbf" points="0,-0.5 0,-19.5 35,-19.5 35,-0.5 0,-0.5"/>
<text text-anchor="middle" x="17.5" y="-7.5" font-family="Helvetica,sans-Serif" font-size="10.00">map</text>
</g>
<!-- Node2&#45;&gt;Node4 -->
<g id="edge3" class="edge"><title>Node2&#45;&gt;Node4</title>
<path fill="none" stroke="midnightblue" d="M191.891,-114.634C133.06,-108.303 59.0294,-96.4971 36.5,-76 23.6103,-64.273 19.2772,-44.3363 17.9134,-29.6274"/>
<polygon fill="midnightblue" stroke="midnightblue" points="21.4069,-29.4112 17.3567,-19.6211 14.4177,-29.8001 21.4069,-29.4112"/>
</g>
<!-- Node5 -->
<g id="node5" class="node"><title>Node5</title>
<polygon fill="none" stroke="#bfbfbf" points="265.5,-0.5 265.5,-19.5 321.5,-19.5 321.5,-0.5 265.5,-0.5"/>
<text text-anchor="middle" x="293.5" y="-7.5" font-family="Helvetica,sans-Serif" font-size="10.00">Rtypes.h</text>
</g>
<!-- Node2&#45;&gt;Node5 -->
<g id="edge4" class="edge"><title>Node2&#45;&gt;Node5</title>
<path fill="none" stroke="midnightblue" d="M262.306,-112.091C251.767,-99.4946 235.798,-75.8068 244.5,-56 249.89,-43.732 260.458,-33.3414 270.404,-25.6461"/>
<polygon fill="midnightblue" stroke="midnightblue" points="272.752,-28.2697 278.839,-19.598 268.672,-22.5811 272.752,-28.2697"/>
</g>
<!-- Node6 -->
<g id="node6" class="node"><title>Node6</title>
<g id="a_node6"><a xlink:href="MonitorObject_8h.html" target="_top" xlink:title="QualityControl/MonitorObject.h">
<polygon fill="none" stroke="black" points="46,-56.5 46,-75.5 197,-75.5 197,-56.5 46,-56.5"/>
<text text-anchor="middle" x="121.5" y="-63.5" font-family="Helvetica,sans-Serif" font-size="10.00">QualityControl/MonitorObject.h</text>
</a>
</g>
</g>
<!-- Node2&#45;&gt;Node6 -->
<g id="edge5" class="edge"><title>Node2&#45;&gt;Node6</title>
<path fill="none" stroke="midnightblue" d="M246.891,-112.444C222.042,-103.438 182.726,-89.1891 154.746,-79.049"/>
<polygon fill="midnightblue" stroke="midnightblue" points="155.593,-75.6332 144.999,-75.5164 153.208,-82.2144 155.593,-75.6332"/>
</g>
<!-- Node9 -->
<g id="node9" class="node"><title>Node9</title>
<g id="a_node9"><a xlink:href="Quality_8h.html" target="_top" xlink:title="QualityControl/Quality.h">
<polygon fill="none" stroke="black" points="254,-56.5 254,-75.5 375,-75.5 375,-56.5 254,-56.5"/>
<text text-anchor="middle" x="314.5" y="-63.5" font-family="Helvetica,sans-Serif" font-size="10.00">QualityControl/Quality.h</text>
</a>
</g>
</g>
<!-- Node2&#45;&gt;Node9 -->
<g id="edge11" class="edge"><title>Node2&#45;&gt;Node9</title>
<path fill="none" stroke="midnightblue" d="M277.766,-112.083C284.045,-104.377 293.288,-93.0333 300.931,-83.6531"/>
<polygon fill="midnightblue" stroke="midnightblue" points="303.766,-85.7143 307.369,-75.7511 298.339,-81.2926 303.766,-85.7143"/>
</g>
<!-- Node6&#45;&gt;Node3 -->
<g id="edge6" class="edge"><title>Node6&#45;&gt;Node3</title>
<path fill="none" stroke="midnightblue" d="M162.698,-56.4435C215.148,-45.5501 304.539,-26.9841 351.17,-17.2994"/>
<polygon fill="midnightblue" stroke="midnightblue" points="351.902,-20.7221 360.981,-15.2616 350.478,-13.8683 351.902,-20.7221"/>
</g>
<!-- Node6&#45;&gt;Node4 -->
<g id="edge7" class="edge"><title>Node6&#45;&gt;Node4</title>
<path fill="none" stroke="midnightblue" d="M104.791,-56.324C88.1881,-47.7034 62.4979,-34.3643 43.2795,-24.3855"/>
<polygon fill="midnightblue" stroke="midnightblue" points="44.6558,-21.1565 34.1679,-19.6545 41.43,-27.3689 44.6558,-21.1565"/>
</g>
<!-- Node6&#45;&gt;Node5 -->
<g id="edge8" class="edge"><title>Node6&#45;&gt;Node5</title>
<path fill="none" stroke="midnightblue" d="M148.754,-56.4435C177.941,-47.2801 224.421,-32.6876 256.809,-22.5192"/>
<polygon fill="midnightblue" stroke="midnightblue" points="257.881,-25.8512 266.374,-19.5164 255.784,-19.1726 257.881,-25.8512"/>
</g>
<!-- Node7 -->
<g id="node7" class="node"><title>Node7</title>
<polygon fill="none" stroke="#bfbfbf" points="188,-0.5 188,-19.5 247,-19.5 247,-0.5 188,-0.5"/>
<text text-anchor="middle" x="217.5" y="-7.5" font-family="Helvetica,sans-Serif" font-size="10.00">TObject.h</text>
</g>
<!-- Node6&#45;&gt;Node7 -->
<g id="edge9" class="edge"><title>Node6&#45;&gt;Node7</title>
<path fill="none" stroke="midnightblue" d="M136.924,-56.324C152.04,-47.8215 175.315,-34.7288 192.971,-24.7975"/>
<polygon fill="midnightblue" stroke="midnightblue" points="195.114,-27.6077 202.114,-19.6545 191.683,-21.5066 195.114,-27.6077"/>
</g>
<!-- Node8 -->
<g id="node8" class="node"><title>Node8</title>
<polygon fill="none" stroke="#bfbfbf" points="53.5,-0.5 53.5,-19.5 169.5,-19.5 169.5,-0.5 53.5,-0.5"/>
<text text-anchor="middle" x="111.5" y="-7.5" font-family="Helvetica,sans-Serif" font-size="10.00">Common/Exceptions.h</text>
</g>
<!-- Node6&#45;&gt;Node8 -->
<g id="edge10" class="edge"><title>Node6&#45;&gt;Node8</title>
<path fill="none" stroke="midnightblue" d="M119.849,-56.083C118.524,-48.9272 116.618,-38.6353 114.961,-29.6911"/>
<polygon fill="midnightblue" stroke="midnightblue" points="118.383,-28.9466 113.121,-19.7511 111.5,-30.2212 118.383,-28.9466"/>
</g>
<!-- Node9&#45;&gt;Node3 -->
<g id="edge13" class="edge"><title>Node9&#45;&gt;Node3</title>
<path fill="none" stroke="midnightblue" d="M325.265,-56.324C335.266,-48.2631 350.387,-36.0765 362.43,-26.3695"/>
<polygon fill="midnightblue" stroke="midnightblue" points="364.95,-28.8343 370.539,-19.8339 360.557,-23.3841 364.95,-28.8343"/>
</g>
<!-- Node9&#45;&gt;Node5 -->
<g id="edge12" class="edge"><title>Node9&#45;&gt;Node5</title>
<path fill="none" stroke="midnightblue" d="M311.032,-56.083C308.188,-48.77 304.071,-38.1814 300.54,-29.1034"/>
<polygon fill="midnightblue" stroke="midnightblue" points="303.79,-27.8025 296.903,-19.7511 297.266,-30.3397 303.79,-27.8025"/>
</g>
</g>
</svg>
