<?xml version="1.0" encoding="UTF-8" standalone="no"?>
<!DOCTYPE svg PUBLIC "-//W3C//DTD SVG 1.1//EN"
 "http://www.w3.org/Graphics/SVG/1.1/DTD/svg11.dtd">
<!-- Generated by graphviz version 2.38.0 (20140413.2041)
 -->
<!-- Title: Framework/test/testTaskRunner.cxx Pages: 1 -->
<!--zoomable 319 -->
<svg id="main" version="1.1" xmlns="http://www.w3.org/2000/svg" xmlns:xlink="http://www.w3.org/1999/xlink" xml:space="preserve" onload="init(evt)">
<style type="text/css"><![CDATA[
.edge:hover path { stroke: red; }
.edge:hover polygon { stroke: red; fill: red; }
]]></style>
<script type="text/javascript"><![CDATA[
var edges = document.getElementsByTagName('g');
if (edges && edges.length) {
  for (var i=0;i<edges.length;i++) {
    if (edges[i].id.substr(0,4)=='edge') {
      edges[i].setAttribute('class','edge');
    }
  }
}
]]></script>
        <defs>
                <circle id="rim" cx="0" cy="0" r="7"/>
                <circle id="rim2" cx="0" cy="0" r="3.5"/>
                <g id="zoomPlus">
                        <use xlink:href="#rim" fill="#404040">
                                <set attributeName="fill" to="#808080" begin="zoomplus.mouseover" end="zoomplus.mouseout"/>
                        </use>
                        <path d="M-4,0h8M0,-4v8" fill="none" stroke="white" stroke-width="1.5" pointer-events="none"/>
                </g>
                <g id="zoomMin">
                        <use xlink:href="#rim" fill="#404040">
                                <set attributeName="fill" to="#808080" begin="zoomminus.mouseover" end="zoomminus.mouseout"/>
                        </use>
                        <path d="M-4,0h8" fill="none" stroke="white" stroke-width="1.5" pointer-events="none"/>
                </g>
                <g id="dirArrow">
                        <path fill="none" stroke="white" stroke-width="1.5" d="M0,-3.0v7 M-2.5,-0.5L0,-3.0L2.5,-0.5"/>
                </g>
               <g id="resetDef">
                       <use xlink:href="#rim2" fill="#404040">
                               <set attributeName="fill" to="#808080" begin="reset.mouseover" end="reset.mouseout"/>
                       </use>
               </g>
        </defs>

<script type="text/javascript">
var viewWidth = 1094;
var viewHeight = 319;
var sectionId = 'dynsection-0';
</script>
<script xlink:href="svgpan.js"/>
<svg id="graph" class="graph">
<g id="viewport">
<title>Framework/test/testTaskRunner.cxx</title>
<!-- Node1 -->
<g id="node1" class="node"><title>Node1</title>
<polygon fill="#bfbfbf" stroke="black" points="382.5,-291.5 382.5,-310.5 558.5,-310.5 558.5,-291.5 382.5,-291.5"/>
<text text-anchor="middle" x="470.5" y="-298.5" font-family="Helvetica,sans-Serif" font-size="10.00">Framework/test/testTaskRunner.cxx</text>
</g>
<!-- Node2 -->
<g id="node2" class="node"><title>Node2</title>
<polygon fill="none" stroke="#bfbfbf" points="0,-230 0,-249 119,-249 119,-230 0,-230"/>
<text text-anchor="middle" x="59.5" y="-237" font-family="Helvetica,sans-Serif" font-size="10.00">getTestDataDirectory.h</text>
</g>
<!-- Node1&#45;&gt;Node2 -->
<g id="edge1" class="edge"><title>Node1&#45;&gt;Node2</title>
<path fill="none" stroke="midnightblue" d="M391.901,-291.491C322.206,-283.518 217.765,-270.52 127.5,-255 120.786,-253.846 113.727,-252.496 106.802,-251.092"/>
<polygon fill="midnightblue" stroke="midnightblue" points="107.311,-247.623 96.8077,-249.014 105.886,-254.476 107.311,-247.623"/>
</g>
<!-- Node3 -->
<g id="node3" class="node"><title>Node3</title>
<g id="a_node3"><a xlink:href="TaskRunnerFactory_8h.html" target="_top" xlink:title="QualityControl/TaskRunner\lFactory.h">
<polygon fill="none" stroke="black" points="137,-224.5 137,-254.5 272,-254.5 272,-224.5 137,-224.5"/>
<text text-anchor="start" x="145" y="-242.5" font-family="Helvetica,sans-Serif" font-size="10.00">QualityControl/TaskRunner</text>
<text text-anchor="middle" x="204.5" y="-231.5" font-family="Helvetica,sans-Serif" font-size="10.00">Factory.h</text>
</a>
</g>
</g>
<!-- Node1&#45;&gt;Node3 -->
<g id="edge2" class="edge"><title>Node1&#45;&gt;Node3</title>
<path fill="none" stroke="midnightblue" d="M432.389,-291.475C391.986,-282.438 327.206,-267.947 277.022,-256.722"/>
<polygon fill="midnightblue" stroke="midnightblue" points="277.714,-253.29 267.191,-254.523 276.186,-260.122 277.714,-253.29"/>
</g>
<!-- Node7 -->
<g id="node7" class="node"><title>Node7</title>
<g id="a_node7"><a xlink:href="TaskRunner_8h.html" target="_top" xlink:title="QualityControl/TaskRunner.h">
<polygon fill="none" stroke="black" points="320,-230 320,-249 463,-249 463,-230 320,-230"/>
<text text-anchor="middle" x="391.5" y="-237" font-family="Helvetica,sans-Serif" font-size="10.00">QualityControl/TaskRunner.h</text>
</a>
</g>
</g>
<!-- Node1&#45;&gt;Node7 -->
<g id="edge6" class="edge"><title>Node1&#45;&gt;Node7</title>
<path fill="none" stroke="midnightblue" d="M459.181,-291.475C446.627,-282.02 426.149,-266.596 411.001,-255.187"/>
<polygon fill="midnightblue" stroke="midnightblue" points="412.891,-252.23 402.798,-249.009 408.68,-257.821 412.891,-252.23"/>
</g>
<!-- Node26 -->
<g id="node26" class="node"><title>Node26</title>
<polygon fill="none" stroke="#bfbfbf" points="481.5,-230 481.5,-249 619.5,-249 619.5,-230 481.5,-230"/>
<text text-anchor="middle" x="550.5" y="-237" font-family="Helvetica,sans-Serif" font-size="10.00">Framework/DataSampling.h</text>
</g>
<!-- Node1&#45;&gt;Node26 -->
<g id="edge36" class="edge"><title>Node1&#45;&gt;Node26</title>
<path fill="none" stroke="midnightblue" d="M481.962,-291.475C494.675,-282.02 515.413,-266.596 530.753,-255.187"/>
<polygon fill="midnightblue" stroke="midnightblue" points="533.124,-257.785 539.059,-249.009 528.946,-252.169 533.124,-257.785"/>
</g>
<!-- Node27 -->
<g id="node27" class="node"><title>Node27</title>
<polygon fill="none" stroke="#bfbfbf" points="637.5,-230 637.5,-249 777.5,-249 777.5,-230 637.5,-230"/>
<text text-anchor="middle" x="707.5" y="-237" font-family="Helvetica,sans-Serif" font-size="10.00">Framework/DataSpecUtils.h</text>
</g>
<!-- Node1&#45;&gt;Node27 -->
<g id="edge37" class="edge"><title>Node1&#45;&gt;Node27</title>
<path fill="none" stroke="midnightblue" d="M504.456,-291.475C546.342,-280.959 617.633,-263.062 663.628,-251.514"/>
<polygon fill="midnightblue" stroke="midnightblue" points="664.76,-254.839 673.607,-249.009 663.055,-248.049 664.76,-254.839"/>
</g>
<!-- Node28 -->
<g id="node28" class="node"><title>Node28</title>
<polygon fill="none" stroke="#bfbfbf" points="796,-230 796,-249 915,-249 915,-230 796,-230"/>
<text text-anchor="middle" x="855.5" y="-237" font-family="Helvetica,sans-Serif" font-size="10.00">boost/test/unit_test.hpp</text>
</g>
<!-- Node1&#45;&gt;Node28 -->
<g id="edge38" class="edge"><title>Node1&#45;&gt;Node28</title>
<path fill="none" stroke="midnightblue" d="M539.748,-291.469C603.909,-283.25 701.909,-269.895 786.5,-255 793.223,-253.816 800.291,-252.46 807.235,-251.063"/>
<polygon fill="midnightblue" stroke="midnightblue" points="808.174,-254.443 817.265,-249.002 806.765,-247.587 808.174,-254.443"/>
</g>
<!-- Node4 -->
<g id="node4" class="node"><title>Node4</title>
<polygon fill="none" stroke="#bfbfbf" points="506,-0.5 506,-19.5 547,-19.5 547,-0.5 506,-0.5"/>
<text text-anchor="middle" x="526.5" y="-7.5" font-family="Helvetica,sans-Serif" font-size="10.00">string</text>
</g>
<!-- Node3&#45;&gt;Node4 -->
<g id="edge3" class="edge"><title>Node3&#45;&gt;Node4</title>
<path fill="none" stroke="midnightblue" d="M159.643,-224.466C131.33,-212.83 102.083,-193.981 113.5,-168 143.114,-100.614 169.159,-87.8873 235.5,-56 322.971,-13.9562 440.74,-9.52271 495.768,-10.039"/>
<polygon fill="midnightblue" stroke="midnightblue" points="495.855,-13.5408 505.909,-10.1986 495.965,-6.54162 495.855,-13.5408"/>
</g>
<!-- Node5 -->
<g id="node5" class="node"><title>Node5</title>
<polygon fill="none" stroke="#bfbfbf" points="22.5,-168.5 22.5,-187.5 66.5,-187.5 66.5,-168.5 22.5,-168.5"/>
<text text-anchor="middle" x="44.5" y="-175.5" font-family="Helvetica,sans-Serif" font-size="10.00">vector</text>
</g>
<!-- Node3&#45;&gt;Node5 -->
<g id="edge4" class="edge"><title>Node3&#45;&gt;Node5</title>
<path fill="none" stroke="midnightblue" d="M166.582,-224.399C139.05,-214.161 102.221,-200.465 76.2377,-190.802"/>
<polygon fill="midnightblue" stroke="midnightblue" points="77.4454,-187.517 66.8526,-187.312 75.0055,-194.078 77.4454,-187.517"/>
</g>
<!-- Node6 -->
<g id="node6" class="node"><title>Node6</title>
<polygon fill="none" stroke="#bfbfbf" points="122.5,-168.5 122.5,-187.5 286.5,-187.5 286.5,-168.5 122.5,-168.5"/>
<text text-anchor="middle" x="204.5" y="-175.5" font-family="Helvetica,sans-Serif" font-size="10.00">Framework/DataProcessorSpec.h</text>
</g>
<!-- Node3&#45;&gt;Node6 -->
<g id="edge5" class="edge"><title>Node3&#45;&gt;Node6</title>
<path fill="none" stroke="midnightblue" d="M204.5,-224.399C204.5,-216.466 204.5,-206.458 204.5,-197.858"/>
<polygon fill="midnightblue" stroke="midnightblue" points="208,-197.658 204.5,-187.658 201,-197.658 208,-197.658"/>
</g>
<!-- Node7&#45;&gt;Node6 -->
<g id="edge9" class="edge"><title>Node7&#45;&gt;Node6</title>
<path fill="none" stroke="midnightblue" d="M364.707,-229.975C332.214,-219.636 277.292,-202.161 240.962,-190.602"/>
<polygon fill="midnightblue" stroke="midnightblue" points="241.833,-187.206 231.243,-187.509 239.711,-193.876 241.833,-187.206"/>
</g>
<!-- Node8 -->
<g id="node8" class="node"><title>Node8</title>
<polygon fill="none" stroke="#bfbfbf" points="933.5,-168.5 933.5,-187.5 1025.5,-187.5 1025.5,-168.5 933.5,-168.5"/>
<text text-anchor="middle" x="979.5" y="-175.5" font-family="Helvetica,sans-Serif" font-size="10.00">Common/Timer.h</text>
</g>
<!-- Node7&#45;&gt;Node8 -->
<g id="edge7" class="edge"><title>Node7&#45;&gt;Node8</title>
<path fill="none" stroke="midnightblue" d="M434.677,-229.965C446.87,-227.774 460.173,-225.59 472.5,-224 669.148,-198.629 722.728,-211.849 923.35,-188.04"/>
<polygon fill="midnightblue" stroke="midnightblue" points="923.816,-191.509 933.326,-186.84 922.98,-184.559 923.816,-191.509"/>
</g>
<!-- Node9 -->
<g id="node9" class="node"><title>Node9</title>
<polygon fill="none" stroke="#bfbfbf" points="342.5,-168.5 342.5,-187.5 440.5,-187.5 440.5,-168.5 342.5,-168.5"/>
<text text-anchor="middle" x="391.5" y="-175.5" font-family="Helvetica,sans-Serif" font-size="10.00">Framework/Task.h</text>
</g>
<!-- Node7&#45;&gt;Node9 -->
<g id="edge8" class="edge"><title>Node7&#45;&gt;Node9</title>
<path fill="none" stroke="midnightblue" d="M391.5,-229.975C391.5,-221.58 391.5,-208.481 391.5,-197.663"/>
<polygon fill="midnightblue" stroke="midnightblue" points="395,-197.509 391.5,-187.509 388,-197.509 395,-197.509"/>
</g>
<!-- Node10 -->
<g id="node10" class="node"><title>Node10</title>
<polygon fill="none" stroke="#bfbfbf" points="459,-168.5 459,-187.5 612,-187.5 612,-168.5 459,-168.5"/>
<text text-anchor="middle" x="535.5" y="-175.5" font-family="Helvetica,sans-Serif" font-size="10.00">Framework/CompletionPolicy.h</text>
</g>
<!-- Node7&#45;&gt;Node10 -->
<g id="edge10" class="edge"><title>Node7&#45;&gt;Node10</title>
<path fill="none" stroke="midnightblue" d="M412.132,-229.975C436.619,-219.857 477.647,-202.905 505.609,-191.351"/>
<polygon fill="midnightblue" stroke="midnightblue" points="507.001,-194.563 514.907,-187.509 504.328,-188.093 507.001,-194.563"/>
</g>
<!-- Node11 -->
<g id="node11" class="node"><title>Node11</title>
<polygon fill="none" stroke="#bfbfbf" points="630,-168.5 630,-187.5 747,-187.5 747,-168.5 630,-168.5"/>
<text text-anchor="middle" x="688.5" y="-175.5" font-family="Helvetica,sans-Serif" font-size="10.00">Headers/DataHeader.h</text>
</g>
<!-- Node7&#45;&gt;Node11 -->
<g id="edge11" class="edge"><title>Node7&#45;&gt;Node11</title>
<path fill="none" stroke="midnightblue" d="M434.053,-229.975C487.315,-219.305 578.518,-201.034 636.044,-189.509"/>
<polygon fill="midnightblue" stroke="midnightblue" points="636.908,-192.905 646.026,-187.509 635.533,-186.042 636.908,-192.905"/>
</g>
<!-- Node12 -->
<g id="node12" class="node"><title>Node12</title>
<g id="a_node12"><a xlink:href="TaskConfig_8h.html" target="_top" xlink:title="QualityControl/TaskConfig.h">
<polygon fill="none" stroke="black" points="244.5,-56.5 244.5,-75.5 384.5,-75.5 384.5,-56.5 244.5,-56.5"/>
<text text-anchor="middle" x="314.5" y="-63.5" font-family="Helvetica,sans-Serif" font-size="10.00">QualityControl/TaskConfig.h</text>
</a>
</g>
</g>
<!-- Node7&#45;&gt;Node12 -->
<g id="edge12" class="edge"><title>Node7&#45;&gt;Node12</title>
<path fill="none" stroke="midnightblue" d="M376.738,-229.914C363.16,-221.182 343.643,-206.344 333.5,-188 315.468,-155.388 313.22,-110.723 313.596,-85.7893"/>
<polygon fill="midnightblue" stroke="midnightblue" points="317.102,-85.6596 313.92,-75.5539 310.106,-85.4382 317.102,-85.6596"/>
</g>
<!-- Node14 -->
<g id="node14" class="node"><title>Node14</title>
<g id="a_node14"><a xlink:href="TaskInterface_8h.html" target="_top" xlink:title="QualityControl/TaskInterface.h">
<polygon fill="none" stroke="black" points="765.5,-168.5 765.5,-187.5 915.5,-187.5 915.5,-168.5 765.5,-168.5"/>
<text text-anchor="middle" x="840.5" y="-175.5" font-family="Helvetica,sans-Serif" font-size="10.00">QualityControl/TaskInterface.h</text>
</a>
</g>
</g>
<!-- Node7&#45;&gt;Node14 -->
<g id="edge15" class="edge"><title>Node7&#45;&gt;Node14</title>
<path fill="none" stroke="midnightblue" d="M436.838,-229.927C448.442,-227.858 460.916,-225.744 472.5,-224 569.002,-209.474 680.279,-196.369 754.98,-188.098"/>
<polygon fill="midnightblue" stroke="midnightblue" points="755.717,-191.538 765.273,-186.963 754.95,-184.58 755.717,-191.538"/>
</g>
<!-- Node12&#45;&gt;Node4 -->
<g id="edge13" class="edge"><title>Node12&#45;&gt;Node4</title>
<path fill="none" stroke="midnightblue" d="M348.092,-56.4435C388.819,-46.0696 456.864,-28.7375 496.098,-18.7438"/>
<polygon fill="midnightblue" stroke="midnightblue" points="497.06,-22.1108 505.886,-16.2506 495.332,-15.3274 497.06,-22.1108"/>
</g>
<!-- Node13 -->
<g id="node13" class="node"><title>Node13</title>
<polygon fill="none" stroke="#bfbfbf" points="144,-0.5 144,-19.5 227,-19.5 227,-0.5 144,-0.5"/>
<text text-anchor="middle" x="185.5" y="-7.5" font-family="Helvetica,sans-Serif" font-size="10.00">unordered_map</text>
</g>
<!-- Node12&#45;&gt;Node13 -->
<g id="edge14" class="edge"><title>Node12&#45;&gt;Node13</title>
<path fill="none" stroke="midnightblue" d="M294.06,-56.4435C272.83,-47.5566 239.401,-33.5632 215.245,-23.4514"/>
<polygon fill="midnightblue" stroke="midnightblue" points="216.421,-20.1493 205.845,-19.5164 213.718,-26.6064 216.421,-20.1493"/>
</g>
<!-- Node14&#45;&gt;Node4 -->
<g id="edge18" class="edge"><title>Node14&#45;&gt;Node4</title>
<path fill="none" stroke="midnightblue" d="M906.139,-168.446C949.616,-161.278 1001.03,-149.393 1014.5,-132 1019.94,-124.972 1020.11,-118.893 1014.5,-112 999.729,-93.8585 661.474,-34.2592 556.972,-16.2196"/>
<polygon fill="midnightblue" stroke="midnightblue" points="557.504,-12.7598 547.055,-14.5114 556.316,-19.6582 557.504,-12.7598"/>
</g>
<!-- Node14&#45;&gt;Node13 -->
<g id="edge19" class="edge"><title>Node14&#45;&gt;Node13</title>
<path fill="none" stroke="midnightblue" d="M765.419,-168.993C762.067,-168.654 758.749,-168.321 755.5,-168 581.393,-150.789 532.93,-175.623 363.5,-132 303.366,-116.517 284.411,-114.256 235.5,-76 218.734,-62.887 204.499,-42.9221 195.556,-28.5802"/>
<polygon fill="midnightblue" stroke="midnightblue" points="198.382,-26.4869 190.244,-19.7028 192.375,-30.0811 198.382,-26.4869"/>
</g>
<!-- Node15 -->
<g id="node15" class="node"><title>Node15</title>
<polygon fill="none" stroke="#bfbfbf" points="1051,-0.5 1051,-19.5 1086,-19.5 1086,-0.5 1051,-0.5"/>
<text text-anchor="middle" x="1068.5" y="-7.5" font-family="Helvetica,sans-Serif" font-size="10.00">map</text>
</g>
<!-- Node14&#45;&gt;Node15 -->
<g id="edge16" class="edge"><title>Node14&#45;&gt;Node15</title>
<path fill="none" stroke="midnightblue" d="M894.308,-168.484C952.023,-158.857 1036.87,-143.084 1047.5,-132 1073.85,-104.516 1073.66,-56.4983 1071.13,-29.9673"/>
<polygon fill="midnightblue" stroke="midnightblue" points="1074.57,-29.2624 1069.93,-19.7367 1067.62,-30.0756 1074.57,-29.2624"/>
</g>
<!-- Node16 -->
<g id="node16" class="node"><title>Node16</title>
<polygon fill="none" stroke="#bfbfbf" points="402.5,-56.5 402.5,-75.5 454.5,-75.5 454.5,-56.5 402.5,-56.5"/>
<text text-anchor="middle" x="428.5" y="-63.5" font-family="Helvetica,sans-Serif" font-size="10.00">memory</text>
</g>
<!-- Node14&#45;&gt;Node16 -->
<g id="edge17" class="edge"><title>Node14&#45;&gt;Node16</title>
<path fill="none" stroke="midnightblue" d="M765.418,-169.001C762.066,-168.659 758.749,-168.324 755.5,-168 712.858,-163.744 400.353,-163.685 371.5,-132 355.513,-114.444 381.053,-93.7628 402.901,-80.5239"/>
<polygon fill="midnightblue" stroke="midnightblue" points="404.69,-83.5325 411.602,-75.5033 401.191,-77.4694 404.69,-83.5325"/>
</g>
<!-- Node17 -->
<g id="node17" class="node"><title>Node17</title>
<polygon fill="none" stroke="#bfbfbf" points="560,-112.5 560,-131.5 685,-131.5 685,-112.5 560,-112.5"/>
<text text-anchor="middle" x="622.5" y="-119.5" font-family="Helvetica,sans-Serif" font-size="10.00">Framework/InitContext.h</text>
</g>
<!-- Node14&#45;&gt;Node17 -->
<g id="edge20" class="edge"><title>Node14&#45;&gt;Node17</title>
<path fill="none" stroke="midnightblue" d="M805.957,-168.444C768.247,-159.102 707.76,-144.119 666.635,-133.933"/>
<polygon fill="midnightblue" stroke="midnightblue" points="667.429,-130.524 656.881,-131.516 665.746,-137.318 667.429,-130.524"/>
</g>
<!-- Node18 -->
<g id="node18" class="node"><title>Node18</title>
<polygon fill="none" stroke="#bfbfbf" points="703.5,-112.5 703.5,-131.5 863.5,-131.5 863.5,-112.5 703.5,-112.5"/>
<text text-anchor="middle" x="783.5" y="-119.5" font-family="Helvetica,sans-Serif" font-size="10.00">Framework/ProcessingContext.h</text>
</g>
<!-- Node14&#45;&gt;Node18 -->
<g id="edge21" class="edge"><title>Node14&#45;&gt;Node18</title>
<path fill="none" stroke="midnightblue" d="M831.342,-168.324C822.999,-160.42 810.468,-148.548 800.323,-138.938"/>
<polygon fill="midnightblue" stroke="midnightblue" points="802.491,-136.171 792.825,-131.834 797.677,-141.252 802.491,-136.171"/>
</g>
<!-- Node19 -->
<g id="node19" class="node"><title>Node19</title>
<g id="a_node19"><a xlink:href="Activity_8h.html" target="_top" xlink:title="QualityControl/Activity.h">
<polygon fill="none" stroke="black" points="882,-112.5 882,-131.5 1005,-131.5 1005,-112.5 882,-112.5"/>
<text text-anchor="middle" x="943.5" y="-119.5" font-family="Helvetica,sans-Serif" font-size="10.00">QualityControl/Activity.h</text>
</a>
</g>
</g>
<!-- Node14&#45;&gt;Node19 -->
<g id="edge22" class="edge"><title>Node14&#45;&gt;Node19</title>
<path fill="none" stroke="midnightblue" d="M857.049,-168.324C873.492,-159.703 898.935,-146.364 917.968,-136.386"/>
<polygon fill="midnightblue" stroke="midnightblue" points="919.761,-139.398 926.992,-131.655 916.511,-133.198 919.761,-139.398"/>
</g>
<!-- Node20 -->
<g id="node20" class="node"><title>Node20</title>
<g id="a_node20"><a xlink:href="ObjectsManager_8h.html" target="_top" xlink:title="QualityControl/ObjectsManager.h">
<polygon fill="none" stroke="black" points="381,-112.5 381,-131.5 542,-131.5 542,-112.5 381,-112.5"/>
<text text-anchor="middle" x="461.5" y="-119.5" font-family="Helvetica,sans-Serif" font-size="10.00">QualityControl/ObjectsManager.h</text>
</a>
</g>
</g>
<!-- Node14&#45;&gt;Node20 -->
<g id="edge23" class="edge"><title>Node14&#45;&gt;Node20</title>
<path fill="none" stroke="midnightblue" d="M780.446,-168.444C712.806,-158.806 603.018,-143.163 531.532,-132.978"/>
<polygon fill="midnightblue" stroke="midnightblue" points="531.666,-129.462 521.273,-131.516 530.679,-136.392 531.666,-129.462"/>
</g>
<!-- Node20&#45;&gt;Node4 -->
<g id="edge34" class="edge"><title>Node20&#45;&gt;Node4</title>
<path fill="none" stroke="midnightblue" d="M466.6,-112.368C477.28,-94.2957 502.168,-52.1764 516.273,-28.3074"/>
<polygon fill="midnightblue" stroke="midnightblue" points="519.349,-29.9813 521.423,-19.5914 513.323,-26.4201 519.349,-29.9813"/>
</g>
<!-- Node20&#45;&gt;Node12 -->
<g id="edge33" class="edge"><title>Node20&#45;&gt;Node12</title>
<path fill="none" stroke="midnightblue" d="M438.207,-112.444C413.693,-103.438 374.904,-89.1891 347.3,-79.049"/>
<polygon fill="midnightblue" stroke="midnightblue" points="348.277,-75.6793 337.684,-75.5164 345.863,-82.25 348.277,-75.6793"/>
</g>
<!-- Node20&#45;&gt;Node16 -->
<g id="edge35" class="edge"><title>Node20&#45;&gt;Node16</title>
<path fill="none" stroke="midnightblue" d="M456.051,-112.083C451.486,-104.613 444.832,-93.7244 439.207,-84.5199"/>
<polygon fill="midnightblue" stroke="midnightblue" points="442.049,-82.4588 433.848,-75.7511 436.076,-86.109 442.049,-82.4588"/>
</g>
<!-- Node21 -->
<g id="node21" class="node"><title>Node21</title>
<g id="a_node21"><a xlink:href="MonitorObject_8h.html" target="_top" xlink:title="QualityControl/MonitorObject.h">
<polygon fill="none" stroke="black" points="892,-56.5 892,-75.5 1043,-75.5 1043,-56.5 892,-56.5"/>
<text text-anchor="middle" x="967.5" y="-63.5" font-family="Helvetica,sans-Serif" font-size="10.00">QualityControl/MonitorObject.h</text>
</a>
</g>
</g>
<!-- Node20&#45;&gt;Node21 -->
<g id="edge24" class="edge"><title>Node20&#45;&gt;Node21</title>
<path fill="none" stroke="midnightblue" d="M541.398,-112.473C634.1,-102.58 786.369,-86.3302 881.567,-76.1707"/>
<polygon fill="midnightblue" stroke="midnightblue" points="882.169,-79.6265 891.741,-75.085 881.426,-72.666 882.169,-79.6265"/>
</g>
<!-- Node25 -->
<g id="node25" class="node"><title>Node25</title>
<g id="a_node25"><a xlink:href="Quality_8h.html" target="_top" xlink:title="QualityControl/Quality.h">
<polygon fill="none" stroke="black" points="511,-56.5 511,-75.5 632,-75.5 632,-56.5 511,-56.5"/>
<text text-anchor="middle" x="571.5" y="-63.5" font-family="Helvetica,sans-Serif" font-size="10.00">QualityControl/Quality.h</text>
</a>
</g>
</g>
<!-- Node20&#45;&gt;Node25 -->
<g id="edge30" class="edge"><title>Node20&#45;&gt;Node25</title>
<path fill="none" stroke="midnightblue" d="M479.173,-112.324C496.894,-103.625 524.403,-90.1202 544.788,-80.113"/>
<polygon fill="midnightblue" stroke="midnightblue" points="546.436,-83.2031 553.87,-75.6545 543.351,-76.9195 546.436,-83.2031"/>
</g>
<!-- Node21&#45;&gt;Node4 -->
<g id="edge25" class="edge"><title>Node21&#45;&gt;Node4</title>
<path fill="none" stroke="midnightblue" d="M897.622,-56.4435C800.135,-44.5063 627.405,-23.3558 557.327,-14.7747"/>
<polygon fill="midnightblue" stroke="midnightblue" points="557.721,-11.2969 547.37,-13.5555 556.87,-18.245 557.721,-11.2969"/>
</g>
<!-- Node21&#45;&gt;Node15 -->
<g id="edge26" class="edge"><title>Node21&#45;&gt;Node15</title>
<path fill="none" stroke="midnightblue" d="M983.727,-56.324C999.851,-47.7034 1024.8,-34.3643 1043.46,-24.3855"/>
<polygon fill="midnightblue" stroke="midnightblue" points="1045.14,-27.456 1052.31,-19.6545 1041.84,-21.283 1045.14,-27.456"/>
</g>
<!-- Node22 -->
<g id="node22" class="node"><title>Node22</title>
<polygon fill="none" stroke="#bfbfbf" points="651.5,-0.5 651.5,-19.5 707.5,-19.5 707.5,-0.5 651.5,-0.5"/>
<text text-anchor="middle" x="679.5" y="-7.5" font-family="Helvetica,sans-Serif" font-size="10.00">Rtypes.h</text>
</g>
<!-- Node21&#45;&gt;Node22 -->
<g id="edge27" class="edge"><title>Node21&#45;&gt;Node22</title>
<path fill="none" stroke="midnightblue" d="M921.866,-56.4435C865.361,-45.8489 770.15,-27.9968 717.452,-18.116"/>
<polygon fill="midnightblue" stroke="midnightblue" points="717.977,-14.6536 707.503,-16.2506 716.687,-21.5337 717.977,-14.6536"/>
</g>
<!-- Node23 -->
<g id="node23" class="node"><title>Node23</title>
<polygon fill="none" stroke="#bfbfbf" points="834,-0.5 834,-19.5 893,-19.5 893,-0.5 834,-0.5"/>
<text text-anchor="middle" x="863.5" y="-7.5" font-family="Helvetica,sans-Serif" font-size="10.00">TObject.h</text>
</g>
<!-- Node21&#45;&gt;Node23 -->
<g id="edge28" class="edge"><title>Node21&#45;&gt;Node23</title>
<path fill="none" stroke="midnightblue" d="M950.791,-56.324C934.188,-47.7034 908.498,-34.3643 889.28,-24.3855"/>
<polygon fill="midnightblue" stroke="midnightblue" points="890.656,-21.1565 880.168,-19.6545 887.43,-27.3689 890.656,-21.1565"/>
</g>
<!-- Node24 -->
<g id="node24" class="node"><title>Node24</title>
<polygon fill="none" stroke="#bfbfbf" points="911.5,-0.5 911.5,-19.5 1027.5,-19.5 1027.5,-0.5 911.5,-0.5"/>
<text text-anchor="middle" x="969.5" y="-7.5" font-family="Helvetica,sans-Serif" font-size="10.00">Common/Exceptions.h</text>
</g>
<!-- Node21&#45;&gt;Node24 -->
<g id="edge29" class="edge"><title>Node21&#45;&gt;Node24</title>
<path fill="none" stroke="midnightblue" d="M967.83,-56.083C968.092,-49.0059 968.468,-38.8611 968.797,-29.9865"/>
<polygon fill="midnightblue" stroke="midnightblue" points="972.303,-29.8738 969.176,-19.7511 965.308,-29.6147 972.303,-29.8738"/>
</g>
<!-- Node25&#45;&gt;Node4 -->
<g id="edge32" class="edge"><title>Node25&#45;&gt;Node4</title>
<path fill="none" stroke="midnightblue" d="M564.069,-56.083C557.647,-48.3768 548.194,-37.0333 540.378,-27.6531"/>
<polygon fill="midnightblue" stroke="midnightblue" points="542.883,-25.1927 533.793,-19.7511 537.506,-29.674 542.883,-25.1927"/>
</g>
<!-- Node25&#45;&gt;Node22 -->
<g id="edge31" class="edge"><title>Node25&#45;&gt;Node22</title>
<path fill="none" stroke="midnightblue" d="M588.852,-56.324C606.172,-47.6641 633.015,-34.2424 653.002,-24.249"/>
<polygon fill="midnightblue" stroke="midnightblue" points="654.812,-27.2572 662.191,-19.6545 651.681,-20.9962 654.812,-27.2572"/>
</g>
</g>
</svg>
        <g id="navigator" transform="translate(0 0)" fill="#404254">
                <rect fill="#f2f5e9" fill-opacity="0.5" stroke="#606060" stroke-width=".5" x="0" y="0" width="60" height="60"/>
                <use id="zoomplus" xlink:href="#zoomPlus" x="17" y="9" onmousedown="handleZoom(evt,'in')"/>
                <use id="zoomminus" xlink:href="#zoomMin" x="42" y="9" onmousedown="handleZoom(evt,'out')"/>
                <use id="reset" xlink:href="#resetDef" x="30" y="36" onmousedown="handleReset()"/>
                <g id="arrowUp" xlink:href="#dirArrow" transform="translate(30 24)" onmousedown="handlePan(0,-1)">
                  <use xlink:href="#rim" fill="#404040">
                        <set attributeName="fill" to="#808080" begin="arrowUp.mouseover" end="arrowUp.mouseout"/>
                  </use>
                  <path fill="none" stroke="white" stroke-width="1.5" d="M0,-3.0v7 M-2.5,-0.5L0,-3.0L2.5,-0.5"/>
                </g>
                <g id="arrowRight" xlink:href="#dirArrow" transform="rotate(90) translate(36 -43)" onmousedown="handlePan(1,0)">
                  <use xlink:href="#rim" fill="#404040">
                        <set attributeName="fill" to="#808080" begin="arrowRight.mouseover" end="arrowRight.mouseout"/>
                  </use>
                  <path fill="none" stroke="white" stroke-width="1.5" d="M0,-3.0v7 M-2.5,-0.5L0,-3.0L2.5,-0.5"/>
                </g>
                <g id="arrowDown" xlink:href="#dirArrow" transform="rotate(180) translate(-30 -48)" onmousedown="handlePan(0,1)">
                  <use xlink:href="#rim" fill="#404040">
                        <set attributeName="fill" to="#808080" begin="arrowDown.mouseover" end="arrowDown.mouseout"/>
                  </use>
                  <path fill="none" stroke="white" stroke-width="1.5" d="M0,-3.0v7 M-2.5,-0.5L0,-3.0L2.5,-0.5"/>
                </g>
                <g id="arrowLeft" xlink:href="#dirArrow" transform="rotate(270) translate(-36 17)" onmousedown="handlePan(-1,0)">
                  <use xlink:href="#rim" fill="#404040">
                        <set attributeName="fill" to="#808080" begin="arrowLeft.mouseover" end="arrowLeft.mouseout"/>
                  </use>
                  <path fill="none" stroke="white" stroke-width="1.5" d="M0,-3.0v7 M-2.5,-0.5L0,-3.0L2.5,-0.5"/>
                </g>
        </g>
        <svg viewBox="0 0 15 15" width="100%" height="30px" preserveAspectRatio="xMaxYMin meet">
         <g id="arrow_out" transform="scale(0.3 0.3)">
          <a xlink:href="testTaskRunner_8cxx__incl_org.svg" target="_base">
           <rect id="button" ry="5" rx="5" y="6" x="6" height="38" width="38"
                fill="#f2f5e9" fill-opacity="0.5" stroke="#606060" stroke-width="1.0"/>
           <path id="arrow"
             d="M 11.500037,31.436501 C 11.940474,20.09759 22.043105,11.32322 32.158766,21.979434 L 37.068811,17.246167 C 37.068811,17.246167 37.088388,32 37.088388,32 L 22.160133,31.978069 C 22.160133,31.978069 26.997745,27.140456 26.997745,27.140456 C 18.528582,18.264221 13.291696,25.230495 11.500037,31.436501 z"
             style="fill:#404040;"/>
          </a>
         </g>
        </svg>
</svg>
