<?xml version="1.0" encoding="UTF-8" standalone="no"?>
<!DOCTYPE svg PUBLIC "-//W3C//DTD SVG 1.1//EN"
 "http://www.w3.org/Graphics/SVG/1.1/DTD/svg11.dtd">
<!-- Generated by graphviz version 2.38.0 (20140413.2041)
 -->
<!-- Title: Framework/test/testCheckWorkflow.cxx Pages: 1 -->
<!--zoomable 341 -->
<svg id="main" version="1.1" xmlns="http://www.w3.org/2000/svg" xmlns:xlink="http://www.w3.org/1999/xlink" xml:space="preserve" onload="init(evt)">
<style type="text/css"><![CDATA[
.edge:hover path { stroke: red; }
.edge:hover polygon { stroke: red; fill: red; }
]]></style>
<script type="text/javascript"><![CDATA[
var edges = document.getElementsByTagName('g');
if (edges && edges.length) {
  for (var i=0;i<edges.length;i++) {
    if (edges[i].id.substr(0,4)=='edge') {
      edges[i].setAttribute('class','edge');
    }
  }
}
]]></script>
        <defs>
                <circle id="rim" cx="0" cy="0" r="7"/>
                <circle id="rim2" cx="0" cy="0" r="3.5"/>
                <g id="zoomPlus">
                        <use xlink:href="#rim" fill="#404040">
                                <set attributeName="fill" to="#808080" begin="zoomplus.mouseover" end="zoomplus.mouseout"/>
                        </use>
                        <path d="M-4,0h8M0,-4v8" fill="none" stroke="white" stroke-width="1.5" pointer-events="none"/>
                </g>
                <g id="zoomMin">
                        <use xlink:href="#rim" fill="#404040">
                                <set attributeName="fill" to="#808080" begin="zoomminus.mouseover" end="zoomminus.mouseout"/>
                        </use>
                        <path d="M-4,0h8" fill="none" stroke="white" stroke-width="1.5" pointer-events="none"/>
                </g>
                <g id="dirArrow">
                        <path fill="none" stroke="white" stroke-width="1.5" d="M0,-3.0v7 M-2.5,-0.5L0,-3.0L2.5,-0.5"/>
                </g>
               <g id="resetDef">
                       <use xlink:href="#rim2" fill="#404040">
                               <set attributeName="fill" to="#808080" begin="reset.mouseover" end="reset.mouseout"/>
                       </use>
               </g>
        </defs>

<script type="text/javascript">
var viewWidth = 1743;
var viewHeight = 341;
var sectionId = 'dynsection-0';
</script>
<script xlink:href="svgpan.js"/>
<svg id="graph" class="graph">
<g id="viewport">
<title>Framework/test/testCheckWorkflow.cxx</title>
<!-- Node1 -->
<g id="node1" class="node"><title>Node1</title>
<polygon fill="#bfbfbf" stroke="black" points="613.5,-302.5 613.5,-332.5 746.5,-332.5 746.5,-302.5 613.5,-302.5"/>
<text text-anchor="start" x="621.5" y="-320.5" font-family="Helvetica,sans-Serif" font-size="10.00">Framework/test/testCheck</text>
<text text-anchor="middle" x="680" y="-309.5" font-family="Helvetica,sans-Serif" font-size="10.00">Workflow.cxx</text>
</g>
<!-- Node2 -->
<g id="node2" class="node"><title>Node2</title>
<polygon fill="none" stroke="#bfbfbf" points="0,-246.5 0,-265.5 138,-265.5 138,-246.5 0,-246.5"/>
<text text-anchor="middle" x="69" y="-253.5" font-family="Helvetica,sans-Serif" font-size="10.00">Framework/DataSampling.h</text>
</g>
<!-- Node1&#45;&gt;Node2 -->
<g id="edge1" class="edge"><title>Node1&#45;&gt;Node2</title>
<path fill="none" stroke="midnightblue" d="M613.294,-310.393C513.1,-301.158 317.813,-282.919 152,-266 150.883,-265.886 149.757,-265.771 148.624,-265.654"/>
<polygon fill="midnightblue" stroke="midnightblue" points="148.593,-262.132 138.285,-264.579 147.869,-269.095 148.593,-262.132"/>
</g>
<!-- Node3 -->
<g id="node3" class="node"><title>Node3</title>
<g id="a_node3"><a xlink:href="InfrastructureGenerator_8h.html" target="_top" xlink:title="QualityControl/Infrastructure\lGenerator.h">
<polygon fill="none" stroke="black" points="232,-179.5 232,-209.5 372,-209.5 372,-179.5 232,-179.5"/>
<text text-anchor="start" x="240" y="-197.5" font-family="Helvetica,sans-Serif" font-size="10.00">QualityControl/Infrastructure</text>
<text text-anchor="middle" x="302" y="-186.5" font-family="Helvetica,sans-Serif" font-size="10.00">Generator.h</text>
</a>
</g>
</g>
<!-- Node1&#45;&gt;Node3 -->
<g id="edge2" class="edge"><title>Node1&#45;&gt;Node3</title>
<path fill="none" stroke="midnightblue" d="M613.284,-304.421C569.665,-295.702 511.762,-282.564 462,-266 418.672,-251.578 371.015,-229.76 339.079,-214.219"/>
<polygon fill="midnightblue" stroke="midnightblue" points="340.213,-210.877 329.694,-209.613 337.129,-217.161 340.213,-210.877"/>
</g>
<!-- Node7 -->
<g id="node7" class="node"><title>Node7</title>
<polygon fill="none" stroke="#bfbfbf" points="977.5,-246.5 977.5,-265.5 1096.5,-265.5 1096.5,-246.5 977.5,-246.5"/>
<text text-anchor="middle" x="1037" y="-253.5" font-family="Helvetica,sans-Serif" font-size="10.00">getTestDataDirectory.h</text>
</g>
<!-- Node1&#45;&gt;Node7 -->
<g id="edge6" class="edge"><title>Node1&#45;&gt;Node7</title>
<path fill="none" stroke="midnightblue" d="M746.73,-305.378C812.533,-294.411 912.245,-277.793 975.991,-267.168"/>
<polygon fill="midnightblue" stroke="midnightblue" points="976.614,-270.613 985.902,-265.516 975.463,-263.708 976.614,-270.613"/>
</g>
<!-- Node8 -->
<g id="node8" class="node"><title>Node8</title>
<g id="a_node8"><a xlink:href="CheckRunner_8h.html" target="_top" xlink:title="QualityControl/CheckRunner.h">
<polygon fill="none" stroke="black" points="809,-246.5 809,-265.5 959,-265.5 959,-246.5 809,-246.5"/>
<text text-anchor="middle" x="884" y="-253.5" font-family="Helvetica,sans-Serif" font-size="10.00">QualityControl/CheckRunner.h</text>
</a>
</g>
</g>
<!-- Node1&#45;&gt;Node8 -->
<g id="edge7" class="edge"><title>Node1&#45;&gt;Node8</title>
<path fill="none" stroke="midnightblue" d="M728.087,-302.475C763.742,-292.075 811.731,-278.078 845.01,-268.372"/>
<polygon fill="midnightblue" stroke="midnightblue" points="846.215,-271.666 854.835,-265.506 844.255,-264.946 846.215,-271.666"/>
</g>
<!-- Node26 -->
<g id="node26" class="node"><title>Node26</title>
<g id="a_node26"><a xlink:href="QualityObject_8h_source.html" target="_top" xlink:title="QualityControl/QualityObject.h">
<polygon fill="none" stroke="black" points="514.5,-123.5 514.5,-142.5 663.5,-142.5 663.5,-123.5 514.5,-123.5"/>
<text text-anchor="middle" x="589" y="-130.5" font-family="Helvetica,sans-Serif" font-size="10.00">QualityControl/QualityObject.h</text>
</a>
</g>
</g>
<!-- Node1&#45;&gt;Node26 -->
<g id="edge58" class="edge"><title>Node1&#45;&gt;Node26</title>
<path fill="none" stroke="midnightblue" d="M628.038,-302.491C583.919,-287.541 523.382,-259.087 495,-210 488.104,-198.072 487.656,-190.657 495,-179 505.008,-163.112 522.351,-152.711 539.436,-145.958"/>
<polygon fill="midnightblue" stroke="midnightblue" points="540.628,-149.249 548.853,-142.571 538.258,-142.662 540.628,-149.249"/>
</g>
<!-- Node32 -->
<g id="node32" class="node"><title>Node32</title>
<g id="a_node32"><a xlink:href="runnerUtils_8h.html" target="_top" xlink:title="QualityControl/runnerUtils.h">
<polygon fill="none" stroke="black" points="196.5,-67.5 196.5,-86.5 333.5,-86.5 333.5,-67.5 196.5,-67.5"/>
<text text-anchor="middle" x="265" y="-74.5" font-family="Helvetica,sans-Serif" font-size="10.00">QualityControl/runnerUtils.h</text>
</a>
</g>
</g>
<!-- Node1&#45;&gt;Node32 -->
<g id="edge59" class="edge"><title>Node1&#45;&gt;Node32</title>
<path fill="none" stroke="midnightblue" d="M613.065,-308.061C501.258,-292.816 282.849,-257.773 223,-210 190.023,-183.677 163.698,-159.422 185,-123 193.861,-107.85 209.905,-97.406 225.312,-90.4236"/>
<polygon fill="midnightblue" stroke="midnightblue" points="226.854,-93.5733 234.753,-86.5122 224.175,-87.1064 226.854,-93.5733"/>
</g>
<!-- Node34 -->
<g id="node34" class="node"><title>Node34</title>
<polygon fill="none" stroke="#bfbfbf" points="1115,-246.5 1115,-265.5 1275,-265.5 1275,-246.5 1115,-246.5"/>
<text text-anchor="middle" x="1195" y="-253.5" font-family="Helvetica,sans-Serif" font-size="10.00">Framework/runDataProcessing.h</text>
</g>
<!-- Node1&#45;&gt;Node34 -->
<g id="edge63" class="edge"><title>Node1&#45;&gt;Node34</title>
<path fill="none" stroke="midnightblue" d="M746.536,-308.813C839.823,-298.035 1009.45,-278.437 1111.23,-266.679"/>
<polygon fill="midnightblue" stroke="midnightblue" points="1111.63,-270.156 1121.16,-265.531 1110.83,-263.202 1111.63,-270.156"/>
</g>
<!-- Node35 -->
<g id="node35" class="node"><title>Node35</title>
<polygon fill="none" stroke="#bfbfbf" points="1293.5,-246.5 1293.5,-265.5 1434.5,-265.5 1434.5,-246.5 1293.5,-246.5"/>
<text text-anchor="middle" x="1364" y="-253.5" font-family="Helvetica,sans-Serif" font-size="10.00">Framework/ControlService.h</text>
</g>
<!-- Node1&#45;&gt;Node35 -->
<g id="edge64" class="edge"><title>Node1&#45;&gt;Node35</title>
<path fill="none" stroke="midnightblue" d="M746.642,-311.555C856.159,-303.29 1081.31,-285.718 1283.14,-266.058"/>
<polygon fill="midnightblue" stroke="midnightblue" points="1283.73,-269.517 1293.34,-265.06 1283.05,-262.55 1283.73,-269.517"/>
</g>
<!-- Node4 -->
<g id="node4" class="node"><title>Node4</title>
<polygon fill="none" stroke="#bfbfbf" points="821,-123.5 821,-142.5 865,-142.5 865,-123.5 821,-123.5"/>
<text text-anchor="middle" x="843" y="-130.5" font-family="Helvetica,sans-Serif" font-size="10.00">vector</text>
</g>
<!-- Node3&#45;&gt;Node4 -->
<g id="edge3" class="edge"><title>Node3&#45;&gt;Node4</title>
<path fill="none" stroke="midnightblue" d="M372.347,-188.056C487.582,-178.89 712.686,-159.879 810.809,-142.624"/>
<polygon fill="midnightblue" stroke="midnightblue" points="811.536,-146.049 820.739,-140.799 810.271,-139.164 811.536,-146.049"/>
</g>
<!-- Node5 -->
<g id="node5" class="node"><title>Node5</title>
<polygon fill="none" stroke="#bfbfbf" points="503.5,-6 503.5,-25 544.5,-25 544.5,-6 503.5,-6"/>
<text text-anchor="middle" x="524" y="-13" font-family="Helvetica,sans-Serif" font-size="10.00">string</text>
</g>
<!-- Node3&#45;&gt;Node5 -->
<g id="edge4" class="edge"><title>Node3&#45;&gt;Node5</title>
<path fill="none" stroke="midnightblue" d="M314.507,-179.41C322.993,-169.545 334.221,-155.876 343,-143 364.863,-110.934 356.04,-91.6686 386,-67 425.06,-34.8391 447.126,-50.0483 494,-31 495.373,-30.4419 496.772,-29.8503 498.178,-29.2374"/>
<polygon fill="midnightblue" stroke="midnightblue" points="499.732,-32.3752 507.353,-25.0149 496.805,-26.0163 499.732,-32.3752"/>
</g>
<!-- Node6 -->
<g id="node6" class="node"><title>Node6</title>
<polygon fill="none" stroke="#bfbfbf" points="194,-123.5 194,-142.5 334,-142.5 334,-123.5 194,-123.5"/>
<text text-anchor="middle" x="264" y="-130.5" font-family="Helvetica,sans-Serif" font-size="10.00">Framework/WorkflowSpec.h</text>
</g>
<!-- Node3&#45;&gt;Node6 -->
<g id="edge5" class="edge"><title>Node3&#45;&gt;Node6</title>
<path fill="none" stroke="midnightblue" d="M292.995,-179.399C287.587,-170.932 280.668,-160.099 274.946,-151.139"/>
<polygon fill="midnightblue" stroke="midnightblue" points="277.862,-149.202 269.529,-142.658 271.962,-152.97 277.862,-149.202"/>
</g>
<!-- Node8&#45;&gt;Node4 -->
<g id="edge12" class="edge"><title>Node8&#45;&gt;Node4</title>
<path fill="none" stroke="midnightblue" d="M825.484,-246.431C784.125,-239.038 733.848,-226.876 721,-210 712.654,-199.038 713.122,-190.303 721,-179 726.405,-171.246 776.947,-154.379 811.259,-143.641"/>
<polygon fill="midnightblue" stroke="midnightblue" points="812.372,-146.96 820.886,-140.655 810.298,-140.275 812.372,-146.96"/>
</g>
<!-- Node8&#45;&gt;Node5 -->
<g id="edge10" class="edge"><title>Node8&#45;&gt;Node5</title>
<path fill="none" stroke="midnightblue" d="M808.931,-251.794C699.81,-246.354 508.023,-233.54 487,-210 441.827,-159.418 488.827,-71.1092 512.317,-33.8597"/>
<polygon fill="midnightblue" stroke="midnightblue" points="515.455,-35.4528 517.968,-25.1603 509.585,-31.6394 515.455,-35.4528"/>
</g>
<!-- Node9 -->
<g id="node9" class="node"><title>Node9</title>
<polygon fill="none" stroke="#bfbfbf" points="730,-185 730,-204 776,-204 776,-185 730,-185"/>
<text text-anchor="middle" x="753" y="-192" font-family="Helvetica,sans-Serif" font-size="10.00">chrono</text>
</g>
<!-- Node8&#45;&gt;Node9 -->
<g id="edge8" class="edge"><title>Node8&#45;&gt;Node9</title>
<path fill="none" stroke="midnightblue" d="M865.231,-246.475C843.149,-236.445 806.281,-219.7 780.861,-208.155"/>
<polygon fill="midnightblue" stroke="midnightblue" points="782.287,-204.958 771.734,-204.009 779.392,-211.331 782.287,-204.958"/>
</g>
<!-- Node10 -->
<g id="node10" class="node"><title>Node10</title>
<polygon fill="none" stroke="#bfbfbf" points="945,-123.5 945,-142.5 997,-142.5 997,-123.5 945,-123.5"/>
<text text-anchor="middle" x="971" y="-130.5" font-family="Helvetica,sans-Serif" font-size="10.00">memory</text>
</g>
<!-- Node8&#45;&gt;Node10 -->
<g id="edge9" class="edge"><title>Node8&#45;&gt;Node10</title>
<path fill="none" stroke="midnightblue" d="M959.096,-246.858C962.103,-246.562 965.08,-246.275 968,-246 1017.17,-241.369 1377.52,-246.307 1411,-210 1420.34,-199.871 1420.3,-189.165 1411,-179 1382.05,-147.363 1083.27,-150.244 1007.45,-142.574"/>
<polygon fill="midnightblue" stroke="midnightblue" points="1007.64,-139.07 997.274,-141.246 1006.74,-146.011 1007.64,-139.07"/>
</g>
<!-- Node11 -->
<g id="node11" class="node"><title>Node11</title>
<polygon fill="none" stroke="#bfbfbf" points="1412.5,-6 1412.5,-25 1447.5,-25 1447.5,-6 1412.5,-6"/>
<text text-anchor="middle" x="1430" y="-13" font-family="Helvetica,sans-Serif" font-size="10.00">map</text>
</g>
<!-- Node8&#45;&gt;Node11 -->
<g id="edge11" class="edge"><title>Node8&#45;&gt;Node11</title>
<path fill="none" stroke="midnightblue" d="M959.087,-246.748C962.096,-246.483 965.076,-246.232 968,-246 1045.19,-239.873 1594.42,-243.994 1664,-210 1724.36,-180.507 1760.09,-114.913 1713,-67 1677.7,-31.0822 1522.16,-20.4103 1457.91,-17.502"/>
<polygon fill="midnightblue" stroke="midnightblue" points="1457.86,-13.9966 1447.72,-17.0718 1457.57,-20.9904 1457.86,-13.9966"/>
</g>
<!-- Node12 -->
<g id="node12" class="node"><title>Node12</title>
<polygon fill="none" stroke="#bfbfbf" points="794,-185 794,-204 872,-204 872,-185 794,-185"/>
<text text-anchor="middle" x="833" y="-192" font-family="Helvetica,sans-Serif" font-size="10.00">unordered_set</text>
</g>
<!-- Node8&#45;&gt;Node12 -->
<g id="edge13" class="edge"><title>Node8&#45;&gt;Node12</title>
<path fill="none" stroke="midnightblue" d="M876.693,-246.475C868.967,-237.462 856.592,-223.025 846.982,-211.812"/>
<polygon fill="midnightblue" stroke="midnightblue" points="849.459,-209.324 840.294,-204.009 844.144,-213.879 849.459,-209.324"/>
</g>
<!-- Node13 -->
<g id="node13" class="node"><title>Node13</title>
<polygon fill="none" stroke="#bfbfbf" points="890,-185 890,-204 982,-204 982,-185 890,-185"/>
<text text-anchor="middle" x="936" y="-192" font-family="Helvetica,sans-Serif" font-size="10.00">Common/Timer.h</text>
</g>
<!-- Node8&#45;&gt;Node13 -->
<g id="edge14" class="edge"><title>Node8&#45;&gt;Node13</title>
<path fill="none" stroke="midnightblue" d="M891.45,-246.475C899.328,-237.462 911.945,-223.025 921.744,-211.812"/>
<polygon fill="midnightblue" stroke="midnightblue" points="924.618,-213.842 928.563,-204.009 919.347,-209.236 924.618,-213.842"/>
</g>
<!-- Node14 -->
<g id="node14" class="node"><title>Node14</title>
<polygon fill="none" stroke="#bfbfbf" points="1000,-185 1000,-204 1098,-204 1098,-185 1000,-185"/>
<text text-anchor="middle" x="1049" y="-192" font-family="Helvetica,sans-Serif" font-size="10.00">Framework/Task.h</text>
</g>
<!-- Node8&#45;&gt;Node14 -->
<g id="edge15" class="edge"><title>Node8&#45;&gt;Node14</title>
<path fill="none" stroke="midnightblue" d="M907.64,-246.475C935.944,-236.269 983.533,-219.108 1015.59,-207.549"/>
<polygon fill="midnightblue" stroke="midnightblue" points="1017.18,-210.694 1025.4,-204.009 1014.81,-204.109 1017.18,-210.694"/>
</g>
<!-- Node15 -->
<g id="node15" class="node"><title>Node15</title>
<polygon fill="none" stroke="#bfbfbf" points="1116.5,-185 1116.5,-204 1233.5,-204 1233.5,-185 1116.5,-185"/>
<text text-anchor="middle" x="1175" y="-192" font-family="Helvetica,sans-Serif" font-size="10.00">Headers/DataHeader.h</text>
</g>
<!-- Node8&#45;&gt;Node15 -->
<g id="edge16" class="edge"><title>Node8&#45;&gt;Node15</title>
<path fill="none" stroke="midnightblue" d="M927.196,-246.429C972.14,-237.477 1044.54,-222.96 1107,-210 1112.91,-208.774 1119.1,-207.475 1125.24,-206.177"/>
<polygon fill="midnightblue" stroke="midnightblue" points="1126.41,-209.507 1135.46,-204.007 1124.95,-202.659 1126.41,-209.507"/>
</g>
<!-- Node16 -->
<g id="node16" class="node"><title>Node16</title>
<polygon fill="none" stroke="#bfbfbf" points="1251.5,-185 1251.5,-204 1402.5,-204 1402.5,-185 1251.5,-185"/>
<text text-anchor="middle" x="1327" y="-192" font-family="Helvetica,sans-Serif" font-size="10.00">Monitoring/MonitoringFactory.h</text>
</g>
<!-- Node8&#45;&gt;Node16 -->
<g id="edge17" class="edge"><title>Node8&#45;&gt;Node16</title>
<path fill="none" stroke="midnightblue" d="M959.214,-246.519C1031.75,-238.11 1144.56,-224.428 1242,-210 1250.72,-208.71 1259.92,-207.246 1268.92,-205.757"/>
<polygon fill="midnightblue" stroke="midnightblue" points="1269.68,-209.179 1278.96,-204.074 1268.52,-202.275 1269.68,-209.179"/>
</g>
<!-- Node17 -->
<g id="node17" class="node"><title>Node17</title>
<polygon fill="none" stroke="#bfbfbf" points="1015,-123.5 1015,-142.5 1179,-142.5 1179,-123.5 1015,-123.5"/>
<text text-anchor="middle" x="1097" y="-130.5" font-family="Helvetica,sans-Serif" font-size="10.00">Framework/DataProcessorSpec.h</text>
</g>
<!-- Node8&#45;&gt;Node17 -->
<g id="edge18" class="edge"><title>Node8&#45;&gt;Node17</title>
<path fill="none" stroke="midnightblue" d="M959.095,-246.846C962.102,-246.554 965.079,-246.27 968,-246 1019.16,-241.263 1394.11,-247.718 1429,-210 1438.36,-199.886 1438.06,-189.376 1429,-179 1421.09,-169.944 1284.82,-153.806 1189.35,-143.517"/>
<polygon fill="midnightblue" stroke="midnightblue" points="1189.69,-140.034 1179.37,-142.447 1188.94,-146.994 1189.69,-140.034"/>
</g>
<!-- Node18 -->
<g id="node18" class="node"><title>Node18</title>
<g id="a_node18"><a xlink:href="CheckInterface_8h.html" target="_top" xlink:title="QualityControl/CheckInterface.h">
<polygon fill="none" stroke="black" points="1351.5,-123.5 1351.5,-142.5 1508.5,-142.5 1508.5,-123.5 1351.5,-123.5"/>
<text text-anchor="middle" x="1430" y="-130.5" font-family="Helvetica,sans-Serif" font-size="10.00">QualityControl/CheckInterface.h</text>
</a>
</g>
</g>
<!-- Node8&#45;&gt;Node18 -->
<g id="edge19" class="edge"><title>Node8&#45;&gt;Node18</title>
<path fill="none" stroke="midnightblue" d="M959.088,-246.759C962.097,-246.491 965.076,-246.237 968,-246 1004.44,-243.052 1599.87,-236.546 1625,-210 1663.09,-169.762 1586.6,-150.494 1518.53,-141.491"/>
<polygon fill="midnightblue" stroke="midnightblue" points="1518.92,-138.013 1508.56,-140.236 1518.04,-144.958 1518.92,-138.013"/>
</g>
<!-- Node20 -->
<g id="node20" class="node"><title>Node20</title>
<g id="a_node20"><a xlink:href="MonitorObject_8h.html" target="_top" xlink:title="QualityControl/MonitorObject.h">
<polygon fill="none" stroke="black" points="649.5,-67.5 649.5,-86.5 800.5,-86.5 800.5,-67.5 649.5,-67.5"/>
<text text-anchor="middle" x="725" y="-74.5" font-family="Helvetica,sans-Serif" font-size="10.00">QualityControl/MonitorObject.h</text>
</a>
</g>
</g>
<!-- Node8&#45;&gt;Node20 -->
<g id="edge44" class="edge"><title>Node8&#45;&gt;Node20</title>
<path fill="none" stroke="midnightblue" d="M808.669,-251.59C701.45,-245.953 515.465,-232.969 495,-210 482.271,-195.713 497.397,-130.796 505,-123 523.699,-103.827 585.697,-92.2718 639.13,-85.6807"/>
<polygon fill="midnightblue" stroke="midnightblue" points="639.824,-89.123 649.341,-84.4674 638.998,-82.1719 639.824,-89.123"/>
</g>
<!-- Node24 -->
<g id="node24" class="node"><title>Node24</title>
<g id="a_node24"><a xlink:href="DatabaseInterface_8h.html" target="_top" xlink:title="QualityControl/DatabaseInterface.h">
<polygon fill="none" stroke="black" points="504,-185 504,-204 674,-204 674,-185 504,-185"/>
<text text-anchor="middle" x="589" y="-192" font-family="Helvetica,sans-Serif" font-size="10.00">QualityControl/DatabaseInterface.h</text>
</a>
</g>
</g>
<!-- Node8&#45;&gt;Node24 -->
<g id="edge32" class="edge"><title>Node8&#45;&gt;Node24</title>
<path fill="none" stroke="midnightblue" d="M841.734,-246.475C788.831,-235.805 698.242,-217.534 641.103,-206.009"/>
<polygon fill="midnightblue" stroke="midnightblue" points="641.683,-202.555 631.188,-204.009 640.298,-209.417 641.683,-202.555"/>
</g>
<!-- Node28 -->
<g id="node28" class="node"><title>Node28</title>
<g id="a_node28"><a xlink:href="QcInfoLogger_8h.html" target="_top" xlink:title="QualityControl/QcInfoLogger.h">
<polygon fill="none" stroke="black" points="1564.5,-123.5 1564.5,-142.5 1713.5,-142.5 1713.5,-123.5 1564.5,-123.5"/>
<text text-anchor="middle" x="1639" y="-130.5" font-family="Helvetica,sans-Serif" font-size="10.00">QualityControl/QcInfoLogger.h</text>
</a>
</g>
</g>
<!-- Node8&#45;&gt;Node28 -->
<g id="edge45" class="edge"><title>Node8&#45;&gt;Node28</title>
<path fill="none" stroke="midnightblue" d="M959.087,-246.753C962.096,-246.487 965.076,-246.234 968,-246 1005.54,-242.993 1619.08,-237.331 1645,-210 1659.4,-194.809 1653.72,-169.377 1647.27,-152.158"/>
<polygon fill="midnightblue" stroke="midnightblue" points="1650.39,-150.557 1643.33,-142.663 1643.93,-153.241 1650.39,-150.557"/>
</g>
<!-- Node30 -->
<g id="node30" class="node"><title>Node30</title>
<g id="a_node30"><a xlink:href="Check_8h_source.html" target="_top" xlink:title="QualityControl/Check.h">
<polygon fill="none" stroke="black" points="1497.5,-185 1497.5,-204 1616.5,-204 1616.5,-185 1497.5,-185"/>
<text text-anchor="middle" x="1557" y="-192" font-family="Helvetica,sans-Serif" font-size="10.00">QualityControl/Check.h</text>
</a>
</g>
</g>
<!-- Node8&#45;&gt;Node30 -->
<g id="edge47" class="edge"><title>Node8&#45;&gt;Node30</title>
<path fill="none" stroke="midnightblue" d="M959.092,-246.815C962.1,-246.532 965.078,-246.259 968,-246 1196.55,-225.775 1255.54,-240.118 1483,-210 1491.21,-208.913 1499.88,-207.477 1508.29,-205.932"/>
<polygon fill="midnightblue" stroke="midnightblue" points="1509.19,-209.322 1518.36,-204.008 1507.88,-202.447 1509.19,-209.322"/>
</g>
<!-- Node18&#45;&gt;Node5 -->
<g id="edge20" class="edge"><title>Node18&#45;&gt;Node5</title>
<path fill="none" stroke="midnightblue" d="M1381.11,-123.46C1303.06,-110.044 1145.4,-83.8269 1011,-67 843.986,-46.0896 801.242,-50.0016 634,-31 607.19,-27.9539 576.785,-23.9 554.747,-20.8531"/>
<polygon fill="midnightblue" stroke="midnightblue" points="555.039,-17.3602 544.652,-19.4471 554.074,-24.2933 555.039,-17.3602"/>
</g>
<!-- Node18&#45;&gt;Node11 -->
<g id="edge21" class="edge"><title>Node18&#45;&gt;Node11</title>
<path fill="none" stroke="midnightblue" d="M1430,-123.319C1430,-104.757 1430,-60.8391 1430,-35.4734"/>
<polygon fill="midnightblue" stroke="midnightblue" points="1433.5,-35.282 1430,-25.282 1426.5,-35.282 1433.5,-35.282"/>
</g>
<!-- Node19 -->
<g id="node19" class="node"><title>Node19</title>
<polygon fill="none" stroke="#bfbfbf" points="914,-6 914,-25 970,-25 970,-6 914,-6"/>
<text text-anchor="middle" x="942" y="-13" font-family="Helvetica,sans-Serif" font-size="10.00">Rtypes.h</text>
</g>
<!-- Node18&#45;&gt;Node19 -->
<g id="edge22" class="edge"><title>Node18&#45;&gt;Node19</title>
<path fill="none" stroke="midnightblue" d="M1417.84,-123.379C1397.04,-109.102 1352.81,-80.7629 1311,-67 1194.69,-28.7184 1048.54,-19.4393 980.343,-17.2023"/>
<polygon fill="midnightblue" stroke="midnightblue" points="980.181,-13.6962 970.083,-16.9004 979.976,-20.6931 980.181,-13.6962"/>
</g>
<!-- Node18&#45;&gt;Node20 -->
<g id="edge23" class="edge"><title>Node18&#45;&gt;Node20</title>
<path fill="none" stroke="midnightblue" d="M1351.18,-125.963C1217.8,-115.746 948.672,-95.1323 810.748,-84.5679"/>
<polygon fill="midnightblue" stroke="midnightblue" points="810.882,-81.068 800.644,-83.794 810.347,-88.0476 810.882,-81.068"/>
</g>
<!-- Node23 -->
<g id="node23" class="node"><title>Node23</title>
<g id="a_node23"><a xlink:href="Quality_8h.html" target="_top" xlink:title="QualityControl/Quality.h">
<polygon fill="none" stroke="black" points="881.5,-67.5 881.5,-86.5 1002.5,-86.5 1002.5,-67.5 881.5,-67.5"/>
<text text-anchor="middle" x="942" y="-74.5" font-family="Helvetica,sans-Serif" font-size="10.00">QualityControl/Quality.h</text>
</a>
</g>
</g>
<!-- Node18&#45;&gt;Node23 -->
<g id="edge29" class="edge"><title>Node18&#45;&gt;Node23</title>
<path fill="none" stroke="midnightblue" d="M1352.94,-123.473C1259.58,-113.142 1103.58,-95.8794 1013.02,-85.8586"/>
<polygon fill="midnightblue" stroke="midnightblue" points="1013.17,-82.3543 1002.85,-84.7331 1012.4,-89.3118 1013.17,-82.3543"/>
</g>
<!-- Node20&#45;&gt;Node5 -->
<g id="edge24" class="edge"><title>Node20&#45;&gt;Node5</title>
<path fill="none" stroke="midnightblue" d="M696.202,-67.4751C658.535,-56.3251 592.83,-36.8752 554.392,-25.4966"/>
<polygon fill="midnightblue" stroke="midnightblue" points="555.362,-22.1337 544.78,-22.6513 553.375,-28.8458 555.362,-22.1337"/>
</g>
<!-- Node20&#45;&gt;Node11 -->
<g id="edge25" class="edge"><title>Node20&#45;&gt;Node11</title>
<path fill="none" stroke="midnightblue" d="M800.782,-69.6042C955.549,-56.5423 1301.8,-27.3196 1402.21,-18.8452"/>
<polygon fill="midnightblue" stroke="midnightblue" points="1402.78,-22.3102 1412.45,-17.9816 1402.19,-15.335 1402.78,-22.3102"/>
</g>
<!-- Node20&#45;&gt;Node19 -->
<g id="edge26" class="edge"><title>Node20&#45;&gt;Node19</title>
<path fill="none" stroke="midnightblue" d="M756.091,-67.4751C795.066,-56.7882 861.849,-38.4768 903.869,-26.9552"/>
<polygon fill="midnightblue" stroke="midnightblue" points="905.01,-30.2717 913.728,-24.2519 903.159,-23.5209 905.01,-30.2717"/>
</g>
<!-- Node21 -->
<g id="node21" class="node"><title>Node21</title>
<polygon fill="none" stroke="#bfbfbf" points="643.5,-6 643.5,-25 702.5,-25 702.5,-6 643.5,-6"/>
<text text-anchor="middle" x="673" y="-13" font-family="Helvetica,sans-Serif" font-size="10.00">TObject.h</text>
</g>
<!-- Node20&#45;&gt;Node21 -->
<g id="edge27" class="edge"><title>Node20&#45;&gt;Node21</title>
<path fill="none" stroke="midnightblue" d="M717.55,-67.4751C709.672,-58.4617 697.055,-44.0246 687.256,-32.8118"/>
<polygon fill="midnightblue" stroke="midnightblue" points="689.653,-30.2356 680.437,-25.0091 684.382,-34.842 689.653,-30.2356"/>
</g>
<!-- Node22 -->
<g id="node22" class="node"><title>Node22</title>
<polygon fill="none" stroke="#bfbfbf" points="369,-6 369,-25 485,-25 485,-6 369,-6"/>
<text text-anchor="middle" x="427" y="-13" font-family="Helvetica,sans-Serif" font-size="10.00">Common/Exceptions.h</text>
</g>
<!-- Node20&#45;&gt;Node22 -->
<g id="edge28" class="edge"><title>Node20&#45;&gt;Node22</title>
<path fill="none" stroke="midnightblue" d="M679.796,-67.4811C633.188,-58.6302 558.434,-44.2469 494,-31 488.175,-29.8024 482.071,-28.5199 476.02,-27.2313"/>
<polygon fill="midnightblue" stroke="midnightblue" points="476.454,-23.745 465.943,-25.0707 474.987,-30.5894 476.454,-23.745"/>
</g>
<!-- Node23&#45;&gt;Node5 -->
<g id="edge31" class="edge"><title>Node23&#45;&gt;Node5</title>
<path fill="none" stroke="midnightblue" d="M882.111,-67.4751C791.899,-54.6339 624.35,-30.7843 555.145,-20.9334"/>
<polygon fill="midnightblue" stroke="midnightblue" points="555.303,-17.4206 544.91,-19.4764 554.317,-24.3508 555.303,-17.4206"/>
</g>
<!-- Node23&#45;&gt;Node19 -->
<g id="edge30" class="edge"><title>Node23&#45;&gt;Node19</title>
<path fill="none" stroke="midnightblue" d="M942,-67.4751C942,-59.0803 942,-45.9806 942,-35.1631"/>
<polygon fill="midnightblue" stroke="midnightblue" points="945.5,-35.0091 942,-25.0091 938.5,-35.0091 945.5,-35.0091"/>
</g>
<!-- Node24&#45;&gt;Node4 -->
<g id="edge35" class="edge"><title>Node24&#45;&gt;Node4</title>
<path fill="none" stroke="midnightblue" d="M629.251,-184.984C671.837,-175.832 741.207,-160.521 810.835,-142.935"/>
<polygon fill="midnightblue" stroke="midnightblue" points="811.829,-146.294 820.659,-140.439 810.105,-139.509 811.829,-146.294"/>
</g>
<!-- Node24&#45;&gt;Node5 -->
<g id="edge33" class="edge"><title>Node24&#45;&gt;Node5</title>
<path fill="none" stroke="midnightblue" d="M560.94,-184.888C541.44,-177.269 516.896,-164.031 505,-143 485.397,-108.341 502.573,-60.179 514.625,-34.4295"/>
<polygon fill="midnightblue" stroke="midnightblue" points="517.915,-35.6726 519.206,-25.1566 511.639,-32.5724 517.915,-35.6726"/>
</g>
<!-- Node24&#45;&gt;Node10 -->
<g id="edge34" class="edge"><title>Node24&#45;&gt;Node10</title>
<path fill="none" stroke="midnightblue" d="M643.731,-184.975C722.845,-172.652 867.042,-150.192 934.447,-139.694"/>
<polygon fill="midnightblue" stroke="midnightblue" points="935.241,-143.112 944.583,-138.115 934.164,-136.195 935.241,-143.112"/>
</g>
<!-- Node24&#45;&gt;Node20 -->
<g id="edge43" class="edge"><title>Node24&#45;&gt;Node20</title>
<path fill="none" stroke="midnightblue" d="M607.009,-184.831C624.658,-175.831 651.779,-160.617 672,-143 688.391,-128.72 703.69,-108.989 713.595,-95.0214"/>
<polygon fill="midnightblue" stroke="midnightblue" points="716.478,-97.0068 719.283,-86.7902 710.719,-93.0273 716.478,-97.0068"/>
</g>
<!-- Node25 -->
<g id="node25" class="node"><title>Node25</title>
<polygon fill="none" stroke="#bfbfbf" points="719.5,-123.5 719.5,-142.5 802.5,-142.5 802.5,-123.5 719.5,-123.5"/>
<text text-anchor="middle" x="761" y="-130.5" font-family="Helvetica,sans-Serif" font-size="10.00">unordered_map</text>
</g>
<!-- Node24&#45;&gt;Node25 -->
<g id="edge36" class="edge"><title>Node24&#45;&gt;Node25</title>
<path fill="none" stroke="midnightblue" d="M613.643,-184.975C643.275,-174.725 693.185,-157.459 726.602,-145.899"/>
<polygon fill="midnightblue" stroke="midnightblue" points="728.096,-149.086 736.402,-142.509 725.808,-142.471 728.096,-149.086"/>
</g>
<!-- Node24&#45;&gt;Node26 -->
<g id="edge37" class="edge"><title>Node24&#45;&gt;Node26</title>
<path fill="none" stroke="midnightblue" d="M589,-184.975C589,-176.58 589,-163.481 589,-152.663"/>
<polygon fill="midnightblue" stroke="midnightblue" points="592.5,-152.509 589,-142.509 585.5,-152.509 592.5,-152.509"/>
</g>
<!-- Node26&#45;&gt;Node11 -->
<g id="edge39" class="edge"><title>Node26&#45;&gt;Node11</title>
<path fill="none" stroke="midnightblue" d="M663.871,-125.395C748.363,-117.62 889.83,-103.639 1011,-87 1159.14,-66.6572 1335.4,-34.3256 1402.35,-21.7476"/>
<polygon fill="midnightblue" stroke="midnightblue" points="1403.32,-25.1277 1412.5,-19.8361 1402.02,-18.2488 1403.32,-25.1277"/>
</g>
<!-- Node26&#45;&gt;Node21 -->
<g id="edge40" class="edge"><title>Node26&#45;&gt;Node21</title>
<path fill="none" stroke="midnightblue" d="M595.314,-123.319C609.178,-104.255 642.493,-58.4467 660.667,-33.4582"/>
<polygon fill="midnightblue" stroke="midnightblue" points="663.562,-35.428 666.613,-25.282 657.901,-31.3108 663.562,-35.428"/>
</g>
<!-- Node26&#45;&gt;Node22 -->
<g id="edge41" class="edge"><title>Node26&#45;&gt;Node22</title>
<path fill="none" stroke="midnightblue" d="M576.824,-123.319C549.264,-103.67 481.854,-55.6087 447.642,-31.2169"/>
<polygon fill="midnightblue" stroke="midnightblue" points="449.492,-28.2374 439.318,-25.282 445.428,-33.9372 449.492,-28.2374"/>
</g>
<!-- Node26&#45;&gt;Node23 -->
<g id="edge42" class="edge"><title>Node26&#45;&gt;Node23</title>
<path fill="none" stroke="midnightblue" d="M644.934,-123.444C707.805,-113.826 809.772,-98.2275 876.362,-88.0409"/>
<polygon fill="midnightblue" stroke="midnightblue" points="876.972,-91.4884 886.328,-86.5164 875.913,-84.5689 876.972,-91.4884"/>
</g>
<!-- Node27 -->
<g id="node27" class="node"><title>Node27</title>
<polygon fill="none" stroke="#bfbfbf" points="539,-67.5 539,-86.5 593,-86.5 593,-67.5 539,-67.5"/>
<text text-anchor="middle" x="566" y="-74.5" font-family="Helvetica,sans-Serif" font-size="10.00">iostream</text>
</g>
<!-- Node26&#45;&gt;Node27 -->
<g id="edge38" class="edge"><title>Node26&#45;&gt;Node27</title>
<path fill="none" stroke="midnightblue" d="M585.202,-123.083C582.087,-115.77 577.577,-105.181 573.711,-96.1034"/>
<polygon fill="midnightblue" stroke="midnightblue" points="576.866,-94.5798 569.727,-86.7511 570.426,-97.3229 576.866,-94.5798"/>
</g>
<!-- Node29 -->
<g id="node29" class="node"><title>Node29</title>
<polygon fill="none" stroke="#bfbfbf" points="1574,-67.5 1574,-86.5 1704,-86.5 1704,-67.5 1574,-67.5"/>
<text text-anchor="middle" x="1639" y="-74.5" font-family="Helvetica,sans-Serif" font-size="10.00">InfoLogger/InfoLogger.hxx</text>
</g>
<!-- Node28&#45;&gt;Node29 -->
<g id="edge46" class="edge"><title>Node28&#45;&gt;Node29</title>
<path fill="none" stroke="midnightblue" d="M1639,-123.083C1639,-116.006 1639,-105.861 1639,-96.9865"/>
<polygon fill="midnightblue" stroke="midnightblue" points="1642.5,-96.751 1639,-86.7511 1635.5,-96.7511 1642.5,-96.751"/>
</g>
<!-- Node30&#45;&gt;Node4 -->
<g id="edge50" class="edge"><title>Node30&#45;&gt;Node4</title>
<path fill="none" stroke="midnightblue" d="M1497.36,-187.259C1470.92,-184.574 1439.42,-181.488 1411,-179 1200.09,-160.537 1146.93,-161.198 936,-143 915.83,-141.26 893.223,-139.077 875.349,-137.297"/>
<polygon fill="midnightblue" stroke="midnightblue" points="875.461,-133.791 865.161,-136.276 874.762,-140.756 875.461,-133.791"/>
</g>
<!-- Node30&#45;&gt;Node10 -->
<g id="edge51" class="edge"><title>Node30&#45;&gt;Node10</title>
<path fill="none" stroke="midnightblue" d="M1497.48,-185.267C1480.54,-183.067 1462.06,-180.803 1445,-179 1253.55,-158.768 1200.79,-174.938 1007.2,-142.928"/>
<polygon fill="midnightblue" stroke="midnightblue" points="1007.71,-139.466 997.271,-141.266 1006.55,-146.37 1007.71,-139.466"/>
</g>
<!-- Node30&#45;&gt;Node11 -->
<g id="edge49" class="edge"><title>Node30&#45;&gt;Node11</title>
<path fill="none" stroke="midnightblue" d="M1552.76,-184.976C1545.89,-171.437 1531.63,-144.363 1517,-123 1493.98,-89.391 1463,-53.2729 1444.89,-32.9203"/>
<polygon fill="midnightblue" stroke="midnightblue" points="1447.27,-30.3236 1437.98,-25.2163 1442.06,-34.9976 1447.27,-30.3236"/>
</g>
<!-- Node30&#45;&gt;Node17 -->
<g id="edge52" class="edge"><title>Node30&#45;&gt;Node17</title>
<path fill="none" stroke="midnightblue" d="M1516.39,-184.955C1505.57,-182.839 1493.87,-180.695 1483,-179 1383.16,-163.422 1268.02,-150.669 1189.65,-142.768"/>
<polygon fill="midnightblue" stroke="midnightblue" points="1189.63,-139.247 1179.33,-141.733 1188.93,-146.212 1189.63,-139.247"/>
</g>
<!-- Node30&#45;&gt;Node18 -->
<g id="edge56" class="edge"><title>Node30&#45;&gt;Node18</title>
<path fill="none" stroke="midnightblue" d="M1538.8,-184.975C1517.49,-174.99 1481.97,-158.348 1457.34,-146.807"/>
<polygon fill="midnightblue" stroke="midnightblue" points="1458.7,-143.582 1448.16,-142.509 1455.73,-149.921 1458.7,-143.582"/>
</g>
<!-- Node30&#45;&gt;Node20 -->
<g id="edge55" class="edge"><title>Node30&#45;&gt;Node20</title>
<path fill="none" stroke="midnightblue" d="M1497.41,-185.502C1409.12,-173.486 1251.23,-151.302 1226,-143 1207.87,-137.034 1206.28,-128.47 1188,-123 1152.91,-112.503 935.074,-94.2874 811.097,-84.5626"/>
<polygon fill="midnightblue" stroke="midnightblue" points="811.112,-81.0532 800.869,-83.7629 810.566,-88.0319 811.112,-81.0532"/>
</g>
<!-- Node30&#45;&gt;Node23 -->
<g id="edge53" class="edge"><title>Node30&#45;&gt;Node23</title>
<path fill="none" stroke="midnightblue" d="M1505.15,-184.983C1460.95,-176.864 1396.16,-162.91 1342,-143 1323.72,-136.279 1321.62,-128.737 1303,-123 1205.29,-92.8888 1086.8,-82.8653 1012.88,-79.565"/>
<polygon fill="midnightblue" stroke="midnightblue" points="1012.89,-76.0625 1002.75,-79.1426 1012.6,-83.0564 1012.89,-76.0625"/>
</g>
<!-- Node30&#45;&gt;Node26 -->
<g id="edge54" class="edge"><title>Node30&#45;&gt;Node26</title>
<path fill="none" stroke="midnightblue" d="M1497.39,-186.931C1470.95,-184.185 1439.45,-181.142 1411,-179 1099.91,-155.578 1021.35,-162.571 710,-143 698.256,-142.262 685.877,-141.417 673.698,-140.548"/>
<polygon fill="midnightblue" stroke="midnightblue" points="673.759,-137.043 663.533,-139.814 673.255,-144.025 673.759,-137.043"/>
</g>
<!-- Node30&#45;&gt;Node28 -->
<g id="edge57" class="edge"><title>Node30&#45;&gt;Node28</title>
<path fill="none" stroke="midnightblue" d="M1568.75,-184.975C1581.78,-175.52 1603.04,-160.096 1618.76,-148.687"/>
<polygon fill="midnightblue" stroke="midnightblue" points="1621.23,-151.215 1627.27,-142.509 1617.12,-145.549 1621.23,-151.215"/>
</g>
<!-- Node31 -->
<g id="node31" class="node"><title>Node31</title>
<polygon fill="none" stroke="#bfbfbf" points="1235.5,-123.5 1235.5,-142.5 1294.5,-142.5 1294.5,-123.5 1235.5,-123.5"/>
<text text-anchor="middle" x="1265" y="-130.5" font-family="Helvetica,sans-Serif" font-size="10.00">functional</text>
</g>
<!-- Node30&#45;&gt;Node31 -->
<g id="edge48" class="edge"><title>Node30&#45;&gt;Node31</title>
<path fill="none" stroke="midnightblue" d="M1514.87,-184.933C1465.53,-174.897 1381.33,-157.761 1309,-143 1307.57,-142.708 1306.11,-142.41 1304.64,-142.109"/>
<polygon fill="midnightblue" stroke="midnightblue" points="1305.32,-138.676 1294.82,-140.103 1303.92,-145.535 1305.32,-138.676"/>
</g>
<!-- Node32&#45;&gt;Node5 -->
<g id="edge60" class="edge"><title>Node32&#45;&gt;Node5</title>
<path fill="none" stroke="midnightblue" d="M331.801,-67.4903C378.109,-60.4798 440.77,-48.7658 494,-31 495.622,-30.4586 497.27,-29.8489 498.915,-29.1938"/>
<polygon fill="midnightblue" stroke="midnightblue" points="500.404,-32.3622 508.125,-25.1067 497.565,-25.9639 500.404,-32.3622"/>
</g>
<!-- Node32&#45;&gt;Node22 -->
<g id="edge62" class="edge"><title>Node32&#45;&gt;Node22</title>
<path fill="none" stroke="midnightblue" d="M288.211,-67.4751C315.999,-57.2687 362.723,-40.108 394.194,-28.5492"/>
<polygon fill="midnightblue" stroke="midnightblue" points="395.652,-31.7422 403.832,-25.0091 393.239,-25.1714 395.652,-31.7422"/>
</g>
<!-- Node33 -->
<g id="node33" class="node"><title>Node33</title>
<polygon fill="none" stroke="#bfbfbf" points="197.5,-0.5 197.5,-30.5 332.5,-30.5 332.5,-0.5 197.5,-0.5"/>
<text text-anchor="start" x="205.5" y="-18.5" font-family="Helvetica,sans-Serif" font-size="10.00">Configuration/Configuration</text>
<text text-anchor="middle" x="265" y="-7.5" font-family="Helvetica,sans-Serif" font-size="10.00">Factory.h</text>
</g>
<!-- Node32&#45;&gt;Node33 -->
<g id="edge61" class="edge"><title>Node32&#45;&gt;Node33</title>
<path fill="none" stroke="midnightblue" d="M265,-67.4751C265,-60.471 265,-50.1919 265,-40.6956"/>
<polygon fill="midnightblue" stroke="midnightblue" points="268.5,-40.5229 265,-30.523 261.5,-40.523 268.5,-40.5229"/>
</g>
</g>
</svg>
        <g id="navigator" transform="translate(0 0)" fill="#404254">
                <rect fill="#f2f5e9" fill-opacity="0.5" stroke="#606060" stroke-width=".5" x="0" y="0" width="60" height="60"/>
                <use id="zoomplus" xlink:href="#zoomPlus" x="17" y="9" onmousedown="handleZoom(evt,'in')"/>
                <use id="zoomminus" xlink:href="#zoomMin" x="42" y="9" onmousedown="handleZoom(evt,'out')"/>
                <use id="reset" xlink:href="#resetDef" x="30" y="36" onmousedown="handleReset()"/>
                <g id="arrowUp" xlink:href="#dirArrow" transform="translate(30 24)" onmousedown="handlePan(0,-1)">
                  <use xlink:href="#rim" fill="#404040">
                        <set attributeName="fill" to="#808080" begin="arrowUp.mouseover" end="arrowUp.mouseout"/>
                  </use>
                  <path fill="none" stroke="white" stroke-width="1.5" d="M0,-3.0v7 M-2.5,-0.5L0,-3.0L2.5,-0.5"/>
                </g>
                <g id="arrowRight" xlink:href="#dirArrow" transform="rotate(90) translate(36 -43)" onmousedown="handlePan(1,0)">
                  <use xlink:href="#rim" fill="#404040">
                        <set attributeName="fill" to="#808080" begin="arrowRight.mouseover" end="arrowRight.mouseout"/>
                  </use>
                  <path fill="none" stroke="white" stroke-width="1.5" d="M0,-3.0v7 M-2.5,-0.5L0,-3.0L2.5,-0.5"/>
                </g>
                <g id="arrowDown" xlink:href="#dirArrow" transform="rotate(180) translate(-30 -48)" onmousedown="handlePan(0,1)">
                  <use xlink:href="#rim" fill="#404040">
                        <set attributeName="fill" to="#808080" begin="arrowDown.mouseover" end="arrowDown.mouseout"/>
                  </use>
                  <path fill="none" stroke="white" stroke-width="1.5" d="M0,-3.0v7 M-2.5,-0.5L0,-3.0L2.5,-0.5"/>
                </g>
                <g id="arrowLeft" xlink:href="#dirArrow" transform="rotate(270) translate(-36 17)" onmousedown="handlePan(-1,0)">
                  <use xlink:href="#rim" fill="#404040">
                        <set attributeName="fill" to="#808080" begin="arrowLeft.mouseover" end="arrowLeft.mouseout"/>
                  </use>
                  <path fill="none" stroke="white" stroke-width="1.5" d="M0,-3.0v7 M-2.5,-0.5L0,-3.0L2.5,-0.5"/>
                </g>
        </g>
        <svg viewBox="0 0 15 15" width="100%" height="30px" preserveAspectRatio="xMaxYMin meet">
         <g id="arrow_out" transform="scale(0.3 0.3)">
          <a xlink:href="testCheckWorkflow_8cxx__incl_org.svg" target="_base">
           <rect id="button" ry="5" rx="5" y="6" x="6" height="38" width="38"
                fill="#f2f5e9" fill-opacity="0.5" stroke="#606060" stroke-width="1.0"/>
           <path id="arrow"
             d="M 11.500037,31.436501 C 11.940474,20.09759 22.043105,11.32322 32.158766,21.979434 L 37.068811,17.246167 C 37.068811,17.246167 37.088388,32 37.088388,32 L 22.160133,31.978069 C 22.160133,31.978069 26.997745,27.140456 26.997745,27.140456 C 18.528582,18.264221 13.291696,25.230495 11.500037,31.436501 z"
             style="fill:#404040;"/>
          </a>
         </g>
        </svg>
</svg>
