<?xml version="1.0" encoding="UTF-8" standalone="no"?>
<!DOCTYPE svg PUBLIC "-//W3C//DTD SVG 1.1//EN"
 "http://www.w3.org/Graphics/SVG/1.1/DTD/svg11.dtd">
<!-- Generated by graphviz version 2.38.0 (20140413.2041)
 -->
<!-- Title: Framework/test/testDbFactory.cxx Pages: 1 -->
<svg width="841pt" height="308pt"
 viewBox="0.00 0.00 840.50 308.00" xmlns="http://www.w3.org/2000/svg" xmlns:xlink="http://www.w3.org/1999/xlink">
<g id="graph0" class="graph" transform="scale(1 1) rotate(0) translate(4 304)">
<title>Framework/test/testDbFactory.cxx</title>
<!-- Node1 -->
<g id="node1" class="node"><title>Node1</title>
<polygon fill="#bfbfbf" stroke="black" points="342,-280.5 342,-299.5 511,-299.5 511,-280.5 342,-280.5"/>
<text text-anchor="middle" x="426.5" y="-287.5" font-family="Helvetica,sans-Serif" font-size="10.00">Framework/test/testDbFactory.cxx</text>
</g>
<!-- Node2 -->
<g id="node2" class="node"><title>Node2</title>
<g id="a_node2"><a xlink:href="DatabaseFactory_8h.html" target="_top" xlink:title="QualityControl/DatabaseFactory.h">
<polygon fill="none" stroke="black" points="104,-224.5 104,-243.5 269,-243.5 269,-224.5 104,-224.5"/>
<text text-anchor="middle" x="186.5" y="-231.5" font-family="Helvetica,sans-Serif" font-size="10.00">QualityControl/DatabaseFactory.h</text>
</a>
</g>
</g>
<!-- Node1&#45;&gt;Node2 -->
<g id="edge1" class="edge"><title>Node1&#45;&gt;Node2</title>
<path fill="none" stroke="midnightblue" d="M388.471,-280.444C346.692,-271.043 279.518,-255.929 234.23,-245.739"/>
<polygon fill="midnightblue" stroke="midnightblue" points="234.875,-242.297 224.351,-243.516 233.339,-249.126 234.875,-242.297"/>
</g>
<!-- Node15 -->
<g id="node15" class="node"><title>Node15</title>
<g id="a_node15"><a xlink:href="MonitorObject_8h.html" target="_top" xlink:title="QualityControl/MonitorObject.h">
<polygon fill="none" stroke="black" points="0,-112.5 0,-131.5 151,-131.5 151,-112.5 0,-112.5"/>
<text text-anchor="middle" x="75.5" y="-119.5" font-family="Helvetica,sans-Serif" font-size="10.00">QualityControl/MonitorObject.h</text>
</a>
</g>
</g>
<!-- Node1&#45;&gt;Node15 -->
<g id="edge28" class="edge"><title>Node1&#45;&gt;Node15</title>
<path fill="none" stroke="midnightblue" d="M341.889,-288.671C255.247,-286.452 128.579,-277.37 94.5,-244 67.1138,-217.184 68.8735,-168.143 72.3127,-141.469"/>
<polygon fill="midnightblue" stroke="midnightblue" points="75.7802,-141.947 73.8094,-131.537 68.8583,-140.904 75.7802,-141.947"/>
</g>
<!-- Node16 -->
<g id="node16" class="node"><title>Node16</title>
<polygon fill="none" stroke="#bfbfbf" points="287,-224.5 287,-243.5 406,-243.5 406,-224.5 287,-224.5"/>
<text text-anchor="middle" x="346.5" y="-231.5" font-family="Helvetica,sans-Serif" font-size="10.00">boost/test/unit_test.hpp</text>
</g>
<!-- Node1&#45;&gt;Node16 -->
<g id="edge22" class="edge"><title>Node1&#45;&gt;Node16</title>
<path fill="none" stroke="midnightblue" d="M413.647,-280.324C401.284,-271.979 382.37,-259.212 367.763,-249.352"/>
<polygon fill="midnightblue" stroke="midnightblue" points="369.568,-246.348 359.321,-243.655 365.652,-252.15 369.568,-246.348"/>
</g>
<!-- Node17 -->
<g id="node17" class="node"><title>Node17</title>
<g id="a_node17"><a xlink:href="DummyDatabase_8h.html" target="_top" xlink:title="QualityControl/DummyDatabase.h">
<polygon fill="none" stroke="black" points="424,-224.5 424,-243.5 591,-243.5 591,-224.5 424,-224.5"/>
<text text-anchor="middle" x="507.5" y="-231.5" font-family="Helvetica,sans-Serif" font-size="10.00">QualityControl/DummyDatabase.h</text>
</a>
</g>
</g>
<!-- Node1&#45;&gt;Node17 -->
<g id="edge23" class="edge"><title>Node1&#45;&gt;Node17</title>
<path fill="none" stroke="midnightblue" d="M439.514,-280.324C452.032,-271.979 471.182,-259.212 485.971,-249.352"/>
<polygon fill="midnightblue" stroke="midnightblue" points="488.139,-252.114 494.518,-243.655 484.256,-246.289 488.139,-252.114"/>
</g>
<!-- Node18 -->
<g id="node18" class="node"><title>Node18</title>
<g id="a_node18"><a xlink:href="CcdbDatabase_8h.html" target="_top" xlink:title="QualityControl/CcdbDatabase.h">
<polygon fill="none" stroke="black" points="609,-224.5 609,-243.5 764,-243.5 764,-224.5 609,-224.5"/>
<text text-anchor="middle" x="686.5" y="-231.5" font-family="Helvetica,sans-Serif" font-size="10.00">QualityControl/CcdbDatabase.h</text>
</a>
</g>
</g>
<!-- Node1&#45;&gt;Node18 -->
<g id="edge25" class="edge"><title>Node1&#45;&gt;Node18</title>
<path fill="none" stroke="midnightblue" d="M467.698,-280.444C513.149,-271.004 586.342,-255.802 635.409,-245.611"/>
<polygon fill="midnightblue" stroke="midnightblue" points="636.416,-248.977 645.495,-243.516 634.992,-242.123 636.416,-248.977"/>
</g>
<!-- Node20 -->
<g id="node20" class="node"><title>Node20</title>
<polygon fill="none" stroke="#bfbfbf" points="782.5,-224.5 782.5,-243.5 832.5,-243.5 832.5,-224.5 782.5,-224.5"/>
<text text-anchor="middle" x="807.5" y="-231.5" font-family="Helvetica,sans-Serif" font-size="10.00">TH1F.h</text>
</g>
<!-- Node1&#45;&gt;Node20 -->
<g id="edge29" class="edge"><title>Node1&#45;&gt;Node20</title>
<path fill="none" stroke="midnightblue" d="M511.215,-280.907C581.549,-273.49 684.024,-261.062 772.5,-244 772.6,-243.981 772.7,-243.961 772.801,-243.942"/>
<polygon fill="midnightblue" stroke="midnightblue" points="773.324,-247.41 782.348,-241.86 771.832,-240.571 773.324,-247.41"/>
</g>
<!-- Node3 -->
<g id="node3" class="node"><title>Node3</title>
<polygon fill="none" stroke="#bfbfbf" points="169.5,-112.5 169.5,-131.5 221.5,-131.5 221.5,-112.5 169.5,-112.5"/>
<text text-anchor="middle" x="195.5" y="-119.5" font-family="Helvetica,sans-Serif" font-size="10.00">memory</text>
</g>
<!-- Node2&#45;&gt;Node3 -->
<g id="edge2" class="edge"><title>Node2&#45;&gt;Node3</title>
<path fill="none" stroke="midnightblue" d="M187.206,-224.368C188.659,-206.617 192.009,-165.666 193.978,-141.597"/>
<polygon fill="midnightblue" stroke="midnightblue" points="197.47,-141.844 194.797,-131.591 190.493,-141.273 197.47,-141.844"/>
</g>
<!-- Node4 -->
<g id="node4" class="node"><title>Node4</title>
<g id="a_node4"><a xlink:href="DatabaseInterface_8h.html" target="_top" xlink:title="QualityControl/DatabaseInterface.h">
<polygon fill="none" stroke="black" points="330.5,-168.5 330.5,-187.5 500.5,-187.5 500.5,-168.5 330.5,-168.5"/>
<text text-anchor="middle" x="415.5" y="-175.5" font-family="Helvetica,sans-Serif" font-size="10.00">QualityControl/DatabaseInterface.h</text>
</a>
</g>
</g>
<!-- Node2&#45;&gt;Node4 -->
<g id="edge3" class="edge"><title>Node2&#45;&gt;Node4</title>
<path fill="none" stroke="midnightblue" d="M222.786,-224.444C262.483,-215.083 326.207,-200.056 369.412,-189.868"/>
<polygon fill="midnightblue" stroke="midnightblue" points="370.454,-193.218 379.384,-187.516 368.848,-186.405 370.454,-193.218"/>
</g>
<!-- Node4&#45;&gt;Node3 -->
<g id="edge5" class="edge"><title>Node4&#45;&gt;Node3</title>
<path fill="none" stroke="midnightblue" d="M379.655,-168.428C344.4,-159.964 288.789,-146.527 231.77,-132.296"/>
<polygon fill="midnightblue" stroke="midnightblue" points="232.414,-128.849 221.864,-129.819 230.716,-135.64 232.414,-128.849"/>
</g>
<!-- Node5 -->
<g id="node5" class="node"><title>Node5</title>
<polygon fill="none" stroke="#bfbfbf" points="379,-0.5 379,-19.5 420,-19.5 420,-0.5 379,-0.5"/>
<text text-anchor="middle" x="399.5" y="-7.5" font-family="Helvetica,sans-Serif" font-size="10.00">string</text>
</g>
<!-- Node4&#45;&gt;Node5 -->
<g id="edge4" class="edge"><title>Node4&#45;&gt;Node5</title>
<path fill="none" stroke="midnightblue" d="M438.117,-168.363C483.154,-149.875 576.794,-104.208 541.5,-56 516.136,-21.3548 463.943,-12.7203 430.39,-10.9302"/>
<polygon fill="midnightblue" stroke="midnightblue" points="430.328,-7.42582 420.209,-10.5652 430.077,-14.4213 430.328,-7.42582"/>
</g>
<!-- Node6 -->
<g id="node6" class="node"><title>Node6</title>
<polygon fill="none" stroke="#bfbfbf" points="588.5,-112.5 588.5,-131.5 632.5,-131.5 632.5,-112.5 588.5,-112.5"/>
<text text-anchor="middle" x="610.5" y="-119.5" font-family="Helvetica,sans-Serif" font-size="10.00">vector</text>
</g>
<!-- Node4&#45;&gt;Node6 -->
<g id="edge6" class="edge"><title>Node4&#45;&gt;Node6</title>
<path fill="none" stroke="midnightblue" d="M446.398,-168.444C482.522,-158.44 542.011,-141.966 578.572,-131.842"/>
<polygon fill="midnightblue" stroke="midnightblue" points="579.535,-135.207 588.238,-129.165 577.666,-128.461 579.535,-135.207"/>
</g>
<!-- Node7 -->
<g id="node7" class="node"><title>Node7</title>
<polygon fill="none" stroke="#bfbfbf" points="240,-112.5 240,-131.5 323,-131.5 323,-112.5 240,-112.5"/>
<text text-anchor="middle" x="281.5" y="-119.5" font-family="Helvetica,sans-Serif" font-size="10.00">unordered_map</text>
</g>
<!-- Node4&#45;&gt;Node7 -->
<g id="edge7" class="edge"><title>Node4&#45;&gt;Node7</title>
<path fill="none" stroke="midnightblue" d="M394.267,-168.444C372.116,-159.517 337.181,-145.439 312.064,-135.317"/>
<polygon fill="midnightblue" stroke="midnightblue" points="313.217,-132.008 302.633,-131.516 310.6,-138.501 313.217,-132.008"/>
</g>
<!-- Node8 -->
<g id="node8" class="node"><title>Node8</title>
<g id="a_node8"><a xlink:href="QualityObject_8h_source.html" target="_top" xlink:title="QualityControl/QualityObject.h">
<polygon fill="none" stroke="black" points="341,-112.5 341,-131.5 490,-131.5 490,-112.5 341,-112.5"/>
<text text-anchor="middle" x="415.5" y="-119.5" font-family="Helvetica,sans-Serif" font-size="10.00">QualityControl/QualityObject.h</text>
</a>
</g>
</g>
<!-- Node4&#45;&gt;Node8 -->
<g id="edge8" class="edge"><title>Node4&#45;&gt;Node8</title>
<path fill="none" stroke="midnightblue" d="M415.5,-168.083C415.5,-161.006 415.5,-150.861 415.5,-141.986"/>
<polygon fill="midnightblue" stroke="midnightblue" points="419,-141.751 415.5,-131.751 412,-141.751 419,-141.751"/>
</g>
<!-- Node4&#45;&gt;Node15 -->
<g id="edge16" class="edge"><title>Node4&#45;&gt;Node15</title>
<path fill="none" stroke="midnightblue" d="M361.626,-168.444C301.195,-158.846 203.262,-143.292 139.116,-133.104"/>
<polygon fill="midnightblue" stroke="midnightblue" points="139.547,-129.628 129.122,-131.516 138.449,-136.542 139.547,-129.628"/>
</g>
<!-- Node9 -->
<g id="node9" class="node"><title>Node9</title>
<polygon fill="none" stroke="#bfbfbf" points="478.5,-56.5 478.5,-75.5 532.5,-75.5 532.5,-56.5 478.5,-56.5"/>
<text text-anchor="middle" x="505.5" y="-63.5" font-family="Helvetica,sans-Serif" font-size="10.00">iostream</text>
</g>
<!-- Node8&#45;&gt;Node9 -->
<g id="edge9" class="edge"><title>Node8&#45;&gt;Node9</title>
<path fill="none" stroke="midnightblue" d="M429.96,-112.324C444,-103.9 465.548,-90.9709 482.043,-81.0741"/>
<polygon fill="midnightblue" stroke="midnightblue" points="484.302,-83.8007 491.076,-75.6545 480.7,-77.7983 484.302,-83.8007"/>
</g>
<!-- Node10 -->
<g id="node10" class="node"><title>Node10</title>
<polygon fill="none" stroke="#bfbfbf" points="74,-56.5 74,-75.5 109,-75.5 109,-56.5 74,-56.5"/>
<text text-anchor="middle" x="91.5" y="-63.5" font-family="Helvetica,sans-Serif" font-size="10.00">map</text>
</g>
<!-- Node8&#45;&gt;Node10 -->
<g id="edge10" class="edge"><title>Node8&#45;&gt;Node10</title>
<path fill="none" stroke="midnightblue" d="M349.528,-112.474C280,-103.251 174.047,-88.4592 119.215,-76.0098"/>
<polygon fill="midnightblue" stroke="midnightblue" points="119.813,-72.5543 109.273,-73.634 118.186,-79.3626 119.813,-72.5543"/>
</g>
<!-- Node11 -->
<g id="node11" class="node"><title>Node11</title>
<polygon fill="none" stroke="#bfbfbf" points="127,-56.5 127,-75.5 186,-75.5 186,-56.5 127,-56.5"/>
<text text-anchor="middle" x="156.5" y="-63.5" font-family="Helvetica,sans-Serif" font-size="10.00">TObject.h</text>
</g>
<!-- Node8&#45;&gt;Node11 -->
<g id="edge11" class="edge"><title>Node8&#45;&gt;Node11</title>
<path fill="none" stroke="midnightblue" d="M372.02,-112.44C329.674,-104.029 263.234,-90.6349 196.187,-76.1074"/>
<polygon fill="midnightblue" stroke="midnightblue" points="196.809,-72.6608 186.293,-73.9562 195.321,-79.501 196.809,-72.6608"/>
</g>
<!-- Node12 -->
<g id="node12" class="node"><title>Node12</title>
<polygon fill="none" stroke="#bfbfbf" points="204.5,-56.5 204.5,-75.5 320.5,-75.5 320.5,-56.5 204.5,-56.5"/>
<text text-anchor="middle" x="262.5" y="-63.5" font-family="Helvetica,sans-Serif" font-size="10.00">Common/Exceptions.h</text>
</g>
<!-- Node8&#45;&gt;Node12 -->
<g id="edge12" class="edge"><title>Node8&#45;&gt;Node12</title>
<path fill="none" stroke="midnightblue" d="M391.257,-112.444C365.629,-103.399 325.015,-89.064 296.262,-78.9158"/>
<polygon fill="midnightblue" stroke="midnightblue" points="297.225,-75.5442 286.63,-75.5164 294.895,-82.1452 297.225,-75.5442"/>
</g>
<!-- Node13 -->
<g id="node13" class="node"><title>Node13</title>
<g id="a_node13"><a xlink:href="Quality_8h.html" target="_top" xlink:title="QualityControl/Quality.h">
<polygon fill="none" stroke="black" points="339,-56.5 339,-75.5 460,-75.5 460,-56.5 339,-56.5"/>
<text text-anchor="middle" x="399.5" y="-63.5" font-family="Helvetica,sans-Serif" font-size="10.00">QualityControl/Quality.h</text>
</a>
</g>
</g>
<!-- Node8&#45;&gt;Node13 -->
<g id="edge13" class="edge"><title>Node8&#45;&gt;Node13</title>
<path fill="none" stroke="midnightblue" d="M412.858,-112.083C410.714,-104.849 407.621,-94.4087 404.951,-85.3968"/>
<polygon fill="midnightblue" stroke="midnightblue" points="408.29,-84.3447 402.093,-75.7511 401.578,-86.3334 408.29,-84.3447"/>
</g>
<!-- Node13&#45;&gt;Node5 -->
<g id="edge15" class="edge"><title>Node13&#45;&gt;Node5</title>
<path fill="none" stroke="midnightblue" d="M399.5,-56.083C399.5,-49.0059 399.5,-38.8611 399.5,-29.9865"/>
<polygon fill="midnightblue" stroke="midnightblue" points="403,-29.751 399.5,-19.7511 396,-29.7511 403,-29.751"/>
</g>
<!-- Node14 -->
<g id="node14" class="node"><title>Node14</title>
<polygon fill="none" stroke="#bfbfbf" points="142.5,-0.5 142.5,-19.5 198.5,-19.5 198.5,-0.5 142.5,-0.5"/>
<text text-anchor="middle" x="170.5" y="-7.5" font-family="Helvetica,sans-Serif" font-size="10.00">Rtypes.h</text>
</g>
<!-- Node13&#45;&gt;Node14 -->
<g id="edge14" class="edge"><title>Node13&#45;&gt;Node14</title>
<path fill="none" stroke="midnightblue" d="M363.214,-56.4435C320.948,-46.4769 251.446,-30.0877 208.471,-19.954"/>
<polygon fill="midnightblue" stroke="midnightblue" points="209.211,-16.5325 198.675,-17.6439 207.605,-23.3456 209.211,-16.5325"/>
</g>
<!-- Node15&#45;&gt;Node5 -->
<g id="edge17" class="edge"><title>Node15&#45;&gt;Node5</title>
<path fill="none" stroke="midnightblue" d="M70.089,-112.229C62.3839,-98.4955 50.6356,-71.8513 64.5,-56 84.3789,-33.2722 288.833,-18.0025 368.222,-12.8895"/>
<polygon fill="midnightblue" stroke="midnightblue" points="368.803,-16.3598 378.562,-12.2357 368.361,-9.37377 368.803,-16.3598"/>
</g>
<!-- Node15&#45;&gt;Node10 -->
<g id="edge18" class="edge"><title>Node15&#45;&gt;Node10</title>
<path fill="none" stroke="midnightblue" d="M78.1421,-112.083C80.2856,-104.849 83.3789,-94.4087 86.0491,-85.3968"/>
<polygon fill="midnightblue" stroke="midnightblue" points="89.4219,-86.3334 88.9071,-75.7511 82.7103,-84.3447 89.4219,-86.3334"/>
</g>
<!-- Node15&#45;&gt;Node11 -->
<g id="edge20" class="edge"><title>Node15&#45;&gt;Node11</title>
<path fill="none" stroke="midnightblue" d="M88.5141,-112.324C101.032,-103.979 120.182,-91.2122 134.971,-81.3524"/>
<polygon fill="midnightblue" stroke="midnightblue" points="137.139,-84.1137 143.518,-75.6545 133.256,-78.2894 137.139,-84.1137"/>
</g>
<!-- Node15&#45;&gt;Node12 -->
<g id="edge21" class="edge"><title>Node15&#45;&gt;Node12</title>
<path fill="none" stroke="midnightblue" d="M105.131,-112.444C137,-103.241 187.833,-88.5617 223.064,-78.3879"/>
<polygon fill="midnightblue" stroke="midnightblue" points="224.372,-81.6534 233.008,-75.5164 222.429,-74.9282 224.372,-81.6534"/>
</g>
<!-- Node15&#45;&gt;Node14 -->
<g id="edge19" class="edge"><title>Node15&#45;&gt;Node14</title>
<path fill="none" stroke="midnightblue" d="M62.3538,-112.46C44.6862,-99.9129 17.0718,-75.8365 31.5,-56 54.32,-24.6262 99.4879,-14.6784 132.155,-11.7534"/>
<polygon fill="midnightblue" stroke="midnightblue" points="132.551,-15.2341 142.277,-11.0322 132.054,-8.25178 132.551,-15.2341"/>
</g>
<!-- Node17&#45;&gt;Node4 -->
<g id="edge24" class="edge"><title>Node17&#45;&gt;Node4</title>
<path fill="none" stroke="midnightblue" d="M492.719,-224.324C478.233,-215.822 455.927,-202.729 439.007,-192.797"/>
<polygon fill="midnightblue" stroke="midnightblue" points="440.641,-189.698 430.245,-187.655 437.097,-195.735 440.641,-189.698"/>
</g>
<!-- Node18&#45;&gt;Node4 -->
<g id="edge27" class="edge"><title>Node18&#45;&gt;Node4</title>
<path fill="none" stroke="midnightblue" d="M643.559,-224.444C595.987,-214.964 519.256,-199.675 468.111,-189.483"/>
<polygon fill="midnightblue" stroke="midnightblue" points="468.731,-186.038 458.24,-187.516 467.363,-192.903 468.731,-186.038"/>
</g>
<!-- Node19 -->
<g id="node19" class="node"><title>Node19</title>
<polygon fill="none" stroke="#bfbfbf" points="639,-168.5 639,-187.5 734,-187.5 734,-168.5 639,-168.5"/>
<text text-anchor="middle" x="686.5" y="-175.5" font-family="Helvetica,sans-Serif" font-size="10.00">CCDB/CcdbApi.h</text>
</g>
<!-- Node18&#45;&gt;Node19 -->
<g id="edge26" class="edge"><title>Node18&#45;&gt;Node19</title>
<path fill="none" stroke="midnightblue" d="M686.5,-224.083C686.5,-217.006 686.5,-206.861 686.5,-197.986"/>
<polygon fill="midnightblue" stroke="midnightblue" points="690,-197.751 686.5,-187.751 683,-197.751 690,-197.751"/>
</g>
</g>
</svg>
