<?xml version="1.0" encoding="UTF-8" standalone="no"?>
<!DOCTYPE svg PUBLIC "-//W3C//DTD SVG 1.1//EN"
 "http://www.w3.org/Graphics/SVG/1.1/DTD/svg11.dtd">
<!-- Generated by graphviz version 2.38.0 (20140413.2041)
 -->
<!-- Title: Modules/Common/test/testNonEmpty.cxx Pages: 1 -->
<svg width="475pt" height="263pt"
 viewBox="0.00 0.00 474.51 263.00" xmlns="http://www.w3.org/2000/svg" xmlns:xlink="http://www.w3.org/1999/xlink">
<g id="graph0" class="graph" transform="scale(1 1) rotate(0) translate(4 259)">
<title>Modules/Common/test/testNonEmpty.cxx</title>
<!-- Node1 -->
<g id="node1" class="node"><title>Node1</title>
<polygon fill="#bfbfbf" stroke="black" points="240.508,-224.5 240.508,-254.5 356.508,-254.5 356.508,-224.5 240.508,-224.5"/>
<text text-anchor="start" x="248.508" y="-242.5" font-family="Helvetica,sans-Serif" font-size="10.00">Modules/Common/test</text>
<text text-anchor="middle" x="298.508" y="-231.5" font-family="Helvetica,sans-Serif" font-size="10.00">/testNonEmpty.cxx</text>
</g>
<!-- Node2 -->
<g id="node2" class="node"><title>Node2</title>
<g id="a_node2"><a xlink:href="NonEmpty_8h.html" target="_top" xlink:title="Common/NonEmpty.h">
<polygon fill="none" stroke="black" points="106.508,-168.5 106.508,-187.5 220.508,-187.5 220.508,-168.5 106.508,-168.5"/>
<text text-anchor="middle" x="163.508" y="-175.5" font-family="Helvetica,sans-Serif" font-size="10.00">Common/NonEmpty.h</text>
</a>
</g>
</g>
<!-- Node1&#45;&gt;Node2 -->
<g id="edge1" class="edge"><title>Node1&#45;&gt;Node2</title>
<path fill="none" stroke="midnightblue" d="M266.515,-224.399C244.066,-214.505 214.293,-201.383 192.531,-191.792"/>
<polygon fill="midnightblue" stroke="midnightblue" points="193.714,-188.488 183.151,-187.658 190.891,-194.894 193.714,-188.488"/>
</g>
<!-- Node11 -->
<g id="node11" class="node"><title>Node11</title>
<polygon fill="none" stroke="#bfbfbf" points="239.008,-168.5 239.008,-187.5 358.008,-187.5 358.008,-168.5 239.008,-168.5"/>
<text text-anchor="middle" x="298.508" y="-175.5" font-family="Helvetica,sans-Serif" font-size="10.00">boost/test/unit_test.hpp</text>
</g>
<!-- Node1&#45;&gt;Node11 -->
<g id="edge15" class="edge"><title>Node1&#45;&gt;Node11</title>
<path fill="none" stroke="midnightblue" d="M298.508,-224.399C298.508,-216.466 298.508,-206.458 298.508,-197.858"/>
<polygon fill="midnightblue" stroke="midnightblue" points="302.008,-197.658 298.508,-187.658 295.008,-197.658 302.008,-197.658"/>
</g>
<!-- Node12 -->
<g id="node12" class="node"><title>Node12</title>
<polygon fill="none" stroke="#bfbfbf" points="376.508,-168.5 376.508,-187.5 420.508,-187.5 420.508,-168.5 376.508,-168.5"/>
<text text-anchor="middle" x="398.508" y="-175.5" font-family="Helvetica,sans-Serif" font-size="10.00">TH1.h</text>
</g>
<!-- Node1&#45;&gt;Node12 -->
<g id="edge16" class="edge"><title>Node1&#45;&gt;Node12</title>
<path fill="none" stroke="midnightblue" d="M322.206,-224.399C338.236,-214.862 359.306,-202.325 375.244,-192.842"/>
<polygon fill="midnightblue" stroke="midnightblue" points="377.153,-195.779 383.957,-187.658 373.573,-189.763 377.153,-195.779"/>
</g>
<!-- Node3 -->
<g id="node3" class="node"><title>Node3</title>
<g id="a_node3"><a xlink:href="CheckInterface_8h.html" target="_top" xlink:title="QualityControl/CheckInterface.h">
<polygon fill="none" stroke="black" points="85.0078,-112.5 85.0078,-131.5 242.008,-131.5 242.008,-112.5 85.0078,-112.5"/>
<text text-anchor="middle" x="163.508" y="-119.5" font-family="Helvetica,sans-Serif" font-size="10.00">QualityControl/CheckInterface.h</text>
</a>
</g>
</g>
<!-- Node2&#45;&gt;Node3 -->
<g id="edge2" class="edge"><title>Node2&#45;&gt;Node3</title>
<path fill="none" stroke="midnightblue" d="M163.508,-168.083C163.508,-161.006 163.508,-150.861 163.508,-141.986"/>
<polygon fill="midnightblue" stroke="midnightblue" points="167.008,-141.751 163.508,-131.751 160.008,-141.751 167.008,-141.751"/>
</g>
<!-- Node4 -->
<g id="node4" class="node"><title>Node4</title>
<polygon fill="none" stroke="#bfbfbf" points="54.0078,-0.5 54.0078,-19.5 95.0078,-19.5 95.0078,-0.5 54.0078,-0.5"/>
<text text-anchor="middle" x="74.5078" y="-7.5" font-family="Helvetica,sans-Serif" font-size="10.00">string</text>
</g>
<!-- Node3&#45;&gt;Node4 -->
<g id="edge3" class="edge"><title>Node3&#45;&gt;Node4</title>
<path fill="none" stroke="midnightblue" d="M107.664,-112.467C67.0795,-104.991 17.1401,-92.7037 4.50777,-76 -11.1925,-55.2396 18.6693,-35.5033 44.1278,-23.3386"/>
<polygon fill="midnightblue" stroke="midnightblue" points="45.9022,-26.3771 53.5652,-19.0607 43.0122,-20.0015 45.9022,-26.3771"/>
</g>
<!-- Node5 -->
<g id="node5" class="node"><title>Node5</title>
<polygon fill="none" stroke="#bfbfbf" points="146.008,-0.5 146.008,-19.5 181.008,-19.5 181.008,-0.5 146.008,-0.5"/>
<text text-anchor="middle" x="163.508" y="-7.5" font-family="Helvetica,sans-Serif" font-size="10.00">map</text>
</g>
<!-- Node3&#45;&gt;Node5 -->
<g id="edge4" class="edge"><title>Node3&#45;&gt;Node5</title>
<path fill="none" stroke="midnightblue" d="M163.508,-112.368C163.508,-94.617 163.508,-53.6664 163.508,-29.5974"/>
<polygon fill="midnightblue" stroke="midnightblue" points="167.008,-29.5914 163.508,-19.5914 160.008,-29.5915 167.008,-29.5914"/>
</g>
<!-- Node6 -->
<g id="node6" class="node"><title>Node6</title>
<polygon fill="none" stroke="#bfbfbf" points="276.508,-0.5 276.508,-19.5 332.508,-19.5 332.508,-0.5 276.508,-0.5"/>
<text text-anchor="middle" x="304.508" y="-7.5" font-family="Helvetica,sans-Serif" font-size="10.00">Rtypes.h</text>
</g>
<!-- Node3&#45;&gt;Node6 -->
<g id="edge5" class="edge"><title>Node3&#45;&gt;Node6</title>
<path fill="none" stroke="midnightblue" d="M239.789,-112.471C285.839,-105.574 338.291,-93.9989 352.508,-76 365.958,-58.9714 345.628,-38.7893 327.43,-25.482"/>
<polygon fill="midnightblue" stroke="midnightblue" points="329.044,-22.3434 318.826,-19.5456 325.069,-28.1053 329.044,-22.3434"/>
</g>
<!-- Node7 -->
<g id="node7" class="node"><title>Node7</title>
<g id="a_node7"><a xlink:href="MonitorObject_8h.html" target="_top" xlink:title="QualityControl/MonitorObject.h">
<polygon fill="none" stroke="black" points="192.008,-56.5 192.008,-75.5 343.008,-75.5 343.008,-56.5 192.008,-56.5"/>
<text text-anchor="middle" x="267.508" y="-63.5" font-family="Helvetica,sans-Serif" font-size="10.00">QualityControl/MonitorObject.h</text>
</a>
</g>
</g>
<!-- Node3&#45;&gt;Node7 -->
<g id="edge6" class="edge"><title>Node3&#45;&gt;Node7</title>
<path fill="none" stroke="midnightblue" d="M180.217,-112.324C196.82,-103.703 222.51,-90.3643 241.728,-80.3855"/>
<polygon fill="midnightblue" stroke="midnightblue" points="243.578,-83.3689 250.84,-75.6545 240.352,-77.1565 243.578,-83.3689"/>
</g>
<!-- Node10 -->
<g id="node10" class="node"><title>Node10</title>
<g id="a_node10"><a xlink:href="Quality_8h.html" target="_top" xlink:title="QualityControl/Quality.h">
<polygon fill="none" stroke="black" points="14.0078,-56.5 14.0078,-75.5 135.008,-75.5 135.008,-56.5 14.0078,-56.5"/>
<text text-anchor="middle" x="74.5078" y="-63.5" font-family="Helvetica,sans-Serif" font-size="10.00">QualityControl/Quality.h</text>
</a>
</g>
</g>
<!-- Node3&#45;&gt;Node10 -->
<g id="edge12" class="edge"><title>Node3&#45;&gt;Node10</title>
<path fill="none" stroke="midnightblue" d="M149.208,-112.324C135.325,-103.9 114.015,-90.9709 97.7041,-81.0741"/>
<polygon fill="midnightblue" stroke="midnightblue" points="99.1366,-77.8495 88.7717,-75.6545 95.5055,-83.8341 99.1366,-77.8495"/>
</g>
<!-- Node7&#45;&gt;Node4 -->
<g id="edge7" class="edge"><title>Node7&#45;&gt;Node4</title>
<path fill="none" stroke="midnightblue" d="M236.926,-56.4435C200.842,-46.3474 141.202,-29.6606 105.109,-19.562"/>
<polygon fill="midnightblue" stroke="midnightblue" points="105.728,-16.1007 95.1543,-16.7767 103.841,-22.8418 105.728,-16.1007"/>
</g>
<!-- Node7&#45;&gt;Node5 -->
<g id="edge8" class="edge"><title>Node7&#45;&gt;Node5</title>
<path fill="none" stroke="midnightblue" d="M250.798,-56.324C234.196,-47.7034 208.506,-34.3643 189.287,-24.3855"/>
<polygon fill="midnightblue" stroke="midnightblue" points="190.664,-21.1565 180.176,-19.6545 187.438,-27.3689 190.664,-21.1565"/>
</g>
<!-- Node7&#45;&gt;Node6 -->
<g id="edge9" class="edge"><title>Node7&#45;&gt;Node6</title>
<path fill="none" stroke="midnightblue" d="M273.618,-56.083C278.79,-48.5341 286.354,-37.4948 292.702,-28.2298"/>
<polygon fill="midnightblue" stroke="midnightblue" points="295.747,-29.9787 298.512,-19.7511 289.972,-26.0221 295.747,-29.9787"/>
</g>
<!-- Node8 -->
<g id="node8" class="node"><title>Node8</title>
<polygon fill="none" stroke="#bfbfbf" points="199.008,-0.5 199.008,-19.5 258.008,-19.5 258.008,-0.5 199.008,-0.5"/>
<text text-anchor="middle" x="228.508" y="-7.5" font-family="Helvetica,sans-Serif" font-size="10.00">TObject.h</text>
</g>
<!-- Node7&#45;&gt;Node8 -->
<g id="edge10" class="edge"><title>Node7&#45;&gt;Node8</title>
<path fill="none" stroke="midnightblue" d="M261.068,-56.083C255.559,-48.4554 247.477,-37.2645 240.743,-27.9408"/>
<polygon fill="midnightblue" stroke="midnightblue" points="243.52,-25.8087 234.828,-19.7511 237.846,-29.9071 243.52,-25.8087"/>
</g>
<!-- Node9 -->
<g id="node9" class="node"><title>Node9</title>
<polygon fill="none" stroke="#bfbfbf" points="350.508,-0.5 350.508,-19.5 466.508,-19.5 466.508,-0.5 350.508,-0.5"/>
<text text-anchor="middle" x="408.508" y="-7.5" font-family="Helvetica,sans-Serif" font-size="10.00">Common/Exceptions.h</text>
</g>
<!-- Node7&#45;&gt;Node9 -->
<g id="edge11" class="edge"><title>Node7&#45;&gt;Node9</title>
<path fill="none" stroke="midnightblue" d="M289.85,-56.4435C313.261,-47.4776 350.243,-33.314 376.697,-23.1827"/>
<polygon fill="midnightblue" stroke="midnightblue" points="378.184,-26.3615 386.27,-19.5164 375.68,-19.8245 378.184,-26.3615"/>
</g>
<!-- Node10&#45;&gt;Node4 -->
<g id="edge14" class="edge"><title>Node10&#45;&gt;Node4</title>
<path fill="none" stroke="midnightblue" d="M74.5078,-56.083C74.5078,-49.0059 74.5078,-38.8611 74.5078,-29.9865"/>
<polygon fill="midnightblue" stroke="midnightblue" points="78.0079,-29.751 74.5078,-19.7511 71.0079,-29.7511 78.0079,-29.751"/>
</g>
<!-- Node10&#45;&gt;Node6 -->
<g id="edge13" class="edge"><title>Node10&#45;&gt;Node6</title>
<path fill="none" stroke="midnightblue" d="M111.532,-56.4779C148.353,-47.978 206.722,-34.4382 266.279,-20.2772"/>
<polygon fill="midnightblue" stroke="midnightblue" points="267.315,-23.6282 276.233,-17.9071 265.694,-16.8186 267.315,-23.6282"/>
</g>
</g>
</svg>
