<?xml version="1.0" encoding="UTF-8" standalone="no"?>
<!DOCTYPE svg PUBLIC "-//W3C//DTD SVG 1.1//EN"
 "http://www.w3.org/Graphics/SVG/1.1/DTD/svg11.dtd">
<!-- Generated by graphviz version 2.38.0 (20140413.2041)
 -->
<!-- Title: Modules/TOF/include/TOF/TOFCheckRawsTime.h Pages: 1 -->
<svg width="477pt" height="207pt"
 viewBox="0.00 0.00 477.00 207.00" xmlns="http://www.w3.org/2000/svg" xmlns:xlink="http://www.w3.org/1999/xlink">
<g id="graph0" class="graph" transform="scale(1 1) rotate(0) translate(4 203)">
<title>Modules/TOF/include/TOF/TOFCheckRawsTime.h</title>
<!-- Node1 -->
<g id="node1" class="node"><title>Node1</title>
<polygon fill="#bfbfbf" stroke="black" points="114.5,-168.5 114.5,-198.5 260.5,-198.5 260.5,-168.5 114.5,-168.5"/>
<text text-anchor="start" x="122.5" y="-186.5" font-family="Helvetica,sans-Serif" font-size="10.00">Modules/TOF/include</text>
<text text-anchor="middle" x="187.5" y="-175.5" font-family="Helvetica,sans-Serif" font-size="10.00">/TOF/TOFCheckRawsTime.h</text>
</g>
<!-- Node2 -->
<g id="node2" class="node"><title>Node2</title>
<g id="a_node2"><a xlink:href="CheckInterface_8h.html" target="_top" xlink:title="QualityControl/CheckInterface.h">
<polygon fill="none" stroke="black" points="109,-112.5 109,-131.5 266,-131.5 266,-112.5 109,-112.5"/>
<text text-anchor="middle" x="187.5" y="-119.5" font-family="Helvetica,sans-Serif" font-size="10.00">QualityControl/CheckInterface.h</text>
</a>
</g>
</g>
<!-- Node1&#45;&gt;Node2 -->
<g id="edge1" class="edge"><title>Node1&#45;&gt;Node2</title>
<path fill="none" stroke="midnightblue" d="M187.5,-168.399C187.5,-160.466 187.5,-150.458 187.5,-141.858"/>
<polygon fill="midnightblue" stroke="midnightblue" points="191,-141.658 187.5,-131.658 184,-141.658 191,-141.658"/>
</g>
<!-- Node6 -->
<g id="node6" class="node"><title>Node6</title>
<g id="a_node6"><a xlink:href="MonitorObject_8h.html" target="_top" xlink:title="QualityControl/MonitorObject.h">
<polygon fill="none" stroke="black" points="254,-56.5 254,-75.5 405,-75.5 405,-56.5 254,-56.5"/>
<text text-anchor="middle" x="329.5" y="-63.5" font-family="Helvetica,sans-Serif" font-size="10.00">QualityControl/MonitorObject.h</text>
</a>
</g>
</g>
<!-- Node1&#45;&gt;Node6 -->
<g id="edge14" class="edge"><title>Node1&#45;&gt;Node6</title>
<path fill="none" stroke="midnightblue" d="M217.331,-168.436C234.932,-159.373 257.095,-146.578 274.5,-132 291.419,-117.829 307.31,-98.0796 317.618,-84.078"/>
<polygon fill="midnightblue" stroke="midnightblue" points="320.555,-85.9889 323.54,-75.8234 314.867,-81.9084 320.555,-85.9889"/>
</g>
<!-- Node9 -->
<g id="node9" class="node"><title>Node9</title>
<g id="a_node9"><a xlink:href="Quality_8h.html" target="_top" xlink:title="QualityControl/Quality.h">
<polygon fill="none" stroke="black" points="0,-56.5 0,-75.5 121,-75.5 121,-56.5 0,-56.5"/>
<text text-anchor="middle" x="60.5" y="-63.5" font-family="Helvetica,sans-Serif" font-size="10.00">QualityControl/Quality.h</text>
</a>
</g>
</g>
<!-- Node1&#45;&gt;Node9 -->
<g id="edge15" class="edge"><title>Node1&#45;&gt;Node9</title>
<path fill="none" stroke="midnightblue" d="M154.302,-168.474C136.569,-159.819 115.22,-147.417 99.5,-132 85.5886,-118.356 74.7231,-98.7517 68.0338,-84.6452"/>
<polygon fill="midnightblue" stroke="midnightblue" points="71.2163,-83.1884 63.9171,-75.5091 64.8343,-86.0642 71.2163,-83.1884"/>
</g>
<!-- Node3 -->
<g id="node3" class="node"><title>Node3</title>
<polygon fill="none" stroke="#bfbfbf" points="163,-0.5 163,-19.5 204,-19.5 204,-0.5 163,-0.5"/>
<text text-anchor="middle" x="183.5" y="-7.5" font-family="Helvetica,sans-Serif" font-size="10.00">string</text>
</g>
<!-- Node2&#45;&gt;Node3 -->
<g id="edge2" class="edge"><title>Node2&#45;&gt;Node3</title>
<path fill="none" stroke="midnightblue" d="M187.186,-112.368C186.541,-94.617 185.052,-53.6664 184.176,-29.5974"/>
<polygon fill="midnightblue" stroke="midnightblue" points="187.674,-29.4576 183.812,-19.5914 180.678,-29.712 187.674,-29.4576"/>
</g>
<!-- Node4 -->
<g id="node4" class="node"><title>Node4</title>
<polygon fill="none" stroke="#bfbfbf" points="222,-0.5 222,-19.5 257,-19.5 257,-0.5 222,-0.5"/>
<text text-anchor="middle" x="239.5" y="-7.5" font-family="Helvetica,sans-Serif" font-size="10.00">map</text>
</g>
<!-- Node2&#45;&gt;Node4 -->
<g id="edge3" class="edge"><title>Node2&#45;&gt;Node4</title>
<path fill="none" stroke="midnightblue" d="M191.58,-112.368C200.048,-94.4563 219.682,-52.9233 231.015,-28.9482"/>
<polygon fill="midnightblue" stroke="midnightblue" points="234.329,-30.128 235.439,-19.5914 228,-27.1363 234.329,-30.128"/>
</g>
<!-- Node5 -->
<g id="node5" class="node"><title>Node5</title>
<polygon fill="none" stroke="#bfbfbf" points="88.5,-0.5 88.5,-19.5 144.5,-19.5 144.5,-0.5 88.5,-0.5"/>
<text text-anchor="middle" x="116.5" y="-7.5" font-family="Helvetica,sans-Serif" font-size="10.00">Rtypes.h</text>
</g>
<!-- Node2&#45;&gt;Node5 -->
<g id="edge4" class="edge"><title>Node2&#45;&gt;Node5</title>
<path fill="none" stroke="midnightblue" d="M181.929,-112.368C170.264,-94.2957 143.077,-52.1764 127.671,-28.3074"/>
<polygon fill="midnightblue" stroke="midnightblue" points="130.409,-26.0952 122.045,-19.5914 124.528,-29.8913 130.409,-26.0952"/>
</g>
<!-- Node2&#45;&gt;Node6 -->
<g id="edge5" class="edge"><title>Node2&#45;&gt;Node6</title>
<path fill="none" stroke="midnightblue" d="M210,-112.444C233.577,-103.478 270.822,-89.314 297.464,-79.1827"/>
<polygon fill="midnightblue" stroke="midnightblue" points="299.002,-82.3424 307.105,-75.5164 296.514,-75.7995 299.002,-82.3424"/>
</g>
<!-- Node2&#45;&gt;Node9 -->
<g id="edge11" class="edge"><title>Node2&#45;&gt;Node9</title>
<path fill="none" stroke="midnightblue" d="M167.376,-112.444C146.476,-103.557 113.565,-89.5632 89.7839,-79.4514"/>
<polygon fill="midnightblue" stroke="midnightblue" points="91.1016,-76.2085 80.5294,-75.5164 88.3625,-82.6504 91.1016,-76.2085"/>
</g>
<!-- Node6&#45;&gt;Node3 -->
<g id="edge6" class="edge"><title>Node6&#45;&gt;Node3</title>
<path fill="none" stroke="midnightblue" d="M306.366,-56.4435C281.302,-47.1732 241.214,-32.3464 213.687,-22.1652"/>
<polygon fill="midnightblue" stroke="midnightblue" points="214.758,-18.8297 204.165,-18.6433 212.33,-25.395 214.758,-18.8297"/>
</g>
<!-- Node6&#45;&gt;Node4 -->
<g id="edge7" class="edge"><title>Node6&#45;&gt;Node4</title>
<path fill="none" stroke="midnightblue" d="M315.04,-56.324C301,-47.9002 279.452,-34.9709 262.957,-25.0741"/>
<polygon fill="midnightblue" stroke="midnightblue" points="264.3,-21.7983 253.924,-19.6545 260.698,-27.8007 264.3,-21.7983"/>
</g>
<!-- Node6&#45;&gt;Node5 -->
<g id="edge8" class="edge"><title>Node6&#45;&gt;Node5</title>
<path fill="none" stroke="midnightblue" d="M295.75,-56.4435C257.333,-46.7041 194.725,-30.8317 154.59,-20.6567"/>
<polygon fill="midnightblue" stroke="midnightblue" points="155.204,-17.2017 144.651,-18.1368 153.484,-23.987 155.204,-17.2017"/>
</g>
<!-- Node7 -->
<g id="node7" class="node"><title>Node7</title>
<polygon fill="none" stroke="#bfbfbf" points="410,-0.5 410,-19.5 469,-19.5 469,-0.5 410,-0.5"/>
<text text-anchor="middle" x="439.5" y="-7.5" font-family="Helvetica,sans-Serif" font-size="10.00">TObject.h</text>
</g>
<!-- Node6&#45;&gt;Node7 -->
<g id="edge9" class="edge"><title>Node6&#45;&gt;Node7</title>
<path fill="none" stroke="midnightblue" d="M347.173,-56.324C364.894,-47.6247 392.403,-34.1202 412.788,-24.113"/>
<polygon fill="midnightblue" stroke="midnightblue" points="414.436,-27.2031 421.87,-19.6545 411.351,-20.9195 414.436,-27.2031"/>
</g>
<!-- Node8 -->
<g id="node8" class="node"><title>Node8</title>
<polygon fill="none" stroke="#bfbfbf" points="275.5,-0.5 275.5,-19.5 391.5,-19.5 391.5,-0.5 275.5,-0.5"/>
<text text-anchor="middle" x="333.5" y="-7.5" font-family="Helvetica,sans-Serif" font-size="10.00">Common/Exceptions.h</text>
</g>
<!-- Node6&#45;&gt;Node8 -->
<g id="edge10" class="edge"><title>Node6&#45;&gt;Node8</title>
<path fill="none" stroke="midnightblue" d="M330.161,-56.083C330.685,-49.0059 331.436,-38.8611 332.094,-29.9865"/>
<polygon fill="midnightblue" stroke="midnightblue" points="335.603,-29.9823 332.852,-19.7511 328.623,-29.4652 335.603,-29.9823"/>
</g>
<!-- Node9&#45;&gt;Node3 -->
<g id="edge13" class="edge"><title>Node9&#45;&gt;Node3</title>
<path fill="none" stroke="midnightblue" d="M79.9897,-56.4435C100.142,-47.5961 131.823,-33.6875 154.831,-23.5865"/>
<polygon fill="midnightblue" stroke="midnightblue" points="156.352,-26.7411 164.101,-19.5164 153.538,-20.3316 156.352,-26.7411"/>
</g>
<!-- Node9&#45;&gt;Node5 -->
<g id="edge12" class="edge"><title>Node9&#45;&gt;Node5</title>
<path fill="none" stroke="midnightblue" d="M69.4974,-56.324C77.6944,-48.4196 90.0055,-36.5482 99.972,-26.9377"/>
<polygon fill="midnightblue" stroke="midnightblue" points="102.57,-29.2947 107.339,-19.8339 97.711,-24.2558 102.57,-29.2947"/>
</g>
</g>
</svg>
